<?xml version="1.0" encoding="UTF-8"?>
<svg version="1.1" viewBox="0 0 2048 631" width="1238" height="382" xmlns="http://www.w3.org/2000/svg">
<path transform="translate(374,56)" d="m0 0h43l21 3 25 6 20 8 16 8 14 9 13 10 12 11 16 16-6 8-11 11-8 7-29 29-6 4-15-15-11-9-13-8-10-5-16-5-17-3h-24l-20 4-12 4-16 8-11 8-10 9-9 11-9 15-6 15-4 17-1 6v19l4 20 5 13 9 17 8 10 5 5 9 8 17 10 16 6 13 3 14 1h12l21-2 16-5 17-8 12-9 17-17 7-8 2-1 13 10 16 15 8 7 16 15 6 5-2 5-14 15-24 24-15 11-18 10-18 8-20 6-21 4-9 1h-42l-29-5-27-9-19-9-18-11-17-14-15-15-11-14-7-10-10-18-8-18-6-19-3-17v-6l-24 8-15 8-12 9-9 8-10 13-8 14-5 15-2 8v25l4 16 7 16 7 11 9 10 12 9 16 8 13 4 14 2 345 1 12 3 10 6 8 8 5 10 2 8v12l-4 13-7 10-9 7-10 4-4 1h-370l-18-3-21-7-19-10-17-12-13-11-14-14-11-14-11-18-8-17-6-18-4-19-2-18v-21l2-18 6-25 6-17 11-21 8-12 13-16 16-16 13-10 18-11 16-8 19-7 20-5 21-3 9-1 6-18 8-16 9-15 11-14 21-21 16-12 18-11 16-8 20-7 19-5z" fill="#FEFEFE"/>
<path transform="translate(1293,241)" d="m0 0h34v73h76v-73h34l1 1v118l-1 54h-34v-69h-76v69h-34z" fill="#FEFEFE"/>
<path transform="translate(1235,241)" d="m0 0h34v173h-34v-8l1-6-14 11-13 5-11 2h-10l-14-3-12-5-11-8-9-11-7-15-3-13v-24l4-16 8-14 9-10 9-7 13-6 9-2h19l13 3 11 6 9 7-1-9zm-41 73-11 4-10 9-6 12-1 4v16l3 10 8 11 10 6 9 2h9l13-4 9-7 6-9 3-10v-14l-3-10-5-8-8-7-8-4-4-1z" fill="#FEFEFE"/>
<path transform="translate(716,239)" d="m0 0h13l16 2 13 4 14 7 12 9 5 5-1 4-20 20-4-2-10-8-10-5-13-3h-17l-14 4-11 7-7 7-8 13-4 13-1 7v12l3 14 7 14 7 9 14 9 13 4 10 1 18-2 16-8 9-8 4 1 11 12 8 8-2 4-7 7-16 10-14 5-16 3h-21l-17-3-16-6-12-7-14-13-11-15-7-16-4-20v-20l4-18 7-16 7-11 11-12 12-9 16-8 17-4z" fill="#FEFEFE"/>
<path transform="translate(906,284)" d="m0 0h17l17 4 12 5 11 8 8 8 7 11 5 13 2 14-1 17-4 14-6 11-9 11-12 9-11 5-18 4h-18l-18-4-12-5-13-10-8-10-6-13-3-11-1-7v-14l3-14 5-12 7-10 11-11 11-7 12-4zm3 30-10 3-6 4-7 7-5 10-1 4v18l4 10 6 8 6 5 10 4 5 1h8l9-2 9-5 7-7 4-8 2-10v-9l-3-12-6-10-9-7-7-3-6-1z" fill="#FEFEFE"/>
<path transform="translate(1512,284)" d="m0 0h16l16 3 12 5 9 6 9 8 8 11 5 11 3 12v20l-4 15-4 9-6 9-5 6-12 9-10 5-9 3-12 2h-16l-16-3-13-5-9-6-11-11-7-12-4-12-2-15 1-16 4-13 5-10 7-9 7-7 14-9 12-4zm2 30-10 3-8 6-6 7-4 8-1 5v16l4 12 7 9 10 6 9 2h10l13-4 6-4 7-9 4-11v-18l-4-11-6-8-9-6-10-3z" fill="#FEFEFE"/>
<path transform="translate(1846,284)" d="m0 0h16l15 3 12 5 11 9 8 10 6 14 2 10v17l-1 6-48 1h-38l-4-1 5 13 5 8 9 6 6 2 11 1 11-1 12-5 8-6h4l17 17-2 4-7 7-14 8-11 4-11 2h-17l-16-3-12-5-14-10-9-12-5-10-4-15v-22l4-16 7-14 9-11 11-8 14-6zm3 28-9 3-8 7-5 10-1 6 1 1h57l1-2-4-12-7-8-8-4-4-1z" fill="#FEFEFE"/>
<path transform="translate(996,288)" d="m0 0h34l1 76 3 10 7 8 8 3 12 1 11-4 7-6 4-8 1-3 1-45v-31l1-1h34v126h-34l-1-1-1-12-8 8-12 6-16 3h-8l-15-3-10-5-10-10-5-10-4-16z" fill="#FEFEFE"/>
<path transform="translate(1643,284)" d="m0 0h16l16 3 13 5 9 5-1 6-9 19-3 1-12-6-15-4h-10l-9 3-3 4v6l5 4 16 5 17 5 10 4 10 9 5 8 2 7v14l-2 9-4 8-9 9-12 6-12 3-8 1h-11l-19-3-14-5-11-6-6-4 1-5 11-15 5-5 9 6 12 5 12 2h9l8-2 5-4 1-2v-6l-5-5-16-5-15-4-12-5-10-9-5-10-1-3v-13l4-13 7-9 8-7 12-5z" fill="#FEFEFE"/>
<path transform="translate(1723,261)" d="m0 0 33 1v25l32 1v28l-32 1v20l1 39 4 8 7 2h9l9-3 4 10 3 12v5l-9 4-7 2-10 1h-11l-12-2-10-6-7-8-4-11-1-5v-69l-17 1-1-1v-28h18v-26z" fill="#FEFEFE"/>
<path transform="translate(800,241)" d="m0 0h33l1 1v172h-34z" fill="#FEFEFE"/>
<path transform="translate(2e3 285)" d="m0 0h14l1 32-14 1-15 4-7 5h-2l-2 4-5 11-1 5-1 67h-34v-126h34v15l6-7 11-7 8-3z" fill="#FEFEFE"/>
</svg>
