<svg id="svg" version="1.1" xmlns="http://www.w3.org/2000/svg" xmlns:xlink="http://www.w3.org/1999/xlink" width="400" height="400" viewBox="0, 0, 400,400"><g id="svgg"><path id="path0" d="M139.063 10.592 C 95.601 14.062,59.404 44.470,48.612 86.577 C 36.622 133.358,59.063 183.104,101.577 203.988 C 104.328 205.340,106.593 206.533,106.610 206.641 C 106.627 206.748,97.808 206.784,87.012 206.720 C 59.291 206.557,56.141 207.284,50.997 215.035 C 47.732 219.953,47.879 218.510,47.743 246.875 C 47.606 275.136,47.651 275.781,50.053 280.424 L 51.575 283.364 50.210 285.961 C 47.677 290.781,47.668 290.900,47.669 317.773 C 47.670 337.318,47.778 342.503,48.230 344.637 C 49.734 351.732,55.114 357.310,62.695 359.633 C 65.793 360.583,303.600 360.774,308.203 359.831 C 315.552 358.326,321.827 352.479,323.625 345.464 C 324.112 343.560,324.232 339.176,324.315 320.250 L 324.414 297.340 327.930 297.543 C 353.175 298.999,373.739 272.255,366.139 247.852 C 363.691 239.990,362.448 238.630,343.228 222.788 C 334.169 215.321,321.396 204.779,314.844 199.360 C 273.638 165.284,275.455 166.650,269.692 165.429 C 264.870 164.408,260.312 165.023,255.834 167.300 L 253.270 168.604 247.241 163.581 C 243.924 160.819,240.879 158.229,240.472 157.827 C 239.748 157.109,239.769 157.015,241.534 153.059 C 252.811 127.786,252.615 96.793,241.010 70.281 C 224.001 31.421,182.502 7.125,139.063 10.592 M154.495 25.406 C 216.514 30.442,253.521 95.777,226.098 151.821 C 194.491 216.414,100.702 216.399,69.373 151.796 C 39.440 90.070,86.698 19.901,154.495 25.406 M138.672 40.041 C 83.937 46.755,56.349 108.535,87.549 154.524 C 119.923 202.244,192.983 194.478,215.393 140.934 C 237.023 89.251,194.404 33.204,138.672 40.041 M149.945 56.833 C 151.590 58.707,155.510 66.727,157.775 72.852 L 159.652 77.930 148.126 78.033 C 141.787 78.090,136.510 78.047,136.400 77.937 C 136.032 77.568,139.510 68.612,142.016 63.477 C 145.962 55.387,147.526 54.077,149.945 56.833 M131.409 59.976 C 128.911 65.321,127.407 69.148,125.965 73.828 L 124.702 77.930 112.711 78.033 L 100.720 78.136 101.620 76.861 C 107.754 68.169,125.559 56.360,132.688 56.257 C 132.952 56.253,132.403 57.847,131.409 59.976 M166.368 57.409 C 175.673 60.450,185.178 66.690,191.242 73.737 C 192.486 75.184,193.854 76.763,194.281 77.246 L 195.058 78.125 183.088 78.125 L 171.119 78.125 170.086 74.707 C 168.856 70.638,166.121 63.866,164.017 59.677 C 162.523 56.703,162.343 56.250,162.660 56.250 C 162.748 56.250,164.417 56.772,166.368 57.409 M121.727 90.527 C 120.830 95.780,120.203 100.723,119.982 104.284 L 119.727 108.398 104.590 108.501 C 92.611 108.582,89.454 108.500,89.455 108.110 C 89.471 104.690,91.742 95.273,93.519 91.254 L 94.488 89.063 108.233 89.063 L 121.977 89.063 121.727 90.527 M162.859 91.113 C 163.576 94.663,164.398 100.832,164.679 104.785 L 164.951 108.594 147.846 108.594 L 130.740 108.594 130.994 104.199 C 131.228 100.141,131.771 96.281,132.836 91.113 L 133.259 89.063 147.852 89.063 L 162.445 89.063 162.859 91.113 M202.358 92.285 C 203.704 95.773,205.251 102.246,205.673 106.152 L 205.936 108.594 190.916 108.594 L 175.896 108.594 175.636 104.561 C 175.492 102.343,175.028 98.168,174.603 95.284 C 174.179 92.399,173.831 89.819,173.830 89.551 C 173.829 89.169,176.816 89.063,187.472 89.063 L 201.115 89.063 202.358 92.285 M119.688 120.801 C 119.800 121.714,120.002 123.955,120.136 125.781 C 120.270 127.607,120.713 131.123,121.119 133.594 C 121.526 136.064,121.862 138.218,121.867 138.379 C 121.871 138.540,115.927 138.672,108.656 138.672 L 95.438 138.672 94.935 137.598 C 92.489 132.371,90.854 127.212,90.047 122.174 L 89.561 119.141 104.522 119.141 L 119.483 119.141 119.688 120.801 M164.668 120.605 C 164.566 121.411,164.377 123.472,164.248 125.186 C 164.019 128.230,163.338 132.642,162.475 136.666 L 162.045 138.672 147.652 138.672 L 133.259 138.672 132.836 136.621 C 131.736 131.282,131.211 127.572,130.986 123.535 L 130.740 119.141 147.796 119.141 L 164.853 119.141 164.668 120.605 M205.633 120.801 C 205.100 124.562,203.402 130.842,201.892 134.633 L 200.283 138.672 186.811 138.672 L 173.340 138.672 173.578 137.483 C 174.073 135.007,175.360 125.456,175.616 122.363 L 175.882 119.141 190.875 119.141 L 205.869 119.141 205.633 120.801 M126.354 154.492 C 128.251 159.863,129.055 161.876,130.993 166.113 C 132.607 169.643,132.661 169.612,127.863 167.935 C 119.218 164.911,107.290 156.631,103.096 150.740 L 102.282 149.597 113.490 149.701 L 124.698 149.805 126.354 154.492 M158.766 150.488 C 155.994 159.459,149.692 171.094,147.604 171.094 C 145.521 171.094,141.510 163.874,137.324 152.590 C 136.776 151.114,136.328 149.840,136.328 149.758 C 136.328 149.676,141.438 149.609,147.683 149.609 L 159.037 149.609 158.766 150.488 M192.969 149.936 C 192.969 150.750,183.454 159.440,180.163 161.631 C 175.123 164.987,165.884 169.141,163.460 169.141 C 163.205 169.141,164.161 166.434,165.633 162.988 C 167.846 157.809,168.696 155.567,170.516 150.098 C 170.705 149.529,192.969 149.368,192.969 149.936 M237.553 175.804 C 240.515 178.262,242.901 180.489,242.855 180.753 C 242.742 181.417,233.573 192.578,233.142 192.578 C 232.703 192.578,221.875 183.564,221.875 183.199 C 221.875 183.051,223.105 181.542,224.608 179.844 C 226.111 178.147,228.264 175.495,229.393 173.952 C 231.862 170.577,231.028 170.388,237.553 175.804 M272.559 184.069 C 278.356 188.857,297.095 204.296,316.797 220.518 C 350.868 248.571,349.813 247.608,351.597 252.290 C 357.990 269.068,337.887 288.660,322.334 280.809 C 319.129 279.191,239.479 213.920,238.746 212.311 C 237.453 209.474,237.469 209.448,250.191 194.141 C 263.421 178.223,261.685 180.132,263.495 179.510 C 265.739 178.738,266.673 179.208,272.559 184.069 M217.041 199.254 C 224.300 205.314,224.039 205.037,223.345 205.963 C 222.821 206.662,187.890 207.233,187.890 206.543 C 187.891 206.382,188.160 206.250,188.490 206.250 C 190.105 206.250,203.430 198.673,208.141 195.076 C 210.378 193.368,209.496 192.954,217.041 199.254 M238.477 231.570 L 250.977 241.992 237.430 242.188 C 222.073 242.409,222.539 242.310,220.801 245.711 C 218.804 249.619,220.352 253.992,224.318 255.649 C 225.553 256.165,228.784 256.250,247.174 256.250 L 268.591 256.250 279.901 265.679 C 286.122 270.865,291.519 275.301,291.895 275.538 C 292.271 275.775,292.578 276.059,292.578 276.168 C 292.578 276.612,66.225 276.185,65.140 275.739 C 62.420 274.621,62.500 275.435,62.500 248.841 C 62.500 221.298,62.339 222.557,66.016 221.349 C 66.338 221.243,102.461 221.155,146.289 221.152 L 225.977 221.148 238.477 231.570 M86.088 239.280 C 77.003 242.637,77.165 255.745,86.328 258.789 C 96.179 262.061,104.149 249.511,96.954 242.057 C 94.090 239.090,89.663 237.959,86.088 239.280 M307.456 291.516 C 309.832 293.117,309.754 292.228,309.760 317.714 C 309.766 344.152,309.868 343.209,306.866 344.572 C 304.339 345.720,67.887 345.701,65.358 344.553 C 62.375 343.199,62.500 344.363,62.500 317.969 C 62.500 292.061,62.419 292.940,64.960 291.390 C 66.194 290.639,67.882 290.628,186.173 290.626 L 306.134 290.625 307.456 291.516 M85.312 308.557 C 77.337 312.179,77.352 323.483,85.337 327.201 C 93.669 331.081,102.609 322.095,98.797 313.672 C 96.547 308.701,90.252 306.314,85.312 308.557 M223.634 311.553 C 218.588 314.184,218.703 321.525,223.832 324.275 C 225.115 324.963,226.717 325.000,255.499 325.000 L 285.815 325.000 287.536 324.092 C 292.218 321.622,292.195 314.114,287.499 311.718 C 285.384 310.639,225.682 310.485,223.634 311.553 " stroke="none" fill="#1a2361" fill-rule="evenodd"></path><path id="path1" d="M74.347 112.305 C 74.349 113.809,74.419 114.376,74.504 113.566 C 74.588 112.755,74.587 111.525,74.501 110.831 C 74.414 110.138,74.345 110.801,74.347 112.305 M263.495 179.510 C 261.685 180.132,263.421 178.223,250.191 194.141 C 237.469 209.448,237.453 209.474,238.746 212.311 C 239.479 213.920,319.129 279.191,322.334 280.809 C 337.887 288.660,357.990 269.068,351.597 252.290 C 349.813 247.608,350.868 248.571,316.797 220.518 C 297.095 204.296,278.356 188.857,272.559 184.069 C 266.673 179.208,265.739 178.738,263.495 179.510 M83.330 221.387 C 92.746 221.445,108.039 221.445,117.315 221.387 C 126.590 221.328,118.887 221.281,100.195 221.281 C 81.504 221.281,73.915 221.328,83.330 221.387 M135.456 221.377 C 136.158 221.464,137.213 221.462,137.800 221.373 C 138.387 221.284,137.813 221.213,136.523 221.215 C 135.234 221.217,134.754 221.290,135.456 221.377 M148.730 221.386 C 154.155 221.448,163.032 221.448,168.457 221.386 C 173.882 221.325,169.443 221.275,158.594 221.275 C 147.744 221.275,143.306 221.325,148.730 221.386 M180.176 221.363 C 180.552 221.461,181.167 221.461,181.543 221.363 C 181.919 221.265,181.611 221.184,180.859 221.184 C 180.107 221.184,179.800 221.265,180.176 221.363 M194.434 221.386 C 200.288 221.447,209.868 221.447,215.723 221.386 C 221.577 221.326,216.787 221.276,205.078 221.276 C 193.369 221.276,188.579 221.326,194.434 221.386 M65.099 221.973 C 65.266 222.242,64.664 222.422,63.965 222.312 C 63.804 222.286,63.693 222.397,63.718 222.559 C 63.837 223.310,63.638 223.854,63.318 223.655 C 63.123 223.535,63.063 223.816,63.184 224.279 C 63.305 224.743,63.245 225.024,63.050 224.903 C 62.839 224.773,62.695 234.472,62.695 248.828 C 62.695 262.108,62.842 272.770,63.022 272.521 C 63.219 272.249,63.272 272.420,63.156 272.950 C 63.050 273.433,63.123 273.731,63.318 273.610 C 63.512 273.490,63.694 273.578,63.721 273.805 C 63.748 274.033,63.792 274.438,63.818 274.707 C 63.845 274.975,64.131 275.212,64.453 275.233 C 65.787 275.321,66.053 275.405,65.881 275.684 C 65.781 275.845,116.366 275.932,178.293 275.878 C 277.957 275.790,290.885 275.711,290.885 275.194 C 290.885 274.872,290.803 274.692,290.702 274.793 C 290.354 275.140,288.272 273.378,288.532 272.957 C 288.675 272.725,288.616 272.645,288.399 272.779 C 287.893 273.091,286.523 272.098,286.523 271.418 C 286.523 271.132,286.348 270.892,286.133 270.885 C 285.364 270.857,283.994 269.890,284.086 269.440 C 284.137 269.187,284.004 268.967,283.789 268.949 C 282.988 268.884,281.652 267.929,281.742 267.487 C 281.794 267.234,281.660 267.013,281.445 266.996 C 280.735 266.939,279.303 265.998,279.398 265.652 C 279.450 265.465,279.404 265.338,279.297 265.370 C 278.778 265.521,276.583 263.561,276.816 263.154 C 276.960 262.902,276.939 262.821,276.769 262.974 C 276.407 263.302,274.805 262.272,274.805 261.711 C 274.805 261.501,274.717 261.371,274.609 261.424 C 274.146 261.652,271.887 259.670,272.128 259.247 C 272.273 258.995,272.252 258.915,272.082 259.068 C 271.698 259.415,270.117 258.350,270.117 257.745 C 270.117 256.930,268.664 256.868,246.758 256.747 C 234.152 256.678,225.052 256.481,225.177 256.280 C 225.295 256.089,225.012 256.031,224.549 256.153 C 223.976 256.303,223.794 256.230,223.983 255.925 C 224.168 255.626,224.037 255.563,223.589 255.735 C 223.137 255.908,223.010 255.845,223.198 255.540 C 223.372 255.259,223.278 255.164,222.951 255.289 C 222.244 255.561,220.534 253.714,220.918 253.094 C 221.122 252.764,221.052 252.714,220.697 252.933 C 220.318 253.168,220.249 253.074,220.437 252.583 C 220.582 252.206,220.534 252.011,220.329 252.138 C 220.128 252.262,219.780 251.700,219.555 250.889 C 219.043 249.047,219.045 247.918,219.558 249.023 C 219.834 249.619,219.867 249.505,219.696 248.544 C 219.440 247.098,219.808 245.586,220.336 245.913 C 220.533 246.035,220.579 245.833,220.437 245.464 C 220.264 245.012,220.327 244.885,220.632 245.073 C 220.920 245.251,221.007 245.149,220.870 244.794 C 220.616 244.132,222.556 242.470,223.153 242.839 C 223.381 242.980,223.442 242.901,223.293 242.660 C 222.710 241.717,226.203 241.411,237.563 241.408 C 248.155 241.406,249.141 241.350,249.054 240.755 C 249.001 240.397,248.657 240.060,248.288 240.006 C 247.418 239.878,246.486 239.098,246.595 238.589 C 246.641 238.369,246.363 238.137,245.977 238.072 C 245.070 237.920,244.142 237.147,244.251 236.636 C 244.298 236.416,244.020 236.184,243.633 236.119 C 242.697 235.962,241.801 235.190,241.907 234.631 C 241.954 234.383,241.713 234.225,241.372 234.280 C 240.784 234.375,239.541 233.346,239.481 232.715 C 239.466 232.554,239.409 232.452,239.355 232.488 C 239.061 232.687,237.522 231.551,237.602 231.193 C 237.653 230.959,237.379 230.715,236.992 230.650 C 236.086 230.498,235.157 229.725,235.266 229.214 C 235.313 228.994,235.035 228.762,234.649 228.697 C 233.742 228.545,232.813 227.772,232.923 227.261 C 232.969 227.041,232.691 226.809,232.305 226.744 C 231.398 226.592,230.470 225.819,230.579 225.307 C 230.626 225.088,230.348 224.855,229.961 224.791 C 229.109 224.648,228.118 223.872,228.235 223.439 C 228.282 223.266,228.225 223.151,228.108 223.184 C 227.991 223.216,227.427 222.935,226.855 222.560 C 225.753 221.839,64.655 221.253,65.099 221.973 M92.910 238.710 C 93.586 238.946,94.043 239.295,93.925 239.487 C 93.806 239.678,94.011 239.719,94.380 239.578 C 94.871 239.389,94.964 239.459,94.730 239.838 C 94.510 240.195,94.561 240.262,94.895 240.056 C 95.882 239.446,99.928 244.310,99.457 245.538 C 99.331 245.866,99.380 246.040,99.566 245.925 C 99.932 245.699,100.392 247.513,100.388 249.170 C 100.385 250.617,99.626 253.181,99.266 252.959 C 99.101 252.857,98.979 253.160,98.995 253.633 C 99.011 254.109,98.812 254.451,98.549 254.399 C 98.288 254.348,98.166 254.544,98.278 254.835 C 98.539 255.515,94.961 258.693,94.244 258.417 C 93.950 258.304,93.806 258.369,93.925 258.560 C 94.270 259.118,91.869 259.766,89.453 259.766 C 86.917 259.766,84.640 259.113,85.022 258.495 C 85.172 258.252,85.090 258.198,84.823 258.363 C 84.288 258.694,81.927 257.125,82.228 256.638 C 82.342 256.454,82.229 256.177,81.977 256.021 C 81.672 255.833,81.625 255.909,81.836 256.250 C 82.044 256.586,81.999 256.667,81.706 256.485 C 80.894 255.984,79.213 252.736,79.448 252.123 C 79.575 251.793,79.527 251.615,79.342 251.730 C 78.865 252.025,78.491 249.313,78.770 247.573 C 78.898 246.767,79.156 246.202,79.341 246.316 C 79.527 246.431,79.575 246.254,79.448 245.924 C 78.975 244.692,82.621 239.829,83.575 240.418 C 83.815 240.567,83.957 240.456,83.896 240.166 C 83.837 239.880,84.093 239.672,84.468 239.702 C 84.842 239.731,85.055 239.605,84.941 239.420 C 84.664 238.972,86.548 238.520,87.148 238.891 C 87.449 239.077,87.519 239.019,87.342 238.732 C 86.973 238.135,91.212 238.118,92.910 238.710 M231.543 242.089 C 235.034 242.154,240.747 242.154,244.238 242.089 C 247.729 242.024,244.873 241.971,237.891 241.971 C 230.908 241.971,228.052 242.024,231.543 242.089 M99.716 248.828 C 99.716 249.795,99.792 250.190,99.885 249.707 C 99.978 249.224,99.978 248.433,99.885 247.949 C 99.792 247.466,99.716 247.861,99.716 248.828 M186.116 291.014 C 52.110 291.234,64.712 290.944,63.496 293.835 C 63.219 294.494,62.911 294.876,62.810 294.684 C 62.710 294.493,62.682 294.557,62.748 294.827 C 62.814 295.098,62.884 305.956,62.903 318.957 C 62.928 336.180,63.055 342.523,63.371 342.327 C 63.648 342.156,63.718 342.284,63.566 342.681 C 63.435 343.023,63.581 343.512,63.890 343.769 C 64.200 344.026,64.453 344.131,64.453 344.003 C 64.453 343.874,64.925 343.949,65.501 344.168 C 67.018 344.744,305.524 344.738,306.601 344.162 C 307.035 343.930,307.609 343.786,307.877 343.842 C 308.144 343.899,308.393 343.726,308.430 343.457 C 308.466 343.188,308.518 342.783,308.545 342.555 C 308.572 342.328,308.764 342.247,308.972 342.375 C 309.214 342.525,309.347 333.687,309.342 317.778 C 309.338 304.121,309.194 293.035,309.021 293.141 C 308.849 293.248,308.300 292.901,307.801 292.371 C 307.303 291.840,306.652 291.406,306.354 291.406 C 306.057 291.406,305.922 291.230,306.055 291.016 C 306.187 290.801,306.242 290.668,306.175 290.721 C 306.109 290.774,252.082 290.906,186.116 291.014 M92.295 307.445 C 93.202 307.697,93.668 308.020,93.504 308.285 C 93.340 308.551,93.419 308.603,93.712 308.422 C 94.900 307.688,99.734 312.522,99.000 313.710 C 98.819 314.003,98.871 314.082,99.137 313.918 C 99.610 313.625,100.385 315.922,100.388 317.627 C 100.392 319.284,99.932 321.098,99.566 320.872 C 99.380 320.757,99.327 320.922,99.449 321.238 C 99.746 322.012,98.899 323.528,98.358 323.193 C 98.086 323.025,98.038 323.106,98.227 323.412 C 98.612 324.036,95.728 327.046,95.010 326.771 C 94.689 326.648,94.598 326.745,94.770 327.024 C 94.959 327.329,94.831 327.393,94.380 327.219 C 94.010 327.078,93.809 327.123,93.931 327.320 C 94.218 327.784,92.724 328.261,92.131 327.895 C 91.865 327.731,91.781 327.783,91.928 328.021 C 92.246 328.536,90.139 328.868,88.192 328.609 C 87.333 328.494,86.836 328.251,86.982 328.014 C 87.125 327.783,87.038 327.732,86.776 327.895 C 86.182 328.261,84.689 327.784,84.976 327.320 C 85.098 327.123,84.896 327.078,84.527 327.219 C 84.036 327.408,83.942 327.338,84.176 326.959 C 84.397 326.602,84.346 326.535,84.009 326.742 C 83.399 327.120,80.373 324.251,80.642 323.550 C 80.746 323.279,80.618 323.098,80.357 323.149 C 80.094 323.201,79.896 322.859,79.912 322.383 C 79.928 321.910,79.808 321.605,79.647 321.705 C 79.340 321.894,79.135 321.357,78.711 319.246 C 77.888 315.155,83.042 307.169,86.005 307.943 C 86.398 308.046,86.629 307.983,86.518 307.804 C 86.081 307.097,90.135 306.845,92.295 307.445 M88.969 307.698 C 89.455 307.792,90.158 307.788,90.532 307.690 C 90.905 307.592,90.508 307.516,89.648 307.520 C 88.789 307.525,88.483 307.605,88.969 307.698 M286.023 310.564 C 287.674 311.023,289.960 312.778,289.620 313.327 C 289.496 313.527,289.628 313.643,289.912 313.584 C 290.198 313.525,290.406 313.780,290.376 314.156 C 290.347 314.530,290.470 314.744,290.651 314.632 C 291.184 314.303,291.883 317.584,291.600 319.092 C 291.069 321.922,288.208 325.276,286.668 324.873 C 286.266 324.768,286.022 324.820,286.126 324.989 C 286.553 325.680,282.651 325.781,255.713 325.777 C 227.824 325.773,224.388 325.674,224.873 324.890 C 225.009 324.669,224.934 324.604,224.705 324.746 C 224.116 325.110,223.001 324.610,223.305 324.117 C 223.458 323.869,223.369 323.824,223.078 324.004 C 222.471 324.380,220.609 322.685,220.873 321.996 C 220.979 321.720,220.852 321.536,220.591 321.587 C 220.329 321.638,220.130 321.296,220.146 320.820 C 220.162 320.347,220.049 320.038,219.896 320.133 C 219.410 320.434,219.146 317.834,219.505 316.284 C 219.973 314.266,221.773 311.596,222.483 311.868 C 222.793 311.987,222.997 311.872,222.945 311.607 C 222.893 311.344,223.235 311.146,223.711 311.162 C 224.184 311.178,224.489 311.059,224.390 310.898 C 223.905 310.114,283.245 309.792,286.023 310.564 M240.303 310.840 C 248.398 310.899,261.757 310.899,269.991 310.840 C 278.224 310.781,271.602 310.733,255.273 310.733 C 238.945 310.733,232.209 310.781,240.303 310.840 M99.716 317.969 C 99.716 318.936,99.792 319.331,99.885 318.848 C 99.978 318.364,99.978 317.573,99.885 317.090 C 99.792 316.606,99.716 317.002,99.716 317.969 M291.106 317.969 C 291.106 318.721,291.187 319.028,291.285 318.652 C 291.383 318.276,291.383 317.661,291.285 317.285 C 291.187 316.909,291.106 317.217,291.106 317.969 M241.142 325.293 C 249.053 325.352,261.885 325.352,269.658 325.293 C 277.430 325.234,270.957 325.185,255.273 325.185 C 239.590 325.185,233.231 325.234,241.142 325.293 " stroke="none" fill="#6db1eb" fill-rule="evenodd"></path><path id="path2" d="M145.653 57.129 C 143.412 60.159,136.328 75.980,136.328 77.952 C 136.328 78.047,141.514 78.125,147.852 78.125 C 155.600 78.125,159.375 77.991,159.375 77.717 C 159.375 76.790,155.415 67.059,153.302 62.795 C 149.479 55.080,147.985 53.973,145.653 57.129 M129.297 57.375 C 118.563 60.914,109.171 67.381,102.581 75.768 L 100.729 78.125 112.643 78.125 L 124.557 78.125 124.809 77.246 C 126.639 70.881,129.171 64.295,131.867 58.887 C 132.590 57.437,133.055 56.257,132.899 56.265 C 132.744 56.273,131.123 56.773,129.297 57.375 M162.500 56.505 C 162.500 56.611,162.926 57.431,163.446 58.329 C 164.985 60.983,168.964 70.615,170.132 74.512 L 171.215 78.125 182.887 78.125 L 194.559 78.125 194.095 77.246 C 193.122 75.400,184.091 66.904,180.554 64.507 C 175.374 60.996,162.500 55.290,162.500 56.505 M93.762 90.793 C 91.975 94.962,90.501 100.612,89.908 105.566 L 89.593 108.203 104.511 108.203 L 119.429 108.203 119.671 106.738 C 119.804 105.933,119.916 104.482,119.919 103.516 C 119.925 101.901,121.159 92.652,121.704 90.137 L 121.937 89.063 108.220 89.063 L 94.503 89.063 93.762 90.793 M132.473 93.457 C 131.692 97.670,130.859 104.695,130.859 107.073 L 130.859 108.203 147.757 108.203 L 164.654 108.203 164.392 103.809 C 164.247 101.392,163.762 97.169,163.314 94.425 C 162.867 91.681,162.500 89.352,162.500 89.249 C 162.500 89.147,155.927 89.063,147.894 89.063 L 133.288 89.063 132.473 93.457 M173.828 89.203 C 173.828 89.281,174.179 91.610,174.607 94.379 C 175.036 97.148,175.502 101.392,175.643 103.809 L 175.900 108.203 190.804 108.203 L 205.707 108.203 205.376 105.063 C 204.975 101.254,203.602 95.721,202.108 91.895 L 201.003 89.063 187.416 89.063 C 179.943 89.063,173.828 89.126,173.828 89.203 M90.017 121.387 C 90.425 124.861,92.009 130.479,93.791 134.772 L 95.409 138.672 108.684 138.672 L 121.960 138.672 121.719 137.712 C 121.252 135.853,119.975 126.326,119.713 122.754 L 119.448 119.141 104.601 119.141 L 89.754 119.141 90.017 121.387 M130.863 120.996 C 130.867 123.771,131.552 129.335,132.498 134.277 L 133.338 138.672 147.658 138.672 L 161.979 138.672 162.819 134.277 C 163.829 128.998,164.453 124.005,164.453 121.202 L 164.453 119.141 147.656 119.141 L 130.859 119.141 130.863 120.996 M175.628 122.982 C 175.380 126.582,174.152 135.487,173.600 137.686 L 173.353 138.672 186.668 138.672 L 199.984 138.672 200.725 137.207 C 202.522 133.656,204.781 126.081,205.406 121.509 L 205.730 119.141 190.812 119.141 L 175.893 119.141 175.628 122.982 M104.275 151.928 C 110.840 159.506,122.530 166.835,131.358 168.906 L 132.443 169.161 131.267 166.830 C 129.730 163.786,127.124 157.301,125.758 153.125 L 124.672 149.805 113.498 149.740 L 102.323 149.675 104.275 151.928 M137.392 152.517 C 141.603 164.213,145.798 171.404,148.063 170.812 C 150.084 170.284,154.056 162.921,157.800 152.768 L 158.930 149.702 147.665 149.732 L 136.400 149.762 137.392 152.517 M169.677 152.888 C 168.435 156.624,165.254 164.450,163.860 167.201 C 162.700 169.491,162.626 169.476,167.263 167.923 C 176.112 164.960,187.826 156.911,192.164 150.814 L 192.881 149.805 181.806 149.763 L 170.730 149.721 169.677 152.888 " stroke="none" fill="#f59332" fill-rule="evenodd"></path><path id="path3" d="M0.000 200.000 L 0.000 400.000 200.000 400.000 L 400.000 400.000 400.000 200.000 L 400.000 0.000 200.000 0.000 L 0.000 0.000 0.000 200.000 M157.813 10.731 C 188.665 14.046,215.063 29.457,232.106 54.102 C 252.038 82.925,255.613 122.525,241.148 154.266 C 240.080 156.610,239.919 157.268,240.321 157.645 C 240.596 157.903,243.612 160.434,247.024 163.269 L 253.228 168.424 255.618 167.227 C 261.675 164.193,268.358 164.035,274.414 166.783 C 276.692 167.817,284.227 173.851,313.672 198.219 C 318.936 202.575,330.889 212.428,340.234 220.114 C 359.426 235.897,360.342 236.719,362.677 240.234 C 364.151 242.453,364.755 243.694,366.445 247.972 C 366.641 248.468,367.064 250.380,367.385 252.222 C 371.361 275.024,353.130 297.226,330.273 297.416 L 324.805 297.461 324.609 320.703 C 324.416 343.762,324.407 343.965,323.510 346.484 C 321.051 353.392,315.290 358.470,308.228 359.956 C 303.784 360.891,67.700 360.848,63.554 359.912 C 56.018 358.210,50.187 352.637,48.224 345.261 C 47.768 343.547,47.665 338.556,47.661 317.953 C 47.656 290.095,47.638 290.327,50.153 285.742 L 51.439 283.398 50.153 281.055 C 47.637 276.470,47.656 276.721,47.656 248.633 C 47.656 218.121,47.666 218.051,52.990 212.470 C 58.307 206.896,59.657 206.654,85.438 206.646 L 106.228 206.641 101.259 204.076 C 39.158 172.025,26.056 89.127,75.268 39.628 C 96.466 18.306,127.428 7.466,157.813 10.731 M137.542 25.837 C 74.804 32.395,40.226 103.195,72.951 158.090 C 109.323 219.101,201.538 212.326,228.257 146.680 C 253.698 84.173,204.641 18.823,137.542 25.837 M156.558 26.193 C 209.946 31.991,245.057 82.486,231.841 134.463 C 212.659 209.907,111.109 223.723,72.305 156.167 C 37.064 94.813,86.479 18.583,156.558 26.193 M142.578 39.126 C 89.958 42.709,58.263 98.021,81.620 145.508 C 109.848 202.896,192.650 199.477,216.453 139.940 C 234.668 94.381,202.321 42.219,154.001 39.233 C 147.694 38.844,146.843 38.836,142.578 39.126 M162.329 40.776 C 219.925 52.966,240.930 123.215,199.450 164.922 C 162.659 201.915,99.763 189.205,79.924 140.768 C 62.012 97.034,89.069 47.753,134.991 40.472 C 137.123 40.134,139.307 39.779,139.844 39.684 C 143.121 39.101,157.781 39.813,162.329 40.776 M229.478 174.093 C 228.248 175.727,226.015 178.456,224.516 180.157 C 222.177 182.812,221.875 183.316,222.388 183.715 C 222.717 183.971,225.297 186.093,228.120 188.431 C 230.944 190.770,233.392 192.528,233.561 192.338 C 234.214 191.603,242.018 181.939,242.481 181.293 C 242.914 180.688,242.332 180.073,237.342 175.866 L 231.714 171.122 229.478 174.093 M237.233 176.300 L 242.483 180.725 237.814 186.440 L 233.145 192.156 227.698 187.610 C 224.702 185.109,222.391 182.963,222.564 182.840 C 223.150 182.424,228.356 176.349,230.050 174.106 C 232.092 171.401,231.042 171.081,237.233 176.300 M209.566 194.147 C 208.740 195.484,195.456 203.474,190.653 205.524 L 188.086 206.619 205.525 206.630 C 223.779 206.641,223.438 206.670,223.438 205.109 C 223.438 204.794,210.404 193.750,210.032 193.750 C 209.911 193.750,209.701 193.929,209.566 194.147 " stroke="none" fill="#fbfbfb" fill-rule="evenodd"></path><path id="path4" d="M64.979 221.783 C 64.731 221.941,100.863 222.025,145.273 221.970 L 226.018 221.870 230.029 225.230 C 232.235 227.078,234.109 228.521,234.193 228.437 C 234.277 228.353,232.512 226.754,230.270 224.884 L 226.193 221.484 145.811 221.490 C 101.601 221.494,65.227 221.625,64.979 221.783 M63.057 224.032 C 62.568 225.202,62.498 228.968,62.589 249.199 C 62.707 275.591,62.575 274.292,65.272 275.678 C 66.386 276.250,291.955 276.410,291.732 275.838 C 291.660 275.654,286.416 271.178,280.078 265.892 L 268.555 256.280 246.998 256.265 C 232.753 256.255,225.069 256.109,224.342 255.835 C 219.419 253.974,218.239 247.374,222.163 243.645 C 223.955 241.941,225.195 241.797,238.018 241.797 C 245.111 241.797,250.012 241.650,249.935 241.441 C 249.802 241.078,235.232 228.906,234.930 228.906 C 234.494 228.906,235.262 229.585,242.050 235.193 L 249.335 241.211 236.845 241.406 L 224.355 241.602 222.732 242.676 C 217.763 245.967,218.460 253.755,223.928 256.040 C 225.162 256.556,228.400 256.641,246.856 256.641 L 268.346 256.641 279.716 266.113 L 291.087 275.586 178.729 275.684 C 54.081 275.793,64.611 276.018,63.446 273.229 C 62.613 271.236,62.623 226.005,63.457 224.011 C 63.768 223.266,63.935 222.656,63.827 222.656 C 63.720 222.656,63.373 223.275,63.057 224.032 M85.839 238.839 C 81.027 240.556,77.832 246.173,78.913 251.014 C 80.918 259.992,91.581 262.863,97.586 256.042 C 104.819 247.824,96.167 235.153,85.839 238.839 M92.666 239.080 C 98.552 240.715,101.636 248.339,98.636 253.837 C 93.876 262.560,81.147 260.539,79.294 250.766 C 77.872 243.266,85.074 236.972,92.666 239.080 M65.362 291.195 C 62.585 292.403,62.707 291.241,62.592 317.561 C 62.478 343.857,62.362 342.618,65.101 344.412 C 66.132 345.088,71.172 345.117,186.185 345.117 L 306.193 345.117 307.296 344.308 C 309.865 342.423,309.788 343.299,309.674 317.365 C 309.558 291.178,309.689 292.378,306.818 291.178 C 304.855 290.358,67.247 290.375,65.362 291.195 M307.903 292.488 L 309.180 293.765 309.292 316.924 C 309.415 342.459,309.409 342.535,307.145 343.854 C 305.518 344.802,67.315 345.005,65.324 344.060 C 62.867 342.893,62.892 343.165,62.892 317.969 C 62.892 292.408,62.820 293.102,65.625 291.699 C 66.920 291.051,73.337 291.020,186.809 291.113 L 306.626 291.211 307.903 292.488 M86.274 307.620 C 82.009 308.988,78.725 313.518,78.773 317.965 C 78.879 327.855,90.833 332.289,97.474 324.902 C 104.696 316.871,96.562 304.320,86.274 307.620 M92.605 308.050 C 98.448 309.779,101.578 316.875,98.854 322.215 C 93.821 332.080,79.170 328.920,79.170 317.969 C 79.170 310.933,85.802 306.036,92.605 308.050 M224.414 310.674 C 218.044 313.167,217.537 321.492,223.558 324.711 L 225.195 325.586 254.644 325.695 C 287.893 325.819,287.039 325.883,289.579 323.072 C 293.421 318.820,291.519 312.090,286.046 310.570 C 283.860 309.963,225.981 310.061,224.414 310.674 M287.410 311.440 C 292.706 314.333,292.318 322.727,286.797 324.683 C 285.174 325.258,226.920 325.459,224.910 324.897 C 218.481 323.098,218.174 313.382,224.475 311.111 C 227.047 310.183,285.671 310.490,287.410 311.440 " stroke="none" fill="#8ddcf4" fill-rule="evenodd"></path><path id="path5" d="M137.021 26.373 C 134.717 26.652,131.076 27.262,128.929 27.729 C 126.783 28.196,124.818 28.449,124.562 28.291 C 124.282 28.118,124.201 28.171,124.357 28.423 C 124.669 28.929,122.494 29.484,121.824 29.070 C 121.564 28.909,121.467 28.953,121.602 29.171 C 121.733 29.384,120.842 29.866,119.611 30.249 C 118.386 30.630,115.922 31.542,114.136 32.276 C 112.350 33.010,110.697 33.491,110.462 33.346 C 110.187 33.176,110.149 33.266,110.355 33.600 C 110.589 33.979,110.496 34.048,110.005 33.860 C 109.636 33.718,109.430 33.758,109.548 33.948 C 109.822 34.392,108.654 34.849,108.108 34.511 C 107.877 34.369,107.805 34.437,107.945 34.664 C 108.249 35.157,107.134 35.657,106.545 35.292 C 106.281 35.129,106.246 35.224,106.449 35.553 C 106.683 35.932,106.589 36.001,106.098 35.813 C 105.730 35.672,105.516 35.697,105.623 35.870 C 105.913 36.341,103.590 37.589,103.027 37.265 C 102.758 37.110,102.670 37.128,102.830 37.305 C 103.241 37.759,101.663 38.776,101.074 38.437 C 100.805 38.282,100.719 38.302,100.881 38.481 C 101.254 38.892,96.866 41.837,96.353 41.520 C 96.144 41.391,96.093 41.480,96.240 41.717 C 96.551 42.220,95.173 43.075,94.715 42.662 C 94.545 42.508,94.527 42.594,94.675 42.851 C 94.983 43.388,93.627 44.262,93.153 43.834 C 92.983 43.680,92.962 43.761,93.106 44.013 C 93.415 44.552,91.275 46.208,90.811 45.789 C 90.640 45.634,90.609 45.700,90.743 45.935 C 90.967 46.329,86.900 50.195,86.261 50.195 C 86.104 50.195,85.757 50.415,85.488 50.684 C 85.220 50.952,85.139 51.172,85.309 51.172 C 85.479 51.172,84.337 52.622,82.770 54.395 C 81.204 56.167,79.782 57.573,79.610 57.520 C 79.438 57.466,79.341 57.562,79.395 57.734 C 79.556 58.251,76.476 62.493,76.106 62.264 C 75.917 62.147,75.787 62.196,75.818 62.373 C 75.956 63.171,75.747 63.697,75.381 63.471 C 75.161 63.335,75.006 63.368,75.037 63.545 C 75.168 64.302,74.974 64.874,74.653 64.676 C 74.463 64.558,74.331 64.679,74.361 64.946 C 74.440 65.667,71.011 71.479,70.640 71.250 C 70.465 71.142,70.437 71.355,70.579 71.723 C 70.767 72.214,70.697 72.308,70.319 72.074 C 69.990 71.871,69.895 71.906,70.058 72.170 C 70.396 72.716,69.939 73.885,69.495 73.610 C 69.305 73.493,69.265 73.699,69.407 74.067 C 69.580 74.519,69.516 74.646,69.211 74.458 C 68.907 74.269,68.843 74.397,69.016 74.848 C 69.204 75.339,69.135 75.433,68.756 75.199 C 68.439 75.003,68.333 75.031,68.482 75.273 C 68.834 75.842,66.753 80.878,66.286 80.590 C 66.065 80.453,66.016 80.544,66.174 80.800 C 66.518 81.357,64.429 87.922,63.994 87.653 C 63.822 87.546,63.776 87.709,63.893 88.013 C 64.010 88.318,63.757 89.953,63.332 91.647 C 61.545 98.753,61.133 102.555,61.133 111.914 C 61.133 121.467,61.374 127.347,61.756 127.120 C 62.125 126.901,62.988 132.338,62.668 132.857 C 62.474 133.170,62.546 133.221,62.887 133.010 C 63.269 132.774,63.346 132.950,63.199 133.719 C 63.079 134.345,63.155 134.648,63.394 134.500 C 63.633 134.353,63.709 134.656,63.590 135.282 C 63.482 135.844,63.524 136.224,63.683 136.126 C 64.082 135.879,64.928 139.391,64.599 139.924 C 64.427 140.202,64.514 140.243,64.845 140.038 C 65.227 139.802,65.301 139.937,65.137 140.564 C 64.996 141.105,65.066 141.315,65.332 141.150 C 65.599 140.986,65.669 141.196,65.528 141.736 C 65.406 142.200,65.437 142.499,65.595 142.401 C 66.027 142.134,68.053 147.589,67.731 148.149 C 67.578 148.415,67.598 148.501,67.776 148.340 C 68.179 147.975,71.533 154.684,71.209 155.208 C 71.067 155.437,71.180 155.462,71.490 155.270 C 71.878 155.030,71.937 155.134,71.725 155.686 C 71.570 156.090,71.568 156.296,71.722 156.143 C 72.138 155.727,73.137 157.346,72.812 157.911 C 72.657 158.179,72.675 158.268,72.852 158.108 C 73.305 157.697,74.323 159.275,73.983 159.864 C 73.829 160.132,73.849 160.219,74.028 160.056 C 74.439 159.683,76.602 162.901,76.286 163.413 C 76.157 163.622,76.233 163.680,76.454 163.543 C 76.676 163.406,77.295 163.950,77.829 164.753 C 78.363 165.555,79.519 167.076,80.397 168.134 C 81.275 169.192,81.901 170.207,81.788 170.390 C 81.675 170.573,81.727 170.677,81.905 170.622 C 82.306 170.496,90.450 178.602,90.325 179.004 C 90.275 179.165,90.366 179.258,90.527 179.210 C 91.082 179.046,92.962 180.555,92.710 180.962 C 92.571 181.187,92.632 181.263,92.845 181.131 C 93.410 180.782,94.983 182.001,94.670 182.546 C 94.525 182.800,94.545 182.882,94.715 182.729 C 95.173 182.316,96.551 183.170,96.240 183.674 C 96.093 183.911,96.144 183.999,96.354 183.870 C 96.867 183.553,102.425 187.280,102.052 187.691 C 101.890 187.870,101.977 187.890,102.245 187.735 C 102.810 187.410,104.430 188.409,104.013 188.825 C 103.860 188.978,104.066 188.977,104.471 188.821 C 104.989 188.622,105.121 188.677,104.918 189.006 C 104.759 189.262,104.778 189.424,104.959 189.365 C 105.579 189.164,108.573 190.733,108.327 191.131 C 108.193 191.349,108.263 191.415,108.484 191.279 C 109.053 190.927,113.697 193.003,113.403 193.478 C 113.270 193.694,113.346 193.756,113.572 193.617 C 114.073 193.307,118.780 194.948,118.534 195.347 C 118.437 195.503,118.738 195.531,119.201 195.410 C 119.741 195.269,119.952 195.339,119.787 195.605 C 119.622 195.872,119.833 195.942,120.373 195.800 C 121.001 195.636,121.135 195.711,120.899 196.093 C 120.682 196.444,120.734 196.511,121.064 196.307 C 121.668 195.934,125.061 196.851,124.777 197.310 C 124.663 197.495,124.812 197.554,125.109 197.440 C 125.406 197.326,127.832 197.676,130.500 198.218 C 138.217 199.784,145.666 200.238,153.232 199.604 C 156.718 199.312,160.301 199.061,161.193 199.048 C 162.086 199.034,162.747 198.911,162.662 198.774 C 162.435 198.407,165.936 197.951,166.465 198.279 C 166.714 198.432,166.816 198.393,166.691 198.191 C 166.404 197.727,173.269 195.943,173.883 196.323 C 174.187 196.511,174.234 196.434,174.023 196.093 C 173.787 195.711,173.921 195.636,174.549 195.800 C 175.012 195.922,175.305 195.880,175.199 195.708 C 174.942 195.294,176.868 194.823,177.422 195.166 C 177.670 195.319,177.746 195.256,177.599 195.019 C 177.298 194.531,180.753 193.248,181.359 193.622 C 181.581 193.759,181.644 193.682,181.500 193.448 C 181.184 192.936,182.621 192.414,183.260 192.809 C 183.510 192.963,183.610 192.921,183.482 192.714 C 183.183 192.230,189.751 188.959,190.318 189.309 C 190.553 189.455,190.638 189.399,190.506 189.186 C 190.374 188.972,190.947 188.415,191.780 187.947 C 192.613 187.479,194.875 186.058,196.808 184.789 C 198.740 183.520,200.453 182.600,200.614 182.745 C 200.775 182.890,200.786 182.797,200.638 182.539 C 200.330 182.003,201.685 181.128,202.160 181.557 C 202.330 181.710,202.348 181.625,202.200 181.367 C 201.934 180.903,203.390 179.820,204.033 180.005 C 204.210 180.056,204.256 179.937,204.134 179.741 C 203.923 179.399,206.520 177.152,207.129 177.150 C 207.290 177.149,207.428 176.973,207.435 176.758 C 207.451 176.290,210.963 172.665,211.293 172.775 C 211.420 172.817,211.587 172.676,211.666 172.461 C 212.035 171.446,214.178 169.166,214.548 169.394 C 214.777 169.536,214.857 169.478,214.725 169.265 C 214.387 168.717,215.590 167.120,216.103 167.437 C 216.339 167.583,216.416 167.519,216.277 167.294 C 216.139 167.071,216.387 166.430,216.828 165.869 C 217.270 165.308,218.648 163.358,219.892 161.535 C 221.136 159.712,222.295 158.349,222.467 158.505 C 222.640 158.661,222.655 158.570,222.501 158.302 C 222.177 157.738,223.425 155.415,223.895 155.706 C 224.068 155.812,224.094 155.598,223.953 155.230 C 223.791 154.808,223.848 154.654,224.108 154.815 C 224.335 154.955,224.504 154.852,224.484 154.586 C 224.413 153.670,226.655 149.230,227.062 149.481 C 227.283 149.618,227.352 149.547,227.213 149.324 C 226.893 148.805,227.708 146.422,228.119 146.676 C 228.289 146.781,228.420 146.649,228.410 146.383 C 228.362 145.046,228.548 144.505,228.967 144.764 C 229.248 144.938,229.311 144.871,229.136 144.587 C 228.981 144.336,229.229 143.129,229.687 141.904 C 230.145 140.680,231.090 137.426,231.787 134.674 C 232.484 131.921,233.185 129.800,233.345 129.959 C 233.504 130.119,233.531 129.979,233.404 129.648 C 233.277 129.318,233.444 126.985,233.774 124.464 C 234.592 118.230,234.564 106.833,233.717 100.899 C 233.356 98.363,233.048 95.647,233.034 94.862 C 233.019 94.076,232.850 93.531,232.658 93.650 C 232.466 93.769,232.397 93.406,232.504 92.843 C 232.612 92.281,232.569 91.902,232.408 92.001 C 232.011 92.246,231.534 89.550,231.877 88.996 C 232.039 88.735,231.979 88.658,231.733 88.810 C 231.227 89.123,230.672 86.947,231.086 86.277 C 231.277 85.969,231.201 85.921,230.858 86.134 C 230.476 86.370,230.402 86.235,230.566 85.607 C 230.707 85.067,230.637 84.857,230.371 85.021 C 230.104 85.186,230.034 84.976,230.175 84.436 C 230.317 83.895,230.247 83.685,229.980 83.850 C 229.714 84.014,229.644 83.804,229.785 83.264 C 229.906 82.800,229.878 82.500,229.722 82.596 C 229.305 82.854,228.419 80.160,228.747 79.629 C 228.912 79.363,228.857 79.281,228.614 79.431 C 228.119 79.737,227.241 77.451,227.606 76.811 C 227.746 76.567,227.707 76.506,227.520 76.677 C 227.088 77.070,223.734 70.390,224.081 69.828 C 224.223 69.599,224.169 69.516,223.960 69.645 C 223.454 69.958,222.144 67.700,222.499 67.126 C 222.671 66.848,222.605 66.782,222.326 66.955 C 221.900 67.218,221.685 66.692,221.861 65.820 C 221.905 65.605,221.808 65.562,221.645 65.724 C 221.262 66.108,218.328 61.695,218.636 61.197 C 218.765 60.988,218.677 60.937,218.439 61.083 C 217.936 61.395,217.081 60.016,217.494 59.559 C 217.648 59.389,217.563 59.371,217.305 59.519 C 216.768 59.826,215.894 58.471,216.322 57.997 C 216.476 57.826,216.401 57.802,216.156 57.942 C 215.705 58.199,214.197 56.328,214.376 55.733 C 214.429 55.556,214.312 55.510,214.116 55.631 C 213.731 55.869,210.059 51.790,210.375 51.474 C 210.480 51.369,210.254 51.038,209.873 50.739 C 209.229 50.234,209.221 50.250,209.759 50.977 C 210.331 51.748,210.327 51.749,209.475 51.022 C 209.001 50.617,208.709 50.130,208.827 49.938 C 208.946 49.747,208.896 49.638,208.717 49.697 C 208.226 49.859,204.694 46.791,204.930 46.407 C 205.044 46.224,204.991 46.118,204.814 46.171 C 204.239 46.343,202.343 44.849,202.603 44.428 C 202.743 44.202,202.669 44.135,202.437 44.278 C 202.207 44.420,201.521 44.123,200.912 43.618 C 200.303 43.113,198.355 41.734,196.583 40.554 C 194.811 39.374,193.493 38.264,193.654 38.087 C 193.814 37.910,193.726 37.892,193.458 38.046 C 192.868 38.385,191.290 37.368,191.702 36.914 C 191.861 36.738,191.799 36.704,191.562 36.838 C 190.992 37.163,182.723 33.041,183.103 32.622 C 183.266 32.443,183.175 32.426,182.901 32.583 C 182.238 32.965,178.851 31.655,179.170 31.140 C 179.313 30.909,179.226 30.857,178.965 31.018 C 178.451 31.336,171.833 29.290,172.081 28.889 C 172.169 28.746,171.782 28.716,171.219 28.824 C 170.450 28.971,170.274 28.894,170.510 28.512 C 170.710 28.188,170.670 28.099,170.398 28.267 C 170.164 28.412,167.808 28.097,165.162 27.568 C 155.909 25.716,145.944 25.293,137.021 26.373 M154.046 39.236 C 156.164 39.368,159.679 39.821,161.858 40.244 C 164.037 40.667,165.875 41.014,165.941 41.014 C 166.007 41.015,165.969 41.166,165.855 41.350 C 165.742 41.534,166.109 41.596,166.671 41.488 C 167.441 41.341,167.617 41.419,167.381 41.801 C 167.171 42.139,167.220 42.213,167.527 42.024 C 168.197 41.610,170.373 42.165,170.060 42.670 C 169.903 42.924,169.986 42.975,170.269 42.801 C 170.884 42.420,174.638 43.778,174.334 44.271 C 174.202 44.483,174.299 44.527,174.553 44.371 C 175.146 44.004,176.640 44.481,176.353 44.946 C 176.231 45.142,176.378 45.209,176.680 45.093 C 177.433 44.804,185.213 48.811,184.896 49.324 C 184.752 49.557,184.834 49.613,185.089 49.456 C 185.626 49.124,188.399 50.924,187.986 51.337 C 187.826 51.497,187.871 51.592,188.086 51.549 C 188.862 51.392,189.495 51.569,189.298 51.888 C 189.187 52.067,189.314 52.214,189.580 52.214 C 190.356 52.214,192.202 53.567,191.960 53.959 C 191.838 54.155,191.884 54.275,192.061 54.224 C 192.635 54.058,194.170 55.106,193.927 55.498 C 193.798 55.707,193.860 55.830,194.065 55.771 C 194.691 55.591,196.916 57.431,196.630 57.893 C 196.475 58.143,196.542 58.214,196.789 58.061 C 197.280 57.757,202.745 63.150,202.621 63.816 C 202.576 64.059,202.749 64.217,203.006 64.167 C 203.600 64.052,205.150 66.195,204.774 66.611 C 204.619 66.782,204.700 66.803,204.954 66.658 C 205.511 66.338,206.709 67.918,206.366 68.521 C 206.233 68.754,206.268 68.816,206.443 68.658 C 206.869 68.271,208.634 70.704,208.323 71.250 C 208.188 71.486,208.229 71.542,208.413 71.374 C 208.847 70.980,211.380 74.979,211.057 75.547 C 210.922 75.783,210.958 75.844,211.136 75.682 C 211.579 75.281,213.396 78.404,213.048 78.967 C 212.863 79.267,212.943 79.310,213.287 79.098 C 213.666 78.864,213.736 78.958,213.547 79.448 C 213.406 79.817,213.443 80.024,213.631 79.908 C 214.089 79.625,215.729 83.500,215.385 84.056 C 215.226 84.314,215.289 84.388,215.537 84.234 C 216.048 83.918,216.571 85.356,216.176 85.994 C 216.017 86.251,216.064 86.344,216.284 86.209 C 216.779 85.902,218.917 91.971,218.602 92.791 C 218.473 93.126,218.528 93.301,218.722 93.181 C 219.386 92.771,220.915 100.778,221.463 107.532 C 221.937 113.371,221.161 126.107,220.361 125.618 C 220.227 125.536,220.104 126.198,220.088 127.090 C 220.048 129.350,218.379 135.214,217.866 134.898 C 217.621 134.746,217.574 134.834,217.750 135.118 C 218.124 135.724,217.666 137.601,217.212 137.320 C 217.024 137.204,216.969 137.488,217.090 137.951 C 217.254 138.579,217.180 138.713,216.798 138.477 C 216.469 138.274,216.380 138.313,216.549 138.587 C 216.892 139.142,214.870 144.203,214.417 143.923 C 214.227 143.805,214.187 144.011,214.329 144.380 C 214.517 144.871,214.447 144.964,214.069 144.730 C 213.737 144.525,213.645 144.562,213.812 144.832 C 214.141 145.365,213.281 147.312,212.838 147.038 C 212.657 146.926,212.625 147.136,212.766 147.505 C 212.954 147.996,212.885 148.089,212.506 147.855 C 212.162 147.643,212.082 147.686,212.267 147.986 C 212.622 148.560,211.312 150.817,210.805 150.504 C 210.597 150.375,210.550 150.470,210.701 150.714 C 211.033 151.251,209.232 154.024,208.820 153.611 C 208.660 153.451,208.564 153.496,208.607 153.711 C 208.789 154.610,208.568 155.109,208.105 154.843 C 207.837 154.689,207.743 154.701,207.896 154.872 C 208.325 155.346,207.450 156.701,206.914 156.394 C 206.656 156.246,206.571 156.264,206.725 156.434 C 207.137 156.891,206.283 158.270,205.779 157.958 C 205.542 157.812,205.453 157.861,205.580 158.068 C 205.708 158.275,205.371 158.961,204.831 159.593 C 204.291 160.225,203.978 160.495,204.134 160.194 C 204.322 159.830,204.263 159.740,203.960 159.928 C 203.709 160.083,203.608 160.380,203.735 160.586 C 204.081 161.146,195.436 169.654,194.874 169.306 C 194.590 169.131,194.514 169.187,194.677 169.451 C 194.942 169.881,193.457 170.953,192.842 170.776 C 192.665 170.725,192.617 170.841,192.736 171.033 C 192.984 171.434,188.437 174.740,187.638 174.740 C 187.347 174.740,187.201 174.831,187.313 174.943 C 187.660 175.290,183.974 177.384,183.515 177.100 C 183.277 176.953,183.188 177.003,183.316 177.210 C 183.616 177.695,178.609 180.182,178.041 179.831 C 177.802 179.683,177.724 179.745,177.864 179.972 C 178.185 180.492,175.983 181.421,175.354 181.032 C 175.082 180.864,174.980 180.902,175.115 181.120 C 175.419 181.613,171.665 182.971,171.050 182.590 C 170.775 182.420,170.685 182.466,170.831 182.703 C 171.129 183.186,166.606 184.535,165.768 184.213 C 165.452 184.092,165.287 184.144,165.401 184.328 C 166.071 185.412,152.973 186.874,144.947 186.610 C 136.573 186.335,124.956 184.222,125.649 183.101 C 125.793 182.868,125.715 182.807,125.469 182.959 C 124.841 183.348,123.005 182.805,123.305 182.320 C 123.454 182.079,123.370 182.027,123.100 182.194 C 122.451 182.595,119.854 181.675,120.174 181.158 C 120.328 180.908,120.249 180.852,119.979 181.020 C 119.386 181.386,117.892 180.909,118.179 180.445 C 118.301 180.248,118.099 180.203,117.730 180.344 C 117.239 180.533,117.145 180.463,117.379 180.084 C 117.590 179.742,117.548 179.660,117.254 179.842 C 116.716 180.174,111.671 177.737,111.952 177.282 C 112.061 177.106,111.921 177.048,111.641 177.154 C 111.072 177.368,107.681 175.261,108.032 174.911 C 108.155 174.788,107.936 174.714,107.546 174.746 C 107.155 174.778,106.870 174.614,106.912 174.382 C 106.954 174.149,106.772 173.958,106.509 173.958 C 105.659 173.958,103.905 172.585,104.168 172.125 C 104.308 171.880,104.283 171.805,104.113 171.959 C 103.638 172.387,102.283 171.513,102.591 170.976 C 102.739 170.719,102.719 170.634,102.548 170.789 C 102.102 171.193,99.939 169.555,100.251 169.050 C 100.407 168.798,100.328 168.743,100.053 168.913 C 99.429 169.298,91.637 161.512,92.023 160.888 C 92.196 160.608,92.141 160.530,91.884 160.688 C 91.399 160.988,90.159 159.423,90.475 158.911 C 90.589 158.726,90.506 158.623,90.290 158.682 C 89.782 158.821,87.851 156.240,88.128 155.791 C 88.244 155.603,88.107 155.498,87.822 155.557 C 87.536 155.616,87.329 155.360,87.358 154.985 C 87.388 154.611,87.256 154.402,87.065 154.519 C 86.744 154.718,86.551 154.146,86.682 153.389 C 86.713 153.212,86.575 153.168,86.376 153.291 C 85.897 153.587,84.291 150.842,84.626 150.300 C 84.769 150.069,84.712 149.987,84.498 150.119 C 83.987 150.435,82.292 147.401,82.653 146.816 C 82.840 146.515,82.761 146.470,82.416 146.683 C 82.037 146.918,81.967 146.824,82.156 146.333 C 82.297 145.964,82.258 145.759,82.068 145.876 C 81.624 146.150,81.167 144.982,81.504 144.436 C 81.646 144.206,81.578 144.133,81.353 144.272 C 80.828 144.597,78.340 138.491,78.736 137.851 C 78.933 137.531,78.862 137.481,78.514 137.696 C 78.133 137.932,78.058 137.798,78.222 137.170 C 78.364 136.630,78.293 136.419,78.027 136.584 C 77.761 136.749,77.690 136.538,77.832 135.998 C 77.973 135.458,77.903 135.247,77.636 135.412 C 77.370 135.577,77.300 135.366,77.441 134.826 C 77.562 134.363,77.516 134.073,77.339 134.183 C 76.909 134.448,76.427 132.176,76.789 131.590 C 76.979 131.283,76.905 131.234,76.566 131.443 C 76.184 131.679,76.107 131.504,76.254 130.734 C 76.374 130.108,76.298 129.805,76.059 129.953 C 75.820 130.100,75.744 129.797,75.863 129.171 C 75.984 128.539,75.908 128.242,75.664 128.393 C 75.408 128.551,75.355 128.098,75.514 127.112 C 75.653 126.248,75.618 125.812,75.434 126.107 C 74.839 127.060,74.032 119.137,74.028 112.305 C 74.023 105.581,74.442 100.241,74.950 100.555 C 75.102 100.649,75.154 100.100,75.065 99.333 C 74.941 98.274,75.022 98.014,75.402 98.249 C 75.735 98.455,75.806 98.403,75.614 98.093 C 75.256 97.513,75.740 94.460,76.150 94.713 C 76.315 94.815,76.362 94.438,76.254 93.875 C 76.120 93.176,76.199 92.939,76.501 93.126 C 76.784 93.301,76.862 93.186,76.717 92.807 C 76.388 91.950,78.485 85.872,79.000 86.190 C 79.248 86.344,79.304 86.264,79.137 85.994 C 78.742 85.356,79.264 83.918,79.776 84.234 C 80.019 84.384,80.087 84.315,79.936 84.070 C 79.562 83.466,80.853 80.419,81.352 80.727 C 81.578 80.867,81.647 80.794,81.504 80.564 C 81.167 80.018,81.624 78.850,82.068 79.124 C 82.258 79.241,82.297 79.036,82.156 78.667 C 81.967 78.176,82.037 78.082,82.416 78.317 C 82.760 78.529,82.840 78.485,82.655 78.186 C 82.300 77.612,83.610 75.355,84.116 75.668 C 84.325 75.796,84.373 75.703,84.222 75.459 C 83.846 74.851,84.702 73.352,85.236 73.682 C 85.492 73.840,85.557 73.771,85.397 73.512 C 85.042 72.937,87.086 69.861,87.608 70.184 C 87.830 70.321,87.904 70.260,87.773 70.047 C 87.451 69.526,89.396 66.715,89.874 67.011 C 90.083 67.140,90.212 67.101,90.161 66.924 C 89.984 66.309,91.057 64.823,91.486 65.088 C 91.750 65.251,91.807 65.176,91.633 64.895 C 91.248 64.271,99.037 56.482,99.660 56.867 C 99.930 57.034,100.017 56.984,99.871 56.748 C 99.556 56.239,103.089 53.448,103.628 53.781 C 103.848 53.916,103.914 53.845,103.777 53.622 C 103.638 53.397,104.874 52.349,106.548 51.272 C 111.430 48.131,112.460 47.585,112.944 47.884 C 113.251 48.074,113.297 47.997,113.082 47.650 C 112.848 47.271,112.942 47.202,113.433 47.390 C 113.801 47.532,114.012 47.499,113.900 47.318 C 113.626 46.875,115.573 46.015,116.105 46.344 C 116.340 46.490,116.415 46.424,116.275 46.197 C 115.950 45.672,122.056 43.183,122.696 43.579 C 123.016 43.777,123.066 43.706,122.851 43.358 C 122.615 42.976,122.749 42.902,123.377 43.066 C 123.841 43.187,124.135 43.149,124.031 42.981 C 123.761 42.544,127.186 41.653,127.764 42.010 C 128.060 42.194,128.146 42.147,127.987 41.889 C 127.554 41.189,137.588 39.205,139.870 39.540 C 140.478 39.629,140.890 39.566,140.787 39.399 C 140.445 38.846,146.535 38.772,154.046 39.236 M230.270 173.833 C 229.479 174.911,228.651 175.669,228.421 175.527 C 228.192 175.386,228.112 175.444,228.244 175.657 C 228.593 176.222,227.374 177.795,226.829 177.483 C 226.575 177.338,226.491 177.356,226.643 177.525 C 227.009 177.930,225.016 180.525,224.556 180.241 C 224.360 180.119,224.248 180.187,224.307 180.391 C 224.366 180.596,223.975 181.278,223.438 181.909 C 222.575 182.921,221.757 184.623,222.482 183.898 C 222.912 183.468,225.050 185.145,224.747 185.674 C 224.602 185.927,224.624 186.006,224.796 185.851 C 225.260 185.432,227.399 187.088,227.090 187.628 C 226.946 187.880,226.968 187.959,227.139 187.805 C 227.603 187.385,229.743 189.041,229.434 189.581 C 229.290 189.833,229.311 189.913,229.481 189.760 C 229.843 189.433,231.445 190.463,231.445 191.023 C 231.445 191.234,231.550 191.362,231.678 191.309 C 231.806 191.255,232.186 191.439,232.523 191.718 C 233.045 192.152,233.288 192.024,234.189 190.843 C 234.769 190.083,235.427 189.574,235.651 189.713 C 235.875 189.851,235.955 189.797,235.828 189.592 C 235.546 189.136,238.169 185.742,238.803 185.742 C 239.053 185.742,239.264 185.566,239.272 185.352 C 239.303 184.480,240.297 183.194,240.742 183.450 C 241.000 183.598,241.080 183.574,240.920 183.398 C 240.760 183.221,241.052 182.522,241.568 181.845 C 242.480 180.650,242.486 180.599,241.763 180.147 C 241.353 179.891,241.061 179.487,241.114 179.248 C 241.167 179.010,240.895 178.762,240.508 178.697 C 239.491 178.526,238.639 177.718,238.934 177.202 C 239.074 176.958,239.050 176.882,238.882 177.034 C 238.433 177.439,235.899 175.384,236.199 174.859 C 236.339 174.614,236.313 174.541,236.142 174.695 C 235.723 175.074,233.523 173.478,233.814 173.007 C 233.939 172.804,233.898 172.679,233.720 172.730 C 233.543 172.781,233.017 172.610,232.551 172.352 C 231.777 171.922,231.578 172.051,230.270 173.833 " stroke="none" fill="#d2ebfb" fill-rule="evenodd"></path><path id="path6" d="M188.867 71.484 C 189.925 72.559,190.879 73.438,190.986 73.438 C 191.094 73.438,190.316 72.559,189.258 71.484 C 188.200 70.410,187.246 69.531,187.139 69.531 C 187.031 69.531,187.809 70.410,188.867 71.484 M164.565 106.055 C 164.568 107.129,164.644 107.522,164.733 106.928 C 164.823 106.334,164.821 105.456,164.728 104.975 C 164.635 104.495,164.562 104.980,164.565 106.055 M119.577 107.124 L 119.531 108.194 104.395 108.301 L 89.258 108.408 104.407 108.501 C 120.562 108.600,120.289 108.631,119.805 106.761 C 119.685 106.297,119.606 106.422,119.577 107.124 M139.382 108.496 C 144.177 108.558,151.911 108.558,156.570 108.496 C 161.228 108.433,157.305 108.382,147.852 108.383 C 138.398 108.383,134.587 108.434,139.382 108.496 M183.080 108.495 C 187.201 108.559,194.057 108.559,198.314 108.496 C 202.571 108.433,199.199 108.381,190.820 108.381 C 182.441 108.381,178.958 108.432,183.080 108.495 M181.348 149.879 C 181.724 149.977,182.339 149.977,182.715 149.879 C 183.091 149.780,182.783 149.700,182.031 149.700 C 181.279 149.700,180.972 149.780,181.348 149.879 M184.863 149.894 C 185.669 149.978,186.987 149.978,187.793 149.894 C 188.599 149.810,187.939 149.741,186.328 149.741 C 184.717 149.741,184.058 149.810,184.863 149.894 M324.336 307.422 C 324.336 308.604,324.409 309.087,324.499 308.496 C 324.588 307.905,324.588 306.938,324.499 306.348 C 324.409 305.757,324.336 306.240,324.336 307.422 M324.386 331.836 C 324.387 336.777,324.443 338.745,324.511 336.208 C 324.579 333.672,324.579 329.629,324.510 327.224 C 324.442 324.819,324.386 326.895,324.386 331.836 " stroke="none" fill="#965b47" fill-rule="evenodd"></path><path id="path7" d="" stroke="none" fill="#bcbccc" fill-rule="evenodd"></path><path id="path8" d="" stroke="none" fill="#bcb4c4" fill-rule="evenodd"></path></g></svg>