<svg id="svg" version="1.1" xmlns="http://www.w3.org/2000/svg" xmlns:xlink="http://www.w3.org/1999/xlink" width="400" height="400" viewBox="0, 0, 400,400"><g id="svgg"><path id="path0" d="M191.602 24.223 C 166.582 26.011,145.270 39.317,131.736 61.600 L 129.683 64.981 123.338 64.894 C 101.848 64.599,82.632 76.643,73.243 96.289 C 66.024 111.397,66.330 130.847,73.991 143.787 L 75.285 145.972 72.944 147.258 C 69.727 149.027,65.614 153.004,64.158 155.754 C 61.663 160.468,61.719 159.737,61.719 187.530 C 61.719 215.100,61.732 215.279,64.065 219.068 L 64.862 220.362 63.388 223.344 L 61.914 226.327 61.914 253.528 L 61.914 280.730 63.499 283.920 L 65.085 287.109 63.499 290.299 L 61.914 293.488 61.805 318.664 C 61.711 340.461,61.779 344.160,62.307 346.223 C 64.100 353.219,70.163 359.385,77.317 361.486 C 79.984 362.270,318.194 362.459,321.953 361.681 C 329.652 360.087,336.697 353.137,338.264 345.592 C 338.558 344.173,338.660 335.612,338.585 318.481 L 338.477 293.443 336.837 290.234 L 335.197 287.025 336.332 285.014 C 338.703 280.813,338.704 280.794,338.585 252.267 L 338.477 226.317 337.054 223.450 L 335.631 220.584 336.377 219.374 C 338.651 215.683,338.672 215.403,338.672 187.932 C 338.672 157.550,338.595 157.064,332.867 151.057 C 328.355 146.326,325.329 145.261,315.697 145.017 C 310.319 144.880,308.588 144.718,308.725 144.362 C 319.671 115.838,304.034 84.582,275.273 77.495 C 273.082 76.955,270.875 76.392,270.370 76.245 C 269.671 76.041,269.147 75.227,268.185 72.852 C 256.515 44.025,232.755 26.476,202.344 24.221 C 199.443 24.006,196.719 23.856,196.289 23.887 C 195.859 23.918,193.750 24.070,191.602 24.223 M203.916 41.414 C 229.046 44.440,247.829 61.174,254.665 86.625 C 255.614 90.159,258.385 91.902,264.073 92.541 C 302.688 96.882,307.079 147.998,269.637 157.307 C 266.465 158.095,126.614 158.592,120.378 157.837 C 89.710 154.122,74.666 119.743,93.179 95.683 C 100.969 85.560,116.030 79.886,128.906 82.223 C 138.378 83.942,140.763 83.004,143.372 76.530 C 152.718 53.347,178.556 38.360,203.916 41.414 M137.891 94.020 C 119.531 97.093,113.923 122.484,129.332 132.774 C 136.786 137.751,146.620 137.679,153.545 132.595 C 160.489 127.498,154.977 118.395,147.846 123.183 C 138.209 129.653,127.395 119.610,133.334 109.707 C 136.378 104.630,142.094 103.643,147.664 107.232 C 150.734 109.209,153.030 109.172,155.092 107.110 C 161.417 100.785,149.888 92.012,137.891 94.020 M176.033 94.342 C 159.888 98.436,154.522 118.575,166.406 130.471 C 179.300 143.378,201.542 134.099,201.597 115.790 C 201.640 101.607,189.048 91.042,176.033 94.342 M223.850 94.356 C 221.560 94.990,219.505 96.346,218.491 97.894 L 217.858 98.860 217.182 97.350 C 215.486 93.563,209.625 93.631,207.644 97.461 C 206.472 99.727,206.380 130.609,207.538 132.732 C 209.202 135.780,213.505 136.573,215.819 134.259 C 217.754 132.324,217.964 130.946,217.967 120.163 C 217.969 109.340,218.182 108.002,220.176 106.251 C 221.952 104.692,223.855 104.391,226.082 105.319 C 229.698 106.825,230.160 108.762,229.998 121.766 C 229.850 133.664,230.693 135.786,235.538 135.714 C 240.403 135.643,240.778 134.629,241.022 120.917 C 241.276 106.596,241.848 105.084,247.011 105.080 C 252.526 105.075,252.887 105.942,253.125 119.727 C 253.303 130.055,253.389 131.190,254.102 132.592 C 256.239 136.797,261.573 136.926,263.667 132.822 C 264.976 130.256,264.846 108.386,263.499 104.569 C 259.730 93.889,247.141 90.621,240.069 98.486 L 238.419 100.322 236.786 98.427 C 233.684 94.825,228.291 93.128,223.850 94.356 M184.811 105.497 C 188.741 107.488,190.703 110.767,190.733 115.392 C 190.821 128.978,172.256 129.989,170.844 116.475 C 169.983 108.235,177.914 102.002,184.811 105.497 M108.297 123.435 C 101.425 127.625,107.148 138.285,114.350 134.712 C 120.598 131.612,118.457 122.652,111.470 122.658 C 110.264 122.659,109.105 122.943,108.297 123.435 M320.948 163.029 L 321.875 164.106 321.875 187.547 C 321.875 202.878,321.736 211.249,321.473 211.740 C 320.371 213.800,328.444 213.672,199.794 213.672 L 80.799 213.672 79.657 212.530 L 78.516 211.388 78.516 187.695 L 78.516 164.002 79.590 162.958 L 80.664 161.914 200.343 161.933 L 320.022 161.952 320.948 163.029 M99.414 180.275 C 98.555 180.579,97.126 181.593,96.240 182.528 C 89.197 189.954,99.695 200.960,107.603 194.441 C 114.801 188.508,108.236 177.152,99.414 180.275 M270.703 181.616 C 265.266 181.813,264.524 181.925,263.427 182.707 C 259.937 185.197,260.140 190.875,263.805 193.297 L 265.378 194.336 280.067 194.313 L 294.756 194.291 296.460 193.337 C 300.736 190.943,300.688 184.490,296.376 182.133 C 294.996 181.379,283.543 181.148,270.703 181.616 M320.547 229.844 L 321.875 231.172 321.875 254.297 L 321.875 277.422 320.547 278.750 L 319.219 280.078 200.009 280.078 L 80.799 280.078 79.657 278.936 L 78.516 277.794 78.529 254.620 C 78.544 229.796,78.516 230.167,80.512 229.061 C 81.281 228.635,102.400 228.541,200.332 228.529 L 319.219 228.516 320.547 229.844 M98.316 247.181 C 93.231 250.105,92.417 256.576,96.645 260.473 C 104.609 267.815,115.833 256.127,108.173 248.468 C 105.500 245.794,101.611 245.286,98.316 247.181 M264.476 248.525 C 259.989 250.825,259.642 256.454,263.798 259.534 C 264.865 260.326,265.380 260.355,280.029 260.462 L 295.159 260.573 296.496 259.672 C 300.521 256.959,300.764 251.815,297.004 248.946 L 295.570 247.852 280.890 247.743 C 266.281 247.636,266.203 247.639,264.476 248.525 M320.932 295.823 L 321.875 296.919 321.875 319.891 L 321.875 342.863 321.028 343.940 C 319.213 346.248,327.871 346.094,199.993 346.094 C 71.474 346.094,81.196 346.270,79.331 343.900 C 78.525 342.876,78.516 342.592,78.516 320.117 C 78.516 294.962,78.416 295.965,81.011 294.913 C 81.465 294.729,135.420 294.612,200.913 294.653 L 319.990 294.727 320.932 295.823 M99.468 313.072 C 93.540 315.185,92.231 323.251,97.157 327.314 C 105.094 333.861,115.680 322.328,108.318 315.154 C 105.716 312.618,102.719 311.913,99.468 313.072 M264.648 314.607 C 260.254 316.586,259.622 322.672,263.502 325.632 L 264.978 326.758 280.312 326.758 C 295.259 326.758,295.674 326.737,296.749 325.941 C 300.628 323.067,300.628 317.950,296.749 315.075 C 295.340 314.030,266.851 313.615,264.648 314.607 " stroke="none" fill="#5959ec" fill-rule="evenodd"></path><path id="path1" d="M83.771 80.957 L 82.227 82.617 83.887 81.073 C 84.800 80.224,85.547 79.477,85.547 79.413 C 85.547 79.117,85.207 79.413,83.771 80.957 M264.622 118.750 C 264.622 124.014,264.677 126.167,264.745 123.535 C 264.813 120.903,264.813 116.597,264.745 113.965 C 264.677 111.333,264.622 113.486,264.622 118.750 M170.802 115.430 C 170.806 116.289,170.886 116.595,170.979 116.109 C 171.073 115.623,171.069 114.920,170.972 114.546 C 170.874 114.173,170.797 114.570,170.802 115.430 M295.419 125.391 C 295.419 126.357,295.495 126.753,295.588 126.270 C 295.681 125.786,295.681 124.995,295.588 124.512 C 295.495 124.028,295.419 124.424,295.419 125.391 M81.252 162.249 C 81.251 162.433,80.948 162.468,80.578 162.326 C 80.209 162.184,80.023 162.184,80.164 162.326 C 80.486 162.647,79.598 163.654,79.204 163.415 C 79.045 163.319,79.031 163.542,79.172 163.911 C 79.315 164.282,79.269 164.482,79.070 164.359 C 78.853 164.225,78.711 173.432,78.711 187.635 L 78.711 211.133 79.688 212.006 C 80.225 212.486,80.840 213.013,81.055 213.178 C 81.270 213.342,132.976 213.477,195.959 213.477 C 258.941 213.477,310.269 213.350,310.021 213.196 C 309.773 213.042,311.883 212.954,314.709 213.001 C 317.536 213.048,319.766 212.954,319.667 212.793 C 319.508 212.537,320.042 212.357,320.736 212.432 C 320.861 212.446,321.018 212.247,321.085 211.990 C 321.410 210.736,321.641 164.161,321.320 164.359 C 321.121 164.482,321.076 164.282,321.218 163.911 C 321.360 163.542,321.315 163.340,321.117 163.462 C 320.920 163.584,320.650 163.338,320.516 162.916 C 320.355 162.409,320.059 162.231,319.642 162.391 C 319.296 162.524,319.111 162.471,319.231 162.273 C 319.362 162.058,314.285 161.865,306.600 161.791 C 299.532 161.724,293.750 161.812,293.750 161.987 C 293.750 162.404,93.320 162.378,92.648 161.960 C 91.975 161.540,81.254 161.812,81.252 162.249 M338.855 187.891 C 338.855 200.889,338.904 206.206,338.965 199.707 C 339.025 193.208,339.025 182.573,338.965 176.074 C 338.904 169.575,338.855 174.893,338.855 187.891 M104.688 179.769 C 104.688 179.926,104.945 179.955,105.259 179.834 C 105.587 179.708,106.277 180.086,106.885 180.726 C 107.465 181.336,107.795 181.572,107.618 181.250 C 107.441 180.928,107.758 181.085,108.323 181.600 C 108.889 182.114,109.269 182.667,109.170 182.828 C 109.070 182.989,109.263 183.226,109.597 183.355 C 109.932 183.483,110.096 183.765,109.963 183.982 C 109.829 184.198,109.916 184.375,110.156 184.375 C 110.396 184.375,110.484 184.551,110.352 184.766 C 110.219 184.980,110.315 185.156,110.566 185.156 C 110.816 185.156,110.922 185.414,110.801 185.730 C 110.680 186.045,110.749 186.407,110.955 186.534 C 111.476 186.857,111.424 189.453,110.896 189.453 C 110.658 189.453,110.569 189.730,110.699 190.067 C 111.100 191.112,107.563 195.637,106.543 195.385 C 106.382 195.345,106.250 195.499,106.250 195.726 C 106.250 195.954,106.074 196.031,105.859 195.898 C 105.645 195.766,105.469 195.862,105.469 196.112 C 105.469 196.363,105.205 196.467,104.883 196.343 C 104.561 196.219,104.297 196.268,104.297 196.452 C 104.297 196.635,103.418 196.785,102.344 196.785 C 101.270 196.785,100.391 196.611,100.391 196.398 C 100.391 196.184,100.127 196.111,99.805 196.235 C 99.482 196.359,99.219 196.279,99.219 196.058 C 99.219 195.838,99.043 195.766,98.828 195.898 C 98.613 196.031,98.438 195.943,98.438 195.703 C 98.438 195.463,98.277 195.366,98.080 195.487 C 97.632 195.764,95.240 193.793,95.505 193.365 C 95.611 193.192,95.425 192.946,95.090 192.817 C 94.756 192.689,94.591 192.407,94.725 192.190 C 94.859 191.974,94.771 191.797,94.531 191.797 C 94.291 191.797,94.203 191.621,94.336 191.406 C 94.469 191.191,94.379 191.016,94.137 191.016 C 93.875 191.016,93.798 190.700,93.945 190.234 C 94.088 189.786,94.016 189.453,93.776 189.453 C 93.547 189.453,93.359 188.838,93.359 188.086 C 93.359 187.334,93.547 186.719,93.776 186.719 C 94.016 186.719,94.088 186.386,93.945 185.938 C 93.798 185.472,93.875 185.156,94.137 185.156 C 94.379 185.156,94.469 184.980,94.336 184.766 C 94.203 184.551,94.291 184.375,94.531 184.375 C 94.771 184.375,94.859 184.198,94.725 183.982 C 94.591 183.765,94.756 183.483,95.090 183.355 C 95.425 183.226,95.617 182.989,95.518 182.828 C 95.418 182.667,95.799 182.114,96.364 181.600 C 96.929 181.085,97.247 180.928,97.069 181.250 C 96.892 181.572,97.222 181.336,97.802 180.726 C 98.410 180.086,99.100 179.708,99.429 179.834 C 99.743 179.955,100.000 179.911,100.000 179.737 C 100.000 179.563,101.055 179.435,102.344 179.453 C 103.633 179.470,104.688 179.613,104.688 179.769 M294.531 181.292 C 294.531 181.530,294.795 181.623,295.117 181.499 C 295.439 181.376,295.703 181.455,295.703 181.676 C 295.703 181.897,295.879 181.969,296.094 181.836 C 296.309 181.703,296.484 181.810,296.484 182.073 C 296.484 182.337,296.604 182.432,296.750 182.286 C 297.100 181.937,299.252 184.005,298.986 184.435 C 298.874 184.617,298.979 184.766,299.219 184.766 C 299.459 184.766,299.547 184.941,299.414 185.156 C 299.281 185.371,299.378 185.547,299.628 185.547 C 299.879 185.547,299.985 185.805,299.864 186.120 C 299.743 186.436,299.812 186.798,300.017 186.925 C 300.506 187.227,300.502 189.063,300.012 189.063 C 299.804 189.063,299.735 189.326,299.859 189.648 C 299.982 189.971,299.879 190.234,299.628 190.234 C 299.378 190.234,299.281 190.410,299.414 190.625 C 299.547 190.840,299.459 191.016,299.219 191.016 C 298.979 191.016,298.874 191.165,298.986 191.346 C 299.252 191.776,297.100 193.844,296.750 193.495 C 296.604 193.349,296.484 193.445,296.484 193.708 C 296.484 193.971,296.309 194.078,296.094 193.945 C 295.879 193.813,295.703 193.909,295.703 194.159 C 295.703 194.410,295.439 194.514,295.117 194.390 C 294.795 194.266,294.531 194.335,294.531 194.544 C 294.531 194.781,289.210 194.922,280.273 194.922 C 271.337 194.922,266.016 194.781,266.016 194.544 C 266.016 194.335,265.752 194.266,265.430 194.390 C 265.107 194.514,264.844 194.410,264.844 194.159 C 264.844 193.909,264.668 193.813,264.453 193.945 C 264.238 194.078,264.063 193.990,264.063 193.750 C 264.063 193.510,263.904 193.411,263.711 193.530 C 263.250 193.816,260.853 191.078,261.147 190.602 C 261.272 190.400,261.176 190.234,260.934 190.234 C 260.672 190.234,260.594 189.919,260.742 189.453 C 260.884 189.005,260.812 188.672,260.573 188.672 C 260.344 188.672,260.156 188.320,260.156 187.891 C 260.156 187.461,260.344 187.109,260.573 187.109 C 260.812 187.109,260.884 186.776,260.742 186.328 C 260.594 185.863,260.672 185.547,260.934 185.547 C 261.176 185.547,261.266 185.371,261.133 185.156 C 261.000 184.941,261.107 184.766,261.370 184.766 C 261.634 184.766,261.729 184.646,261.583 184.500 C 261.234 184.150,263.302 181.998,263.732 182.264 C 263.914 182.376,264.063 182.271,264.063 182.031 C 264.063 181.791,264.238 181.703,264.453 181.836 C 264.668 181.969,264.844 181.872,264.844 181.622 C 264.844 181.371,265.107 181.268,265.430 181.391 C 265.752 181.515,266.016 181.446,266.016 181.238 C 266.016 181.001,271.337 180.859,280.273 180.859 C 290.437 180.859,294.531 180.984,294.531 181.292 M81.641 229.036 C 81.641 229.215,81.423 229.289,81.156 229.201 C 80.636 229.027,79.297 230.494,79.297 231.237 C 79.297 231.484,79.165 231.605,79.004 231.506 C 78.843 231.406,78.711 241.679,78.711 254.334 C 78.711 266.989,78.862 277.344,79.046 277.344 C 79.230 277.344,79.276 277.617,79.148 277.950 C 79.020 278.283,79.045 278.478,79.204 278.382 C 79.598 278.143,80.486 279.150,80.164 279.471 C 80.023 279.613,80.238 279.602,80.642 279.446 C 81.062 279.285,81.283 279.318,81.156 279.523 C 81.022 279.742,127.587 279.908,199.842 279.946 C 280.350 279.989,318.750 279.881,318.750 279.611 C 318.750 279.392,319.023 279.318,319.356 279.446 C 319.690 279.574,319.893 279.549,319.809 279.390 C 319.597 278.993,320.969 277.740,321.277 278.048 C 321.414 278.185,321.410 277.994,321.268 277.625 C 321.120 277.239,321.194 276.953,321.443 276.953 C 321.754 276.953,321.875 270.594,321.875 254.274 C 321.875 241.059,321.729 231.685,321.526 231.810 C 321.334 231.929,321.066 231.582,320.929 231.039 C 320.793 230.496,320.247 229.854,319.716 229.612 C 319.185 229.369,318.750 229.068,318.750 228.941 C 318.750 228.815,265.400 228.711,200.195 228.711 C 134.990 228.711,81.641 228.857,81.641 229.036 M338.855 253.320 C 338.855 266.426,338.905 271.731,338.965 265.109 C 339.025 258.487,339.025 247.764,338.965 241.280 C 338.904 234.797,338.855 240.215,338.855 253.320 M103.125 245.711 C 103.125 245.940,103.538 246.005,104.102 245.864 C 104.726 245.707,105.078 245.783,105.078 246.074 C 105.078 246.325,105.254 246.422,105.469 246.289 C 105.684 246.156,105.859 246.244,105.859 246.484 C 105.859 246.725,106.028 246.817,106.234 246.689 C 106.712 246.394,109.832 249.186,109.544 249.652 C 109.426 249.843,109.525 250.000,109.766 250.000 C 110.006 250.000,110.094 250.176,109.961 250.391 C 109.828 250.605,109.916 250.781,110.156 250.781 C 110.396 250.781,110.484 250.957,110.352 251.172 C 110.219 251.387,110.315 251.563,110.566 251.563 C 110.816 251.563,110.922 251.821,110.801 252.136 C 110.680 252.451,110.749 252.813,110.955 252.940 C 111.444 253.243,111.440 255.859,110.950 255.859 C 110.742 255.859,110.672 256.121,110.794 256.440 C 111.048 257.100,109.390 260.134,108.323 260.962 C 107.663 261.474,107.655 261.459,108.203 260.716 C 108.525 260.280,108.362 260.371,107.840 260.918 C 107.318 261.466,106.747 261.870,106.571 261.816 C 106.394 261.763,106.250 261.905,106.250 262.132 C 106.250 262.360,106.074 262.437,105.859 262.305 C 105.645 262.172,105.469 262.268,105.469 262.519 C 105.469 262.769,105.211 262.875,104.895 262.754 C 104.580 262.633,104.218 262.702,104.091 262.908 C 103.815 263.354,100.000 263.416,100.000 262.974 C 100.000 262.805,99.608 262.637,99.129 262.601 C 98.649 262.565,98.061 262.266,97.820 261.938 C 97.580 261.609,97.293 261.431,97.181 261.543 C 96.859 261.865,94.489 258.978,94.741 258.570 C 94.866 258.368,94.771 258.203,94.531 258.203 C 94.291 258.203,94.203 258.027,94.336 257.813 C 94.469 257.598,94.372 257.422,94.122 257.422 C 93.871 257.422,93.768 257.158,93.891 256.836 C 94.015 256.514,93.946 256.250,93.738 256.250 C 93.530 256.250,93.359 255.459,93.359 254.492 C 93.359 253.525,93.530 252.734,93.738 252.734 C 93.946 252.734,94.015 252.471,93.891 252.148 C 93.768 251.826,93.855 251.563,94.087 251.563 C 94.318 251.563,94.406 251.300,94.283 250.980 C 94.156 250.648,94.328 250.294,94.684 250.158 C 95.027 250.026,95.228 249.789,95.130 249.630 C 94.905 249.266,97.266 246.972,98.038 246.805 C 98.355 246.736,98.863 246.447,99.168 246.163 C 99.479 245.873,100.115 245.745,100.618 245.872 C 101.111 245.995,101.624 245.920,101.757 245.705 C 102.073 245.192,103.125 245.197,103.125 245.711 M295.313 247.777 C 295.313 247.951,295.488 247.984,295.703 247.852 C 295.918 247.719,296.094 247.796,296.094 248.024 C 296.094 248.251,296.226 248.396,296.387 248.346 C 297.070 248.133,300.046 251.583,299.813 252.319 C 299.683 252.726,299.761 253.172,299.984 253.310 C 300.518 253.641,300.510 255.078,299.974 255.078 C 299.738 255.078,299.662 255.409,299.798 255.839 C 299.954 256.331,299.756 256.885,299.239 257.402 C 298.798 257.843,298.553 258.203,298.693 258.203 C 298.834 258.203,298.630 258.556,298.240 258.987 C 297.850 259.418,297.445 259.684,297.339 259.579 C 297.234 259.473,296.948 259.661,296.703 259.995 C 296.214 260.664,265.235 261.089,265.234 260.426 C 265.234 260.252,265.059 260.219,264.844 260.352 C 264.629 260.484,264.453 260.396,264.453 260.156 C 264.453 259.916,264.269 259.833,264.044 259.973 C 263.487 260.317,260.842 257.454,261.098 256.785 C 261.211 256.491,261.115 256.250,260.883 256.250 C 260.652 256.250,260.573 255.964,260.707 255.615 C 260.841 255.265,260.764 254.753,260.535 254.477 C 260.239 254.122,260.242 253.899,260.544 253.713 C 260.778 253.568,260.862 253.113,260.732 252.702 C 260.601 252.290,260.676 251.953,260.899 251.953 C 261.121 251.953,261.221 251.733,261.120 251.465 C 261.019 251.196,261.332 250.529,261.816 249.982 C 262.300 249.434,262.607 249.179,262.500 249.414 C 262.393 249.649,262.636 249.482,263.040 249.042 C 263.444 248.602,263.928 248.286,264.114 248.340 C 264.301 248.394,264.453 248.243,264.453 248.005 C 264.453 247.767,264.717 247.674,265.039 247.798 C 265.361 247.921,265.625 247.896,265.625 247.742 C 265.625 247.587,272.305 247.461,280.469 247.461 C 288.633 247.461,295.313 247.603,295.313 247.777 M338.855 319.336 C 338.855 331.582,338.904 336.535,338.965 330.343 C 339.025 324.151,339.025 314.132,338.965 308.078 C 338.904 302.024,338.855 307.090,338.855 319.336 M137.988 362.402 C 168.872 362.458,219.409 362.458,250.293 362.402 C 281.177 362.347,255.908 362.302,194.141 362.302 C 132.373 362.302,107.104 362.347,137.988 362.402 " stroke="none" fill="#aec6f6" fill-rule="evenodd"></path><path id="path2" d="M0.000 200.000 L 0.000 400.000 200.000 400.000 L 400.000 400.000 400.000 200.000 L 400.000 0.000 200.000 0.000 L 0.000 0.000 0.000 200.000 M204.996 24.232 C 234.150 27.339,257.010 44.895,268.355 72.892 L 269.638 76.056 272.149 76.519 C 301.845 81.991,319.684 113.257,309.620 142.195 L 308.672 144.922 315.176 144.927 C 327.931 144.936,333.829 148.579,337.859 158.938 L 338.865 161.523 338.989 186.328 C 339.123 213.133,339.070 214.018,337.077 218.219 L 335.938 220.617 337.108 223.116 C 339.052 227.270,339.105 228.172,338.972 254.767 C 338.836 282.065,338.876 281.624,336.193 285.540 L 335.302 286.840 336.806 289.806 C 337.645 291.462,338.475 293.809,338.684 295.117 C 339.192 298.300,339.169 340.906,338.658 344.057 C 337.342 352.170,331.733 358.752,323.856 361.432 L 321.289 362.305 201.758 362.412 C 118.170 362.487,81.405 362.394,79.495 362.101 C 72.126 360.971,65.321 355.117,62.398 347.391 C 61.551 345.152,61.536 344.752,61.416 321.176 C 61.283 294.938,61.321 294.369,63.511 289.909 L 64.918 287.045 63.721 284.799 C 61.323 280.299,61.328 280.368,61.328 253.516 C 61.328 226.789,61.339 226.645,63.638 222.400 L 64.741 220.364 63.737 218.681 C 61.360 214.695,61.328 214.278,61.334 187.704 C 61.340 160.973,61.365 160.652,63.779 156.091 C 65.352 153.120,68.958 149.463,72.273 147.479 C 73.665 146.645,74.861 145.921,74.931 145.870 C 75.000 145.819,74.588 145.035,74.016 144.129 C 64.797 129.525,66.134 105.622,77.091 89.150 C 87.995 72.758,109.501 62.266,127.148 64.727 L 129.492 65.054 131.445 61.820 C 147.499 35.244,175.248 21.063,204.996 24.232 " stroke="none" fill="#fbfaf4" fill-rule="evenodd"></path><path id="path3" d="M236.133 294.922 C 228.613 295.029,190.601 295.117,151.660 295.117 C 112.720 295.117,80.860 295.253,80.859 295.419 C 80.859 295.584,80.425 295.918,79.895 296.159 C 79.365 296.401,79.024 296.749,79.137 296.932 C 79.250 297.116,79.201 297.266,79.027 297.266 C 78.463 297.266,78.636 342.304,79.203 342.903 C 79.473 343.188,79.578 343.611,79.435 343.842 C 79.289 344.079,79.358 344.149,79.596 344.002 C 79.827 343.859,80.339 344.154,80.734 344.656 C 81.130 345.159,81.671 345.498,81.938 345.409 C 82.204 345.320,82.422 345.438,82.422 345.671 C 82.422 346.273,317.032 346.272,317.404 345.669 C 317.548 345.436,318.015 345.336,318.442 345.447 C 318.869 345.559,319.114 345.546,318.986 345.419 C 318.707 345.139,320.373 343.908,320.830 344.056 C 321.007 344.113,321.049 343.994,320.924 343.791 C 320.799 343.588,320.966 343.152,321.297 342.821 C 322.063 342.056,322.159 296.653,321.394 297.126 C 321.118 297.297,321.047 297.169,321.199 296.772 C 321.336 296.417,321.155 295.930,320.778 295.634 C 320.209 295.189,320.171 295.201,320.508 295.722 C 320.815 296.197,320.772 296.191,320.305 295.692 C 319.978 295.343,319.495 295.129,319.230 295.217 C 318.966 295.306,318.750 295.181,318.750 294.941 C 318.750 294.497,266.725 294.485,236.133 294.922 M104.556 312.629 C 104.670 312.743,105.010 312.742,105.312 312.627 C 105.613 312.511,105.859 312.611,105.859 312.849 C 105.859 313.087,106.060 313.281,106.305 313.281 C 106.549 313.281,107.002 313.589,107.310 313.965 C 107.650 314.379,107.758 314.418,107.586 314.063 C 107.429 313.740,107.856 313.993,108.533 314.624 C 109.840 315.841,110.077 316.219,109.277 315.814 C 109.009 315.678,109.070 315.800,109.414 316.084 C 109.757 316.369,110.032 316.689,110.025 316.797 C 110.018 316.904,110.241 317.607,110.521 318.359 C 111.154 320.057,111.098 323.828,110.440 323.828 C 110.259 323.828,110.219 324.004,110.352 324.219 C 110.484 324.434,110.396 324.609,110.156 324.609 C 109.916 324.609,109.823 324.776,109.949 324.980 C 110.075 325.184,109.817 325.545,109.375 325.781 C 108.933 326.018,108.663 326.358,108.774 326.538 C 108.885 326.718,108.680 327.104,108.319 327.397 C 107.755 327.854,107.705 327.847,107.962 327.344 C 108.126 327.021,107.984 327.099,107.646 327.516 C 107.308 327.933,106.775 328.312,106.462 328.358 C 106.149 328.404,105.378 328.699,104.748 329.013 C 103.517 329.627,100.432 329.374,98.854 328.530 C 98.410 328.292,98.043 328.236,98.038 328.404 C 98.033 328.573,97.667 328.271,97.223 327.734 C 96.779 327.197,96.553 327.021,96.721 327.344 C 96.982 327.847,96.932 327.855,96.368 327.397 C 96.007 327.104,95.803 326.718,95.914 326.538 C 96.025 326.358,95.754 326.018,95.313 325.781 C 94.871 325.545,94.605 325.197,94.722 325.007 C 94.839 324.818,94.753 324.551,94.531 324.414 C 94.309 324.277,94.229 324.001,94.353 323.801 C 94.476 323.601,94.431 323.438,94.252 323.438 C 94.073 323.438,93.915 322.295,93.902 320.898 C 93.889 319.502,94.044 318.359,94.246 318.359 C 94.449 318.359,94.514 318.096,94.390 317.773 C 94.266 317.451,94.335 317.188,94.544 317.188 C 94.752 317.188,94.891 317.056,94.853 316.895 C 94.727 316.358,98.394 312.818,98.810 313.075 C 99.035 313.214,99.219 313.147,99.219 312.926 C 99.219 312.705,99.482 312.626,99.805 312.749 C 100.127 312.873,100.391 312.820,100.391 312.632 C 100.391 312.273,104.197 312.270,104.556 312.629 M296.094 314.485 C 296.094 314.708,296.241 314.799,296.421 314.688 C 296.882 314.403,298.438 315.563,298.438 316.191 C 298.438 316.478,298.712 316.819,299.048 316.948 C 299.384 317.077,299.549 317.359,299.416 317.575 C 299.282 317.792,299.371 317.969,299.613 317.969 C 299.875 317.969,299.952 318.284,299.805 318.750 C 299.662 319.198,299.734 319.531,299.974 319.531 C 300.510 319.531,300.518 320.969,299.984 321.299 C 299.761 321.437,299.684 321.887,299.815 322.298 C 299.953 322.734,299.868 323.047,299.613 323.047 C 299.371 323.047,299.270 323.204,299.389 323.397 C 299.508 323.589,299.331 323.851,298.996 323.980 C 298.662 324.108,298.485 324.370,298.604 324.562 C 298.867 324.988,297.880 325.875,297.532 325.527 C 297.396 325.390,297.174 325.567,297.039 325.918 C 296.904 326.270,296.636 326.461,296.443 326.342 C 296.251 326.223,296.094 326.308,296.094 326.530 C 296.094 326.803,290.924 326.935,280.273 326.935 C 269.623 326.935,264.453 326.803,264.453 326.530 C 264.453 326.308,264.286 326.229,264.082 326.355 C 263.878 326.481,263.518 326.223,263.281 325.781 C 263.045 325.340,262.657 325.098,262.420 325.245 C 262.159 325.406,262.099 325.332,262.269 325.058 C 262.426 324.804,262.281 324.501,261.941 324.370 C 261.606 324.242,261.430 323.980,261.549 323.787 C 261.668 323.595,261.568 323.438,261.328 323.438 C 261.088 323.438,261.000 323.262,261.133 323.047 C 261.266 322.832,261.232 322.656,261.058 322.656 C 260.884 322.656,260.742 321.618,260.742 320.350 C 260.742 319.045,260.898 318.140,261.102 318.265 C 261.299 318.388,261.361 318.226,261.238 317.907 C 261.111 317.576,261.334 317.128,261.757 316.864 C 262.165 316.609,262.455 316.182,262.401 315.915 C 262.348 315.648,262.529 315.475,262.804 315.531 C 263.078 315.587,263.404 315.368,263.528 315.045 C 263.652 314.722,263.911 314.555,264.103 314.674 C 264.296 314.793,264.453 314.708,264.453 314.485 C 264.453 314.213,269.623 314.081,280.273 314.081 C 290.924 314.081,296.094 314.213,296.094 314.485 M296.782 345.581 C 296.408 345.679,295.705 345.682,295.219 345.589 C 294.733 345.495,295.039 345.415,295.898 345.411 C 296.758 345.407,297.155 345.483,296.782 345.581 M312.012 345.582 C 311.636 345.680,311.021 345.680,310.645 345.582 C 310.269 345.484,310.576 345.403,311.328 345.403 C 312.080 345.403,312.388 345.484,312.012 345.582 " stroke="none" fill="#fb9ceb" fill-rule="evenodd"></path><path id="path4" d="M196.003 41.299 C 196.705 41.386,197.760 41.384,198.347 41.295 C 198.934 41.206,198.359 41.134,197.070 41.137 C 195.781 41.139,195.301 41.212,196.003 41.299 M190.039 42.044 C 189.395 42.140,187.493 42.489,185.812 42.820 C 184.132 43.151,182.468 43.311,182.113 43.175 C 181.759 43.039,181.598 43.057,181.756 43.214 C 182.118 43.576,175.766 45.755,175.077 45.505 C 174.798 45.404,174.660 45.470,174.773 45.651 C 175.003 46.023,168.378 49.090,167.773 48.891 C 167.559 48.821,167.514 48.894,167.673 49.054 C 168.098 49.478,166.492 50.486,165.917 50.155 C 165.649 50.001,165.563 50.022,165.726 50.201 C 166.098 50.611,164.050 51.992,163.538 51.675 C 163.331 51.547,163.281 51.636,163.427 51.873 C 163.738 52.377,162.360 53.231,161.903 52.818 C 161.733 52.665,161.713 52.747,161.858 53.001 C 162.154 53.517,160.611 54.774,160.083 54.447 C 159.898 54.332,159.785 54.384,159.832 54.561 C 159.947 54.991,153.410 61.544,152.998 61.412 C 152.821 61.355,152.772 61.464,152.890 61.655 C 153.135 62.051,149.668 66.644,149.217 66.519 C 149.054 66.474,148.943 66.738,148.972 67.105 C 149.000 67.473,148.824 67.736,148.581 67.691 C 148.338 67.646,148.162 67.909,148.190 68.277 C 148.219 68.645,148.009 68.897,147.725 68.838 C 147.440 68.779,147.319 68.910,147.455 69.130 C 147.776 69.650,146.708 71.178,146.289 70.798 C 146.113 70.639,146.080 70.703,146.216 70.942 C 146.352 71.180,145.853 72.587,145.108 74.067 C 144.362 75.547,143.752 76.988,143.751 77.269 C 143.751 77.556,143.552 77.658,143.299 77.502 C 143.024 77.332,142.954 77.394,143.120 77.663 C 143.501 78.280,142.257 80.558,141.720 80.226 C 141.468 80.070,141.395 80.134,141.545 80.377 C 141.910 80.967,139.021 83.272,138.183 83.059 C 137.807 82.964,137.584 83.023,137.688 83.192 C 137.898 83.531,135.923 84.011,134.619 83.938 C 133.989 83.903,134.072 83.814,134.961 83.569 C 135.778 83.344,135.497 83.312,134.032 83.463 C 132.397 83.633,131.999 83.571,132.237 83.186 C 132.433 82.870,132.385 82.789,132.104 82.963 C 131.863 83.112,130.767 83.114,129.668 82.968 C 128.569 82.823,127.844 82.596,128.056 82.465 C 128.269 82.334,125.927 82.227,122.853 82.227 C 119.779 82.227,117.332 82.339,117.417 82.476 C 117.643 82.843,114.142 83.299,113.613 82.971 C 113.352 82.810,113.266 82.862,113.409 83.094 C 113.723 83.602,110.396 84.569,109.736 84.161 C 109.438 83.977,109.354 84.025,109.516 84.287 C 109.832 84.798,108.394 85.321,107.756 84.926 C 107.452 84.738,107.407 84.817,107.621 85.162 C 107.855 85.541,107.761 85.611,107.270 85.422 C 106.902 85.281,106.688 85.308,106.796 85.483 C 107.075 85.934,103.561 87.570,103.002 87.249 C 102.747 87.103,102.672 87.131,102.835 87.310 C 103.208 87.721,101.160 89.101,100.648 88.785 C 100.440 88.656,100.379 88.728,100.513 88.945 C 100.746 89.322,97.328 92.074,96.829 91.910 C 96.555 91.821,94.635 93.777,94.897 93.879 C 94.991 93.916,94.752 94.427,94.366 95.016 C 93.978 95.609,93.466 95.973,93.219 95.832 C 92.974 95.692,92.899 95.717,93.053 95.887 C 93.440 96.317,92.626 97.732,92.158 97.443 C 91.949 97.313,91.803 97.352,91.833 97.530 C 91.978 98.362,91.755 98.849,91.346 98.596 C 91.067 98.423,91.001 98.488,91.173 98.767 C 91.516 99.322,90.483 100.888,90.039 100.486 C 89.863 100.326,89.837 100.402,89.981 100.654 C 90.307 101.223,89.461 103.176,89.010 102.897 C 88.829 102.785,88.797 102.995,88.938 103.364 C 89.126 103.855,89.057 103.949,88.678 103.715 C 88.332 103.501,88.254 103.546,88.441 103.849 C 88.794 104.419,88.340 105.942,87.899 105.669 C 87.720 105.558,87.672 105.847,87.793 106.311 C 87.935 106.851,87.864 107.061,87.598 106.896 C 87.332 106.732,87.261 106.942,87.403 107.482 C 87.567 108.110,87.492 108.245,87.111 108.009 C 86.774 107.800,86.692 107.844,86.873 108.136 C 87.194 108.656,86.752 111.394,86.383 111.167 C 85.518 110.633,85.922 124.548,86.880 128.275 C 87.426 130.398,87.760 132.332,87.623 132.572 C 87.487 132.812,87.515 132.882,87.685 132.727 C 88.095 132.357,90.311 137.060,89.979 137.597 C 89.835 137.831,89.907 137.898,90.146 137.750 C 90.574 137.486,91.265 138.921,91.060 139.648 C 91.000 139.863,91.083 139.907,91.244 139.745 C 91.618 139.372,94.538 143.424,94.241 143.904 C 94.119 144.100,94.203 144.148,94.427 144.010 C 94.650 143.872,95.049 144.018,95.312 144.336 C 95.576 144.653,95.975 144.800,96.198 144.662 C 96.427 144.521,96.489 144.598,96.341 144.838 C 96.196 145.073,96.779 145.915,97.638 146.710 C 98.496 147.504,99.088 148.333,98.953 148.551 C 98.818 148.770,98.889 148.836,99.112 148.699 C 99.610 148.391,102.429 150.566,102.038 150.957 C 101.884 151.111,101.934 151.202,102.148 151.158 C 103.021 150.982,103.546 151.197,103.283 151.623 C 103.110 151.902,103.176 151.968,103.455 151.796 C 104.010 151.452,105.576 152.486,105.173 152.930 C 105.014 153.106,105.091 153.131,105.346 152.985 C 105.954 152.637,109.406 154.321,109.100 154.816 C 108.968 155.030,109.064 155.075,109.318 154.918 C 109.888 154.566,111.410 155.019,111.138 155.460 C 111.027 155.640,111.316 155.687,111.779 155.566 C 112.243 155.445,112.524 155.505,112.403 155.700 C 112.283 155.895,112.651 156.070,113.221 156.088 C 113.791 156.107,115.752 156.438,117.578 156.824 C 120.687 157.482,125.064 157.533,186.328 157.624 C 242.081 157.707,257.467 157.574,269.396 156.905 C 270.074 156.867,270.531 156.679,270.412 156.486 C 270.294 156.294,270.668 156.227,271.245 156.337 C 271.821 156.447,272.189 156.434,272.063 156.307 C 271.725 155.970,275.807 154.657,276.281 154.950 C 276.502 155.087,276.576 155.025,276.444 154.812 C 276.137 154.316,278.810 153.026,279.421 153.376 C 279.675 153.522,279.752 153.496,279.591 153.319 C 279.283 152.979,284.341 149.366,284.892 149.532 C 285.069 149.585,285.120 149.476,285.005 149.290 C 284.720 148.829,287.280 146.395,287.656 146.770 C 287.821 146.935,287.904 146.895,287.840 146.680 C 287.656 146.057,288.672 144.485,289.092 144.745 C 289.301 144.874,289.447 144.835,289.417 144.658 C 289.278 143.860,289.487 143.334,289.853 143.561 C 290.074 143.697,290.229 143.663,290.198 143.486 C 290.066 142.729,290.260 142.157,290.581 142.356 C 290.771 142.473,290.910 142.352,290.888 142.086 C 290.814 141.163,292.268 138.285,292.680 138.539 C 292.905 138.679,292.978 138.612,292.842 138.391 C 292.568 137.949,294.257 131.887,294.567 132.197 C 294.674 132.304,294.767 129.330,294.775 125.588 C 294.785 121.260,294.651 118.871,294.409 119.021 C 294.181 119.162,294.106 118.844,294.223 118.234 C 294.343 117.608,294.267 117.305,294.028 117.453 C 293.788 117.600,293.713 117.297,293.832 116.671 C 293.940 116.109,293.905 115.725,293.755 115.817 C 293.375 116.052,292.557 113.249,292.853 112.729 C 292.985 112.495,292.946 112.439,292.766 112.602 C 292.352 112.979,289.782 108.228,290.112 107.695 C 290.245 107.479,290.167 107.417,289.937 107.559 C 289.564 107.790,287.703 105.324,287.698 104.590 C 287.696 104.429,287.573 104.341,287.424 104.395 C 286.987 104.552,284.385 101.863,284.615 101.491 C 284.730 101.305,284.670 101.201,284.482 101.260 C 283.930 101.433,278.894 97.802,279.207 97.456 C 279.364 97.282,279.284 97.260,279.029 97.406 C 278.501 97.709,274.949 96.102,275.210 95.679 C 275.305 95.526,275.164 95.409,274.898 95.418 C 273.674 95.462,273.019 95.283,273.220 94.958 C 273.340 94.763,273.059 94.703,272.596 94.825 C 271.968 94.989,271.834 94.914,272.070 94.532 C 272.282 94.189,272.234 94.114,271.926 94.305 C 271.256 94.719,269.081 94.163,269.393 93.658 C 269.542 93.417,269.469 93.352,269.222 93.504 C 268.232 94.116,258.363 92.486,258.798 91.782 C 258.923 91.580,258.791 91.505,258.506 91.614 C 257.785 91.891,254.577 88.741,254.852 88.026 C 254.971 87.714,254.901 87.564,254.694 87.691 C 254.217 87.986,253.736 86.139,254.125 85.509 C 254.292 85.238,254.254 85.137,254.035 85.272 C 253.556 85.568,252.567 81.837,252.958 81.205 C 253.152 80.891,253.079 80.842,252.733 81.055 C 252.348 81.293,252.278 81.153,252.451 80.491 C 252.578 80.007,252.570 79.722,252.434 79.858 C 252.073 80.218,250.723 76.582,251.032 76.082 C 251.175 75.850,251.120 75.767,250.910 75.897 C 250.424 76.197,248.724 72.750,249.076 72.180 C 249.234 71.925,249.158 71.866,248.888 72.033 C 248.640 72.186,248.438 72.142,248.438 71.935 C 248.438 71.728,247.220 69.712,245.733 67.455 C 244.245 65.198,243.147 63.220,243.292 63.059 C 243.436 62.897,243.354 62.880,243.109 63.020 C 242.658 63.278,241.151 61.406,241.329 60.811 C 241.382 60.634,241.276 60.581,241.093 60.694 C 240.631 60.980,235.845 56.083,236.219 55.708 C 236.387 55.540,236.348 55.457,236.133 55.523 C 235.489 55.720,233.580 54.247,233.855 53.766 C 233.995 53.521,233.970 53.446,233.800 53.600 C 233.343 54.012,231.965 53.158,232.276 52.654 C 232.423 52.417,232.372 52.329,232.163 52.457 C 231.651 52.774,228.433 50.611,228.806 50.200 C 228.969 50.021,228.882 50.001,228.614 50.155 C 228.025 50.494,226.447 49.477,226.858 49.023 C 227.018 48.847,226.957 48.812,226.722 48.945 C 226.236 49.222,220.186 46.350,220.530 46.006 C 220.654 45.882,220.524 45.791,220.241 45.804 C 218.892 45.863,218.331 45.675,218.592 45.252 C 218.764 44.974,218.699 44.907,218.423 45.078 C 217.811 45.456,213.648 44.105,213.945 43.624 C 214.076 43.412,213.988 43.360,213.749 43.507 C 213.274 43.800,206.615 42.546,206.826 42.203 C 206.983 41.946,191.682 41.801,190.039 42.044 M121.978 81.921 C 122.572 82.011,123.451 82.008,123.931 81.916 C 124.412 81.823,123.926 81.749,122.852 81.752 C 121.777 81.755,121.384 81.831,121.978 81.921 M148.161 94.149 C 156.315 96.686,159.895 102.874,155.725 107.226 C 154.405 108.604,153.736 109.031,153.143 108.876 C 152.703 108.761,152.441 108.826,152.562 109.021 C 152.682 109.216,152.232 109.375,151.563 109.375 C 150.741 109.375,150.435 109.228,150.623 108.924 C 150.797 108.643,150.730 108.579,150.447 108.754 C 149.809 109.149,148.371 108.627,148.687 108.115 C 148.840 107.867,148.767 107.804,148.512 107.962 C 148.271 108.111,147.405 107.789,146.587 107.248 C 142.804 104.745,137.046 105.482,134.433 108.804 C 134.029 109.318,133.558 109.613,133.388 109.459 C 133.217 109.306,133.195 109.384,133.337 109.633 C 133.659 110.195,133.235 111.394,132.808 111.130 C 132.636 111.024,132.594 111.316,132.715 111.779 C 132.840 112.257,132.777 112.524,132.569 112.396 C 132.342 112.256,132.332 113.384,132.542 115.362 C 132.728 117.118,132.909 118.936,132.944 119.401 C 132.979 119.867,133.079 120.176,133.166 120.090 C 133.252 120.003,133.839 120.633,134.469 121.489 C 135.099 122.346,135.785 123.047,135.994 123.047 C 136.203 123.047,136.249 123.250,136.096 123.498 C 135.930 123.766,135.988 123.843,136.238 123.688 C 136.707 123.399,138.734 124.193,138.498 124.574 C 137.749 125.786,145.817 124.163,147.324 122.798 C 147.696 122.462,148.211 122.321,148.473 122.483 C 148.752 122.655,148.848 122.614,148.705 122.383 C 148.572 122.166,148.904 121.788,149.445 121.541 C 150.612 121.010,152.874 120.942,152.562 121.448 C 152.441 121.643,152.722 121.703,153.186 121.582 C 153.813 121.418,153.948 121.492,153.712 121.874 C 153.495 122.224,153.547 122.293,153.875 122.090 C 154.442 121.739,156.075 123.155,156.873 124.688 C 157.502 125.896,157.631 129.081,157.036 128.714 C 156.819 128.580,156.746 128.727,156.870 129.050 C 157.350 130.299,152.597 134.819,151.510 134.147 C 151.239 133.980,151.155 134.032,151.305 134.274 C 151.609 134.766,150.494 135.266,149.904 134.902 C 149.673 134.759,149.602 134.828,149.745 135.059 C 150.170 135.748,146.545 136.751,142.773 136.988 C 139.231 137.211,134.559 136.587,134.956 135.945 C 135.067 135.766,134.778 135.719,134.314 135.840 C 133.687 136.004,133.552 135.930,133.788 135.548 C 133.998 135.209,133.953 135.130,133.654 135.314 C 132.402 136.088,123.706 129.661,124.427 128.494 C 124.612 128.195,124.571 128.103,124.322 128.257 C 123.795 128.582,122.537 126.680,122.896 126.100 C 123.052 125.848,122.993 125.768,122.758 125.914 C 122.265 126.218,121.765 125.103,122.129 124.514 C 122.275 124.279,122.203 124.212,121.963 124.359 C 121.452 124.676,120.929 123.238,121.324 122.599 C 121.511 122.297,121.433 122.251,121.093 122.462 C 120.711 122.698,120.636 122.563,120.800 121.936 C 120.922 121.472,120.873 121.184,120.692 121.296 C 120.511 121.408,120.221 120.661,120.049 119.636 C 119.421 115.913,119.925 109.089,120.789 109.623 C 121.037 109.777,121.103 109.706,120.947 109.453 C 120.589 108.875,121.084 106.979,121.522 107.250 C 121.711 107.367,121.764 107.198,121.640 106.874 C 121.354 106.128,123.041 103.075,123.561 103.397 C 123.774 103.528,123.836 103.454,123.698 103.231 C 123.210 102.440,127.834 97.431,128.611 97.910 C 128.844 98.055,128.914 97.984,128.769 97.750 C 128.435 97.210,131.091 95.559,131.694 95.931 C 132.001 96.121,132.047 96.044,131.832 95.697 C 131.598 95.318,131.692 95.249,132.183 95.437 C 132.552 95.579,132.754 95.533,132.632 95.336 C 132.345 94.872,133.839 94.395,134.432 94.762 C 134.703 94.930,134.781 94.873,134.626 94.621 C 134.461 94.355,135.124 94.045,136.421 93.783 C 137.551 93.554,138.828 93.288,139.258 93.191 C 140.735 92.857,145.739 93.396,148.161 94.149 M183.666 93.359 C 184.296 93.359,184.719 93.510,184.605 93.694 C 184.492 93.877,184.859 93.940,185.421 93.832 C 186.078 93.707,186.353 93.784,186.190 94.048 C 186.029 94.308,186.245 94.378,186.779 94.238 C 187.407 94.074,187.541 94.148,187.305 94.530 C 187.095 94.871,187.141 94.949,187.443 94.762 C 188.036 94.395,189.530 94.872,189.243 95.336 C 189.121 95.533,189.323 95.579,189.692 95.437 C 190.144 95.264,190.271 95.327,190.083 95.632 C 189.894 95.937,190.022 96.001,190.473 95.828 C 190.925 95.654,191.053 95.718,190.864 96.023 C 190.693 96.300,190.782 96.400,191.093 96.282 C 192.421 95.778,199.701 103.200,198.997 104.340 C 198.829 104.612,198.872 104.706,199.101 104.565 C 199.590 104.262,200.497 106.152,200.140 106.730 C 199.992 106.970,200.061 107.040,200.299 106.893 C 200.810 106.577,201.731 109.154,201.407 109.997 C 201.262 110.376,201.341 110.488,201.628 110.311 C 201.949 110.113,202.006 110.465,201.830 111.560 C 201.663 112.599,201.704 112.899,201.958 112.500 C 202.214 112.100,202.334 112.919,202.338 115.088 C 202.344 118.587,202.024 120.793,201.551 120.501 C 201.383 120.397,201.334 120.652,201.443 121.069 C 201.928 122.926,196.026 132.128,194.825 131.385 C 194.590 131.240,194.525 131.314,194.674 131.556 C 195.014 132.106,191.551 134.510,190.952 134.140 C 190.655 133.957,190.612 134.038,190.824 134.381 C 191.058 134.760,190.964 134.829,190.473 134.641 C 190.105 134.500,189.901 134.543,190.021 134.737 C 190.317 135.215,186.906 136.484,186.127 136.185 C 185.786 136.054,185.600 136.098,185.714 136.283 C 185.996 136.739,183.585 137.101,180.273 137.099 C 178.385 137.098,177.720 136.982,178.125 136.724 C 178.524 136.470,178.224 136.429,177.185 136.595 C 176.090 136.772,175.738 136.715,175.936 136.394 C 176.113 136.107,176.001 136.028,175.622 136.173 C 174.850 136.469,172.194 135.588,172.478 135.129 C 172.598 134.934,172.395 134.890,172.027 135.032 C 171.575 135.205,171.447 135.141,171.636 134.836 C 171.824 134.532,171.697 134.468,171.245 134.641 C 170.794 134.815,170.666 134.751,170.855 134.446 C 171.026 134.169,170.937 134.068,170.626 134.186 C 168.722 134.909,160.117 124.690,161.181 122.969 C 161.355 122.688,161.269 122.647,160.936 122.852 C 160.555 123.088,160.480 122.954,160.644 122.326 C 160.765 121.863,160.720 121.573,160.543 121.682 C 160.012 122.010,159.375 118.151,159.375 114.606 C 159.375 112.193,159.499 111.358,159.826 111.561 C 160.103 111.732,160.171 111.668,160.002 111.395 C 159.596 110.737,160.165 108.162,160.650 108.462 C 160.900 108.616,160.940 108.524,160.755 108.223 C 160.367 107.596,162.094 103.850,162.621 104.176 C 162.846 104.316,162.889 104.220,162.722 103.950 C 162.234 103.161,166.683 98.089,167.635 98.350 C 167.850 98.409,167.921 98.286,167.792 98.076 C 167.502 97.608,168.918 96.794,169.347 97.182 C 169.517 97.335,169.546 97.266,169.410 97.029 C 168.631 95.662,177.883 92.709,181.396 93.202 C 182.014 93.288,183.035 93.359,183.666 93.359 M230.367 93.604 C 230.848 93.733,231.146 93.993,231.030 94.181 C 230.914 94.369,231.091 94.418,231.424 94.290 C 232.194 93.995,235.541 96.125,237.104 97.905 C 237.862 98.768,238.467 99.147,238.775 98.951 C 239.041 98.783,239.375 98.642,239.518 98.639 C 239.661 98.636,239.925 98.473,240.104 98.277 C 240.295 98.068,240.188 98.039,239.844 98.207 C 239.521 98.364,239.978 97.821,240.859 97.000 C 242.931 95.069,245.554 93.777,247.986 93.489 C 250.202 93.227,253.631 93.638,253.327 94.129 C 253.215 94.310,253.503 94.359,253.967 94.238 C 254.595 94.074,254.729 94.148,254.493 94.530 C 254.291 94.857,254.329 94.948,254.598 94.782 C 255.176 94.425,257.066 95.331,256.763 95.821 C 256.622 96.049,256.716 96.093,256.988 95.925 C 257.588 95.555,258.666 96.431,258.332 97.017 C 258.192 97.261,258.226 97.326,258.408 97.161 C 258.840 96.769,261.371 99.224,261.057 99.732 C 260.925 99.946,261.001 100.007,261.225 99.868 C 261.751 99.543,263.009 101.445,262.651 102.025 C 262.473 102.313,262.557 102.355,262.897 102.145 C 263.275 101.911,263.345 102.004,263.157 102.495 C 263.015 102.864,263.057 103.068,263.249 102.950 C 264.953 101.896,266.223 128.159,264.665 132.239 C 263.935 134.150,262.383 135.762,261.687 135.332 C 261.397 135.153,261.307 135.197,261.461 135.446 C 261.808 136.008,260.818 136.328,258.734 136.328 C 257.512 136.328,257.069 136.192,257.264 135.877 C 257.440 135.592,257.371 135.532,257.074 135.716 C 256.458 136.097,254.585 134.858,254.931 134.297 C 255.089 134.042,255.022 133.973,254.767 134.130 C 254.233 134.460,253.378 132.961,253.753 132.353 C 253.933 132.063,253.851 132.020,253.514 132.227 C 253.133 132.463,253.058 132.329,253.222 131.701 C 253.344 131.238,253.293 130.951,253.111 131.063 C 252.928 131.176,252.725 126.298,252.659 120.224 C 252.548 110.006,252.481 109.080,251.758 107.851 C 249.656 104.278,243.105 105.079,242.320 109.006 C 242.186 109.673,241.970 110.046,241.839 109.833 C 241.709 109.621,241.657 114.133,241.725 119.860 C 241.847 130.236,241.546 133.577,240.546 132.959 C 240.279 132.794,240.225 132.871,240.403 133.160 C 240.764 133.744,239.900 134.847,239.349 134.506 C 239.119 134.364,239.058 134.442,239.208 134.686 C 239.539 135.220,238.039 136.076,237.432 135.700 C 237.160 135.532,237.097 135.601,237.267 135.877 C 237.675 136.537,234.203 136.461,232.890 135.782 C 231.415 135.019,230.334 133.737,230.686 133.167 C 230.887 132.842,230.817 132.793,230.463 133.012 C 230.084 133.246,230.014 133.152,230.203 132.661 C 230.344 132.292,230.306 132.086,230.118 132.202 C 229.453 132.613,229.307 130.555,229.302 120.668 C 229.298 113.501,229.150 110.184,228.779 108.949 C 228.493 108.002,228.230 107.095,228.193 106.934 C 228.155 106.772,228.035 106.644,227.926 106.649 C 227.816 106.653,227.209 106.389,226.578 106.063 C 224.764 105.125,222.144 105.293,220.787 106.434 C 220.156 106.966,219.499 107.273,219.328 107.118 C 219.156 106.963,219.132 107.040,219.275 107.289 C 219.570 107.806,219.189 109.059,218.807 108.826 C 218.605 108.702,218.421 117.651,218.366 130.199 C 218.362 131.017,218.200 131.588,218.005 131.468 C 217.810 131.347,217.743 131.601,217.856 132.031 C 218.121 133.046,215.148 136.138,214.241 135.790 C 213.891 135.655,213.733 135.720,213.870 135.942 C 214.012 136.173,213.461 136.328,212.500 136.328 C 211.615 136.328,210.990 136.169,211.110 135.974 C 211.231 135.779,210.950 135.719,210.486 135.840 C 209.858 136.004,209.724 135.930,209.960 135.548 C 210.176 135.199,210.125 135.129,209.801 135.329 C 209.177 135.715,207.920 134.553,206.990 132.730 C 205.498 129.807,205.999 96.191,207.520 97.131 C 207.747 97.271,207.825 97.212,207.694 96.999 C 207.327 96.405,208.593 94.838,209.241 95.086 C 209.552 95.206,209.704 95.138,209.579 94.936 C 209.250 94.404,212.275 93.682,213.560 93.984 C 215.288 94.392,217.012 95.592,217.543 96.759 C 217.980 97.718,218.075 97.761,218.416 97.151 C 218.626 96.775,218.951 96.562,219.138 96.678 C 219.324 96.793,219.604 96.682,219.760 96.430 C 219.947 96.127,219.858 96.069,219.494 96.257 C 219.192 96.413,219.473 96.090,220.117 95.538 C 222.241 93.721,227.265 92.773,230.367 93.604 M178.125 105.532 C 177.373 105.751,176.546 106.105,176.287 106.319 C 176.027 106.533,175.605 106.578,175.347 106.419 C 175.077 106.251,174.981 106.294,175.121 106.520 C 175.434 107.028,173.292 109.090,172.860 108.697 C 172.679 108.533,172.644 108.597,172.783 108.839 C 172.921 109.082,172.730 109.873,172.357 110.597 C 171.674 111.926,171.261 120.106,171.898 119.713 C 172.206 119.522,173.292 121.884,173.130 122.392 C 173.074 122.569,173.184 122.618,173.376 122.499 C 173.837 122.214,175.086 123.612,174.708 123.990 C 174.546 124.152,174.590 124.248,174.805 124.205 C 175.677 124.029,176.202 124.244,175.939 124.670 C 175.774 124.937,175.831 125.015,176.079 124.862 C 176.309 124.720,176.995 124.793,177.604 125.025 C 178.812 125.485,184.009 125.744,183.753 125.331 C 183.526 124.965,185.807 124.231,186.197 124.544 C 186.377 124.687,186.414 124.666,186.280 124.496 C 185.968 124.100,188.360 121.593,188.830 121.823 C 189.024 121.918,189.066 121.806,188.923 121.574 C 188.617 121.079,189.438 119.085,189.844 119.336 C 189.997 119.431,190.034 119.047,189.926 118.485 C 189.818 117.922,189.888 117.559,190.080 117.678 C 190.272 117.797,190.430 116.785,190.430 115.430 C 190.430 114.074,190.272 113.062,190.080 113.181 C 189.888 113.300,189.818 112.937,189.926 112.375 C 190.034 111.812,189.971 111.445,189.787 111.558 C 189.604 111.672,189.453 111.532,189.453 111.247 C 189.453 110.961,189.022 110.093,188.495 109.318 C 187.967 108.542,187.660 107.783,187.811 107.632 C 187.962 107.481,187.910 107.409,187.695 107.472 C 187.084 107.653,185.499 106.644,185.752 106.235 C 185.879 106.028,185.686 105.980,185.308 106.126 C 184.856 106.299,184.729 106.235,184.917 105.930 C 185.106 105.625,184.978 105.562,184.527 105.735 C 184.156 105.877,183.954 105.831,184.076 105.633 C 184.384 105.127,179.782 105.049,178.125 105.532 M114.173 122.403 C 115.769 123.074,118.051 125.395,117.787 126.081 C 117.664 126.401,117.760 126.496,118.035 126.326 C 118.339 126.138,118.412 126.319,118.262 126.893 C 118.141 127.356,118.201 127.637,118.396 127.517 C 118.591 127.396,118.750 128.017,118.750 128.896 C 118.750 130.897,117.772 133.369,117.135 132.976 C 116.872 132.813,116.780 132.860,116.920 133.086 C 117.270 133.653,115.397 135.303,114.812 134.942 C 114.523 134.763,114.432 134.807,114.584 135.051 C 115.174 136.007,110.362 136.266,108.632 135.372 C 107.122 134.590,104.980 132.069,105.244 131.382 C 105.364 131.068,105.289 130.924,105.074 131.057 C 104.839 131.203,104.688 130.518,104.688 129.307 C 104.688 126.981,105.615 124.412,106.302 124.837 C 106.580 125.008,106.657 124.952,106.498 124.695 C 106.106 124.061,108.825 122.133,109.765 122.379 C 110.196 122.491,110.449 122.424,110.329 122.229 C 109.992 121.684,112.760 121.810,114.173 122.403 M124.707 158.082 C 125.083 158.180,125.698 158.180,126.074 158.082 C 126.450 157.984,126.143 157.903,125.391 157.903 C 124.639 157.903,124.331 157.984,124.707 158.082 M255.962 158.093 C 256.556 158.183,257.435 158.180,257.916 158.087 C 258.396 157.995,257.910 157.921,256.836 157.924 C 255.762 157.927,255.369 158.003,255.962 158.093 M82.324 161.994 C 82.808 162.088,83.599 162.088,84.082 161.994 C 84.565 161.901,84.170 161.825,83.203 161.825 C 82.236 161.825,81.841 161.901,82.324 161.994 M307.031 161.978 C 311.139 162.253,319.815 162.281,319.398 162.018 C 319.149 161.860,315.869 161.760,312.109 161.795 C 308.350 161.831,306.064 161.913,307.031 161.978 M80.168 162.371 C 78.555 163.019,78.511 163.741,78.607 187.969 L 78.699 211.133 78.900 187.695 C 79.107 163.645,79.131 163.280,80.589 162.576 C 81.446 162.162,81.103 161.995,80.168 162.371 M102.859 162.402 C 108.407 162.463,117.371 162.463,122.781 162.402 C 128.191 162.341,123.652 162.291,112.695 162.291 C 101.738 162.291,97.312 162.341,102.859 162.402 M261.258 162.402 C 267.343 162.463,277.187 162.463,283.133 162.402 C 289.080 162.341,284.102 162.292,272.070 162.292 C 260.039 162.292,255.174 162.342,261.258 162.402 M320.888 163.652 C 321.804 165.423,321.784 210.294,320.867 211.729 L 320.250 212.695 321.062 211.773 C 322.752 209.856,322.199 162.500,320.488 162.500 C 320.380 162.500,320.561 163.019,320.888 163.652 M273.170 181.152 C 277.212 181.215,283.716 181.215,287.623 181.152 C 291.530 181.088,288.223 181.036,280.273 181.036 C 272.324 181.036,269.128 181.088,273.170 181.152 M262.280 183.301 L 261.133 184.570 262.402 183.423 C 263.101 182.792,263.672 182.221,263.672 182.153 C 263.672 181.852,263.350 182.117,262.280 183.301 M296.875 182.153 C 296.875 182.221,297.446 182.792,298.145 183.423 L 299.414 184.570 298.267 183.301 C 297.197 182.117,296.875 181.852,296.875 182.153 M93.458 188.086 C 93.462 188.945,93.542 189.251,93.636 188.765 C 93.729 188.279,93.726 187.576,93.628 187.202 C 93.530 186.829,93.454 187.227,93.458 188.086 M111.036 188.086 C 111.040 188.945,111.120 189.251,111.214 188.765 C 111.307 188.279,111.304 187.576,111.206 187.202 C 111.108 186.829,111.032 187.227,111.036 188.086 M109.888 191.829 C 109.424 192.675,109.208 193.267,109.408 193.144 C 109.841 192.876,111.052 190.610,110.863 190.420 C 110.791 190.348,110.352 190.982,109.888 191.829 M261.244 191.211 C 261.466 191.641,262.147 192.431,262.757 192.967 L 263.867 193.942 262.698 192.577 C 260.846 190.413,260.821 190.389,261.244 191.211 M297.827 192.676 L 296.680 193.945 297.949 192.798 C 298.647 192.167,299.219 191.596,299.219 191.528 C 299.219 191.227,298.896 191.492,297.827 192.676 M95.897 194.079 C 96.323 194.582,97.024 195.175,97.457 195.396 C 98.286 195.821,98.165 195.690,96.292 194.135 C 95.164 193.198,95.150 193.196,95.897 194.079 M273.170 194.824 C 277.212 194.887,283.716 194.887,287.623 194.824 C 291.530 194.760,288.223 194.708,280.273 194.708 C 272.324 194.708,269.128 194.760,273.170 194.824 M79.123 211.827 C 79.417 212.596,80.797 213.474,81.153 213.118 C 81.278 212.993,81.182 212.891,80.940 212.891 C 80.697 212.891,80.130 212.495,79.679 212.012 C 79.054 211.343,78.921 211.299,79.123 211.827 M315.820 212.891 L 311.914 213.130 315.700 213.206 C 317.888 213.249,319.587 213.116,319.727 212.891 C 319.859 212.676,319.914 212.534,319.847 212.576 C 319.781 212.617,317.969 212.759,315.820 212.891 M133.918 213.574 C 161.059 213.630,205.356 213.630,232.356 213.574 C 259.355 213.519,237.148 213.474,183.008 213.474 C 128.867 213.474,106.777 213.519,133.918 213.574 M86.241 228.802 C 87.160 228.885,88.566 228.884,89.366 228.800 C 90.166 228.716,89.414 228.648,87.695 228.650 C 85.977 228.651,85.322 228.720,86.241 228.802 M147.785 228.809 C 179.116 228.864,230.269 228.864,261.457 228.809 C 292.646 228.753,267.012 228.708,204.492 228.708 C 141.973 228.708,116.455 228.753,147.785 228.809 M319.529 229.473 C 320.065 229.770,320.716 230.510,320.976 231.119 C 321.292 231.860,321.455 231.994,321.467 231.525 C 321.487 230.716,319.810 228.900,319.061 228.920 C 318.782 228.928,318.993 229.177,319.529 229.473 M78.766 231.332 C 78.634 231.824,78.564 242.334,78.611 254.688 L 78.696 277.148 78.899 253.906 C 79.010 241.123,79.080 230.613,79.054 230.551 C 79.027 230.489,78.898 230.840,78.766 231.332 M96.550 247.949 L 95.083 249.414 96.467 248.243 C 97.229 247.599,98.019 246.940,98.223 246.778 C 98.427 246.617,98.464 246.484,98.305 246.484 C 98.146 246.484,97.357 247.144,96.550 247.949 M106.445 246.731 C 106.660 246.919,107.539 247.687,108.398 248.439 L 109.959 249.805 108.788 248.502 C 108.144 247.785,107.266 247.016,106.836 246.794 C 106.406 246.571,106.230 246.543,106.445 246.731 M261.703 250.022 C 261.235 250.679,260.917 251.282,260.997 251.362 C 261.077 251.441,261.537 250.904,262.020 250.167 C 263.109 248.507,262.862 248.394,261.703 250.022 M299.077 250.977 C 299.980 252.519,300.000 252.542,300.000 252.062 C 300.000 251.835,299.638 251.234,299.196 250.727 L 298.391 249.805 299.077 250.977 M93.471 254.492 C 93.474 255.566,93.550 255.959,93.640 255.366 C 93.729 254.772,93.727 253.893,93.634 253.413 C 93.542 252.932,93.468 253.418,93.471 254.492 M111.036 254.492 C 111.040 255.352,111.120 255.657,111.214 255.171 C 111.307 254.685,111.304 253.982,111.206 253.609 C 111.108 253.235,111.032 253.633,111.036 254.492 M110.578 256.699 C 110.561 257.053,109.926 258.266,109.167 259.394 C 108.407 260.523,108.066 261.213,108.408 260.930 C 109.369 260.132,111.029 257.100,110.807 256.548 C 110.680 256.232,110.597 256.286,110.578 256.699 M260.940 256.776 C 260.935 257.397,262.553 259.376,263.406 259.793 C 264.225 260.193,264.223 260.181,263.364 259.486 C 262.873 259.089,262.127 258.242,261.707 257.605 C 261.286 256.967,260.941 256.594,260.940 256.776 M94.838 259.180 C 95.060 259.609,95.740 260.400,96.351 260.936 L 97.461 261.911 96.292 260.545 C 94.440 258.381,94.414 258.357,94.838 259.180 M100.879 263.170 C 101.470 263.260,102.437 263.260,103.027 263.170 C 103.618 263.081,103.135 263.008,101.953 263.008 C 100.771 263.008,100.288 263.081,100.879 263.170 M78.933 277.637 C 78.918 277.905,79.258 278.477,79.688 278.906 C 80.117 279.336,80.688 279.676,80.957 279.661 C 81.226 279.647,81.068 279.452,80.608 279.229 C 80.147 279.006,79.588 278.447,79.365 277.986 C 79.142 277.525,78.947 277.368,78.933 277.637 M123.926 279.980 C 147.290 280.036,185.522 280.036,208.887 279.980 C 232.251 279.925,213.135 279.879,166.406 279.879 C 119.678 279.879,100.562 279.925,123.926 279.980 M253.223 279.967 C 253.813 280.057,254.780 280.057,255.371 279.967 C 255.962 279.878,255.479 279.805,254.297 279.805 C 253.115 279.805,252.632 279.878,253.223 279.967 M316.313 362.386 C 316.799 362.479,317.502 362.476,317.876 362.378 C 318.249 362.280,317.852 362.204,316.992 362.208 C 316.133 362.212,315.827 362.292,316.313 362.386 " stroke="none" fill="#c5daf5" fill-rule="evenodd"></path><path id="path5" d="M123.535 294.824 C 146.685 294.880,184.565 294.880,207.715 294.824 C 230.864 294.769,211.924 294.723,165.625 294.723 C 119.326 294.723,100.386 294.769,123.535 294.824 M93.841 320.703 C 93.841 321.455,93.921 321.763,94.019 321.387 C 94.118 321.011,94.118 320.396,94.019 320.020 C 93.921 319.644,93.841 319.951,93.841 320.703 " stroke="none" fill="#9671ec" fill-rule="evenodd"></path><path id="path6" d="M187.500 42.007 C 183.704 42.607,177.338 44.378,176.758 44.995 C 176.489 45.280,176.551 45.342,176.953 45.192 C 187.854 41.131,205.236 40.751,215.039 44.359 C 215.559 44.550,215.690 44.516,215.430 44.256 C 213.213 42.043,196.026 40.659,187.500 42.007 M216.016 44.492 C 216.016 44.682,216.499 44.958,217.090 45.105 C 218.737 45.516,223.376 47.603,225.879 49.059 C 227.114 49.778,228.125 50.210,228.125 50.018 C 228.125 49.653,220.527 45.836,217.676 44.769 C 216.763 44.427,216.016 44.302,216.016 44.492 M173.438 46.147 C 170.160 47.633,164.456 50.889,164.454 51.276 C 164.454 51.440,165.552 50.881,166.895 50.034 C 168.237 49.187,170.830 47.832,172.656 47.024 C 176.342 45.392,176.369 45.378,176.139 45.154 C 176.050 45.067,174.834 45.514,173.438 46.147 M229.329 50.940 C 230.097 51.687,234.372 54.620,234.364 54.394 C 234.350 54.052,229.922 50.781,229.472 50.781 C 229.304 50.781,229.240 50.853,229.329 50.940 M162.603 52.441 C 161.913 52.925,161.260 53.546,161.151 53.821 C 161.042 54.096,161.652 53.759,162.508 53.072 C 163.902 51.952,164.276 51.563,163.959 51.563 C 163.903 51.563,163.292 51.958,162.603 52.441 M159.548 54.851 C 159.131 55.156,158.894 55.508,159.020 55.635 C 159.146 55.761,159.569 55.512,159.959 55.081 C 160.789 54.164,160.618 54.068,159.548 54.851 M235.547 55.576 C 235.547 55.635,236.865 56.993,238.477 58.594 C 240.088 60.194,241.406 61.356,241.406 61.175 C 241.406 60.995,240.155 59.637,238.625 58.158 C 236.100 55.716,235.547 55.253,235.547 55.576 M153.999 60.416 C 153.728 60.526,153.309 60.995,153.068 61.460 C 152.656 62.251,152.694 62.244,153.658 61.358 C 154.224 60.837,154.688 60.353,154.688 60.283 C 154.688 60.141,154.681 60.142,153.999 60.416 M151.660 63.253 C 150.325 64.725,149.923 65.288,150.091 65.455 C 150.184 65.548,150.825 64.922,151.516 64.062 C 152.796 62.469,152.900 61.887,151.660 63.253 M243.701 64.258 C 244.267 65.414,245.286 66.660,245.298 66.211 C 245.304 65.996,244.861 65.293,244.313 64.648 C 243.766 64.004,243.490 63.828,243.701 64.258 M146.729 70.272 C 144.878 73.333,142.754 78.041,143.078 78.364 C 143.171 78.457,143.558 77.694,143.939 76.669 C 144.720 74.566,146.461 71.318,148.133 68.848 C 148.751 67.935,149.107 67.188,148.925 67.188 C 148.742 67.188,147.754 68.575,146.729 70.272 M246.575 68.750 C 246.843 69.180,247.198 69.531,247.363 69.531 C 247.528 69.531,247.443 69.180,247.175 68.750 C 246.907 68.320,246.552 67.969,246.387 67.969 C 246.222 67.969,246.307 68.320,246.575 68.750 M249.680 74.414 C 249.925 74.951,250.269 75.391,250.445 75.391 C 250.621 75.391,250.564 74.951,250.320 74.414 C 250.075 73.877,249.731 73.438,249.555 73.438 C 249.379 73.438,249.436 73.877,249.680 74.414 M251.147 77.421 C 251.879 79.186,252.972 82.694,253.905 86.270 C 254.149 87.205,254.429 87.889,254.527 87.790 C 254.961 87.357,251.909 77.547,250.961 76.326 C 250.585 75.841,250.649 76.219,251.147 77.421 M141.511 80.446 C 140.015 82.842,135.963 83.893,131.965 82.922 C 127.096 81.740,116.835 81.962,112.305 83.349 C 108.715 84.448,101.563 87.718,101.563 88.260 C 101.563 88.426,103.013 87.811,104.785 86.894 C 113.137 82.575,121.598 81.396,131.092 83.228 C 136.418 84.256,138.201 83.928,140.925 81.420 C 141.942 80.484,142.596 79.712,142.379 79.703 C 142.162 79.694,141.772 80.029,141.511 80.446 M99.707 89.498 C 99.009 89.945,98.438 90.479,98.438 90.683 C 98.438 90.888,99.053 90.586,99.805 90.013 C 100.993 89.106,101.422 88.655,101.074 88.678 C 101.021 88.682,100.405 89.051,99.707 89.498 M257.378 91.157 C 258.140 92.076,260.833 92.894,263.992 93.166 C 269.349 93.627,276.740 96.173,280.506 98.854 C 281.130 99.299,281.641 99.506,281.641 99.315 C 281.641 97.532,270.267 93.361,263.388 92.622 C 261.422 92.410,259.537 91.943,258.528 91.418 C 257.414 90.837,257.042 90.753,257.378 91.157 M96.073 92.871 L 94.727 94.336 96.191 92.990 C 97.555 91.737,97.836 91.406,97.538 91.406 C 97.472 91.406,96.813 92.065,96.073 92.871 M138.867 93.219 C 135.736 93.694,129.261 96.188,129.789 96.716 C 129.887 96.814,130.836 96.444,131.897 95.894 C 137.870 92.795,145.699 92.966,151.883 96.329 C 154.821 97.927,154.790 97.434,151.847 95.764 C 148.347 93.777,142.607 92.652,138.867 93.219 M179.102 93.221 C 176.709 93.497,173.828 94.207,173.828 94.521 C 173.828 94.699,174.647 94.599,175.648 94.298 C 178.636 93.398,184.093 93.598,187.283 94.724 C 190.541 95.873,191.220 95.737,188.082 94.564 C 186.247 93.877,181.160 92.855,180.469 93.035 C 180.361 93.063,179.746 93.147,179.102 93.221 M222.861 93.983 C 222.007 94.296,221.128 94.749,220.908 94.989 C 220.618 95.307,220.722 95.344,221.289 95.122 C 221.719 94.954,222.773 94.563,223.632 94.252 C 224.490 93.942,225.267 93.614,225.357 93.523 C 225.692 93.188,224.365 93.432,222.861 93.983 M228.881 93.803 C 230.049 93.997,231.790 94.594,232.749 95.130 C 234.660 96.198,235.398 96.208,233.774 95.143 C 232.215 94.122,229.743 93.354,228.174 93.405 C 226.970 93.444,227.077 93.504,228.881 93.803 M246.197 93.772 C 244.979 94.146,242.188 95.638,242.188 95.915 C 242.188 95.990,243.198 95.582,244.434 95.009 C 247.445 93.612,251.965 93.542,254.846 94.845 C 255.899 95.322,256.827 95.647,256.908 95.566 C 257.973 94.501,248.817 92.967,246.197 93.772 M210.446 94.308 C 208.817 94.890,207.813 95.602,207.813 96.176 C 207.813 96.384,208.327 96.121,208.956 95.591 C 210.476 94.312,212.422 93.983,214.410 94.668 C 215.286 94.970,215.911 95.069,215.800 94.888 C 215.203 93.924,212.380 93.618,210.446 94.308 M170.485 95.924 C 167.886 97.485,167.192 98.047,167.868 98.047 C 168.113 98.047,168.424 97.867,168.560 97.648 C 168.696 97.428,169.849 96.722,171.122 96.079 C 173.286 94.987,173.875 94.531,173.122 94.531 C 172.948 94.531,171.761 95.158,170.485 95.924 M92.644 96.647 C 90.945 99.012,91.078 99.371,92.812 97.100 C 93.585 96.087,94.142 95.183,94.049 95.091 C 93.957 94.999,93.325 95.699,92.644 96.647 M216.406 95.425 C 216.406 95.487,216.734 96.181,217.135 96.966 L 217.863 98.395 219.101 96.997 C 219.781 96.228,220.266 95.527,220.179 95.439 C 220.091 95.351,219.565 95.819,219.010 96.479 L 218.000 97.679 217.389 96.496 C 216.873 95.499,216.406 94.990,216.406 95.425 M190.625 95.858 C 190.625 95.967,191.448 96.623,192.455 97.315 C 193.461 98.007,194.797 99.158,195.425 99.873 C 196.052 100.587,196.767 101.164,197.013 101.154 C 197.582 101.132,193.442 97.304,191.833 96.365 C 191.169 95.977,190.625 95.748,190.625 95.858 M257.422 96.020 C 257.422 96.195,257.993 96.749,258.691 97.251 L 259.961 98.165 258.814 96.934 C 257.598 95.629,257.422 95.514,257.422 96.020 M235.571 96.680 C 237.736 99.913,238.272 100.062,240.250 97.983 C 242.338 95.788,242.219 95.517,240.086 97.610 L 238.375 99.289 236.711 97.594 C 235.796 96.661,235.283 96.250,235.571 96.680 M206.686 98.085 C 206.392 98.928,206.252 104.569,206.256 115.390 C 206.264 133.203,206.264 133.204,209.037 135.260 C 210.855 136.608,216.016 136.372,216.016 134.941 C 216.016 134.833,215.497 135.014,214.863 135.342 C 212.216 136.710,209.007 135.601,207.529 132.808 C 206.506 130.872,206.115 101.235,207.076 98.476 C 207.316 97.788,207.424 97.138,207.317 97.030 C 207.209 96.923,206.925 97.398,206.686 98.085 M154.702 97.901 C 154.694 98.144,154.963 98.570,155.299 98.850 C 157.123 100.363,157.575 103.939,156.236 106.250 L 155.444 107.617 156.431 106.445 C 157.491 105.187,157.783 102.508,157.057 100.709 C 156.588 99.549,154.720 97.322,154.702 97.901 M126.038 99.609 C 125.464 100.254,125.140 100.781,125.320 100.781 C 125.778 100.781,127.519 98.874,127.280 98.634 C 127.171 98.526,126.613 98.964,126.038 99.609 M260.822 99.402 C 261.208 99.932,261.686 100.372,261.884 100.378 C 262.083 100.385,261.833 99.951,261.328 99.414 C 260.157 98.167,259.919 98.162,260.822 99.402 M163.867 101.563 C 163.478 101.992,163.357 102.344,163.598 102.344 C 163.838 102.344,164.223 101.992,164.453 101.563 C 164.683 101.133,164.804 100.781,164.723 100.781 C 164.641 100.781,164.256 101.133,163.867 101.563 M262.122 100.996 C 262.115 101.222,262.281 101.578,262.491 101.788 C 264.640 103.936,265.984 127.172,264.236 131.957 C 263.234 134.703,261.725 135.742,258.744 135.742 C 257.413 135.742,256.528 135.871,256.776 136.029 C 258.886 137.372,262.915 135.665,264.372 132.809 C 265.719 130.171,265.546 107.744,264.153 104.274 C 263.265 102.062,262.144 100.254,262.122 100.996 M89.139 102.246 C 88.924 102.837,88.451 104.023,88.088 104.883 C 87.089 107.246,88.029 105.989,89.183 103.418 C 89.738 102.183,90.042 101.172,89.860 101.172 C 89.678 101.172,89.354 101.655,89.139 102.246 M286.328 103.782 C 287.725 105.285,288.932 106.464,289.011 106.401 C 289.269 106.198,285.439 101.923,284.602 101.480 C 284.155 101.243,284.932 102.279,286.328 103.782 M123.294 103.117 C 122.722 103.981,122.389 104.680,122.553 104.671 C 122.919 104.651,124.700 101.914,124.486 101.700 C 124.402 101.616,123.865 102.253,123.294 103.117 M197.677 102.148 C 197.682 102.665,198.772 104.093,198.993 103.872 C 199.088 103.777,198.830 103.262,198.419 102.729 C 198.009 102.195,197.675 101.934,197.677 102.148 M161.772 104.972 C 158.278 111.895,158.662 120.788,162.719 126.919 C 164.309 129.321,164.286 128.591,162.688 125.937 C 159.077 119.940,158.785 112.079,161.934 105.595 C 162.643 104.134,163.161 102.874,163.083 102.797 C 163.005 102.719,162.415 103.698,161.772 104.972 M199.447 104.883 C 199.597 105.313,200.153 106.807,200.683 108.203 C 202.572 113.176,202.302 119.286,199.978 124.202 C 199.335 125.561,198.899 126.763,199.008 126.873 C 199.297 127.161,201.169 122.932,201.798 120.571 C 202.941 116.277,202.211 109.700,200.175 105.946 C 199.625 104.932,199.297 104.453,199.447 104.883 M177.539 105.285 C 176.680 105.594,175.933 105.850,175.879 105.853 C 175.825 105.857,175.781 106.022,175.781 106.220 C 175.781 106.418,176.353 106.289,177.051 105.933 C 181.807 103.506,188.425 106.830,189.813 112.344 C 190.064 113.341,190.349 114.078,190.446 113.981 C 190.543 113.884,190.349 112.885,190.016 111.762 C 188.464 106.538,182.563 103.475,177.539 105.285 M120.965 108.105 C 119.734 112.057,119.405 115.319,119.916 118.520 C 120.329 121.106,121.797 125.598,122.123 125.273 C 122.217 125.179,121.939 124.201,121.506 123.101 C 119.824 118.834,119.873 111.743,121.615 107.431 C 122.138 106.137,122.418 105.078,122.237 105.078 C 122.057 105.078,121.484 106.440,120.965 108.105 M139.648 105.319 C 138.216 105.661,135.938 106.755,135.938 107.100 C 135.938 107.287,136.333 107.182,136.816 106.867 C 139.506 105.113,143.630 105.406,147.200 107.606 C 150.335 109.537,153.892 109.806,154.892 108.189 C 155.010 107.997,154.450 108.115,153.646 108.451 C 151.682 109.271,150.169 108.959,146.989 107.079 C 144.379 105.536,141.564 104.861,139.648 105.319 M221.224 105.558 C 218.434 107.196,217.988 109.481,217.977 122.184 C 217.969 130.705,217.916 131.385,217.131 132.922 C 216.511 134.138,216.456 134.430,216.916 134.048 C 218.100 133.065,218.340 131.008,218.532 120.219 C 218.741 108.525,218.842 107.937,220.943 106.284 C 222.335 105.190,225.116 105.191,226.953 106.288 L 228.320 107.104 227.457 106.215 C 226.418 105.146,222.609 104.745,221.224 105.558 M244.727 105.666 L 243.555 106.218 244.727 105.942 C 246.184 105.599,248.267 105.614,249.805 105.977 L 250.977 106.254 249.805 105.684 C 248.321 104.962,246.236 104.954,244.727 105.666 M87.088 107.715 C 86.872 108.306,86.618 109.009,86.524 109.277 C 86.430 109.546,86.487 109.766,86.650 109.766 C 86.814 109.766,87.136 109.063,87.365 108.203 C 87.842 106.416,87.672 106.117,87.088 107.715 M173.861 107.722 C 171.916 109.921,171.355 111.325,171.174 114.454 C 170.997 117.518,171.856 121.484,172.698 121.484 C 172.901 121.484,172.776 120.921,172.420 120.232 C 170.698 116.903,171.405 111.244,173.897 108.413 C 174.755 107.438,175.310 106.644,175.131 106.648 C 174.951 106.652,174.380 107.135,173.861 107.722 M289.720 108.008 C 294.939 115.599,296.309 126.463,293.230 135.827 C 292.720 137.378,292.439 138.563,292.605 138.460 C 293.747 137.754,295.313 130.072,295.313 125.174 C 295.313 119.208,292.374 109.850,289.795 107.603 L 288.915 106.836 289.720 108.008 M134.068 108.811 C 132.008 111.310,131.381 115.936,132.666 119.149 C 133.515 121.270,133.705 120.935,132.993 118.572 C 131.863 114.814,132.610 110.695,134.858 108.301 C 135.312 107.817,135.577 107.422,135.448 107.422 C 135.319 107.422,134.698 108.047,134.068 108.811 M241.956 108.105 C 241.783 108.481,241.539 113.887,241.414 120.117 C 241.175 132.039,241.084 132.642,239.243 134.481 C 237.932 135.790,236.849 136.098,234.494 135.832 C 233.394 135.708,232.915 135.763,233.248 135.974 C 234.323 136.654,237.331 136.364,238.712 135.446 C 241.548 133.562,241.795 132.388,241.814 120.718 C 241.827 113.088,241.969 109.965,242.354 108.887 C 242.874 107.428,242.556 106.803,241.956 108.105 M252.037 108.301 C 252.392 108.923,252.601 112.088,252.753 119.141 L 252.967 129.102 253.044 119.727 C 253.118 110.714,252.817 107.422,251.921 107.422 C 251.701 107.422,251.751 107.800,252.037 108.301 M228.737 108.398 C 228.922 108.828,229.168 114.277,229.283 120.508 C 229.439 128.971,229.623 132.034,230.010 132.617 L 230.528 133.398 230.221 132.617 C 230.053 132.188,229.820 126.615,229.704 120.234 C 229.535 111.009,229.380 108.527,228.946 108.124 C 228.487 107.698,228.454 107.741,228.737 108.398 M85.993 112.176 C 84.998 117.311,85.204 125.891,86.365 127.689 C 86.684 128.183,86.714 128.108,86.505 127.344 C 86.005 125.514,85.850 115.091,86.288 112.727 C 86.524 111.455,86.645 110.343,86.557 110.254 C 86.468 110.166,86.215 111.031,85.993 112.176 M190.168 116.450 C 189.851 119.158,188.334 122.239,186.634 123.626 C 185.929 124.202,185.733 124.484,186.200 124.253 C 188.507 123.112,190.836 118.444,190.550 115.535 C 190.453 114.547,190.366 114.755,190.168 116.450 M148.756 121.867 C 147.964 122.297,147.207 122.826,147.073 123.043 C 146.688 123.665,147.204 123.507,148.369 122.645 C 153.547 118.817,159.792 125.883,155.616 130.846 C 155.052 131.516,154.682 132.156,154.795 132.269 C 154.907 132.381,155.487 131.834,156.083 131.052 C 159.964 125.965,154.294 118.857,148.756 121.867 M109.470 122.186 C 106.028 123.258,103.337 128.908,105.012 131.546 C 105.183 131.817,105.250 131.012,105.159 129.758 C 104.754 124.158,109.752 120.697,114.629 123.200 C 116.949 124.390,117.241 124.343,115.394 123.077 C 113.983 122.110,111.105 121.677,109.470 122.186 M173.433 122.647 C 173.660 123.072,174.238 123.622,174.716 123.870 C 175.441 124.245,175.395 124.117,174.439 123.098 C 173.110 121.681,172.855 121.567,173.433 122.647 M136.281 123.575 C 137.878 125.500,146.484 125.717,146.484 123.833 C 146.484 123.637,145.830 123.751,145.030 124.085 C 142.820 125.008,139.590 124.900,137.503 123.832 C 136.209 123.170,135.888 123.103,136.281 123.575 M176.100 124.714 C 177.323 126.198,184.129 126.345,185.018 124.907 C 185.199 124.614,185.045 124.577,184.537 124.791 C 182.184 125.779,178.538 125.663,176.414 124.532 C 175.680 124.141,175.644 124.161,176.100 124.714 M117.188 125.151 C 117.188 125.234,117.450 125.805,117.771 126.420 C 121.037 132.682,112.389 138.465,106.910 133.684 C 105.315 132.292,105.303 132.288,106.445 133.545 C 111.786 139.425,121.228 133.641,118.184 126.355 C 117.708 125.216,117.188 124.587,117.188 125.151 M122.876 126.886 C 123.292 127.600,123.885 128.391,124.194 128.643 C 124.546 128.931,124.473 128.618,123.999 127.802 C 123.583 127.087,122.990 126.296,122.681 126.044 C 122.329 125.757,122.402 126.070,122.876 126.886 M86.773 129.897 C 86.982 130.657,87.671 132.547,88.302 134.096 C 88.934 135.646,89.451 136.958,89.452 137.012 C 89.453 137.065,89.621 137.109,89.827 137.109 C 90.033 137.109,89.692 136.032,89.069 134.716 C 88.447 133.399,87.718 131.466,87.450 130.419 C 87.181 129.372,86.833 128.516,86.676 128.516 C 86.519 128.516,86.563 129.137,86.773 129.897 M195.898 130.238 C 195.039 131.152,193.907 132.189,193.383 132.542 C 192.859 132.896,192.535 133.291,192.664 133.419 C 192.793 133.548,194.101 132.503,195.570 131.098 C 197.040 129.692,198.066 128.549,197.852 128.559 C 197.637 128.568,196.758 129.324,195.898 130.238 M125.776 130.658 C 126.501 131.407,127.182 131.932,127.289 131.826 C 127.546 131.569,125.355 129.297,124.850 129.297 C 124.633 129.297,125.050 129.909,125.776 130.658 M166.568 131.464 C 167.839 132.636,168.980 133.494,169.104 133.370 C 169.228 133.246,169.050 132.988,168.709 132.798 C 168.368 132.607,167.380 131.741,166.512 130.874 C 165.645 130.006,164.783 129.305,164.597 129.314 C 164.410 129.324,165.297 130.291,166.568 131.464 M252.782 130.469 C 252.775 130.791,253.011 131.582,253.306 132.227 C 253.997 133.735,254.007 133.033,253.320 131.250 C 253.031 130.498,252.788 130.146,252.782 130.469 M128.075 132.534 C 128.919 133.587,134.503 136.218,136.994 136.737 C 140.703 137.510,150.922 136.339,149.847 135.264 C 149.740 135.156,148.807 135.361,147.775 135.719 C 141.980 137.730,134.199 136.490,128.711 132.680 C 127.837 132.073,127.675 132.036,128.075 132.534 M152.532 133.453 C 150.270 134.953,149.935 135.411,151.878 134.347 C 153.325 133.553,154.714 132.422,154.240 132.422 C 154.156 132.422,153.388 132.886,152.532 133.453 M191.236 133.944 C 189.898 136.109,179.056 137.324,174.682 135.800 C 173.540 135.402,172.512 135.170,172.397 135.285 C 171.231 136.451,181.799 137.474,185.648 136.568 C 188.905 135.802,193.487 133.594,191.820 133.594 C 191.618 133.594,191.355 133.751,191.236 133.944 M231.249 134.569 C 231.752 135.105,232.237 135.471,232.326 135.383 C 232.518 135.190,230.974 133.594,230.596 133.594 C 230.451 133.594,230.745 134.033,231.249 134.569 M254.688 134.570 C 255.192 135.107,255.670 135.547,255.750 135.547 C 256.075 135.547,254.465 133.617,254.131 133.606 C 253.933 133.599,254.183 134.033,254.688 134.570 M291.492 140.137 C 291.283 140.728,290.470 142.158,289.686 143.316 C 288.902 144.474,288.326 145.488,288.407 145.568 C 288.579 145.741,290.998 142.158,291.943 140.330 C 292.303 139.633,292.435 139.063,292.236 139.063 C 292.036 139.063,291.702 139.546,291.492 140.137 M91.406 139.714 C 91.406 139.935,91.749 140.510,92.167 140.992 C 92.585 141.474,93.001 142.073,93.090 142.321 C 93.179 142.570,93.351 142.684,93.471 142.575 C 93.592 142.466,93.176 141.688,92.548 140.846 C 91.920 140.003,91.406 139.494,91.406 139.714 M94.347 143.833 C 94.717 144.797,96.354 145.817,96.354 145.084 C 96.354 144.780,96.265 144.621,96.155 144.730 C 96.046 144.840,95.538 144.536,95.027 144.056 C 94.352 143.421,94.166 143.361,94.347 143.833 M96.875 146.285 C 96.875 146.673,98.267 148.119,99.023 148.516 C 99.488 148.760,99.260 148.353,98.459 147.510 C 97.126 146.108,96.875 145.914,96.875 146.285 M285.728 148.124 C 283.923 150.014,284.167 150.072,286.246 148.246 C 287.063 147.529,288.094 146.094,287.792 146.094 C 287.723 146.094,286.794 147.007,285.728 148.124 M102.869 151.402 C 103.688 151.958,104.439 152.331,104.539 152.232 C 104.725 152.046,102.122 150.391,101.645 150.391 C 101.500 150.391,102.051 150.846,102.869 151.402 M281.536 151.448 C 280.726 152.004,280.138 152.534,280.229 152.625 C 280.451 152.847,283.192 151.055,283.198 150.684 C 283.205 150.297,283.231 150.285,281.536 151.448 M276.758 154.126 C 269.374 157.715,269.907 157.692,192.383 157.695 C 116.829 157.697,116.595 157.687,109.189 154.330 C 107.787 153.694,106.641 153.326,106.641 153.512 C 106.641 154.787,116.442 157.360,123.031 157.815 C 129.305 158.248,250.053 158.269,260.156 157.839 C 269.392 157.446,278.130 155.330,279.469 153.162 C 279.802 152.623,279.977 152.561,276.758 154.126 " stroke="none" fill="#e0f9f0" fill-rule="evenodd"></path><path id="path7" d="M156.250 57.617 C 155.301 58.584,154.613 59.375,154.720 59.375 C 154.828 59.375,155.692 58.584,156.641 57.617 C 157.589 56.650,158.278 55.859,158.170 55.859 C 158.063 55.859,157.199 56.650,156.250 57.617 M121.197 64.733 C 121.791 64.823,122.669 64.821,123.150 64.728 C 123.630 64.635,123.145 64.562,122.070 64.565 C 120.996 64.568,120.603 64.644,121.197 64.733 M229.842 116.602 C 229.842 119.609,229.904 120.788,229.978 119.221 C 230.052 117.654,230.052 115.193,229.977 113.752 C 229.902 112.312,229.841 113.594,229.842 116.602 M241.185 120.703 C 241.185 125.967,241.240 128.120,241.307 125.488 C 241.375 122.856,241.375 118.550,241.307 115.918 C 241.240 113.286,241.185 115.439,241.185 120.703 M179.791 136.608 C 180.384 136.698,181.263 136.696,181.744 136.603 C 182.224 136.510,181.738 136.437,180.664 136.440 C 179.590 136.443,179.197 136.519,179.791 136.608 M94.643 162.008 C 95.886 162.086,97.820 162.085,98.940 162.006 C 100.060 161.928,99.043 161.864,96.680 161.865 C 94.316 161.866,93.400 161.930,94.643 162.008 M284.863 162.009 C 286.528 162.082,289.253 162.082,290.918 162.009 C 292.583 161.936,291.221 161.876,287.891 161.876 C 284.561 161.876,283.198 161.936,284.863 162.009 M61.512 187.500 C 61.512 200.498,61.561 205.815,61.621 199.316 C 61.681 192.817,61.681 182.183,61.621 175.684 C 61.561 169.185,61.512 174.502,61.512 187.500 M268.440 181.539 C 269.881 181.614,272.342 181.615,273.909 181.540 C 275.476 181.466,274.297 181.405,271.289 181.404 C 268.281 181.404,266.999 181.464,268.440 181.539 M299.700 187.891 C 299.700 188.643,299.780 188.950,299.879 188.574 C 299.977 188.198,299.977 187.583,299.879 187.207 C 299.780 186.831,299.700 187.139,299.700 187.891 M312.598 213.570 C 313.833 213.647,315.854 213.647,317.090 213.570 C 318.325 213.492,317.314 213.429,314.844 213.429 C 312.373 213.429,311.362 213.492,312.598 213.570 M61.512 253.711 C 61.512 266.816,61.561 272.121,61.621 265.499 C 61.681 258.877,61.681 248.155,61.621 241.671 C 61.561 235.188,61.512 240.605,61.512 253.711 M61.511 319.336 C 61.511 331.797,61.560 336.951,61.621 330.790 C 61.681 324.628,61.681 314.433,61.621 308.133 C 61.561 301.834,61.511 306.875,61.511 319.336 " stroke="none" fill="#748cf0" fill-rule="evenodd"></path><path id="path8" d="M82.916 295.202 C 83.509 295.292,84.388 295.290,84.869 295.197 C 85.349 295.104,84.863 295.031,83.789 295.034 C 82.715 295.037,82.322 295.112,82.916 295.202 M87.012 295.204 C 87.710 295.291,88.853 295.291,89.551 295.204 C 90.249 295.118,89.678 295.047,88.281 295.047 C 86.885 295.047,86.313 295.118,87.012 295.204 M91.704 295.198 C 92.190 295.292,92.893 295.288,93.266 295.190 C 93.640 295.092,93.242 295.016,92.383 295.020 C 91.523 295.025,91.218 295.105,91.704 295.198 M94.629 295.191 C 95.005 295.289,95.620 295.289,95.996 295.191 C 96.372 295.093,96.064 295.013,95.313 295.013 C 94.561 295.013,94.253 295.093,94.629 295.191 M98.535 295.202 C 99.126 295.291,100.093 295.291,100.684 295.202 C 101.274 295.112,100.791 295.039,99.609 295.039 C 98.428 295.039,97.944 295.112,98.535 295.202 M105.176 295.206 C 105.981 295.291,107.300 295.291,108.105 295.206 C 108.911 295.122,108.252 295.053,106.641 295.053 C 105.029 295.053,104.370 295.122,105.176 295.206 M110.449 295.198 C 110.933 295.291,111.724 295.291,112.207 295.198 C 112.690 295.104,112.295 295.028,111.328 295.028 C 110.361 295.028,109.966 295.104,110.449 295.198 M115.137 295.204 C 115.835 295.291,116.978 295.291,117.676 295.204 C 118.374 295.118,117.803 295.047,116.406 295.047 C 115.010 295.047,114.438 295.118,115.137 295.204 M122.954 295.198 C 123.440 295.292,124.143 295.288,124.516 295.190 C 124.890 295.092,124.492 295.016,123.633 295.020 C 122.773 295.025,122.468 295.105,122.954 295.198 M129.785 295.202 C 130.376 295.291,131.343 295.291,131.934 295.202 C 132.524 295.112,132.041 295.039,130.859 295.039 C 129.678 295.039,129.194 295.112,129.785 295.202 M137.402 295.212 C 139.175 295.285,142.075 295.285,143.848 295.212 C 145.620 295.140,144.170 295.081,140.625 295.081 C 137.080 295.081,135.630 295.140,137.402 295.212 M151.855 295.198 C 152.339 295.291,153.130 295.291,153.613 295.198 C 154.097 295.104,153.701 295.028,152.734 295.028 C 151.768 295.028,151.372 295.104,151.855 295.198 M160.059 295.198 C 160.542 295.291,161.333 295.291,161.816 295.198 C 162.300 295.104,161.904 295.028,160.938 295.028 C 159.971 295.028,159.575 295.104,160.059 295.198 M165.723 295.202 C 166.313 295.291,167.280 295.291,167.871 295.202 C 168.462 295.112,167.979 295.039,166.797 295.039 C 165.615 295.039,165.132 295.112,165.723 295.202 M173.145 295.191 C 173.521 295.289,174.136 295.289,174.512 295.191 C 174.888 295.093,174.580 295.013,173.828 295.013 C 173.076 295.013,172.769 295.093,173.145 295.191 M182.520 295.212 C 183.970 295.287,186.343 295.287,187.793 295.212 C 189.243 295.136,188.057 295.075,185.156 295.075 C 182.256 295.075,181.069 295.136,182.520 295.212 M197.363 295.191 C 197.739 295.289,198.354 295.289,198.730 295.191 C 199.106 295.093,198.799 295.013,198.047 295.013 C 197.295 295.013,196.987 295.093,197.363 295.191 M320.585 296.083 C 320.842 296.420,321.227 297.132,321.439 297.664 C 321.696 298.308,321.834 298.411,321.850 297.971 C 321.864 297.607,321.479 296.895,320.996 296.389 C 320.513 295.883,320.328 295.745,320.585 296.083 M78.698 319.336 C 78.698 331.152,78.748 336.043,78.808 330.203 C 78.869 324.364,78.869 314.696,78.808 308.719 C 78.748 302.742,78.698 307.520,78.698 319.336 M107.422 313.794 C 107.422 313.861,107.993 314.433,108.691 315.064 L 109.961 316.211 108.814 314.941 C 107.744 313.758,107.422 313.492,107.422 313.794 M78.919 342.806 C 78.935 343.282,79.700 344.202,80.664 344.907 C 81.094 345.221,80.918 344.870,80.273 344.128 C 79.629 343.385,79.058 342.703,79.004 342.613 C 78.950 342.522,78.912 342.609,78.919 342.806 M320.558 343.632 C 320.156 344.169,319.277 344.848,318.605 345.141 C 317.933 345.433,317.594 345.679,317.853 345.688 C 318.760 345.717,320.308 344.792,320.924 343.851 C 321.761 342.574,321.477 342.404,320.558 343.632 M295.219 345.589 C 295.705 345.682,296.408 345.679,296.782 345.581 C 297.155 345.483,296.758 345.407,295.898 345.411 C 295.039 345.415,294.733 345.495,295.219 345.589 M310.645 345.582 C 311.021 345.680,311.636 345.680,312.012 345.582 C 312.388 345.484,312.080 345.403,311.328 345.403 C 310.576 345.403,310.269 345.484,310.645 345.582 " stroke="none" fill="#efc6f2" fill-rule="evenodd"></path></g></svg>