<svg id="svg" version="1.1" xmlns="http://www.w3.org/2000/svg" xmlns:xlink="http://www.w3.org/1999/xlink" width="400" height="400" viewBox="0, 0, 400,400"><g id="svgg"><path id="path0" d="M195.220 83.424 C 191.847 85.254,192.642 89.914,196.517 91.025 C 203.062 92.902,208.615 89.736,206.511 85.325 C 205.371 82.934,198.314 81.745,195.220 83.424 M175.697 86.071 C 170.733 87.762,169.401 90.914,172.452 93.750 C 175.503 96.587,184.766 93.156,184.766 89.189 C 184.766 85.574,180.976 84.271,175.697 86.071 M218.164 86.310 C 213.882 88.081,214.767 92.429,219.935 95.013 C 224.744 97.418,228.516 96.176,228.516 92.188 C 228.516 89.043,221.368 84.985,218.164 86.310 M154.557 96.067 C 150.491 99.298,149.866 101.441,152.247 103.985 C 154.284 106.161,156.842 105.633,161.015 102.173 C 167.872 96.489,161.549 90.511,154.557 96.067 M236.298 97.626 C 232.425 101.499,240.167 110.364,244.953 107.537 C 247.859 105.820,247.795 102.879,244.782 99.694 C 241.407 96.125,238.506 95.418,236.298 97.626 M141.525 109.445 C 139.298 110.037,135.938 114.921,135.938 117.566 C 135.938 121.311,140.501 123.345,142.971 120.701 C 144.434 119.135,146.702 115.647,146.977 114.541 C 147.749 111.434,144.714 108.596,141.525 109.445 M129.883 129.378 C 126.851 131.117,125.608 137.795,127.891 140.078 C 131.358 143.545,136.328 139.329,136.328 132.921 C 136.328 130.373,132.151 128.077,129.883 129.378 M216.334 156.152 C 220.269 156.216,226.597 156.216,230.396 156.152 C 234.196 156.088,230.977 156.036,223.242 156.036 C 215.508 156.036,212.399 156.088,216.334 156.152 M144.702 161.426 L 143.555 162.695 144.824 161.548 C 146.008 160.479,146.273 160.156,145.972 160.156 C 145.904 160.156,145.333 160.728,144.702 161.426 M238.220 166.598 C 238.114 166.703,220.162 166.795,198.326 166.801 C 156.118 166.812,155.431 166.841,153.129 168.701 C 150.072 171.172,150.182 170.358,150.307 189.648 C 150.428 208.272,150.462 208.587,152.611 210.966 C 155.291 213.932,153.780 213.820,187.221 213.536 C 203.595 213.397,236.768 213.179,260.938 213.051 C 306.480 212.810,307.015 212.788,309.237 211.107 C 312.146 208.908,312.145 208.913,312.023 188.592 L 311.914 170.446 310.862 169.067 C 308.710 166.247,310.988 166.406,272.760 166.406 C 253.868 166.406,238.325 166.493,238.220 166.598 M139.578 175.781 C 139.578 177.178,139.649 177.749,139.736 177.051 C 139.822 176.353,139.822 175.210,139.736 174.512 C 139.649 173.813,139.578 174.385,139.578 175.781 M177.820 177.984 C 183.982 179.944,187.555 187.909,185.142 194.304 C 180.263 207.236,161.113 203.553,161.139 189.688 C 161.155 180.644,168.963 175.166,177.820 177.984 M297.045 185.371 C 298.299 186.192,298.974 187.967,298.663 189.625 C 297.988 193.220,292.417 193.740,290.812 190.357 C 289.094 186.736,293.611 183.121,297.045 185.371 M283.042 186.448 C 284.732 188.413,283.946 191.716,281.594 192.536 C 280.819 192.806,276.839 192.969,271.005 192.969 L 261.659 192.969 260.517 191.827 C 259.029 190.339,258.972 188.430,260.365 186.774 C 261.668 185.226,261.591 185.235,272.593 185.298 L 282.100 185.352 283.042 186.448 M171.271 187.287 C 168.753 189.805,171.800 194.038,174.956 192.406 C 177.806 190.932,176.656 186.328,173.438 186.328 C 172.676 186.328,171.876 186.683,171.271 187.287 M246.484 224.104 C 155.758 224.671,154.944 224.700,152.487 227.403 C 150.138 229.988,150.184 229.569,150.317 247.266 C 150.465 266.908,150.628 267.650,155.271 269.776 L 157.306 270.707 191.990 270.608 L 226.674 270.508 228.133 266.928 C 241.341 234.523,280.919 221.582,310.228 240.085 L 311.719 241.025 311.710 235.845 C 311.699 229.127,310.673 226.771,306.844 224.671 C 305.597 223.986,289.447 223.835,246.484 224.104 M179.139 235.927 C 188.201 240.388,188.194 253.357,179.126 258.134 C 176.371 259.585,170.636 259.662,168.049 258.283 C 153.258 250.395,164.107 228.527,179.139 235.927 M172.017 244.207 C 170.085 245.142,169.833 247.627,171.500 249.294 C 173.552 251.346,176.563 249.987,176.563 247.009 C 176.563 244.555,174.247 243.127,172.017 244.207 M171.680 281.630 C 148.425 281.929,149.898 280.295,150.078 305.583 C 150.206 323.633,150.143 323.137,152.602 325.463 C 154.637 327.389,153.550 327.344,197.682 327.344 C 234.932 327.344,240.807 327.224,239.158 326.497 C 238.512 326.213,234.751 321.524,233.100 318.945 C 226.904 309.269,224.438 300.692,224.423 288.770 L 224.414 281.251 206.055 281.337 C 195.957 281.385,180.488 281.517,171.680 281.630 M178.711 292.517 C 188.311 297.066,188.230 310.649,178.576 315.175 C 175.523 316.607,171.040 316.630,168.164 315.228 C 156.200 309.398,160.183 291.407,173.438 291.407 C 175.847 291.407,176.784 291.604,178.711 292.517 M171.225 301.787 C 169.343 303.669,170.800 307.031,173.499 307.031 C 175.042 307.031,176.563 305.480,176.563 303.906 C 176.563 301.137,173.207 299.804,171.225 301.787 M172.754 338.182 C 175.278 338.250,179.409 338.250,181.934 338.182 C 184.458 338.114,182.393 338.059,177.344 338.059 C 172.295 338.059,170.229 338.114,172.754 338.182 " stroke="none" fill="#53cbbb" fill-rule="evenodd"></path><path id="path1" d="M195.703 156.254 C 162.820 156.424,153.774 156.577,152.539 156.984 C 147.528 158.633,143.435 162.166,141.290 166.696 L 140.039 169.336 140.039 189.453 C 140.039 212.886,140.176 213.681,145.038 218.360 L 145.991 219.277 144.223 221.448 C 140.116 226.491,139.844 228.103,139.844 247.408 C 139.844 266.899,140.317 269.718,144.331 274.162 L 145.794 275.781 144.338 277.393 C 140.118 282.064,139.782 284.278,139.923 306.533 L 140.039 324.805 141.287 327.448 C 143.515 332.167,148.204 336.158,153.125 337.526 C 154.498 337.908,165.632 337.994,203.954 337.918 L 253.025 337.821 256.398 339.431 C 287.142 354.104,323.771 337.936,334.303 305.043 C 340.011 287.218,336.428 267.367,324.950 253.229 L 322.656 250.403 322.656 240.713 C 322.656 228.542,321.893 225.127,318.220 220.879 L 316.894 219.345 318.463 217.583 C 322.804 212.704,323.112 210.646,322.967 187.482 L 322.852 168.945 321.596 166.294 C 319.287 161.420,314.956 157.763,309.947 156.458 C 307.453 155.808,288.526 155.775,195.703 156.254 M308.459 167.047 C 309.202 167.400,310.283 168.309,310.862 169.067 L 311.914 170.446 312.023 188.592 C 312.145 208.913,312.146 208.908,309.237 211.107 C 307.015 212.788,306.480 212.810,260.938 213.051 C 236.768 213.179,203.595 213.397,187.221 213.536 C 146.636 213.880,150.481 216.368,150.307 189.648 C 150.182 170.358,150.072 171.172,153.129 168.701 C 155.431 166.841,156.118 166.812,198.326 166.801 C 220.162 166.795,238.114 166.703,238.220 166.598 C 238.828 165.990,307.152 166.427,308.459 167.047 M170.985 177.351 C 163.023 178.725,158.677 188.037,162.500 195.532 C 167.382 205.104,181.353 204.346,185.142 194.304 C 188.599 185.141,180.694 175.675,170.985 177.351 M291.856 185.753 C 290.352 187.018,289.988 188.621,290.812 190.357 C 292.417 193.740,297.988 193.220,298.663 189.625 C 299.400 185.694,294.940 183.157,291.856 185.753 M262.220 185.421 C 259.557 185.965,258.527 189.837,260.517 191.827 L 261.659 192.969 271.005 192.969 C 276.839 192.969,280.819 192.806,281.594 192.536 C 283.946 191.716,284.732 188.413,283.042 186.448 L 282.100 185.352 272.593 185.298 C 267.364 185.268,262.696 185.323,262.220 185.421 M175.604 187.287 C 177.859 189.542,175.861 193.494,172.849 192.738 C 169.295 191.846,169.802 186.328,173.438 186.328 C 174.199 186.328,174.999 186.683,175.604 187.287 M306.844 224.671 C 310.673 226.771,311.699 229.127,311.710 235.845 L 311.719 241.025 310.228 240.085 C 280.919 221.582,241.341 234.523,228.133 266.928 L 226.674 270.508 191.990 270.608 L 157.306 270.707 155.271 269.776 C 150.628 267.650,150.465 266.908,150.317 247.266 C 150.175 228.322,150.227 228.072,154.853 225.700 C 157.669 224.257,304.279 223.264,306.844 224.671 M170.508 234.715 C 162.796 236.733,158.756 245.356,162.219 252.406 C 167.815 263.803,185.026 260.452,185.852 247.804 C 186.397 239.461,178.410 232.648,170.508 234.715 M288.131 243.573 C 320.694 249.252,336.229 285.819,317.808 313.433 C 294.289 348.691,239.463 334.797,235.577 292.594 C 232.825 262.695,258.806 238.460,288.131 243.573 M175.604 244.709 C 177.483 246.588,176.536 249.739,173.941 250.240 C 172.497 250.519,170.313 248.757,170.313 247.314 C 170.313 244.305,173.587 242.692,175.604 244.709 M224.423 288.770 C 224.438 300.692,226.904 309.269,233.100 318.945 C 234.751 321.524,238.512 326.213,239.158 326.497 C 240.807 327.224,234.932 327.344,197.682 327.344 C 153.550 327.344,154.637 327.389,152.602 325.463 C 150.143 323.137,150.206 323.633,150.078 305.583 C 149.951 287.656,150.028 286.823,152.028 284.545 C 154.669 281.536,153.866 281.584,206.055 281.337 L 224.414 281.251 224.423 288.770 M168.164 292.517 C 158.641 297.030,158.641 310.587,168.164 315.228 C 171.040 316.630,175.523 316.607,178.576 315.175 C 190.688 309.497,186.776 291.407,173.438 291.407 C 171.028 291.407,170.091 291.604,168.164 292.517 M175.604 301.740 C 178.311 304.447,174.477 308.768,171.516 306.348 C 171.056 305.972,170.576 305.018,170.449 304.228 C 169.985 301.324,173.494 299.630,175.604 301.740 " stroke="none" fill="#0b395a" fill-rule="evenodd"></path><path id="path2" d="M0.000 200.000 L 0.000 400.000 200.000 400.000 L 400.000 400.000 400.000 200.000 L 400.000 0.000 200.000 0.000 L 0.000 0.000 0.000 200.000 M214.476 68.698 C 246.773 74.582,273.971 99.466,280.984 129.545 L 281.836 133.199 284.375 133.211 C 342.821 133.487,370.878 208.352,328.201 250.155 L 325.451 252.849 324.457 251.717 C 323.910 251.095,323.457 250.454,323.450 250.293 C 323.443 250.132,323.254 250.000,323.030 250.000 C 322.806 250.000,323.578 251.197,324.745 252.660 C 336.786 267.750,340.311 287.733,334.165 306.055 C 323.323 338.374,285.839 354.380,256.072 339.402 L 252.930 337.822 204.492 338.102 C 151.294 338.410,153.898 338.504,149.148 336.097 C 146.613 334.812,143.119 331.316,141.679 328.623 C 139.505 324.559,139.352 322.700,139.636 303.711 C 139.940 283.385,140.059 282.657,143.922 277.597 L 145.309 275.779 143.577 273.426 C 142.007 271.293,140.234 267.506,140.234 266.283 C 140.234 265.908,139.291 265.872,136.035 266.125 C 128.907 266.679,102.332 266.210,98.438 265.463 C 73.873 260.746,53.841 241.166,48.355 216.510 C 47.091 210.828,47.087 195.628,48.348 188.992 C 53.835 160.127,78.073 138.316,106.651 136.528 C 108.686 136.401,111.238 136.208,112.322 136.099 L 114.293 135.901 115.015 132.306 C 122.033 97.367,152.403 71.797,191.602 67.822 C 196.106 67.366,210.105 67.901,214.476 68.698 M288.208 155.371 C 291.713 155.435,297.338 155.435,300.708 155.370 C 304.078 155.305,301.211 155.252,294.336 155.252 C 287.461 155.253,284.703 155.306,288.208 155.371 M211.426 155.762 C 223.188 155.819,242.437 155.819,254.199 155.762 C 265.962 155.704,256.338 155.657,232.813 155.657 C 209.287 155.657,199.663 155.704,211.426 155.762 M309.277 156.028 C 315.810 157.536,320.955 162.522,322.854 169.185 C 323.374 171.010,323.428 171.082,323.260 169.727 C 322.490 163.510,315.088 156.323,308.780 155.666 C 306.910 155.472,306.928 155.486,309.277 156.028 M162.402 156.152 C 166.753 156.215,173.872 156.215,178.223 156.152 C 182.573 156.089,179.014 156.038,170.313 156.038 C 161.611 156.038,158.052 156.089,162.402 156.152 M150.621 157.071 C 146.813 158.615,141.016 163.935,141.016 165.885 C 141.016 166.059,141.618 165.307,142.353 164.214 C 144.769 160.628,148.550 157.920,152.734 156.781 C 153.862 156.474,154.142 156.301,153.516 156.298 C 152.979 156.295,151.676 156.643,150.621 157.071 M139.703 169.223 C 139.572 169.715,139.479 170.469,139.498 170.898 C 139.516 171.328,139.692 170.994,139.889 170.156 C 140.270 168.533,140.107 167.715,139.703 169.223 M139.242 189.063 C 139.242 198.623,139.293 202.534,139.355 197.754 C 139.417 192.974,139.417 185.151,139.355 180.371 C 139.293 175.591,139.242 179.502,139.242 189.063 M323.615 186.523 C 323.615 194.688,323.666 198.083,323.730 194.069 C 323.793 190.055,323.793 183.375,323.730 179.225 C 323.667 175.075,323.615 178.359,323.615 186.523 M323.159 207.227 C 323.162 208.301,323.237 208.694,323.327 208.100 C 323.417 207.506,323.415 206.627,323.322 206.147 C 323.229 205.667,323.156 206.152,323.159 207.227 M139.544 208.203 C 139.544 208.955,139.624 209.263,139.722 208.887 C 139.821 208.511,139.821 207.896,139.722 207.520 C 139.624 207.144,139.544 207.451,139.544 208.203 M139.864 210.054 C 139.799 211.600,142.403 216.458,144.412 218.542 C 145.142 219.298,145.126 219.346,143.320 221.732 C 141.295 224.407,139.911 227.670,139.631 230.426 C 139.480 231.916,139.549 231.789,140.032 229.688 C 140.769 226.480,142.536 222.901,144.351 220.945 L 145.757 219.429 144.620 218.211 C 142.803 216.263,141.715 214.494,140.768 211.947 C 140.282 210.640,139.875 209.788,139.864 210.054 M321.253 213.766 C 320.843 214.681,319.765 216.345,318.857 217.463 C 317.837 218.720,317.367 219.596,317.627 219.757 C 319.245 220.757,322.009 226.607,322.643 230.376 C 322.889 231.834,322.965 231.966,323.001 230.998 C 323.102 228.297,319.798 220.857,318.005 219.749 C 317.729 219.578,318.125 218.822,319.103 217.651 C 320.693 215.750,322.497 212.601,322.180 212.284 C 322.079 212.184,321.662 212.850,321.253 213.766 M139.216 237.500 C 139.216 240.400,139.277 241.587,139.352 240.137 C 139.427 238.687,139.427 236.313,139.352 234.863 C 139.277 233.413,139.216 234.600,139.216 237.500 M323.178 235.156 C 323.178 236.768,323.247 237.427,323.331 236.621 C 323.416 235.815,323.416 234.497,323.331 233.691 C 323.247 232.886,323.178 233.545,323.178 235.156 M323.138 247.656 C 323.138 248.408,323.218 248.716,323.316 248.340 C 323.414 247.964,323.414 247.349,323.316 246.973 C 323.218 246.597,323.138 246.904,323.138 247.656 M139.622 256.055 C 139.622 261.211,139.677 263.266,139.745 260.622 C 139.813 257.978,139.813 253.759,139.745 251.247 C 139.677 248.735,139.621 250.898,139.622 256.055 M274.360 256.224 C 242.486 261.317,238.940 307.815,269.567 319.063 C 288.045 325.848,310.613 312.964,312.729 294.421 C 313.556 287.171,305.451 286.388,303.764 293.555 C 302.807 297.624,301.096 300.756,298.048 304.020 C 296.556 305.617,295.462 307.064,295.617 307.236 C 295.772 307.407,295.692 307.429,295.440 307.285 C 295.188 307.140,293.870 307.714,292.510 308.561 C 273.854 320.177,251.423 300.746,259.093 279.615 C 263.215 268.259,276.488 262.070,287.109 266.551 C 288.506 267.140,289.912 267.733,290.234 267.869 C 290.755 268.088,290.755 268.035,290.234 267.393 C 289.682 266.712,289.697 266.702,290.512 267.209 C 291.106 267.579,291.231 267.835,290.913 268.032 C 290.589 268.232,290.653 268.395,291.127 268.577 C 291.722 268.805,291.663 268.994,290.628 270.174 C 286.557 274.810,291.979 277.898,304.232 277.921 C 309.030 277.930,309.053 277.925,309.993 276.834 C 313.018 273.322,307.148 259.766,302.602 259.766 C 301.174 259.766,299.219 261.024,299.219 261.942 C 299.219 262.797,298.608 262.620,296.583 261.179 C 290.819 257.076,281.722 255.048,274.360 256.224 M276.953 256.793 C 276.953 256.877,276.350 257.016,275.613 257.102 C 274.876 257.188,274.359 257.120,274.465 256.950 C 274.654 256.644,276.953 256.499,276.953 256.793 M284.863 256.891 C 285.669 257.025,286.328 257.305,286.328 257.515 C 286.328 257.724,286.021 257.771,285.645 257.618 C 285.269 257.465,284.082 257.205,283.008 257.039 C 281.707 256.839,281.446 256.723,282.227 256.694 C 282.871 256.669,284.058 256.758,284.863 256.891 M271.289 257.813 C 270.859 257.997,270.244 258.148,269.922 258.148 C 269.553 258.148,269.625 258.024,270.117 257.813 C 270.547 257.628,271.162 257.477,271.484 257.477 C 271.854 257.477,271.781 257.601,271.289 257.813 M294.141 260.328 C 294.141 260.411,293.613 260.280,292.969 260.037 C 292.324 259.793,291.797 259.453,291.797 259.279 C 291.797 259.106,292.324 259.237,292.969 259.570 C 293.613 259.904,294.141 260.244,294.141 260.328 M266.374 259.513 C 265.824 259.980,262.500 261.756,262.500 261.583 C 262.500 261.308,265.712 259.384,266.178 259.379 C 266.375 259.377,266.463 259.437,266.374 259.513 M303.475 260.514 C 303.851 260.751,303.584 260.859,302.622 260.859 C 300.957 260.859,300.449 261.128,299.997 262.247 C 299.766 262.819,299.651 262.888,299.634 262.463 C 299.578 261.061,302.222 259.720,303.475 260.514 M261.832 263.097 C 261.452 263.375,261.033 263.536,260.901 263.454 C 260.768 263.372,259.887 263.934,258.943 264.704 C 257.427 265.939,257.466 265.871,259.280 264.119 C 260.590 262.854,261.548 262.218,261.928 262.364 C 262.441 262.561,262.428 262.662,261.832 263.097 M279.971 263.672 C 279.928 264.240,279.642 264.446,278.921 264.427 L 277.930 264.400 278.809 263.976 C 279.292 263.743,279.688 263.404,279.688 263.222 C 279.688 263.040,279.764 262.891,279.859 262.891 C 279.953 262.891,280.003 263.242,279.971 263.672 M307.845 265.299 C 309.004 267.571,308.581 267.494,307.364 265.212 C 306.801 264.155,306.498 263.388,306.691 263.508 C 306.884 263.627,307.404 264.433,307.845 265.299 M272.852 265.603 C 271.777 265.988,270.733 266.206,270.530 266.089 C 270.327 265.972,270.942 265.667,271.897 265.411 C 274.521 264.708,275.054 264.815,272.852 265.603 M266.797 268.510 C 266.797 268.592,266.363 268.945,265.832 269.292 C 265.048 269.806,264.908 269.819,265.084 269.359 C 265.203 269.049,265.594 268.717,265.951 268.622 C 266.309 268.528,266.646 268.430,266.699 268.405 C 266.753 268.380,266.797 268.427,266.797 268.510 M310.117 273.014 C 310.175 274.994,309.903 274.333,309.649 271.875 C 309.506 270.488,309.542 270.073,309.753 270.703 C 309.932 271.240,310.096 272.280,310.117 273.014 M290.469 272.935 C 290.502 274.448,290.446 274.606,290.156 273.823 C 289.868 273.043,289.999 271.093,290.339 271.094 C 290.389 271.094,290.447 271.922,290.469 272.935 M261.863 273.103 C 261.512 273.492,261.063 273.710,260.866 273.589 C 260.380 273.288,261.160 272.396,261.909 272.396 C 262.424 272.396,262.418 272.490,261.863 273.103 M252.768 274.003 C 252.964 273.881,253.125 273.968,253.125 274.196 C 253.125 274.423,252.779 274.609,252.356 274.609 C 251.793 274.609,251.655 274.432,251.842 273.946 C 252.003 273.527,252.154 273.455,252.253 273.753 C 252.340 274.012,252.571 274.124,252.768 274.003 M251.006 276.792 C 250.698 277.633,250.433 278.127,250.418 277.890 C 250.380 277.293,251.228 274.926,251.414 275.112 C 251.497 275.195,251.314 275.951,251.006 276.792 M259.687 276.749 C 259.219 277.711,258.770 278.431,258.688 278.350 C 258.511 278.173,260.090 275.000,260.354 275.000 C 260.455 275.000,260.154 275.787,259.687 276.749 M295.313 276.172 L 296.289 276.485 295.313 276.485 C 294.775 276.485,293.896 276.344,293.359 276.172 L 292.383 275.859 293.359 275.859 C 293.896 275.859,294.775 276.000,295.313 276.172 M299.609 276.717 C 300.146 276.793,300.762 276.719,300.977 276.553 C 301.191 276.386,301.594 276.496,301.871 276.797 C 302.293 277.256,302.192 277.344,301.242 277.344 C 299.275 277.344,296.484 276.860,296.484 276.519 C 296.484 276.339,296.968 276.279,297.559 276.385 C 298.149 276.492,299.072 276.641,299.609 276.717 M309.050 277.044 C 308.508 277.586,302.516 278.013,302.842 277.486 C 302.957 277.300,304.056 277.178,305.285 277.215 C 306.515 277.252,307.894 277.131,308.350 276.947 C 309.505 276.480,309.600 276.494,309.050 277.044 M249.650 282.228 C 249.413 283.169,249.198 284.521,249.173 285.232 C 249.144 286.070,249.059 286.251,248.932 285.748 C 248.700 284.834,249.645 279.254,249.904 280.004 C 250.001 280.286,249.887 281.286,249.650 282.228 M257.065 282.987 C 257.261 282.866,257.422 283.216,257.422 283.766 C 257.422 284.316,257.290 284.765,257.129 284.765 C 256.968 284.764,256.860 286.214,256.890 287.987 L 256.943 291.211 256.665 287.891 C 256.480 285.678,256.527 284.478,256.804 284.294 C 257.091 284.103,257.069 283.866,256.735 283.532 C 256.468 283.265,256.264 282.862,256.281 282.637 C 256.298 282.411,256.401 282.447,256.510 282.717 C 256.618 282.987,256.868 283.109,257.065 282.987 M312.071 291.855 C 312.596 293.362,312.596 293.359,312.086 293.359 C 311.859 293.359,311.762 293.215,311.871 293.038 C 311.980 292.862,311.825 292.247,311.527 291.671 C 311.228 291.096,311.132 290.625,311.313 290.625 C 311.494 290.625,311.835 291.179,312.071 291.855 M249.754 295.117 C 249.908 296.147,249.873 296.413,249.652 295.898 C 249.468 295.469,249.214 294.150,249.087 292.969 C 248.834 290.611,249.311 292.147,249.754 295.117 M259.502 299.393 C 259.991 300.264,260.710 301.460,261.100 302.051 C 261.490 302.642,261.719 303.125,261.609 303.125 C 261.499 303.125,260.826 302.202,260.112 301.074 C 259.399 299.946,258.662 298.916,258.476 298.784 C 258.289 298.653,258.165 298.430,258.199 298.290 C 258.434 297.337,257.696 295.768,257.103 295.958 C 256.604 296.117,256.571 296.077,256.966 295.795 C 257.336 295.529,257.420 294.872,257.257 293.512 C 257.083 292.054,257.216 292.336,257.820 294.705 C 258.256 296.412,259.013 298.522,259.502 299.393 M311.928 295.959 C 311.558 297.934,311.247 297.324,311.576 295.268 C 311.726 294.327,311.926 293.785,312.019 294.065 C 312.112 294.344,312.071 295.197,311.928 295.959 M303.180 298.210 C 302.744 299.194,302.305 300.000,302.204 300.000 C 302.103 300.000,302.390 299.125,302.842 298.056 C 303.294 296.986,303.733 296.181,303.817 296.265 C 303.902 296.350,303.615 297.225,303.180 298.210 M250.748 298.633 L 250.726 299.414 250.391 298.633 C 249.889 297.465,249.889 296.489,250.391 297.266 C 250.599 297.588,250.760 298.203,250.748 298.633 M310.199 300.842 C 309.761 301.775,309.397 302.267,309.389 301.934 C 309.381 301.601,309.586 301.117,309.844 300.859 C 310.102 300.602,310.183 300.391,310.025 300.391 C 309.867 300.391,309.934 300.024,310.174 299.576 C 310.981 298.068,311.002 299.128,310.199 300.842 M251.767 300.376 C 251.639 300.583,251.983 301.637,252.532 302.720 C 253.080 303.802,253.441 304.688,253.333 304.688 C 252.942 304.688,251.151 300.741,251.376 300.376 C 251.504 300.169,251.696 300.000,251.804 300.000 C 251.911 300.000,251.895 300.169,251.767 300.376 M301.489 301.367 C 301.022 301.904,300.580 302.344,300.506 302.344 C 300.433 302.344,300.661 301.904,301.012 301.367 C 301.364 300.830,301.807 300.391,301.995 300.391 C 302.184 300.391,301.956 300.830,301.489 301.367 M307.885 304.838 C 308.117 304.695,308.097 304.936,307.838 305.422 C 307.271 306.480,307.236 306.467,307.178 305.176 C 307.152 304.585,307.211 304.322,307.309 304.592 C 307.408 304.862,307.667 304.973,307.885 304.838 M257.928 310.389 C 258.938 311.740,258.564 311.546,257.010 309.914 C 256.270 309.136,256.016 308.713,256.445 308.975 C 256.875 309.236,257.542 309.872,257.928 310.389 M292.969 309.312 C 292.969 309.493,292.521 309.844,291.974 310.094 C 290.468 310.780,290.288 310.634,291.602 309.792 C 293.011 308.889,292.969 308.904,292.969 309.312 M272.852 311.141 C 274.596 311.872,274.895 312.096,274.023 312.018 C 273.379 311.961,272.764 311.808,272.656 311.678 C 272.549 311.548,271.934 311.160,271.289 310.815 C 269.574 309.897,270.184 310.024,272.852 311.141 M286.914 312.109 C 286.484 312.294,285.869 312.445,285.547 312.445 C 285.178 312.445,285.250 312.321,285.742 312.109 C 286.172 311.925,286.787 311.774,287.109 311.774 C 287.479 311.774,287.406 311.898,286.914 312.109 M282.531 312.785 C 281.625 312.867,280.043 312.868,279.016 312.788 C 277.989 312.707,278.730 312.640,280.664 312.639 C 282.598 312.637,283.438 312.704,282.531 312.785 M292.383 318.325 C 290.775 319.036,288.327 319.746,288.673 319.401 C 288.937 319.137,293.066 317.648,293.555 317.640 C 293.770 317.636,293.242 317.944,292.383 318.325 M287.305 319.922 C 286.660 320.086,285.430 320.214,284.570 320.208 L 283.008 320.195 284.766 319.922 C 287.323 319.524,288.867 319.524,287.305 319.922 " stroke="none" fill="#fbfbfb" fill-rule="evenodd"></path><path id="path3" d="M272.266 243.585 C 236.845 250.011,222.969 294.548,248.391 320.212 C 272.694 344.748,314.296 333.834,323.953 300.388 C 333.187 268.411,305.166 237.616,272.266 243.585 M285.820 256.474 C 289.984 257.334,292.487 258.345,295.787 260.499 L 298.638 262.360 299.850 261.063 C 303.113 257.570,308.261 262.005,310.340 270.102 C 312.428 278.236,309.462 279.652,295.313 277.280 C 289.788 276.353,287.599 273.267,290.395 270.349 C 291.717 268.969,291.634 268.798,288.989 267.469 C 274.440 260.162,257.813 271.168,257.813 288.106 C 257.813 310.048,283.635 320.070,298.260 303.804 C 301.249 300.480,302.380 298.204,304.082 292.095 C 304.787 289.565,305.918 288.672,308.416 288.672 C 318.055 288.672,310.894 307.600,298.056 316.056 C 276.301 330.387,246.997 313.186,248.153 286.763 C 249.038 266.525,266.500 252.483,285.820 256.474 " stroke="none" fill="#fb7c6c" fill-rule="evenodd"></path><path id="path4" d="M191.602 67.822 C 152.403 71.797,122.033 97.367,115.015 132.306 L 114.293 135.901 112.322 136.099 C 111.238 136.208,108.686 136.401,106.651 136.528 C 78.073 138.316,53.835 160.127,48.348 188.992 C 47.087 195.628,47.091 210.828,48.355 216.510 C 53.841 241.166,73.873 260.746,98.438 265.463 C 105.270 266.775,139.710 266.622,140.156 265.278 C 140.270 264.934,140.165 264.841,139.869 265.023 C 139.510 265.245,139.431 261.239,139.526 247.538 C 139.593 237.763,139.755 229.830,139.885 229.910 C 140.015 229.989,140.034 229.594,139.926 229.032 C 139.801 228.375,139.878 228.100,140.141 228.263 C 140.402 228.424,140.472 228.208,140.332 227.674 C 140.168 227.046,140.242 226.912,140.624 227.148 C 140.965 227.358,141.042 227.312,140.855 227.010 C 140.489 226.417,140.966 224.923,141.430 225.210 C 141.627 225.332,141.672 225.130,141.531 224.761 C 141.357 224.309,141.421 224.182,141.726 224.370 C 142.001 224.540,142.107 224.451,141.995 224.141 C 141.893 223.862,142.174 223.193,142.619 222.656 C 143.063 222.119,143.297 221.927,143.138 222.228 C 142.945 222.593,143.001 222.682,143.305 222.494 C 143.557 222.339,143.684 222.084,143.587 221.927 C 143.323 221.500,144.041 220.508,144.615 220.508 C 145.113 220.508,145.341 219.516,144.929 219.141 C 143.857 218.166,142.624 216.250,142.833 215.885 C 142.977 215.635,142.950 215.560,142.773 215.720 C 142.329 216.122,141.296 214.557,141.639 214.001 C 141.824 213.702,141.744 213.658,141.400 213.871 C 141.021 214.105,140.952 214.011,141.140 213.520 C 141.282 213.152,141.242 212.946,141.053 213.063 C 140.615 213.333,140.121 211.438,140.478 210.859 C 140.651 210.579,140.565 210.538,140.233 210.743 C 139.851 210.979,139.777 210.845,139.941 210.217 C 140.062 209.754,140.046 209.375,139.905 209.375 C 139.764 209.375,139.659 203.003,139.671 195.215 L 139.693 181.055 139.468 193.750 L 139.242 206.445 139.191 189.063 C 139.161 178.862,139.280 172.083,139.478 172.656 C 139.707 173.316,139.743 172.952,139.591 171.532 C 139.443 170.153,139.503 169.516,139.764 169.677 C 140.004 169.826,140.081 169.614,139.957 169.141 C 139.845 168.711,139.943 168.359,140.177 168.359 C 140.410 168.359,140.508 168.118,140.395 167.824 C 140.282 167.529,140.455 167.023,140.779 166.698 C 141.104 166.374,141.276 166.016,141.163 165.903 C 140.961 165.700,142.913 162.500,143.239 162.500 C 143.331 162.500,143.280 162.703,143.127 162.951 C 142.953 163.233,143.020 163.296,143.305 163.119 C 143.557 162.964,143.674 162.693,143.566 162.518 C 143.252 162.010,146.832 158.914,147.373 159.225 C 147.636 159.377,147.721 159.356,147.561 159.180 C 147.159 158.736,148.725 157.702,149.280 158.046 C 149.559 158.218,149.624 158.152,149.451 157.873 C 149.193 157.454,149.734 157.268,151.070 157.316 C 151.336 157.326,151.441 157.150,151.302 156.926 C 151.143 156.668,151.361 156.599,151.893 156.738 C 152.432 156.879,152.643 156.809,152.479 156.543 C 152.306 156.264,152.693 156.204,153.659 156.361 C 154.650 156.522,155.014 156.462,154.831 156.166 C 154.640 155.857,161.969 155.788,181.287 155.920 C 195.983 156.020,203.965 155.997,199.023 155.869 C 194.082 155.741,209.507 155.642,233.301 155.650 C 257.095 155.658,276.563 155.532,276.563 155.371 C 276.563 155.210,276.749 155.078,276.976 155.078 C 277.204 155.078,277.281 155.254,277.148 155.469 C 277.016 155.684,277.191 155.859,277.539 155.859 C 277.887 155.859,278.086 155.721,277.981 155.552 C 277.877 155.384,278.130 155.246,278.544 155.246 C 278.958 155.246,279.297 155.384,279.297 155.552 C 279.297 155.721,283.823 155.821,289.355 155.773 L 299.414 155.687 290.625 155.469 L 281.836 155.251 294.336 155.203 C 301.663 155.176,306.432 155.294,305.859 155.489 C 305.226 155.705,305.693 155.742,307.184 155.593 C 308.657 155.447,309.399 155.504,309.247 155.751 C 309.102 155.984,309.413 156.060,310.031 155.942 C 310.800 155.794,310.976 155.872,310.740 156.254 C 310.532 156.590,310.580 156.666,310.881 156.480 C 311.474 156.114,312.968 156.591,312.681 157.055 C 312.559 157.252,312.760 157.297,313.130 157.156 C 313.581 156.982,313.709 157.046,313.520 157.351 C 313.332 157.656,313.459 157.720,313.911 157.546 C 314.402 157.358,314.496 157.428,314.262 157.806 C 314.052 158.146,314.093 158.230,314.382 158.052 C 314.979 157.683,316.854 158.957,316.536 159.515 C 316.396 159.760,316.429 159.827,316.610 159.662 C 316.985 159.321,319.205 161.298,318.936 161.734 C 318.838 161.892,319.064 162.260,319.438 162.553 C 320.029 163.017,320.066 163.007,319.727 162.482 C 319.512 162.149,319.732 162.325,320.215 162.872 C 320.699 163.419,321.009 164.096,320.903 164.376 C 320.798 164.655,320.860 164.793,321.041 164.681 C 321.484 164.407,322.344 166.354,322.015 166.887 C 321.849 167.155,321.940 167.193,322.267 166.991 C 322.649 166.755,322.723 166.890,322.559 167.518 C 322.418 168.058,322.488 168.268,322.754 168.104 C 323.021 167.939,323.091 168.149,322.950 168.689 C 322.828 169.153,322.845 169.461,322.986 169.374 C 323.127 169.287,323.242 178.147,323.242 189.063 C 323.242 199.979,323.103 208.824,322.934 208.719 C 322.764 208.614,322.739 208.982,322.878 209.538 C 323.033 210.155,322.968 210.547,322.711 210.547 C 322.479 210.547,322.391 210.811,322.515 211.133 C 322.639 211.455,322.551 211.719,322.320 211.719 C 322.088 211.719,322.012 212.011,322.149 212.369 C 322.330 212.841,322.257 212.931,321.881 212.699 C 321.523 212.478,321.456 212.529,321.665 212.868 C 322.018 213.438,321.131 215.303,320.649 215.005 C 320.469 214.894,320.408 215.032,320.514 215.312 C 320.620 215.591,320.046 216.534,319.240 217.406 C 318.433 218.278,318.125 218.541,318.555 217.992 L 319.336 216.992 318.267 217.935 C 317.523 218.590,317.314 219.017,317.580 219.338 C 317.790 219.591,317.871 219.889,317.761 220.000 C 317.650 220.111,317.871 220.446,318.252 220.745 C 318.882 221.240,318.897 221.227,318.409 220.605 C 318.114 220.229,317.974 219.922,318.097 219.922 C 318.601 219.922,320.725 223.477,320.468 223.892 C 320.285 224.188,320.366 224.232,320.709 224.020 C 321.088 223.786,321.158 223.879,320.969 224.370 C 320.828 224.740,320.873 224.941,321.070 224.819 C 321.534 224.532,322.011 226.026,321.645 226.619 C 321.458 226.922,321.535 226.968,321.876 226.757 C 322.258 226.521,322.332 226.655,322.168 227.283 C 322.027 227.823,322.097 228.034,322.363 227.869 C 322.643 227.697,322.695 228.047,322.522 228.943 C 322.382 229.675,322.398 230.070,322.560 229.822 C 322.721 229.573,322.789 233.946,322.711 239.538 C 322.607 247.047,322.690 249.779,323.030 249.989 C 323.283 250.146,323.538 250.607,323.598 251.016 C 323.658 251.424,323.917 251.758,324.173 251.758 C 324.428 251.758,324.802 252.021,325.002 252.344 C 325.782 253.601,334.993 243.260,338.996 236.634 C 355.558 209.214,350.523 172.071,327.278 150.205 C 315.691 139.304,300.501 133.287,284.375 133.211 L 281.836 133.199 280.984 129.545 C 272.093 91.409,232.004 63.726,191.602 67.822 M204.501 83.377 C 206.335 84.143,207.308 86.162,206.808 88.166 C 205.602 93.007,194.058 92.597,193.135 87.680 C 192.393 83.724,199.181 81.154,204.501 83.377 M183.438 86.484 C 187.007 90.054,182.616 94.611,175.521 94.701 C 172.359 94.741,170.359 92.488,171.118 89.740 C 172.178 85.903,180.624 83.670,183.438 86.484 M224.177 87.526 C 229.144 90.012,230.073 93.881,226.185 95.892 C 222.753 97.667,215.547 93.715,215.547 90.058 C 215.547 86.073,219.158 85.014,224.177 87.526 M161.981 94.416 C 164.822 96.277,164.442 99.333,161.015 102.173 C 156.099 106.248,152.248 106.199,150.992 102.045 C 149.759 97.963,158.322 92.018,161.981 94.416 M241.724 97.033 C 246.780 99.647,248.552 105.411,244.953 107.537 C 240.167 110.364,232.425 101.499,236.298 97.626 C 237.600 96.324,239.873 96.075,241.724 97.033 M145.755 110.398 C 148.055 112.480,146.998 116.389,142.971 120.701 C 139.348 124.579,133.974 119.191,136.784 114.499 C 139.880 109.331,143.000 107.905,145.755 110.398 M134.812 130.423 C 136.581 132.193,136.656 132.842,135.511 136.548 C 133.990 141.472,130.774 142.961,127.891 140.078 C 126.285 138.472,126.158 136.878,127.359 133.377 C 129.012 128.554,131.827 127.438,134.812 130.423 M323.730 194.069 C 323.666 198.083,323.615 194.688,323.615 186.523 C 323.615 178.359,323.667 175.075,323.730 179.225 C 323.793 183.375,323.793 190.055,323.730 194.069 M139.352 240.137 C 139.277 241.587,139.216 240.400,139.216 237.500 C 139.216 234.600,139.277 233.413,139.352 234.863 C 139.427 236.313,139.427 238.687,139.352 240.137 M323.331 236.621 C 323.247 237.427,323.178 236.768,323.178 235.156 C 323.178 233.545,323.247 232.886,323.331 233.691 C 323.416 234.497,323.416 235.815,323.331 236.621 M323.316 248.340 C 323.218 248.716,323.138 248.408,323.138 247.656 C 323.138 246.904,323.218 246.597,323.316 246.973 C 323.414 247.349,323.414 247.964,323.316 248.340 M274.465 256.950 C 274.359 257.120,274.876 257.188,275.613 257.102 C 276.350 257.016,276.953 256.877,276.953 256.793 C 276.953 256.499,274.654 256.644,274.465 256.950 M283.008 257.039 C 284.082 257.205,285.269 257.465,285.645 257.618 C 286.021 257.771,286.328 257.724,286.328 257.515 C 286.328 257.088,284.019 256.626,282.227 256.694 C 281.446 256.723,281.707 256.839,283.008 257.039 M270.117 257.813 C 269.625 258.024,269.553 258.148,269.922 258.148 C 270.244 258.148,270.859 257.997,271.289 257.813 C 271.781 257.601,271.854 257.477,271.484 257.477 C 271.162 257.477,270.547 257.628,270.117 257.813 M291.797 259.279 C 291.797 259.453,292.324 259.793,292.969 260.037 C 293.613 260.280,294.141 260.411,294.141 260.328 C 294.141 260.244,293.613 259.904,292.969 259.570 C 292.324 259.237,291.797 259.106,291.797 259.279 M264.160 260.377 C 263.247 260.925,262.500 261.467,262.500 261.583 C 262.500 261.756,265.824 259.980,266.374 259.513 C 266.996 258.985,265.524 259.560,264.160 260.377 M301.563 260.433 C 300.568 260.799,299.608 261.809,299.634 262.463 C 299.651 262.888,299.766 262.819,299.997 262.247 C 300.449 261.128,300.957 260.859,302.622 260.859 C 303.584 260.859,303.851 260.751,303.475 260.514 C 302.870 260.131,302.435 260.112,301.563 260.433 M259.884 262.624 C 259.750 262.841,259.843 262.889,260.096 262.733 C 261.012 262.166,260.501 262.907,258.887 264.485 L 257.227 266.107 258.943 264.706 C 259.887 263.935,260.768 263.372,260.901 263.454 C 261.033 263.536,261.481 263.355,261.895 263.051 C 262.310 262.748,262.484 262.485,262.282 262.467 C 262.079 262.450,261.511 262.390,261.019 262.336 C 260.526 262.282,260.016 262.412,259.884 262.624 M279.688 263.222 C 279.688 263.404,279.292 263.743,278.809 263.976 L 277.930 264.400 278.921 264.427 C 279.642 264.446,279.928 264.240,279.971 263.672 C 280.003 263.242,279.953 262.891,279.859 262.891 C 279.764 262.891,279.688 263.040,279.688 263.222 M307.350 265.184 C 307.921 266.256,308.448 267.073,308.520 267.001 C 308.592 266.929,308.368 266.321,308.021 265.650 C 307.674 264.979,307.513 264.216,307.664 263.953 C 307.814 263.691,307.794 263.607,307.618 263.766 C 307.442 263.925,307.076 263.871,306.805 263.646 C 306.533 263.420,306.778 264.113,307.350 265.184 M271.897 265.411 C 270.942 265.667,270.327 265.972,270.530 266.089 C 270.733 266.206,271.777 265.988,272.852 265.603 C 275.054 264.815,274.521 264.708,271.897 265.411 M265.951 268.622 C 265.594 268.717,265.203 269.049,265.084 269.359 C 264.908 269.819,265.048 269.806,265.832 269.292 C 266.590 268.796,267.198 268.173,266.699 268.405 C 266.646 268.430,266.309 268.528,265.951 268.622 M309.649 271.875 C 309.771 273.057,309.936 274.097,310.014 274.186 C 310.288 274.499,310.075 271.671,309.753 270.703 C 309.542 270.073,309.506 270.488,309.649 271.875 M290.026 271.982 C 289.904 272.470,289.962 273.299,290.156 273.823 C 290.446 274.606,290.502 274.448,290.469 272.935 C 290.425 270.867,290.348 270.701,290.026 271.982 M260.912 272.882 C 260.255 273.674,261.157 273.884,261.863 273.103 C 262.418 272.490,262.424 272.396,261.909 272.396 C 261.583 272.396,261.134 272.615,260.912 272.882 M251.842 273.946 C 251.655 274.432,251.793 274.609,252.356 274.609 C 252.779 274.609,253.125 274.423,253.125 274.196 C 253.125 273.968,252.964 273.881,252.768 274.003 C 252.571 274.124,252.340 274.012,252.253 273.753 C 252.154 273.455,252.003 273.527,251.842 273.946 M250.826 276.210 C 250.587 276.898,250.403 277.654,250.418 277.890 C 250.433 278.127,250.698 277.633,251.006 276.792 C 251.314 275.951,251.497 275.195,251.414 275.112 C 251.330 275.028,251.066 275.523,250.826 276.210 M259.356 276.600 C 258.907 277.481,258.606 278.268,258.688 278.350 C 258.770 278.431,259.219 277.711,259.687 276.749 C 260.751 274.558,260.464 274.429,259.356 276.600 M293.359 276.172 C 293.896 276.344,294.775 276.485,295.313 276.485 L 296.289 276.485 295.313 276.172 C 294.775 276.000,293.896 275.859,293.359 275.859 L 292.383 275.859 293.359 276.172 M296.484 276.519 C 296.484 276.860,299.275 277.344,301.242 277.344 C 302.192 277.344,302.293 277.256,301.871 276.797 C 301.594 276.496,301.191 276.386,300.977 276.553 C 300.602 276.842,299.904 276.808,297.559 276.385 C 296.968 276.279,296.484 276.339,296.484 276.519 M308.350 276.947 C 307.894 277.131,306.515 277.252,305.285 277.215 C 304.056 277.178,302.957 277.300,302.842 277.486 C 302.516 278.013,308.508 277.586,309.050 277.044 C 309.600 276.494,309.505 276.480,308.350 276.947 M304.985 278.401 C 305.471 278.495,306.174 278.491,306.548 278.393 C 306.921 278.296,306.523 278.219,305.664 278.224 C 304.805 278.228,304.499 278.308,304.985 278.401 M249.231 282.233 C 248.959 283.740,248.824 285.322,248.932 285.748 C 249.059 286.251,249.144 286.070,249.173 285.232 C 249.198 284.521,249.413 283.169,249.650 282.228 C 249.887 281.286,250.001 280.286,249.904 280.004 C 249.807 279.723,249.504 280.725,249.231 282.233 M256.281 282.637 C 256.264 282.862,256.468 283.265,256.735 283.532 C 257.069 283.866,257.091 284.103,256.804 284.294 C 256.527 284.478,256.480 285.678,256.665 287.891 L 256.943 291.211 256.890 287.987 C 256.860 286.214,256.968 284.764,257.129 284.765 C 257.290 284.765,257.422 284.316,257.422 283.766 C 257.422 283.216,257.261 282.866,257.065 282.987 C 256.868 283.109,256.618 282.987,256.510 282.717 C 256.401 282.447,256.298 282.411,256.281 282.637 M257.520 288.477 C 257.525 289.336,257.605 289.642,257.698 289.156 C 257.792 288.670,257.788 287.967,257.690 287.593 C 257.592 287.220,257.516 287.617,257.520 288.477 M311.527 291.671 C 311.825 292.247,311.980 292.862,311.871 293.038 C 311.762 293.215,311.859 293.359,312.086 293.359 C 312.596 293.359,312.596 293.362,312.071 291.855 C 311.835 291.179,311.494 290.625,311.313 290.625 C 311.132 290.625,311.228 291.096,311.527 291.671 M249.087 292.969 C 249.214 294.150,249.468 295.469,249.652 295.898 C 250.030 296.778,249.739 294.451,249.189 292.188 C 248.938 291.153,248.913 291.344,249.087 292.969 M257.257 293.512 C 257.420 294.872,257.336 295.529,256.966 295.795 C 256.571 296.077,256.604 296.117,257.103 295.958 C 257.696 295.768,258.434 297.337,258.199 298.290 C 258.165 298.430,258.289 298.653,258.476 298.784 C 258.662 298.916,259.399 299.946,260.112 301.074 C 260.826 302.202,261.499 303.125,261.609 303.125 C 261.719 303.125,261.490 302.642,261.100 302.051 C 259.383 299.448,258.560 297.605,257.820 294.705 C 257.216 292.336,257.083 292.054,257.257 293.512 M311.576 295.268 C 311.425 296.209,311.385 297.062,311.485 297.162 C 311.748 297.425,312.222 294.673,312.019 294.065 C 311.926 293.785,311.726 294.327,311.576 295.268 M302.842 298.056 C 302.390 299.125,302.103 300.000,302.204 300.000 C 302.468 300.000,304.002 296.450,303.817 296.265 C 303.733 296.181,303.294 296.986,302.842 298.056 M250.033 297.266 C 250.045 297.588,250.206 298.203,250.391 298.633 L 250.726 299.414 250.748 298.633 C 250.760 298.203,250.599 297.588,250.391 297.266 C 250.054 296.745,250.014 296.745,250.033 297.266 M310.174 299.576 C 309.934 300.024,309.867 300.391,310.025 300.391 C 310.183 300.391,310.102 300.602,309.844 300.859 C 309.586 301.117,309.381 301.601,309.389 301.934 C 309.397 302.267,309.761 301.775,310.199 300.842 C 311.002 299.128,310.981 298.068,310.174 299.576 M251.376 300.376 C 251.151 300.741,252.942 304.688,253.333 304.688 C 253.441 304.688,253.080 303.802,252.532 302.720 C 251.983 301.637,251.639 300.583,251.767 300.376 C 251.895 300.169,251.911 300.000,251.804 300.000 C 251.696 300.000,251.504 300.169,251.376 300.376 M301.012 301.367 C 300.661 301.904,300.433 302.344,300.506 302.344 C 300.580 302.344,301.022 301.904,301.489 301.367 C 301.956 300.830,302.184 300.391,301.995 300.391 C 301.807 300.391,301.364 300.830,301.012 301.367 M139.622 312.695 C 139.622 317.852,139.677 319.907,139.745 317.263 C 139.813 314.619,139.813 310.400,139.745 307.888 C 139.677 305.376,139.621 307.539,139.622 312.695 M264.063 304.883 C 264.791 305.635,265.476 306.250,265.583 306.250 C 265.690 306.250,265.182 305.635,264.453 304.883 C 263.724 304.131,263.040 303.516,262.933 303.516 C 262.825 303.516,263.334 304.131,264.063 304.883 M307.178 305.176 C 307.236 306.467,307.271 306.480,307.838 305.422 C 308.097 304.936,308.117 304.695,307.885 304.838 C 307.667 304.973,307.408 304.862,307.309 304.592 C 307.211 304.322,307.152 304.585,307.178 305.176 M257.010 309.914 C 257.751 310.692,258.418 311.328,258.493 311.328 C 258.825 311.328,257.151 309.404,256.445 308.975 C 256.016 308.713,256.270 309.136,257.010 309.914 M291.602 309.792 C 290.288 310.634,290.468 310.780,291.974 310.094 C 292.521 309.844,292.969 309.493,292.969 309.312 C 292.969 308.904,293.011 308.889,291.602 309.792 M271.289 310.815 C 271.934 311.160,272.549 311.548,272.656 311.678 C 272.764 311.808,273.379 311.961,274.023 312.018 C 274.895 312.096,274.596 311.872,272.852 311.141 C 270.184 310.024,269.574 309.897,271.289 310.815 M285.742 312.109 C 285.250 312.321,285.178 312.445,285.547 312.445 C 285.869 312.445,286.484 312.294,286.914 312.109 C 287.406 311.898,287.479 311.774,287.109 311.774 C 286.787 311.774,286.172 311.925,285.742 312.109 M259.642 312.602 C 259.811 312.868,259.952 313.203,259.955 313.346 C 259.970 313.994,260.389 313.950,260.438 313.296 C 260.469 312.893,260.233 312.463,259.914 312.341 C 259.521 312.190,259.433 312.274,259.642 312.602 M279.016 312.788 C 280.043 312.868,281.625 312.867,282.531 312.785 C 283.438 312.704,282.598 312.637,280.664 312.639 C 278.730 312.640,277.989 312.707,279.016 312.788 M291.016 318.426 C 289.834 318.855,288.780 319.294,288.673 319.401 C 288.327 319.746,290.775 319.036,292.383 318.325 C 294.476 317.399,293.683 317.458,291.016 318.426 M284.766 319.922 L 283.008 320.195 284.570 320.208 C 285.430 320.214,286.660 320.086,287.305 319.922 C 288.867 319.524,287.323 319.524,284.766 319.922 M191.309 338.183 C 194.155 338.249,198.813 338.249,201.660 338.183 C 204.507 338.116,202.178 338.061,196.484 338.061 C 190.791 338.061,188.462 338.116,191.309 338.183 " stroke="none" fill="#d3f3d3" fill-rule="evenodd"></path></g></svg>