<svg id="svg" version="1.1" xmlns="http://www.w3.org/2000/svg" xmlns:xlink="http://www.w3.org/1999/xlink" width="400" height="400" viewBox="0, 0, 400,400"><g id="svgg"><path id="path0" d="M222.852 140.263 C 222.207 140.455,220.273 141.730,218.555 143.096 C 199.434 158.291,176.434 166.881,145.030 170.555 C 142.620 170.837,139.893 172.827,138.688 175.185 L 137.695 177.127 137.701 204.482 C 137.707 233.703,137.868 236.838,139.885 247.041 C 147.218 284.152,171.309 315.297,213.086 341.677 C 224.092 348.627,225.060 348.761,232.429 344.348 C 279.876 315.936,305.529 281.166,311.570 237.081 C 312.503 230.274,312.838 178.177,311.961 176.121 C 310.271 172.157,308.011 170.885,301.261 170.101 C 274.467 166.990,247.615 156.505,231.246 142.763 C 228.121 140.140,225.694 139.417,222.852 140.263 M227.671 154.443 C 241.775 165.296,263.896 174.863,284.627 179.076 C 288.431 179.849,299.896 181.641,301.037 181.641 C 301.600 181.641,300.824 230.838,300.184 235.742 C 295.090 274.789,274.560 303.292,231.066 331.704 L 225.218 335.524 223.204 334.388 C 195.802 318.922,171.613 294.942,160.345 272.070 C 150.378 251.836,148.884 242.375,148.845 199.199 L 148.828 181.015 154.590 180.540 C 175.377 178.828,202.097 168.747,220.898 155.525 C 225.559 152.247,224.944 152.345,227.671 154.443 M218.693 183.032 C 209.528 184.691,201.621 190.856,197.278 199.729 C 194.803 204.784,194.445 206.621,194.241 215.281 L 194.061 222.945 190.392 223.137 C 184.092 223.466,179.065 226.888,176.893 232.326 C 175.199 236.564,175.608 268.050,177.447 275.020 C 187.889 314.601,242.783 323.297,265.905 289.031 C 273.296 278.078,274.320 273.149,274.139 249.405 L 274.023 234.161 272.754 231.583 C 270.137 226.270,261.695 221.836,256.671 223.137 C 256.402 223.206,256.211 220.838,256.112 216.211 C 255.620 193.287,239.756 179.221,218.693 183.032 M229.651 194.742 C 240.173 197.222,246.342 208.435,244.381 221.517 L 244.122 223.242 224.991 223.137 L 205.859 223.032 205.859 216.872 C 205.859 210.179,206.287 207.693,208.029 204.255 C 211.797 196.820,221.101 192.727,229.651 194.742 M261.808 235.938 C 262.843 237.198,262.585 265.268,261.489 270.659 C 258.950 283.150,248.893 293.752,236.055 297.473 C 214.559 303.702,191.764 290.390,188.285 269.577 C 187.376 264.139,187.521 236.007,188.462 235.316 C 189.118 234.834,194.372 234.769,225.117 234.857 L 261.007 234.961 261.808 235.938 M234.338 253.571 C 229.935 258.160,225.214 263.101,223.847 264.551 C 220.772 267.812,221.660 268.055,215.625 262.305 C 212.800 259.613,210.171 257.422,209.768 257.422 C 206.524 257.422,203.543 260.984,203.524 264.882 L 203.516 266.677 210.997 273.671 L 218.479 280.664 221.056 280.768 L 223.633 280.872 236.868 267.358 L 250.103 253.844 249.888 251.472 C 249.558 247.840,247.598 245.733,244.247 245.411 L 242.343 245.228 234.338 253.571 " stroke="none" fill="#0c3a54" fill-rule="evenodd"></path><path id="path1" d="M220.898 155.525 C 202.097 168.747,175.377 178.828,154.590 180.540 L 148.828 181.015 148.845 199.199 C 148.884 242.375,150.378 251.836,160.345 272.070 C 171.613 294.942,195.802 318.922,223.204 334.388 L 225.218 335.524 231.066 331.704 C 274.560 303.292,295.090 274.789,300.184 235.742 C 300.824 230.838,301.600 181.641,301.037 181.641 C 299.896 181.641,288.431 179.849,284.627 179.076 C 263.896 174.863,241.775 165.296,227.671 154.443 C 224.944 152.345,225.559 152.247,220.898 155.525 M230.443 182.836 C 245.971 185.355,255.722 198.033,256.112 216.211 C 256.211 220.838,256.402 223.206,256.671 223.137 C 261.695 221.836,270.137 226.270,272.754 231.583 L 274.023 234.161 274.139 249.405 C 274.320 273.149,273.296 278.078,265.905 289.031 C 242.783 323.297,187.889 314.601,177.447 275.020 C 175.608 268.050,175.199 236.564,176.893 232.326 C 179.065 226.888,184.092 223.466,190.392 223.137 L 194.061 222.945 194.241 215.281 C 194.445 206.621,194.803 204.784,197.278 199.729 C 203.421 187.179,216.416 180.560,230.443 182.836 M221.875 194.402 C 211.313 196.081,205.859 203.733,205.859 216.872 L 205.859 223.032 224.991 223.137 L 244.122 223.242 244.381 221.517 C 246.862 204.966,236.203 192.124,221.875 194.402 M188.359 235.625 C 187.832 236.152,187.670 265.845,188.190 266.662 C 188.347 266.911,188.477 260.055,188.477 251.428 L 188.477 235.742 189.844 235.501 C 191.201 235.261,191.202 235.259,190.020 235.208 C 189.364 235.179,188.617 235.367,188.359 235.625 M198.561 235.449 C 202.603 235.512,209.107 235.512,213.014 235.449 C 216.921 235.385,213.613 235.333,205.664 235.333 C 197.715 235.333,194.518 235.385,198.561 235.449 M241.566 235.449 C 261.485 235.559,261.673 235.576,261.764 237.255 C 261.802 237.957,261.838 237.975,261.994 237.373 C 262.568 235.150,262.549 235.148,241.639 235.250 L 222.461 235.344 241.566 235.449 M261.892 254.492 C 261.892 261.152,261.946 263.932,262.011 260.669 C 262.076 257.406,262.076 251.957,262.011 248.560 C 261.946 245.162,261.893 247.832,261.892 254.492 M242.383 245.116 C 243.377 245.452,246.545 245.591,246.049 245.276 C 245.751 245.088,244.717 244.945,243.750 244.959 C 242.783 244.972,242.168 245.043,242.383 245.116 M235.624 251.465 C 232.397 254.849,229.840 257.700,229.939 257.801 C 230.039 257.902,230.254 257.770,230.416 257.507 C 230.579 257.243,232.364 255.315,234.383 253.221 C 240.939 246.422,241.969 245.313,241.727 245.313 C 241.596 245.313,238.850 248.081,235.624 251.465 M249.871 250.195 C 250.167 252.126,250.393 252.455,250.385 250.944 C 250.381 250.317,250.211 249.541,250.005 249.219 C 249.751 248.820,249.708 249.131,249.871 250.195 M246.484 257.617 C 244.452 259.658,242.912 261.328,243.062 261.328 C 243.306 261.328,247.866 256.842,249.768 254.732 C 251.599 252.700,249.859 254.228,246.484 257.617 M207.813 257.440 C 207.385 257.729,207.543 257.766,208.398 257.574 C 209.835 257.253,210.147 257.029,209.147 257.037 C 208.735 257.041,208.135 257.222,207.813 257.440 M212.786 259.440 C 214.233 260.801,216.619 263.057,218.088 264.453 C 221.375 267.577,220.531 267.787,225.544 262.598 C 227.879 260.181,229.616 258.203,229.405 258.203 C 229.193 258.203,228.599 258.711,228.084 259.332 C 227.569 259.953,225.784 261.885,224.116 263.626 L 221.083 266.790 215.978 262.008 C 213.170 259.378,210.712 257.168,210.515 257.096 C 210.317 257.025,211.340 258.079,212.786 259.440 M205.993 258.505 C 204.255 259.898,203.122 262.116,203.178 264.019 C 203.207 265.010,203.299 265.381,203.381 264.844 C 203.464 264.307,203.626 263.280,203.743 262.563 C 203.869 261.784,204.595 260.563,205.543 259.535 C 207.232 257.703,207.360 257.410,205.993 258.505 M241.823 262.442 C 241.515 262.796,237.212 267.217,232.261 272.266 L 223.260 281.445 233.000 271.793 C 238.357 266.484,242.660 262.064,242.561 261.969 C 242.463 261.875,242.131 262.087,241.823 262.442 M204.973 268.593 C 209.205 272.632,210.024 273.289,207.236 270.408 C 205.522 268.637,203.981 267.188,203.811 267.188 C 203.641 267.188,204.164 267.820,204.973 268.593 M261.188 269.294 C 260.949 271.330,259.759 275.195,258.440 278.223 C 258.089 279.028,257.888 279.688,257.993 279.688 C 258.274 279.688,259.576 276.716,260.503 273.960 C 261.288 271.628,262.027 267.188,261.631 267.188 C 261.524 267.188,261.324 268.135,261.188 269.294 M188.372 268.750 C 188.372 269.502,188.452 269.810,188.551 269.434 C 188.649 269.058,188.649 268.442,188.551 268.066 C 188.452 267.690,188.372 267.998,188.372 268.750 M188.717 270.760 C 188.432 274.799,194.822 285.639,199.832 289.614 C 201.502 290.939,201.400 290.783,199.064 288.442 C 193.630 282.996,190.657 277.836,188.954 270.898 C 188.817 270.339,188.750 270.300,188.717 270.760 M211.328 274.659 C 211.865 275.102,213.604 276.708,215.191 278.228 C 216.779 279.748,218.009 280.812,217.926 280.592 C 217.700 279.999,211.083 273.826,210.689 273.841 C 210.504 273.848,210.791 274.217,211.328 274.659 M219.441 281.142 C 220.143 281.229,221.197 281.228,221.784 281.138 C 222.371 281.049,221.797 280.978,220.508 280.980 C 219.219 280.983,218.738 281.056,219.441 281.142 M255.145 283.691 C 253.446 286.160,249.287 290.221,246.655 291.979 C 243.771 293.905,243.189 294.415,244.794 293.605 C 246.733 292.627,251.594 288.568,253.339 286.471 C 255.242 284.184,256.770 282.031,256.491 282.031 C 256.379 282.031,255.774 282.778,255.145 283.691 M203.326 292.197 C 203.890 293.110,212.326 297.179,212.759 296.746 C 212.845 296.660,211.868 296.197,210.587 295.718 C 209.306 295.239,207.098 294.169,205.680 293.341 C 204.262 292.512,203.203 291.997,203.326 292.197 M240.234 295.508 C 239.697 295.815,239.434 296.066,239.648 296.066 C 239.863 296.066,240.479 295.815,241.016 295.508 C 241.553 295.201,241.816 294.950,241.602 294.950 C 241.387 294.950,240.771 295.201,240.234 295.508 M235.547 297.094 C 233.936 297.592,232.906 298.010,233.260 298.023 C 234.024 298.051,239.063 296.532,239.063 296.273 C 239.063 296.024,238.860 296.071,235.547 297.094 M215.234 297.656 C 215.771 297.828,216.563 297.969,216.992 297.969 C 217.611 297.969,217.570 297.904,216.797 297.656 C 216.260 297.484,215.469 297.344,215.039 297.344 C 214.420 297.344,214.461 297.409,215.234 297.656 M219.375 298.513 C 221.345 298.862,229.047 298.862,231.011 298.513 C 231.846 298.364,229.227 298.242,225.191 298.242 C 221.154 298.242,218.537 298.364,219.375 298.513 " stroke="none" fill="#deca40" fill-rule="evenodd"></path><path id="path2" d="M0.000 200.000 L 0.000 400.000 200.000 400.000 L 400.000 400.000 400.000 200.000 L 400.000 0.000 200.000 0.000 L 0.000 0.000 0.000 200.000 M208.984 67.592 C 242.294 70.538,270.520 92.948,280.912 124.697 L 282.929 130.859 284.140 130.865 C 288.086 130.885,298.666 133.430,304.688 135.808 C 355.612 155.921,364.615 225.822,320.389 257.715 C 316.917 260.219,306.055 265.950,305.615 265.510 C 305.481 265.376,305.652 264.566,305.994 263.708 C 307.936 258.857,310.671 247.463,311.958 238.867 C 313.151 230.904,313.759 180.265,312.704 176.714 C 311.295 171.968,308.461 170.273,300.391 169.348 C 276.081 166.563,251.080 157.145,234.512 144.531 C 232.678 143.135,230.487 141.473,229.643 140.838 C 226.335 138.350,222.682 138.944,218.185 142.699 C 202.482 155.814,176.666 165.943,150.323 169.324 C 142.173 170.370,140.543 171.068,138.487 174.393 L 137.305 176.305 137.185 202.703 C 137.022 238.871,137.806 246.155,143.727 263.452 C 144.384 265.372,144.922 267.174,144.922 267.456 C 144.922 268.101,113.124 268.190,107.633 267.561 C 70.098 263.262,44.884 227.942,51.938 189.544 C 57.467 159.445,83.002 135.866,112.768 133.374 L 115.966 133.107 117.760 127.588 C 130.081 89.687,169.048 64.059,208.984 67.592 M204.225 81.246 C 204.937 81.414,205.912 81.880,206.392 82.280 C 206.872 82.680,206.770 82.524,206.165 81.934 C 205.469 81.253,204.674 80.874,203.998 80.899 C 202.994 80.937,203.008 80.958,204.225 81.246 M194.000 84.457 C 193.868 84.949,193.780 85.967,193.804 86.719 C 193.837 87.763,193.921 87.578,194.158 85.939 C 194.485 83.683,194.406 82.942,194.000 84.457 M218.835 85.059 C 218.230 85.649,218.146 85.789,218.648 85.368 C 219.149 84.947,220.388 84.487,221.401 84.346 L 223.242 84.089 221.588 84.037 C 220.269 83.995,219.711 84.202,218.835 85.059 M183.834 85.529 C 184.289 86.076,184.855 86.875,185.092 87.305 C 185.329 87.734,185.528 87.864,185.535 87.592 C 185.542 87.320,184.976 86.521,184.277 85.816 C 183.579 85.111,183.380 84.982,183.834 85.529 M173.971 86.296 C 172.720 87.059,171.483 88.528,171.486 89.247 C 171.487 89.468,171.831 89.085,172.250 88.397 C 172.670 87.708,173.680 86.793,174.495 86.363 C 175.310 85.933,175.801 85.574,175.586 85.566 C 175.371 85.557,174.645 85.886,173.971 86.296 M227.734 86.060 C 227.734 86.127,228.306 86.698,229.004 87.329 L 230.273 88.477 229.126 87.207 C 228.057 86.024,227.734 85.758,227.734 86.060 M207.813 87.665 C 207.813 87.971,207.353 88.806,206.792 89.521 L 205.771 90.820 206.987 89.545 C 208.044 88.436,208.600 87.109,208.008 87.109 C 207.900 87.109,207.813 87.360,207.813 87.665 M216.852 89.085 C 216.818 90.196,217.028 91.152,217.412 91.625 C 217.750 92.042,217.885 92.119,217.712 91.797 C 217.538 91.475,217.287 90.332,217.152 89.258 L 216.907 87.305 216.852 89.085 M230.559 90.625 C 230.559 91.377,230.640 91.685,230.738 91.309 C 230.836 90.933,230.836 90.317,230.738 89.941 C 230.640 89.565,230.559 89.873,230.559 90.625 M184.662 92.288 L 183.973 93.555 184.760 92.633 C 185.430 91.848,185.787 91.010,185.449 91.018 C 185.396 91.019,185.041 91.591,184.662 92.288 M198.744 91.304 C 199.879 91.383,201.637 91.382,202.650 91.302 C 203.663 91.222,202.734 91.157,200.586 91.158 C 198.438 91.159,197.608 91.225,198.744 91.304 M171.515 92.210 C 171.498 92.545,171.758 93.161,172.092 93.578 C 172.690 94.324,172.694 94.323,172.340 93.555 C 172.142 93.125,171.883 92.510,171.763 92.188 C 171.576 91.681,171.542 91.684,171.515 92.210 M230.078 92.483 C 230.078 92.717,229.601 93.494,229.018 94.208 C 228.146 95.277,228.117 95.370,228.859 94.731 C 229.911 93.824,230.630 92.609,230.305 92.284 C 230.180 92.159,230.078 92.249,230.078 92.483 M159.673 94.026 C 160.158 94.120,160.862 94.116,161.235 94.018 C 161.608 93.921,161.211 93.844,160.352 93.849 C 159.492 93.853,159.187 93.933,159.673 94.026 M156.910 95.410 C 155.693 96.615,155.689 96.630,156.818 95.706 C 157.472 95.171,158.175 94.599,158.379 94.437 C 158.583 94.274,158.624 94.141,158.471 94.141 C 158.317 94.141,157.615 94.712,156.910 95.410 M162.144 94.238 C 162.234 94.292,162.923 94.863,163.674 95.508 L 165.039 96.680 163.892 95.410 C 163.261 94.712,162.572 94.141,162.362 94.141 C 162.151 94.141,162.053 94.185,162.144 94.238 M242.383 94.496 C 243.242 94.638,244.209 94.893,244.531 95.062 C 244.854 95.232,244.776 95.094,244.359 94.756 C 243.942 94.417,242.975 94.163,242.210 94.190 L 240.820 94.238 242.383 94.496 M247.864 98.055 C 249.361 99.671,250.666 100.939,250.763 100.872 C 250.861 100.806,249.636 99.484,248.042 97.935 L 245.143 95.117 247.864 98.055 M225.098 95.972 C 225.474 96.071,226.089 96.071,226.465 95.972 C 226.841 95.874,226.533 95.794,225.781 95.794 C 225.029 95.794,224.722 95.874,225.098 95.972 M152.763 99.467 C 152.211 100.168,151.970 101.009,152.005 102.103 L 152.058 103.711 152.314 101.880 C 152.454 100.872,152.898 99.686,153.298 99.243 C 153.699 98.800,153.925 98.438,153.800 98.438 C 153.675 98.438,153.208 98.901,152.763 99.467 M163.458 103.223 L 161.914 104.883 163.574 103.339 C 165.118 101.903,165.414 101.563,165.118 101.563 C 165.055 101.563,164.307 102.310,163.458 103.223 M240.430 104.688 C 241.922 106.191,243.231 107.422,243.338 107.422 C 243.446 107.422,242.313 106.191,240.820 104.688 C 239.328 103.184,238.019 101.953,237.912 101.953 C 237.804 101.953,238.937 103.184,240.430 104.688 M152.356 104.193 C 152.349 104.458,152.827 105.170,153.418 105.774 C 154.009 106.379,154.209 106.514,153.862 106.074 C 153.515 105.633,153.037 104.922,152.800 104.492 C 152.562 104.062,152.362 103.928,152.356 104.193 M160.156 105.907 C 158.795 107.100,158.794 107.102,160.047 106.269 C 160.739 105.809,161.408 105.265,161.535 105.060 C 161.911 104.450,161.599 104.642,160.156 105.907 M148.047 110.726 C 148.047 110.882,148.398 111.457,148.828 112.003 C 149.258 112.549,149.609 112.868,149.609 112.712 C 149.609 112.556,149.258 111.981,148.828 111.435 C 148.398 110.888,148.047 110.569,148.047 110.726 M139.453 114.453 C 139.015 115.313,138.744 116.016,138.851 116.016 C 138.959 116.016,139.405 115.313,139.844 114.453 C 140.282 113.594,140.553 112.891,140.446 112.891 C 140.338 112.891,139.892 113.594,139.453 114.453 M149.716 114.844 C 149.716 115.811,149.792 116.206,149.885 115.723 C 149.978 115.239,149.978 114.448,149.885 113.965 C 149.792 113.481,149.716 113.877,149.716 114.844 M146.922 120.801 C 145.861 122.353,145.680 122.744,146.427 121.875 C 147.584 120.528,149.006 118.359,148.732 118.359 C 148.655 118.359,147.840 119.458,146.922 120.801 M139.929 122.754 C 140.533 123.345,141.333 123.817,141.705 123.803 C 142.172 123.786,142.079 123.657,141.406 123.389 C 140.869 123.175,140.070 122.703,139.630 122.340 C 139.190 121.977,139.324 122.163,139.929 122.754 M134.082 129.176 C 134.458 129.274,135.073 129.274,135.449 129.176 C 135.825 129.077,135.518 128.997,134.766 128.997 C 134.014 128.997,133.706 129.077,134.082 129.176 M139.161 133.398 C 139.165 134.258,139.245 134.563,139.339 134.077 C 139.432 133.592,139.429 132.888,139.331 132.515 C 139.233 132.142,139.157 132.539,139.161 133.398 M137.500 138.943 C 137.500 139.164,137.039 140.023,136.476 140.853 C 135.913 141.683,135.749 142.116,136.111 141.815 C 136.933 141.133,138.026 139.067,137.724 138.766 C 137.601 138.643,137.500 138.722,137.500 138.943 M228.583 140.729 C 229.372 141.209,231.876 143.020,234.147 144.755 C 251.190 157.769,276.734 167.289,301.758 169.953 C 308.198 170.638,311.040 172.491,312.355 176.861 C 312.885 178.622,312.837 218.515,312.291 230.273 C 310.254 274.108,282.748 313.924,234.079 343.490 C 224.696 349.189,224.667 349.186,211.696 340.961 C 168.266 313.421,144.182 280.058,138.408 239.437 C 137.572 233.554,137.148 179.409,137.917 176.664 C 139.158 172.230,142.022 170.636,150.391 169.719 C 175.333 166.985,201.725 156.572,218.777 142.734 C 222.693 139.557,225.658 138.950,228.583 140.729 " stroke="none" fill="#fbfbfb" fill-rule="evenodd"></path><path id="path3" d="M196.441 81.836 C 195.879 82.141,195.232 82.881,195.002 83.480 C 192.996 88.706,194.598 90.625,200.967 90.625 C 206.703 90.625,208.328 89.320,207.678 85.233 C 207.125 81.752,200.359 79.706,196.441 81.836 M177.930 85.108 C 171.574 87.402,169.993 90.914,173.554 94.824 C 176.069 97.585,185.156 93.499,185.156 89.607 C 185.156 85.203,182.407 83.492,177.930 85.108 M218.842 85.712 C 214.967 89.263,219.315 95.443,225.689 95.443 C 230.368 95.443,231.808 88.948,227.686 86.428 C 224.053 84.206,220.775 83.941,218.842 85.712 M157.715 95.329 C 152.458 98.811,151.138 102.452,153.966 105.672 C 156.098 108.101,159.006 107.255,163.483 102.903 C 168.003 98.511,162.942 91.866,157.715 95.329 M240.799 94.949 C 237.485 95.912,236.619 99.649,239.009 102.667 C 243.510 108.350,247.611 109.246,249.963 105.060 C 251.455 102.406,250.820 100.760,247.032 97.461 C 243.547 94.425,243.150 94.265,240.799 94.949 M142.223 111.152 C 137.159 116.920,137.498 123.438,142.862 123.438 C 145.695 123.438,150.047 117.106,149.440 113.869 C 148.723 110.046,144.568 108.482,142.223 111.152 M132.493 130.132 C 130.294 131.221,129.867 131.956,129.120 135.930 C 128.293 140.332,129.569 142.195,133.486 142.306 C 136.378 142.388,140.006 134.878,138.550 131.825 C 137.415 129.445,135.157 128.814,132.493 130.132 M137.648 182.031 C 137.648 184.502,137.711 185.513,137.789 184.277 C 137.866 183.042,137.866 181.021,137.789 179.785 C 137.711 178.550,137.648 179.561,137.648 182.031 M137.631 226.953 C 137.631 228.564,137.700 229.224,137.785 228.418 C 137.869 227.612,137.869 226.294,137.785 225.488 C 137.700 224.683,137.631 225.342,137.631 226.953 M312.230 227.148 C 312.233 228.437,312.306 228.918,312.392 228.216 C 312.479 227.514,312.478 226.459,312.388 225.872 C 312.299 225.285,312.228 225.859,312.230 227.148 M190.039 235.175 C 191.167 235.481,191.156 235.491,189.728 235.430 L 188.246 235.368 188.272 250.682 C 188.286 259.105,188.399 266.308,188.522 266.689 C 188.710 267.272,188.678 267.289,188.324 266.797 C 187.986 266.327,187.903 266.443,187.903 267.383 C 187.903 268.318,187.987 268.436,188.318 267.969 C 188.630 267.530,188.687 267.800,188.545 269.043 C 188.418 270.155,188.492 270.619,188.770 270.447 C 189.049 270.275,189.101 270.627,188.929 271.521 C 188.736 272.526,188.776 272.708,189.094 272.266 C 189.425 271.804,189.478 271.905,189.345 272.742 C 189.252 273.326,189.321 273.715,189.498 273.605 C 189.938 273.333,190.380 275.229,190.015 275.819 C 189.836 276.109,189.887 276.191,190.146 276.031 C 190.658 275.715,191.180 277.152,190.785 277.791 C 190.598 278.095,190.676 278.140,191.022 277.926 C 191.400 277.692,191.470 277.786,191.282 278.277 C 191.108 278.728,191.172 278.856,191.477 278.667 C 191.782 278.479,191.846 278.606,191.672 279.058 C 191.518 279.459,191.572 279.631,191.805 279.487 C 192.246 279.214,192.989 280.867,192.667 281.408 C 192.552 281.602,192.660 281.636,192.908 281.483 C 193.318 281.230,193.541 281.716,193.396 282.549 C 193.365 282.726,193.520 282.759,193.740 282.623 C 193.960 282.487,194.163 282.562,194.189 282.789 C 194.216 283.017,194.260 283.364,194.287 283.561 C 194.314 283.758,194.496 284.066,194.692 284.245 C 194.901 284.436,194.929 284.329,194.760 283.984 C 194.602 283.662,194.744 283.732,195.076 284.140 C 195.407 284.547,195.598 285.011,195.500 285.170 C 195.401 285.328,195.583 285.676,195.903 285.941 C 196.223 286.207,196.484 286.279,196.484 286.102 C 196.484 285.925,197.231 286.558,198.145 287.508 C 199.058 288.458,199.805 289.416,199.805 289.637 C 199.805 289.858,200.034 290.039,200.315 290.039 C 200.596 290.039,201.183 290.479,201.619 291.016 C 202.055 291.553,202.293 291.729,202.148 291.406 C 202.004 291.084,202.267 291.260,202.734 291.797 C 203.201 292.334,203.462 292.541,203.313 292.256 C 203.092 291.832,203.186 291.828,203.840 292.237 C 204.278 292.511,204.533 292.902,204.407 293.107 C 204.280 293.312,204.379 293.355,204.626 293.202 C 205.158 292.873,206.764 293.887,206.357 294.294 C 206.204 294.447,206.410 294.445,206.814 294.290 C 207.323 294.095,207.464 294.148,207.270 294.460 C 207.082 294.765,207.209 294.829,207.661 294.656 C 208.113 294.482,208.240 294.546,208.052 294.851 C 207.863 295.156,207.991 295.220,208.442 295.046 C 208.870 294.882,209.019 294.941,208.853 295.210 C 208.684 295.482,208.890 295.552,209.436 295.410 C 210.009 295.260,210.190 295.333,210.002 295.637 C 209.817 295.937,209.947 296.000,210.395 295.828 C 210.886 295.639,210.980 295.709,210.746 296.088 C 210.532 296.433,210.577 296.512,210.881 296.324 C 211.507 295.937,212.960 296.447,212.652 296.945 C 212.493 297.203,212.703 297.254,213.232 297.086 C 213.689 296.941,214.063 296.986,214.063 297.185 C 214.063 297.385,214.546 297.471,215.137 297.376 C 215.982 297.241,216.086 297.294,215.625 297.625 C 215.182 297.943,215.364 297.983,216.369 297.790 C 217.133 297.643,217.607 297.685,217.482 297.888 C 217.356 298.092,219.776 298.290,223.183 298.354 C 226.438 298.415,229.629 298.547,230.273 298.646 C 231.263 298.798,231.324 298.765,230.664 298.430 C 230.050 298.119,230.237 298.070,231.543 298.199 C 232.639 298.307,233.117 298.224,232.950 297.953 C 232.787 297.690,233.064 297.613,233.719 297.738 C 234.345 297.858,234.648 297.782,234.500 297.543 C 234.353 297.304,234.656 297.228,235.282 297.348 C 235.915 297.469,236.211 297.393,236.060 297.148 C 235.910 296.905,236.142 296.837,236.658 296.972 C 237.198 297.114,237.409 297.043,237.244 296.777 C 237.080 296.511,237.290 296.440,237.830 296.582 C 238.347 296.717,238.578 296.649,238.428 296.406 C 238.273 296.155,238.505 296.112,239.063 296.289 C 239.593 296.457,239.850 296.419,239.710 296.193 C 239.447 295.768,241.292 294.805,241.785 295.110 C 241.961 295.219,242.213 295.027,242.345 294.684 C 242.477 294.340,242.832 294.155,243.135 294.271 C 243.438 294.387,243.789 294.211,243.916 293.880 C 244.050 293.531,244.400 293.376,244.750 293.510 C 245.095 293.642,245.251 293.576,245.114 293.355 C 244.896 293.001,245.433 292.795,246.220 292.932 C 246.398 292.963,246.431 292.808,246.295 292.588 C 246.159 292.368,246.234 292.166,246.461 292.139 C 246.689 292.112,247.036 292.068,247.233 292.041 C 247.430 292.014,247.738 291.832,247.917 291.637 C 248.108 291.427,248.001 291.401,247.656 291.573 C 247.334 291.733,247.505 291.512,248.036 291.080 C 248.567 290.649,249.118 290.368,249.261 290.456 C 249.404 290.544,249.760 290.311,250.053 289.937 C 250.546 289.308,250.528 289.301,249.805 289.843 C 249.375 290.165,249.902 289.552,250.977 288.482 C 252.051 287.411,253.018 286.530,253.125 286.523 C 253.592 286.495,254.295 285.859,254.138 285.607 C 254.044 285.454,254.320 284.895,254.752 284.364 C 255.183 283.833,255.406 283.645,255.247 283.947 C 255.054 284.312,255.111 284.401,255.415 284.213 C 255.666 284.058,255.753 283.738,255.607 283.502 C 255.462 283.267,255.854 282.644,256.480 282.119 C 257.105 281.594,257.380 281.293,257.090 281.450 C 256.664 281.680,256.648 281.575,257.006 280.907 C 257.250 280.451,257.619 280.078,257.826 280.078 C 258.034 280.078,258.182 279.946,258.157 279.785 C 258.005 278.826,258.254 278.111,258.654 278.358 C 258.920 278.522,259.000 278.466,258.848 278.221 C 258.524 277.696,258.959 276.501,259.380 276.761 C 259.552 276.867,259.594 276.575,259.472 276.111 C 259.322 275.538,259.395 275.357,259.700 275.545 C 259.999 275.730,260.062 275.600,259.890 275.152 C 259.702 274.661,259.771 274.567,260.150 274.801 C 260.498 275.016,260.574 274.970,260.383 274.660 C 260.038 274.102,260.493 271.795,260.899 272.046 C 261.057 272.144,261.118 271.662,261.034 270.975 C 260.927 270.092,260.992 269.885,261.258 270.268 C 261.514 270.636,261.584 270.199,261.477 268.900 C 261.388 267.836,261.450 267.289,261.616 267.664 C 261.780 268.033,261.902 262.496,261.886 255.359 C 261.864 245.077,261.907 243.883,262.095 249.609 L 262.331 256.836 262.388 246.680 C 262.425 240.064,262.317 236.796,262.077 237.305 C 261.762 237.971,261.730 237.927,261.856 237.002 C 262.069 235.447,263.070 235.525,241.909 235.444 L 222.461 235.370 241.406 235.160 C 256.624 234.991,253.319 234.941,224.609 234.904 C 204.951 234.879,189.395 235.001,190.039 235.175 M213.014 235.449 C 209.107 235.512,202.603 235.512,198.561 235.449 C 194.518 235.385,197.715 235.333,205.664 235.333 C 213.613 235.333,216.921 235.385,213.014 235.449 M187.672 247.656 C 187.672 253.779,187.726 256.284,187.792 253.223 C 187.858 250.161,187.858 245.151,187.792 242.090 C 187.726 239.028,187.672 241.533,187.672 247.656 M245.511 245.308 C 245.374 245.529,245.531 245.595,245.878 245.462 C 246.212 245.333,246.484 245.433,246.484 245.684 C 246.484 245.935,246.634 246.047,246.817 245.934 C 247.001 245.821,247.484 245.999,247.892 246.331 C 248.299 246.662,248.386 246.805,248.084 246.648 C 247.723 246.461,247.631 246.518,247.814 246.815 C 247.968 247.063,248.346 247.266,248.656 247.266 C 249.153 247.266,249.258 247.456,249.205 248.256 C 249.197 248.371,249.461 248.735,249.791 249.065 C 250.466 249.741,250.528 250.697,250.032 252.829 C 249.785 253.896,249.814 254.221,250.139 254.032 C 250.762 253.669,249.506 255.069,246.179 258.443 C 244.615 260.030,243.164 261.328,242.956 261.328 C 242.748 261.328,242.578 261.549,242.578 261.819 C 242.578 262.090,238.315 266.542,233.105 271.713 L 223.633 281.115 220.996 281.218 C 219.084 281.293,218.359 281.186,218.359 280.830 C 218.359 280.560,218.245 280.453,218.106 280.592 C 217.967 280.731,217.571 280.541,217.227 280.169 C 216.883 279.797,215.326 278.307,213.766 276.859 C 212.207 275.411,210.951 274.118,210.975 273.986 C 211.048 273.600,207.709 270.331,207.422 270.508 C 207.060 270.732,203.508 267.325,203.800 267.033 C 203.930 266.903,203.859 266.797,203.643 266.797 C 203.205 266.797,202.975 263.198,203.339 262.049 C 203.467 261.646,203.733 261.416,203.930 261.538 C 204.127 261.660,204.196 261.520,204.084 261.227 C 203.841 260.594,206.529 257.698,207.057 258.024 C 207.258 258.148,207.422 258.044,207.422 257.794 C 207.422 257.543,207.694 257.443,208.028 257.571 C 208.383 257.707,208.533 257.640,208.391 257.409 C 208.242 257.169,208.653 257.045,209.444 257.094 C 210.738 257.173,215.552 261.070,215.314 261.845 C 215.260 262.023,215.366 262.074,215.550 261.961 C 215.734 261.847,216.749 262.669,217.805 263.787 L 219.727 265.820 217.773 264.062 L 215.820 262.305 217.554 264.152 C 218.507 265.168,219.365 265.921,219.461 265.826 C 219.556 265.731,219.976 265.892,220.394 266.185 C 221.146 266.711,224.292 263.908,228.084 259.332 C 228.599 258.711,229.287 258.203,229.614 258.203 C 229.941 258.203,230.097 258.091,229.960 257.955 C 229.642 257.637,236.714 250.159,237.197 250.303 C 237.395 250.362,237.465 250.260,237.352 250.077 C 237.239 249.894,238.237 248.703,239.569 247.430 L 241.992 245.117 240.039 247.278 L 238.086 249.439 240.234 247.228 C 242.214 245.191,246.561 243.609,245.511 245.308 M231.620 256.152 L 230.273 257.617 231.738 256.271 C 233.102 255.018,233.383 254.688,233.084 254.688 C 233.019 254.688,232.360 255.347,231.620 256.152 M224.005 264.160 L 222.461 265.820 224.121 264.276 C 225.665 262.840,225.961 262.500,225.665 262.500 C 225.601 262.500,224.854 263.247,224.005 264.160 M235.742 268.359 C 233.171 270.938,231.155 273.047,231.262 273.047 C 231.370 273.047,233.561 270.938,236.133 268.359 C 238.704 265.781,240.720 263.672,240.613 263.672 C 240.505 263.672,238.314 265.781,235.742 268.359 M208.984 272.070 C 209.713 272.822,210.222 273.438,210.114 273.438 C 210.007 273.438,209.323 272.822,208.594 272.070 C 207.865 271.318,207.357 270.703,207.464 270.703 C 207.571 270.703,208.256 271.318,208.984 272.070 M214.844 277.539 C 215.573 278.291,216.257 278.906,216.364 278.906 C 216.472 278.906,215.963 278.291,215.234 277.539 C 214.506 276.787,213.821 276.172,213.714 276.172 C 213.607 276.172,214.115 276.787,214.844 277.539 M224.322 299.108 C 224.916 299.198,225.794 299.196,226.275 299.103 C 226.755 299.010,226.270 298.937,225.195 298.940 C 224.121 298.943,223.728 299.019,224.322 299.108 " stroke="none" fill="#70c2bd" fill-rule="evenodd"></path><path id="path4" d="M196.289 67.454 C 160.443 69.766,128.640 94.119,117.760 127.588 L 115.966 133.107 112.768 133.374 C 56.354 138.097,30.107 209.475,70.087 249.443 C 85.022 264.374,96.248 267.960,128.076 267.966 L 145.020 267.969 144.721 266.699 C 144.557 266.001,144.403 265.051,144.379 264.588 C 144.355 264.125,144.176 263.845,143.981 263.966 C 143.786 264.086,143.726 263.805,143.847 263.342 C 143.989 262.802,143.918 262.591,143.652 262.756 C 143.386 262.920,143.315 262.710,143.457 262.170 C 143.598 261.630,143.528 261.419,143.261 261.584 C 142.995 261.749,142.925 261.538,143.066 260.998 C 143.207 260.458,143.137 260.247,142.871 260.412 C 142.604 260.577,142.534 260.366,142.675 259.826 C 142.817 259.286,142.747 259.076,142.480 259.240 C 142.214 259.405,142.144 259.194,142.285 258.654 C 142.425 258.120,142.355 257.904,142.094 258.065 C 141.831 258.228,141.754 257.953,141.879 257.296 C 141.987 256.734,141.939 256.358,141.772 256.461 C 141.356 256.718,140.890 254.426,141.242 253.855 C 141.432 253.548,141.358 253.499,141.019 253.709 C 140.637 253.945,140.560 253.769,140.707 253.000 C 140.827 252.374,140.751 252.071,140.512 252.218 C 140.273 252.366,140.197 252.063,140.317 251.437 C 140.424 250.875,140.373 250.500,140.203 250.605 C 139.783 250.865,139.297 247.443,139.669 246.842 C 139.869 246.518,139.802 246.464,139.461 246.675 C 139.080 246.910,139.001 246.693,139.135 245.779 C 139.241 245.057,139.159 244.667,138.932 244.807 C 138.697 244.953,138.639 244.398,138.781 243.342 C 138.906 242.407,138.874 241.860,138.710 242.126 C 137.743 243.690,137.356 234.551,137.207 206.641 C 137.056 178.362,137.189 174.520,138.296 175.204 C 138.498 175.329,138.567 175.181,138.450 174.876 C 138.166 174.136,140.826 171.321,141.448 171.705 C 141.729 171.879,141.816 171.831,141.664 171.586 C 141.360 171.093,142.475 170.593,143.064 170.958 C 143.303 171.105,143.366 171.030,143.214 170.783 C 142.878 170.240,145.283 169.750,146.775 170.059 C 147.367 170.181,147.588 170.169,147.266 170.031 C 146.666 169.775,156.163 168.377,159.432 168.240 C 160.430 168.198,161.152 168.009,161.037 167.819 C 160.921 167.629,161.370 167.553,162.033 167.650 C 162.741 167.754,163.145 167.673,163.010 167.455 C 162.875 167.237,163.279 167.156,163.986 167.260 C 164.650 167.357,165.114 167.308,165.017 167.151 C 164.770 166.751,167.838 166.279,168.405 166.630 C 168.683 166.802,168.768 166.751,168.616 166.505 C 168.302 165.997,172.025 165.040,172.698 165.456 C 173.014 165.651,173.065 165.580,172.854 165.238 C 172.618 164.856,172.793 164.779,173.563 164.926 C 174.197 165.047,174.493 164.971,174.341 164.726 C 174.191 164.483,174.423 164.415,174.939 164.550 C 175.480 164.692,175.690 164.622,175.525 164.355 C 175.361 164.089,175.571 164.019,176.111 164.160 C 176.575 164.281,176.875 164.253,176.779 164.096 C 176.523 163.682,181.950 162.013,182.483 162.342 C 182.781 162.527,182.826 162.447,182.616 162.108 C 182.380 161.726,182.515 161.652,183.143 161.816 C 183.683 161.957,183.893 161.887,183.729 161.621 C 183.564 161.354,183.774 161.284,184.314 161.425 C 184.778 161.547,185.067 161.499,184.956 161.320 C 184.683 160.879,186.206 160.425,186.776 160.777 C 187.048 160.945,187.125 160.888,186.969 160.635 C 186.652 160.123,188.090 159.601,188.729 159.996 C 189.001 160.164,189.078 160.107,188.922 159.854 C 188.605 159.342,190.043 158.820,190.682 159.215 C 190.947 159.378,191.032 159.326,190.886 159.090 C 190.565 158.571,192.767 157.641,193.396 158.031 C 193.720 158.231,193.769 158.160,193.551 157.806 C 193.317 157.428,193.411 157.358,193.902 157.546 C 194.353 157.720,194.481 157.656,194.292 157.351 C 194.104 157.046,194.231 156.982,194.683 157.156 C 195.134 157.329,195.262 157.265,195.073 156.960 C 194.885 156.655,195.012 156.592,195.464 156.765 C 195.916 156.938,196.043 156.875,195.855 156.570 C 195.666 156.265,195.794 156.201,196.245 156.374 C 196.614 156.516,196.828 156.490,196.721 156.317 C 196.448 155.876,200.735 153.832,201.257 154.154 C 201.532 154.324,201.570 154.234,201.363 153.900 C 201.129 153.521,201.223 153.452,201.714 153.640 C 202.166 153.813,202.293 153.750,202.105 153.445 C 201.911 153.132,202.052 153.079,202.561 153.275 C 202.965 153.430,203.171 153.432,203.018 153.278 C 202.611 152.871,204.217 151.858,204.749 152.186 C 205.048 152.371,205.092 152.291,204.879 151.947 C 204.639 151.559,204.744 151.500,205.295 151.712 C 205.700 151.867,205.906 151.869,205.752 151.716 C 205.336 151.299,206.956 150.301,207.520 150.626 C 207.788 150.780,207.877 150.762,207.717 150.586 C 207.340 150.170,210.046 148.323,210.563 148.643 C 210.780 148.777,210.909 148.653,210.850 148.369 C 210.790 148.084,211.043 147.875,211.410 147.903 C 211.778 147.932,212.042 147.756,211.996 147.513 C 211.951 147.269,212.220 147.094,212.593 147.124 C 212.967 147.153,213.182 147.030,213.071 146.850 C 212.804 146.420,214.260 145.649,214.660 146.010 C 214.830 146.163,214.843 146.069,214.688 145.801 C 214.431 145.355,214.893 145.127,215.752 145.276 C 215.929 145.307,215.968 145.161,215.838 144.951 C 215.549 144.483,216.965 143.669,217.394 144.057 C 217.564 144.210,217.589 144.136,217.450 143.892 C 217.179 143.417,217.990 142.563,218.828 142.440 C 219.107 142.399,219.336 142.265,219.336 142.141 C 219.336 141.560,220.497 140.612,220.981 140.798 C 221.323 140.929,221.421 140.839,221.245 140.554 C 221.057 140.249,221.184 140.185,221.636 140.359 C 222.005 140.500,222.210 140.461,222.093 140.271 C 221.975 140.081,222.157 139.819,222.495 139.689 C 223.470 139.315,227.414 139.415,227.171 139.807 C 227.051 140.002,227.264 140.080,227.645 139.980 C 228.475 139.763,231.774 142.046,231.431 142.601 C 231.300 142.814,231.337 142.946,231.514 142.895 C 232.157 142.710,233.613 143.793,233.347 144.258 C 233.199 144.516,233.217 144.601,233.387 144.447 C 233.775 144.098,235.246 144.851,234.989 145.267 C 234.885 145.435,235.017 145.573,235.283 145.573 C 236.001 145.573,237.913 146.913,237.696 147.264 C 237.593 147.431,237.814 147.544,238.188 147.514 C 238.564 147.485,238.819 147.692,238.760 147.978 C 238.701 148.263,238.830 148.386,239.046 148.252 C 239.564 147.932,242.269 149.779,241.892 150.195 C 241.732 150.371,241.821 150.390,242.089 150.235 C 242.679 149.896,244.256 150.913,243.845 151.367 C 243.685 151.544,243.774 151.561,244.042 151.407 C 244.607 151.082,246.227 152.081,245.810 152.497 C 245.657 152.650,245.863 152.649,246.267 152.493 C 246.776 152.298,246.917 152.351,246.723 152.664 C 246.535 152.968,246.662 153.032,247.114 152.859 C 247.605 152.671,247.699 152.740,247.465 153.119 C 247.256 153.456,247.296 153.543,247.579 153.368 C 248.115 153.037,256.376 157.165,255.976 157.565 C 255.818 157.724,256.019 157.727,256.424 157.571 C 256.975 157.360,257.079 157.419,256.840 157.806 C 256.640 158.130,256.672 158.230,256.926 158.073 C 257.445 157.752,259.828 158.567,259.574 158.978 C 259.469 159.148,259.601 159.279,259.867 159.269 C 261.121 159.224,261.744 159.409,261.526 159.761 C 261.384 159.991,261.560 160.043,261.958 159.890 C 262.386 159.726,262.534 159.785,262.368 160.053 C 262.200 160.326,262.406 160.396,262.951 160.254 C 263.579 160.089,263.713 160.164,263.477 160.546 C 263.267 160.887,263.313 160.964,263.615 160.777 C 264.254 160.383,265.691 160.905,265.375 161.417 C 265.223 161.662,265.295 161.727,265.546 161.572 C 266.182 161.179,271.151 162.872,270.840 163.376 C 270.686 163.625,270.768 163.678,271.043 163.508 C 271.629 163.146,273.902 163.628,273.636 164.058 C 273.526 164.235,273.816 164.281,274.279 164.160 C 274.907 163.996,275.041 164.070,274.805 164.452 C 274.593 164.795,274.641 164.870,274.949 164.680 C 275.619 164.266,277.794 164.821,277.482 165.327 C 277.326 165.579,277.407 165.632,277.686 165.460 C 278.327 165.063,284.007 166.444,283.710 166.924 C 283.574 167.145,283.675 167.184,283.947 167.015 C 284.476 166.688,291.844 167.967,291.610 168.346 C 291.528 168.478,292.108 168.524,292.898 168.448 C 294.049 168.337,294.219 168.399,293.750 168.762 C 293.262 169.139,293.294 169.172,293.940 168.959 C 294.962 168.623,306.284 169.941,306.022 170.366 C 305.910 170.547,306.096 170.588,306.435 170.458 C 307.774 169.944,312.573 174.324,311.887 175.434 C 311.704 175.730,311.764 175.800,312.049 175.623 C 312.592 175.288,312.563 174.837,312.606 184.375 L 312.639 191.992 312.876 184.961 L 313.113 177.930 313.196 188.477 C 313.302 201.769,312.807 231.836,312.508 230.273 C 312.385 229.629,312.288 230.859,312.292 233.008 C 312.301 237.045,311.453 243.873,310.979 243.580 C 310.831 243.489,310.773 244.061,310.849 244.852 C 310.955 245.949,310.890 246.151,310.573 245.703 C 310.262 245.264,310.222 245.452,310.413 246.447 C 310.596 247.398,310.541 247.699,310.222 247.501 C 309.929 247.321,309.858 247.441,310.015 247.851 C 310.307 248.613,309.386 253.178,308.989 252.933 C 308.834 252.837,308.795 253.218,308.902 253.781 C 309.049 254.550,308.972 254.726,308.590 254.490 C 308.252 254.281,308.177 254.330,308.367 254.637 C 308.781 255.307,308.226 257.482,307.720 257.170 C 307.487 257.025,307.413 257.092,307.555 257.321 C 307.890 257.863,307.415 260.198,307.020 259.954 C 306.851 259.850,306.813 260.144,306.934 260.607 C 307.075 261.148,307.005 261.358,306.739 261.193 C 306.472 261.029,306.402 261.239,306.543 261.779 C 306.707 262.407,306.633 262.541,306.251 262.305 C 305.903 262.090,305.832 262.140,306.032 262.463 C 306.193 262.724,306.109 263.460,305.844 264.099 C 305.059 265.995,305.597 265.886,311.425 262.960 C 360.445 238.352,361.519 167.159,313.281 139.900 C 305.105 135.280,290.975 130.899,284.140 130.865 L 282.929 130.859 280.912 124.697 C 269.068 88.512,234.313 65.002,196.289 67.454 M206.549 82.230 C 207.581 83.337,207.583 83.350,206.622 82.606 L 205.626 81.836 206.646 82.839 C 207.206 83.390,207.587 84.074,207.493 84.358 C 207.398 84.642,207.480 84.776,207.674 84.656 C 208.688 84.029,207.938 88.723,206.858 89.760 C 206.250 90.343,205.878 90.557,206.031 90.234 C 206.277 89.714,206.250 89.714,205.791 90.234 C 205.367 90.715,204.453 90.785,200.720 90.625 C 197.737 90.497,196.247 90.564,196.402 90.820 C 196.532 91.035,196.095 90.671,195.430 90.012 C 194.497 89.086,194.258 88.553,194.382 87.668 C 194.515 86.716,194.480 86.655,194.173 87.305 C 193.862 87.965,193.801 87.875,193.783 86.719 C 193.755 85.010,194.132 83.542,194.535 83.791 C 194.703 83.895,194.944 83.708,195.072 83.376 C 195.204 83.030,195.139 82.874,194.917 83.011 C 194.202 83.453,194.524 82.955,195.571 82.002 C 196.143 81.481,196.485 81.272,196.332 81.538 C 196.144 81.864,196.251 81.946,196.657 81.791 C 196.989 81.663,197.191 81.445,197.106 81.307 C 196.462 80.265,205.545 81.153,206.549 82.230 M182.744 84.766 C 183.204 85.286,183.230 85.286,182.984 84.766 C 182.832 84.443,183.281 84.732,183.981 85.408 C 185.469 86.844,185.958 91.306,184.766 92.576 C 184.443 92.920,184.268 93.009,184.375 92.773 C 184.482 92.538,184.285 92.654,183.935 93.031 C 183.586 93.408,183.190 93.607,183.056 93.473 C 182.922 93.339,182.813 93.429,182.813 93.673 C 182.813 93.926,182.534 94.009,182.162 93.867 C 181.755 93.710,181.608 93.772,181.770 94.033 C 182.098 94.565,181.060 94.974,180.209 94.648 C 179.747 94.471,179.648 94.543,179.868 94.897 C 180.099 95.271,179.956 95.326,179.297 95.117 C 178.698 94.927,178.503 94.976,178.685 95.271 C 178.979 95.746,178.741 95.803,176.211 95.860 C 171.180 95.973,169.732 88.453,174.327 86.077 C 174.925 85.768,175.584 85.620,175.793 85.749 C 176.001 85.878,176.172 85.803,176.172 85.582 C 176.172 85.361,176.464 85.293,176.822 85.430 C 177.230 85.587,177.376 85.524,177.215 85.264 C 176.873 84.710,177.832 84.372,178.930 84.659 C 179.457 84.797,179.715 84.735,179.573 84.506 C 179.184 83.876,182.175 84.122,182.744 84.766 M222.842 84.391 C 222.677 84.657,222.959 84.704,223.658 84.529 C 224.460 84.328,224.651 84.383,224.423 84.751 C 224.199 85.113,224.349 85.168,225.000 84.961 C 225.659 84.752,225.802 84.807,225.571 85.181 C 225.345 85.547,225.458 85.605,225.994 85.399 C 226.510 85.201,226.942 85.383,227.459 86.016 C 227.863 86.510,228.079 86.694,227.941 86.426 C 227.526 85.623,227.911 85.865,229.126 87.170 C 229.757 87.848,230.069 88.286,229.818 88.144 C 229.473 87.948,229.469 88.168,229.802 89.049 C 230.097 89.830,230.341 90.056,230.544 89.735 C 230.721 89.456,230.847 89.827,230.847 90.625 C 230.847 91.699,230.758 91.866,230.431 91.406 C 230.110 90.954,230.068 91.063,230.246 91.883 C 230.426 92.705,230.234 93.196,229.399 94.050 C 228.806 94.658,228.584 94.786,228.906 94.336 C 229.288 93.803,229.148 93.866,228.507 94.516 C 227.951 95.081,227.186 95.462,226.750 95.393 C 226.110 95.292,226.078 95.341,226.563 95.676 C 227.020 95.993,226.866 96.083,225.856 96.088 C 224.975 96.092,224.652 95.950,224.843 95.642 C 225.034 95.332,224.857 95.259,224.280 95.410 C 223.817 95.531,223.438 95.476,223.438 95.288 C 223.438 95.100,223.145 95.059,222.787 95.196 C 222.312 95.378,222.225 95.304,222.461 94.922 C 222.697 94.539,222.609 94.466,222.134 94.648 C 221.777 94.785,221.484 94.717,221.484 94.496 C 221.484 94.275,221.309 94.203,221.094 94.336 C 220.879 94.469,220.703 94.362,220.703 94.099 C 220.703 93.835,220.589 93.734,220.449 93.874 C 220.309 94.014,219.944 93.824,219.639 93.451 C 219.297 93.035,219.195 93.000,219.372 93.359 C 219.532 93.682,219.017 93.274,218.229 92.453 C 216.802 90.965,215.956 86.934,217.238 87.727 C 217.501 87.889,217.610 87.790,217.507 87.483 C 217.413 87.199,217.794 86.515,218.354 85.964 C 218.982 85.346,219.059 85.186,218.555 85.547 C 218.104 85.869,218.230 85.649,218.835 85.059 C 219.939 83.979,223.459 83.393,222.842 84.391 M202.650 91.302 C 201.637 91.382,199.879 91.383,198.744 91.304 C 197.608 91.225,198.438 91.159,200.586 91.158 C 202.734 91.157,203.663 91.222,202.650 91.302 M161.498 94.182 C 161.322 94.467,161.488 94.533,161.985 94.375 C 162.519 94.206,163.076 94.496,163.889 95.371 C 164.522 96.050,164.775 96.477,164.453 96.321 C 163.994 96.097,164.001 96.148,164.487 96.553 C 164.829 96.838,165.025 97.315,164.925 97.613 C 164.825 97.911,164.912 98.051,165.118 97.923 C 165.747 97.535,165.486 100.927,164.844 101.494 C 164.521 101.778,164.478 101.900,164.746 101.764 C 165.586 101.338,165.290 101.742,163.593 103.339 C 162.690 104.188,162.188 104.531,162.478 104.102 C 162.767 103.672,162.408 103.951,161.678 104.721 C 160.170 106.314,158.669 107.502,159.125 106.743 C 159.322 106.414,159.221 106.333,158.812 106.491 C 158.479 106.618,158.287 106.851,158.383 107.007 C 158.906 107.852,155.232 107.152,154.313 106.231 C 153.646 105.562,153.512 105.504,153.906 106.055 C 154.229 106.505,154.001 106.370,153.400 105.754 C 152.618 104.953,152.380 104.406,152.563 103.831 C 152.733 103.294,152.675 103.116,152.386 103.294 C 151.228 104.010,151.950 100.333,153.212 99.091 C 153.904 98.409,154.432 97.720,154.384 97.559 C 154.336 97.397,154.444 97.310,154.625 97.363 C 154.805 97.417,155.439 96.886,156.034 96.183 C 157.099 94.924,158.980 93.591,158.425 94.488 C 158.262 94.752,158.391 94.825,158.767 94.681 C 159.099 94.554,159.273 94.292,159.154 94.100 C 159.036 93.907,159.574 93.750,160.352 93.750 C 161.285 93.750,161.674 93.897,161.498 94.182 M245.611 96.011 C 246.628 97.039,246.936 97.259,246.294 96.499 C 245.653 95.739,246.402 96.346,247.960 97.847 C 249.519 99.349,250.708 100.799,250.604 101.070 C 250.500 101.341,250.550 101.563,250.715 101.563 C 250.881 101.563,251.016 102.166,251.016 102.904 C 251.016 103.643,250.893 104.171,250.744 104.079 C 250.408 103.871,249.929 105.037,250.182 105.447 C 250.284 105.611,249.904 106.167,249.339 106.682 C 248.774 107.196,248.441 107.354,248.599 107.031 C 248.776 106.669,248.674 106.704,248.330 107.123 C 248.024 107.495,247.660 107.686,247.520 107.546 C 247.380 107.406,247.266 107.462,247.266 107.669 C 247.266 107.877,246.650 108.047,245.898 108.047 C 245.146 108.047,244.531 107.877,244.531 107.669 C 244.531 107.462,244.425 107.398,244.296 107.527 C 244.166 107.657,243.683 107.370,243.222 106.890 C 242.760 106.409,242.630 106.333,242.932 106.719 C 244.077 108.186,243.044 107.320,240.419 104.613 C 238.921 103.067,237.967 101.969,238.300 102.171 C 238.785 102.466,238.779 102.422,238.270 101.945 C 237.921 101.619,237.716 101.111,237.814 100.817 C 237.912 100.523,237.833 100.380,237.639 100.500 C 237.446 100.620,237.287 100.043,237.287 99.219 C 237.287 98.394,237.446 97.818,237.639 97.938 C 237.833 98.058,237.920 97.939,237.832 97.674 C 237.536 96.787,240.032 94.556,241.065 94.784 C 241.801 94.947,241.871 94.903,241.406 94.571 C 240.948 94.244,241.140 94.151,242.291 94.147 C 243.532 94.142,244.049 94.432,245.611 96.011 M146.484 109.886 C 146.484 110.060,146.649 110.100,146.851 109.976 C 147.053 109.851,147.399 110.061,147.620 110.441 C 147.842 110.821,148.028 110.977,148.035 110.787 C 148.042 110.597,148.399 110.889,148.829 111.436 C 149.310 112.048,149.510 112.694,149.349 113.115 C 149.169 113.583,149.231 113.710,149.543 113.518 C 149.864 113.319,150.000 113.715,150.000 114.844 C 150.000 115.972,149.864 116.368,149.543 116.170 C 149.236 115.980,149.168 116.100,149.335 116.537 C 149.478 116.909,149.395 117.188,149.141 117.188 C 148.897 117.188,148.812 117.302,148.952 117.442 C 149.092 117.582,148.902 117.946,148.529 118.252 C 148.156 118.558,148.097 118.681,148.396 118.526 C 148.799 118.317,148.766 118.538,148.271 119.376 C 147.581 120.542,145.355 123.215,145.703 122.458 C 145.811 122.224,145.547 122.417,145.117 122.885 C 143.926 124.183,140.965 123.970,139.538 122.484 C 138.954 121.876,138.740 121.503,139.063 121.656 C 139.525 121.874,139.517 121.824,139.028 121.416 C 138.687 121.131,138.490 120.654,138.591 120.356 C 138.701 120.029,138.600 119.920,138.337 120.083 C 137.951 120.321,137.923 119.277,138.242 116.676 C 138.264 116.502,138.439 116.457,138.631 116.576 C 138.823 116.695,139.085 116.521,139.212 116.188 C 139.355 115.817,139.283 115.684,139.026 115.843 C 138.320 116.279,139.874 113.523,140.765 112.759 C 141.225 112.364,141.338 112.179,141.016 112.348 C 140.693 112.516,141.133 111.960,141.992 111.112 C 143.471 109.653,146.484 108.830,146.484 109.886 M135.716 129.339 C 135.536 129.630,135.721 129.685,136.281 129.507 C 136.853 129.325,137.186 129.434,137.348 129.854 C 137.476 130.189,137.744 130.364,137.941 130.242 C 138.139 130.120,138.275 130.165,138.245 130.342 C 138.108 131.130,138.313 131.667,138.667 131.448 C 138.897 131.306,138.949 131.482,138.796 131.880 C 138.622 132.335,138.686 132.459,138.996 132.268 C 139.313 132.072,139.453 132.419,139.453 133.398 C 139.453 134.332,139.306 134.721,139.021 134.544 C 138.726 134.362,138.677 134.557,138.867 135.156 C 139.070 135.795,139.016 135.955,138.672 135.742 C 138.327 135.529,138.274 135.690,138.477 136.328 C 138.679 136.967,138.626 137.127,138.281 136.914 C 137.937 136.701,137.883 136.861,138.086 137.500 C 138.295 138.159,138.240 138.302,137.866 138.071 C 137.508 137.849,137.440 137.953,137.626 138.437 C 137.926 139.218,137.092 141.018,136.061 141.819 C 135.397 142.334,135.389 142.319,135.938 141.576 C 136.467 140.858,136.447 140.861,135.724 141.609 C 135.285 142.064,134.689 142.357,134.400 142.261 C 134.086 142.156,133.985 142.263,134.148 142.527 C 134.327 142.816,134.041 142.967,133.324 142.963 C 132.440 142.958,132.341 142.876,132.813 142.541 C 133.261 142.222,133.139 142.181,132.291 142.367 C 131.533 142.533,131.269 142.473,131.452 142.177 C 131.605 141.929,131.493 141.796,131.189 141.866 C 130.623 141.996,128.645 140.235,128.809 139.746 C 128.862 139.585,128.730 139.453,128.516 139.453 C 128.301 139.453,128.128 138.970,128.131 138.379 C 128.136 137.532,128.220 137.429,128.527 137.891 C 128.802 138.303,128.848 137.955,128.685 136.719 C 128.505 135.354,128.552 135.092,128.898 135.547 C 129.248 136.006,129.288 135.848,129.083 134.814 C 128.885 133.811,128.940 133.568,129.312 133.798 C 129.674 134.022,129.738 133.849,129.558 133.129 C 129.404 132.516,129.538 131.882,129.920 131.411 C 130.254 131.000,130.411 130.928,130.269 131.250 C 130.127 131.572,130.392 131.396,130.859 130.859 C 131.326 130.322,131.590 130.146,131.445 130.469 C 131.301 130.791,131.512 130.651,131.916 130.157 C 132.433 129.524,132.865 129.342,133.381 129.540 C 133.889 129.735,134.026 129.681,133.830 129.363 C 133.638 129.052,133.935 128.906,134.766 128.906 C 135.557 128.906,135.890 129.058,135.716 129.339 M176.563 313.477 C 177.291 314.229,177.976 314.844,178.083 314.844 C 178.190 314.844,177.682 314.229,176.953 313.477 C 176.224 312.725,175.540 312.109,175.433 312.109 C 175.325 312.109,175.834 312.725,176.563 313.477 " stroke="none" fill="#ccf1f4" fill-rule="evenodd"></path></g></svg>