<svg id="svg" version="1.1" xmlns="http://www.w3.org/2000/svg" xmlns:xlink="http://www.w3.org/1999/xlink" width="400" height="400" viewBox="0, 0, 400,400"><g id="svgg"><path id="path0" d="M235.312 153.972 C 220.675 154.782,203.966 159.938,191.120 167.610 C 123.992 207.695,125.810 304.225,194.405 341.955 C 251.541 373.383,323.140 343.002,340.231 280.078 C 358.482 212.878,306.210 150.050,235.312 153.972 M253.727 165.448 C 324.439 174.602,357.164 254.374,313.020 309.981 C 288.449 340.932,245.680 352.366,209.585 337.632 C 139.052 308.843,132.372 214.801,198.133 176.404 C 208.465 170.371,220.115 166.831,235.352 165.094 C 238.798 164.702,249.559 164.909,253.727 165.448 M232.617 176.602 C 185.989 182.257,155.058 226.689,165.885 272.461 C 181.018 336.432,264.712 354.131,305.348 301.953 C 348.376 246.703,302.767 168.095,232.617 176.602 M256.517 187.924 C 266.375 189.792,276.884 194.670,285.180 201.228 L 287.204 202.827 279.898 210.141 L 272.592 217.455 269.437 215.343 C 264.250 211.871,257.782 209.110,252.734 208.211 C 251.338 207.963,249.800 207.680,249.316 207.583 L 248.438 207.407 248.438 197.323 C 248.438 191.777,248.548 187.129,248.683 186.994 C 248.999 186.678,251.524 186.977,256.517 187.924 M237.500 197.242 L 237.500 207.374 235.645 207.627 C 228.965 208.540,222.388 211.115,215.843 215.381 L 212.553 217.526 205.691 210.519 C 197.728 202.390,198.137 203.314,201.421 200.855 C 210.808 193.825,227.060 187.493,236.621 187.142 L 237.500 187.109 237.500 197.242 M296.136 211.816 C 303.363 220.252,309.231 234.361,310.756 246.973 L 311.028 249.219 300.906 249.219 L 290.784 249.219 290.317 246.495 C 289.402 241.161,285.317 231.938,282.025 227.773 L 280.376 225.687 287.743 218.312 C 291.794 214.256,295.171 210.938,295.246 210.938 C 295.321 210.938,295.721 211.333,296.136 211.816 M203.301 228.149 C 199.840 233.280,196.674 241.018,195.677 246.777 L 195.187 249.609 184.898 249.609 C 178.892 249.609,174.609 249.460,174.609 249.250 C 174.609 240.659,181.050 223.385,187.561 214.510 L 189.955 211.247 197.344 218.636 L 204.733 226.025 203.301 228.149 M248.531 218.548 C 254.040 219.509,264.453 223.757,264.453 225.043 C 264.453 225.540,249.831 240.824,249.414 240.763 C 249.199 240.732,247.976 240.424,246.695 240.080 C 231.329 235.945,220.481 254.978,232.040 265.791 C 243.520 276.529,261.600 266.277,257.938 251.106 L 257.282 248.389 264.672 240.992 C 273.057 232.599,272.313 233.071,273.705 235.254 C 277.034 240.475,278.911 245.776,279.892 252.734 C 280.981 260.452,280.686 260.322,297.510 260.468 L 310.980 260.585 310.725 262.422 C 304.247 309.170,253.297 335.590,211.252 314.004 C 191.946 304.091,176.957 283.200,175.142 263.675 L 174.893 260.994 188.130 260.868 C 205.048 260.707,204.606 260.913,205.689 252.674 C 208.717 229.630,227.281 214.842,248.531 218.548 " stroke="none" fill="#0c334b" fill-rule="evenodd"></path><path id="path1" d="M0.000 200.000 L 0.000 400.000 200.000 400.000 L 400.000 400.000 400.000 200.000 L 400.000 0.000 200.000 0.000 L 0.000 0.000 0.000 200.000 M201.788 59.009 C 237.525 62.487,265.506 87.391,273.077 122.461 C 274.255 127.917,275.123 128.720,280.895 129.693 C 302.050 133.260,324.980 153.540,330.624 173.675 C 333.288 183.180,333.809 201.868,331.475 204.202 C 331.373 204.304,332.352 206.508,333.651 209.099 C 364.068 269.777,325.352 343.391,257.678 353.553 C 198.422 362.450,141.797 315.180,141.797 256.816 L 141.797 253.125 123.730 253.218 C 104.165 253.318,102.509 253.195,94.141 251.015 C 74.918 246.008,58.548 230.307,52.132 210.719 C 39.041 170.756,66.266 130.435,107.551 128.643 C 114.279 128.351,114.050 128.495,114.859 124.023 C 122.272 83.005,159.817 54.925,201.788 59.009 M186.936 80.464 C 184.415 80.950,182.642 84.041,183.544 86.378 C 185.469 91.366,197.266 90.165,197.266 84.981 C 197.266 80.847,193.500 79.201,186.936 80.464 M210.674 83.382 C 209.119 84.059,208.047 85.659,208.047 87.305 C 208.047 91.371,217.253 95.531,220.054 92.730 C 223.275 89.509,221.087 85.809,214.654 83.596 C 211.997 82.682,212.254 82.695,210.674 83.382 M166.107 86.328 C 160.135 88.827,157.498 93.323,160.254 96.308 C 162.598 98.847,166.278 97.976,170.488 93.888 C 174.005 90.472,170.531 84.477,166.107 86.328 M228.281 95.859 C 225.553 98.588,226.904 101.663,232.350 105.116 C 236.977 108.051,242.040 102.766,238.427 98.773 C 234.620 94.567,230.700 93.441,228.281 95.859 M147.443 101.119 C 143.575 103.478,140.909 108.099,142.059 110.452 C 144.182 114.797,149.031 113.749,153.187 108.047 C 156.297 103.779,151.859 98.426,147.443 101.119 M238.872 218.397 C 221.171 220.283,207.780 234.153,205.897 252.550 C 205.053 260.806,205.245 260.714,188.414 260.855 L 174.931 260.967 175.196 263.003 C 179.835 298.642,212.903 324.645,249.108 321.124 C 279.913 318.128,305.064 294.997,310.089 265.039 L 310.810 260.742 297.300 260.547 C 280.458 260.303,280.616 260.374,279.660 252.658 C 278.779 245.550,276.722 240.041,272.696 234.004 C 272.273 233.369,268.370 236.988,261.310 244.562 L 257.458 248.695 258.026 250.582 C 263.519 268.832,236.577 278.335,228.399 261.032 C 222.822 249.232,235.392 235.513,247.533 240.148 L 249.559 240.921 254.103 236.091 C 256.869 233.149,258.536 231.082,258.364 230.804 C 258.207 230.549,258.251 230.452,258.465 230.584 C 258.675 230.714,260.121 229.538,261.679 227.970 L 264.511 225.119 262.625 223.909 C 258.747 221.420,252.058 219.070,247.457 218.581 C 242.831 218.088,241.947 218.069,238.872 218.397 " stroke="none" fill="#fbfbf9" fill-rule="evenodd"></path><path id="path2" d="M235.352 165.094 C 216.648 167.226,203.915 171.832,190.564 181.294 C 135.586 220.258,141.360 303.155,201.186 333.778 C 272.899 370.485,353.637 301.918,328.470 225.682 C 315.790 187.272,274.795 160.598,235.352 165.094 M253.537 176.728 C 293.569 181.694,322.866 215.674,321.761 255.859 C 320.159 314.104,258.452 350.426,206.286 323.830 C 158.851 299.647,149.097 235.909,187.102 198.481 C 204.570 181.278,228.102 173.573,253.537 176.728 M231.272 187.955 C 221.262 189.704,209.555 194.763,201.421 200.855 C 198.137 203.314,197.728 202.390,205.691 210.519 L 212.553 217.526 215.843 215.381 C 222.388 211.115,228.965 208.540,235.645 207.627 L 237.500 207.374 237.500 197.242 L 237.500 187.109 236.621 187.142 C 236.138 187.159,233.731 187.525,231.272 187.955 M187.561 214.510 C 181.050 223.385,174.609 240.659,174.609 249.250 C 174.609 249.460,178.892 249.609,184.898 249.609 L 195.187 249.609 195.677 246.777 C 196.674 241.018,199.840 233.280,203.301 228.149 L 204.733 226.025 197.344 218.636 L 189.955 211.247 187.561 214.510 " stroke="none" fill="#2ba5d5" fill-rule="evenodd"></path><path id="path3" d="M186.719 58.862 C 151.179 61.531,121.248 88.672,114.859 124.023 C 114.050 128.495,114.279 128.351,107.551 128.643 C 51.807 131.063,28.074 201.235,70.478 238.258 C 84.833 250.791,96.210 253.839,126.602 253.291 L 141.681 253.020 141.930 248.092 C 142.066 245.382,142.542 240.879,142.986 238.086 C 143.430 235.293,143.849 232.656,143.916 232.227 C 143.983 231.797,144.137 231.182,144.260 230.859 C 144.382 230.537,144.837 228.867,145.270 227.148 C 145.704 225.430,146.403 223.027,146.825 221.810 C 147.247 220.593,147.489 219.494,147.364 219.369 C 147.238 219.243,147.313 219.141,147.529 219.141 C 147.835 219.141,148.737 217.002,149.012 215.625 C 149.034 215.518,149.258 215.057,149.512 214.602 C 149.765 214.147,149.862 213.664,149.726 213.528 C 149.590 213.392,149.684 213.281,149.935 213.281 C 150.186 213.281,150.391 213.028,150.391 212.718 C 150.391 212.408,150.719 211.573,151.119 210.862 C 153.094 207.361,155.495 202.723,155.451 202.494 C 155.424 202.352,155.564 202.128,155.762 201.997 C 155.960 201.865,156.791 200.703,157.608 199.414 C 158.426 198.125,159.854 196.082,160.782 194.874 C 161.710 193.666,162.383 192.591,162.277 192.485 C 162.171 192.380,162.530 192.002,163.074 191.645 C 163.618 191.289,164.063 190.839,164.063 190.645 C 164.063 190.338,167.395 186.590,170.315 183.615 C 173.255 180.618,178.961 175.598,181.113 174.113 C 181.977 173.518,183.019 172.727,183.431 172.355 C 183.843 171.984,184.660 171.432,185.247 171.129 C 185.835 170.826,186.662 170.255,187.086 169.859 C 187.511 169.464,187.965 169.141,188.097 169.141 C 188.228 169.141,189.686 168.319,191.336 167.314 C 202.775 160.350,221.087 154.580,234.570 153.690 C 239.500 153.365,239.975 153.364,246.484 153.662 C 258.629 154.218,268.089 156.141,278.711 160.211 C 281.504 161.281,283.965 162.190,284.180 162.231 C 284.395 162.271,284.658 162.409,284.766 162.537 C 284.873 162.666,286.016 163.193,287.305 163.710 C 290.035 164.805,297.670 169.378,302.268 172.672 C 304.029 173.932,305.469 174.898,305.469 174.817 C 305.469 174.736,305.976 175.139,306.597 175.714 C 311.488 180.240,314.243 182.620,314.608 182.635 C 314.845 182.645,315.002 182.845,314.956 183.080 C 314.910 183.315,315.833 184.416,317.007 185.526 C 318.180 186.636,319.141 187.703,319.141 187.896 C 319.141 188.090,319.756 188.739,320.508 189.339 C 321.260 189.939,321.875 190.559,321.875 190.717 C 321.875 191.117,326.168 196.650,326.603 196.811 C 326.798 196.883,326.859 197.102,326.737 197.299 C 326.616 197.495,326.703 197.656,326.930 197.656 C 327.158 197.656,327.344 197.894,327.344 198.185 C 327.344 198.476,327.779 199.183,328.310 199.757 C 328.842 200.331,329.274 200.888,329.270 200.996 C 329.256 201.430,330.660 203.516,330.967 203.516 C 331.148 203.516,331.187 203.691,331.055 203.906 C 330.922 204.121,330.985 204.297,331.196 204.297 C 331.587 204.297,331.659 204.031,332.473 199.609 C 333.680 193.055,332.869 181.684,330.624 173.675 C 324.980 153.540,302.050 133.260,280.895 129.693 C 275.123 128.720,274.255 127.917,273.077 122.461 C 264.350 82.040,228.607 55.716,186.719 58.862 M194.713 80.633 C 199.880 82.792,197.528 88.743,191.303 89.261 C 184.349 89.841,181.040 86.223,184.526 81.852 C 185.861 80.178,191.896 79.456,194.713 80.633 M214.654 83.596 C 221.087 85.809,223.275 89.509,220.054 92.730 C 217.253 95.531,208.047 91.371,208.047 87.305 C 208.047 85.659,209.119 84.059,210.674 83.382 C 212.254 82.695,211.997 82.682,214.654 83.596 M170.227 86.950 C 172.522 88.454,172.647 91.790,170.488 93.888 C 166.278 97.976,162.598 98.847,160.254 96.308 C 157.912 93.772,158.794 91.063,162.859 88.302 C 166.612 85.754,168.010 85.497,170.227 86.950 M235.413 96.250 C 240.196 99.846,240.935 103.319,237.377 105.488 C 235.054 106.905,232.684 106.016,228.758 102.254 C 223.619 97.330,229.632 91.905,235.413 96.250 M151.744 100.946 C 154.386 102.050,155.077 105.452,153.187 108.047 C 149.031 113.749,144.182 114.797,142.059 110.452 C 140.026 106.292,147.346 99.108,151.744 100.946 " stroke="none" fill="#fbe0ad" fill-rule="evenodd"></path><path id="path4" d="M249.026 187.496 C 248.383 188.536,249.033 207.337,249.707 207.207 C 250.083 207.135,250.391 207.242,250.391 207.444 C 250.391 207.647,250.810 207.813,251.323 207.813 C 252.725 207.813,258.676 209.618,261.509 210.902 C 262.883 211.525,264.107 211.935,264.230 211.812 C 264.353 211.689,264.453 211.782,264.453 212.018 C 264.453 212.439,265.926 213.121,266.504 212.968 C 266.665 212.925,266.797 213.062,266.797 213.271 C 266.797 213.601,268.790 214.856,269.323 214.862 C 269.427 214.863,269.984 215.301,270.560 215.834 C 271.136 216.368,271.695 216.717,271.803 216.609 C 271.910 216.501,272.211 216.589,272.471 216.805 C 272.800 217.078,273.107 216.995,273.483 216.531 C 273.945 215.963,273.943 215.914,273.475 216.196 C 273.100 216.422,273.016 216.382,273.209 216.070 C 273.364 215.818,273.624 215.694,273.786 215.795 C 274.172 216.033,279.774 210.393,279.504 210.038 C 279.390 209.888,279.417 209.856,279.563 209.966 C 279.970 210.274,282.037 208.137,281.762 207.692 C 281.629 207.477,281.692 207.408,281.903 207.538 C 282.114 207.668,283.375 206.677,284.705 205.335 L 287.123 202.895 285.538 201.740 C 284.665 201.105,283.394 200.116,282.712 199.541 C 282.030 198.966,281.334 198.581,281.166 198.685 C 280.997 198.789,280.859 198.708,280.859 198.505 C 280.859 198.092,279.067 196.829,278.325 196.721 C 278.061 196.682,277.536 196.342,277.160 195.966 C 276.335 195.141,268.568 191.373,267.531 191.295 C 267.127 191.265,266.797 191.102,266.797 190.932 C 266.797 190.763,266.665 190.653,266.504 190.688 C 266.343 190.723,265.687 190.536,265.046 190.273 C 262.938 189.407,256.488 187.866,255.906 188.089 C 255.592 188.209,255.220 188.121,255.079 187.893 C 254.763 187.381,249.317 187.025,249.026 187.496 M287.797 218.275 L 280.510 225.586 282.189 227.790 C 285.641 232.320,289.061 239.921,290.217 245.635 L 290.903 249.023 300.601 249.128 C 305.935 249.186,310.432 249.098,310.595 248.933 C 311.170 248.352,308.919 236.969,307.199 231.763 C 306.005 228.149,302.275 220.863,299.436 216.602 C 294.996 209.938,296.291 209.752,287.797 218.275 " stroke="none" fill="#f9a452" fill-rule="evenodd"></path><path id="path5" d="M343.871 254.883 C 343.873 256.172,343.946 256.652,344.033 255.950 C 344.120 255.248,344.118 254.193,344.029 253.606 C 343.940 253.019,343.869 253.594,343.871 254.883 M239.569 354.588 C 241.243 354.661,243.880 354.661,245.428 354.587 C 246.976 354.513,245.605 354.453,242.383 354.453 C 239.160 354.454,237.894 354.514,239.569 354.588 " stroke="none" fill="#96a39f" fill-rule="evenodd"></path><path id="path6" d="M248.608 197.461 C 248.608 203.047,248.663 205.278,248.730 202.418 C 248.796 199.559,248.796 194.989,248.729 192.262 C 248.662 189.536,248.607 191.875,248.608 197.461 M241.895 321.754 C 242.271 321.852,242.886 321.852,243.262 321.754 C 243.638 321.655,243.330 321.575,242.578 321.575 C 241.826 321.575,241.519 321.655,241.895 321.754 " stroke="none" fill="#a26554" fill-rule="evenodd"></path><path id="path7" d="M314.440 324.902 L 312.305 327.148 314.551 325.013 C 316.637 323.030,316.976 322.656,316.686 322.656 C 316.625 322.656,315.614 323.667,314.440 324.902 " stroke="none" fill="#c8d1cc" fill-rule="evenodd"></path><path id="path8" d="" stroke="none" fill="#bcb094" fill-rule="evenodd"></path></g></svg>