<svg xmlns="http://www.w3.org/2000/svg" viewBox="0 0 200 40">
  <path d="M31.45 10.97v17.97h-3.82V10.97h3.82zm-7.64 0v17.97H20V10.97h3.81zm11.46 0h3.82v17.97h-3.82V10.97zm7.64 0h3.82v17.97h-3.82V10.97z" fill="#464646"/>
  <path d="M58.14 16.13c-1.27-.6-2.67-.9-4.2-.9-2.7 0-4.89.85-6.57 2.54-1.68 1.7-2.52 3.9-2.52 6.6 0 2.7.84 4.9 2.52 6.58 1.68 1.7 3.87 2.54 6.57 2.54 1.53 0 2.93-.3 4.2-.9v-3.82c-1.27.9-2.67 1.35-4.2 1.35-1.68 0-3.05-.54-4.1-1.63-1.06-1.08-1.59-2.5-1.59-4.24 0-1.74.53-3.15 1.58-4.24 1.06-1.08 2.43-1.63 4.11-1.63 1.53 0 2.93.45 4.2 1.35v-3.6zm13.76-.9c-2.7 0-4.89.85-6.57 2.54-1.68 1.7-2.52 3.9-2.52 6.6 0 2.7.84 4.9 2.52 6.58 1.68 1.7 3.87 2.54 6.57 2.54 2.7 0 4.89-.85 6.57-2.54 1.68-1.7 2.52-3.9 2.52-6.58 0-2.7-.84-4.9-2.52-6.6-1.68-1.7-3.87-2.54-6.57-2.54zm4.1 13.42c-1.06 1.08-2.43 1.63-4.1 1.63-1.68 0-3.05-.54-4.1-1.63-1.06-1.08-1.59-2.5-1.59-4.24 0-1.74.53-3.15 1.58-4.24 1.06-1.08 2.43-1.63 4.11-1.63 1.68 0 3.05.54 4.1 1.63 1.06 1.08 1.59 2.5 1.59 4.24 0 1.74-.53 3.15-1.59 4.24zm25.22-12.52v17.97h-3.82v-9.83l-4.2 6.23-4.2-6.23v9.83h-3.82V16.13h3.82l4.2 6.23 4.2-6.23h3.82zm19.1 14.15v3.82h-12.93V16.13h12.93v3.82h-9.11v3.82h7.64v3.82h-7.64v3.82h9.11zm12.47-14.15c2.7 0 4.89.85 6.57 2.54 1.68 1.7 2.52 3.9 2.52 6.6 0 2.7-.84 4.9-2.52 6.58-1.68 1.7-3.87 2.54-6.57 2.54h-8.11V16.13h8.11zm4.1 13.42c1.06-1.08 1.59-2.5 1.59-4.24 0-1.74-.53-3.15-1.59-4.24-1.06-1.08-2.43-1.63-4.1-1.63h-4.29v11.73h4.29c1.68 0 3.05-.54 4.1-1.63zm19.1-13.42v3.82h-5.73v14.15h-3.82V19.95h-5.73v-3.82h15.28zm12.47 0v3.82h-5.73v14.15h-3.82V19.95h-5.73v-3.82h15.28zm12.46 14.15v3.82h-12.93V16.13h12.93v3.82h-9.11v3.82h7.64v3.82h-7.64v3.82h9.11zm12.47-14.15c2.7 0 4.89.85 6.57 2.54 1.68 1.7 2.52 3.9 2.52 6.6 0 2.7-.84 4.9-2.52 6.58-1.68 1.7-3.87 2.54-6.57 2.54h-8.11V16.13h8.11zm4.1 13.42c1.06-1.08 1.59-2.5 1.59-4.24 0-1.74-.53-3.15-1.59-4.24-1.06-1.08-2.43-1.63-4.1-1.63h-4.29v11.73h4.29c1.68 0 3.05-.54 4.1-1.63z" fill="#464646"/>
</svg>