<svg width="128" height="128" viewBox="0 0 128 128" xmlns="http://www.w3.org/2000/svg">
  <defs>
    <!-- Background blob gradient -->
    <linearGradient id="gradBG" x1="0%" y1="0%" x2="100%" y2="100%">
      <stop offset="0%" stop-color="#fff8e1"></stop>
      <stop offset="100%" stop-color="#e1f5fe"></stop>
    </linearGradient>
    <!-- URL-bar gradient -->
    <linearGradient id="gradBar" x1="0%" y1="0%" x2="100%" y2="0%">
      <stop offset="0%" stop-color="#dcedc8"></stop>
      <stop offset="100%" stop-color="#c8e6c9"></stop>
    </linearGradient>
    <!-- Arrow gradients -->
    <linearGradient id="gradArrow1" x1="0%" y1="0%" x2="100%" y2="0%">
      <stop offset="0%" stop-color="#81d4fa"></stop>
      <stop offset="100%" stop-color="#4fc3f7"></stop>
    </linearGradient>
    <linearGradient id="gradArrow2" x1="100%" y1="0%" x2="0%" y2="0%">
      <stop offset="0%" stop-color="#f8bbd0"></stop>
      <stop offset="100%" stop-color="#d1c4e9"></stop>
    </linearGradient>
    <!-- Accent gradient -->
    <linearGradient id="gradAccent" x1="0%" y1="0%" x2="100%" y2="0%">
      <stop offset="0%" stop-color="#b2dfdb"></stop>
      <stop offset="100%" stop-color="#80cbc4"></stop>
    </linearGradient>
    <!-- Arrowhead markers -->
    <marker id="arrowhead1" markerWidth="6" markerHeight="6" refX="5" refY="3" orient="auto">
      <path d="M0,0 L6,3 L0,6 Z" fill="url(#gradArrow1)"></path>
    </marker>
    <marker id="arrowhead2" markerWidth="6" markerHeight="6" refX="5" refY="3" orient="auto">
      <path d="M0,0 L6,3 L0,6 Z" fill="url(#gradArrow2)"></path>
    </marker>
  </defs>

  <!-- Soft abstract background blob -->
  <path d="M20,80 C40,20 88,20 108,80 Q64,110 20,80 Z" fill="url(#gradBG)" fill-opacity="0.3"></path>

  <!-- URL-bar / domain tag -->
  <rect x="24" y="92" width="80" height="16" rx="4" fill="url(#gradBar)"></rect>
  <circle cx="28" cy="100" r="4" fill="white"></circle>

  <!-- Circular transfer arrows -->
  <path d="M40,64 A28,28 0 0,1 88,64" fill="none" stroke="url(#gradArrow1)" stroke-width="4" stroke-linecap="round" marker-end="url(#arrowhead1)"></path>
  <path d="M88,72 A28,28 0 0,0 40,72" fill="none" stroke="url(#gradArrow2)" stroke-width="4" stroke-linecap="round" marker-end="url(#arrowhead2)"></path>

  <!-- Dotted arc accent -->
  <path d="M32,32 a36,36 0 0,1 64,0" fill="none" stroke="url(#gradAccent)" stroke-width="2" stroke-dasharray="3,3"></path>
</svg>
