<svg id="svg" version="1.1" xmlns="http://www.w3.org/2000/svg" xmlns:xlink="http://www.w3.org/1999/xlink" width="400" height="400" viewBox="0, 0, 400,400"><g id="svgg"><path id="path0" d="M132.031 17.828 C 107.333 21.582,85.685 36.117,73.160 57.356 C 52.678 92.089,60.116 138.386,90.350 164.359 L 91.831 165.632 90.154 169.017 L 88.477 172.402 88.477 196.650 L 88.477 220.898 89.697 223.438 C 91.287 226.748,92.990 229.025,94.922 230.424 L 96.481 231.553 95.525 232.179 C 92.822 233.950,90.212 237.651,89.057 241.350 C 87.995 244.750,87.852 285.686,88.888 289.664 C 89.866 293.423,93.626 298.755,95.780 299.438 C 96.460 299.654,96.290 299.922,94.403 301.603 C 91.898 303.836,90.172 306.472,89.067 309.751 C 87.999 312.922,87.841 354.397,88.882 358.392 C 90.631 365.109,96.187 370.441,103.343 372.271 C 106.928 373.188,321.481 373.524,326.393 372.620 C 334.229 371.179,341.157 364.585,342.567 357.227 C 343.510 352.303,342.937 311.537,341.888 308.944 C 340.683 305.966,338.410 302.807,336.444 301.379 C 335.547 300.728,334.813 300.107,334.813 300.000 C 334.813 299.893,335.547 299.272,336.444 298.621 C 338.410 297.193,340.683 294.034,341.888 291.056 C 342.947 288.438,343.523 247.406,342.562 242.997 C 341.623 238.684,338.931 234.389,335.885 232.343 C 334.990 231.742,334.529 231.250,334.860 231.250 C 336.941 231.250,341.202 225.367,342.371 220.882 C 343.089 218.123,343.267 176.315,342.576 172.612 C 341.000 164.165,332.750 157.422,323.993 157.422 L 322.311 157.422 324.618 152.913 C 336.183 130.308,332.262 102.402,314.867 83.531 C 311.541 79.923,311.399 81.296,315.881 73.740 C 320.881 65.312,321.170 62.803,317.453 60.111 L 315.898 58.984 284.023 58.986 C 252.906 58.987,252.118 59.006,250.875 59.764 C 247.576 61.775,247.125 65.432,249.646 69.733 C 258.767 85.295,265.941 104.581,268.704 120.969 C 269.519 125.805,270.251 127.245,272.415 128.272 C 275.862 129.908,277.601 128.996,283.567 122.427 C 289.140 116.291,288.456 116.348,292.032 121.723 C 298.347 131.213,300.386 141.673,298.075 152.710 C 297.605 154.953,297.133 156.930,297.025 157.105 C 296.816 157.442,204.297 157.560,204.297 157.223 C 204.297 157.114,205.361 155.758,206.661 154.209 C 224.915 132.469,230.772 100.256,221.439 72.932 C 208.748 35.777,170.211 12.025,132.031 17.828 M138.477 47.851 L 138.477 64.062 128.418 64.062 C 119.950 64.062,118.359 63.974,118.359 63.503 C 118.359 61.116,124.087 49.260,128.246 43.038 C 130.573 39.558,137.508 31.641,138.230 31.641 C 138.366 31.640,138.477 38.935,138.477 47.851 M152.594 34.863 C 158.465 40.981,164.361 50.471,167.752 59.263 C 169.801 64.572,170.722 64.063,159.070 64.063 L 148.998 64.063 149.011 47.853 C 149.018 38.937,149.131 31.642,149.263 31.642 C 149.394 31.641,150.893 33.091,152.594 34.863 M120.013 35.645 C 115.046 42.456,108.763 55.358,107.030 62.305 L 106.543 64.258 96.143 64.149 C 90.422 64.090,85.166 64.002,84.462 63.954 L 83.181 63.867 85.392 60.547 C 93.132 48.920,104.235 39.951,116.797 35.177 C 121.936 33.224,121.794 33.203,120.013 35.645 M169.215 34.620 C 181.263 38.950,193.747 48.656,200.705 59.103 C 202.251 61.424,203.516 63.492,203.516 63.699 C 203.516 63.933,199.307 64.035,192.341 63.971 L 181.166 63.867 179.500 59.180 C 176.318 50.230,172.322 42.302,167.934 36.230 C 166.885 34.780,166.102 33.594,166.194 33.594 C 166.285 33.594,167.645 34.056,169.215 34.620 M302.955 72.454 C 296.866 82.843,296.870 82.904,304.101 90.039 C 320.767 106.486,324.068 130.300,312.396 149.897 C 309.596 154.597,309.573 154.599,310.122 150.129 C 312.064 134.291,307.312 120.092,296.035 108.036 C 289.168 100.695,286.718 100.490,281.061 106.786 C 279.589 108.424,278.319 109.700,278.240 109.620 C 278.160 109.540,277.495 107.211,276.762 104.444 C 274.251 94.960,270.646 85.234,265.088 72.949 L 264.072 70.703 284.026 70.703 L 303.980 70.703 302.955 72.454 M103.077 78.809 C 102.454 81.778,101.591 88.357,100.924 95.215 L 100.725 97.266 87.050 97.266 L 73.375 97.266 73.577 96.191 C 73.689 95.601,73.890 94.063,74.026 92.773 C 74.381 89.392,75.654 83.180,76.847 79.004 L 77.880 75.391 90.838 75.391 L 103.795 75.391 103.077 78.809 M138.281 86.328 L 138.281 97.266 125.195 97.266 L 112.109 97.266 112.109 95.940 C 112.109 92.696,113.962 78.406,114.685 76.074 C 114.880 75.443,115.794 75.391,126.589 75.391 L 138.281 75.391 138.281 86.328 M173.386 80.762 C 174.524 88.149,175.000 92.349,175.000 95.009 L 175.000 97.266 162.109 97.266 L 149.219 97.266 149.219 86.328 L 149.219 75.391 160.889 75.391 L 172.559 75.391 173.386 80.762 M210.366 78.723 C 211.504 82.453,213.079 89.700,213.462 92.969 C 213.600 94.150,213.806 95.601,213.919 96.191 L 214.125 97.266 200.439 97.266 L 186.754 97.266 186.573 95.996 C 186.473 95.298,186.195 92.497,185.955 89.771 C 185.569 85.384,184.407 78.118,183.769 76.110 C 183.551 75.421,184.090 75.391,196.445 75.391 L 209.350 75.391 210.366 78.723 M100.963 110.840 C 101.627 118.003,103.043 127.219,103.771 129.117 C 103.966 129.626,102.469 129.686,91.793 129.595 L 79.592 129.492 78.440 126.367 C 76.438 120.938,73.828 110.854,73.828 108.551 C 73.828 108.354,79.684 108.203,87.274 108.203 L 100.719 108.203 100.963 110.840 M138.281 118.945 L 138.281 129.688 126.809 129.688 L 115.336 129.688 114.513 125.684 C 113.665 121.553,112.757 115.452,112.305 110.840 L 112.047 108.203 125.164 108.203 L 138.281 108.203 138.281 118.945 M174.922 112.207 C 174.528 117.576,173.264 126.019,172.409 129.004 C 172.228 129.635,171.330 129.688,160.716 129.688 L 149.219 129.688 149.219 118.945 L 149.219 108.203 162.218 108.203 L 175.217 108.203 174.922 112.207 M213.672 108.806 C 213.672 111.101,210.907 121.517,208.951 126.588 L 207.756 129.688 195.737 129.688 L 183.719 129.688 184.406 126.074 C 185.280 121.480,186.328 113.328,186.328 111.129 C 186.328 107.969,185.215 108.203,200.237 108.203 C 212.082 108.203,213.672 108.274,213.672 108.806 M108.150 145.728 C 110.123 151.181,114.767 160.707,117.354 164.609 C 118.337 166.091,119.141 167.355,119.141 167.419 C 119.141 167.732,113.060 164.972,109.961 163.253 C 101.140 158.358,92.334 150.596,86.792 142.829 L 85.498 141.016 95.972 141.016 L 106.445 141.017 108.150 145.728 M138.370 156.055 C 138.429 164.326,138.376 171.094,138.253 171.094 C 137.241 171.093,131.050 164.004,127.576 158.868 C 124.279 153.992,118.750 142.927,118.750 141.202 C 118.750 141.100,123.140 141.016,128.507 141.016 L 138.263 141.016 138.370 156.055 M168.750 141.357 C 168.750 146.411,152.741 170.709,149.414 170.704 C 149.159 170.704,149.060 165.566,149.130 155.860 L 149.237 141.016 158.993 141.016 C 164.360 141.016,168.750 141.169,168.750 141.357 M201.172 141.368 C 201.172 143.272,189.979 154.795,183.969 159.080 C 180.826 161.320,168.827 167.785,168.471 167.430 C 168.407 167.365,169.159 166.097,170.143 164.613 C 172.764 160.658,176.976 151.968,179.106 146.122 L 180.966 141.016 191.069 141.016 C 196.810 141.016,201.172 141.168,201.172 141.368 M326.679 170.059 C 330.964 171.849,330.906 171.468,330.775 196.937 L 330.664 218.678 329.470 220.154 C 328.813 220.965,327.789 221.992,327.195 222.436 L 326.115 223.242 216.671 223.353 C 97.246 223.474,105.305 223.602,103.041 221.560 C 99.912 218.740,100.018 219.618,100.009 196.374 C 99.998 170.346,99.694 171.526,105.609 174.640 C 131.474 188.257,162.760 186.981,187.989 171.281 L 190.800 169.531 258.108 169.531 C 313.755 169.531,325.635 169.623,326.679 170.059 M121.680 189.143 C 115.995 191.130,114.333 198.338,118.581 202.585 C 124.435 208.440,134.330 203.460,132.835 195.411 C 131.929 190.531,126.475 187.467,121.680 189.143 M272.498 189.948 C 266.761 193.229,266.868 201.144,272.688 204.044 L 274.763 205.078 291.023 205.078 C 309.704 205.078,309.859 205.056,312.489 202.068 C 315.868 198.230,314.758 192.381,310.192 189.971 L 308.471 189.063 291.247 189.069 C 274.145 189.075,274.013 189.081,272.498 189.948 M327.097 239.973 C 327.894 240.581,329.023 241.799,329.605 242.678 L 330.664 244.278 330.772 265.304 C 330.868 284.147,330.813 286.461,330.239 287.598 C 329.418 289.224,327.828 290.934,326.484 291.636 C 324.895 292.467,106.350 292.465,104.766 291.635 C 103.230 290.830,101.302 288.693,100.606 287.024 C 99.860 285.236,99.683 246.598,100.412 244.654 C 101.146 242.698,102.825 240.615,104.459 239.635 L 106.055 238.677 215.851 238.772 L 325.647 238.867 327.097 239.973 M122.173 257.788 C 112.836 260.798,115.040 273.828,124.887 273.828 C 133.043 273.828,136.115 262.878,129.110 258.773 C 127.226 257.669,123.975 257.207,122.173 257.788 M272.664 258.691 C 267.025 261.572,266.752 269.359,272.178 272.548 L 274.023 273.633 290.524 273.746 C 308.955 273.873,309.320 273.834,311.943 271.416 C 316.274 267.423,314.909 260.744,309.259 258.288 C 306.958 257.287,274.716 257.643,272.664 258.691 M326.147 307.995 C 327.769 308.834,330.416 312.008,330.672 313.423 C 330.794 314.097,330.843 323.904,330.779 335.216 L 330.664 355.783 329.443 357.481 C 328.772 358.415,327.541 359.572,326.709 360.052 L 325.195 360.925 215.707 360.931 C 92.547 360.938,104.767 361.241,102.138 358.123 C 99.965 355.545,100.000 355.936,100.000 334.237 L 100.000 314.152 101.089 312.056 C 101.840 310.609,102.760 309.568,104.062 308.691 L 105.948 307.422 215.493 307.422 C 310.990 307.422,325.181 307.495,326.147 307.995 M122.406 326.545 C 115.062 328.296,114.023 338.728,120.882 341.844 C 125.585 343.980,131.284 341.560,132.655 336.843 C 134.477 330.574,128.920 324.991,122.406 326.545 M273.449 326.997 C 267.406 329.409,266.481 337.445,271.814 341.195 L 273.504 342.383 290.966 342.492 L 308.428 342.601 310.171 341.681 C 315.878 338.668,315.840 330.445,310.106 327.587 L 308.050 326.563 291.232 326.587 C 281.157 326.602,274.027 326.766,273.449 326.997 " stroke="none" fill="#131b52" fill-rule="evenodd"></path><path id="path1" d="M141.895 17.081 C 142.700 17.166,144.019 17.166,144.824 17.081 C 145.630 16.997,144.971 16.928,143.359 16.928 C 141.748 16.928,141.089 16.997,141.895 17.081 M268.652 58.887 C 277.085 58.945,290.884 58.945,299.316 58.887 C 307.749 58.828,300.850 58.780,283.984 58.780 C 267.119 58.780,260.220 58.828,268.652 58.887 M265.088 72.949 C 270.646 85.234,274.251 94.960,276.762 104.444 C 277.495 107.211,278.160 109.540,278.240 109.620 C 278.319 109.700,279.589 108.424,281.061 106.786 C 286.718 100.490,289.168 100.695,296.035 108.036 C 307.312 120.092,312.064 134.291,310.122 150.129 C 309.573 154.599,309.596 154.597,312.396 149.897 C 324.068 130.300,320.767 106.486,304.101 90.039 C 296.870 82.904,296.866 82.843,302.955 72.454 L 303.980 70.703 284.026 70.703 L 264.072 70.703 265.088 72.949 M61.453 100.391 C 61.453 101.787,61.524 102.358,61.611 101.660 C 61.697 100.962,61.697 99.819,61.611 99.121 C 61.524 98.423,61.453 98.994,61.453 100.391 M298.927 144.336 C 298.931 145.195,299.011 145.501,299.104 145.015 C 299.198 144.529,299.194 143.826,299.097 143.452 C 298.999 143.079,298.922 143.477,298.927 144.336 M187.989 171.281 C 162.760 186.981,131.474 188.257,105.609 174.640 C 99.694 171.526,99.998 170.346,100.009 196.374 C 100.018 219.618,99.912 218.740,103.041 221.560 C 105.305 223.602,97.246 223.474,216.671 223.353 L 326.115 223.242 327.195 222.436 C 327.789 221.992,328.813 220.965,329.470 220.154 L 330.664 218.678 330.775 196.937 C 330.898 172.971,330.965 174.030,329.200 172.019 C 326.852 169.345,332.163 169.531,258.108 169.531 L 190.800 169.531 187.989 171.281 M88.073 196.289 C 88.073 207.891,88.123 212.580,88.183 206.711 C 88.244 200.841,88.244 191.349,88.183 185.617 C 88.122 179.885,88.073 184.688,88.073 196.289 M128.465 189.696 C 134.543 192.725,134.457 201.563,128.324 204.350 C 123.635 206.480,117.655 203.820,116.459 199.072 C 114.671 191.969,121.821 186.385,128.465 189.696 M310.192 189.971 C 314.758 192.381,315.868 198.230,312.489 202.068 C 309.859 205.056,309.704 205.078,291.023 205.078 L 274.763 205.078 272.688 204.044 C 266.868 201.144,266.761 193.229,272.498 189.948 C 274.013 189.081,274.145 189.075,291.247 189.069 L 308.471 189.063 310.192 189.971 M104.459 239.635 C 102.825 240.615,101.146 242.698,100.412 244.654 C 99.683 246.598,99.860 285.236,100.606 287.024 C 101.302 288.693,103.230 290.830,104.766 291.635 C 106.350 292.465,324.895 292.467,326.484 291.636 C 327.828 290.934,329.418 289.224,330.239 287.598 C 330.813 286.461,330.868 284.147,330.772 265.304 L 330.664 244.278 329.605 242.678 C 329.023 241.799,327.894 240.581,327.097 239.973 L 325.647 238.867 215.851 238.772 L 106.055 238.677 104.459 239.635 M88.071 265.625 C 88.071 276.045,88.122 280.308,88.183 275.098 C 88.245 269.888,88.245 261.362,88.183 256.152 C 88.122 250.942,88.071 255.205,88.071 265.625 M129.110 258.773 C 132.260 260.620,133.715 264.445,132.655 268.093 C 130.336 276.069,118.065 275.568,116.429 267.430 C 114.975 260.194,122.624 254.972,129.110 258.773 M309.259 258.288 C 314.909 260.744,316.274 267.423,311.943 271.416 C 309.320 273.834,308.955 273.873,290.524 273.746 L 274.023 273.633 272.178 272.548 C 266.752 269.359,267.025 261.572,272.664 258.691 C 274.716 257.643,306.958 257.287,309.259 258.288 M104.062 308.691 C 102.760 309.568,101.840 310.609,101.089 312.056 L 100.000 314.152 100.000 334.237 C 100.000 355.936,99.965 355.545,102.138 358.123 C 104.767 361.241,92.547 360.938,215.707 360.931 L 325.195 360.925 326.709 360.052 C 327.541 359.572,328.772 358.415,329.443 357.481 L 330.664 355.783 330.779 335.216 C 330.843 323.904,330.794 314.097,330.672 313.423 C 330.416 312.008,327.769 308.834,326.147 307.995 C 325.181 307.495,310.990 307.422,215.493 307.422 L 105.948 307.422 104.062 308.691 M88.071 333.398 C 88.071 343.496,88.121 347.683,88.183 342.703 C 88.245 337.722,88.245 329.461,88.183 324.343 C 88.122 319.226,88.071 323.301,88.071 333.398 M127.175 326.746 C 136.370 329.483,134.171 342.610,124.524 342.570 C 113.613 342.524,113.533 326.752,124.441 326.212 C 124.885 326.190,126.116 326.430,127.175 326.746 M310.106 327.587 C 315.840 330.445,315.878 338.668,310.171 341.681 L 308.428 342.601 290.966 342.492 L 273.504 342.383 271.814 341.195 C 266.481 337.445,267.406 329.409,273.449 326.997 C 274.027 326.766,281.157 326.602,291.232 326.587 L 308.050 326.563 310.106 327.587 " stroke="none" fill="#3ca584" fill-rule="evenodd"></path><path id="path2" d="M136.365 33.439 C 129.692 39.439,118.359 58.529,118.359 63.771 C 118.359 63.931,122.834 64.063,128.304 64.063 L 138.248 64.063 138.362 47.949 C 138.425 39.087,138.457 31.787,138.433 31.727 C 138.409 31.668,137.479 32.438,136.365 33.439 M149.219 46.208 C 149.219 54.034,149.107 61.253,148.970 62.250 L 148.722 64.062 158.931 64.063 C 165.762 64.063,169.141 63.928,169.141 63.655 C 169.141 58.174,156.264 37.062,150.293 32.753 L 149.219 31.978 149.219 46.208 M117.166 35.104 C 104.069 40.261,93.362 48.798,85.789 60.118 C 84.582 61.924,83.594 63.550,83.594 63.732 C 83.594 63.914,88.428 64.092,94.336 64.128 C 100.244 64.163,105.354 64.207,105.691 64.225 C 106.131 64.249,106.666 63.154,107.583 60.352 C 110.615 51.088,115.404 41.553,120.142 35.346 C 121.739 33.254,121.843 33.262,117.166 35.104 M166.406 33.854 C 166.406 33.944,167.080 34.933,167.903 36.052 C 172.018 41.642,176.464 50.381,179.520 58.887 L 181.380 64.063 192.448 64.063 C 198.535 64.063,203.516 63.977,203.516 63.873 C 203.516 63.530,201.045 59.610,199.467 57.448 C 193.457 49.220,184.526 41.801,175.195 37.286 C 171.745 35.617,166.406 33.532,166.406 33.854 M77.731 76.375 C 76.344 80.023,73.829 92.480,73.828 95.703 L 73.828 97.070 87.244 96.963 L 100.659 96.855 101.145 91.689 C 101.562 87.249,102.460 81.157,103.362 76.645 L 103.613 75.391 90.859 75.391 L 78.106 75.391 77.731 76.375 M114.485 77.441 C 113.901 80.332,112.989 86.806,112.712 90.039 C 112.582 91.543,112.382 93.692,112.266 94.814 L 112.056 96.854 125.169 96.962 L 138.282 97.070 138.281 86.230 L 138.281 75.391 126.590 75.391 L 114.899 75.391 114.485 77.441 M149.219 86.127 L 149.219 96.875 162.109 96.875 L 175.000 96.875 175.000 95.410 C 174.999 93.384,173.925 84.345,173.116 79.556 L 172.446 75.586 160.832 75.482 L 149.219 75.379 149.219 86.127 M184.015 76.660 C 184.858 79.584,186.697 92.956,186.714 96.289 C 186.718 97.057,186.944 97.069,200.248 96.963 L 213.778 96.855 213.509 94.236 C 213.105 90.293,211.871 84.288,210.500 79.590 L 209.274 75.391 196.461 75.391 L 183.648 75.391 184.015 76.660 M74.040 109.668 C 74.902 114.770,77.383 123.547,79.505 129.004 C 79.750 129.634,80.706 129.688,91.811 129.688 L 103.852 129.688 103.483 128.418 C 102.782 126.001,101.596 118.443,101.118 113.334 L 100.637 108.203 87.215 108.203 L 73.793 108.203 74.040 109.668 M112.387 110.254 C 112.687 114.022,113.652 120.853,114.513 125.293 L 115.365 129.688 126.823 129.688 L 138.281 129.688 138.281 118.945 L 138.281 108.203 125.253 108.203 L 112.224 108.203 112.387 110.254 M149.219 118.945 L 149.219 129.688 160.742 129.688 C 167.080 129.688,172.266 129.644,172.267 129.590 C 172.267 129.536,172.625 127.654,173.061 125.406 C 173.948 120.838,175.000 112.407,175.000 109.866 L 175.000 108.203 162.109 108.203 L 149.219 108.203 149.219 118.945 M186.561 110.254 C 185.660 118.912,185.397 120.985,184.740 124.609 C 184.331 126.865,183.994 128.931,183.990 129.199 C 183.986 129.579,186.616 129.688,195.855 129.688 L 207.726 129.688 209.107 125.879 C 211.180 120.166,213.672 110.705,213.672 108.551 C 213.672 108.354,207.820 108.203,200.223 108.203 L 186.775 108.203 186.561 110.254 M85.938 141.319 C 85.938 142.731,94.572 152.093,99.591 156.122 C 104.882 160.369,118.300 168.159,119.044 167.414 C 119.099 167.359,118.155 165.835,116.945 164.028 C 113.614 159.051,108.052 146.996,106.825 142.090 L 106.556 141.016 96.247 141.016 C 90.577 141.016,85.938 141.152,85.938 141.319 M118.750 141.162 C 118.750 144.962,128.603 161.323,134.654 167.572 L 138.253 171.289 138.267 156.152 L 138.281 141.016 128.516 141.016 C 123.145 141.016,118.750 141.081,118.750 141.162 M149.219 155.873 C 149.219 173.146,148.730 172.036,153.904 166.514 C 159.530 160.511,168.750 144.790,168.750 141.202 C 168.750 141.100,164.355 141.016,158.984 141.016 L 149.219 141.016 149.219 155.873 M179.854 144.238 C 177.588 151.068,173.121 160.402,169.738 165.378 C 169.174 166.209,168.764 166.938,168.828 166.999 C 169.359 167.502,179.896 161.834,184.565 158.535 C 189.976 154.711,201.145 143.123,201.168 141.309 C 201.170 141.147,196.616 141.016,191.048 141.016 L 180.924 141.016 179.854 144.238 " stroke="none" fill="#f0963a" fill-rule="evenodd"></path><path id="path3" d="M0.000 200.000 L 0.000 400.000 200.000 400.000 L 400.000 400.000 400.000 200.000 L 400.000 0.000 200.000 0.000 L 0.000 0.000 0.000 200.000 M155.218 17.823 C 220.144 26.683,248.454 106.057,204.765 156.738 C 204.204 157.389,206.417 157.422,250.495 157.422 L 296.814 157.422 297.240 156.133 C 299.395 149.602,299.316 138.530,297.066 131.836 C 295.686 127.730,290.758 119.147,288.889 117.597 C 288.522 117.291,287.194 118.520,283.573 122.515 C 278.576 128.029,277.359 128.907,274.720 128.905 C 271.232 128.901,269.546 126.703,268.606 120.938 C 266.109 105.609,259.330 87.049,250.521 71.420 C 246.542 64.361,247.227 60.467,252.708 58.992 C 255.661 58.196,315.163 58.643,316.679 59.472 C 321.375 62.040,321.258 64.652,316.049 73.575 L 312.026 80.466 314.986 83.613 C 332.213 101.926,336.212 130.699,324.631 153.016 L 322.344 157.422 324.578 157.422 C 332.607 157.422,340.250 163.553,342.371 171.696 C 343.100 174.496,343.253 217.627,342.545 220.703 C 341.606 224.777,336.997 231.250,335.034 231.250 C 334.787 231.250,335.250 231.703,336.064 232.256 C 337.964 233.546,340.714 237.284,341.870 240.147 C 342.897 242.688,343.516 284.468,342.591 288.780 C 341.758 292.668,337.666 298.708,335.156 299.756 C 334.635 299.973,334.635 300.027,335.156 300.246 C 337.681 301.304,341.687 307.301,342.559 311.328 C 343.537 315.845,342.948 357.588,341.870 360.176 C 339.666 365.467,334.913 369.912,329.297 371.937 L 326.758 372.852 216.482 372.953 C 118.694 373.042,105.914 372.986,103.631 372.457 C 96.683 370.845,90.776 365.280,88.771 358.457 C 88.018 355.897,87.575 319.552,88.226 313.769 C 88.761 309.012,90.270 305.803,93.556 302.435 L 95.982 299.949 93.679 297.752 C 88.323 292.644,87.897 290.276,87.897 265.625 C 87.896 241.306,88.318 238.973,93.662 233.712 L 95.985 231.424 94.222 229.891 C 88.319 224.756,88.086 223.473,88.086 196.094 C 88.086 171.165,88.032 171.721,90.842 167.476 L 91.848 165.954 87.738 162.059 C 52.954 129.097,52.797 72.251,87.399 39.409 C 105.498 22.230,130.109 14.396,155.218 17.823 " stroke="none" fill="#fbfbfb" fill-rule="evenodd"></path><path id="path4" d="M148.940 59.961 C 148.943 61.035,149.019 61.428,149.108 60.834 C 149.198 60.241,149.196 59.362,149.103 58.881 C 149.010 58.401,148.937 58.887,148.940 59.961 M213.672 96.479 C 213.672 96.723,208.760 96.904,200.293 96.973 L 186.914 97.081 200.488 97.173 C 212.335 97.254,214.063 97.191,214.063 96.680 C 214.063 96.357,213.975 96.094,213.867 96.094 C 213.760 96.094,213.672 96.267,213.672 96.479 M80.762 97.167 C 84.468 97.232,90.532 97.232,94.238 97.167 C 97.944 97.103,94.912 97.051,87.500 97.051 C 80.088 97.051,77.056 97.103,80.762 97.167 M118.457 97.167 C 122.056 97.232,127.944 97.232,131.543 97.167 C 135.142 97.103,132.197 97.050,125.000 97.050 C 117.803 97.050,114.858 97.103,118.457 97.167 M155.566 97.167 C 159.165 97.232,165.054 97.232,168.652 97.167 C 172.251 97.103,169.307 97.050,162.109 97.050 C 154.912 97.050,151.968 97.103,155.566 97.167 " stroke="none" fill="#9f6247" fill-rule="evenodd"></path></g></svg>