<svg id="svg" version="1.1" xmlns="http://www.w3.org/2000/svg" xmlns:xlink="http://www.w3.org/1999/xlink" width="400" height="400" viewBox="0, 0, 400,400"><g id="svgg"><path id="path0" d="M242.366 184.007 C 181.148 195.401,155.911 269.060,197.332 315.447 C 245.624 369.530,336.037 335.545,336.112 263.281 C 336.154 222.034,308.550 189.679,268.309 183.809 C 262.207 182.919,247.615 183.030,242.366 184.007 M261.864 194.928 C 324.938 200.153,347.853 278.649,297.461 316.864 C 253.124 350.488,188.966 318.250,188.879 262.305 C 188.816 222.185,221.926 191.619,261.864 194.928 M254.391 212.107 C 251.494 213.873,251.566 213.344,251.564 233.138 L 251.563 250.847 249.027 253.208 C 241.751 259.986,242.934 269.799,251.505 273.754 C 259.060 277.240,267.194 272.894,268.935 264.440 C 269.660 260.925,268.920 261.664,281.554 251.832 C 293.190 242.777,294.295 241.307,292.306 237.528 C 289.490 232.177,287.615 232.777,274.219 243.318 C 264.428 251.022,263.211 251.789,262.737 250.554 C 262.607 250.214,262.500 241.976,262.500 232.247 C 262.500 214.693,262.494 214.550,261.653 213.482 C 259.977 211.351,256.660 210.724,254.391 212.107 M201.132 258.704 C 195.774 262.304,199.222 267.578,206.933 267.578 L 211.406 267.578 212.734 266.250 C 215.032 263.953,214.364 259.773,211.482 258.405 C 209.355 257.396,202.797 257.585,201.132 258.704 M257.990 259.618 C 258.338 259.751,258.884 260.365,259.202 260.981 C 260.727 263.930,257.220 266.649,254.810 264.385 C 252.548 262.259,255.060 258.493,257.990 259.618 M254.309 307.118 C 252.261 308.201,251.563 309.930,251.563 313.918 L 251.563 317.563 252.637 317.855 C 254.588 318.386,259.972 318.215,260.715 317.600 C 262.031 316.510,261.451 309.706,259.911 308.167 C 258.497 306.755,255.912 306.271,254.309 307.118 " stroke="none" fill="#113952" fill-rule="evenodd"></path><path id="path1" d="M0.000 200.000 L 0.000 400.000 200.000 400.000 L 400.000 400.000 400.000 200.000 L 400.000 0.000 200.000 0.000 L 0.000 0.000 0.000 200.000 M213.281 68.890 C 247.266 74.777,273.577 97.684,282.042 128.754 L 282.905 131.923 285.886 132.153 C 338.854 136.241,367.863 199.228,336.639 242.351 L 334.682 245.053 335.320 248.796 C 342.589 291.487,315.885 331.013,273.438 340.391 C 228.285 350.367,182.970 318.286,177.598 272.542 L 177.130 268.555 139.639 268.334 C 97.524 268.086,99.512 268.220,90.544 265.022 C 47.298 249.602,32.500 199.322,60.208 161.947 C 72.046 145.978,90.573 135.938,108.200 135.938 L 110.517 135.938 110.940 134.277 C 119.684 99.969,148.066 75.096,185.742 68.724 C 191.044 67.827,207.726 67.928,213.281 68.890 M253.423 195.198 C 253.908 195.292,254.612 195.288,254.985 195.190 C 255.358 195.092,254.961 195.016,254.102 195.020 C 253.242 195.025,252.937 195.105,253.423 195.198 M257.706 195.204 C 258.400 195.290,259.630 195.292,260.441 195.207 C 261.251 195.122,260.684 195.052,259.180 195.050 C 257.676 195.048,257.013 195.118,257.706 195.204 M289.063 202.910 C 289.063 203.017,289.590 203.378,290.234 203.711 C 290.879 204.044,291.406 204.229,291.406 204.122 C 291.406 204.014,290.879 203.654,290.234 203.320 C 289.590 202.987,289.063 202.802,289.063 202.910 M253.711 207.285 C 232.192 208.969,217.112 218.685,207.295 237.190 C 203.358 244.612,199.355 259.384,201.608 258.179 C 202.982 257.444,210.614 257.737,211.993 258.578 C 219.186 262.964,209.719 271.120,201.916 267.259 C 200.548 266.582,200.416 266.568,200.947 267.155 C 201.286 267.529,201.563 268.482,201.563 269.273 C 201.563 275.559,206.184 287.420,211.597 295.028 C 219.957 306.779,235.875 316.162,249.316 317.263 L 251.563 317.447 251.563 313.782 C 251.563 308.517,252.845 306.641,256.445 306.641 C 260.044 306.641,261.328 308.517,261.328 313.777 L 261.328 317.437 264.160 317.116 C 301.628 312.873,323.724 271.646,306.621 237.891 C 299.005 222.860,286.456 212.926,269.922 208.840 C 266.638 208.028,256.549 206.808,255.510 207.097 C 255.380 207.133,254.570 207.218,253.711 207.285 M208.781 214.160 L 205.273 217.773 208.887 214.266 C 210.874 212.337,212.500 210.711,212.500 210.653 C 212.500 210.369,212.039 210.804,208.781 214.160 M259.687 211.877 C 260.268 212.179,261.182 212.896,261.719 213.471 L 262.695 214.515 262.804 232.886 C 262.908 250.446,262.945 251.249,263.626 251.071 C 264.018 250.968,268.682 247.477,273.991 243.313 C 287.286 232.884,287.694 232.706,291.069 235.854 C 295.909 240.369,293.775 243.089,273.309 258.484 C 269.955 261.006,269.795 261.241,269.001 264.800 C 267.499 271.527,262.473 275.356,255.722 274.915 C 244.119 274.157,239.935 259.333,249.434 252.637 L 251.117 251.451 251.242 233.440 C 251.381 213.439,251.343 213.727,254.023 212.094 C 255.500 211.193,258.176 211.091,259.687 211.877 M304.492 214.453 C 305.985 215.957,307.294 217.188,307.401 217.188 C 307.508 217.188,306.375 215.957,304.883 214.453 C 303.390 212.949,302.081 211.719,301.974 211.719 C 301.867 211.719,303.000 212.949,304.492 214.453 M198.528 262.891 C 198.528 263.643,198.609 263.950,198.707 263.574 C 198.805 263.198,198.805 262.583,198.707 262.207 C 198.609 261.831,198.528 262.139,198.528 262.891 M194.950 290.430 C 194.950 290.645,195.201 291.260,195.508 291.797 C 195.815 292.334,196.066 292.598,196.066 292.383 C 196.066 292.168,195.815 291.553,195.508 291.016 C 195.201 290.479,194.950 290.215,194.950 290.430 M202.734 303.516 C 203.415 304.375,204.060 305.078,204.167 305.078 C 204.275 305.078,203.806 304.375,203.125 303.516 C 202.444 302.656,201.800 301.953,201.692 301.953 C 201.585 301.953,202.054 302.656,202.734 303.516 M304.680 310.059 L 300.977 313.867 304.785 310.164 C 306.880 308.127,308.594 306.413,308.594 306.355 C 308.594 306.072,308.119 306.521,304.680 310.059 M207.422 309.107 C 207.422 309.174,207.993 309.745,208.691 310.376 L 209.961 311.523 208.814 310.254 C 207.744 309.071,207.422 308.805,207.422 309.107 M210.938 312.232 C 210.938 312.299,211.509 312.870,212.207 313.501 L 213.477 314.648 212.329 313.379 C 211.260 312.196,210.938 311.930,210.938 312.232 " stroke="none" fill="#fbfbf9" fill-rule="evenodd"></path><path id="path2" d="M196.680 83.052 C 194.362 83.388,193.857 83.593,192.835 84.616 C 188.447 89.004,196.285 94.293,203.122 91.557 C 210.296 88.687,205.104 81.833,196.680 83.052 M175.758 86.065 C 166.426 88.659,167.883 98.249,177.255 95.922 C 182.510 94.618,184.375 93.105,184.375 90.145 C 184.375 86.846,180.147 84.845,175.758 86.065 M217.721 86.687 C 212.717 89.738,215.642 95.450,222.491 95.999 C 227.093 96.369,229.578 94.566,229.192 91.138 C 228.800 87.658,221.056 84.653,217.721 86.687 M157.091 94.348 C 153.784 95.784,150.257 99.939,150.527 102.081 C 150.949 105.433,155.025 107.283,158.320 105.618 C 165.270 102.107,164.093 91.308,157.091 94.348 M140.430 110.021 C 135.544 112.583,132.668 118.783,135.194 121.309 C 138.134 124.250,142.797 122.414,145.166 117.383 C 147.527 112.371,144.605 107.831,140.430 110.021 M127.639 130.762 C 124.410 134.078,122.804 140.563,124.673 142.735 C 126.762 145.164,131.480 144.342,132.789 141.322 C 136.331 133.147,132.655 125.609,127.639 130.762 M253.418 183.102 C 254.761 183.178,256.958 183.178,258.301 183.102 C 259.644 183.025,258.545 182.963,255.859 182.963 C 253.174 182.963,252.075 183.025,253.418 183.102 M252.344 194.941 C 252.344 195.211,251.544 195.261,250.000 195.086 C 248.315 194.896,247.656 194.950,247.656 195.280 C 247.656 195.593,247.221 195.657,246.289 195.482 C 245.382 195.312,244.922 195.374,244.922 195.667 C 244.922 195.943,244.556 196.017,243.945 195.864 C 243.336 195.711,242.969 195.784,242.969 196.059 C 242.969 196.334,242.601 196.407,241.992 196.254 C 241.455 196.119,241.016 196.169,241.016 196.365 C 241.016 196.560,240.362 196.739,239.563 196.761 C 238.764 196.784,238.049 196.985,237.975 197.207 C 237.901 197.430,237.588 197.516,237.279 197.397 C 236.971 197.279,236.719 197.360,236.719 197.578 C 236.719 197.796,236.340 197.875,235.876 197.753 C 235.245 197.588,235.114 197.663,235.355 198.052 C 235.588 198.429,235.498 198.502,235.025 198.321 C 234.668 198.184,234.375 198.236,234.375 198.438 C 234.375 198.639,234.111 198.702,233.789 198.579 C 233.467 198.455,233.203 198.543,233.203 198.774 C 233.203 199.005,232.911 199.082,232.553 198.945 C 232.119 198.778,231.996 198.846,232.183 199.148 C 232.360 199.435,232.259 199.522,231.907 199.387 C 231.601 199.270,231.085 199.439,230.761 199.764 C 230.437 200.088,230.062 200.245,229.929 200.112 C 229.796 199.979,229.688 200.085,229.688 200.349 C 229.688 200.612,229.512 200.719,229.297 200.586 C 229.082 200.453,228.906 200.541,228.906 200.781 C 228.906 201.021,228.746 201.119,228.551 200.998 C 228.049 200.688,226.914 201.182,227.171 201.599 C 227.288 201.789,227.112 201.839,226.778 201.712 C 226.444 201.583,226.172 201.683,226.172 201.934 C 226.172 202.185,225.996 202.281,225.781 202.148 C 225.566 202.016,225.391 202.122,225.391 202.386 C 225.391 202.649,225.288 202.762,225.162 202.636 C 224.835 202.309,222.656 203.127,222.656 203.577 C 222.656 203.783,222.480 203.844,222.266 203.711 C 222.051 203.578,221.875 203.685,221.875 203.948 C 221.875 204.212,221.761 204.313,221.621 204.173 C 221.481 204.033,221.116 204.223,220.810 204.596 C 220.443 205.044,220.342 205.075,220.513 204.688 C 220.655 204.365,220.389 204.541,219.922 205.078 C 219.455 205.615,219.191 205.791,219.336 205.469 C 219.481 205.146,219.217 205.322,218.750 205.859 C 218.283 206.396,218.019 206.572,218.164 206.250 C 218.309 205.928,218.045 206.104,217.578 206.641 C 217.111 207.178,216.852 207.354,217.001 207.031 C 217.151 206.709,216.802 206.973,216.226 207.617 C 215.649 208.262,215.302 208.525,215.453 208.203 C 215.604 207.881,215.158 208.232,214.461 208.984 C 213.765 209.736,213.412 210.000,213.678 209.570 C 213.944 209.141,213.441 209.580,212.561 210.547 C 211.681 211.514,210.956 212.135,210.949 211.927 C 210.943 211.720,209.979 212.497,208.807 213.654 C 207.635 214.811,206.756 215.887,206.854 216.044 C 206.951 216.202,206.372 216.888,205.566 217.570 C 204.761 218.251,204.365 218.693,204.688 218.551 C 205.010 218.410,204.658 218.851,203.906 219.531 C 203.154 220.212,202.803 220.653,203.125 220.512 C 203.447 220.371,203.184 220.727,202.539 221.304 C 201.895 221.880,201.631 222.229,201.953 222.079 C 202.275 221.930,202.100 222.189,201.563 222.656 C 201.025 223.123,200.850 223.389,201.172 223.247 C 201.494 223.105,201.417 223.266,200.999 223.604 C 200.582 223.942,200.197 224.518,200.144 224.883 C 200.090 225.249,199.640 225.879,199.144 226.284 C 198.648 226.689,198.506 226.905,198.828 226.763 C 199.215 226.592,199.184 226.693,198.737 227.060 C 198.364 227.366,198.173 227.731,198.313 227.871 C 198.453 228.011,198.352 228.125,198.089 228.125 C 197.826 228.125,197.715 228.294,197.843 228.501 C 197.971 228.708,197.732 229.221,197.312 229.641 C 196.893 230.060,196.652 230.506,196.777 230.632 C 196.903 230.757,196.790 230.859,196.526 230.859 C 196.263 230.859,196.156 231.035,196.289 231.250 C 196.422 231.465,196.334 231.641,196.094 231.641 C 195.854 231.641,195.766 231.816,195.898 232.031 C 196.031 232.246,195.943 232.422,195.703 232.422 C 195.463 232.422,195.375 232.598,195.508 232.813 C 195.641 233.027,195.553 233.203,195.312 233.203 C 195.072 233.203,194.984 233.379,195.117 233.594 C 195.250 233.809,195.154 233.984,194.903 233.984 C 194.653 233.984,194.549 234.248,194.673 234.570 C 194.796 234.893,194.717 235.156,194.496 235.156 C 194.275 235.156,194.203 235.332,194.336 235.547 C 194.469 235.762,194.381 235.938,194.141 235.938 C 193.900 235.938,193.813 236.113,193.945 236.328 C 194.078 236.543,193.982 236.719,193.731 236.719 C 193.481 236.719,193.377 236.982,193.501 237.305 C 193.624 237.627,193.536 237.891,193.305 237.891 C 193.074 237.891,192.986 238.154,193.110 238.477 C 193.234 238.799,193.154 239.063,192.933 239.063 C 192.713 239.063,192.641 239.238,192.773 239.453 C 192.906 239.668,192.850 239.844,192.649 239.844 C 192.225 239.844,191.355 242.961,191.647 243.433 C 191.755 243.608,191.645 243.750,191.403 243.750 C 191.141 243.750,191.063 244.066,191.211 244.531 C 191.364 245.012,191.281 245.313,190.996 245.313 C 190.726 245.313,190.619 245.637,190.738 246.094 C 190.851 246.523,190.764 246.875,190.546 246.875 C 190.315 246.875,190.255 247.296,190.403 247.884 C 190.584 248.604,190.525 248.812,190.198 248.610 C 189.871 248.408,189.791 248.681,189.919 249.554 C 190.018 250.229,189.934 250.781,189.733 250.781 C 189.532 250.781,189.438 251.384,189.524 252.121 C 189.610 252.858,189.533 253.370,189.354 253.259 C 189.174 253.148,189.017 253.731,189.004 254.556 C 188.992 255.380,188.903 258.647,188.807 261.816 C 188.711 264.985,188.773 267.579,188.945 267.580 C 189.117 267.580,189.288 269.026,189.324 270.792 C 189.361 272.558,189.555 274.057,189.756 274.124 C 189.957 274.191,190.038 274.679,189.937 275.209 C 189.825 275.794,189.934 276.172,190.215 276.172 C 190.493 276.172,190.583 276.470,190.440 276.920 C 190.309 277.332,190.388 277.783,190.615 277.924 C 190.843 278.064,190.935 278.330,190.821 278.515 C 190.586 278.894,191.453 282.422,191.780 282.422 C 191.897 282.422,192.020 282.900,192.054 283.484 C 192.088 284.068,192.298 284.607,192.520 284.681 C 192.743 284.755,192.828 285.068,192.710 285.377 C 192.591 285.685,192.700 285.938,192.950 285.938 C 193.201 285.938,193.297 286.113,193.164 286.328 C 193.031 286.543,193.103 286.719,193.324 286.719 C 193.545 286.719,193.624 286.982,193.501 287.305 C 193.377 287.627,193.481 287.891,193.731 287.891 C 193.982 287.891,194.078 288.066,193.945 288.281 C 193.813 288.496,193.900 288.672,194.141 288.672 C 194.381 288.672,194.469 288.848,194.336 289.063 C 194.203 289.277,194.275 289.453,194.496 289.453 C 194.717 289.453,194.785 289.746,194.648 290.103 C 194.497 290.497,194.556 290.656,194.798 290.506 C 195.262 290.220,196.213 292.068,195.880 292.607 C 195.758 292.806,195.854 292.969,196.094 292.969 C 196.334 292.969,196.422 293.145,196.289 293.359 C 196.156 293.574,196.244 293.750,196.484 293.750 C 196.725 293.750,196.812 293.927,196.678 294.143 C 196.544 294.360,196.709 294.642,197.043 294.770 C 197.378 294.899,197.555 295.161,197.436 295.353 C 197.317 295.546,197.435 295.703,197.698 295.703 C 197.962 295.703,198.063 295.818,197.923 295.957 C 197.783 296.097,197.973 296.462,198.346 296.768 C 198.798 297.139,198.828 297.239,198.438 297.070 C 198.115 296.931,198.193 297.094,198.610 297.432 C 199.027 297.770,199.213 298.047,199.023 298.047 C 198.834 298.047,199.020 298.324,199.437 298.662 C 199.854 299.000,199.932 299.162,199.609 299.023 C 199.287 298.883,199.438 299.134,199.946 299.580 C 200.453 300.026,200.716 300.396,200.532 300.403 C 200.347 300.409,200.507 300.596,200.887 300.817 C 201.268 301.039,201.477 301.385,201.352 301.587 C 201.228 301.788,201.297 301.953,201.507 301.953 C 201.716 301.953,202.470 302.700,203.182 303.613 C 203.944 304.590,204.159 305.046,203.703 304.721 C 203.278 304.417,203.721 304.920,204.688 305.838 C 205.654 306.757,206.094 307.293,205.664 307.031 C 205.234 306.769,205.792 307.409,206.904 308.453 C 208.015 309.497,209.685 311.154,210.615 312.136 C 211.544 313.117,212.041 313.545,211.719 313.086 C 211.396 312.627,211.903 313.055,212.844 314.036 C 213.785 315.017,214.432 315.557,214.281 315.234 C 214.130 314.912,214.477 315.176,215.054 315.820 C 215.630 316.465,215.981 316.729,215.833 316.406 C 215.686 316.084,215.950 316.260,216.421 316.797 C 216.891 317.334,217.424 317.773,217.605 317.773 C 217.787 317.773,218.219 318.125,218.567 318.555 C 218.914 318.984,219.085 319.072,218.945 318.750 C 218.720 318.229,218.750 318.229,219.211 318.750 C 219.496 319.072,219.992 319.391,220.314 319.457 C 220.635 319.524,221.221 319.964,221.616 320.434 C 222.011 320.904,222.217 321.025,222.075 320.703 C 221.905 320.316,222.005 320.347,222.373 320.795 C 222.679 321.167,223.043 321.358,223.183 321.218 C 223.323 321.078,223.438 321.179,223.438 321.442 C 223.438 321.706,223.613 321.812,223.828 321.680 C 224.043 321.547,224.219 321.654,224.219 321.917 C 224.219 322.180,224.333 322.281,224.473 322.141 C 224.613 322.002,224.978 322.192,225.283 322.565 C 225.589 322.937,225.727 323.021,225.590 322.751 C 225.393 322.363,225.549 322.355,226.330 322.710 C 226.874 322.958,227.238 323.293,227.138 323.454 C 226.905 323.832,228.085 324.290,228.551 324.002 C 228.746 323.881,228.906 323.979,228.906 324.219 C 228.906 324.459,229.082 324.547,229.297 324.414 C 229.512 324.281,229.688 324.353,229.688 324.574 C 229.688 324.795,229.980 324.863,230.338 324.726 C 230.813 324.544,230.900 324.618,230.664 325.000 C 230.428 325.382,230.516 325.456,230.991 325.274 C 231.348 325.137,231.641 325.189,231.641 325.391 C 231.641 325.592,231.933 325.644,232.291 325.507 C 232.753 325.330,232.852 325.402,232.632 325.757 C 232.401 326.130,232.544 326.186,233.203 325.977 C 233.862 325.768,234.005 325.823,233.774 326.196 C 233.555 326.551,233.653 326.623,234.116 326.446 C 234.474 326.308,234.766 326.385,234.766 326.617 C 234.766 326.848,235.029 326.936,235.352 326.812 C 235.674 326.688,235.938 326.776,235.938 327.007 C 235.938 327.238,236.201 327.326,236.523 327.202 C 236.846 327.079,237.109 327.160,237.109 327.382 C 237.109 327.609,237.453 327.678,237.891 327.539 C 238.359 327.391,238.672 327.469,238.672 327.734 C 238.672 328.000,238.985 328.078,239.453 327.930 C 239.921 327.781,240.234 327.859,240.234 328.125 C 240.234 328.391,240.548 328.469,241.016 328.320 C 241.495 328.168,241.797 328.250,241.797 328.532 C 241.797 328.830,242.149 328.902,242.806 328.738 C 243.535 328.555,243.735 328.614,243.527 328.952 C 243.315 329.294,243.568 329.353,244.471 329.172 C 245.259 329.015,245.703 329.081,245.703 329.358 C 245.703 329.633,246.198 329.709,247.070 329.568 C 247.921 329.430,248.438 329.504,248.438 329.765 C 248.438 330.037,249.051 330.100,250.178 329.946 C 251.164 329.811,252.021 329.872,252.154 330.088 C 252.473 330.602,260.938 330.590,260.938 330.075 C 260.938 329.827,261.735 329.774,263.086 329.933 C 264.622 330.114,265.234 330.054,265.234 329.724 C 265.234 329.407,265.665 329.342,266.602 329.518 C 267.403 329.668,267.969 329.617,267.969 329.395 C 267.969 329.186,268.408 329.099,268.945 329.201 C 269.542 329.315,269.922 329.208,269.922 328.925 C 269.922 328.641,270.222 328.558,270.703 328.711 C 271.182 328.863,271.484 328.781,271.484 328.500 C 271.484 328.248,271.750 328.143,272.075 328.268 C 272.922 328.593,275.032 328.102,274.749 327.645 C 274.604 327.410,274.836 327.363,275.342 327.524 C 275.824 327.676,276.172 327.617,276.172 327.382 C 276.172 327.160,276.436 327.079,276.758 327.202 C 277.080 327.326,277.344 327.238,277.344 327.007 C 277.344 326.776,277.607 326.688,277.930 326.812 C 278.252 326.936,278.516 326.824,278.516 326.563 C 278.516 326.301,278.779 326.189,279.102 326.313 C 279.424 326.437,279.688 326.349,279.688 326.118 C 279.688 325.887,279.951 325.799,280.273 325.923 C 280.596 326.046,280.859 325.983,280.859 325.781 C 280.859 325.580,281.152 325.527,281.509 325.665 C 281.984 325.847,282.072 325.773,281.836 325.391 C 281.600 325.008,281.687 324.934,282.162 325.117 C 282.520 325.254,282.813 325.185,282.813 324.965 C 282.813 324.744,282.988 324.672,283.203 324.805 C 283.418 324.937,283.594 324.865,283.594 324.645 C 283.594 324.424,283.835 324.336,284.129 324.449 C 284.424 324.562,284.930 324.389,285.255 324.065 C 285.579 323.740,285.953 323.584,286.086 323.717 C 286.219 323.850,286.328 323.743,286.328 323.480 C 286.328 323.216,286.485 323.098,286.678 323.217 C 286.870 323.336,287.135 323.152,287.267 322.809 C 287.404 322.453,287.757 322.281,288.089 322.408 C 288.410 322.531,288.672 322.451,288.672 322.230 C 288.672 322.010,288.841 321.934,289.048 322.062 C 289.255 322.189,289.783 321.936,290.220 321.499 C 290.658 321.061,291.016 320.825,291.016 320.973 C 291.016 321.122,291.292 320.902,291.631 320.485 C 291.969 320.068,292.131 319.990,291.992 320.313 C 291.853 320.635,292.016 320.557,292.354 320.140 C 292.692 319.723,292.969 319.537,292.969 319.727 C 292.969 319.916,293.245 319.730,293.584 319.313 C 293.922 318.896,294.082 318.818,293.940 319.141 C 293.798 319.463,294.064 319.287,294.531 318.750 C 294.998 318.213,295.258 318.037,295.108 318.359 C 294.959 318.682,295.308 318.418,295.884 317.773 C 296.460 317.129,296.812 316.865,296.665 317.188 C 296.519 317.510,296.870 317.246,297.446 316.602 C 298.023 315.957,298.370 315.693,298.219 316.016 C 298.068 316.338,298.514 315.986,299.210 315.234 C 299.907 314.482,300.249 314.219,299.969 314.648 C 299.690 315.078,300.645 314.163,302.091 312.614 C 303.537 311.066,305.988 308.625,307.536 307.190 C 309.085 305.754,310.088 304.707,309.766 304.862 C 309.443 305.017,309.795 304.587,310.547 303.906 C 311.299 303.226,311.650 302.787,311.328 302.931 C 311.006 303.075,311.182 302.811,311.719 302.344 C 312.256 301.877,312.432 301.611,312.109 301.754 C 311.787 301.896,311.938 301.648,312.446 301.202 C 312.953 300.756,313.216 300.388,313.032 300.385 C 312.847 300.381,312.959 300.212,313.281 300.008 C 313.604 299.805,313.867 299.449,313.867 299.219 C 313.867 298.988,314.131 298.633,314.453 298.429 C 314.775 298.226,314.874 298.056,314.671 298.053 C 314.469 298.050,314.645 297.770,315.062 297.432 C 315.479 297.094,315.557 296.931,315.234 297.070 C 314.714 297.295,314.714 297.266,315.234 296.805 C 315.557 296.520,315.874 296.023,315.939 295.702 C 316.005 295.380,316.310 294.924,316.617 294.688 C 316.924 294.452,317.061 294.144,316.921 294.004 C 316.781 293.864,316.882 293.750,317.145 293.750 C 317.409 293.750,317.516 293.574,317.383 293.359 C 317.250 293.145,317.338 292.969,317.578 292.969 C 317.818 292.969,317.906 292.793,317.773 292.578 C 317.641 292.363,317.729 292.188,317.969 292.188 C 318.209 292.188,318.297 292.012,318.164 291.797 C 318.031 291.582,318.119 291.406,318.359 291.406 C 318.600 291.406,318.687 291.230,318.555 291.016 C 318.422 290.801,318.494 290.625,318.715 290.625 C 318.935 290.625,319.004 290.332,318.867 289.975 C 318.710 289.567,318.772 289.421,319.033 289.582 C 319.502 289.872,320.044 288.794,319.705 288.246 C 319.584 288.051,319.666 287.891,319.887 287.891 C 320.107 287.891,320.176 287.598,320.039 287.241 C 319.856 286.766,319.930 286.678,320.313 286.914 C 320.695 287.150,320.769 287.063,320.586 286.588 C 320.449 286.230,320.526 285.938,320.757 285.938 C 320.988 285.938,321.076 285.674,320.952 285.352 C 320.829 285.029,320.917 284.766,321.148 284.766 C 321.379 284.766,321.467 284.502,321.343 284.180 C 321.219 283.857,321.307 283.594,321.538 283.594 C 321.770 283.594,321.857 283.330,321.734 283.008 C 321.610 282.686,321.691 282.422,321.914 282.422 C 322.141 282.422,322.209 282.079,322.070 281.641 C 321.918 281.162,322.000 280.859,322.281 280.859 C 322.533 280.859,322.639 280.596,322.515 280.273 C 322.391 279.951,322.464 279.688,322.676 279.688 C 322.898 279.688,322.952 279.249,322.802 278.653 C 322.608 277.879,322.666 277.694,323.032 277.920 C 323.405 278.151,323.455 277.921,323.242 276.953 C 323.034 276.005,323.083 275.758,323.438 275.977 C 323.790 276.194,323.843 275.956,323.644 275.049 C 323.460 274.215,323.523 273.828,323.841 273.828 C 324.163 273.828,324.225 273.397,324.042 272.422 C 323.887 271.595,323.926 271.108,324.138 271.239 C 324.837 271.671,325.415 257.967,324.727 257.279 C 324.577 257.129,324.502 256.221,324.561 255.261 C 324.631 254.118,324.509 253.516,324.206 253.516 C 323.940 253.516,323.848 253.246,323.988 252.880 C 324.331 251.988,323.806 248.405,323.373 248.673 C 323.167 248.800,323.129 248.441,323.284 247.826 C 323.489 247.009,323.433 246.832,323.047 247.070 C 322.662 247.308,322.604 247.136,322.802 246.347 C 322.945 245.778,322.899 245.313,322.700 245.313 C 322.501 245.313,322.438 244.933,322.559 244.470 C 322.691 243.965,322.624 243.724,322.392 243.867 C 322.168 244.006,322.005 243.589,322.005 242.876 C 322.005 242.199,321.810 241.580,321.571 241.500 C 321.333 241.421,321.234 241.103,321.353 240.795 C 321.471 240.487,321.379 240.234,321.148 240.234 C 320.917 240.234,320.829 239.971,320.952 239.648 C 321.076 239.326,320.972 239.063,320.722 239.063 C 320.471 239.063,320.375 238.887,320.508 238.672 C 320.641 238.457,320.569 238.281,320.348 238.281 C 320.127 238.281,320.048 238.018,320.171 237.695 C 320.295 237.373,320.191 237.109,319.941 237.109 C 319.690 237.109,319.594 236.934,319.727 236.719 C 319.859 236.504,319.771 236.328,319.531 236.328 C 319.291 236.328,319.193 236.168,319.314 235.973 C 319.653 235.425,319.111 234.347,318.643 234.637 C 318.382 234.798,318.320 234.651,318.476 234.244 C 318.613 233.886,318.545 233.594,318.324 233.594 C 318.103 233.594,318.031 233.418,318.164 233.203 C 318.297 232.988,318.209 232.813,317.969 232.813 C 317.729 232.813,317.641 232.637,317.773 232.422 C 317.906 232.207,317.818 232.031,317.578 232.031 C 317.338 232.031,317.250 231.855,317.383 231.641 C 317.516 231.426,317.428 231.250,317.188 231.250 C 316.947 231.250,316.859 231.074,316.992 230.859 C 317.125 230.645,317.018 230.469,316.755 230.469 C 316.491 230.469,316.390 230.354,316.530 230.214 C 316.670 230.075,316.480 229.710,316.107 229.404 C 315.690 229.062,315.655 228.959,316.016 229.136 C 316.338 229.295,316.118 228.965,315.527 228.403 C 314.397 227.328,314.117 226.733,314.941 227.159 C 315.210 227.298,314.990 227.029,314.453 226.563 C 313.916 226.096,313.740 225.832,314.063 225.977 C 314.385 226.121,314.209 225.858,313.672 225.391 C 313.135 224.924,312.959 224.660,313.281 224.805 C 313.604 224.949,313.428 224.686,312.891 224.219 C 312.354 223.752,312.178 223.488,312.500 223.633 C 312.822 223.778,312.646 223.514,312.109 223.047 C 311.572 222.580,311.396 222.324,311.719 222.479 C 312.041 222.633,311.689 222.189,310.938 221.493 C 310.186 220.796,309.922 220.450,310.352 220.724 C 310.781 220.998,310.342 220.471,309.375 219.552 C 308.408 218.634,307.969 218.104,308.398 218.375 C 308.828 218.646,308.168 217.946,306.932 216.821 C 305.695 215.696,304.770 214.635,304.877 214.463 C 304.983 214.292,304.808 213.934,304.488 213.668 C 304.168 213.403,303.901 213.339,303.894 213.526 C 303.887 213.714,303.052 212.979,302.038 211.893 C 301.025 210.807,300.371 210.203,300.586 210.551 C 300.801 210.899,300.379 210.557,299.648 209.791 C 298.917 209.025,298.447 208.662,298.604 208.984 C 298.760 209.307,298.503 209.131,298.033 208.594 C 297.562 208.057,297.029 207.617,296.848 207.617 C 296.666 207.617,296.234 207.266,295.886 206.836 C 295.539 206.406,295.371 206.318,295.513 206.641 C 295.655 206.963,295.389 206.787,294.922 206.250 C 294.455 205.713,294.191 205.537,294.336 205.859 C 294.481 206.182,294.217 206.006,293.750 205.469 C 293.283 204.932,293.017 204.756,293.159 205.078 C 293.301 205.400,293.141 205.323,292.802 204.906 C 292.464 204.489,292.188 204.303,292.188 204.492 C 292.188 204.682,291.911 204.496,291.573 204.079 C 291.234 203.662,291.078 203.555,291.225 203.841 C 291.423 204.227,291.178 204.199,290.277 203.733 C 289.609 203.388,289.063 202.923,289.063 202.701 C 289.063 202.479,288.887 202.406,288.672 202.539 C 288.457 202.672,288.281 202.584,288.281 202.344 C 288.281 202.104,288.105 202.016,287.891 202.148 C 287.676 202.281,287.500 202.193,287.500 201.953 C 287.500 201.713,287.324 201.625,287.109 201.758 C 286.895 201.891,286.719 201.803,286.719 201.563 C 286.719 201.322,286.559 201.225,286.363 201.345 C 285.815 201.684,284.738 201.143,285.027 200.674 C 285.189 200.413,285.042 200.351,284.634 200.507 C 284.277 200.644,283.984 200.576,283.984 200.355 C 283.984 200.135,283.809 200.063,283.594 200.195 C 283.379 200.328,283.203 200.256,283.203 200.035 C 283.203 199.815,282.939 199.735,282.617 199.859 C 282.295 199.982,282.031 199.895,282.031 199.663 C 282.031 199.432,281.739 199.355,281.381 199.493 C 280.906 199.675,280.818 199.601,281.055 199.219 C 281.291 198.836,281.203 198.763,280.728 198.945 C 280.371 199.082,280.078 199.029,280.078 198.828 C 280.078 198.627,279.814 198.563,279.492 198.687 C 279.170 198.811,278.906 198.723,278.906 198.492 C 278.906 198.260,278.643 198.173,278.320 198.296 C 277.998 198.420,277.734 198.308,277.734 198.047 C 277.734 197.786,277.471 197.674,277.148 197.798 C 276.826 197.921,276.563 197.840,276.563 197.618 C 276.563 197.391,276.219 197.322,275.781 197.461 C 275.313 197.609,275.000 197.531,275.000 197.266 C 275.000 197.000,274.687 196.922,274.219 197.070 C 273.740 197.222,273.438 197.141,273.438 196.859 C 273.438 196.564,273.088 196.487,272.461 196.645 C 271.849 196.798,271.484 196.724,271.484 196.446 C 271.484 196.184,271.086 196.079,270.508 196.189 C 269.971 196.292,269.531 196.205,269.531 195.995 C 269.531 195.786,269.004 195.692,268.359 195.786 C 267.715 195.881,267.188 195.798,267.188 195.601 C 267.188 195.399,266.488 195.362,265.576 195.516 C 264.429 195.710,264.042 195.662,264.234 195.352 C 264.429 195.036,263.385 194.965,260.475 195.095 C 257.916 195.209,256.945 195.158,257.813 194.955 C 258.895 194.701,258.469 194.623,255.762 194.583 C 253.603 194.550,252.344 194.682,252.344 194.941 M254.985 195.190 C 254.612 195.288,253.908 195.292,253.423 195.198 C 252.937 195.105,253.242 195.025,254.102 195.020 C 254.961 195.016,255.358 195.092,254.985 195.190 M260.783 207.429 C 308.366 211.184,329.843 267.987,296.293 301.350 C 286.772 310.819,274.494 316.632,262.728 317.241 C 261.675 317.295,260.774 317.551,260.669 317.824 C 260.566 318.091,260.204 318.203,259.865 318.073 C 259.441 317.910,259.340 317.987,259.545 318.318 C 259.767 318.678,259.513 318.743,258.535 318.574 C 257.815 318.450,256.172 318.307,254.883 318.256 C 253.594 318.206,252.439 318.029,252.316 317.863 C 252.193 317.698,250.963 317.453,249.581 317.320 C 225.384 314.984,202.554 291.971,201.516 268.871 C 201.466 267.755,201.324 266.876,201.201 266.917 C 200.836 267.039,199.263 265.320,199.512 265.072 C 199.637 264.946,199.540 264.844,199.296 264.844 C 199.043 264.844,198.960 264.565,199.102 264.194 C 199.270 263.757,199.202 263.636,198.895 263.826 C 198.584 264.018,198.438 263.727,198.438 262.914 C 198.438 262.256,198.632 261.719,198.870 261.719 C 199.108 261.719,199.201 261.455,199.077 261.133 C 198.954 260.811,199.023 260.547,199.231 260.547 C 199.439 260.547,199.565 260.415,199.512 260.254 C 199.368 259.823,201.064 258.225,201.355 258.517 C 201.492 258.653,201.491 258.470,201.352 258.110 C 200.381 255.580,203.565 244.207,207.120 237.503 C 217.110 218.665,232.041 208.981,253.711 207.285 C 254.570 207.218,255.380 207.133,255.510 207.097 C 255.640 207.061,258.013 207.210,260.783 207.429 M210.938 212.222 C 210.938 212.284,210.015 213.206,208.887 214.272 L 206.836 216.211 208.774 214.160 C 210.576 212.255,210.938 211.930,210.938 212.222 M262.680 233.008 C 262.680 242.676,262.731 246.575,262.793 241.673 C 262.855 236.770,262.855 228.860,262.793 224.094 C 262.730 219.329,262.680 223.340,262.680 233.008 M247.827 254.004 L 246.680 255.273 247.949 254.126 C 248.647 253.495,249.219 252.924,249.219 252.857 C 249.219 252.555,248.896 252.821,247.827 254.004 M336.476 262.891 C 336.476 265.361,336.539 266.372,336.617 265.137 C 336.694 263.901,336.694 261.880,336.617 260.645 C 336.539 259.409,336.476 260.420,336.476 262.891 M255.859 259.789 C 255.859 260.016,255.684 260.094,255.469 259.961 C 255.254 259.828,255.078 259.999,255.078 260.341 C 255.078 260.682,254.841 261.053,254.551 261.164 C 254.261 261.275,254.009 261.903,253.990 262.559 C 253.971 263.215,254.048 263.661,254.159 263.549 C 254.430 263.278,255.776 264.572,255.590 264.924 C 255.304 265.464,257.627 265.029,258.203 264.435 C 258.732 263.889,258.751 263.889,258.398 264.435 C 258.062 264.955,258.099 264.968,258.668 264.522 C 259.031 264.238,259.232 263.755,259.115 263.448 C 258.997 263.141,259.095 262.891,259.333 262.891 C 259.571 262.891,259.766 262.627,259.766 262.305 C 259.766 261.982,259.561 261.719,259.310 261.719 C 259.059 261.719,258.969 261.604,259.109 261.464 C 259.248 261.325,259.058 260.960,258.685 260.654 C 258.313 260.348,258.255 260.226,258.556 260.383 C 258.908 260.566,259.009 260.512,258.837 260.234 C 258.689 259.995,258.282 259.910,257.931 260.044 C 257.505 260.208,257.387 260.137,257.576 259.832 C 257.764 259.529,257.523 259.375,256.859 259.375 C 256.309 259.375,255.859 259.561,255.859 259.789 M205.957 267.863 C 206.763 267.947,208.081 267.947,208.887 267.863 C 209.692 267.778,209.033 267.709,207.422 267.709 C 205.811 267.709,205.151 267.778,205.957 267.863 M304.872 310.254 L 302.148 313.086 304.980 310.362 C 307.611 307.832,307.991 307.422,307.704 307.422 C 307.645 307.422,306.370 308.696,304.872 310.254 M313.270 318.652 L 310.742 321.289 313.379 318.761 C 314.829 317.371,316.016 316.184,316.016 316.125 C 316.016 315.837,315.618 316.203,313.270 318.652 M201.367 319.922 C 202.206 320.781,202.981 321.484,203.088 321.484 C 203.196 321.484,202.597 320.781,201.758 319.922 C 200.919 319.063,200.144 318.359,200.037 318.359 C 199.929 318.359,200.528 319.063,201.367 319.922 M252.051 342.066 C 252.427 342.164,253.042 342.164,253.418 342.066 C 253.794 341.968,253.486 341.888,252.734 341.888 C 251.982 341.888,251.675 341.968,252.051 342.066 M260.254 342.066 C 260.630 342.164,261.245 342.164,261.621 342.066 C 261.997 341.968,261.689 341.888,260.938 341.888 C 260.186 341.888,259.878 341.968,260.254 342.066 " stroke="none" fill="#69c4b2" fill-rule="evenodd"></path><path id="path3" d="M191.797 68.386 C 193.603 68.630,193.388 68.662,190.452 68.584 C 188.295 68.527,187.249 68.618,187.717 68.821 C 188.216 69.037,187.822 69.096,186.568 68.992 C 185.257 68.884,184.829 68.953,185.201 69.215 C 185.569 69.474,185.118 69.531,183.789 69.393 C 182.382 69.247,182.054 69.294,182.617 69.563 C 183.207 69.845,183.015 69.889,181.836 69.745 C 180.977 69.640,180.490 69.689,180.755 69.854 C 181.390 70.251,174.460 71.943,173.582 71.606 C 173.097 71.420,173.005 71.491,173.239 71.870 C 173.480 72.259,173.349 72.334,172.717 72.168 C 172.177 72.027,171.966 72.097,172.131 72.364 C 172.295 72.630,172.085 72.700,171.545 72.559 C 171.005 72.418,170.794 72.488,170.959 72.754 C 171.124 73.021,170.913 73.091,170.373 72.950 C 169.833 72.808,169.622 72.878,169.787 73.145 C 169.952 73.411,169.741 73.481,169.201 73.340 C 168.661 73.199,168.451 73.269,168.615 73.535 C 168.780 73.802,168.569 73.872,168.029 73.731 C 167.512 73.596,167.281 73.663,167.431 73.906 C 167.586 74.158,167.354 74.200,166.797 74.023 C 166.229 73.843,166.006 73.888,166.168 74.149 C 166.476 74.647,165.022 75.156,164.396 74.770 C 164.094 74.583,164.048 74.660,164.259 75.001 C 164.495 75.383,164.360 75.457,163.732 75.293 C 163.269 75.172,162.980 75.220,163.091 75.399 C 163.364 75.840,161.841 76.294,161.271 75.941 C 161.007 75.778,160.921 75.830,161.067 76.066 C 161.388 76.586,159.187 77.515,158.557 77.126 C 158.233 76.925,158.184 76.996,158.402 77.350 C 158.636 77.729,158.542 77.798,158.052 77.610 C 157.600 77.437,157.472 77.500,157.661 77.805 C 157.849 78.110,157.722 78.174,157.270 78.001 C 156.819 77.827,156.691 77.891,156.880 78.196 C 157.068 78.501,156.941 78.565,156.489 78.391 C 156.037 78.218,155.910 78.282,156.098 78.586 C 156.287 78.891,156.160 78.955,155.708 78.782 C 155.256 78.608,155.129 78.672,155.317 78.977 C 155.506 79.282,155.378 79.346,154.927 79.172 C 154.475 78.999,154.347 79.063,154.536 79.368 C 154.724 79.673,154.597 79.736,154.145 79.563 C 153.767 79.418,153.574 79.465,153.702 79.672 C 154.003 80.160,152.450 80.971,151.885 80.622 C 151.593 80.441,151.551 80.525,151.762 80.865 C 151.992 81.239,151.904 81.315,151.444 81.138 C 151.093 81.004,150.686 81.089,150.538 81.327 C 150.366 81.606,150.467 81.659,150.819 81.477 C 151.120 81.320,151.021 81.473,150.597 81.816 C 150.174 82.159,149.608 82.355,149.340 82.252 C 149.072 82.149,148.732 82.261,148.585 82.499 C 148.411 82.780,148.497 82.822,148.828 82.617 C 149.177 82.402,149.245 82.453,149.044 82.779 C 148.882 83.041,148.509 83.164,148.215 83.052 C 147.922 82.939,147.561 83.042,147.413 83.281 C 147.235 83.569,147.329 83.604,147.694 83.384 C 148.162 83.101,148.163 83.150,147.702 83.719 C 147.405 84.086,146.881 84.339,146.539 84.283 C 146.196 84.226,145.912 84.443,145.906 84.766 C 145.901 85.088,145.602 85.354,145.241 85.357 C 144.881 85.359,144.442 85.519,144.266 85.712 C 144.079 85.916,144.174 85.930,144.494 85.744 C 144.875 85.524,144.952 85.572,144.747 85.904 C 144.585 86.166,144.219 86.292,143.934 86.183 C 143.650 86.073,143.184 86.281,142.900 86.644 C 142.454 87.213,142.466 87.251,142.987 86.914 C 143.320 86.699,143.257 86.830,142.849 87.205 C 142.440 87.580,141.969 87.801,141.800 87.698 C 141.632 87.594,141.255 87.814,140.962 88.188 C 140.499 88.779,140.508 88.816,141.034 88.477 C 141.366 88.262,141.304 88.393,140.896 88.767 C 140.487 89.142,140.015 89.364,139.847 89.260 C 139.679 89.156,139.302 89.377,139.009 89.750 C 138.521 90.373,138.541 90.385,139.258 89.893 C 139.688 89.597,139.543 89.820,138.937 90.387 C 138.330 90.954,137.701 91.335,137.537 91.234 C 137.374 91.133,136.376 91.966,135.320 93.084 L 133.398 95.117 135.547 93.167 C 136.729 92.095,136.029 92.930,133.992 95.023 C 130.215 98.905,128.501 100.336,131.657 96.973 L 133.398 95.117 131.560 96.842 C 130.549 97.791,129.807 98.705,129.911 98.874 C 130.015 99.043,129.612 99.683,129.015 100.296 C 128.418 100.909,128.193 101.049,128.516 100.608 C 129.094 99.815,129.090 99.814,128.249 100.525 C 127.780 100.921,127.479 101.460,127.579 101.722 C 127.680 101.983,127.363 102.538,126.876 102.954 C 125.996 103.706,125.994 103.706,126.569 102.930 C 127.105 102.207,127.097 102.189,126.469 102.681 C 126.096 102.974,125.870 103.343,125.968 103.502 C 126.067 103.661,125.876 104.125,125.544 104.532 C 125.213 104.940,125.070 105.027,125.227 104.725 C 125.409 104.373,125.356 104.272,125.077 104.444 C 124.839 104.592,124.736 104.953,124.848 105.246 C 124.961 105.540,124.838 105.913,124.576 106.076 C 124.244 106.280,124.196 106.203,124.416 105.822 C 124.602 105.502,124.588 105.407,124.384 105.594 C 124.191 105.770,124.031 106.209,124.028 106.570 C 124.026 106.930,123.760 107.229,123.438 107.234 C 123.115 107.240,122.890 107.504,122.937 107.821 C 122.984 108.139,122.661 108.838,122.220 109.375 C 121.778 109.912,121.547 110.105,121.706 109.803 C 121.893 109.450,121.841 109.350,121.562 109.522 C 121.323 109.670,121.212 110.010,121.315 110.278 C 121.418 110.545,121.221 111.111,120.878 111.535 C 120.535 111.958,120.383 112.058,120.539 111.756 C 120.722 111.404,120.668 111.304,120.390 111.476 C 120.151 111.623,120.066 112.031,120.201 112.381 C 120.363 112.805,120.293 112.925,119.993 112.739 C 119.688 112.551,119.624 112.678,119.797 113.130 C 119.971 113.581,119.907 113.709,119.602 113.520 C 119.297 113.332,119.233 113.459,119.407 113.911 C 119.595 114.402,119.525 114.496,119.147 114.262 C 118.813 114.055,118.723 114.093,118.893 114.369 C 119.244 114.937,116.365 120.724,115.881 120.425 C 115.668 120.293,115.631 120.397,115.796 120.665 C 116.142 121.223,114.508 125.471,114.055 125.191 C 113.884 125.085,113.844 125.378,113.965 125.842 C 114.106 126.382,114.036 126.592,113.770 126.428 C 113.503 126.263,113.433 126.474,113.575 127.014 C 113.716 127.554,113.646 127.764,113.379 127.600 C 113.114 127.436,113.034 127.662,113.156 128.222 C 113.314 128.940,113.269 128.994,112.913 128.516 C 112.571 128.058,112.534 128.177,112.740 129.062 C 112.944 129.936,112.888 130.123,112.497 129.881 C 112.158 129.671,112.083 129.720,112.273 130.027 C 112.721 130.752,112.113 133.045,111.651 132.376 C 111.381 131.987,111.343 132.072,111.514 132.682 C 111.808 133.733,111.368 135.617,110.896 135.326 C 110.704 135.207,110.547 135.410,110.547 135.776 C 110.547 136.365,110.194 136.419,107.520 136.235 C 105.854 136.121,105.020 136.142,105.664 136.283 C 106.541 136.475,105.804 136.667,102.734 137.045 C 100.478 137.323,98.281 137.435,97.851 137.293 C 97.198 137.078,97.166 137.111,97.656 137.496 C 98.123 137.862,97.924 137.911,96.680 137.739 C 95.518 137.578,95.268 137.628,95.703 137.935 C 96.142 138.243,95.946 138.290,94.922 138.119 C 93.884 137.947,93.696 137.993,94.141 138.312 C 94.602 138.644,94.502 138.697,93.664 138.564 C 93.017 138.460,92.696 138.547,92.844 138.785 C 92.997 139.033,92.671 139.080,91.953 138.912 C 91.234 138.745,91.012 138.776,91.346 138.999 C 91.993 139.431,90.057 140.022,89.375 139.600 C 89.094 139.427,89.053 139.513,89.259 139.845 C 89.495 140.227,89.360 140.301,88.732 140.137 C 88.187 139.994,87.981 140.065,88.149 140.337 C 88.315 140.606,88.167 140.665,87.739 140.501 C 87.291 140.328,87.160 140.392,87.345 140.691 C 87.534 140.996,87.353 141.068,86.779 140.918 C 86.234 140.776,86.028 140.846,86.196 141.118 C 86.362 141.387,86.214 141.446,85.786 141.282 C 85.334 141.108,85.207 141.172,85.395 141.477 C 85.584 141.782,85.456 141.846,85.005 141.672 C 84.553 141.499,84.426 141.563,84.614 141.868 C 84.803 142.173,84.675 142.236,84.223 142.063 C 83.772 141.890,83.644 141.953,83.833 142.258 C 84.021 142.563,83.894 142.627,83.442 142.454 C 82.991 142.280,82.863 142.344,83.052 142.649 C 83.240 142.954,83.113 143.018,82.661 142.844 C 82.209 142.671,82.082 142.735,82.270 143.040 C 82.457 143.341,82.335 143.410,81.905 143.245 C 81.507 143.092,81.295 143.179,81.352 143.471 C 81.403 143.732,81.140 143.921,80.766 143.892 C 80.380 143.861,80.197 144.016,80.342 144.251 C 80.498 144.503,80.359 144.573,79.985 144.429 C 79.648 144.300,79.048 144.456,78.651 144.775 C 77.986 145.310,78.006 145.322,78.906 144.922 C 79.839 144.508,79.848 144.516,79.113 145.104 C 78.689 145.443,78.124 145.636,77.856 145.533 C 77.588 145.431,77.248 145.542,77.101 145.781 C 76.927 146.062,77.013 146.103,77.344 145.898 C 77.692 145.683,77.761 145.734,77.560 146.060 C 77.398 146.323,77.024 146.445,76.731 146.333 C 76.437 146.220,76.076 146.323,75.929 146.562 C 75.755 146.843,75.841 146.884,76.172 146.680 C 76.520 146.464,76.589 146.516,76.388 146.841 C 76.226 147.104,75.860 147.229,75.575 147.120 C 75.290 147.011,74.825 147.219,74.540 147.582 C 74.065 148.189,74.087 148.195,74.805 147.656 C 75.534 147.109,75.549 147.117,75.035 147.772 C 74.732 148.157,74.262 148.388,73.989 148.283 C 73.717 148.179,73.262 148.390,72.978 148.754 C 72.503 149.360,72.525 149.366,73.242 148.835 C 74.018 148.259,74.018 148.261,73.267 149.142 C 72.851 149.629,72.296 149.945,72.034 149.845 C 71.772 149.744,71.234 150.046,70.837 150.515 L 70.117 151.367 71.094 150.601 L 72.070 149.836 71.060 150.920 C 70.504 151.516,69.753 152.047,69.392 152.100 C 68.549 152.224,65.203 155.492,65.472 155.928 C 65.584 156.110,64.928 157.003,64.014 157.914 C 63.099 158.825,62.780 159.043,63.305 158.398 L 64.258 157.227 63.196 158.162 C 62.611 158.677,62.210 159.222,62.304 159.374 C 62.398 159.526,62.204 159.984,61.873 160.392 C 61.541 160.799,61.398 160.886,61.555 160.584 C 61.737 160.232,61.684 160.132,61.406 160.304 C 61.167 160.451,61.060 160.802,61.168 161.083 C 61.275 161.364,61.058 161.841,60.685 162.144 C 60.106 162.615,60.055 162.615,60.337 162.147 C 60.563 161.771,60.523 161.687,60.210 161.881 C 59.959 162.036,59.838 162.301,59.942 162.469 C 60.046 162.638,59.860 163.109,59.529 163.517 C 59.198 163.924,59.055 164.011,59.211 163.709 C 59.394 163.357,59.340 163.257,59.062 163.429 C 58.823 163.576,58.720 163.937,58.833 164.231 C 58.945 164.524,58.823 164.898,58.560 165.060 C 58.234 165.261,58.183 165.192,58.398 164.844 C 58.603 164.513,58.562 164.427,58.281 164.601 C 58.042 164.748,57.939 165.109,58.052 165.403 C 58.164 165.696,58.041 166.069,57.779 166.232 C 57.453 166.433,57.402 166.364,57.617 166.016 C 57.822 165.684,57.780 165.599,57.499 165.772 C 57.261 165.920,57.175 166.328,57.310 166.678 C 57.487 167.139,57.411 167.227,57.037 166.996 C 56.696 166.785,56.613 166.827,56.794 167.119 C 57.143 167.684,56.331 169.237,55.844 168.936 C 55.643 168.811,55.567 168.943,55.677 169.229 C 55.787 169.515,55.596 170.095,55.253 170.519 C 54.910 170.943,54.758 171.042,54.914 170.740 C 55.097 170.389,55.043 170.288,54.765 170.460 C 54.526 170.607,54.441 171.015,54.576 171.366 C 54.738 171.789,54.668 171.909,54.368 171.723 C 54.063 171.535,53.999 171.662,54.172 172.114 C 54.346 172.566,54.282 172.693,53.977 172.505 C 53.672 172.316,53.608 172.444,53.782 172.895 C 53.955 173.347,53.891 173.474,53.586 173.286 C 53.282 173.097,53.218 173.225,53.391 173.677 C 53.579 174.167,53.510 174.261,53.131 174.027 C 52.774 173.806,52.706 173.858,52.913 174.192 C 53.300 174.818,51.970 177.791,51.448 177.468 C 51.220 177.328,51.171 177.417,51.332 177.678 C 51.684 178.248,51.231 179.770,50.790 179.497 C 50.610 179.386,50.563 179.675,50.684 180.139 C 50.825 180.679,50.755 180.889,50.489 180.725 C 50.224 180.561,50.143 180.787,50.266 181.347 C 50.423 182.065,50.378 182.119,50.022 181.641 C 49.681 181.183,49.643 181.302,49.850 182.187 C 50.054 183.061,49.998 183.248,49.606 183.006 C 49.267 182.796,49.193 182.845,49.383 183.152 C 49.816 183.853,49.224 186.182,48.786 185.501 C 48.566 185.159,48.522 185.462,48.666 186.328 C 48.840 187.370,48.793 187.556,48.471 187.109 C 48.149 186.663,48.102 186.849,48.276 187.891 C 48.446 188.915,48.400 189.111,48.091 188.672 C 47.783 188.234,47.727 188.481,47.870 189.648 C 48.019 190.865,47.975 191.038,47.671 190.430 C 47.378 189.843,47.328 190.135,47.472 191.602 C 47.605 192.963,47.554 193.318,47.306 192.773 C 47.058 192.231,46.993 192.709,47.094 194.336 C 47.202 196.098,47.156 196.389,46.906 195.508 C 46.694 194.759,46.648 195.614,46.778 197.875 C 46.912 200.206,46.825 201.707,46.524 202.270 C 46.272 202.740,46.220 203.125,46.409 203.125 C 46.600 203.125,46.616 203.946,46.446 204.980 C 46.019 207.571,46.078 209.816,46.515 207.617 C 46.739 206.490,46.794 207.034,46.713 209.570 C 46.641 211.833,46.717 212.738,46.927 212.109 C 47.155 211.430,47.206 211.786,47.096 213.281 C 47.004 214.527,47.064 215.102,47.238 214.650 C 47.627 213.641,48.198 217.066,47.828 218.194 C 47.621 218.827,47.655 218.853,48.043 218.359 C 48.412 217.890,48.458 218.046,48.276 219.141 C 48.103 220.178,48.149 220.367,48.469 219.922 C 48.800 219.460,48.853 219.561,48.720 220.398 C 48.617 221.045,48.703 221.366,48.942 221.219 C 49.190 221.066,49.236 221.391,49.069 222.110 C 48.911 222.786,48.940 223.040,49.141 222.740 C 49.561 222.112,50.562 225.187,50.153 225.850 C 49.973 226.141,50.056 226.184,50.397 225.973 C 50.775 225.739,50.845 225.833,50.657 226.323 C 50.515 226.693,50.560 226.894,50.758 226.772 C 51.222 226.485,51.699 227.979,51.332 228.572 C 51.168 228.837,51.221 228.922,51.457 228.776 C 51.976 228.455,52.905 230.657,52.516 231.287 C 52.316 231.611,52.387 231.660,52.740 231.442 C 53.110 231.213,53.191 231.297,53.023 231.734 C 52.894 232.071,53.049 232.671,53.369 233.068 C 53.910 233.741,53.921 233.730,53.523 232.910 C 52.880 231.582,53.405 231.856,54.107 233.215 C 54.444 233.865,54.597 234.596,54.448 234.837 C 54.270 235.126,54.354 235.167,54.694 234.957 C 55.072 234.723,55.142 234.817,54.954 235.308 C 54.780 235.759,54.844 235.887,55.149 235.698 C 55.449 235.513,55.519 235.633,55.357 236.056 C 55.222 236.407,55.308 236.814,55.546 236.962 C 55.824 237.134,55.878 237.033,55.695 236.681 C 55.539 236.380,55.691 236.479,56.034 236.903 C 56.377 237.326,56.574 237.892,56.471 238.160 C 56.368 238.428,56.479 238.768,56.718 238.915 C 56.999 239.089,57.041 239.003,56.836 238.672 C 56.621 238.323,56.672 238.255,56.998 238.456 C 57.260 238.618,57.383 238.991,57.270 239.285 C 57.158 239.578,57.261 239.939,57.499 240.087 C 57.778 240.259,57.831 240.158,57.649 239.806 C 57.492 239.505,57.635 239.591,57.966 239.999 C 58.298 240.407,58.473 240.894,58.357 241.083 C 58.240 241.271,58.378 241.377,58.662 241.318 C 58.947 241.259,59.182 241.512,59.184 241.880 C 59.187 242.247,59.442 242.775,59.751 243.051 C 60.233 243.482,60.232 243.442,59.747 242.773 C 59.219 242.047,59.229 242.031,59.881 242.543 C 60.267 242.846,60.498 243.313,60.396 243.581 C 60.293 243.848,60.593 244.391,61.061 244.788 L 61.914 245.508 61.148 244.531 L 60.382 243.555 61.466 244.565 C 62.063 245.121,62.594 245.874,62.648 246.238 C 62.761 247.009,67.193 251.605,67.588 251.361 C 67.981 251.118,69.336 252.204,69.336 252.763 C 69.336 253.029,69.669 253.295,70.077 253.355 C 70.485 253.414,71.100 253.773,71.444 254.152 C 72.032 254.798,72.023 254.806,71.289 254.275 C 70.574 253.759,70.552 253.767,71.025 254.371 C 71.309 254.735,71.764 254.946,72.036 254.842 C 72.308 254.737,72.779 254.957,73.082 255.331 C 73.552 255.910,73.553 255.961,73.084 255.679 C 72.720 255.459,72.626 255.494,72.804 255.782 C 72.951 256.021,73.312 256.124,73.606 256.011 C 73.899 255.898,74.273 256.021,74.435 256.284 C 74.636 256.609,74.567 256.661,74.219 256.445 C 73.888 256.241,73.802 256.282,73.976 256.563 C 74.123 256.802,74.484 256.905,74.778 256.792 C 75.071 256.680,75.444 256.802,75.607 257.065 C 75.808 257.391,75.739 257.442,75.391 257.227 C 75.059 257.022,74.974 257.063,75.147 257.344 C 75.295 257.583,75.656 257.686,75.950 257.573 C 76.243 257.461,76.616 257.584,76.779 257.846 C 76.980 258.172,76.911 258.223,76.563 258.008 C 76.231 257.803,76.146 257.845,76.319 258.126 C 76.467 258.364,76.807 258.476,77.074 258.373 C 77.342 258.270,77.908 258.466,78.332 258.809 C 78.755 259.152,78.855 259.305,78.553 259.148 C 78.201 258.966,78.100 259.019,78.272 259.298 C 78.420 259.536,78.828 259.621,79.178 259.487 C 79.601 259.324,79.722 259.394,79.536 259.695 C 79.347 260.000,79.475 260.063,79.927 259.890 C 80.417 259.702,80.511 259.771,80.277 260.150 C 80.066 260.491,80.109 260.574,80.400 260.394 C 81.008 260.018,82.507 260.874,82.177 261.408 C 82.012 261.676,82.090 261.728,82.385 261.546 C 82.968 261.186,85.228 262.067,84.936 262.541 C 84.820 262.728,85.027 262.766,85.395 262.624 C 85.847 262.451,85.974 262.515,85.786 262.820 C 85.597 263.125,85.725 263.188,86.177 263.015 C 86.605 262.851,86.753 262.910,86.587 263.178 C 86.419 263.451,86.624 263.521,87.170 263.379 C 87.798 263.214,87.932 263.289,87.696 263.671 C 87.485 264.012,87.531 264.089,87.834 263.902 C 88.404 263.550,89.926 264.004,89.654 264.445 C 89.543 264.624,89.831 264.672,90.295 264.550 C 90.835 264.409,91.045 264.479,90.881 264.746 C 90.716 265.012,90.927 265.082,91.467 264.941 C 92.007 264.800,92.217 264.870,92.053 265.136 C 91.888 265.403,92.099 265.473,92.639 265.332 C 93.179 265.190,93.389 265.261,93.225 265.527 C 93.061 265.792,93.287 265.873,93.847 265.750 C 94.574 265.591,94.625 265.635,94.141 266.007 C 93.659 266.377,93.709 266.414,94.417 266.216 C 95.577 265.890,98.293 266.403,97.618 266.821 C 97.339 266.993,97.892 267.055,98.848 266.959 C 100.124 266.831,100.378 266.882,99.805 267.150 C 99.247 267.411,99.639 267.470,101.172 267.357 C 102.733 267.242,103.053 267.292,102.344 267.542 C 101.664 267.781,102.198 267.842,104.102 267.745 C 105.931 267.651,106.448 267.707,105.664 267.913 C 104.931 268.106,105.882 268.176,108.203 268.101 C 117.223 267.810,176.337 268.010,176.724 268.333 C 177.027 268.585,177.112 267.320,177.021 263.933 C 176.224 234.102,193.353 204.976,219.637 191.472 C 241.670 180.152,269.741 179.930,292.188 190.899 C 294.658 192.106,296.812 193.066,296.973 193.031 C 297.134 192.997,297.266 193.155,297.266 193.382 C 297.266 193.610,297.441 193.687,297.656 193.555 C 297.871 193.422,298.047 193.473,298.047 193.669 C 298.047 194.000,301.736 196.484,302.229 196.484 C 302.352 196.484,302.705 196.792,303.013 197.168 C 303.369 197.602,303.476 197.638,303.306 197.266 C 303.159 196.943,303.511 197.207,304.087 197.852 C 304.663 198.496,305.021 198.760,304.882 198.438 C 304.743 198.115,305.009 198.335,305.472 198.926 C 305.936 199.517,306.544 200.000,306.824 200.000 C 307.103 200.000,307.630 200.455,307.994 201.010 C 308.358 201.566,308.755 201.922,308.875 201.802 C 308.996 201.681,310.056 202.631,311.232 203.912 C 312.408 205.193,313.553 206.128,313.776 205.990 C 314.000 205.852,314.071 205.920,313.934 206.142 C 313.797 206.364,314.553 207.358,315.615 208.351 C 316.676 209.344,317.451 210.156,317.336 210.156 C 317.221 210.156,317.914 211.079,318.876 212.207 C 325.331 219.777,335.173 240.212,334.416 244.473 C 334.365 244.763,334.510 244.884,334.739 244.743 C 334.969 244.601,335.156 244.221,335.156 243.899 C 335.156 243.577,335.330 243.421,335.542 243.552 C 335.755 243.683,335.835 243.546,335.720 243.247 C 335.605 242.948,335.817 242.455,336.190 242.152 C 336.769 241.682,336.820 241.682,336.538 242.150 C 336.318 242.515,336.353 242.609,336.641 242.431 C 336.880 242.283,336.983 241.922,336.870 241.629 C 336.758 241.335,336.880 240.962,337.143 240.799 C 337.469 240.598,337.520 240.667,337.305 241.016 C 337.100 241.347,337.142 241.432,337.423 241.259 C 337.661 241.111,337.764 240.750,337.652 240.457 C 337.539 240.163,337.662 239.790,337.924 239.628 C 338.250 239.426,338.301 239.495,338.086 239.844 C 337.881 240.175,337.923 240.261,338.204 240.087 C 338.442 239.939,338.554 239.600,338.451 239.332 C 338.348 239.064,338.545 238.498,338.888 238.075 C 339.230 237.651,339.400 237.524,339.264 237.793 C 338.834 238.641,339.405 238.321,339.869 237.453 C 340.185 236.863,340.188 236.701,339.880 236.892 C 339.574 237.081,339.580 236.869,339.898 236.170 C 340.146 235.626,340.526 235.290,340.742 235.424 C 340.959 235.558,341.018 235.476,340.873 235.241 C 340.521 234.672,342.615 230.445,343.100 230.745 C 343.317 230.879,343.354 230.776,343.187 230.506 C 342.798 229.876,343.727 227.674,344.246 227.995 C 344.484 228.142,344.535 228.056,344.369 227.787 C 343.968 227.139,344.887 224.542,345.404 224.861 C 345.658 225.018,345.710 224.936,345.536 224.654 C 345.377 224.398,345.642 222.693,346.125 220.865 C 346.681 218.759,347.118 217.728,347.318 218.049 C 347.492 218.327,347.537 217.852,347.418 216.992 C 347.245 215.748,347.295 215.549,347.661 216.016 C 348.047 216.508,348.081 216.480,347.870 215.839 C 347.733 215.419,347.747 214.101,347.902 212.909 C 348.123 211.212,348.238 210.954,348.433 211.719 C 348.570 212.256,348.680 207.510,348.677 201.172 C 348.675 194.834,348.571 190.074,348.447 190.594 C 348.287 191.264,348.078 190.686,347.730 188.612 C 347.459 187.001,347.348 185.345,347.484 184.932 C 347.656 184.406,347.620 184.332,347.366 184.687 C 346.908 185.323,345.484 180.358,345.922 179.650 C 346.100 179.361,346.051 179.277,345.795 179.435 C 345.278 179.755,344.358 177.158,344.759 176.510 C 344.930 176.234,344.874 176.155,344.620 176.313 C 344.108 176.629,343.586 175.191,343.980 174.553 C 344.168 174.249,344.090 174.204,343.744 174.418 C 343.365 174.652,343.296 174.558,343.484 174.067 C 343.626 173.698,343.580 173.496,343.383 173.618 C 342.919 173.905,342.442 172.411,342.809 171.818 C 342.979 171.543,342.920 171.469,342.658 171.630 C 342.126 171.959,341.268 170.456,341.557 169.701 C 341.675 169.394,341.558 169.191,341.295 169.243 C 341.034 169.294,340.844 169.030,340.874 168.657 C 340.904 168.270,340.749 168.087,340.515 168.232 C 340.255 168.393,340.197 168.239,340.359 167.817 C 340.532 167.366,340.468 167.238,340.164 167.427 C 339.859 167.615,339.795 167.488,339.968 167.036 C 340.142 166.584,340.078 166.457,339.773 166.645 C 339.472 166.831,339.403 166.711,339.565 166.288 C 339.700 165.937,339.614 165.529,339.376 165.382 C 339.095 165.208,339.053 165.294,339.258 165.625 C 339.473 165.974,339.422 166.042,339.096 165.841 C 338.834 165.679,338.716 165.291,338.836 164.979 C 338.958 164.663,338.883 164.518,338.667 164.651 C 338.320 164.866,338.113 164.350,338.235 163.574 C 338.260 163.413,338.062 163.325,337.793 163.379 C 337.524 163.433,337.302 163.181,337.300 162.821 C 337.297 162.460,337.137 162.020,336.944 161.844 C 336.740 161.657,336.726 161.752,336.912 162.072 C 337.133 162.453,337.084 162.530,336.752 162.326 C 336.490 162.163,336.367 161.790,336.480 161.496 C 336.592 161.203,336.489 160.842,336.251 160.694 C 335.962 160.516,335.928 160.610,336.147 160.975 C 336.430 161.443,336.381 161.445,335.812 160.983 C 335.446 160.686,335.192 160.162,335.249 159.820 C 335.305 159.477,335.088 159.193,334.766 159.187 C 334.443 159.182,334.178 158.875,334.175 158.505 C 334.173 158.135,333.827 157.520,333.407 157.139 C 332.652 156.453,332.652 156.456,333.409 157.422 L 334.174 158.398 333.091 157.441 C 332.496 156.914,332.088 156.276,332.185 156.023 C 332.282 155.770,331.716 154.971,330.927 154.246 L 329.492 152.930 330.853 154.492 C 331.602 155.352,330.767 154.653,328.998 152.939 C 327.229 151.225,325.781 149.738,325.781 149.635 C 325.781 149.531,326.616 150.230,327.637 151.188 L 329.492 152.930 327.767 151.091 C 326.819 150.080,325.909 149.335,325.745 149.437 C 325.581 149.538,325.030 149.223,324.521 148.736 C 323.906 148.149,323.863 148.048,324.395 148.438 C 325.185 149.016,325.186 149.012,324.475 148.171 C 324.079 147.702,323.540 147.401,323.278 147.501 C 323.017 147.602,322.462 147.285,322.046 146.798 C 321.294 145.918,321.294 145.916,322.070 146.491 C 322.787 147.023,322.809 147.016,322.335 146.410 C 322.050 146.047,321.611 145.827,321.358 145.922 C 321.105 146.017,320.371 145.642,319.727 145.089 C 319.082 144.536,318.818 144.213,319.141 144.370 C 319.479 144.536,319.591 144.509,319.406 144.306 C 319.230 144.113,318.790 143.953,318.429 143.950 C 318.069 143.948,317.815 143.732,317.866 143.471 C 317.918 143.210,317.716 143.090,317.418 143.205 C 317.120 143.319,316.743 143.198,316.581 142.935 C 316.380 142.609,316.448 142.558,316.797 142.773 C 317.128 142.978,317.214 142.937,317.040 142.656 C 316.893 142.417,316.553 142.306,316.285 142.408 C 316.017 142.511,315.451 142.315,315.028 141.972 C 314.604 141.629,314.505 141.476,314.806 141.633 C 315.158 141.816,315.259 141.762,315.087 141.484 C 314.939 141.245,314.532 141.160,314.181 141.294 C 313.758 141.457,313.638 141.387,313.823 141.086 C 314.012 140.782,313.884 140.718,313.433 140.891 C 312.981 141.065,312.854 141.001,313.042 140.696 C 313.231 140.391,313.103 140.327,312.652 140.501 C 312.200 140.674,312.072 140.610,312.261 140.305 C 312.449 140.000,312.322 139.937,311.870 140.110 C 311.419 140.283,311.291 140.220,311.480 139.915 C 311.668 139.610,311.541 139.546,311.089 139.719 C 310.637 139.893,310.510 139.829,310.698 139.524 C 310.887 139.219,310.759 139.155,310.308 139.329 C 309.856 139.502,309.729 139.438,309.917 139.133 C 310.106 138.828,309.978 138.765,309.527 138.938 C 309.075 139.111,308.947 139.048,309.136 138.743 C 309.324 138.438,309.197 138.374,308.745 138.547 C 308.254 138.736,308.161 138.666,308.395 138.287 C 308.608 137.942,308.564 137.863,308.260 138.051 C 307.621 138.446,306.184 137.923,306.500 137.412 C 306.657 137.157,306.579 137.102,306.303 137.272 C 305.734 137.623,303.043 136.777,303.317 136.333 C 303.427 136.156,303.121 136.097,302.637 136.203 C 301.919 136.361,301.865 136.316,302.344 135.960 C 302.802 135.618,302.683 135.581,301.797 135.787 C 300.924 135.991,300.736 135.935,300.979 135.543 C 301.188 135.205,301.139 135.130,300.832 135.320 C 300.132 135.753,297.803 135.162,298.483 134.724 C 298.825 134.504,298.522 134.460,297.656 134.604 C 296.615 134.777,296.429 134.731,296.875 134.408 C 297.321 134.086,297.135 134.040,296.094 134.213 C 295.029 134.390,294.856 134.344,295.313 134.003 C 295.764 133.665,295.541 133.620,294.336 133.804 C 293.118 133.990,292.903 133.944,293.359 133.597 C 293.837 133.234,293.784 133.197,293.072 133.398 C 291.760 133.766,288.247 133.182,289.259 132.763 C 289.760 132.556,289.512 132.523,288.569 132.671 C 285.837 133.099,282.813 132.493,282.807 131.515 C 282.802 130.806,282.731 130.762,282.383 131.250 C 282.068 131.693,282.021 131.501,282.193 130.469 C 282.332 129.634,282.289 129.306,282.082 129.627 C 281.630 130.329,281.126 128.388,281.455 127.213 C 281.617 126.636,281.578 126.531,281.334 126.882 C 280.878 127.538,279.852 124.119,280.292 123.408 C 280.473 123.114,280.428 123.026,280.177 123.181 C 279.653 123.505,278.855 121.292,279.184 120.433 C 279.336 120.038,279.272 119.891,279.018 120.048 C 278.494 120.372,277.560 118.176,277.952 117.541 C 278.153 117.217,278.082 117.168,277.728 117.387 C 277.350 117.621,277.280 117.527,277.468 117.036 C 277.642 116.584,277.578 116.457,277.273 116.645 C 276.968 116.834,276.904 116.706,277.078 116.255 C 277.251 115.803,277.187 115.676,276.882 115.864 C 276.577 116.053,276.514 115.925,276.687 115.473 C 276.860 115.022,276.797 114.894,276.492 115.083 C 276.187 115.271,276.123 115.144,276.296 114.692 C 276.470 114.241,276.406 114.113,276.101 114.302 C 275.796 114.490,275.732 114.363,275.906 113.911 C 276.079 113.459,276.015 113.332,275.710 113.520 C 275.405 113.709,275.342 113.581,275.515 113.130 C 275.688 112.678,275.625 112.551,275.320 112.739 C 275.015 112.928,274.951 112.800,275.124 112.348 C 275.298 111.897,275.234 111.769,274.929 111.958 C 274.624 112.146,274.560 112.019,274.734 111.567 C 274.907 111.116,274.843 110.988,274.539 111.177 C 274.238 111.362,274.168 111.242,274.331 110.819 C 274.465 110.468,274.380 110.061,274.141 109.913 C 273.863 109.741,273.809 109.842,273.992 110.194 C 274.149 110.495,273.996 110.396,273.653 109.972 C 273.310 109.549,273.114 108.983,273.217 108.715 C 273.319 108.447,273.208 108.107,272.969 107.960 C 272.688 107.786,272.647 107.872,272.852 108.203 C 273.067 108.552,273.016 108.620,272.690 108.419 C 272.427 108.257,272.310 107.869,272.430 107.557 C 272.549 107.246,272.482 107.093,272.281 107.217 C 271.838 107.491,270.967 105.990,271.277 105.488 C 271.398 105.292,271.291 105.005,271.040 104.849 C 270.735 104.661,270.688 104.737,270.898 105.078 C 271.114 105.427,271.062 105.495,270.737 105.294 C 270.474 105.132,270.349 104.766,270.458 104.481 C 270.567 104.196,270.360 103.731,269.996 103.447 C 269.389 102.971,269.383 102.993,269.922 103.711 C 270.469 104.440,270.461 104.455,269.806 103.941 C 269.421 103.638,269.193 103.161,269.301 102.880 C 269.409 102.599,269.302 102.248,269.063 102.101 C 268.775 101.922,268.740 102.017,268.960 102.381 C 269.242 102.849,269.191 102.849,268.612 102.379 C 268.239 102.076,268.019 101.605,268.123 101.333 C 268.227 101.061,268.016 100.606,267.653 100.322 C 267.084 99.876,267.046 99.888,267.383 100.409 C 267.598 100.741,267.388 100.576,266.918 100.041 C 266.447 99.506,266.138 98.947,266.230 98.797 C 266.322 98.648,266.092 98.286,265.718 97.993 C 265.092 97.503,265.083 97.522,265.602 98.242 C 266.125 98.968,266.102 98.965,265.284 98.206 C 264.799 97.756,264.358 97.090,264.305 96.725 C 264.172 95.820,258.204 89.868,257.645 90.083 C 257.398 90.177,256.676 89.681,256.040 88.981 C 255.087 87.932,255.055 87.844,255.859 88.483 L 256.836 89.258 256.116 88.405 C 255.719 87.936,255.181 87.635,254.919 87.735 C 254.657 87.836,254.102 87.519,253.686 87.032 C 252.935 86.152,252.935 86.150,253.711 86.725 C 254.428 87.257,254.450 87.250,253.975 86.644 C 253.691 86.281,253.236 86.069,252.964 86.174 C 252.692 86.278,252.221 86.058,251.918 85.685 C 251.448 85.106,251.447 85.055,251.916 85.337 C 252.280 85.557,252.374 85.522,252.196 85.234 C 252.049 84.995,251.688 84.892,251.394 85.005 C 251.101 85.117,250.727 84.995,250.565 84.732 C 250.364 84.406,250.433 84.355,250.781 84.570 C 251.112 84.775,251.198 84.733,251.024 84.452 C 250.877 84.214,250.526 84.107,250.245 84.215 C 249.964 84.322,249.487 84.105,249.184 83.732 C 248.713 83.152,248.713 83.102,249.181 83.384 C 249.557 83.610,249.641 83.570,249.447 83.257 C 249.292 83.006,249.005 82.899,248.809 83.020 C 248.333 83.314,246.799 82.471,247.055 82.056 C 247.166 81.876,246.951 81.753,246.578 81.782 C 246.202 81.812,245.946 81.605,246.006 81.319 C 246.065 81.034,245.937 80.910,245.721 81.044 C 245.192 81.370,243.669 80.525,243.955 80.063 C 244.079 79.861,243.947 79.786,243.661 79.896 C 243.376 80.006,242.795 79.815,242.372 79.472 C 241.948 79.129,241.848 78.976,242.150 79.133 C 242.502 79.316,242.603 79.262,242.431 78.984 C 242.283 78.745,241.876 78.660,241.525 78.794 C 241.151 78.938,240.987 78.879,241.127 78.651 C 241.260 78.436,240.983 78.275,240.508 78.291 C 240.032 78.307,239.690 78.109,239.741 77.846 C 239.799 77.554,239.587 77.467,239.189 77.620 C 238.721 77.799,238.632 77.725,238.863 77.350 C 239.067 77.021,239.032 76.926,238.767 77.089 C 238.246 77.412,237.047 76.980,237.305 76.563 C 237.523 76.209,236.323 75.657,236.012 75.967 C 235.899 76.080,236.042 76.172,236.328 76.172 C 236.615 76.172,236.757 76.264,236.644 76.376 C 236.314 76.707,235.140 76.123,235.374 75.745 C 235.491 75.555,235.286 75.515,234.917 75.657 C 234.426 75.845,234.332 75.775,234.567 75.397 C 234.780 75.051,234.735 74.973,234.432 75.160 C 233.793 75.555,232.355 75.033,232.672 74.521 C 232.828 74.268,232.751 74.211,232.479 74.379 C 231.840 74.774,230.402 74.252,230.719 73.740 C 230.876 73.485,230.797 73.430,230.521 73.600 C 229.867 74.005,227.276 73.081,227.600 72.558 C 227.770 72.283,227.622 72.225,227.181 72.394 C 226.198 72.772,224.373 72.270,225.061 71.811 C 225.394 71.589,225.172 71.557,224.453 71.725 C 223.735 71.892,223.409 71.846,223.563 71.598 C 223.710 71.360,223.389 71.273,222.742 71.376 C 221.905 71.510,221.804 71.456,222.266 71.125 C 222.710 70.806,222.522 70.759,221.484 70.932 C 220.404 71.112,220.240 71.065,220.703 70.710 C 221.184 70.342,221.134 70.305,220.427 70.503 C 219.232 70.838,216.552 70.315,217.247 69.882 C 217.559 69.687,217.138 69.631,216.211 69.745 C 214.968 69.897,214.808 69.854,215.430 69.532 C 216.102 69.185,216.060 69.158,215.127 69.340 C 214.531 69.456,212.861 69.423,211.416 69.267 C 209.298 69.038,209.016 68.935,209.961 68.736 C 210.605 68.601,208.848 68.531,206.055 68.583 C 202.253 68.653,201.615 68.604,203.516 68.390 L 206.055 68.104 203.027 68.036 C 201.362 67.999,200.000 68.124,200.000 68.314 C 200.000 68.692,194.242 68.591,193.857 68.206 C 193.727 68.076,192.726 67.997,191.634 68.032 L 189.648 68.096 191.797 68.386 M203.778 82.941 C 205.231 83.693,206.392 85.001,206.070 85.522 C 205.929 85.751,206.007 85.938,206.245 85.938 C 206.867 85.938,206.306 88.633,205.420 89.897 C 202.340 94.289,191.469 92.441,191.693 87.563 C 191.750 86.309,191.717 86.253,191.426 87.109 C 191.237 87.664,191.077 87.816,191.055 87.461 C 191.033 87.117,191.209 86.282,191.444 85.605 C 191.847 84.450,192.230 84.173,193.164 84.361 C 193.379 84.405,193.431 84.317,193.280 84.166 C 191.649 82.534,200.904 81.455,203.778 82.941 M182.136 85.577 C 184.377 86.598,185.934 90.833,184.414 91.773 C 184.106 91.963,184.012 92.307,184.190 92.595 C 184.389 92.917,184.338 92.992,184.045 92.811 C 183.797 92.657,183.594 92.685,183.594 92.871 C 183.594 93.057,183.317 93.551,182.979 93.968 C 182.641 94.385,182.487 94.489,182.636 94.198 C 182.844 93.794,182.690 93.809,181.982 94.262 C 181.472 94.588,180.264 95.081,179.297 95.357 C 178.330 95.634,177.413 96.045,177.258 96.270 C 176.942 96.730,172.633 96.846,172.914 96.387 C 173.080 96.115,172.352 95.946,171.196 95.988 C 170.929 95.998,170.800 95.863,170.907 95.689 C 171.015 95.515,170.610 95.022,170.008 94.593 C 164.605 90.745,175.577 82.588,182.136 85.577 M224.038 86.383 C 225.628 86.845,226.855 87.342,226.765 87.488 C 226.675 87.634,226.988 87.740,227.461 87.724 C 227.951 87.708,228.278 87.905,228.223 88.184 C 228.169 88.452,228.301 88.672,228.516 88.672 C 228.730 88.672,228.906 89.034,228.906 89.476 C 228.906 89.919,229.044 90.195,229.213 90.091 C 229.737 89.767,229.501 93.620,228.955 94.277 C 228.671 94.619,227.841 95.115,227.110 95.380 C 226.379 95.644,225.781 95.970,225.781 96.105 C 225.781 96.546,221.563 96.537,221.291 96.097 C 221.146 95.863,220.691 95.778,220.280 95.909 C 219.845 96.047,219.531 95.962,219.531 95.706 C 219.531 95.464,219.355 95.375,219.141 95.508 C 218.926 95.641,218.750 95.569,218.750 95.348 C 218.750 95.127,218.519 95.035,218.236 95.144 C 217.550 95.407,215.503 93.482,215.859 92.907 C 216.030 92.629,215.964 92.564,215.685 92.736 C 215.167 93.057,215.152 93.004,215.077 90.559 C 215.046 89.556,215.157 88.819,215.323 88.922 C 215.600 89.093,215.783 88.501,215.671 87.793 C 215.646 87.632,215.837 87.544,216.096 87.598 C 216.354 87.651,216.578 87.432,216.593 87.109 C 216.608 86.787,216.922 86.548,217.290 86.577 C 217.659 86.606,217.868 86.481,217.755 86.299 C 217.514 85.908,219.883 85.156,220.632 85.385 C 220.915 85.472,222.448 85.921,224.038 86.383 M261.133 93.359 C 262.841 95.078,264.152 96.484,264.044 96.484 C 263.937 96.484,262.451 95.078,260.742 93.359 C 259.034 91.641,257.723 90.234,257.831 90.234 C 257.938 90.234,259.424 91.641,261.133 93.359 M161.184 93.782 C 162.389 94.527,163.137 95.341,162.012 94.682 C 161.743 94.525,161.855 94.775,162.261 95.238 C 162.947 96.021,163.532 101.373,162.888 100.975 C 162.765 100.899,162.262 101.595,161.771 102.522 C 161.250 103.504,160.319 104.507,159.540 104.926 C 158.805 105.322,158.203 105.768,158.203 105.916 C 158.203 106.791,153.269 106.039,152.111 104.987 C 150.377 103.414,149.160 98.802,150.734 99.776 C 150.926 99.894,151.060 99.686,151.030 99.312 C 151.001 98.939,151.175 98.670,151.418 98.715 C 151.661 98.760,152.189 98.409,152.590 97.934 L 153.320 97.070 152.441 97.814 C 151.074 98.972,151.408 97.954,152.832 96.623 C 155.258 94.356,157.267 93.271,159.524 93.009 C 159.714 92.987,160.461 93.335,161.184 93.782 M144.359 109.539 C 144.776 109.844,145.132 110.239,145.150 110.418 C 145.168 110.596,145.388 111.237,145.638 111.842 C 146.239 113.292,146.215 114.969,145.571 116.516 C 145.283 117.208,145.122 117.993,145.213 118.262 C 145.303 118.530,145.099 118.856,144.759 118.987 C 144.419 119.117,144.141 119.475,144.141 119.782 C 144.141 120.088,143.526 120.702,142.774 121.145 C 142.022 121.589,141.504 122.108,141.622 122.299 C 141.741 122.491,141.565 122.543,141.231 122.415 C 140.898 122.287,140.625 122.333,140.625 122.517 C 140.625 122.701,139.763 122.852,138.709 122.852 C 137.655 122.852,136.875 122.720,136.974 122.559 C 137.074 122.397,136.812 122.266,136.393 122.266 C 135.974 122.266,135.514 121.963,135.372 121.593 C 135.151 121.017,135.062 121.003,134.751 121.495 C 134.482 121.921,134.385 121.746,134.381 120.824 C 134.378 120.138,134.199 119.468,133.983 119.335 C 133.735 119.182,133.725 118.845,133.953 118.417 C 134.153 118.045,134.301 117.485,134.284 117.171 C 134.207 115.795,134.396 115.201,134.826 115.467 C 135.113 115.644,135.171 115.574,134.984 115.272 C 134.332 114.216,138.474 109.747,139.511 110.387 C 139.784 110.556,139.859 110.497,139.701 110.241 C 139.010 109.123,142.974 108.526,144.359 109.539 M132.243 129.215 C 132.033 129.425,133.760 131.119,134.046 130.982 C 134.187 130.914,134.210 131.210,134.098 131.640 C 133.973 132.118,134.085 132.422,134.387 132.422 C 135.545 132.422,134.338 140.245,133.047 141.107 C 132.748 141.307,132.763 141.396,133.097 141.400 C 133.906 141.410,132.882 143.150,131.634 143.887 C 129.965 144.873,124.564 144.772,125.185 143.766 C 125.294 143.591,125.120 143.231,124.800 142.965 C 124.480 142.700,124.213 142.636,124.207 142.823 C 124.200 143.011,124.035 142.891,123.840 142.557 C 123.637 142.211,123.618 140.962,123.796 139.652 C 123.967 138.389,124.017 137.009,123.906 136.585 C 123.772 136.072,123.854 135.908,124.153 136.092 C 124.434 136.266,124.521 136.162,124.387 135.813 C 124.270 135.507,124.439 134.992,124.764 134.667 C 125.088 134.343,125.254 133.978,125.132 133.856 C 124.827 133.551,126.344 131.167,127.429 130.248 C 128.317 129.495,128.318 129.495,127.734 130.295 C 127.402 130.751,127.571 130.667,128.125 130.100 C 128.860 129.348,129.506 129.099,130.739 129.092 C 131.639 129.087,132.316 129.142,132.243 129.215 M67.578 154.102 C 66.629 155.068,65.765 155.859,65.658 155.859 C 65.550 155.859,66.239 155.068,67.188 154.102 C 68.136 153.135,69.001 152.344,69.108 152.344 C 69.215 152.344,68.527 153.135,67.578 154.102 M348.919 194.141 C 348.919 194.893,348.999 195.200,349.097 194.824 C 349.196 194.448,349.196 193.833,349.097 193.457 C 348.999 193.081,348.919 193.389,348.919 194.141 M349.361 201.758 C 349.362 203.906,349.428 204.735,349.507 203.600 C 349.586 202.465,349.586 200.707,349.505 199.694 C 349.425 198.681,349.360 199.609,349.361 201.758 M46.200 200.391 C 46.200 201.357,46.276 201.753,46.369 201.270 C 46.463 200.786,46.463 199.995,46.369 199.512 C 46.276 199.028,46.200 199.424,46.200 200.391 M251.350 233.984 C 251.350 242.900,251.402 246.548,251.464 242.090 C 251.527 237.632,251.527 230.337,251.464 225.879 C 251.402 221.421,251.350 225.068,251.350 233.984 M65.430 248.828 C 66.705 250.117,67.661 251.172,67.554 251.172 C 67.446 251.172,66.315 250.117,65.039 248.828 C 63.763 247.539,62.808 246.484,62.915 246.484 C 63.023 246.484,64.154 247.539,65.430 248.828 " stroke="none" fill="#fbcb93" fill-rule="evenodd"></path><path id="path4" d="M191.992 68.232 C 187.021 68.544,173.405 71.191,173.953 71.740 C 174.048 71.835,175.868 71.471,177.998 70.931 C 183.967 69.418,189.072 68.719,194.781 68.633 C 197.651 68.590,200.000 68.423,200.000 68.262 C 200.000 67.983,196.193 67.969,191.992 68.232 M203.040 68.648 C 204.176 68.727,205.933 68.726,206.947 68.646 C 207.960 68.566,207.031 68.501,204.883 68.502 C 202.734 68.503,201.905 68.569,203.040 68.648 M212.388 69.359 C 214.367 69.647,218.059 70.409,220.591 71.052 C 227.065 72.695,227.513 72.773,224.407 71.713 C 220.924 70.524,212.296 68.737,210.307 68.792 C 209.388 68.817,210.209 69.041,212.388 69.359 M169.604 72.923 C 168.033 73.466,166.816 73.977,166.899 74.060 C 166.982 74.143,168.531 73.699,170.341 73.073 C 172.152 72.446,173.369 71.934,173.047 71.935 C 172.725 71.936,171.176 72.381,169.604 72.923 M227.376 72.808 C 227.520 72.943,235.529 76.170,236.523 76.495 C 236.738 76.565,236.650 76.434,236.328 76.203 C 235.254 75.436,226.726 72.202,227.376 72.808 M162.491 75.551 C 144.129 82.742,126.649 98.897,117.651 116.992 C 114.550 123.228,110.403 134.752,111.033 135.382 C 111.119 135.468,111.671 133.826,112.261 131.734 C 118.993 107.854,138.218 86.042,160.742 76.731 C 166.434 74.378,166.666 74.274,166.211 74.260 C 165.996 74.253,164.322 74.834,162.491 75.551 M238.614 77.544 C 239.549 78.078,240.412 78.516,240.531 78.516 C 240.651 78.516,242.522 79.599,244.691 80.923 C 259.016 89.670,269.553 101.187,276.619 115.820 C 277.864 118.398,278.887 120.332,278.891 120.117 C 278.959 116.803,269.152 101.704,262.316 94.597 C 255.326 87.331,240.350 76.531,237.314 76.567 C 237.094 76.570,237.679 77.009,238.614 77.544 M196.225 82.413 C 195.053 82.591,193.836 83.066,193.320 83.547 C 192.831 84.002,192.302 84.375,192.144 84.375 C 191.733 84.375,190.915 87.024,191.149 87.601 C 191.256 87.868,191.360 87.734,191.378 87.305 C 191.564 82.945,200.896 81.111,205.060 84.615 C 206.425 85.764,206.699 85.311,205.371 84.101 C 203.429 82.333,200.422 81.778,196.225 82.413 M175.805 85.388 C 170.661 86.771,166.774 92.009,169.319 94.128 C 169.596 94.358,169.685 93.808,169.597 92.419 C 169.485 90.657,169.615 90.195,170.526 89.112 C 174.812 84.019,184.321 84.820,184.400 90.280 C 184.422 91.794,184.469 91.882,184.805 91.039 C 186.396 87.057,181.360 83.895,175.805 85.388 M219.118 85.527 C 217.776 85.934,216.299 86.741,216.510 86.953 C 216.604 87.047,217.190 86.858,217.813 86.533 C 219.550 85.627,222.501 86.086,227.930 88.106 C 228.473 88.308,228.592 88.270,228.320 87.982 C 228.014 87.658,224.318 86.405,220.508 85.334 C 220.293 85.273,219.667 85.360,219.118 85.527 M214.845 91.530 C 214.840 92.558,217.247 95.325,218.123 95.300 C 218.361 95.293,218.051 94.912,217.435 94.453 C 216.819 93.994,215.984 93.076,215.581 92.414 C 215.177 91.753,214.846 91.354,214.845 91.530 M157.935 93.345 C 155.016 94.040,149.965 99.045,150.037 101.172 C 150.065 102.002,150.128 101.947,150.455 100.810 C 151.656 96.629,158.717 92.533,161.537 94.381 C 162.067 94.728,162.500 94.918,162.500 94.803 C 162.500 94.506,159.937 92.961,159.524 93.009 C 159.335 93.031,158.620 93.182,157.935 93.345 M175.586 96.484 C 174.888 96.784,174.917 96.823,175.856 96.848 C 176.434 96.863,177.016 96.699,177.148 96.484 C 177.437 96.018,176.671 96.018,175.586 96.484 M222.369 96.374 C 222.962 96.464,223.841 96.461,224.322 96.369 C 224.802 96.276,224.316 96.203,223.242 96.205 C 222.168 96.208,221.775 96.284,222.369 96.374 M138.850 110.304 C 136.421 111.940,133.373 116.316,134.133 117.076 C 134.227 117.170,134.430 116.838,134.584 116.338 C 135.952 111.908,141.754 108.210,144.542 109.992 L 145.508 110.609 144.586 109.797 C 143.178 108.556,141.183 108.733,138.850 110.304 M278.934 120.775 C 278.919 120.922,279.101 121.538,279.339 122.143 C 279.577 122.747,280.358 125.176,281.073 127.539 C 281.789 129.902,282.385 131.605,282.398 131.324 C 282.458 130.045,279.048 119.665,278.934 120.775 M127.073 130.566 C 125.844 131.920,124.867 133.591,125.142 133.866 C 125.279 134.003,125.391 133.935,125.391 133.715 C 125.391 133.495,126.014 132.499,126.776 131.501 C 128.248 129.574,128.395 129.109,127.073 130.566 M284.766 132.458 C 290.315 133.440,294.243 134.012,294.396 133.859 C 294.623 133.632,287.873 132.489,284.961 132.261 L 282.617 132.077 284.766 132.458 M134.375 134.350 C 134.375 135.410,134.224 136.684,134.039 137.182 C 133.854 137.679,133.589 138.789,133.449 139.648 L 133.195 141.211 133.805 140.122 C 134.411 139.041,135.118 132.422,134.628 132.422 C 134.489 132.422,134.375 133.289,134.375 134.350 M298.438 135.071 C 341.155 147.742,361.087 193.762,341.152 233.691 C 340.213 235.571,339.545 237.109,339.667 237.109 C 340.128 237.109,344.523 227.381,345.667 223.828 C 355.556 193.108,344.484 161.150,317.773 143.314 C 312.428 139.744,301.077 134.936,296.265 134.204 C 295.419 134.075,296.396 134.465,298.438 135.071 M124.282 135.368 C 124.032 135.916,123.835 136.576,123.843 136.835 C 123.852 137.093,124.118 136.707,124.435 135.976 C 125.103 134.438,124.962 133.877,124.282 135.368 M101.912 136.732 C 81.604 139.690,65.129 151.622,54.736 170.898 C 51.170 177.511,47.259 188.557,47.780 190.541 C 47.913 191.046,47.967 191.003,48.002 190.363 C 48.433 182.300,56.933 165.767,65.469 156.390 C 76.791 143.952,88.990 138.344,109.375 136.206 C 110.340 136.105,110.168 136.056,108.789 136.039 C 107.715 136.026,104.620 136.338,101.912 136.732 M132.495 142.216 C 131.676 143.526,129.411 144.261,126.956 144.012 C 125.346 143.849,124.986 143.897,125.525 144.203 C 127.622 145.392,132.285 144.241,133.161 142.318 C 133.676 141.189,133.183 141.113,132.495 142.216 M47.141 192.777 C 46.999 193.634,46.903 194.863,46.927 195.508 C 46.951 196.152,47.124 195.625,47.312 194.336 C 47.695 191.714,47.544 190.338,47.141 192.777 M46.560 199.089 C 46.518 200.414,46.383 201.821,46.260 202.214 C 46.050 202.881,46.064 202.884,46.474 202.247 C 46.723 201.859,46.853 200.512,46.774 199.122 L 46.635 196.680 46.560 199.089 M46.097 203.809 C 46.259 236.950,72.049 264.538,106.248 268.152 C 110.577 268.609,108.654 268.067,103.629 267.413 C 72.197 263.324,47.719 237.196,46.790 206.742 C 46.702 203.849,46.085 201.237,46.097 203.809 M337.202 240.594 C 336.077 242.295,335.157 243.833,335.157 244.011 C 335.159 244.376,338.007 240.234,338.897 238.574 C 339.901 236.702,339.313 237.403,337.202 240.594 M112.500 268.015 C 111.748 268.148,125.898 268.252,143.945 268.245 C 161.992 268.239,176.230 268.172,175.586 268.096 C 173.454 267.845,113.895 267.769,112.500 268.015 " stroke="none" fill="#f7b977" fill-rule="evenodd"></path></g></svg>