<svg id="svg" version="1.1" xmlns="http://www.w3.org/2000/svg" xmlns:xlink="http://www.w3.org/1999/xlink" width="400" height="400" viewBox="0, 0, 400,400"><g id="svgg"><path id="path0" d="M189.994 7.847 C 151.667 11.269,117.169 34.242,100.167 67.666 C 79.247 108.789,86.016 160.290,116.516 192.060 L 119.612 195.285 100.138 195.396 L 80.664 195.508 78.125 196.723 C 73.478 198.946,70.192 202.693,68.709 207.457 C 67.576 211.096,67.573 251.392,68.705 255.029 C 69.703 258.237,71.049 260.424,73.353 262.578 L 75.287 264.387 73.168 266.471 C 71.840 267.778,70.512 269.639,69.607 271.463 L 68.164 274.372 68.050 294.180 C 67.914 317.766,68.223 319.416,73.676 324.204 L 75.033 325.395 73.010 327.418 C 71.731 328.696,70.467 330.529,69.575 332.396 L 68.164 335.352 68.050 355.605 C 67.925 377.680,67.927 377.706,70.206 382.210 C 72.314 386.375,77.948 390.642,82.823 391.766 C 86.007 392.499,314.926 392.327,317.760 391.589 C 324.295 389.886,330.162 384.002,331.617 377.690 C 331.855 376.659,332.016 368.091,332.022 356.170 L 332.031 336.364 331.098 333.793 C 330.013 330.803,328.614 328.657,326.509 326.756 L 325.008 325.400 326.772 323.773 C 327.920 322.715,329.114 320.983,330.186 318.818 L 331.836 315.489 331.836 294.951 L 331.836 274.414 330.391 271.388 C 329.480 269.479,328.217 267.633,326.973 266.389 L 325.000 264.416 327.007 262.409 C 328.269 261.147,329.537 259.306,330.425 257.447 L 331.836 254.492 331.951 232.422 C 332.085 206.649,332.056 206.428,327.895 201.350 C 323.250 195.682,321.477 195.313,298.937 195.313 L 280.365 195.313 283.298 192.242 C 313.928 160.182,320.817 108.832,299.973 67.948 C 279.673 28.129,235.176 3.813,189.994 7.847 M213.086 19.386 C 230.456 21.548,249.547 29.355,261.027 38.991 L 262.874 40.541 260.636 41.626 C 255.405 44.162,250.670 50.480,249.382 56.641 C 248.145 62.557,249.264 66.137,256.398 79.102 C 269.444 102.808,269.330 109.315,255.087 153.711 C 250.990 166.480,247.946 175.611,247.696 175.879 C 247.545 176.040,244.858 168.481,241.724 159.082 C 238.590 149.683,230.556 125.758,223.872 105.916 C 217.188 86.074,211.719 69.632,211.719 69.378 C 211.719 69.064,213.550 68.770,217.422 68.462 C 221.279 68.154,223.426 67.810,224.054 67.398 C 226.491 65.802,226.787 62.154,224.653 60.020 L 223.468 58.834 214.956 59.304 C 204.238 59.895,194.469 59.900,179.176 59.321 C 165.480 58.803,165.524 58.795,164.600 61.988 C 163.243 66.673,165.363 68.118,174.298 68.598 C 179.189 68.861,179.266 68.880,179.624 69.882 C 179.824 70.441,183.445 80.287,187.670 91.762 L 195.351 112.626 186.960 137.661 C 182.344 151.430,177.734 165.640,176.713 169.238 C 175.693 172.837,174.758 175.780,174.636 175.780 C 174.514 175.779,173.814 173.713,173.082 171.190 C 172.349 168.666,169.739 160.713,167.283 153.516 C 162.367 139.113,139.312 70.997,138.908 69.686 C 138.663 68.888,138.805 68.857,143.973 68.589 C 152.505 68.146,155.255 65.896,152.737 61.416 C 151.310 58.877,151.511 58.909,140.121 59.387 C 134.490 59.623,127.269 59.760,124.075 59.693 L 118.266 59.570 120.993 56.043 C 137.743 34.376,164.749 20.735,195.117 18.602 C 198.553 18.361,208.248 18.784,213.086 19.386 M290.435 74.023 C 312.602 119.802,298.507 172.701,256.839 200.109 C 253.758 202.136,248.828 204.895,248.828 204.592 C 248.828 204.533,252.800 192.885,257.655 178.707 C 274.285 130.138,284.652 98.793,285.494 94.531 C 287.126 86.277,287.468 77.574,286.508 68.750 C 286.178 65.725,286.861 66.642,290.435 74.023 M112.109 78.223 C 114.900 87.406,118.232 97.041,127.135 121.680 C 134.591 142.312,147.028 177.388,154.879 199.925 C 156.324 204.074,157.397 207.577,157.264 207.710 C 156.958 208.016,151.024 204.923,145.906 201.790 C 103.593 175.884,87.440 122.982,107.854 77.168 C 108.959 74.687,109.988 72.656,110.140 72.656 C 110.292 72.656,111.178 75.161,112.109 78.223 M206.839 141.602 C 210.210 151.055,214.779 163.887,216.993 170.117 C 220.878 181.049,231.312 210.070,231.830 211.385 C 232.036 211.906,231.507 212.217,229.030 213.028 C 212.789 218.348,194.114 218.821,175.293 214.389 C 172.554 213.744,170.313 213.182,170.313 213.139 C 170.313 213.096,171.350 209.991,172.617 206.238 C 203.883 113.659,200.344 124.041,200.560 124.260 C 200.643 124.345,203.468 132.148,206.839 141.602 M135.499 208.162 C 171.137 234.507,227.443 234.761,263.680 208.742 L 267.189 206.222 291.504 206.334 C 324.609 206.486,321.190 203.418,321.016 232.813 C 320.882 255.236,321.031 254.243,317.500 256.265 L 315.820 257.227 200.391 257.227 C 136.904 257.227,84.473 257.090,83.877 256.924 C 79.175 255.610,78.906 254.232,78.908 231.524 C 78.912 203.687,75.744 206.316,109.327 206.277 L 132.912 206.250 135.499 208.162 M100.781 224.227 C 91.540 228.547,94.998 241.599,105.211 240.949 C 116.125 240.254,115.900 224.315,104.965 223.570 C 103.069 223.441,102.155 223.585,100.781 224.227 M265.346 223.933 C 257.400 225.508,257.314 238.427,265.234 240.631 C 267.681 241.312,297.981 241.124,300.061 240.415 C 307.407 237.912,307.576 226.654,300.303 224.254 C 298.793 223.756,267.681 223.470,265.346 223.933 M317.115 270.804 C 318.011 271.397,319.228 272.614,319.821 273.510 L 320.898 275.137 321.018 293.721 C 321.159 315.871,321.066 316.373,316.361 318.773 C 314.023 319.966,85.977 319.966,83.639 318.773 C 79.037 316.425,78.911 315.782,78.911 294.727 C 78.911 275.448,78.953 275.036,81.178 272.568 C 84.202 269.214,71.126 269.535,200.614 269.636 L 315.487 269.727 317.115 270.804 M100.981 286.172 C 94.032 288.715,93.391 298.606,99.953 302.034 C 105.673 305.021,112.284 301.451,112.811 295.090 C 113.340 288.721,107.024 283.960,100.981 286.172 M264.065 286.554 C 256.976 289.660,257.864 300.629,265.374 302.715 C 268.666 303.630,299.108 303.094,300.977 302.089 C 306.871 298.917,307.339 290.778,301.834 287.198 L 300.195 286.133 282.813 286.044 C 267.927 285.968,265.234 286.042,264.065 286.554 M315.750 331.669 C 320.875 333.092,321.094 334.080,321.092 355.709 C 321.089 376.957,320.869 378.125,316.523 379.941 C 314.558 380.762,84.830 380.724,83.242 379.903 C 79.079 377.750,78.911 376.815,78.911 355.859 C 78.911 334.469,79.109 333.492,83.789 331.837 C 85.792 331.129,313.212 330.964,315.750 331.669 M100.850 347.320 C 96.693 348.517,94.113 354.576,95.919 358.899 C 99.727 368.014,113.622 364.688,112.807 354.856 C 112.333 349.141,106.748 345.620,100.850 347.320 M265.039 347.289 C 257.957 349.368,257.169 359.826,263.848 363.094 L 265.877 364.086 283.101 363.977 L 300.324 363.867 302.018 362.678 C 307.579 358.772,306.805 350.737,300.586 347.804 L 298.633 346.883 282.422 346.914 C 273.506 346.931,265.684 347.100,265.039 347.289 " stroke="none" fill="#1b1b4b" fill-rule="evenodd"></path><path id="path1" d="M263.956 208.692 C 227.330 234.824,171.447 234.761,135.890 208.548 L 133.303 206.641 108.741 206.647 L 84.180 206.653 82.654 207.526 C 79.296 209.446,79.506 207.909,79.385 231.474 C 79.265 254.630,79.165 253.654,81.861 255.710 C 84.040 257.372,82.266 257.348,202.344 257.286 C 323.320 257.222,316.552 257.335,318.689 255.345 C 320.947 253.244,320.888 253.809,321.016 232.734 C 321.192 203.703,324.579 206.697,291.398 206.552 L 267.106 206.445 263.956 208.692 M107.913 224.009 C 114.044 226.571,115.460 233.809,110.752 238.518 C 102.650 246.619,90.092 235.278,97.535 226.582 C 100.031 223.666,104.463 222.567,107.913 224.009 M300.047 224.040 C 307.230 226.574,307.862 236.632,301.051 240.026 L 299.065 241.016 282.443 241.007 C 263.902 240.997,264.096 241.023,261.442 238.230 C 257.230 233.796,258.983 226.030,264.648 224.025 C 267.054 223.173,297.628 223.186,300.047 224.040 M84.624 270.103 C 79.347 271.985,79.257 272.418,79.384 295.282 L 79.492 314.772 80.695 316.257 C 81.356 317.074,82.658 318.145,83.588 318.637 L 85.279 319.531 199.573 319.529 C 324.152 319.527,315.868 319.700,318.520 317.048 C 321.133 314.435,321.147 314.299,321.015 293.750 L 320.898 275.586 319.982 274.023 C 318.886 272.154,317.247 270.773,315.298 270.077 C 313.113 269.296,86.815 269.322,84.624 270.103 M107.626 286.278 C 116.870 290.477,113.482 303.701,103.327 303.055 C 92.263 302.350,92.982 285.507,104.074 285.555 C 105.163 285.560,106.762 285.885,107.626 286.278 M301.150 286.707 C 307.896 290.149,306.963 300.699,299.735 302.706 C 296.848 303.508,266.109 303.239,264.258 302.396 C 257.601 299.364,257.306 289.767,263.772 286.580 C 265.920 285.521,299.045 285.634,301.150 286.707 M83.821 331.951 C 82.532 332.398,81.504 333.111,80.696 334.118 L 79.492 335.619 79.492 355.859 L 79.492 376.099 80.674 377.559 C 83.289 380.790,70.130 380.469,199.813 380.469 L 315.069 380.469 316.809 379.590 C 320.934 377.506,321.089 376.637,321.089 355.664 C 321.089 334.132,320.835 333.042,315.496 331.698 C 312.185 330.864,86.242 331.111,83.821 331.951 M108.919 348.152 C 116.304 353.040,112.949 364.258,104.102 364.258 C 94.663 364.258,91.704 351.638,100.195 347.595 C 102.579 346.460,106.766 346.728,108.919 348.152 M300.586 347.617 C 307.305 350.735,307.618 359.993,301.116 363.310 C 299.656 364.055,298.899 364.081,282.057 363.976 L 264.520 363.867 262.826 362.693 C 257.493 358.994,257.929 350.942,263.625 347.966 L 265.714 346.875 282.369 346.884 C 297.760 346.892,299.142 346.947,300.586 347.617 " stroke="none" fill="#fbd43b" fill-rule="evenodd"></path><path id="path2" d="M193.555 18.750 C 168.818 20.280,145.428 30.812,127.985 48.274 C 124.438 51.824,119.613 57.447,118.709 59.082 C 118.248 59.917,124.061 59.994,140.214 59.367 C 152.497 58.890,153.362 59.181,153.292 63.760 C 153.237 67.310,151.411 68.260,143.951 68.618 C 141.048 68.757,138.672 68.900,138.672 68.936 C 138.672 69.241,160.026 132.284,163.881 143.359 C 169.244 158.770,171.476 165.526,173.267 171.776 C 173.898 173.977,174.508 175.779,174.623 175.780 C 174.738 175.781,175.780 172.485,176.939 168.457 C 178.823 161.905,182.143 151.787,192.227 121.859 L 195.325 112.664 189.237 96.078 C 185.888 86.956,182.267 77.100,181.190 74.176 L 179.232 68.860 173.950 68.586 C 166.095 68.179,164.323 67.247,164.323 63.522 C 164.323 59.538,166.218 58.534,172.852 59.006 C 182.878 59.719,202.407 59.896,213.036 59.370 L 223.487 58.853 224.663 60.030 C 226.801 62.167,226.485 65.806,224.021 67.420 C 223.347 67.862,221.362 68.178,217.389 68.477 C 213.649 68.758,211.719 69.055,211.719 69.349 C 211.719 69.595,216.659 84.458,222.697 102.378 C 228.735 120.299,236.772 144.229,240.558 155.557 C 244.344 166.884,247.558 176.025,247.701 175.869 C 247.973 175.572,251.432 165.110,255.414 152.539 C 269.234 108.917,269.371 102.672,257.003 80.235 C 249.662 66.917,249.082 65.429,249.101 59.961 C 249.128 52.567,253.970 44.898,260.686 41.612 L 262.874 40.541 261.027 38.991 C 244.765 25.341,217.794 17.251,193.555 18.750 M286.501 68.555 C 288.645 87.439,287.524 91.859,261.133 168.555 C 258.841 175.215,255.239 185.762,253.128 191.992 C 251.017 198.223,249.154 203.661,248.988 204.078 C 248.621 205.003,252.201 203.136,257.391 199.697 C 298.682 172.338,312.490 119.368,290.255 73.633 C 286.917 66.767,286.185 65.778,286.501 68.555 M108.214 76.434 C 86.213 126.403,105.495 181.656,153.444 206.040 C 155.445 207.058,157.168 207.806,157.271 207.703 C 157.652 207.322,133.413 138.561,119.717 101.172 C 117.591 95.367,112.405 79.599,111.079 74.902 C 110.248 71.962,110.163 72.008,108.214 76.434 M200.237 124.609 C 200.106 124.932,198.522 129.590,196.717 134.961 C 194.913 140.332,188.652 158.877,182.805 176.172 C 176.958 193.467,171.772 208.880,171.281 210.424 L 170.388 213.231 174.550 214.225 C 193.526 218.759,212.998 218.334,229.030 213.037 C 231.510 212.217,232.035 211.907,231.826 211.385 C 230.896 209.063,214.024 162.005,208.978 147.656 C 207.108 142.342,203.289 131.716,200.975 125.391 C 200.628 124.442,200.402 124.203,200.237 124.609 " stroke="none" fill="#449df1" fill-rule="evenodd"></path><path id="path3" d="M0.000 200.000 L 0.000 400.000 200.000 400.000 L 400.000 400.000 400.000 200.000 L 400.000 0.000 200.000 0.000 L 0.000 0.000 0.000 200.000 M212.307 8.008 C 255.988 13.056,292.138 41.612,306.091 82.090 C 319.243 120.244,310.357 163.929,283.757 191.895 L 280.877 194.922 298.560 194.922 C 320.404 194.922,322.310 195.300,327.352 200.631 C 332.160 205.715,332.422 207.308,332.422 231.445 C 332.422 255.655,332.031 257.908,327.014 262.601 L 325.103 264.388 327.027 266.276 C 331.960 271.117,332.422 273.568,332.422 294.922 C 332.422 316.250,332.069 318.209,327.325 323.226 L 325.314 325.352 327.284 327.322 C 329.455 329.492,331.318 333.028,331.990 336.250 C 332.705 339.675,332.562 374.162,331.820 377.307 C 330.072 384.726,324.199 390.391,316.602 391.989 C 313.196 392.706,88.858 392.880,84.375 392.170 C 76.354 390.899,69.416 384.215,67.998 376.393 C 67.299 372.535,67.449 339.073,68.180 335.974 C 68.977 332.591,70.814 329.275,73.047 327.186 L 74.897 325.455 72.973 323.568 C 68.050 318.737,67.578 316.252,67.578 295.136 C 67.578 273.677,67.964 271.590,72.861 266.574 L 74.974 264.410 72.869 262.305 C 67.901 257.337,67.585 255.467,67.581 231.029 C 67.577 207.086,67.804 205.757,72.791 200.477 C 77.816 195.157,79.352 194.866,101.660 195.007 C 111.275 195.068,119.141 195.063,119.141 194.997 C 119.141 194.931,117.827 193.518,116.222 191.858 C 82.784 157.268,78.476 98.474,106.331 56.857 C 129.270 22.586,171.201 3.258,212.307 8.008 " stroke="none" fill="#fbfbfb" fill-rule="evenodd"></path><path id="path4" d="M97.363 206.543 C 103.970 206.603,114.780 206.603,121.387 206.543 C 127.993 206.483,122.588 206.434,109.375 206.434 C 96.162 206.434,90.757 206.483,97.363 206.543 M279.618 206.543 C 286.132 206.603,296.679 206.603,303.055 206.543 C 309.432 206.482,304.102 206.433,291.211 206.433 C 278.320 206.433,273.103 206.483,279.618 206.543 M79.087 231.641 C 79.087 242.275,79.138 246.626,79.199 241.309 C 79.260 235.991,79.260 227.290,79.199 221.973 C 79.138 216.655,79.087 221.006,79.087 231.641 M332.177 226.758 C 332.178 229.121,332.243 230.038,332.320 228.794 C 332.398 227.551,332.397 225.618,332.319 224.497 C 332.240 223.377,332.176 224.395,332.177 226.758 M275.514 223.730 C 279.556 223.794,286.060 223.793,289.967 223.730 C 293.874 223.666,290.566 223.614,282.617 223.614 C 274.668 223.614,271.471 223.666,275.514 223.730 M196.956 228.414 C 198.396 228.489,200.857 228.490,202.424 228.415 C 203.991 228.341,202.813 228.280,199.805 228.279 C 196.797 228.279,195.515 228.339,196.956 228.414 M113.380 232.227 C 113.384 233.086,113.464 233.392,113.558 232.906 C 113.651 232.420,113.647 231.717,113.550 231.343 C 113.452 230.970,113.375 231.367,113.380 232.227 M332.163 233.984 C 332.163 235.596,332.232 236.255,332.316 235.449 C 332.400 234.644,332.400 233.325,332.316 232.520 C 332.232 231.714,332.163 232.373,332.163 233.984 M332.130 238.477 C 332.134 239.336,332.214 239.642,332.308 239.156 C 332.401 238.670,332.397 237.967,332.300 237.593 C 332.202 237.220,332.125 237.617,332.130 238.477 M332.130 241.602 C 332.134 242.461,332.214 242.767,332.308 242.281 C 332.401 241.795,332.397 241.092,332.300 240.718 C 332.202 240.345,332.125 240.742,332.130 241.602 M103.813 241.292 C 104.299 241.385,105.002 241.382,105.376 241.284 C 105.749 241.186,105.352 241.110,104.492 241.114 C 103.633 241.118,103.327 241.198,103.813 241.292 M332.122 248.438 C 332.122 249.189,332.202 249.497,332.301 249.121 C 332.399 248.745,332.399 248.130,332.301 247.754 C 332.202 247.378,332.122 247.686,332.122 248.438 M86.230 257.307 C 86.714 257.400,87.505 257.400,87.988 257.307 C 88.472 257.214,88.076 257.138,87.109 257.138 C 86.143 257.138,85.747 257.214,86.230 257.307 M79.087 294.727 C 79.087 304.824,79.137 309.011,79.199 304.031 C 79.261 299.050,79.261 290.789,79.199 285.671 C 79.137 280.554,79.087 284.629,79.087 294.727 M332.156 282.813 C 332.156 284.209,332.227 284.780,332.314 284.082 C 332.400 283.384,332.400 282.241,332.314 281.543 C 332.227 280.845,332.156 281.416,332.156 282.813 M332.148 292.578 C 332.148 293.760,332.222 294.243,332.311 293.652 C 332.401 293.062,332.401 292.095,332.311 291.504 C 332.222 290.913,332.148 291.396,332.148 292.578 M332.168 300.000 C 332.168 301.826,332.235 302.573,332.317 301.660 C 332.400 300.747,332.400 299.253,332.317 298.340 C 332.235 297.427,332.168 298.174,332.168 300.000 M332.143 305.273 C 332.146 306.348,332.222 306.741,332.312 306.147 C 332.401 305.553,332.399 304.674,332.306 304.194 C 332.214 303.713,332.140 304.199,332.143 305.273 M332.148 309.375 C 332.148 310.557,332.222 311.040,332.311 310.449 C 332.401 309.858,332.401 308.892,332.311 308.301 C 332.222 307.710,332.148 308.193,332.148 309.375 M79.087 355.859 C 79.087 366.064,79.137 370.239,79.199 365.137 C 79.261 360.034,79.261 351.685,79.199 346.582 C 79.137 341.479,79.087 345.654,79.087 355.859 M332.163 345.703 C 332.163 347.314,332.232 347.974,332.316 347.168 C 332.400 346.362,332.400 345.044,332.316 344.238 C 332.232 343.433,332.163 344.092,332.163 345.703 M332.148 358.984 C 332.148 360.166,332.222 360.649,332.311 360.059 C 332.401 359.468,332.401 358.501,332.311 357.910 C 332.222 357.319,332.148 357.803,332.148 358.984 M332.138 364.063 C 332.138 365.029,332.214 365.425,332.307 364.941 C 332.400 364.458,332.400 363.667,332.307 363.184 C 332.214 362.700,332.138 363.096,332.138 364.063 M332.143 370.117 C 332.146 371.191,332.222 371.584,332.312 370.991 C 332.401 370.397,332.399 369.518,332.306 369.038 C 332.214 368.557,332.140 369.043,332.143 370.117 " stroke="none" fill="#8a7045" fill-rule="evenodd"></path><path id="path5" d="M92.285 195.214 C 97.173 195.276,105.171 195.276,110.059 195.214 C 114.946 195.152,110.947 195.102,101.172 195.102 C 91.396 195.102,87.397 195.152,92.285 195.214 M289.746 195.214 C 294.526 195.277,302.349 195.277,307.129 195.214 C 311.909 195.152,307.998 195.101,298.438 195.101 C 288.877 195.101,284.966 195.152,289.746 195.214 M67.759 231.055 C 67.759 241.797,67.810 246.135,67.871 240.695 C 67.932 235.256,67.932 226.467,67.871 221.164 C 67.809 215.862,67.759 220.313,67.759 231.055 M332.122 212.891 C 332.122 213.643,332.202 213.950,332.301 213.574 C 332.399 213.198,332.399 212.583,332.301 212.207 C 332.202 211.831,332.122 212.139,332.122 212.891 M332.122 215.625 C 332.122 216.377,332.202 216.685,332.301 216.309 C 332.399 215.933,332.399 215.317,332.301 214.941 C 332.202 214.565,332.122 214.873,332.122 215.625 M67.758 294.922 C 67.758 304.482,67.809 308.394,67.871 303.613 C 67.933 298.833,67.933 291.011,67.871 286.230 C 67.809 281.450,67.758 285.361,67.758 294.922 M332.130 279.102 C 332.134 279.961,332.214 280.267,332.308 279.781 C 332.401 279.295,332.397 278.592,332.300 278.218 C 332.202 277.845,332.125 278.242,332.130 279.102 M332.138 339.453 C 332.138 340.420,332.214 340.815,332.307 340.332 C 332.400 339.849,332.400 339.058,332.307 338.574 C 332.214 338.091,332.138 338.486,332.138 339.453 M67.758 356.445 C 67.758 366.328,67.809 370.315,67.871 365.305 C 67.933 360.295,67.933 352.209,67.871 347.336 C 67.809 342.464,67.758 346.563,67.758 356.445 M332.130 366.992 C 332.134 367.852,332.214 368.157,332.308 367.671 C 332.401 367.185,332.397 366.482,332.300 366.109 C 332.202 365.735,332.125 366.133,332.130 366.992 M332.130 373.242 C 332.134 374.102,332.214 374.407,332.308 373.921 C 332.401 373.435,332.397 372.732,332.300 372.359 C 332.202 371.985,332.125 372.383,332.130 373.242 M143.489 392.480 C 174.819 392.536,225.972 392.536,257.160 392.480 C 288.349 392.425,262.715 392.380,200.195 392.380 C 137.676 392.380,112.158 392.425,143.489 392.480 " stroke="none" fill="#8e8dad" fill-rule="evenodd"></path><path id="path6" d="" stroke="none" fill="#c8c7d4" fill-rule="evenodd"></path><path id="path7" d="" stroke="none" fill="#bcb4c8" fill-rule="evenodd"></path><path id="path8" d="" stroke="none" fill="#bcbcbc" fill-rule="evenodd"></path></g></svg>