<svg id="svg" version="1.1" xmlns="http://www.w3.org/2000/svg" xmlns:xlink="http://www.w3.org/1999/xlink" width="400" height="400" viewBox="0, 0, 400,400"><g id="svgg"><path id="path0" d="M248.047 129.714 C 248.767 129.967,248.428 130.026,246.760 129.937 C 245.328 129.860,244.683 129.946,245.003 130.170 C 245.336 130.403,245.083 130.472,244.259 130.372 C 243.521 130.282,243.105 130.374,243.243 130.596 C 243.380 130.818,243.055 130.892,242.453 130.777 C 241.819 130.656,241.523 130.732,241.674 130.977 C 241.824 131.220,241.593 131.288,241.076 131.153 C 240.536 131.011,240.326 131.082,240.490 131.348 C 240.655 131.614,240.444 131.685,239.904 131.543 C 239.441 131.422,239.152 131.470,239.263 131.649 C 239.535 132.090,238.013 132.544,237.443 132.191 C 237.140 132.004,237.095 132.082,237.308 132.428 C 237.543 132.807,237.449 132.876,236.958 132.688 C 236.506 132.515,236.379 132.578,236.567 132.883 C 236.756 133.188,236.628 133.252,236.177 133.079 C 235.725 132.905,235.597 132.969,235.786 133.274 C 235.979 133.587,235.838 133.639,235.330 133.444 C 234.925 133.289,234.719 133.287,234.873 133.440 C 235.280 133.847,233.673 134.861,233.142 134.533 C 232.871 134.365,232.798 134.426,232.958 134.686 C 233.270 135.189,231.891 136.044,231.434 135.631 C 231.264 135.477,231.240 135.553,231.380 135.799 C 231.620 136.219,230.625 136.917,229.980 136.781 C 229.819 136.747,229.731 136.855,229.785 137.021 C 229.892 137.352,226.156 141.147,225.684 141.187 C 225.522 141.200,225.420 141.299,225.457 141.406 C 225.615 141.875,224.534 143.359,224.189 143.146 C 223.980 143.017,223.834 143.056,223.865 143.233 C 224.003 144.030,223.794 144.556,223.428 144.330 C 223.208 144.194,223.053 144.227,223.083 144.405 C 223.220 145.192,223.015 145.729,222.661 145.511 C 222.431 145.369,222.379 145.544,222.532 145.942 C 222.720 146.433,222.650 146.527,222.272 146.293 C 221.940 146.088,221.848 146.125,222.015 146.395 C 222.344 146.927,221.484 148.874,221.041 148.600 C 220.860 148.488,220.828 148.699,220.969 149.067 C 221.158 149.558,221.088 149.652,220.709 149.418 C 220.363 149.204,220.285 149.249,220.473 149.553 C 220.825 150.123,220.371 151.645,219.930 151.372 C 219.751 151.261,219.703 151.550,219.825 152.014 C 219.960 152.530,219.892 152.762,219.649 152.612 C 219.405 152.461,219.319 152.775,219.423 153.430 C 219.557 154.267,219.503 154.368,219.172 153.906 C 218.852 153.462,218.806 153.650,218.979 154.688 C 219.118 155.525,219.073 155.868,218.861 155.572 C 218.656 155.285,218.510 157.945,218.502 162.131 C 218.495 166.004,218.613 168.972,218.764 168.727 C 218.918 168.479,219.156 168.906,219.304 169.695 C 219.450 170.471,219.446 171.307,219.295 171.551 C 219.114 171.843,219.196 171.887,219.532 171.679 C 219.914 171.443,219.989 171.577,219.825 172.205 C 219.682 172.751,219.753 172.956,220.025 172.788 C 220.293 172.622,220.352 172.770,220.188 173.198 C 220.015 173.650,220.078 173.778,220.383 173.589 C 220.688 173.401,220.752 173.528,220.579 173.980 C 220.430 174.367,220.480 174.552,220.696 174.418 C 221.249 174.077,221.615 175.982,221.158 176.819 C 220.942 177.215,220.004 178.242,219.074 179.101 L 217.383 180.663 219.141 178.711 L 220.898 176.758 219.060 178.483 C 218.049 179.431,217.300 180.334,217.395 180.489 C 217.624 180.859,208.597 189.290,208.121 189.150 C 207.919 189.091,207.851 189.200,207.970 189.391 C 208.088 189.583,207.837 190.054,207.413 190.438 C 206.988 190.822,206.641 190.982,206.641 190.792 C 206.641 190.602,205.155 191.924,203.340 193.730 C 201.525 195.536,200.119 197.142,200.216 197.299 C 200.429 197.643,184.242 213.413,183.746 213.346 C 183.265 213.281,177.733 218.823,177.942 219.160 C 178.185 219.553,165.282 232.107,164.887 231.863 C 164.706 231.751,164.226 232.050,163.822 232.529 L 163.086 233.398 164.063 232.623 C 164.894 231.964,164.870 232.034,163.905 233.098 C 163.281 233.785,162.618 234.253,162.431 234.137 C 162.243 234.021,162.115 234.071,162.146 234.248 C 162.274 234.983,162.088 235.580,161.789 235.395 C 161.613 235.286,161.538 235.760,161.622 236.446 C 161.745 237.456,161.687 237.583,161.319 237.109 C 160.939 236.621,160.906 236.653,161.120 237.303 C 161.262 237.732,161.242 239.841,161.077 241.990 C 160.863 244.780,160.701 245.563,160.512 244.727 C 160.318 243.869,160.286 244.009,160.394 245.247 C 160.602 247.647,160.426 247.573,166.077 247.633 C 168.905 247.663,171.411 247.797,171.645 247.930 C 171.879 248.063,171.941 248.029,171.783 247.855 C 171.496 247.538,173.112 246.504,174.219 246.295 C 174.541 246.235,174.766 246.004,174.718 245.783 C 174.494 244.736,179.686 240.625,181.233 240.625 C 182.828 240.625,187.398 244.139,186.884 244.970 C 186.761 245.169,186.806 245.297,186.983 245.254 C 187.460 245.139,189.452 246.169,189.283 246.444 C 189.203 246.574,189.982 246.680,191.016 246.680 C 192.049 246.680,192.805 246.536,192.697 246.361 C 192.588 246.185,192.821 246.097,193.214 246.165 C 193.606 246.233,193.934 246.113,193.943 245.898 C 193.968 245.236,194.568 244.508,194.912 244.721 C 195.092 244.832,195.140 244.544,195.019 244.080 C 194.878 243.538,194.948 243.329,195.216 243.495 C 195.488 243.663,195.456 243.080,195.124 241.822 C 194.844 240.760,194.728 239.764,194.866 239.609 C 195.004 239.455,194.908 239.448,194.652 239.594 C 194.155 239.880,191.992 237.462,191.992 236.621 C 191.992 236.353,191.766 236.133,191.490 236.133 C 190.860 236.133,190.208 235.124,190.516 234.626 C 190.642 234.422,190.555 234.372,190.323 234.516 C 189.780 234.851,189.353 233.529,189.706 232.608 C 189.888 232.135,189.832 231.993,189.535 232.176 C 189.207 232.379,189.207 232.124,189.535 231.184 C 190.069 229.651,195.878 223.649,196.472 224.016 C 196.705 224.160,196.846 224.045,196.787 223.760 C 196.728 223.473,196.983 223.266,197.359 223.296 C 197.745 223.326,197.928 223.171,197.783 222.936 C 197.623 222.677,197.777 222.619,198.198 222.781 C 198.597 222.933,198.772 222.881,198.630 222.652 C 198.486 222.419,199.106 222.266,200.195 222.266 C 201.285 222.266,201.905 222.419,201.761 222.652 C 201.619 222.881,201.794 222.933,202.192 222.781 C 202.614 222.619,202.768 222.677,202.607 222.936 C 202.463 223.170,202.642 223.326,203.022 223.296 C 203.391 223.266,203.696 223.462,203.702 223.730 C 203.707 223.999,203.799 224.189,203.906 224.153 C 204.316 224.014,205.872 225.054,205.692 225.345 C 205.588 225.513,205.715 225.660,205.974 225.671 C 206.701 225.701,209.253 226.921,208.626 226.938 C 208.322 226.946,208.186 227.066,208.324 227.204 C 208.462 227.342,208.842 227.234,209.168 226.963 C 209.494 226.692,210.196 226.554,210.728 226.655 C 211.260 226.757,211.602 226.690,211.489 226.506 C 211.375 226.322,211.468 226.150,211.696 226.123 C 212.700 226.005,212.842 225.960,213.126 225.676 C 213.292 225.510,213.460 225.071,213.501 224.699 C 213.541 224.327,213.753 223.278,213.972 222.366 C 214.251 221.202,214.245 220.785,213.954 220.966 C 213.692 221.127,213.634 220.975,213.796 220.552 C 213.949 220.153,213.897 219.978,213.667 220.120 C 213.455 220.251,213.259 220.172,213.232 219.945 C 213.206 219.717,213.154 219.312,213.117 219.043 C 213.080 218.774,212.844 218.597,212.592 218.648 C 212.147 218.739,211.445 217.790,211.367 216.992 C 211.345 216.777,211.146 216.602,210.923 216.602 C 210.372 216.602,209.763 215.554,210.047 215.095 C 210.174 214.890,210.091 214.838,209.864 214.978 C 209.379 215.278,208.673 213.402,208.893 212.398 C 208.976 212.019,209.233 211.826,209.465 211.970 C 209.723 212.129,209.773 212.046,209.592 211.754 C 209.283 211.253,210.454 209.662,210.920 209.950 C 211.068 210.042,212.667 208.631,214.473 206.816 C 216.279 205.001,217.588 203.516,217.382 203.516 C 217.175 203.516,218.749 201.767,220.878 199.630 C 223.007 197.492,224.898 195.836,225.080 195.948 C 225.261 196.060,225.362 195.919,225.303 195.635 C 225.244 195.350,225.428 195.165,225.713 195.225 C 225.997 195.284,226.129 195.168,226.005 194.967 C 225.697 194.469,228.087 192.509,228.609 192.831 C 228.846 192.978,228.914 192.907,228.766 192.667 C 228.423 192.112,229.837 191.677,230.957 191.991 C 231.645 192.185,231.709 192.150,231.250 191.828 C 230.804 191.516,231.082 191.418,232.422 191.418 C 233.761 191.418,234.040 191.516,233.594 191.828 C 233.135 192.150,233.199 192.185,233.887 191.991 C 234.943 191.694,236.428 192.100,236.118 192.602 C 235.996 192.799,236.198 192.844,236.567 192.703 C 237.019 192.529,237.146 192.593,236.958 192.898 C 236.769 193.203,236.897 193.267,237.348 193.093 C 237.770 192.931,237.924 192.989,237.764 193.249 C 237.618 193.484,237.801 193.639,238.188 193.608 C 238.561 193.579,238.829 193.756,238.783 194.003 C 238.731 194.278,239.019 194.367,239.528 194.234 C 240.057 194.096,240.264 194.168,240.100 194.433 C 239.935 194.700,240.145 194.770,240.686 194.629 C 241.226 194.487,241.436 194.558,241.271 194.824 C 241.107 195.090,241.317 195.160,241.857 195.019 C 242.374 194.884,242.606 194.952,242.456 195.195 C 242.305 195.438,242.619 195.525,243.274 195.421 C 244.100 195.289,244.206 195.342,243.750 195.661 C 243.316 195.965,243.570 196.015,244.727 195.855 C 245.846 195.700,246.129 195.751,245.723 196.035 C 245.320 196.318,245.655 196.374,246.895 196.231 C 247.862 196.120,248.433 196.175,248.183 196.356 C 247.935 196.534,249.830 196.680,252.407 196.680 C 254.978 196.680,256.675 196.555,256.177 196.402 C 255.579 196.217,255.887 196.152,257.092 196.206 C 258.100 196.252,258.812 196.131,258.691 195.935 C 258.565 195.732,259.039 195.690,259.803 195.837 C 260.807 196.030,260.990 195.990,260.547 195.672 C 260.085 195.340,260.186 195.287,261.023 195.421 C 261.678 195.525,261.992 195.438,261.841 195.195 C 261.691 194.952,261.923 194.884,262.439 195.019 C 262.980 195.160,263.190 195.090,263.025 194.824 C 262.861 194.558,263.071 194.487,263.611 194.629 C 264.157 194.771,264.362 194.701,264.194 194.428 C 264.024 194.153,264.188 194.105,264.670 194.290 C 265.075 194.445,265.289 194.456,265.146 194.312 C 264.781 193.947,268.402 192.172,268.915 192.464 C 269.147 192.596,269.203 192.557,269.040 192.377 C 268.667 191.967,270.715 190.586,271.227 190.903 C 271.435 191.031,271.491 190.952,271.352 190.726 C 271.116 190.345,271.956 189.759,272.852 189.682 C 273.066 189.664,273.242 189.451,273.242 189.209 C 273.242 188.649,276.651 185.319,277.080 185.460 C 277.257 185.518,277.315 185.425,277.208 185.253 C 277.101 185.080,277.367 184.505,277.799 183.973 C 278.230 183.442,278.452 183.271,278.292 183.594 C 278.123 183.933,278.147 184.045,278.350 183.859 C 278.543 183.683,278.703 183.243,278.706 182.883 C 278.709 182.522,278.944 182.275,279.228 182.334 C 279.513 182.393,279.634 182.261,279.499 182.042 C 279.192 181.545,280.239 179.979,280.622 180.362 C 280.775 180.515,280.774 180.309,280.618 179.904 C 280.423 179.396,280.476 179.255,280.789 179.448 C 281.093 179.637,281.157 179.509,280.984 179.058 C 280.810 178.606,280.874 178.479,281.179 178.667 C 281.484 178.856,281.548 178.728,281.374 178.277 C 281.201 177.825,281.265 177.697,281.570 177.886 C 281.875 178.074,281.938 177.947,281.765 177.495 C 281.601 177.067,281.660 176.919,281.928 177.085 C 282.201 177.253,282.271 177.047,282.129 176.502 C 281.987 175.962,282.058 175.751,282.324 175.916 C 282.590 176.081,282.660 175.870,282.519 175.330 C 282.378 174.790,282.448 174.580,282.715 174.744 C 282.981 174.909,283.051 174.698,282.910 174.158 C 282.746 173.530,282.820 173.396,283.202 173.632 C 283.528 173.834,283.620 173.796,283.455 173.529 C 283.312 173.298,283.410 171.853,283.674 170.318 C 283.937 168.784,284.246 167.797,284.361 168.125 C 284.476 168.453,284.570 166.537,284.570 163.867 C 284.570 161.198,284.439 159.315,284.278 159.683 C 284.104 160.082,284.028 159.696,284.090 158.724 C 284.147 157.829,284.078 157.169,283.937 157.256 C 283.563 157.487,283.115 154.756,283.440 154.230 C 283.620 153.938,283.539 153.894,283.202 154.102 C 282.820 154.338,282.746 154.204,282.910 153.576 C 283.051 153.036,282.981 152.826,282.715 152.990 C 282.448 153.155,282.378 152.944,282.519 152.404 C 282.660 151.864,282.590 151.654,282.324 151.818 C 282.058 151.983,281.987 151.773,282.129 151.232 C 282.271 150.687,282.201 150.481,281.928 150.649 C 281.660 150.815,281.601 150.667,281.765 150.239 C 281.907 149.870,281.878 149.658,281.701 149.768 C 281.249 150.047,280.007 147.313,280.330 146.751 C 280.475 146.497,280.450 146.420,280.273 146.580 C 279.829 146.982,278.796 145.416,279.139 144.861 C 279.307 144.589,279.246 144.516,278.986 144.677 C 278.483 144.988,277.628 143.610,278.041 143.153 C 278.195 142.983,278.109 142.964,277.852 143.112 C 277.583 143.267,277.202 143.043,276.959 142.589 C 276.726 142.153,276.651 141.797,276.792 141.797 C 276.933 141.797,276.832 141.535,276.566 141.215 C 276.301 140.895,275.955 140.713,275.799 140.809 C 275.464 141.016,272.806 138.364,272.949 137.967 C 273.003 137.817,272.915 137.689,272.754 137.681 C 272.038 137.648,270.704 136.643,270.917 136.299 C 271.046 136.089,271.007 135.943,270.830 135.974 C 270.032 136.113,269.506 135.903,269.733 135.537 C 269.869 135.317,269.835 135.162,269.658 135.193 C 268.860 135.331,268.334 135.122,268.561 134.756 C 268.697 134.536,268.663 134.381,268.486 134.412 C 267.698 134.548,267.161 134.343,267.380 133.989 C 267.522 133.759,267.347 133.707,266.948 133.860 C 266.497 134.033,266.369 133.970,266.558 133.665 C 266.746 133.360,266.619 133.296,266.167 133.469 C 265.715 133.643,265.588 133.579,265.777 133.274 C 265.965 132.969,265.838 132.905,265.386 133.079 C 264.934 133.252,264.807 133.188,264.995 132.883 C 265.184 132.578,265.056 132.515,264.605 132.688 C 264.153 132.861,264.026 132.798,264.214 132.493 C 264.403 132.188,264.275 132.124,263.823 132.297 C 263.395 132.462,263.247 132.403,263.413 132.134 C 263.581 131.862,263.376 131.791,262.830 131.934 C 262.290 132.075,262.080 132.005,262.244 131.739 C 262.409 131.472,262.198 131.402,261.658 131.543 C 261.118 131.685,260.908 131.614,261.072 131.348 C 261.237 131.082,261.026 131.011,260.486 131.153 C 259.970 131.288,259.738 131.220,259.888 130.977 C 260.040 130.732,259.743 130.656,259.110 130.777 C 258.508 130.892,258.183 130.818,258.320 130.596 C 258.457 130.374,258.041 130.282,257.304 130.372 C 256.585 130.459,256.247 130.388,256.507 130.203 C 256.762 130.022,255.914 129.883,254.553 129.883 C 253.231 129.883,251.006 129.768,249.609 129.627 C 247.978 129.462,247.419 129.494,248.047 129.714 M262.793 145.332 C 263.514 145.586,263.951 145.957,263.806 146.192 C 263.652 146.441,263.739 146.489,264.025 146.312 C 264.458 146.045,267.578 147.764,267.578 148.271 C 267.578 148.388,267.375 148.358,267.127 148.205 C 266.845 148.031,266.782 148.098,266.959 148.384 C 267.114 148.635,267.385 148.752,267.561 148.643 C 267.943 148.407,268.838 149.391,268.525 149.704 C 268.405 149.824,268.522 150.054,268.784 150.217 C 269.108 150.417,269.170 150.335,268.977 149.963 C 268.821 149.661,269.146 149.941,269.699 150.586 C 270.252 151.230,270.618 151.987,270.513 152.266 C 270.408 152.546,270.495 152.668,270.708 152.536 C 271.060 152.319,271.245 152.942,271.199 154.195 C 271.190 154.461,271.338 154.583,271.528 154.465 C 271.719 154.347,271.875 154.325,271.875 154.416 C 271.875 154.507,272.058 155.528,272.282 156.685 C 272.744 159.081,272.422 162.643,271.778 162.245 C 271.527 162.090,271.479 162.176,271.656 162.462 C 272.082 163.150,271.554 164.933,271.022 164.604 C 270.751 164.437,270.691 164.508,270.866 164.791 C 271.610 165.996,267.251 170.579,263.936 172.077 C 260.851 173.470,254.108 173.910,254.876 172.668 C 254.988 172.487,254.700 172.438,254.236 172.559 C 253.608 172.723,253.474 172.649,253.710 172.267 C 253.921 171.926,253.875 171.848,253.572 172.035 C 253.008 172.384,251.479 171.936,251.748 171.500 C 251.856 171.325,251.639 171.206,251.265 171.236 C 250.890 171.265,250.634 171.058,250.693 170.772 C 250.754 170.480,250.613 170.371,250.369 170.521 C 249.778 170.886,245.975 166.889,246.245 166.186 C 246.362 165.879,246.246 165.676,245.982 165.727 C 245.719 165.779,245.521 165.437,245.537 164.961 C 245.553 164.488,245.426 164.188,245.255 164.293 C 244.825 164.559,244.391 162.652,244.750 162.071 C 244.936 161.770,244.879 161.699,244.592 161.877 C 244.284 162.067,244.122 161.682,244.082 160.668 C 243.951 157.364,244.395 154.166,244.937 154.502 C 245.139 154.626,245.202 154.464,245.079 154.142 C 244.798 153.411,246.100 151.130,246.616 151.449 C 246.825 151.578,246.873 151.485,246.723 151.242 C 246.362 150.657,249.589 147.174,250.256 147.430 C 250.540 147.539,250.730 147.415,250.679 147.154 C 250.628 146.893,250.892 146.704,251.265 146.733 C 251.652 146.764,251.835 146.609,251.690 146.374 C 251.529 146.114,251.683 146.056,252.105 146.218 C 252.492 146.367,252.677 146.317,252.543 146.101 C 252.249 145.624,254.095 145.142,254.726 145.531 C 255.016 145.711,255.098 145.660,254.937 145.399 C 254.375 144.491,260.266 144.440,262.793 145.332 M257.525 145.202 C 258.119 145.292,258.998 145.290,259.478 145.197 C 259.958 145.104,259.473 145.031,258.398 145.034 C 257.324 145.037,256.931 145.112,257.525 145.202 M217.677 162.305 C 217.681 163.164,217.761 163.470,217.854 162.984 C 217.948 162.498,217.944 161.795,217.847 161.421 C 217.749 161.048,217.672 161.445,217.677 162.305 M257.129 172.936 C 257.720 173.026,258.687 173.026,259.277 172.936 C 259.868 172.847,259.385 172.773,258.203 172.773 C 257.021 172.773,256.538 172.847,257.129 172.936 M206.641 191.122 C 206.641 191.181,205.190 192.631,203.418 194.345 L 200.195 197.461 203.311 194.238 C 206.205 191.245,206.641 190.838,206.641 191.122 M111.914 192.578 C 97.825 192.725,92.950 192.896,92.301 193.267 C 91.826 193.538,91.299 193.714,91.129 193.658 C 90.959 193.601,90.820 193.660,90.820 193.788 C 90.820 194.255,89.747 195.299,89.453 195.117 C 89.287 195.014,89.175 195.236,89.204 195.610 C 89.234 195.983,89.056 196.251,88.810 196.205 C 88.534 196.153,88.445 196.441,88.578 196.949 C 88.697 197.405,88.635 197.680,88.440 197.559 C 88.230 197.429,88.086 204.934,88.086 216.016 C 88.086 226.287,88.233 234.488,88.413 234.240 C 88.610 233.968,88.663 234.138,88.547 234.669 C 88.423 235.234,88.504 235.455,88.775 235.288 C 89.043 235.122,89.102 235.270,88.938 235.698 C 88.797 236.067,88.836 236.273,89.026 236.155 C 89.366 235.945,90.026 237.027,89.906 237.598 C 89.872 237.759,89.976 237.870,90.137 237.844 C 90.956 237.715,91.423 237.939,91.174 238.342 C 91.009 238.607,91.066 238.687,91.311 238.536 C 91.792 238.238,93.041 238.630,92.808 239.006 C 92.723 239.144,105.556 239.212,121.326 239.155 L 150.000 239.053 150.039 236.811 C 150.070 235.028,150.147 234.770,150.416 235.547 C 150.665 236.266,150.697 236.089,150.539 234.871 C 150.295 232.992,151.012 230.324,151.654 230.721 C 151.903 230.874,151.960 230.796,151.796 230.530 C 151.452 229.975,152.486 228.409,152.930 228.811 C 153.106 228.971,153.109 228.858,152.937 228.561 C 152.570 227.928,161.626 219.037,162.247 219.421 C 162.452 219.548,162.514 219.479,162.384 219.269 C 162.254 219.058,163.325 217.756,164.765 216.376 L 167.383 213.867 165.039 216.406 L 162.695 218.945 165.072 216.678 C 167.429 214.429,168.019 213.287,166.829 213.275 C 166.286 213.270,166.282 213.221,166.797 212.873 C 167.226 212.582,167.080 212.547,166.250 212.740 C 165.499 212.916,165.203 212.866,165.372 212.593 C 165.533 212.332,165.318 212.263,164.783 212.403 C 164.210 212.553,164.029 212.480,164.217 212.175 C 164.402 211.876,164.272 211.813,163.823 211.985 C 163.395 212.149,163.247 212.090,163.413 211.822 C 163.581 211.549,163.376 211.479,162.830 211.621 C 162.290 211.763,162.080 211.692,162.244 211.426 C 162.409 211.160,162.198 211.090,161.658 211.231 C 161.085 211.381,160.904 211.308,161.092 211.004 C 161.277 210.704,161.147 210.641,160.698 210.813 C 160.208 211.001,160.114 210.932,160.348 210.553 C 160.561 210.207,160.517 210.129,160.213 210.316 C 159.620 210.683,158.126 210.206,158.413 209.742 C 158.535 209.545,158.333 209.499,157.964 209.641 C 157.473 209.829,157.379 209.760,157.613 209.381 C 157.827 209.035,157.782 208.957,157.479 209.145 C 156.886 209.511,155.392 209.034,155.679 208.570 C 155.801 208.373,155.599 208.328,155.230 208.469 C 154.778 208.643,154.651 208.579,154.839 208.274 C 155.028 207.969,154.900 207.905,154.448 208.079 C 153.958 208.267,153.864 208.197,154.098 207.819 C 154.303 207.486,154.266 207.395,153.993 207.563 C 153.467 207.889,150.740 206.632,151.014 206.190 C 151.123 206.013,150.911 205.984,150.542 206.126 C 150.090 206.299,149.963 206.235,150.152 205.930 C 150.340 205.625,150.213 205.562,149.761 205.735 C 149.309 205.908,149.182 205.845,149.370 205.540 C 149.559 205.235,149.431 205.171,148.980 205.344 C 148.528 205.518,148.401 205.454,148.589 205.149 C 148.778 204.844,148.650 204.780,148.198 204.954 C 147.708 205.142,147.614 205.072,147.848 204.694 C 148.060 204.350,148.017 204.269,147.717 204.454 C 147.162 204.798,145.596 203.764,145.999 203.320 C 146.158 203.144,146.070 203.126,145.801 203.280 C 145.212 203.619,143.634 202.602,144.045 202.148 C 144.205 201.972,144.117 201.954,143.848 202.108 C 143.334 202.405,141.646 201.453,142.021 201.078 C 142.141 200.958,141.920 200.886,141.530 200.918 C 141.140 200.950,140.864 200.757,140.918 200.488 C 140.972 200.220,140.884 200.021,140.723 200.046 C 139.937 200.170,139.432 199.959,139.654 199.600 C 139.790 199.380,139.757 199.225,139.580 199.255 C 138.721 199.404,138.259 199.177,138.516 198.730 C 138.671 198.462,138.658 198.368,138.488 198.521 C 138.013 198.950,136.658 198.075,136.966 197.539 C 137.114 197.281,137.095 197.196,136.925 197.350 C 136.468 197.762,135.090 196.908,135.401 196.404 C 135.548 196.167,135.493 196.081,135.280 196.212 C 134.732 196.551,133.135 195.347,133.452 194.835 C 133.596 194.601,133.540 194.518,133.327 194.650 C 132.846 194.947,131.163 193.815,131.434 193.377 C 131.971 192.508,129.266 192.397,111.914 192.578 M306.196 192.372 C 306.095 192.473,301.244 192.571,295.417 192.590 C 286.702 192.619,284.740 192.725,284.356 193.187 C 284.099 193.497,284.035 193.750,284.215 193.750 C 284.394 193.750,283.684 194.620,282.638 195.682 C 281.591 196.745,280.551 197.580,280.326 197.538 C 280.102 197.496,279.910 197.687,279.901 197.963 C 279.880 198.542,278.886 199.253,278.464 198.991 C 278.307 198.895,278.052 199.021,277.896 199.273 C 277.709 199.576,277.798 199.634,278.162 199.445 C 278.464 199.289,278.377 199.432,277.970 199.763 C 277.562 200.095,277.074 200.270,276.886 200.154 C 276.697 200.037,276.591 200.175,276.650 200.459 C 276.711 200.753,276.451 200.951,276.048 200.918 C 275.658 200.886,275.437 200.958,275.557 201.078 C 275.923 201.444,274.250 202.409,273.767 202.111 C 273.468 201.926,273.424 202.006,273.637 202.350 C 273.871 202.729,273.777 202.798,273.286 202.610 C 272.917 202.468,272.707 202.501,272.819 202.682 C 273.093 203.125,271.146 203.985,270.613 203.656 C 270.343 203.489,270.307 203.581,270.512 203.912 C 270.746 204.291,270.652 204.361,270.161 204.172 C 269.792 204.031,269.590 204.076,269.712 204.273 C 269.999 204.738,268.505 205.214,267.912 204.848 C 267.610 204.661,267.563 204.738,267.774 205.079 C 268.010 205.461,267.876 205.536,267.248 205.371 C 266.784 205.250,266.500 205.305,266.617 205.494 C 266.898 205.948,265.021 206.406,264.415 206.031 C 264.095 205.833,264.043 205.903,264.256 206.246 C 264.492 206.628,264.316 206.706,263.546 206.558 C 262.914 206.437,262.617 206.514,262.768 206.758 C 262.925 207.013,262.539 207.062,261.682 206.897 C 260.675 206.704,260.494 206.744,260.938 207.063 C 261.377 207.380,261.085 207.433,259.766 207.275 C 258.472 207.121,258.214 207.165,258.789 207.443 C 259.333 207.705,258.561 207.771,256.250 207.659 C 254.049 207.552,253.457 207.598,254.492 207.795 C 255.743 208.033,255.393 208.096,252.734 208.109 C 250.560 208.120,249.751 208.018,250.391 207.816 C 250.974 207.631,250.266 207.580,248.633 207.691 C 246.650 207.825,246.060 207.763,246.484 207.465 C 246.917 207.161,246.671 207.118,245.545 207.299 C 244.593 207.452,244.108 207.401,244.255 207.163 C 244.395 206.935,243.988 206.843,243.241 206.934 C 242.274 207.052,242.124 206.992,242.578 206.669 C 243.021 206.353,242.830 206.307,241.797 206.479 C 240.736 206.655,240.561 206.609,241.016 206.271 C 241.473 205.931,241.353 205.894,240.469 206.100 C 239.718 206.275,239.422 206.225,239.591 205.953 C 239.752 205.692,239.537 205.622,239.002 205.762 C 238.374 205.926,238.240 205.852,238.476 205.470 C 238.687 205.129,238.640 205.051,238.338 205.238 C 237.745 205.605,236.251 205.128,236.538 204.664 C 236.660 204.467,236.458 204.421,236.089 204.563 C 235.661 204.727,235.513 204.668,235.679 204.400 C 235.847 204.128,235.641 204.057,235.096 204.200 C 234.556 204.341,234.345 204.271,234.510 204.004 C 234.800 203.534,233.282 203.806,232.581 204.350 C 232.347 204.532,232.072 204.598,231.971 204.497 C 231.870 204.396,231.015 205.101,230.070 206.063 C 229.126 207.025,228.517 207.813,228.717 207.813 C 228.918 207.813,227.781 209.122,226.191 210.723 C 224.601 212.323,223.151 213.541,222.969 213.428 C 222.786 213.315,222.685 213.456,222.744 213.740 C 222.803 214.025,222.661 214.224,222.428 214.182 C 222.196 214.140,222.005 214.352,222.005 214.653 C 222.005 214.954,222.132 215.122,222.286 215.026 C 222.746 214.742,223.529 215.942,223.215 216.449 C 223.043 216.729,223.091 216.815,223.336 216.664 C 223.828 216.360,224.329 217.475,223.964 218.064 C 223.822 218.295,223.890 218.367,224.117 218.227 C 224.763 217.827,225.025 219.033,224.856 221.630 C 224.743 223.377,224.782 223.654,225.001 222.656 C 225.237 221.579,225.272 221.751,225.163 223.470 C 225.006 225.961,224.681 227.043,224.182 226.735 C 223.992 226.618,223.953 226.824,224.094 227.192 C 224.268 227.644,224.204 227.771,223.899 227.583 C 223.594 227.394,223.530 227.522,223.704 227.973 C 223.892 228.464,223.822 228.558,223.444 228.324 C 223.103 228.114,223.020 228.155,223.199 228.446 C 223.497 228.927,220.403 232.524,219.939 232.237 C 219.574 232.012,217.101 234.549,217.397 234.844 C 217.748 235.196,215.580 236.737,215.128 236.458 C 214.875 236.301,214.843 236.401,215.043 236.725 C 215.277 237.104,215.183 237.173,214.692 236.985 C 214.241 236.812,214.113 236.875,214.302 237.180 C 214.490 237.485,214.363 237.549,213.911 237.376 C 213.459 237.202,213.332 237.266,213.520 237.571 C 213.709 237.876,213.581 237.940,213.130 237.766 C 212.761 237.625,212.554 237.663,212.671 237.851 C 212.954 238.309,211.523 238.661,209.375 238.661 C 207.159 238.661,205.798 238.306,206.106 237.807 C 206.237 237.595,205.972 237.622,205.516 237.865 C 205.060 238.109,204.688 238.401,204.688 238.513 C 204.688 238.626,204.863 238.609,205.078 238.477 C 205.293 238.344,205.469 238.424,205.469 238.654 C 205.469 238.951,220.569 239.069,257.047 239.057 C 290.311 239.046,308.543 238.905,308.391 238.661 C 308.176 238.312,308.719 238.109,309.502 238.245 C 309.679 238.275,309.725 238.140,309.604 237.945 C 309.352 237.537,310.310 236.612,310.641 236.943 C 310.761 237.063,310.833 236.842,310.801 236.452 C 310.769 236.062,310.944 235.780,311.190 235.826 C 311.466 235.878,311.555 235.591,311.422 235.082 C 311.303 234.626,311.365 234.352,311.560 234.472 C 312.158 234.843,311.626 197.641,311.017 196.574 C 310.739 196.086,310.603 195.538,310.715 195.357 C 310.938 194.996,309.809 193.829,309.180 193.768 C 308.186 193.672,306.312 192.793,306.489 192.507 C 306.702 192.163,306.499 192.069,306.196 192.372 M217.188 203.622 C 217.188 203.681,215.737 205.131,213.965 206.845 L 210.742 209.961 213.858 206.738 C 216.752 203.745,217.188 203.338,217.188 203.622 M232.031 204.804 C 232.031 204.867,231.284 205.614,230.371 206.464 L 228.711 208.008 230.255 206.348 C 231.691 204.804,232.031 204.508,232.031 204.804 M113.570 206.104 C 114.051 206.233,114.349 206.493,114.233 206.681 C 114.117 206.869,114.281 206.923,114.598 206.801 C 115.371 206.504,116.887 207.351,116.552 207.892 C 116.402 208.135,116.463 208.214,116.691 208.073 C 117.865 207.347,120.824 211.722,121.289 214.872 C 121.593 216.936,120.901 220.090,120.234 219.678 C 119.985 219.524,119.911 219.588,120.058 219.826 C 120.422 220.416,119.922 221.531,119.430 221.226 C 119.183 221.074,119.137 221.162,119.314 221.448 C 119.707 222.084,116.513 225.125,115.757 224.834 C 115.447 224.716,115.293 224.779,115.415 224.976 C 115.725 225.478,114.240 225.884,113.184 225.587 C 112.496 225.393,112.432 225.429,112.891 225.750 C 113.333 226.060,112.999 226.160,111.523 226.161 C 109.199 226.161,107.741 225.823,108.032 225.351 C 108.149 225.163,107.985 225.108,107.668 225.230 C 106.894 225.527,105.379 224.681,105.713 224.139 C 105.877 223.873,105.801 223.818,105.514 223.996 C 104.918 224.364,102.252 221.506,102.526 220.792 C 102.636 220.506,102.564 220.371,102.367 220.493 C 101.903 220.780,101.426 219.286,101.793 218.693 C 101.957 218.427,101.904 218.343,101.666 218.491 C 101.159 218.804,100.675 216.444,100.963 215.062 C 101.078 214.512,101.265 213.616,101.379 213.070 C 101.505 212.464,101.757 212.183,102.025 212.349 C 102.280 212.507,102.357 212.446,102.208 212.205 C 101.843 211.616,102.343 210.501,102.836 210.805 C 103.076 210.954,103.130 210.870,102.964 210.603 C 102.592 210.001,104.923 207.671,105.525 208.042 C 105.784 208.203,105.876 208.155,105.738 207.932 C 105.411 207.403,107.221 206.470,107.836 206.850 C 108.139 207.038,108.225 206.993,108.063 206.731 C 107.621 206.014,111.562 205.566,113.570 206.104 M294.141 210.578 C 293.679 210.901,293.738 210.937,294.416 210.747 C 295.412 210.468,297.393 211.588,297.007 212.212 C 296.863 212.445,296.942 212.505,297.190 212.351 C 297.744 212.009,299.219 214.832,299.219 216.234 C 299.219 218.608,296.192 222.296,294.710 221.727 C 294.359 221.593,294.202 221.658,294.339 221.879 C 294.600 222.302,267.724 222.447,266.636 222.029 C 266.297 221.899,266.105 221.656,266.209 221.488 C 266.313 221.319,266.092 221.206,265.718 221.236 C 265.343 221.265,265.087 221.058,265.146 220.772 C 265.205 220.487,265.088 220.357,264.885 220.482 C 264.279 220.857,262.846 218.725,263.121 217.858 C 263.282 217.350,263.218 217.180,262.932 217.357 C 262.647 217.534,262.500 217.145,262.500 216.211 C 262.500 215.434,262.659 214.896,262.854 215.017 C 263.049 215.137,263.126 214.921,263.026 214.537 C 262.802 213.680,264.162 211.885,265.786 210.895 C 267.196 210.035,295.366 209.720,294.141 210.578 M183.594 213.780 C 183.594 213.839,182.319 215.114,180.762 216.612 L 177.930 219.336 180.654 216.504 C 183.184 213.874,183.594 213.493,183.594 213.780 M120.802 216.211 C 120.806 217.070,120.886 217.376,120.979 216.890 C 121.073 216.404,121.069 215.701,120.972 215.327 C 120.874 214.954,120.797 215.352,120.802 216.211 M193.139 227.051 L 191.992 228.320 193.262 227.173 C 194.445 226.104,194.711 225.781,194.409 225.781 C 194.342 225.781,193.771 226.353,193.139 227.051 M219.922 232.544 C 219.922 232.611,219.351 233.183,218.652 233.814 L 217.383 234.961 218.530 233.691 C 219.600 232.508,219.922 232.242,219.922 232.544 M108.105 239.746 C 115.894 239.805,128.638 239.805,136.426 239.746 C 144.214 239.687,137.842 239.638,122.266 239.638 C 106.689 239.638,100.317 239.687,108.105 239.746 M230.566 239.746 C 244.478 239.803,267.241 239.803,281.152 239.746 C 295.063 239.689,283.682 239.643,255.859 239.643 C 228.037 239.643,216.655 239.689,230.566 239.746 M92.875 250.164 C 92.998 250.363,92.798 250.409,92.427 250.266 C 91.975 250.093,91.847 250.157,92.036 250.461 C 92.229 250.774,92.088 250.827,91.580 250.632 C 91.175 250.476,90.950 250.455,91.080 250.585 C 91.375 250.880,89.364 253.018,88.969 252.831 C 88.811 252.755,88.797 252.995,88.938 253.364 C 89.105 253.798,89.044 253.941,88.767 253.769 C 88.458 253.579,88.326 258.757,88.296 272.263 C 88.273 282.580,88.156 291.328,88.036 291.702 C 87.847 292.288,87.881 292.301,88.278 291.797 C 88.663 291.309,88.708 291.357,88.547 292.090 C 88.423 292.656,88.504 292.877,88.775 292.710 C 89.043 292.544,89.102 292.692,88.938 293.120 C 88.797 293.489,88.811 293.729,88.969 293.654 C 89.386 293.456,91.363 295.610,91.068 295.941 C 90.932 296.094,91.024 296.102,91.273 295.960 C 91.791 295.664,93.044 296.046,92.808 296.428 C 92.723 296.566,140.959 296.680,200.000 296.680 C 259.041 296.680,307.277 296.566,307.192 296.428 C 306.973 296.075,308.195 295.652,308.639 295.926 C 308.839 296.050,308.955 296.007,308.896 295.830 C 308.765 295.436,310.632 293.518,311.021 293.648 C 311.174 293.699,311.189 293.450,311.052 293.095 C 310.896 292.688,310.960 292.546,311.225 292.710 C 311.497 292.878,311.568 292.672,311.425 292.127 C 311.304 291.663,311.365 291.383,311.560 291.503 C 311.770 291.633,311.914 284.207,311.914 273.242 C 311.914 262.277,311.770 254.851,311.560 254.981 C 311.365 255.102,311.304 254.821,311.425 254.357 C 311.568 253.812,311.497 253.606,311.225 253.774 C 310.957 253.940,310.898 253.792,311.062 253.364 C 311.203 252.995,311.172 252.785,310.992 252.896 C 310.633 253.118,308.748 251.148,308.888 250.698 C 308.936 250.544,308.685 250.530,308.330 250.666 C 307.975 250.803,307.784 250.752,307.906 250.555 C 308.208 250.067,312.335 250.107,254.892 250.045 L 203.340 249.989 200.986 252.432 L 198.633 254.875 201.184 252.535 L 203.736 250.195 200.907 253.060 C 199.144 254.845,197.902 255.816,197.612 255.636 C 197.333 255.465,197.247 255.514,197.398 255.758 C 197.703 256.250,196.588 256.751,195.998 256.386 C 195.734 256.223,195.699 256.318,195.902 256.647 C 196.136 257.025,196.042 257.095,195.552 256.907 C 195.106 256.736,194.973 256.798,195.155 257.093 C 195.348 257.405,195.094 257.458,194.297 257.272 C 193.467 257.078,193.321 257.114,193.750 257.404 C 194.170 257.688,193.450 257.801,191.211 257.801 C 189.026 257.801,188.262 257.685,188.672 257.416 C 189.084 257.146,188.864 257.108,187.928 257.288 C 186.887 257.488,186.666 257.432,186.914 257.032 C 187.124 256.692,187.078 256.614,186.776 256.801 C 186.182 257.167,184.689 256.691,184.976 256.226 C 185.098 256.029,184.896 255.984,184.527 256.126 C 184.036 256.314,183.942 256.244,184.176 255.865 C 184.389 255.521,184.345 255.441,184.045 255.626 C 183.531 255.944,181.901 254.947,182.294 254.555 C 182.988 253.861,181.971 254.430,180.671 255.463 C 179.864 256.104,179.022 256.517,178.799 256.379 C 178.577 256.242,178.509 256.314,178.648 256.539 C 178.953 257.032,177.838 257.532,177.248 257.167 C 176.984 257.004,176.949 257.099,177.152 257.428 C 177.386 257.807,177.292 257.876,176.802 257.688 C 176.353 257.516,176.223 257.579,176.408 257.879 C 176.596 258.183,176.415 258.256,175.842 258.106 C 175.302 257.965,175.091 258.035,175.256 258.301 C 175.428 258.580,175.078 258.632,174.182 258.460 C 173.401 258.310,173.065 258.342,173.368 258.537 C 174.210 259.080,170.793 259.375,163.666 259.375 C 157.075 259.375,154.541 259.146,154.890 258.583 C 154.994 258.414,154.764 258.358,154.380 258.459 C 153.466 258.698,149.872 255.583,150.169 254.810 C 150.304 254.460,150.216 254.359,149.929 254.536 C 149.624 254.724,149.560 254.597,149.734 254.145 C 149.906 253.697,149.843 253.567,149.543 253.752 C 149.239 253.940,149.166 253.759,149.316 253.186 C 149.437 252.722,149.377 252.441,149.182 252.562 C 148.988 252.682,148.828 252.157,148.828 251.395 L 148.828 250.010 120.740 249.907 C 103.716 249.845,92.740 249.946,92.875 250.164 M159.473 258.883 C 160.923 258.959,163.296 258.959,164.746 258.883 C 166.196 258.808,165.010 258.747,162.109 258.747 C 159.209 258.747,158.022 258.808,159.473 258.883 M113.499 263.635 C 113.379 263.830,113.659 263.890,114.123 263.769 C 114.751 263.605,114.885 263.680,114.649 264.061 C 114.438 264.404,114.485 264.480,114.791 264.291 C 115.755 263.695,119.885 267.080,119.317 268.000 C 119.142 268.283,119.182 268.380,119.414 268.237 C 119.903 267.934,120.810 269.824,120.452 270.402 C 120.308 270.635,120.372 270.712,120.595 270.575 C 120.999 270.325,121.486 271.980,121.482 273.584 C 121.479 274.989,120.682 277.377,120.296 277.138 C 120.095 277.014,120.022 277.151,120.134 277.443 C 120.246 277.734,119.804 278.710,119.151 279.611 C 118.065 281.111,117.572 281.443,116.670 281.287 C 116.493 281.256,116.443 281.384,116.559 281.572 C 116.863 282.064,115.010 282.962,114.430 282.603 C 114.124 282.414,114.040 282.461,114.205 282.727 C 114.373 282.999,113.839 283.247,112.734 283.413 C 110.602 283.733,107.706 283.301,108.067 282.718 C 108.212 282.482,108.140 282.415,107.902 282.562 C 107.324 282.919,105.434 282.012,105.737 281.523 C 105.874 281.301,105.785 281.250,105.532 281.406 C 104.979 281.748,102.989 279.833,103.328 279.284 C 103.463 279.066,103.341 278.935,103.056 278.994 C 102.770 279.054,102.563 278.798,102.593 278.422 C 102.622 278.049,102.503 277.831,102.328 277.940 C 101.892 278.209,101.444 276.679,101.793 276.115 C 101.956 275.852,101.905 275.765,101.672 275.909 C 101.220 276.188,100.709 273.699,100.964 272.461 C 101.052 272.031,101.228 271.189,101.355 270.589 C 101.482 269.990,101.754 269.604,101.960 269.731 C 102.166 269.858,102.243 269.724,102.131 269.432 C 101.577 267.989,106.904 263.240,108.424 263.823 C 108.767 263.955,108.923 263.888,108.786 263.667 C 108.638 263.428,109.529 263.281,111.133 263.281 C 112.580 263.281,113.622 263.437,113.499 263.635 M295.547 267.988 C 297.312 268.842,298.646 270.441,298.198 271.165 C 298.035 271.430,298.101 271.497,298.366 271.333 C 298.984 270.951,299.363 272.742,299.034 274.495 C 298.708 276.231,296.043 279.120,295.100 278.758 C 294.750 278.624,294.592 278.689,294.729 278.911 C 294.885 279.162,290.057 279.297,280.859 279.297 C 271.662 279.297,266.834 279.162,266.989 278.911 C 267.123 278.694,266.976 278.621,266.653 278.745 C 265.377 279.235,262.437 276.049,263.130 274.928 C 263.296 274.660,263.226 274.597,262.951 274.767 C 262.638 274.961,262.500 274.554,262.500 273.438 C 262.500 272.553,262.659 271.927,262.854 272.048 C 263.049 272.168,263.109 271.887,262.988 271.424 C 262.838 270.851,262.911 270.669,263.215 270.858 C 263.499 271.033,263.583 270.926,263.445 270.566 C 263.201 269.931,265.464 267.931,266.892 267.519 C 269.465 266.778,293.873 267.177,295.547 267.988 M274.121 267.870 C 277.827 267.935,283.892 267.935,287.598 267.870 C 291.304 267.806,288.271 267.754,280.859 267.754 C 273.447 267.754,270.415 267.806,274.121 267.870 M120.802 273.242 C 120.806 274.102,120.886 274.407,120.979 273.921 C 121.073 273.435,121.069 272.732,120.972 272.359 C 120.874 271.985,120.797 272.383,120.802 273.242 M147.168 297.168 C 176.226 297.223,223.774 297.223,252.832 297.168 C 281.890 297.113,258.115 297.067,200.000 297.067 C 141.885 297.067,118.110 297.113,147.168 297.168 M92.875 307.195 C 92.998 307.394,92.798 307.440,92.427 307.297 C 91.975 307.124,91.847 307.188,92.036 307.493 C 92.222 307.794,92.100 307.863,91.670 307.698 C 91.315 307.561,91.067 307.576,91.118 307.729 C 91.239 308.092,89.342 309.989,88.979 309.868 C 88.826 309.817,88.811 310.065,88.948 310.420 C 89.104 310.828,89.040 310.970,88.775 310.806 C 88.503 310.638,88.432 310.843,88.575 311.389 C 88.696 311.852,88.635 312.133,88.440 312.012 C 88.230 311.882,88.086 319.389,88.086 330.473 C 88.086 340.748,88.157 349.083,88.243 348.997 C 88.489 348.750,89.471 350.827,89.265 351.160 C 89.164 351.324,89.384 351.733,89.755 352.068 C 90.415 352.666,90.588 352.734,91.429 352.734 C 91.657 352.734,91.753 352.879,91.644 353.056 C 91.535 353.233,91.744 353.378,92.109 353.377 C 94.524 353.374,95.517 353.591,94.531 353.906 C 93.694 354.174,93.669 354.225,94.355 354.258 C 94.796 354.279,95.332 354.121,95.546 353.907 C 95.805 353.648,131.717 353.549,201.837 353.614 C 266.221 353.673,307.651 353.570,307.516 353.352 C 307.393 353.153,307.593 353.107,307.964 353.249 C 308.362 353.402,308.537 353.350,308.396 353.121 C 308.185 352.780,308.726 352.571,309.139 352.832 C 309.430 353.016,310.919 351.458,310.736 351.161 C 310.635 350.998,310.822 350.218,311.152 349.429 C 311.843 347.775,311.979 310.340,311.293 310.764 C 310.971 310.963,310.772 310.421,310.891 309.668 C 310.917 309.507,310.806 309.416,310.645 309.466 C 310.193 309.605,308.608 308.105,308.829 307.747 C 308.937 307.573,308.723 307.547,308.355 307.688 C 307.927 307.852,307.778 307.793,307.944 307.525 C 308.111 307.254,307.890 307.173,307.325 307.297 C 306.795 307.413,306.624 307.360,306.896 307.163 C 307.144 306.983,259.041 306.836,200.000 306.836 C 134.763 306.836,92.740 306.977,92.875 307.195 M115.539 321.319 C 117.708 322.400,119.700 324.411,119.278 325.093 C 119.136 325.323,119.196 325.402,119.412 325.269 C 119.941 324.942,120.874 326.752,120.494 327.367 C 120.311 327.662,120.351 327.757,120.595 327.606 C 120.999 327.356,121.486 329.011,121.482 330.615 C 121.478 332.158,120.678 334.406,120.231 334.129 C 119.985 333.977,119.911 334.042,120.058 334.279 C 120.422 334.869,119.922 335.984,119.430 335.680 C 119.202 335.539,119.135 335.612,119.278 335.844 C 119.700 336.527,117.708 338.537,115.539 339.618 C 112.945 340.911,107.292 341.002,108.073 339.739 C 108.225 339.492,108.132 339.451,107.836 339.634 C 107.221 340.014,105.411 339.081,105.738 338.553 C 105.871 338.337,105.799 338.272,105.578 338.409 C 105.052 338.734,103.008 336.834,103.327 336.317 C 103.463 336.098,103.341 335.966,103.056 336.025 C 102.770 336.085,102.563 335.829,102.593 335.453 C 102.622 335.080,102.503 334.863,102.328 334.971 C 101.892 335.240,101.444 333.711,101.793 333.146 C 101.956 332.883,101.905 332.796,101.672 332.940 C 101.132 333.274,100.737 330.655,101.042 328.771 C 101.215 327.708,101.387 327.432,101.644 327.802 C 101.888 328.153,101.924 328.035,101.755 327.435 C 101.326 325.911,104.800 321.416,105.888 322.088 C 106.221 322.294,106.271 322.225,106.051 321.869 C 105.817 321.490,105.911 321.421,106.402 321.609 C 106.771 321.751,106.973 321.705,106.851 321.508 C 106.564 321.044,108.057 320.567,108.651 320.934 C 108.933 321.108,109.000 321.044,108.826 320.763 C 108.234 319.805,113.349 320.228,115.539 321.319 M294.358 324.964 C 294.238 325.158,294.475 325.230,294.885 325.123 C 295.883 324.862,298.660 327.643,299.015 329.257 C 299.348 330.777,298.916 332.913,298.345 332.560 C 298.100 332.408,298.039 332.485,298.200 332.744 C 298.576 333.352,297.720 334.851,297.186 334.521 C 296.942 334.370,296.864 334.431,297.007 334.663 C 297.341 335.203,295.410 336.449,294.675 336.167 C 294.341 336.039,294.204 336.114,294.347 336.347 C 294.515 336.618,290.064 336.711,280.536 336.635 L 266.478 336.523 264.977 335.295 C 264.152 334.619,263.501 333.786,263.530 333.444 C 263.560 333.101,263.446 332.906,263.278 333.010 C 262.830 333.287,262.500 332.185,262.500 330.414 C 262.500 329.339,262.639 328.946,262.951 329.139 C 263.217 329.303,263.296 329.247,263.145 329.002 C 262.801 328.446,263.268 327.289,263.722 327.570 C 263.920 327.692,264.057 327.648,264.026 327.470 C 263.888 326.675,264.140 326.294,265.235 325.648 C 265.880 325.267,266.610 325.080,266.858 325.233 C 267.137 325.405,267.202 325.339,267.029 325.060 C 266.821 324.723,270.247 324.609,280.664 324.609 C 288.886 324.609,294.488 324.754,294.358 324.964 M120.802 330.273 C 120.806 331.133,120.886 331.438,120.979 330.952 C 121.073 330.467,121.069 329.763,120.972 329.390 C 120.874 329.017,120.797 329.414,120.802 330.273 M144.238 354.176 C 144.614 354.274,145.229 354.274,145.605 354.176 C 145.981 354.077,145.674 353.997,144.922 353.997 C 144.170 353.997,143.862 354.077,144.238 354.176 " stroke="none" fill="#dc5c4d" fill-rule="evenodd"></path><path id="path1" d="M185.156 14.255 C 140.667 19.661,105.484 51.811,96.880 94.922 C 91.006 124.357,98.817 156.404,117.270 178.577 C 118.299 179.814,119.141 180.921,119.141 181.038 C 119.141 181.154,113.208 181.252,105.957 181.255 C 89.266 181.261,87.509 181.659,82.589 186.551 C 77.336 191.774,76.969 193.687,76.960 215.865 C 76.952 236.621,77.397 239.473,81.217 243.133 L 82.400 244.266 80.999 245.816 C 77.250 249.965,76.952 251.962,76.960 272.807 C 76.968 293.664,77.325 296.110,80.963 300.253 L 82.112 301.562 80.842 303.010 C 79.257 304.814,77.861 307.819,77.347 310.531 C 76.816 313.331,76.835 346.306,77.370 349.602 C 78.550 356.875,84.366 362.879,91.718 364.412 C 94.657 365.025,305.343 365.025,308.282 364.412 C 313.475 363.329,318.566 359.526,320.803 355.060 C 322.866 350.939,323.033 349.069,323.033 330.078 C 323.033 308.914,322.857 307.662,319.257 303.217 L 317.908 301.552 318.937 300.330 C 322.692 295.866,323.032 293.591,323.040 272.826 C 323.048 251.720,322.821 250.132,319.206 246.053 L 317.612 244.254 318.789 243.127 C 322.568 239.506,323.043 236.483,323.042 216.016 C 323.041 194.354,322.518 191.627,317.394 186.585 C 312.933 182.195,309.762 181.250,299.486 181.250 C 292.610 181.250,292.123 181.203,292.381 180.566 C 295.425 173.061,296.278 164.087,294.752 155.620 L 294.040 151.670 295.440 147.417 C 315.306 87.082,277.763 25.441,214.844 15.087 C 205.801 13.599,193.413 13.252,185.156 14.255 M205.078 24.616 C 221.715 26.062,238.647 32.063,251.099 40.927 L 253.565 42.682 250.826 44.195 C 238.101 51.222,237.168 61.274,247.603 78.896 C 255.032 91.442,257.414 103.368,255.016 116.016 L 254.461 118.945 252.914 118.882 C 244.627 118.540,236.299 120.660,228.557 125.081 C 226.754 126.111,225.157 126.953,225.009 126.953 C 224.763 126.953,205.008 71.027,205.193 70.854 C 205.237 70.813,207.646 70.595,210.547 70.370 C 217.576 69.825,220.055 67.312,217.031 63.797 L 216.092 62.706 191.933 62.596 C 178.645 62.535,166.659 62.445,165.298 62.395 C 161.406 62.253,159.948 64.498,161.701 67.934 C 162.618 69.731,162.936 69.830,168.869 70.169 C 173.473 70.432,173.480 70.434,174.074 71.583 C 175.288 73.929,184.046 97.186,187.897 108.289 L 188.808 110.914 184.021 124.500 C 181.387 131.972,177.575 142.832,175.548 148.633 C 173.521 154.434,171.369 160.476,170.766 162.061 L 169.669 164.941 165.509 152.686 C 163.221 145.945,155.930 124.760,149.306 105.609 L 137.264 70.789 140.019 70.538 C 147.225 69.882,147.403 69.844,148.528 68.719 C 150.260 66.988,149.822 64.265,147.596 62.911 C 146.402 62.185,145.780 62.161,134.305 62.387 C 127.683 62.518,122.266 62.499,122.266 62.345 C 122.266 60.856,131.430 51.082,138.133 45.422 C 155.614 30.660,181.623 22.577,205.078 24.616 M281.096 76.367 C 289.752 94.362,292.412 119.395,287.416 135.831 L 286.914 137.482 284.834 134.945 C 280.895 130.141,274.292 125.152,268.509 122.610 L 265.709 121.380 266.270 120.035 C 266.934 118.448,270.050 109.700,272.503 102.539 C 277.044 89.283,278.357 77.382,276.318 67.972 C 276.001 66.512,278.287 70.527,281.096 76.367 M114.813 81.862 C 116.398 87.194,129.803 125.778,145.466 170.087 C 150.320 183.821,154.223 195.126,154.138 195.211 C 154.053 195.296,152.340 194.358,150.332 193.126 C 111.443 169.280,95.865 123.376,112.189 80.735 C 112.832 79.056,113.426 77.749,113.509 77.832 C 113.592 77.915,114.179 79.729,114.813 81.862 M197.458 132.617 C 199.337 137.344,202.367 145.078,204.191 149.805 L 207.508 158.398 207.452 163.086 C 207.409 166.608,207.582 168.478,208.146 170.607 L 208.896 173.441 193.321 188.828 L 177.746 204.215 175.689 203.634 C 174.558 203.315,171.941 202.541,169.873 201.916 L 166.114 200.778 167.084 198.143 C 168.996 192.952,176.275 172.716,178.771 165.651 C 180.171 161.691,183.247 153.165,185.607 146.706 C 187.967 140.246,190.786 132.449,191.872 129.378 C 192.958 126.307,193.891 123.846,193.944 123.909 C 193.998 123.972,195.579 127.891,197.458 132.617 M259.886 130.630 C 289.836 139.510,293.812 180.795,265.981 193.922 C 257.068 198.126,245.595 197.876,236.933 193.289 C 231.379 190.348,230.340 190.878,218.652 202.626 C 208.350 212.982,208.336 213.003,210.485 215.634 C 213.786 219.676,214.453 220.780,214.452 222.198 C 214.450 224.085,213.312 225.883,211.608 226.691 C 209.109 227.877,208.909 227.809,202.973 223.706 C 200.176 221.773,198.281 222.396,193.810 226.718 C 188.972 231.396,188.767 232.557,192.090 236.493 C 195.557 240.601,195.767 240.987,195.574 242.895 C 195.148 247.095,190.662 248.478,187.305 245.445 C 186.660 244.863,185.305 243.628,184.294 242.701 C 181.562 240.197,180.748 240.330,177.006 243.895 C 172.685 248.011,172.588 248.047,165.782 248.047 L 160.041 248.047 160.305 244.238 C 160.975 234.591,159.535 236.845,174.219 222.460 C 180.771 216.040,193.924 203.131,203.446 193.773 C 223.009 174.547,221.281 176.943,219.390 171.680 C 210.894 148.034,235.264 123.331,259.886 130.630 M253.860 145.829 C 238.919 151.405,243.124 173.349,258.984 172.568 C 276.267 171.716,276.083 146.065,258.789 145.431 C 256.497 145.347,254.782 145.486,253.860 145.829 M260.430 155.062 C 264.188 157.354,263.348 163.252,259.097 164.426 C 256.931 165.024,254.279 163.964,253.324 162.117 C 250.845 157.322,255.902 152.301,260.430 155.062 M133.304 194.571 C 141.234 201.252,155.433 209.015,165.527 212.189 C 167.085 212.678,168.359 213.178,168.359 213.299 C 168.359 213.419,164.974 216.778,160.836 220.763 C 151.888 229.381,151.298 230.263,150.664 235.972 L 150.232 239.863 121.698 239.756 L 93.164 239.648 91.568 238.734 C 90.690 238.230,89.499 237.089,88.921 236.198 L 87.869 234.577 87.978 215.597 L 88.086 196.618 89.181 195.183 C 91.503 192.139,90.859 192.224,111.820 192.205 L 130.475 192.188 133.304 194.571 M308.909 193.457 C 312.219 195.650,312.146 195.106,312.023 216.540 L 311.914 235.413 310.862 236.792 C 308.506 239.881,313.032 239.636,256.164 239.750 L 205.491 239.852 204.734 238.286 C 203.872 236.501,203.888 236.484,205.586 237.374 C 209.567 239.462,213.981 237.860,219.415 232.354 C 225.327 226.364,226.416 220.831,222.639 215.980 L 221.547 214.576 227.318 208.815 L 233.089 203.053 236.100 204.259 C 252.867 210.973,273.505 206.522,283.786 193.975 L 285.278 192.154 296.282 192.268 L 307.286 192.383 308.909 193.457 M108.063 206.887 C 105.643 207.631,102.711 210.480,102.040 212.741 C 99.071 222.739,110.820 230.091,117.976 222.713 C 124.985 215.486,117.737 203.916,108.063 206.887 M266.992 210.833 C 262.249 212.021,261.691 218.905,266.162 221.070 C 268.282 222.096,292.696 222.326,295.050 221.342 C 299.826 219.347,299.519 212.316,294.597 210.949 C 293.161 210.550,268.535 210.447,266.992 210.833 M150.114 254.140 C 152.237 258.245,153.800 258.696,165.234 258.507 C 175.539 258.336,176.850 258.060,179.806 255.446 L 181.378 254.055 184.341 255.558 C 190.674 258.769,195.048 258.032,200.431 252.847 L 203.791 249.609 255.430 249.609 C 299.121 249.609,307.232 249.694,308.125 250.160 C 309.541 250.900,311.185 252.682,311.694 254.029 C 312.360 255.793,312.258 291.076,311.582 292.694 C 310.948 294.211,308.599 296.358,307.122 296.772 C 305.727 297.162,94.273 297.162,92.878 296.772 C 91.535 296.396,89.200 294.367,88.457 292.930 C 87.723 291.512,87.605 255.192,88.329 253.783 C 88.896 252.679,90.605 250.840,91.602 250.259 C 92.168 249.930,100.188 249.751,120.703 249.609 L 149.023 249.414 149.264 251.187 C 149.396 252.162,149.779 253.491,150.114 254.140 M107.227 264.603 C 97.870 269.026,100.781 282.914,111.064 282.909 C 115.136 282.907,118.148 281.056,119.779 277.555 C 123.581 269.388,115.262 260.804,107.227 264.603 M265.077 269.160 C 261.875 271.971,262.497 276.794,266.264 278.368 C 268.501 279.302,293.913 279.139,295.709 278.178 C 299.326 276.244,299.479 270.869,295.977 268.734 C 294.798 268.015,293.922 267.972,280.580 267.970 L 266.433 267.969 265.077 269.160 M308.451 307.390 C 309.124 307.801,310.179 308.797,310.795 309.604 L 311.914 311.071 312.023 329.944 C 312.146 351.380,312.219 350.835,308.908 353.027 L 307.284 354.102 200.000 354.102 L 92.716 354.102 91.092 353.027 C 87.825 350.865,87.891 351.324,87.891 330.510 C 87.891 309.416,87.844 309.705,91.602 307.371 C 93.463 306.215,306.554 306.234,308.451 307.390 M107.227 321.597 C 99.044 325.520,99.899 337.174,108.555 339.707 C 117.737 342.394,124.689 331.292,118.348 324.070 C 115.577 320.914,110.845 319.862,107.227 321.597 M266.170 325.558 C 262.216 327.280,262.004 332.510,265.775 335.327 C 267.028 336.264,291.684 336.816,294.547 335.972 C 299.488 334.516,299.824 327.527,295.050 325.533 C 293.213 324.765,267.941 324.788,266.170 325.558 " stroke="none" fill="#502a43" fill-rule="evenodd"></path><path id="path2" d="M0.000 200.000 L 0.000 400.000 200.000 400.000 L 400.000 400.000 400.000 200.000 L 400.000 0.000 200.000 0.000 L 0.000 0.000 0.000 200.000 M208.008 14.095 C 274.175 20.650,315.871 83.892,295.675 147.063 L 294.141 151.860 294.970 156.692 C 296.274 164.296,295.560 172.572,293.025 179.244 L 292.263 181.250 300.029 181.250 C 310.780 181.250,314.358 182.553,318.850 188.102 C 322.874 193.073,323.115 194.789,322.968 217.486 C 322.830 238.722,322.845 238.615,319.360 242.465 L 317.673 244.327 319.363 246.206 C 322.857 250.093,322.835 249.937,322.972 271.289 C 323.117 293.764,322.829 295.934,319.156 300.119 L 317.888 301.563 319.164 303.015 C 319.865 303.815,320.982 305.616,321.645 307.019 L 322.852 309.570 322.969 328.758 C 323.069 344.949,322.993 348.351,322.486 350.539 C 320.918 357.300,316.245 362.184,309.402 364.214 C 306.166 365.174,93.866 365.180,90.598 364.221 C 83.941 362.265,79.250 357.481,77.536 350.901 C 76.664 347.553,76.679 312.545,77.554 309.187 C 78.229 306.596,79.257 304.694,80.978 302.852 L 82.147 301.602 80.919 300.204 C 77.107 295.862,76.896 294.304,77.034 271.544 C 77.164 249.899,77.140 250.074,80.640 246.207 L 82.327 244.345 80.637 242.466 C 77.136 238.572,77.164 238.771,77.034 217.127 C 76.892 193.766,77.101 192.459,81.801 187.231 C 86.713 181.768,88.785 181.250,105.731 181.250 L 119.206 181.250 118.490 180.318 C 100.955 157.497,93.646 135.616,94.945 109.833 C 97.895 51.273,148.735 8.223,208.008 14.095 M128.893 54.199 L 126.758 56.445 129.004 54.310 C 131.091 52.327,131.429 51.953,131.139 51.953 C 131.078 51.953,130.067 52.964,128.893 54.199 M181.641 199.805 C 180.040 201.416,178.818 202.734,178.926 202.734 C 179.033 202.734,180.431 201.416,182.031 199.805 C 183.632 198.193,184.853 196.875,184.746 196.875 C 184.639 196.875,183.241 198.193,181.641 199.805 " stroke="none" fill="#fbfbf9" fill-rule="evenodd"></path><path id="path3" d="M195.206 13.563 C 195.900 13.649,197.130 13.651,197.941 13.566 C 198.751 13.482,198.184 13.411,196.680 13.409 C 195.176 13.408,194.513 13.477,195.206 13.563 M191.406 24.475 C 178.602 25.348,164.106 29.493,153.130 35.418 C 148.692 37.814,143.750 41.001,143.750 41.467 C 143.750 41.674,143.573 41.734,143.357 41.600 C 143.140 41.466,142.858 41.632,142.729 41.967 C 142.600 42.303,142.244 42.578,141.938 42.578 C 141.632 42.578,141.281 42.841,141.158 43.162 C 141.035 43.483,140.790 43.657,140.615 43.549 C 140.440 43.440,139.915 43.837,139.449 44.430 C 138.983 45.023,138.454 45.508,138.274 45.508 C 138.094 45.508,137.307 46.211,136.525 47.070 C 135.743 47.930,135.233 48.369,135.392 48.047 C 135.550 47.725,133.321 49.848,130.438 52.765 C 127.554 55.682,125.167 58.215,125.133 58.394 C 125.098 58.573,124.787 58.877,124.441 59.071 C 124.095 59.265,123.902 59.570,124.013 59.749 C 124.124 59.928,123.940 60.179,123.606 60.308 C 123.271 60.436,123.095 60.700,123.215 60.894 C 123.335 61.088,123.170 61.347,122.849 61.470 C 120.358 62.426,122.721 62.615,134.305 62.387 C 147.620 62.124,148.299 62.229,149.237 64.698 C 150.773 68.737,147.129 70.640,137.725 70.709 C 137.279 70.712,137.090 70.844,137.305 71.002 C 137.520 71.160,137.750 71.611,137.817 72.004 C 137.884 72.397,144.411 91.469,152.321 114.387 C 160.231 137.304,167.283 157.839,167.992 160.019 C 168.853 162.667,169.443 163.922,169.768 163.797 C 170.286 163.598,170.352 163.426,175.742 148.047 C 177.662 142.568,181.270 132.315,183.761 125.262 C 186.251 118.208,188.189 112.276,188.067 112.078 C 187.944 111.880,188.031 111.719,188.258 111.719 C 189.200 111.719,187.916 107.792,180.467 87.891 C 175.631 74.971,175.326 74.219,174.923 74.219 C 174.725 74.219,174.664 74.055,174.788 73.855 C 175.175 73.229,173.714 70.687,172.871 70.518 C 172.431 70.430,170.313 70.249,168.164 70.116 C 162.902 69.790,162.595 69.686,161.703 67.938 C 159.948 64.498,161.405 62.253,165.298 62.395 C 166.659 62.445,178.645 62.535,191.933 62.596 L 216.092 62.706 217.031 63.797 C 220.597 67.942,216.283 70.624,205.931 70.697 C 205.066 70.703,204.990 71.986,205.814 72.656 C 205.947 72.764,206.101 73.115,206.157 73.438 C 206.518 75.511,224.790 126.857,225.147 126.801 C 225.975 126.672,228.906 124.856,228.906 124.472 C 228.906 124.261,229.010 124.193,229.138 124.320 C 229.265 124.447,230.553 123.958,231.999 123.232 C 237.519 120.462,243.311 119.109,250.245 118.971 C 254.992 118.876,254.452 119.252,255.059 115.625 C 257.165 103.041,253.825 85.980,248.039 79.769 C 247.697 79.402,247.370 78.926,247.311 78.711 C 247.073 77.830,245.535 75.391,245.218 75.391 C 245.030 75.391,244.980 75.221,245.108 75.014 C 245.236 74.807,244.998 74.295,244.578 73.875 C 244.158 73.455,243.918 73.009,244.043 72.884 C 244.168 72.759,244.036 72.656,243.750 72.656 C 243.464 72.656,243.332 72.553,243.458 72.427 C 243.584 72.301,243.192 71.094,242.586 69.745 C 240.179 64.378,239.914 57.359,241.952 52.907 C 242.537 51.631,242.985 50.586,242.948 50.586 C 242.911 50.586,243.823 49.616,244.975 48.431 C 246.128 47.245,247.190 46.325,247.337 46.386 C 247.483 46.447,247.878 46.104,248.215 45.623 C 248.552 45.142,248.828 44.885,248.828 45.052 C 248.828 45.220,249.355 45.045,250.000 44.664 C 250.645 44.284,251.172 43.824,251.172 43.643 C 251.172 43.462,251.333 43.413,251.531 43.535 C 251.729 43.657,252.147 43.500,252.461 43.186 C 252.775 42.872,253.179 42.739,253.359 42.890 C 253.538 43.041,253.451 42.858,253.166 42.485 C 252.880 42.111,252.508 41.890,252.340 41.994 C 252.172 42.098,251.934 41.920,251.811 41.599 C 251.688 41.278,251.337 41.016,251.031 41.016 C 250.725 41.016,250.369 40.741,250.240 40.405 C 250.111 40.069,249.847 39.892,249.653 40.012 C 249.459 40.132,249.190 39.942,249.055 39.590 C 248.920 39.239,248.711 39.049,248.591 39.170 C 248.470 39.290,248.029 39.096,247.611 38.737 C 247.192 38.379,246.724 38.091,246.569 38.096 C 246.415 38.102,246.025 37.881,245.703 37.605 C 245.381 37.329,244.961 37.119,244.770 37.140 C 244.579 37.160,244.316 37.021,244.184 36.832 C 243.491 35.835,232.610 30.697,231.995 31.077 C 231.800 31.198,231.641 31.132,231.641 30.932 C 231.641 30.486,225.737 28.500,220.478 27.175 C 211.023 24.793,200.740 23.839,191.406 24.475 M123.424 44.043 L 121.289 46.289 123.535 44.154 C 124.771 42.980,125.781 41.969,125.781 41.908 C 125.781 41.618,125.408 41.956,123.424 44.043 M276.786 69.094 C 276.669 69.284,276.758 71.349,276.983 73.684 C 277.810 82.248,276.447 91.027,272.503 102.539 C 270.012 109.811,266.930 118.456,266.242 120.102 C 265.918 120.878,265.822 121.409,266.030 121.280 C 266.237 121.152,266.406 121.244,266.406 121.484 C 266.406 121.725,266.567 121.822,266.764 121.700 C 266.960 121.579,267.180 121.612,267.252 121.775 C 267.378 122.059,272.146 124.460,272.761 124.549 C 272.927 124.573,273.437 124.942,273.895 125.369 C 274.353 125.796,274.858 126.064,275.018 125.965 C 275.178 125.867,275.419 126.074,275.554 126.425 C 275.689 126.777,275.910 126.955,276.045 126.820 C 276.180 126.685,276.513 126.880,276.785 127.252 C 277.058 127.625,277.441 127.930,277.638 127.930 C 277.834 127.930,278.477 128.457,279.068 129.102 C 279.658 129.746,280.026 130.010,279.886 129.688 C 279.746 129.365,280.215 129.726,280.929 130.489 C 281.643 131.252,282.930 132.551,283.789 133.375 C 284.648 134.198,285.088 134.746,284.766 134.592 C 284.443 134.438,284.707 134.795,285.352 135.385 C 285.996 135.976,286.523 136.590,286.523 136.751 C 286.523 136.913,286.655 137.147,286.816 137.272 C 286.978 137.397,287.023 137.384,286.917 137.243 C 286.812 137.102,286.888 136.790,287.087 136.550 C 289.037 134.201,290.443 115.795,289.436 105.803 C 288.361 95.128,281.471 73.047,279.217 73.047 C 279.021 73.047,278.969 72.871,279.102 72.656 C 279.234 72.441,279.128 72.266,278.864 72.266 C 278.601 72.266,278.496 72.155,278.630 72.021 C 278.962 71.689,277.818 69.531,277.311 69.531 C 277.089 69.531,277.016 69.355,277.148 69.141 C 277.281 68.926,277.302 68.750,277.195 68.750 C 277.087 68.750,276.903 68.905,276.786 69.094 M111.797 81.749 C 104.295 102.529,103.767 123.190,110.232 142.969 C 110.899 145.010,111.595 146.739,111.779 146.811 C 111.964 146.883,112.023 147.089,111.911 147.270 C 111.654 147.686,114.758 154.781,115.367 155.168 C 115.616 155.327,115.672 155.459,115.490 155.463 C 115.191 155.468,116.998 158.909,117.544 159.375 C 117.670 159.482,117.822 159.803,117.880 160.087 C 118.030 160.809,119.173 162.500,119.511 162.500 C 119.665 162.500,119.792 162.723,119.792 162.996 C 119.792 163.720,121.842 166.701,122.518 166.960 C 122.836 167.082,122.986 167.360,122.852 167.578 C 122.717 167.796,122.881 168.079,123.215 168.208 C 123.550 168.336,123.734 168.587,123.624 168.764 C 123.514 168.942,123.778 169.335,124.210 169.637 C 124.642 169.940,124.898 170.284,124.780 170.403 C 124.661 170.521,125.104 171.002,125.763 171.472 C 126.423 171.941,126.866 172.482,126.747 172.673 C 126.629 172.865,126.891 173.245,127.329 173.519 C 127.767 173.792,128.125 174.197,128.125 174.417 C 128.125 174.638,129.994 176.661,132.279 178.913 C 134.563 181.165,136.308 182.744,136.157 182.422 C 136.005 182.100,136.502 182.539,137.261 183.398 C 138.020 184.258,138.803 184.961,139.003 184.961 C 139.202 184.961,139.731 185.400,140.177 185.938 C 140.624 186.475,140.995 186.749,141.003 186.546 C 141.010 186.344,141.265 186.520,141.570 186.937 C 141.875 187.354,142.271 187.699,142.449 187.704 C 142.627 187.709,143.283 188.193,143.905 188.779 C 144.527 189.364,145.255 189.844,145.523 189.844 C 145.791 189.844,146.116 190.119,146.245 190.454 C 146.373 190.790,146.656 190.956,146.872 190.822 C 147.089 190.688,147.266 190.794,147.266 191.058 C 147.266 191.321,147.364 191.438,147.485 191.317 C 147.606 191.196,148.155 191.515,148.706 192.026 C 149.257 192.536,149.861 192.859,150.049 192.743 C 150.237 192.627,150.391 192.729,150.391 192.969 C 150.391 193.209,150.548 193.308,150.740 193.189 C 150.933 193.070,151.195 193.247,151.323 193.582 C 151.452 193.916,151.734 194.081,151.950 193.947 C 152.167 193.813,152.344 193.919,152.344 194.183 C 152.344 194.446,152.458 194.547,152.598 194.407 C 152.738 194.267,153.063 194.440,153.320 194.792 C 154.764 196.767,153.339 192.299,145.075 168.945 C 140.057 154.766,134.114 137.891,131.869 131.445 C 129.624 125.000,125.215 112.344,122.070 103.320 C 118.926 94.297,115.784 85.068,115.090 82.813 C 113.543 77.789,113.260 77.697,111.797 81.749 M94.630 115.820 C 94.634 116.680,94.714 116.985,94.808 116.499 C 94.901 116.013,94.897 115.310,94.800 114.937 C 94.702 114.563,94.625 114.961,94.630 115.820 M192.410 127.897 C 191.802 129.634,189.726 135.361,187.796 140.625 C 185.867 145.889,182.538 155.117,180.398 161.133 C 176.254 172.786,173.943 179.214,169.137 192.468 C 167.483 197.027,166.281 200.664,166.464 200.550 C 166.647 200.437,166.797 200.549,166.797 200.800 C 166.797 201.050,167.049 201.159,167.358 201.040 C 167.666 200.922,167.974 200.972,168.041 201.152 C 168.109 201.332,170.254 202.074,172.809 202.801 L 177.455 204.122 181.168 200.401 C 183.211 198.354,184.645 197.031,184.356 197.461 C 184.067 197.891,184.736 197.378,185.843 196.321 C 186.950 195.264,187.748 194.226,187.617 194.015 C 187.486 193.803,187.552 193.736,187.764 193.867 C 187.975 193.997,192.808 189.410,198.503 183.673 L 208.857 173.242 208.156 170.703 C 207.644 168.851,207.462 166.842,207.481 163.281 L 207.507 158.398 204.184 149.805 C 198.246 134.442,197.190 131.840,196.801 131.597 C 196.590 131.466,196.466 131.233,196.525 131.081 C 196.690 130.653,194.792 125.781,194.459 125.781 C 194.298 125.781,194.255 125.547,194.365 125.260 C 194.475 124.974,194.329 124.740,194.040 124.740 C 193.736 124.740,193.052 126.064,192.410 127.897 M255.859 154.711 C 255.859 154.938,255.728 155.061,255.566 154.985 C 255.186 154.803,253.148 156.924,253.431 157.207 C 253.549 157.325,253.441 157.422,253.190 157.422 C 252.904 157.422,252.734 158.147,252.734 159.375 C 252.734 160.489,252.912 161.328,253.148 161.328 C 253.376 161.328,253.453 161.504,253.320 161.719 C 253.188 161.934,253.275 162.109,253.516 162.109 C 253.756 162.109,253.856 162.265,253.738 162.456 C 253.621 162.646,253.820 163.042,254.181 163.335 C 254.745 163.792,254.795 163.784,254.538 163.281 C 254.374 162.959,254.496 163.010,254.810 163.394 C 255.818 164.626,259.766 165.122,259.766 164.017 C 259.766 163.827,259.897 163.711,260.059 163.760 C 261.799 164.283,263.744 158.722,262.320 157.297 C 261.958 156.936,261.791 156.641,261.947 156.641 C 262.103 156.641,261.911 156.288,261.521 155.857 C 261.131 155.426,260.731 155.154,260.633 155.252 C 260.534 155.351,260.199 155.176,259.887 154.864 C 259.232 154.209,255.859 154.081,255.859 154.711 " stroke="none" fill="#9ba484" fill-rule="evenodd"></path><path id="path4" d="M246.508 129.700 C 225.709 132.568,212.295 154.852,220.143 173.499 C 220.811 175.087,221.046 176.133,220.832 176.570 C 220.542 177.162,199.592 197.813,172.505 224.208 C 160.126 236.270,161.400 234.051,160.340 245.410 L 160.094 248.047 165.606 248.047 C 172.307 248.047,172.649 247.924,176.814 244.006 C 181.068 240.003,181.555 239.992,185.688 243.800 C 189.266 247.097,191.065 247.632,193.504 246.125 C 196.505 244.271,196.303 241.465,192.894 237.628 C 191.591 236.161,190.291 234.434,190.004 233.789 C 189.718 233.145,189.477 232.886,189.468 233.214 C 189.449 233.985,190.260 235.168,192.901 238.215 C 195.655 241.394,195.930 243.478,193.841 245.344 C 191.453 247.479,189.564 246.976,185.442 243.107 C 181.618 239.517,180.824 239.574,176.383 243.758 C 172.266 247.635,172.100 247.697,165.952 247.632 C 159.955 247.568,160.463 248.218,161.140 241.469 C 161.787 235.019,161.691 235.255,164.904 232.237 C 166.268 230.957,177.314 220.140,189.453 208.198 C 201.592 196.257,213.672 184.406,216.299 181.863 C 221.847 176.491,221.879 176.427,220.572 173.500 C 215.605 162.371,219.551 146.146,229.207 138.005 C 251.242 119.424,284.084 134.775,284.119 163.672 C 284.141 182.233,272.027 195.073,253.160 196.487 L 248.633 196.826 253.320 196.669 C 276.187 195.901,290.530 173.662,282.443 151.517 C 277.219 137.211,261.453 127.640,246.508 129.700 M254.837 145.059 C 243.922 147.839,240.400 161.220,248.485 169.199 C 256.567 177.175,270.064 172.810,272.266 161.507 C 274.181 151.679,264.546 142.586,254.837 145.059 M262.204 145.700 C 276.651 150.163,274.429 171.523,259.375 172.900 C 245.477 174.171,238.934 155.428,250.510 147.505 C 254.150 145.013,258.036 144.413,262.204 145.700 M229.688 191.845 C 228.056 192.338,209.632 210.420,209.045 212.103 C 208.564 213.484,209.159 214.802,211.675 217.930 C 216.976 224.520,211.485 229.823,204.910 224.464 C 201.868 221.985,199.732 221.603,197.266 223.097 C 195.206 224.344,190.036 229.747,189.539 231.171 C 188.971 232.802,189.288 232.789,189.977 231.152 C 190.270 230.454,191.547 228.814,192.814 227.508 C 198.264 221.888,200.265 221.398,204.503 224.646 C 208.421 227.650,210.510 227.867,212.954 225.525 C 215.205 223.368,214.901 221.382,211.706 217.366 C 207.955 212.652,207.658 213.260,219.241 201.894 C 230.912 190.442,231.178 190.322,237.687 193.538 C 240.575 194.965,245.856 196.512,247.621 196.448 C 248.178 196.427,247.429 196.172,245.957 195.879 C 242.262 195.145,240.848 194.665,237.750 193.092 C 234.807 191.598,231.960 191.158,229.688 191.845 M92.918 192.565 C 88.028 194.044,87.889 194.689,87.899 215.846 C 87.909 236.044,87.887 235.875,90.845 238.131 L 92.322 239.258 121.300 239.363 L 150.278 239.468 150.502 236.433 C 150.923 230.734,151.109 230.444,160.146 221.371 C 164.594 216.905,168.131 213.193,168.004 213.124 C 167.877 213.055,167.247 212.872,166.604 212.718 C 158.855 210.858,143.404 202.603,134.306 195.461 L 130.135 192.188 112.040 192.221 C 102.088 192.240,93.483 192.394,92.918 192.565 M283.008 194.811 C 271.683 207.045,252.946 210.990,236.572 204.587 L 233.140 203.245 227.359 208.916 L 221.578 214.586 222.361 215.399 C 226.706 219.907,225.631 226.188,219.437 232.486 C 213.729 238.290,210.237 239.458,205.002 237.313 C 204.410 237.071,204.388 237.171,204.794 238.248 L 205.249 239.453 256.204 239.453 L 307.158 239.453 308.815 238.482 C 312.139 236.534,312.109 236.735,312.109 216.113 C 312.109 190.991,312.923 192.161,295.508 192.235 L 285.352 192.279 283.008 194.811 M132.164 194.289 C 139.988 200.928,152.057 207.799,162.999 211.843 L 167.600 213.543 160.032 220.932 C 151.268 229.488,150.538 230.590,150.131 235.856 L 149.884 239.063 121.524 239.056 L 93.164 239.050 91.602 238.176 C 88.274 236.314,88.281 236.363,88.281 215.894 C 88.281 190.383,85.980 192.620,112.242 192.595 L 130.149 192.578 132.164 194.289 M307.648 193.319 C 311.706 195.162,311.784 195.629,311.643 217.023 L 311.523 235.023 310.398 236.498 C 308.309 239.236,311.986 239.063,256.109 239.063 C 209.977 239.063,205.531 239.007,205.311 238.433 C 205.124 237.947,205.226 237.871,205.757 238.100 C 212.758 241.113,225.222 231.065,225.157 222.461 C 225.134 219.355,223.932 215.827,222.621 215.017 C 222.133 214.716,232.680 203.906,233.461 203.906 C 233.717 203.906,235.268 204.444,236.908 205.101 C 252.788 211.459,271.023 207.540,283.192 195.151 L 285.720 192.578 295.887 192.587 C 304.939 192.594,306.229 192.675,307.648 193.319 M107.936 206.377 C 100.595 209.084,98.689 217.950,104.281 223.377 C 112.432 231.287,125.430 221.223,120.005 211.202 C 117.701 206.945,112.277 204.777,107.936 206.377 M114.844 207.062 C 121.741 210.181,123.041 218.375,117.422 223.321 C 111.215 228.785,101.450 224.319,101.450 216.016 C 101.450 209.131,108.700 204.284,114.844 207.062 M265.641 211.021 C 263.670 212.363,262.821 213.748,262.668 215.873 L 262.530 217.773 262.877 215.893 C 263.301 213.595,264.104 212.311,265.744 211.311 C 267.786 210.066,293.510 210.142,295.748 211.400 C 298.692 213.055,299.486 216.375,297.649 219.347 C 296.127 221.810,295.694 221.875,280.794 221.875 C 265.829 221.875,265.612 221.840,263.770 219.141 C 263.286 218.433,262.891 218.042,262.891 218.272 C 262.891 218.951,264.848 221.076,266.043 221.694 C 267.783 222.593,293.655 222.533,295.568 221.625 C 299.828 219.604,300.273 214.029,296.396 211.263 C 295.121 210.354,295.080 210.351,281.035 210.240 L 266.953 210.129 265.641 211.021 M91.992 250.260 C 87.814 252.467,87.889 252.049,87.899 273.129 C 87.909 293.482,87.884 293.295,90.845 295.553 L 92.322 296.680 200.000 296.680 L 307.678 296.680 309.155 295.553 C 312.113 293.297,312.091 293.459,312.101 273.327 C 312.111 252.353,312.117 252.388,308.121 250.349 C 306.721 249.634,304.941 249.609,255.430 249.609 L 204.188 249.609 201.089 252.570 C 195.144 258.250,189.637 259.018,183.151 255.071 L 181.342 253.970 180.072 255.279 C 177.275 258.165,173.310 258.964,162.305 258.857 C 152.881 258.766,149.836 257.063,149.310 251.590 L 149.119 249.609 121.142 249.625 C 96.378 249.639,93.029 249.712,91.992 250.260 M148.837 251.270 C 148.876 257.097,153.132 259.379,163.943 259.368 C 173.316 259.359,176.981 258.539,180.364 255.692 L 181.536 254.706 184.319 256.134 C 190.498 259.304,195.594 258.334,201.145 252.932 L 204.158 250.000 255.276 250.000 C 312.923 250.000,308.352 249.752,310.547 252.992 L 311.523 254.434 311.632 272.774 C 311.757 293.791,311.793 293.539,308.424 295.513 L 306.767 296.484 199.966 296.478 L 93.164 296.472 91.602 295.597 C 88.272 293.735,88.281 293.795,88.281 273.242 C 88.281 252.689,88.272 252.749,91.602 250.887 L 93.164 250.013 120.996 250.006 L 148.828 250.000 148.837 251.270 M107.439 263.897 C 99.616 267.291,98.777 277.914,106.006 282.043 C 114.781 287.055,124.828 277.763,120.219 268.899 C 117.797 264.241,111.935 261.947,107.439 263.897 M116.249 265.058 C 121.386 268.226,122.458 275.316,118.468 279.732 C 112.412 286.436,101.472 282.391,101.443 273.438 C 101.418 265.824,109.800 261.080,116.249 265.058 M266.992 267.468 C 261.972 268.687,261.050 276.142,265.619 278.573 C 267.934 279.805,294.257 279.671,296.098 278.418 C 300.329 275.538,300.065 270.175,295.585 268.006 C 293.956 267.218,269.888 266.764,266.992 267.468 M295.944 268.579 C 299.566 271.285,299.654 275.667,296.134 278.020 C 294.184 279.322,267.832 279.415,265.719 278.127 C 261.850 275.768,262.026 270.514,266.045 268.446 C 268.595 267.133,294.161 267.247,295.944 268.579 M91.992 307.291 C 87.853 309.478,87.909 309.163,87.899 330.384 C 87.892 344.700,88.000 348.725,88.418 349.726 C 89.052 351.242,91.401 353.389,92.878 353.803 C 95.397 354.508,306.749 354.149,308.047 353.438 C 312.189 351.169,312.170 351.283,312.030 329.463 L 311.914 311.465 310.814 309.804 C 308.506 306.317,320.521 306.657,199.805 306.665 C 103.230 306.671,93.053 306.730,91.992 307.291 M307.982 307.807 C 308.856 308.233,310.010 309.231,310.547 310.024 L 311.523 311.465 311.632 329.854 L 311.741 348.242 310.851 349.997 C 310.361 350.962,309.364 352.148,308.634 352.634 L 307.306 353.516 285.391 353.521 C 111.947 353.565,93.326 353.512,92.033 352.972 C 91.315 352.672,90.221 351.763,89.602 350.951 L 88.477 349.476 88.368 330.939 C 88.243 309.743,88.206 310.010,91.538 308.013 L 93.164 307.039 199.779 307.035 C 305.338 307.031,306.410 307.039,307.982 307.807 M106.833 321.231 C 97.361 325.642,100.116 339.756,110.603 340.547 C 117.194 341.044,122.656 334.637,121.116 328.216 C 119.628 322.014,112.567 318.561,106.833 321.231 M115.048 321.434 C 121.399 324.319,122.881 332.527,117.942 337.466 C 111.871 343.538,101.415 338.964,101.453 330.252 C 101.483 323.347,108.805 318.598,115.048 321.434 M265.570 325.452 C 261.722 327.683,261.490 332.671,265.106 335.429 L 266.541 336.523 280.859 336.523 L 295.178 336.523 296.578 335.456 C 300.258 332.648,299.722 327.221,295.568 325.250 C 293.236 324.144,267.528 324.317,265.570 325.452 M296.368 326.134 C 299.657 328.602,299.334 333.459,295.748 335.475 C 293.693 336.630,268.529 336.816,266.165 335.694 C 262.114 333.772,261.862 328.147,265.719 325.771 C 266.941 325.019,267.561 324.991,281.055 325.091 L 295.117 325.195 296.368 326.134 " stroke="none" fill="#f47d54" fill-rule="evenodd"></path></g></svg>