<?xml version="1.0" encoding="UTF-8"?>
<svg 
  xmlns="http://www.w3.org/2000/svg" 
  viewBox="0 0 1000 500" 
  preserveAspectRatio="xMidYMid meet"
>
  <!-- Background transparent -->
  <rect width="100%" height="100%" fill="none"/>

  <!-- North America -->
  <path d="M135.1,75.4l5.2-3.5l12.1,1.7l10.8,5.6l8.6,8.2l5.1,10.3l0,12.8l-4.3,8.5l-7.9,6.7l-12.3,2.9l-16.0-4.9l-8.0-8.8l-5.5-12.3  
    l0.7-16.2L135.1,75.4z" fill="#B0B0B0"/>

  <!-- South America -->
  <path d="M215.3,198.7l3.9-2.7l8.7,2.5l10.2,8.4l5.3,11.4l1.2,14.5l-3.5,9.2l-7.6,6.0l-10.5,2.2l-13.8-5.8l-7.0-10.6l-3.8-12.1  
    l0.3-12.8L215.3,198.7z" fill="#B0B0B0"/>

  <!-- Europe -->
  <path d="M375.0,68.0l4.1-1.5l9.7-1.2l8.8,3.9l6.2,7.5l3.2,10.6l-1.0,11.8l-3.9,7.1l-7.5,5.4l-9.7,0.9l-11.5-5.5l-6.9-9.0l-3.5-11.2  
    l1.1-11.0L375.0,68.0z" fill="#B0B0B0"/>

  <!-- Africa -->
  <path d="M395.6,143.2l5.8-2.9l11.4,3.2l10.6,9.1l7.0,12.2l3.8,14.8l-2.2,11.2l-6.4,8.1l-9.8,3.5l-12.0-6.5l-8.0-12.8l-4.0-14.2  
    l1.5-12.5L395.6,143.2z" fill="#B0B0B0"/>

  <!-- Asia -->
  <path d="M455.2,62.1l7.0-2.4l15.3,2.8l18.0,12.4l14.5,18.2l10.2,24.5l2.8,28.1l-5.0,22.0l-13.8,14.7l-20.2,5.8l-24.5-7.8l-18.9-16.4  
    l-12.4-22.3l-4.7-26.1l3.3-24.8L455.2,62.1z" fill="#B0B0B0"/>

  <!-- Australia -->
  <path d="M615.8,236.9l4.5-2.1l9.2,1.8l8.1,6.1l4.7,8.4l1.6,11.0l-2.5,8.3l-6.8,5.2l-8.9,1.5l-10.2-4.5l-5.8-7.6l-2.9-9.6l0.9-10.5L615.8,236.9z" fill="#B0B0B0"/>

  <!-- Arctic islands, Antarctica etc can be added similarly -->
</svg>
