<?xml version="1.0" encoding="UTF-8"?>
<svg version="1.1" viewBox="0 0 1873 2048" width="709" height="775" xmlns="http://www.w3.org/2000/svg">
<path transform="translate(0)" d="m0 0h1873v2048h-1873z" fill="#FFD110"/>
<path transform="translate(0)" d="m0 0h1873v2048h-1873zm930 24-21 5-16 7-45 22-23 11-72 35-63 29-40 18-42 18-39 16-38 15-40 15-36 13-41 14-51 16-52 15-56 14-48 10-34 6-15 5-11 6-12 11-6 7-8 14-5 15-1 8v28l4 88 8 132 5 69 6 66 7 66 11 83 11 68 10 57 10 49 13 57 11 44 3 10-71 1-18 3-13 5-13 7-10 8-9 9-10 15-6 15-3 11-1 12v282l2 13 5 15 8 15 8 10 8 8 13 9 14 7 15 4 8 1h1600l18-4 16-7 11-7 10-9 9-10 9-15 6-18 1-6v-299l-4-16-8-16-9-12-10-10-15-10-15-6-12-3-11-1h-70l7-24 9-37 12-54 12-62 10-60 10-67 9-71 9-86 7-85 6-95 4-70 5-94v-13l-3-15-7-16-7-11-9-9-13-8-11-5-15-4-38-7-49-11-40-10-53-15-48-15-37-12-43-15-41-15-46-18-35-14-28-12-32-14-43-19-27-13-28-13-111-54-15-8-17-7-21-5z" fill="#FFFCFE"/>
<path transform="translate(143,1187)" d="m0 0h1594l16 2 18 6 12 7 10 8 9 9 10 15 6 14 3 13v299l-4 16-5 12-8 12-9 10-10 9-14 8-16 6-14 3h-1600l-17-3-15-6-11-7-10-8-8-8-9-14-6-13-4-14-1-9v-282l2-17 7-19 9-14 9-10 9-8 14-8 12-5 13-3z" fill="#351B71"/>
<path transform="translate(924,270)" d="m0 0h34l34 3 31 5 29 7 29 9 25 10 24 11 24 13 25 16 12 9 14 11 14 12 12 11 3 2v2l3 1v2l4 2 9 10 7 8 11 13 13 17 13 18 16 27 9 17 11 25 10 26 9 31 5 23 4 27 2 24v54l-3 29-5 29-7 28-11 33-12 27-8 17-14 24-13 19-9 12-8 10-9 11-12 14-23 23-8 7-14 12-20 15-24 16-21 12-21 10-15 7-26 10-26 8-26 6-29 5-22 2h-64l-28-3-23-4-32-8-32-11-26-11-23-11-27-16-21-14-17-13-13-11-13-12-12-11-7-7-7-8-9-10-8-10-14-19-10-15-12-20-7-12-13-28-12-31-8-27-6-26-4-24-3-32v-48l3-28 5-30 8-32 8-24 11-28 10-21 10-18 12-19 12-17 10-13 11-13 9-10 7-8 19-19 8-7 10-9 20-15 14-10 19-12 22-12 25-12 27-10 15-5 31-8 31-6 28-3z" fill="#00BE8E"/>
<path transform="translate(580,1635)" d="m0 0h560l341 1-4 7-8 10-14 19-13 17-8 10-13 16-11 13-9 10-9 11-9 9-7 8-9 9-7 8-10 10-8 7-13 13-8 7-8 8-11 9-12 11-11 9-16 13-36 27-20 14-15 10-19 12-23 14-21 12-18 10-23 12-24 12-24 11-30 13-32 13-17 5-18 2-16-1-21-5-28-11-30-13-26-12-31-15-19-10-25-14-29-17-14-9-33-22-20-14-16-12-14-11-10-8-17-14-10-9-11-9-9-9-8-7-10-9-41-41-7-8-9-10-6-6v-2h-2l-9-11-12-14-11-14-13-16-9-12-10-13-8-11-8-10-1-2z" fill="#FFD110"/>
<path transform="translate(931,387)" d="m0 0h26l16 4 8 7 3 8 1 5v14l-2 29 13 2 23 4 27 8 21 9 11 6 7 6 2 4-1 9-7 11-12 16-21 30-7 6-2 1h-11l-30-10-21-5-18-2h-17l-16 2-12 4-10 6-6 9-2 8 1 11 4 10 6 7 13 8 15 6 35 12 36 12 20 8 16 8 12 7 10 8 10 9 9 10 10 15 7 15 5 16 3 21v21l-3 19-5 17-11 23-8 11-9 11-9 9-17 12-14 8-21 8-22 6-10 2-1 8v38l-4 9-8 7-5 2-12 2h-20l-13-3-8-6-4-6-1-4v-40l2-8-26-3-24-5-23-7-23-10-14-7-13-9-6-8v-7l5-9 11-13 13-17 10-14 4-5 5-3h11l28 10 28 7 22 3h33l17-3 14-5 8-6 6-9 3-11-1-11-4-10-7-8-19-10-36-12-31-10-19-7-20-9-19-11-13-10-10-9-9-10-9-14-6-13-5-16-2-11-1-13v-13l2-19 5-19 7-16 6-11 8-10 9-10 9-8 15-10 16-8 15-6 19-5 14-3h3v-46l3-10 5-5 6-4z" fill="#361B71"/>
<path transform="translate(1285,1300)" d="m0 0h96l15 3 15 6 11 7 10 9 9 13 6 13 2 10v22l-4 14-7 12-11 12-9 7-14 8-3 1 2 4 11 15 12 17 13 18 12 17 9 13 1 3h-59l-7-8-17-26-29-44-1-1-14-1v79l-1 1-38 1-10-1-2-3v-217z" fill="#FFFCFC"/>
<path transform="translate(1110,1300)" d="m0 0h51l9 21 20 50 31 77 20 49 9 23v4l-51 1-4-4-14-36-3-1h-87l-2-1-3 9-11 28-3 4h-52l1-7 15-37 20-49 18-44 20-48 15-37z" fill="#FFFCFC"/>
<path transform="translate(803,1299)" d="m0 0h24l13 1 3 3v82h92v-81l2-3 3-1 12-1h18l15 1 1 1v223h-49l-2-5v-84h-92v87l-2 2h-47l-1-1-1-31 1-190 2-2z" fill="#FFFCFB"/>
<path transform="translate(525,1300)" d="m0 0h140v45l-3 2h-89v33l22-1 19 2 16 5 14 7 12 11 7 8 5 8 5 13 2 10v23l-4 15-8 16-12 13-12 9-14 6-18 4-10 1h-20l-19-3-16-6-11-6-10-8-1-2v-11l3-18 5-14 2-1 19 10 20 8 9 2 15 1 10-2 8-4 5-5 4-6 1-5v-14l-4-8-8-7-10-4-13-2h-10l-31 3-11 2h-8l-1-31-1-54-1-23v-19z" fill="#FFFCFC"/>
<path transform="translate(400,1300)" d="m0 0h52l-1 7-14 24-14 25-10 17-14 24-12 21-11 19 49-1 1-43 2-3h47v47h20l2 2v42l-1 4-20-1-1 39-1 1-29 1h-14l-5-2v-38l-105-1-3-5v-38l12-22 14-24 12-21 17-29 13-23 12-20z" fill="#FFFCFC"/>
<path transform="translate(1508,1299)" d="m0 0h22l14 1 3 1 1 2v218l-2 3h-49l-1-2v-221l2-1z" fill="#FFFCF9"/>
<path transform="translate(1334,1346)" d="m0 0h39l10 3 6 4 6 7 2 6v11l-4 9-5 6-10 5-4 1-39 1-1-1z" fill="#351C71"/>
<path transform="translate(1135,1366)" d="m0 0 3 2 15 40 11 29-1 1h-54l-2-2 20-51 7-18z" fill="#341F71"/>
</svg>
