<?xml version="1.0" encoding="UTF-8"?>
<svg version="1.1" viewBox="0 0 2048 1900" width="779" height="723" xmlns="http://www.w3.org/2000/svg">
<path transform="translate(1370,52)" d="m0 0h21l14 3 12 5 12 9 10 9 122 122 8 7 64 64 8 7 8 8 7 8 8 7v2l3 1v2l4 2 33 33v2h2l6 7 2 1v2l3 1v2h2l7 8 43 43 8 7 11 11 9 13 4 12v22l-4 12-6 9-10 10-10 6-8 3-8 1-135 1-11 2-6 4-3 5-1 5-1 152-2 16-3 1-29-4-29-3h-55l-32 5-24 7-16 6-16 8-16 9-18 13-13 12-8 7-10 10-2 3-4-1-11-14-8-8-8-7-13-11-17-12-18-10-16-8-24-8-24-5-20-3v-11l1-10 1-38v-79l-1-20-4-8-8-4-7-1-134-1-12-2-12-5-11-9-8-10-5-12-1-6v-12l3-12 6-11 7-9 336-336 8-7 9-9 14-11 14-7z" fill="#6AA8FB"/>
<path transform="translate(1323,1038)" d="m0 0h2l10 14 25 25 11 9 17 12 15 9 26 12 4 2-2 5-10 15-10 16-14 23-9 15-9 16-5 11-1 4v14l5 13 7 9 9 8 16 8 16 3 36 1 76 1-3 10-14 34-12 25-13 26-12 20-15 24-7 10-13 19-13 16-11 14-11 13-9 10-13 15-31 31-8 7-10 9-13 12-11 9-14 11-21 16-19 13-27 18-29 17-23 13-23 12-33 15-25 11-29 11-38 13-46 13-30 7-35 7-37 6-40 5-46 4-37 2h-61l-39-2-30-4-14-3-12-6-7-7-4-8-1-3v-15l5-10 4-5 9-6 16-5 21-6 25-9 23-10 25-12 19-10 27-16 16-10 23-16 19-14 16-13 9-7 13-11 10-9 15-14 12-11 9-9 7-8 7-7 7-8 9-10 9-11 13-16 24-32 18-27 15-25 15-27 14-29 12-28 7-18 1-1 50-1 23-1 7-2 13-5 10-6 9-8 7-9 13-18 15-23 14-22 11-18 14-22 13-21 11-18 14-22 9-15 12-21 4-9z" fill="#6AA8FB"/>
<path transform="translate(186,723)" d="m0 0h44l23 3 23 6 21 8 19 10 16 11 13 11 8 7 9 11 11 15 9 16 9 22 6 23 3 21v40l-2 16-3 15-6 22-7 19-12 25-13 22-13 21-13 22-12 20-13 22-6 11-13 21-12 20-17 28-11 18-7 9-4 2h-119l-5-6-1-7 5-10 15-24 12-19 15-24 16-26 13-21 15-24-1-1h-44l-16-2-19-5-13-5-16-8-12-8-10-8-17-17-11-15-9-15-8-19-6-20-4-22-1-12v-29l2-19 4-20 9-27 11-21 10-14 11-12 14-14 15-11 13-8 21-10 21-7 24-5z" fill="#413475"/>
<path transform="translate(600,723)" d="m0 0h45l26 4 17 4 22 8 23 12 15 11 15 13 10 11 12 17 11 19 8 21 5 19 3 18 1 13v28l-2 21-4 20-5 16-6 16-12 24-16 27-11 19-15 24-16 26-10 17-13 21-17 28-9 15-14 23-11 17-4 4-3 1h-117l-5-4v-10l6-11 14-22 13-21 12-19 13-21 12-19 11-17 10-16v-2h-42l-16-2-16-4-16-6-19-10-18-13-16-16-13-18-10-18-7-17-7-26-3-23v-35l4-26 4-17 8-21 8-16 10-15 11-14 11-11 17-13 14-9 16-8 18-7 23-6z" fill="#413475"/>
<path transform="translate(1107,723)" d="m0 0h38l24 4 23 6 17 6 19 10 11 7 12 9 14 13 7 8 8 9 9 14 10 21 7 21 5 25 2 19v26l-3 25-4 20-11 33-11 23-14 24-11 19-12 20-13 22-45 76-15 25-10 16-7 10-6 5-2 1-40 1h-20l-57-1-6-5-1-6 5-10 10-15 16-26 9-14 16-26 12-19 14-22 12-20-7 1h-41l-13-2-22-6-20-9-17-11-14-12-10-10-11-14-10-17-8-17-6-18-5-25-2-16v-26l4-29 4-17 8-22 12-23 9-12 8-10 13-13 17-13 15-9 19-9 21-7 22-5z" fill="#413475"/>
<path transform="translate(1498,723)" d="m0 0h28l31 4 19 5 21 8 23 12 10 7 14 11 7 6 7 8 13 17 8 14 9 19 7 23 4 22 2 20-1 23-4 27-6 23-8 24-9 20-10 19-9 15-16 28-10 17-15 26-11 19-9 15-15 26-13 22-9 15-10 16-6 5-2 1h-116l-5-3-1-2 1-9 7-13 10-15 12-20 12-19 16-26 9-15 15-24 8-13 1-3h-44l-20-3-21-6-18-8-15-10-14-11-7-7-11-14-10-15-8-15-9-25-5-25-2-28v-11l3-27 5-24 7-20 8-16 10-16 7-9 12-13 13-12 17-12 12-7 27-11 18-5 18-3z" fill="#413475"/>
<path transform="translate(1920,920)" d="m0 0h35l10 2 4 5-1 6-9 19-12 21-15 27-18 32-10 18-14 25-14 24-10 18-13 23-14 25-26 46-12 21-5 5-4 3h-52l-5-3 1-7 15-26 17-28 12-22 10-17 13-23 9-15 15-27 12-21 14-24 15-27 12-21 13-25 13-23 6-9z" fill="#413475"/>
<path transform="translate(606,830)" d="m0 0h28l15 4 14 7 9 7 10 10 8 13 6 16 2 15v9l-2 14-6 18-7 11-10 11-10 7-12 6-19 5h-24l-16-4-14-7-9-7-9-9-8-13-5-12-3-13v-26l4-14 8-16 8-10 10-9 12-7 15-5z" fill="#FAFBFC"/>
<path transform="translate(835,1119)" d="m0 0h76l11 1 5 5 1 2v8l-8 16-14 27-13 23-15 28-12 22-14 25-9 16-3 3-10 1h-80l-5-3-1-2v-8l9-19 10-19 11-23 22-44 11-23 13-27 5-7z" fill="#413475"/>
<path transform="translate(1111,830)" d="m0 0h25l13 3 19 9 11 9 9 11 8 16 4 16 1 9v9l-3 17-6 16-7 11-5 6-10 8-15 8-19 5h-22l-17-4-14-7-9-7-10-10-7-11-5-11-3-10-1-7v-21l3-14 6-15 8-11 3-4h2v-2l11-8 14-7z" fill="#FAFBFC"/>
<path transform="translate(196,830)" d="m0 0h23l16 4 16 8 9 7 9 9 7 11 6 15 2 9v24l-4 17-8 16-7 9-8 8-13 8-15 6-9 2h-24l-17-4-14-7-10-8-9-10-8-14-5-15-2-13v-13l3-17 8-17 7-9 12-12 14-8 15-5z" fill="#FAFBFC"/>
<path transform="translate(1502,830)" d="m0 0h21l14 3 14 6 10 7 13 13 8 14 6 18 1 7v17l-3 15-6 15-7 10-9 10-10 7-12 6-13 4-6 1h-22l-16-4-14-7-11-9-8-9-8-14-5-16-1-5v-26l4-15 8-16 9-11 8-7 10-6 8-4z" fill="#FAFBFC"/>
<path transform="translate(1928,1083)" d="m0 0h22l12 3 12 5 11 7 10 9 8 9 6 10 5 12 4 18v17l-3 15-5 13-8 13-10 11-8 6-17 9-11 3-8 1h-18l-14-3-16-8-11-8-7-7-11-16-6-15-3-14v-15l3-16 6-16 9-14 9-10 10-8 15-7zm5 55-10 6-6 9-1 3v12l5 10 8 7 8 3h9l10-5 6-7 2-5 1-10-2-9-6-8-5-4-5-2z" fill="#413475"/>
<path transform="translate(1758,916)" d="m0 0h22l15 4 16 8 13 11 9 11 8 16 4 15v25l-4 17-4 10-7 11-9 10-7 7-11 7-12 5-13 3h-21l-16-4-15-8-13-11-9-11-6-10-5-13-2-10v-23l5-19 5-12 8-11 8-9 11-8 16-8zm7 53-9 3-7 6-4 8-1 3v9l3 9 4 6 9 6 4 1h9l8-3 7-6 4-9 1-10-3-10-7-8-8-4z" fill="#413475"/>
<path transform="translate(186,723)" d="m0 0h44l23 3 23 6 21 8 19 10 16 11 13 11 8 7 9 11 11 15 9 16 9 22 6 23 3 21v40l-2 16-3 15-6 22-7 19-12 25-13 22-13 21-13 22-12 20-13 22-6 11-13 21-12 20-17 28-11 18-7 9-4 2h-119l-5-6-1-7 5-10 15-24 12-19 15-24 16-26 13-21 15-24 3-1-1 6-13 22-9 14-8 14-12 19-6 10-11 17-7 11-6 9-5 9-9 14-2 5 1 5 2 1h115l5-3 10-16 12-20 17-28 30-50 14-24 24-40 13-21 8-13 8-18 5-12 7-21 5-22 2-14 1-13v-24l-3-27-6-23-5-14-8-16-9-15-12-14-9-10-2-1v-2l-4-2-12-9-16-10-17-9-23-8-18-4-15-2-20-1h-25l-21 2-15 3-20 6-21 8-13 7-17 12-13 11-12 12-12 17-9 16-7 16-5 17-5 30-1 10v22l3 25 4 21 8 22 10 19 10 14 11 13 8 8 18 13 15 8 16 6 22 5 10 1 48 2-2 4h-44l-16-2-19-5-13-5-16-8-12-8-10-8-17-17-11-15-9-15-8-19-6-20-4-22-1-12v-29l2-19 4-20 9-27 11-21 10-14 11-12 14-14 15-11 13-8 21-10 21-7 24-5z" fill="#251F60"/>
<path transform="translate(1498,723)" d="m0 0h28l31 4 19 5 21 8 23 12 10 7 14 11 7 6 7 8 13 17 8 14 9 19 7 23 4 22 2 20-1 23-4 27-6 23-8 24-9 20-10 19-9 15-16 28-10 17-15 26-11 19-9 15-15 26-13 22-9 15-10 16-6 5-2 1h-116l-5-3-1-2 1-9 7-13 10-15 12-20 12-19 16-26 9-15 15-24 9-15h2l-2 8-6 11-12 19-9 15-1 3h-2l-2 5-7 12-7 11-12 19-16 26-5 8-1 3h-2l-1 4-3 6-1 5h111l10-1 2-4 10-17 9-15 28-48 13-22 5-8 6-11 11-19 13-22 15-26 13-22 14-32 9-28 5-32 1-12v-21l-3-24-3-16-9-26-11-21-10-14-11-12-11-11-2-1v-2l-4-1-9-7-13-8-24-11-20-6-12-3-20-2h-37l-23 3-22 5-27 9-10 5-14 9-13 10-8 8h-2v2h-2l-3 6h-2l-2 4-9 11-7 11-10 21-6 18-4 18-3 33v22l3 23 6 25 7 17 11 20 9 12 11 13 7 7 8 5v2l5 2 14 8 13 6 19 5 11 2 11 1 44 1v3l-2 1h-52l-23-5-21-8-14-8-16-12-10-9-11-13-10-15-9-16-8-21-4-15-3-16-2-28v-11l3-27 5-24 7-20 8-16 10-16 7-9 12-13 13-12 17-12 12-7 27-11 18-5 18-3z" fill="#241D5E"/>
<path transform="translate(1107,723)" d="m0 0h38l24 4 23 6 17 6 19 10 11 7 12 9 14 13 7 8 8 9 9 14 10 21 7 21 5 25 2 19v26l-3 25-4 20-11 33-11 23-14 24-11 19-12 20-13 22-45 76-15 25-10 16-7 10-6 5-2 1-40 1h-20l-57-1-6-5-1-6 5-10 10-15 16-26 9-14 16-26 12-19 14-22 12-20-7 1h-41l-13-2-22-6-20-9-17-11-14-12-10-10-11-14-10-17-8-17-6-18-5-25-2-16v-26l4-29 4-17 8-22 12-23 9-12 8-10 13-13 17-13 15-9 19-9 21-7 22-5zm-2 5-16 2-20 4-23 7-16 7-17 9-13 10-14 12-10 11-12 17-8 15-7 17-5 16-4 19-2 20v31l3 23 4 16 6 17 8 16 8 14 9 11 14 15 9 8 16 11 15 7 19 6 12 3 9 1 35 1 15 1 1 4-6 12-10 16-15 25-10 15-6 10-8 13-13 20-13 21-7 12-3 4v5l4 3h112l6-1v-2h2l11-18 10-16 3-5 10-17 7-11 11-19 6-11 7-10 7-14 10-16 6-11 6-9 6-11 5-8 4-7 14-24 9-17 8-20 8-24 4-19 2-16v-39l-2-18-3-16-7-23-7-15-6-11-6-9h-2l-2-4-9-11-16-16-15-11-10-6-21-10-24-7-11-3-11-1-3-1z" fill="#251E5E"/>
<path transform="translate(600,723)" d="m0 0h45l26 4 17 4 22 8 23 12 15 11 15 13 10 11 12 17 11 19 8 21 5 19 3 18 1 13v28l-2 21-4 20-5 16-6 16-12 24-16 27-11 19-15 24-16 26-10 17-13 21-17 28-9 15-14 23-11 17-4 4-3 1h-117l-5-4v-10l6-11 14-22 13-21 12-19 13-21 12-19 11-17 10-16v-2h-42l-16-2-16-4-16-6-19-10-18-13-16-16-13-18-10-18-7-17-7-26-3-23v-35l4-26 4-17 8-21 8-16 10-15 11-14 11-11 17-13 14-9 16-8 18-7 23-6zm30 4-32 1-19 2-16 4-21 7-18 8-15 9-13 10-10 8-7 7-13 17-8 13-9 19-8 24-4 21-1 10v45l3 19 4 15 7 19 9 17 13 19 9 11 11 10 20 13 15 8 15 5 21 4 28 2 20 1 7 1-4 11-12 19-8 13-9 14-8 13-14 23-9 13-6 11-7 10-7 12-8 14v4l8 2 14 1h29l68-1 7-8 13-21 12-20 13-22 12-19 15-25 6-9 6-11 6-9 11-19 14-22 13-22 15-28 9-21 5-17 4-18 3-28v-18l-2-25-6-26-8-22-8-15-9-13-8-10-11-12-8-8-17-12-18-10-20-8-19-5-16-3-17-2z" fill="#251F5F"/>
<path transform="translate(1920,920)" d="m0 0h35l10 2 4 5-1 6-9 19-12 21-15 27-18 32-10 18-14 25-14 24-10 18-13 23-14 25-26 46-12 21-5 5-4 3h-52l-5-3 1-7 15-26 17-28 12-22 10-17 13-23 9-15 15-27 12-21 14-24 15-27 12-21 13-25 13-23 6-9zm-4 5-5 6-7 13-12 22-9 16-10 18-7 12-7 14-14 24-12 21-10 17-8 15-15 24-6 11-8 15-5 8-8 14-7 12-10 16-6 10-6 11-5 8 1 3h49l5-2 4-5 8-14 6-11 8-14 26-46 8-14 12-20 7-14 20-34 6-11 8-15 9-16 11-20 8-14 12-22 9-15 7-15 1-8z" fill="#251F5F"/>
<path transform="translate(835,1119)" d="m0 0h76l11 1 5 5 1 2v8l-8 16-14 27-13 23-15 28-12 22-14 25-9 16-3 3-10 1h-80l-5-3-1-2v-8l9-19 10-19 11-23 22-44 11-23 13-27 5-7zm16 5-24 1-8 15-9 19-16 32-3 5-4 10-24 48-14 27-1 8 2 2h87l4-5 6-10 5-10 13-23 12-22 10-19 12-22 12-21 11-21 1-3v-9l-1-1-69-1z" fill="#262061"/>
<path transform="translate(1928,1083)" d="m0 0h22l12 3 12 5 11 7 10 9 8 9 6 10 5 12 4 18v17l-3 15-5 13-8 13-10 11-8 6-17 9-11 3-8 1h-18l-14-3-16-8-11-8-7-7-11-16-6-15-3-14v-15l3-16 6-16 9-14 9-10 10-8 15-7zm1 4-17 5-13 7-10 9-7 8-10 19-5 17-1 11v11l4 16 7 13 10 14 9 9 16 9 12 3 7 1h19l16-4 16-8 9-7 9-11 5-9 5-11 3-10 1-7v-15l-2-11-3-10-8-16-7-9-7-7-10-7-12-6-12-4z" fill="#262060"/>
<path transform="translate(1758,916)" d="m0 0h22l15 4 16 8 13 11 9 11 8 16 4 15v25l-4 17-4 10-7 11-9 10-7 7-11 7-12 5-13 3h-21l-16-4-15-8-13-11-9-11-6-10-5-13-2-10v-23l5-19 5-12 8-11 8-9 11-8 16-8zm1 3-17 5-13 7-13 10-7 10-8 15-4 12-2 17v9l2 13 4 10 5 10 8 11 8 8 9 7 12 5 17 3h19l16-4 14-8 8-6 11-13 8-16 4-13 1-19-2-18-4-12-6-11-12-13-10-8-12-6-16-4z" fill="#251E5E"/>
<path transform="translate(611,825)" d="m0 0h15l15 3 16 6 14 9 10 9 6 7 8 14 4 12 2 11v22l-3 12-4 13-9 14-11 11-15 10-6 3-14 4-11 2h-16l-19-5-16-7-12-9-5-5-7-10-6-11-4-11-2-15-1-9v-10l1-2 2-12 5-13 3-6 4-5 7-8 10-9 12-7 18-6zm-5 5-15 4-14 7-10 8-9 10-6 10-5 11-3 12v26l4 16 8 16 7 9 9 9 13 8 14 5 9 2h24l19-5 14-7 11-9 8-9 7-12 5-16 2-14v-9l-2-15-6-16-6-10-9-10-9-8-12-7-15-5-5-1z" fill="#1E114F"/>
<path transform="translate(200,825)" d="m0 0h12l22 5 12 5 14 9v2l4 2 9 9 6 9 5 12 2 8 1 13v16l-2 12-4 14-8 13-8 10-14 11-15 7-9 3-12 2h-14l-21-5-16-7-13-10-8-9-3-6v-2h-2l-6-14-3-12-1-12v-13l2-14 4-12 6-10 11-13 16-12 14-6zm-4 5-16 4-14 7-8 6-12 12-8 14-4 9-3 17v13l3 17 5 13 7 12 12 13 14 9 14 5 10 2h24l15-4 16-8 9-7 8-8 8-13 5-12 3-14v-24l-4-15-7-14-7-9-9-9-11-7-13-6-14-3z" fill="#1E1150"/>
<path transform="translate(1505,825)" d="m0 0h10l20 4 13 5 16 10 13 13 6 9 7 18 3 18v9l-3 16-5 16-8 13h-2l-2 4-9 9-14 9-19 7-9 1h-20l-16-4-12-5-9-6-10-9-6-7-7-12-5-14-2-11-1-9v-14l4-16 3-10 5-8 5-7h2v-2l8-7 7-6 16-8 13-4zm-3 5-17 4-14 7-11 9-9 10-8 15-4 13-1 5v26l4 16 8 16 9 11 9 8 12 7 16 5 5 1h22l16-4 12-5 10-7 10-9 7-10 5-10 5-16 1-7v-17l-3-14-5-13-7-12-15-15-14-8-15-5-7-1z" fill="#1E114F"/>
<path transform="translate(1114,825)" d="m0 0h14l18 4 12 4 14 8 10 9 9 10 8 16 4 16v29l-3 12-4 12-9 13-3 4h-2v2l-10 8-9 6-12 5-15 3h-20l-15-3-15-6-11-7-8-6-10-14-7-12-3-9-3-18v-14l3-16 5-13 6-10 8-11 8-6 7-4 12-6 13-4zm-3 5-16 4-16 8-9 7v2l-3 1-10 14-6 15-3 14v21l3 14 5 12 6 10 9 10 9 8 12 7 16 5 6 1h22l19-5 15-8 11-9 8-11 6-12 4-13 2-13v-9l-3-19-5-13-6-10-8-10-11-9-19-9-13-3z" fill="#1E1150"/>
<path transform="translate(1938,1133)" d="m0 0 12 2 10 6 6 7 3 9v12l-4 10-8 8-8 4-3 1h-11l-10-5-9-9-4-8-1-5v-7l3-10 4-6 10-6zm-5 5-10 6-6 9-1 3v12l5 10 8 7 8 3h9l10-5 6-7 2-5 1-10-2-9-6-8-5-4-5-2z" fill="#261F5F"/>
<path transform="translate(1765,965)" d="m0 0 10 1 7 3 6 4 6 7 3 8v11l-3 10-6 8-7 5-9 2h-8l-9-3-10-9-4-8-1-5v-9l3-11 7-8 6-4zm0 4-9 3-7 6-4 8-1 3v9l3 9 4 6 9 6 4 1h9l8-3 7-6 4-9 1-10-3-10-7-8-8-4z" fill="#251F5F"/>
<path transform="translate(935,880)" d="m0 0h1v57h-1l-2-16v-26z" fill="#494C91"/>
</svg>
