<?xml version="1.0" encoding="UTF-8"?>
<svg version="1.1" viewBox="0 0 1819 2048" width="677" height="762" xmlns="http://www.w3.org/2000/svg">
<path transform="translate(0)" d="m0 0h1819v2048h-1819z" fill="#FEE4CE"/>
<path transform="translate(1227,930)" d="m0 0h53l38 3 35 5 34 7 35 10 29 10 34 14 17 8 19 10 18 10 19 12 16 11 14 10 14 11 13 11 8 7 10 9 34 34v2h2l9 11 13 16 13 18 16 24 15 25 15 29 12 27 10 27 9 28 8 32 6 31 5 38 2 32v39l-2 33-5 38-6 31-10 38-11 32-12 29-12 25-12 23-12 20-16 24-14 19-13 16-11 13-15 16-24 24-8 7-15 13-14 11-19 14-23 15-20 12-26 14-26 12-25 10-36 12-29 8-34 7-35 5-36 3h-53l-34-3-33-5-33-7-35-10-28-10-29-12-29-14-20-11-20-12-22-15-19-14-16-13-14-12-24-22-7-7-7-8-12-13-9-11-12-15-13-18-8-12-12-19-12-21-12-23-11-25-14-37-10-34-6-26-5-27-4-32-2-29v-56l3-35 5-33 7-33 9-33 11-32 10-24 8-18 10-19 10-18 13-21 11-16 13-18 13-16 12-14 16-17 23-23 8-7 10-9 11-9 13-10 17-12 15-10 25-15 28-15 16-7 15-7 27-10 27-9 30-8 35-7 38-5z" fill="#324DA1"/>
<path transform="translate(0)" d="m0 0h1819v2048h-1819zm172 37-20 2-15 4-16 6-16 9-11 8-13 11-10 11-10 15-9 19-7 21-2 11-1 12v1673l2 22 5 18 7 16 9 15 9 12 10 11 17 13 14 8 17 7 22 6 12 2 18 1 660 1h149l36-1 2-4 34 14 34 12 29 8 33 7 33 5 34 3h53l36-3 35-5 34-7 29-8 36-12 20-8 18-8 23-11 23-13 21-13 19-13 16-12 10-8 13-11 8-7 13-12 25-25 7-8 12-14 11-14 12-16 16-24 12-20 13-24 11-22 12-29 9-25 7-23 8-32 5-26 5-38 2-33v-39l-2-32-5-38-6-31-8-32-12-37-13-32-16-33-10-18-15-24-11-16-14-19-9-11-4-5v-854l-5-12-9-12-6-7h-2l-2-4-40-40-1-2h-2l-2-4-31-31-7-8-46-46-1-2h-2l-1-3h-2l-2-4-47-47-11-7-11-4z" fill="#FEFDFC"/>
<path transform="translate(1253,1115)" d="m0 0h7l7 3 5 6 13 28 16 36 13 28 15 33 4 8 10 2 98 6 25 1 15 2 6 4 3 6 1 9-4 8-7 7-8 7-8 8-8 7-16 15-12 11-16 15-8 7-7 7-8 7-9 9h-2l3 17 22 97 5 22v10l-5 7-8 4-9-1-28-15-47-26-24-13-22-12-6-3-6 1-22 12-29 16-28 15-43 24-6 2-8-1-8-7-2-4v-7l21-89 10-43v-5l-14-12-10-10-8-7-12-11-8-7-16-15-8-7-13-12-12-11-8-7-5-7v-12l4-6 5-4 15-2 104-6 26-2 4-1 12-25 24-54 14-31 9-21 6-8z" fill="#FEFDFC"/>
<path transform="translate(1041,1518)" d="m0 0 3 3 9 21 12 24 10 15 10 13 12 13 7 7 11 9 14 10 19 11 19 9 20 7 22 6 19 3 10 1h36l24-3 26-6 23-8 20-9 20-12 12-9 11-9 19-19 10-13 11-17 9-16 9-20 5-10 6 1 60 30 10 6 4 5 3 8v8l-9 20-8 16-10 21-8 16-9 19-7 8-10 5h-10l-22-6h-10l-12 6-6 8-2 5-1 68-6 9-6 5-11 4-44 13-29 9-12 3h-7l-10-4-6-5-14-20-10-14-9-6-4-1h-13l-9 5-8 9-12 17-8 10-7 6-8 3h-9l-88-26-10-5-6-7-2-5-1-65-4-11-4-5-8-5-3-1h-9l-24 6h-8l-10-4-7-6-9-17-11-23-9-19-8-16-9-19-1-9 5-10 7-6 16-8 17-8 17-9 16-8z" fill="#FC702E"/>
<path transform="translate(440,446)" d="m0 0h77l22 1 15 3 15 5 16 8 11 8 10 9 8 9 9 14 6 14 4 14 2 13v21l-3 18-6 18-9 17-9 12-9 10-10 8-15 9-20 8-18 4-25 1h-36l-22-1 1-9 11-41 4-10 5-6 8-4 39-1 12-2 9-4 8-6 6-8 4-10 1-6v-11l-3-10-6-9-7-6-12-5-5-1-55-1-4 16-21 80-15 55-10 37-5 13-7 9-9 6-8 3-7 1h-36l-6-3-3-3v-9l19-71 21-79 15-57 11-43 5-12 6-7 9-6z" fill="#FC702E"/>
<path transform="translate(672,518)" d="m0 0h142l19 3 16 6 11 7 10 9 8 12 4 12 1 5v18l-8 32-19 71-5 13-7 11-7 7-13 8-11 4-11 2h-122l-16-3-12-5-11-7-7-6-8-11-4-8-4-14-1-15 2-14 4-12 6-11 9-10 10-7 12-6 12-3 12-1h82l14 1-1 10-8 28-4 7-2 1-9 1-56 1-4 3-1 3v7l3 3h81l3-5 8-28 11-42 1-8-128-1-9-3-9-8-4-8-1-5v-14l4-15 6-10 7-4z" fill="#FC702E"/>
<path transform="translate(1236,519)" d="m0 0h80l21 1 15 4 16 8 11 9 9 12 5 11 3 11 1 6v14l-3 17-5 15-5 9-9 10-12 6-13 2h-106l-7-2-3-5 2-11 7-24 3-5 2-1 50-1 17-1 4-5v-10l-1-1-15-1h-57l-7 2-4 6-10 37-8 30v7l2 2 154 1 2 1-1 9-10 38-4 8-9 8-7 3h-149l-16-4-16-8-11-10-7-10-6-15-2-16 2-13 21-81 6-18 8-14 10-11 13-9 15-7 13-3z" fill="#FC702E"/>
<path transform="translate(921,519)" d="m0 0h99l18 2 20 6 17 9 12 9 12 11 10 12 8 13 5 11 5 17 2 14v15l-3 18-11 44-7 25-4 6-7 6-6 2h-47l-7-3-4-5-1-7 5-21 16-64 1-12-3-12-4-8-5-5-9-6-15-4h-40l-11 39-22 83-4 12-7 8-7 4-4 1h-44l-8-4-4-5-1-6 3-14 18-68 32-120z" fill="#FC702E"/>
<path transform="translate(1431,38)" d="m0 0h20l14 7 12 11 41 41v2l3 1v2h2l7 8 46 46 7 8 27 27v2h2l7 8 36 36v2h2l7 8 9 13 4 10v4l-29 1h-128l-16-1-14-3-16-6-11-7-12-11-9-12-7-15-3-16-1-16z" fill="#FECEAC"/>
<path transform="translate(288,518)" d="m0 0h67l18 1 3 4-1 9-8 30-5 12-9 10-8 5-13 2h-41l-9 2-10 6-7 8-4 8-2 7v14l4 11 4 6 8 7 10 4 10 2 30 3 6 3 2 3v10l-10 37-4 8-8 7-6 2h-16l-21-3-17-5-16-8-11-7-12-11-8-9-7-11-7-15-4-16-2-14v-19l3-19 5-16 9-19 9-12 5-6 11-9 13-8 16-7 13-4 10-2z" fill="#FC702E"/>
<path transform="translate(1463,447)" d="m0 0h56l6 4 3 4v8l-18 67-21 77-16 59-7 19-8 14-8 10-8 9-12 9-14 7-13 4-5 1h-15l-4-3v-7l15-56 17-63 18-67 22-83 4-8 5-4z" fill="#FC702E"/>
<path transform="translate(1227,930)" d="m0 0h53l38 3 35 5 34 7 35 10 29 10 34 14 17 8 19 10 18 10 19 12 16 11 14 10 14 11 13 11 8 7 10 9 34 34v2h2l9 11 13 16 13 18 16 24 15 25 15 29 12 27 10 27 9 28 8 32 6 31 5 38 2 32v39l-2 33-5 38-6 31-10 38-11 32-12 29-12 25-12 23-12 20-16 24-14 19-13 16-11 13-15 16-24 24-8 7-15 13-14 11-19 14-23 15-20 12-26 14-26 12-25 10-36 12-29 8-34 7-35 5-36 3h-53l-34-3-33-5-33-7-35-10-28-10-29-12-29-14-20-11-20-12-22-15-19-14-16-13-14-12-24-22-7-7-7-8-12-13-9-11-12-15-13-18-8-12-12-19-12-21-12-23-11-25-14-37-10-34-6-26-5-27-4-32-2-29v-56l3-35 5-33 7-33 9-33 11-32 10-24 8-18 10-19 10-18 13-21 11-16 13-18 13-16 12-14 16-17 23-23 8-7 10-9 11-9 13-10 17-12 15-10 25-15 28-15 16-7 15-7 27-10 27-9 30-8 35-7 38-5zm6 2v2l-3-1-7 1-27 2-25 4-23 4-40 10-26 8-31 11-30 14-26 13-22 13-14 9-10 7-17 12-13 11-10 8-10 9-15 14-25 25-7 8-9 10-11 14-10 13-14 20-12 19-15 25-8 16-10 22-6 14-6 16-10 29-2 8-6 22-5 24-5 31-4 41v63l4 46 8 44 4 15 7 25 6 18 5 14 4 10 5 12 7 16 7 15 7 13 2 4h2l2 6 7 13 11 17 5 8h2l1 4h2v3h2l2 5 2 3h2l2 5 8 10 7 9 4 2 1 3h2l2 4 8 11 11 11 8 7 10 10 10 9 11 9 8 7 16 12h2v2h3v2l10 7 15 10 16 10 15 9 19 9 32 16 29 11 33 11 30 8 29 6 26 4 31 3 40 1 43-2 40-5 21-4 21-5 19-5 26-8 24-9 28-12 25-12 23-13 20-12 16-11 11-8 16-12 13-11 8-7 15-14 9-9 5-4 7-8 15-16 9-11v-2h2l3-4v-2h2l8-11 14-19 14-21 6-11 5-8 13-26 9-19 5-12 7-18 4-12 4-10 7-25 6-24 5-26 5-33 2-23v-62l-2-28-4-33-5-28-7-29-9-30-5-15-3-7-5-13-11-25-9-17-7-14-13-22-11-16-14-20-7-8-6-8-12-14-11-12-34-34-8-7-14-12-14-11-18-13-18-12-25-15-7-4-23-12-7-4-15-6h-3v-2l-17-6-10-4-16-5-8-3-30-8-34-7-23-4-26-3-31-1-5-1-11-1z" fill="#1A37A1"/>
<path transform="translate(1253,1112)" d="m0 0h9l6 3 8 9 8 18 7 16 7 15 7 16 7 15 16 34 4 10 4 6 3 1 25 2 38 2 48 3 22 1 9 2 8 4 4 6 1 3v10l-4 8-7 8-8 7-12 12-8 7-26 24-7 7-8 7-12 11-16 15-3 3h-2l1 9 4 14 7 32 6 26 3 12 2 10 6 28v15l-5 7-8 4h-9l-14-6-16-9-26-14-18-10-16-9-22-12-18-10h-4v2l-11 6-52 29-11 6-21 11-22 12-10 4-6 1-9-4-5-5-2-4v-15l10-44 18-75 1-10-4-5-8-7-12-11-8-7-14-13-8-7-16-15-20-18-7-7-8-7-7-8-1-3v-11l3-8 5-4 7-3 6-1 40-2 95-6 4-2 6-14 10-21 6-14 7-16 7-15 5-10 4-10 4-7 4-10 4-11 6-9zm0 3-7 4-5 7-15 34-14 31-12 27-15 33-3 6-15 2-130 8-7 3-5 6-1 2v12l6 8 14 13 8 7 16 15 8 7 12 11 13 12 8 7 26 24 3 2-1 9-21 90-9 38v7l4 6 6 5 8 1 10-4 23-13 26-14 22-12 29-16 20-11 6 1 25 13 16 9 26 14 16 9 24 13 18 10 9 1 8-4 5-7v-10l-20-88-9-40-1-8 4-2 13-13 8-7 7-7 8-7 12-11 17-16 12-11 13-12 15-14 4-8-1-9-4-7-5-3-15-2-41-2-82-5-10-2-12-25-16-36-19-41-13-29-4-6-5-4-4-1z" fill="#1A37A1"/>
<path transform="translate(1251,1755)" d="m0 0h13l8 3 7 6 24 34 10 6 4 1v2l-9-2-7-3-11-12-5-8-9-12-6-7-2-1v-2l-11-1-9 3-6 5-9 11-10 15-10 11-9 4h-13v-1l8-2 10-4 7-7 13-18 9-12 7-6z" fill="#1836A1"/>
<path transform="translate(1424,1596)" d="m0 0h2l-1 4-18 18-13 10-15 10-12 7-25 11-22 7h-6l2-4 21-7 17-7 16-8 20-12 6-2 2-4 13-11 6-4h2l2-4z" fill="#1937A1"/>
<path transform="translate(958,1574)" d="m0 0h2l4 11 12 24 11 23 9 19 8 16 6 8 9 5 4 1v2l-6-1-10-4-5-4-8-16-12-26-10-19-8-15-5-10-1-4z" fill="#1936A1"/>
<path transform="translate(1082,1745)" d="m0 0h1l1 17 6 10 7 5 25 8 68 20-1 3-2-1-10-1-11-3-10-4-10-2-10-3-16-4-9-3-8-3-10-4-8-7-3-4-1-3v-20z" fill="#1836A1"/>
<path transform="translate(1081,1588)" d="m0 0h2v2h3v2l4 1 2 4 3 1v2h2v2l4 2 8 8 14 11 12 9v2h2v2l3-1 17 9 2 4 10 3-1 2-10-3-21-11-18-12-11-9-12-11-8-8-7-9z" fill="#1937A1"/>
<path transform="translate(1431,1766)" d="m0 0v3l-5 8-8 5-15 5-26 8-25 7-14 4-7 1h-8l1-2 25-7 46-14 21-6 8-5 5-6z" fill="#1937A1"/>
<path transform="translate(1035,1516)" d="m0 0 5 1-1 3-15 8-19 9-32 16-8 6-4 7h-2l1-6 6-9 10-6 21-10 30-15z" fill="#1836A1"/>
<path transform="translate(1379,1404)" d="m0 0 4 4 7 31 7 29 5 22 2 10 6 28v12l-2 1-2-15-17-74-10-44z" fill="#1B39A1"/>
<path transform="translate(134,44)" d="m0 0h6l-2 2-13 5-16 8-12 8-10 8-13 13-6 10-8 14-6 14-6 18h-1v-8l7-19 10-19 9-12 12-13 14-11 13-8 14-7z" fill="#FED5B7"/>
<path transform="translate(1468,1524)" d="m0 0h1l-1 7-8 18-12 21-11 16-4 1 6-9 4-7 4-6 3-5 3-7 6-11 6-12z" fill="#1D3AA1"/>
<path transform="translate(225,718)" d="m0 0 5 1 14 8 13 5 16 4 6 1v2l4 1h-9l-2-1-12-2-12-4-8-4-14-8z" fill="#FEF2E8"/>
<path transform="translate(1737,1725)" d="m0 0h2l-2 5-9 17-15 24-3 3-1-4 10-15 6-11 5-8 5-9z" fill="#1D3AA1"/>
<path transform="translate(1435,960)" d="m0 0 10 3 21 8 23 10 6 3v2l-5-1-13-6-6-2v-2l-6-1-15-6-12-4-3-3z" fill="#1B38A1"/>
<path transform="translate(598,471)" d="m0 0 4 1 6 4v2l3 1 6 8 4 6v3h2l4 10-1 2-3-3-8-13-8-10-8-8z" fill="#FEF5EE"/>
<path transform="translate(1066,1678)" d="m0 0h5l7 6 5 10v8l-4-5-5-8-6-7v-3z" fill="#1835A1"/>
<path transform="translate(1453,1675)" d="m0 0h10v2h-10l-1 3-10 7-4 6-3-1 1-5 5-6z" fill="#1C39A1"/>
<path transform="translate(199,690)" d="m0 0h2l9 12 10 10v2l-4-1-2-1v-2l-4-2-4-5-6-8-2-4z" fill="#FEF3EB"/>
<path transform="translate(1516,1659)" d="m0 0h2l-1 5-6 12-6 5h-5v-2l8-6 6-10z" fill="#1D3AA1"/>
<path transform="translate(1235,1138)" d="m0 0 1 2-12 27-2-4 4-10 4-7 2-5z" fill="#1D3AA1"/>
<path transform="translate(534,522)" d="m0 0 7 1 9 6 6 7-1 3-8-7-3-3-10-6z" fill="#FEF2E8"/>
<path transform="translate(649,730)" d="m0 0 9 2 9 3v2l11 1 2 2h-9l-16-5-6-4z" fill="#FEF7F0"/>
<path transform="translate(864,536)" d="m0 0 6 3 7 8 3 5-1 4-4-4-8-11-3-3z" fill="#FEF4EC"/>
<path transform="translate(1105,561)" d="m0 0 7 6 6 11 1 4-3-1-10-16z" fill="#FEF3E9"/>
<path transform="translate(1377,538)" d="m0 0 4 2 6 5 3 5-1 4-5-5-6-8z" fill="#FEF3EA"/>
<path transform="translate(84,74)" d="m0 0 3 1-13 13-5 6v-3l12-14z" fill="#FED7BA"/>
<path transform="translate(628,711)" d="m0 0 4 2 5 6 5 4v2l-5-2-8-8z" fill="#FEEFE4"/>
<path transform="translate(1443,1573)" d="m0 0h2l-2 4-7 10-3-1 9-12z" fill="#203DA1"/>
<path transform="translate(1379,1404)" d="m0 0 4 4 1 10-2 3-3-13z" fill="#1F3CA1"/>
<path transform="translate(1092,548)" d="m0 0 5 2 4 5v2h2l1 3-4-2-8-8z" fill="#FEF4EC"/>
<path transform="translate(1407,1525)" d="m0 0h2l1 3v12l-2 1z" fill="#1E3BA1"/>
<path transform="translate(1715,1763)" d="m0 0h2l-2 5-4 6-2-4z" fill="#1F3CA1"/>
<path transform="translate(60,105)" d="m0 0 2 1-2 6-3 6-3 1 2-6z" fill="#FED6B8"/>
<path transform="translate(1183,538)" d="m0 0v3l-6 7-3-1 4-6z" fill="#FEF6EE"/>
<path transform="translate(1200,1214)" d="m0 0h2l-2 6-2 5-2-2 1-5z" fill="#1D3AA1"/>
</svg>
