<?xml version="1.0" encoding="UTF-8"?>
<svg version="1.1" viewBox="0 0 1024 1024" width="1024" height="1024" xmlns="http://www.w3.org/2000/svg">
<path transform="translate(0)" d="m0 0h1024v1024h-1024z" fill="#FEFEFE"/>
<path transform="translate(641,232)" d="m0 0h38l24 3 25 6 18 6 18 8 19 10 19 13 13 11 10 9 11 11 9 11 11 15 8 13 12 23 10 26 6 23 3 19 1 9v38l-3 23-6 25-7 20-9 20-11 19-12 17-12 14-18 18-10 8 11 4 6 5 5 9 1 75 14-17 13-17 14-17 33-42 8-4h10l8 5 4 5 2 4v9l-5 10-11 13-13 17-14 17-10 13-11 14-12 15-11 14-14 18-13 16-13 17-14 17-6 7-7 3h-7l-8-4-15-16-1-1-306-1-9-3-6-5-5-9-1-4v-145l4-10 5-6 7-4 4-1 68-1-15-13-15-15-9-11-12-17-9-15-11-23-7-20-5-18-4-24-1-10v-33l3-24 6-25 7-21 9-20 11-20 12-17 8-10 11-12 13-13 11-9 14-10 20-12 19-9 19-7 24-6 18-3z" fill="#005ACC"/>
<path transform="translate(114,131)" d="m0 0h433l11 4 9 8 5 10 1 4v57l-26 10-23 12-18 12-13 10-14 12-18 18-11 14-5 7h-327l-10-3-10-7-6-9-2-7v-128l4-10 7-8 9-5z" fill="#FE1A21"/>
<path transform="translate(112,531)" d="m0 0h289l8 26 10 24 8 15 9 14 5 7v2l-12 4-10 6-10 9-7 8-6 12-1 4-1 38h-278l-11-4-10-9-5-12v-121l4-10 5-6 10-6z" fill="#FE1A21"/>
<path transform="translate(115,336)" d="m0 0h313l-9 19-8 19-7 22-6 27-3 25v43l1 12h-281l-11-4-7-6-5-9-2-7v-116l3-9 7-9 8-5z" fill="#FE1A21"/>
<path transform="translate(448,665)" d="m0 0h360l5 3 3 4v91l-22 28-13 16-3 3-10-10-7-8-7-7v-1h21l-1-57-2-9-5-8-6-4-4-1h-15l-10 5-5 6-5-5-6-5-4-1h-15l-10 5-5 5-1-8-1-1h-19v78h22v-58l6-4 3-1h8l5 4 2 6 1 34 10-9 10-4v-24l7-6 3-1h8l5 3 2 5v54l-5-5-8-4h-8l-8 4-5 7-1 3v10l4 7 11 12 4 5v1h-291l-5-4-1-2v-145l5-6z" fill="#FEFEFE"/>
<path transform="translate(913,646)" d="m0 0h10l8 5 4 5 2 4v9l-5 10-11 13-13 17-14 17-10 13-11 14-12 15-11 14-14 18-13 16-13 17-14 17-6 7-7 3h-7l-8-4-15-16-1-1-306-1-9-3-6-5-5-9-1-4v-145l4-10 5-6 7-4 4-1h366l8 3 6 5 5 9 1 75 14-17 13-17 14-17 33-42zm-465 19-5 3-3 4v145l4 5 2 1h291l-3-5-9-9-6-8-1-3v-10l4-8 7-5 3-1h8l8 4 5 5v-54l-3-6-4-2h-8l-6 3-4 4v24l-10 4-10 9-1-34-3-7-4-3h-8l-8 4-1 1v58h-22v-78h19l1 1 1 8 7-6 8-4h15l7 3 7 8 5-5 8-5 3-1h15l8 3 5 6 3 7 1 6 1 57h-21l6 7 7 7 7 8 5 4 13-16 13-17 9-11 2-3v-91l-5-6-3-1z" fill="#00B519"/>
<path transform="translate(445,651)" d="m0 0h366l8 3 6 5 5 9v77l-10 13-4 4-1-90-4-5-3-1h-360l-5 3-2 3v145l5 5h292l7 8 7 7v1h-306l-9-3-6-5-5-9-1-4v-145l4-10 5-6 7-4z" fill="#212829"/>
<path transform="translate(486,361)" d="m0 0 10 3 32 8 17 3 2 1-6 37-2 20-1 17h-81l2-18 6-25 7-20 8-16 5-9z" fill="#FEFEFE"/>
<path transform="translate(834,361)" d="m0 0h2l13 25 7 19 6 24 3 21h-81l-3-33-5-32-1-9 28-6 23-6z" fill="#FEFEFE"/>
<path transform="translate(784,482)" d="m0 0h81l-2 19-6 25-7 19-10 20-4 6-24-8-37-8 6-38z" fill="#FEFEFE"/>
<path transform="translate(457,482)" d="m0 0h81l2 31 5 32 1 10-29 6-24 7-8 3-6-10-9-19-7-21-5-26z" fill="#FEFEFE"/>
<path transform="translate(697,704)" d="m0 0h15l7 3 7 8 5-5 8-5 3-1h15l8 3 6 7 3 7 1 6v57h-22l-1-55-2-5-4-2h-8l-6 3-3 3v24l-12 6-9 8h-1l-1-35-3-7-3-2h-8l-8 4-1 58h-22v-78l20-1 2 8 7-6z" fill="#212829"/>
<path transform="translate(601,704)" d="m0 0h18l12 5 8 7 7 14 2 13-1 13-4 12-6 8-8 6-8 3-4 1h-14l-10-3-8-5-6-7-4-8-2-8v-20l4-13 6-8 7-6z" fill="#212829"/>
<path transform="translate(578,380)" d="m0 0 30 3 38 2v65l-77 1v-13l3-26 5-28z" fill="#FEFEFE"/>
<path transform="translate(741,380)" d="m0 0h3l6 34 3 28v8l-76 1v-66l46-3z" fill="#FEFEFE"/>
<path transform="translate(569,482)" d="m0 0h77v64l-42 2-26 2-2-6-4-21-3-30z" fill="#FEFEFE"/>
<path transform="translate(677,482)" d="m0 0h76l-1 20-3 24-5 24-67-4z" fill="#FEFEFE"/>
<path transform="translate(520,704)" d="m0 0h18l11 4 8 7 4 7 2 9v5h-22l-3-10-3-3h-11l-5 4-3 10v15l2 9 5 5h12l4-4 2-5h21v8l-3 8-4 5-10 6-9 2h-13l-11-3-8-6-6-8-4-11-1-7v-13l3-13 6-10 8-7z" fill="#212829"/>
<path transform="translate(644,267)" d="m0 0h2v87h-17l-40-3-2-1 1-5 8-20 10-19 10-14 9-10 7-7z" fill="#FEFEFE"/>
<path transform="translate(677,267)" d="m0 0 10 6 12 11 11 14 9 15 12 25 4 12-1 1-40 3h-17z" fill="#FEFEFE"/>
<path transform="translate(637,577)" d="m0 0h9v74h-17l-11-10-10-13-9-16-7-15-5-13v-3l2-1 25-2z" fill="#FEFEFE"/>
<path transform="translate(677,577)" d="m0 0h13l31 2 14 2-6 16-8 17-9 14-11 14-9 9h-15z" fill="#FEFEFE"/>
<path transform="translate(767,585)" d="m0 0 28 5 23 6-6 8-18 18-13 10-17 11-14 8h-16l7-11 8-14 10-21 7-19z" fill="#FEFEFE"/>
<path transform="translate(550,585)" d="m0 0h5l10 27 8 17 10 16 4 6h-15l-18-10-12-8-13-10-12-11-11-11-3-5 27-7z" fill="#FEFEFE"/>
<path transform="translate(587,276)" d="m0 0 2 1-6 8-9 16-9 19-9 25-2 1-32-6-15-4-2-1 2-4 19-19 17-13 18-11 23-11z" fill="#FEFEFE"/>
<path transform="translate(732,276)" d="m0 0 9 3 19 9 18 11 14 11 15 14 9 10-1 2-36 8-13 1-11-28-8-16-9-16z" fill="#FEFEFE"/>
<path transform="translate(259,591)" d="m0 0h9l9 4 5 4 5 10v13l-5 10-6 5-7 3h-12l-8-4-5-5-3-4-2-6v-11l5-10 7-6z" fill="#212829"/>
<path transform="translate(178,591)" d="m0 0h9l9 4 5 4 5 10v13l-4 9-8 7-6 2h-12l-8-4-5-5-4-7-1-4v-9l4-10 8-7z" fill="#212829"/>
<path transform="translate(258,197)" d="m0 0h11l10 5 6 8 2 5v13l-4 8-5 5-7 4-4 1h-8l-10-4-8-9-2-6v-12l4-8 5-5 6-4z" fill="#212829"/>
<path transform="translate(177,197)" d="m0 0h11l10 5 6 8 2 5v13l-4 8-8 7-8 3h-8l-10-4-7-8-3-8v-9l4-10 9-8z" fill="#212829"/>
<path transform="translate(176,396)" d="m0 0h13l8 4 7 8 2 5v13l-5 10-7 6-5 2h-13l-8-4-7-8-3-9v-7l4-10 7-7z" fill="#212829"/>
<path transform="translate(257,396)" d="m0 0h13l8 4 7 8 2 5v13l-5 10-7 6-6 2h-12l-8-4-7-8-3-9 1-11 6-10 8-5z" fill="#212829"/>
<path transform="translate(605,722)" d="m0 0h10l5 3 4 7 1 4v17l-3 9-5 5-9 1-7-3-4-5-2-7v-16l4-11z" fill="#FEFEFE"/>
<path transform="translate(467,761)" d="m0 0 8 1 5 4 2 5-1 8-7 6h-9l-6-4-2-4v-7l3-5 4-3z" fill="#212829"/>
</svg>
