<?xml version="1.0" encoding="UTF-8"?>
<svg version="1.1" viewBox="0 0 1024 1024" width="1024" height="1024" xmlns="http://www.w3.org/2000/svg">
<path transform="translate(0)" d="m0 0h1024v1024h-1024z" fill="#FDFDFD"/>
<path transform="translate(440,287)" d="m0 0h456l43 1 9 4 7 8 5 11 1 7v15l-9 8-12 9-15 12-17 13-17 14-13 10-16 13-14 11-16 13-13 10-11 9-14 11-3 3 19 10 20 12 13 11 11 9 16 16 9 11 10 14 9 15 8 17 8 22 2 8 2 18-1 1h-23l-6-24-8-20-10-19-12-17-12-14-11-11-17-13-14-9-16-8-15-6-21-6-17-3-9-1h-35l-23 4-24 7-20 9-16 9-12 8-13 10-13 12-12 13-13 18-12 22-8 20-7 25-4 22-1 10v36l3 24 6 24v3h-428l-10-5-7-8-3-8v-162l4-10 7-8 8-4 5-1h279l1 1 1 56 5 16 6 12 8 10 9 8 10 6 15 5 20 2 31 1 4-29 2-7h-50l-10-4-8-6-6-9-2-6v-292l3-12 4-8 8-7z" fill="#F22321"/>
<path transform="translate(96,80)" d="m0 0h538l10 4 7 7 4 9 1 4v148l-221 1-15 4-13 7-10 8-8 10-3 5h-290l-8-3-8-7-5-10-1-8v-155l3-10 9-10z" fill="#F22321"/>
<path transform="translate(692,518)" d="m0 0h35l19 3 22 6 20 9 14 9 13 10 13 12 11 14 10 15 8 15 7 19 4 16 2 14v35l-3 19-5 19-7 16-9 12-7 8-10 7-10 5-13 3h-18l-10-3-10-6-9-8-6-9v-2l-5 2-9 10-8 7-15 7-9 2h-14l-15-4-13-7-10-8-8-9-8-16-6-16-2-10v-33l4-20 8-20 7-11 12-12 14-9 11-5 8-2h16l15 5 10 7 8 8h4l1-10 3-3 7-1h20l5 3 1 120 4 8 3 3 3 1h9l8-7 5-10 4-15 2-15v-33l-3-20-4-12-8-16-12-16-10-10-15-11-16-8-16-5-11-2-11-1h-11l-15 2-15 4-19 9-12 9-10 9-10 11-10 15-9 19-5 16-3 17-1 13v19l2 17 5 19 8 19 7 13 11 12 11 10 13 8 14 7 15 5 20 4 10 1h15l22-3 20-6 18-9h10l5 4 8 19 1 3v7l-5 6-16 8-21 7-20 4-16 2h-37l-21-3-23-6-21-9-16-9-13-10-10-9-11-13-10-15-12-25-6-18-5-21-1-8v-44l3-19 6-21 11-25 12-19 11-14 14-15 11-10 10-7 15-9 19-8 19-5z" fill="#005EC7"/>
<path transform="translate(440,287)" d="m0 0h456l43 1 9 4 7 8 2 6-14 12-14 11-15 12-14 11-16 13-14 11-16 13-14 11-20 16-16 13-14 11-16 13-10 8-9-1-23-5-22-3h-28l-19 3-20 6-17 7-5 1-13-10-14-11-15-12-17-13-17-14-10-8-28-22-16-13-10-8-18-14-14-11-16-13-13-10-4-3 1-6 4-6 7-6z" fill="#FDA100"/>
<path transform="translate(97,316)" d="m0 0 281 1v206h-281l-9-3-8-7-5-10-1-4v-160l4-10 7-8 8-4z" fill="#F22321"/>
<path transform="translate(413,335)" d="m0 0 4 2 28 22 16 13 20 15 13 11 13 10 28 22 15 12 14 11 16 13 14 11 3 2-2 4-13 9-16 13-14 12-8 8-9 11-11 15-9 15-8 15-10 25-7 26-1 1h-50l-10-4-8-6-6-9-2-6z" fill="#FDA100"/>
<path transform="translate(956,306)" d="m0 0h2l2 5 1 7v15l-9 8-12 9-15 12-17 13-17 14-13 10-16 13-14 11-16 13-13 10-11 9-14 11-3 3 19 10 20 12 13 11 11 9 16 16 9 11 10 14 9 15 8 17 8 22 2 8 2 18-1 1h-23l-6-24-8-20-10-19-12-17-12-14-11-11-17-13-14-9-16-8-15-6-21-6-17-3-9-1h-35l-23 4-24 7-20 9-16 9-12 8-13 10-13 12-12 13-13 18-12 22-8 20-7 25-4 22-1 10v36l3 24 6 24v3h-21l-7-14-6-18-3-13-2-18v-25l3-25 6-25 6-19 8-20 10-19 12-18 10-13 14-15 11-10 14-11 13-10 6-4 1-2-4-2-16-13-14-11-15-12-56-44-11-9-17-13-14-11-16-13-13-10-8-6v-19l2-9 5 2 16 13 28 22 18 14 17 14 17 13 16 13 14 11 17 14 13 10 14 11 15 12 13 10 3 2 5-1 17-7 20-6 19-3h28l33 5 15 4h6l13-11 13-10 11-9 16-13 14-11 16-13 14-11 16-13 17-13 12-10 14-11 16-13 14-11z" fill="#232523"/>
<path transform="translate(960,333)" d="m0 0h1v270l-3 10-7 9-8 6-9 4-4 1h-13l-2-19-6-20-10-23-6-11-12-18-9-11-11-12-8-8-11-9-12-10-15-9-16-9-9-4 6-7 13-10 16-13 14-11 16-13 14-11 16-13 13-10 15-12 17-13 16-13 12-9z" fill="#FDA100"/>
<path transform="translate(707,647)" d="m0 0h10l12 5 10 9 6 12 2 7 1 8v9l-3 14-7 14-6 7-11 6-4 1h-13l-10-4-10-9-6-12-3-15v-9l3-15 7-14 7-7 11-6z" fill="#FDFDFD"/>
<path transform="translate(166,158)" d="m0 0h12l9 4 6 5 4 7 1 4v13l-5 10-7 6-7 3-10 1-10-3-8-6-6-12v-11l4-10 7-7z" fill="#232624"/>
<path transform="translate(167,394)" d="m0 0h9l10 4 8 7 4 9 1 8-3 10-4 6-7 6-10 3-11-1-10-5-6-7-3-8v-11l3-8 7-8 8-4z" fill="#232624"/>
<path transform="translate(168,629)" d="m0 0h8l11 4 7 7 4 9 1 9-3 10-8 9-9 4-9 1-9-2-9-6-6-9-1-4v-12l5-10 7-6 6-3z" fill="#232624"/>
<path transform="translate(268,158)" d="m0 0h11l10 4 7 7 4 9v12l-3 8-6 7-10 5-10 1-10-3-10-9-4-10v-10l4-9 6-7 8-4z" fill="#232624"/>
<path transform="translate(270,394)" d="m0 0h8l10 4 8 7 4 9 1 7-2 9-5 8-7 6-9 3h-7l-10-3-8-7-5-8-1-4v-9l4-10 5-6 10-5z" fill="#232624"/>
<path transform="translate(271,629)" d="m0 0 11 1 9 5 6 7 3 7v13l-5 10-7 6-6 3-9 1-10-2-9-6-6-10-1-4v-9l4-10 4-5 8-5z" fill="#232624"/>
</svg>
