<?xml version="1.0" encoding="UTF-8"?>
<svg version="1.1" viewBox="0 0 2048 2048" width="128" height="128" xmlns="http://www.w3.org/2000/svg">
<path transform="translate(134,287)" d="m0 0h1746l46 2 22 3 15 5 14 7 12 8 12 9 10 10 13 17 7 11 6 12 10 18 1 3v1255l-10 17-8 16-8 12-11 14-10 10h-2v2l-14 10-15 8-16 6-16 4-16 2-14 1h-319l-243-1h-667l-321 1h-232l-24-3-18-6-17-9-14-10-11-9-9-9-10-13-10-18-13-23v-1261l12-21 11-18 9-13 13-13 17-12 15-9 16-8 11-4 13-2z" fill="#0260AD"/>
<path transform="translate(396,788)" d="m0 0h52l20 1 29 3 29 5 16 4 29 8 44 15 19 9 10 7 8 8 9 15 7 14 6 17 6 20 6 25 7 39 5 39v48l-4 35-4 23-6 23-12 39-11 26-8 14-11 13-8 6-36 14-29 8-24 5-23 4-30 3-33 2h-68l-32-3-36-6-27-6-26-9-25-12-14-10-9-10-9-14-7-15-7-20-9-30-6-27-5-31-3-30v-51l4-40 5-30 6-25 8-26 4-10 14-24 8-10 7-8 10-7 16-8 16-6 28-8 45-9 32-5z" fill="#0260AD"/>
<path transform="translate(893,832)" d="m0 0h154l27 2 18 3 18 5 16 8 11 8 10 10 9 16 4 10 2 12v22l-3 14-5 13-7 11-9 12-7 8-22 18-25 16-2 2 8 7 16 12 11 11 5 10 4 13 1 7v31l-3 17-9 21-12 19-9 10-7 8-14 11-22 13-25 10-19 5-31 4-15 1h-192l-1-1v-7l13-41 17-63 15-56 22-78 8-26 1-8-19-1-6-2v-8l5-12 10-18 12-21 12-22 12-20 7-9 9-6z" fill="#FCFCFC"/>
<path transform="translate(1640,832)" d="m0 0h164l14 1 5 3 2 9 2 37 5 120 8 179 1 17v30l-6 3-15 1h-111l-2-4 1-63h-87l-7 2-5 8-14 30-7 18-6 8-2 1h-136l-6-2 1-6 13-22 9-16 12-23 10-18 10-20 10-18 8-16 14-27 26-48 12-22 10-17 9-15 4-11-8-3-18-4 1-7 8-16 11-19 14-24 9-16 13-19 7-8 3-2z" fill="#FCFCFC"/>
<path transform="translate(1465,834)" d="m0 0h13l11 4 19 10 17 8 13 6 14 6 3 3-1 6-8 16-11 18-12 21-10 19-4 7-9 18-3 4-5-1-34-17-21-7-21-4-8-1h-16l-22 3-24 7-16 8-14 10-4 2v2l-8 7-11 14-7 12-5 15-3 14-1 9v12l3 14 5 12 7 11 11 12 8 7 11 7 10 5 20 5 7 1h26l26-5 21-7 15-7 14-6 8-1-2 9-8 17-9 16-29 58-12 19-5 4-13 4-28 4-14 1h-22l-22-2-27-4-24-6-21-8-16-8-15-9-11-9-11-11-12-16-6-10-8-18-7-25-4-20-1-22 3-24 4-19 10-30 10-22 11-20 12-17 8-10 15-16 9-9 8-7 12-10 18-13 18-10 15-8 20-8 24-8 26-6 28-4 16-1h24l13 4h7z" fill="#FCFCFC"/>
<path transform="translate(423,836)" d="m0 0h17l16 3 15 5 12 6 11 8 8 8 7 11 5 13 2 7v22l-4 13-6 12-10 14-11 14-5 5-3 6h-2v3l7-6 5-5 3-1v2l5-1 7-4 10-7 11-5 9-2h10l20 4 11 4 11 7 10 9 9 14 4 13 1 6v10l-3 16-7 8-10 8-14 8-47 15-28 11-15 9-10 9-7 10-4 9v5h-2l-4 8v2l14-11 7-9 7-8 10-6 17-9 21-8 24-7 23-10 17-6 6-1 6 5 2 12v16l-3 12-5 8-10 10-9 6-6 2-10 2-1 4v3l-5 3-7 3-1 1-16 1h-12l-6 2-11 1-9 2-1 3-10 5h-7l-7 5-23 3-9-1-7 1h-9l-13 1-11-1-2-1-9-1-7-4-13-3-10-4-1-2-4-1v-2l-21-3-2-1v2l-11-1-2-3-8-2-2-3 1-2 4-1-1-2-25-1-12-5-9-8-9-14-3-8-2-9v-23l2-7 6-1 19 5 19 8 38 13 32 16 14 9 11 10 11 9-3-6v-2h-2l-5-6-3-3 1-5-3-1-3-4h-6l-6-2v-2l-5-1-9-3-2-5 4-2-4-3v-2l-9-3-20-8-35-11-18-8-8-5-7-8-4-8-2-8v-16l3-12 7-14 7-9 8-8 13-8 7-3 10-2h25l13 4 12 7 9 7 18 22 7 10 10 16 8 16v2h2l5 14 1 3h2l1 9 1-4-1-15-3-8-5-4-1-6h2l-2-8-12-22-10-14-11-12-4-5-5-5-9-10-10-17-5-16-1-5v-19l4-15 6-11 11-13 10-8 14-8 16-5z" fill="#FBFCFC"/>
<path transform="translate(423,836)" d="m0 0h17l16 3 15 5 12 6 11 8 8 8 7 11 5 13 2 7v22l-4 13-6 12-10 14-11 14-10 10-11 14-10 16-9 24-4 12-2 9-5 17h-3l-1-7v-9l-4-15-5-12-13-25-10-15-9-11-8-8-7-8-8-9-10-17-5-16-1-5v-19l4-15 6-11 11-13 10-8 14-8 16-5z" fill="#FCFCFC"/>
<path transform="translate(396,788)" d="m0 0h52l20 1 29 3 29 5 16 4 29 8 44 15 19 9 10 7 8 8 9 15 7 14 6 17 6 20 6 25 7 39 5 39v48l-4 35-4 23-6 23-12 39-11 26-8 14-11 13-8 6-36 14-29 8-24 5-23 4-30 3-33 2h-68l-32-3-36-6-27-6-26-9-25-12-14-10-9-10-9-14-7-15-7-20-9-30-6-27-5-31-3-30v-51l4-40 5-30 6-25 8-26 4-10 14-24 8-10 7-8 10-7 16-8 16-6 28-8 45-9 32-5zm21 8-26 2-27 4-25 5-38 9-16 5-21 8-17 9-10 8-7 8-13 23-10 26-8 27-6 29-3 20-2 23-1 19v32l3 32 7 38 8 30 9 27 10 23 7 11 5 6 11 8 16 8 33 13 21 6 29 6 27 3 42 3h22l38-1 38-3 32-5 50-11 18-6 12-6 10-9 7-8 11-20 8-19 14-43 6-26 4-21 4-39v-24l-4-34-7-36-8-35-10-31-5-11-6-12-9-13h-2l-2-4-10-7-22-10-45-16-42-11-32-6-26-3-19-1z" fill="#F7FAFB"/>
<path transform="translate(313,958)" d="m0 0h25l13 4 12 7 9 7 18 22 7 10 10 16 10 21 4 16 2 20v49l-4 5-5-1-8-8-6-8-7-8-11-8-13-8-21-10-28-10-23-7-18-8-8-5-7-8-4-8-2-8v-16l3-12 7-14 7-9 8-8 13-8 7-3z" fill="#FBFCFC"/>
<path transform="translate(488,974)" d="m0 0h2v2l7-1-18 21-15 23-8 18-9 27-4 17-1 8v29l1 24-4 5h-11l-1 3-7-1-6-1-2 4 11 2 17 1 2-4 9 1 20 3h5l10-15 4-2 21-2h15l12 2 30 1-1 5v3l-5 3-7 3-1 1-16 1h-12l-6 2-11 1-9 2-1 3-10 5h-7l-7 5-23 3-9-1-7 1h-9l-13 1-11-1-2-1-9-1-7-4-13-3-10-4-1-2-4-1v-2l-21-3-2-1v2l-11-1-2-3-8-2-2-3 1-2 4-1-1-2-25-1-12-5-9-8-9-14-3-8-2-9v-23l2-7 6-1 19 5 19 8 38 13 32 16 14 9 11 10 11 9-3-6v-2h-2l-5-6-3-3 1-5-3-1-3-4h-6l-6-2v-2l-5-1-9-3-2-5 4-2-4-4 6 2 12 7 10 7 10 9 10 13 7 6h3l3-4v-49l-3-26-3-10 1-3 5 14 1 3h2l1 9 1-4-1-15-3-8-5-4-1-6h2l1-4 6 13 4 14 1 4v16h3l2-11 3-8 2-10 8-22 5-13 12-18 12-14v3l-1 2h-2v3l7-6 5-5z" fill="#0B72D1"/>
<path transform="translate(601,1067)" d="m0 0 5 2 3 3 2 12v16l-3 12-5 8-10 10-9 6-6 2-7 1h-33l-12-2h-15l-21 2-4 2-7 11-3 4-14-1-14-3h-6l-2 3h-19l-9-3 1-4 3-1 7 2h4l1-2 11-1 3-4 1-7 2 4v8l6-3 9-14 2-3 1 5h-2l-4 8v2l14-11 7-9 7-8 10-6 17-9 21-8 24-7 23-10 17-6z" fill="#FAFBFC"/>
<path transform="translate(259,1066)" d="m0 0 8 1 18 5 16 7 38 13 32 16 14 9 11 10 7 6 4 6v13l-2 2h-9l-10-3-10-9-10-4-4-1-23 1-20 2h-30l-11-4-9-8-9-14-3-8-2-9v-23l2-7z" fill="#FAFBFC"/>
<path transform="translate(1162,906)" d="m0 0 2 2 1 21 1 2v13l-1 5 2 13 4-1v-2l7-1 4 3-8 14-8 16-7 16-9 27-5 25-2 18 1 22 5 24 2 11h-2l-4-13-5-6-5-1-6 2-1 3h-2v-37l-3-15-5-12-9-10-9-8-15-11-4-5 25-16 13-10 10-9h2l2-4 9-10 9-14 5-10 4-13 1-7z" fill="#0F75D1"/>
<path transform="translate(944,1064)" d="m0 0h35l16 3 8 4 7 8 4 10v7l-4 12-7 8-13 8-8 4-16 4-17 1h-16l-13-2-3-3 1-8 10-30 6-21 3-3z" fill="#0C73D1"/>
<path transform="translate(208,1162)" d="m0 0 2 4 7 19 8 18 7 11 4 5 11 8 16 8 33 13 21 6 29 6 27 3 42 3h22l38-1 38-3 32-5 50-11 18-6 12-6 10-9 6-7v3l-1 3h-2l-1 6-9 6-12 7-20 8-27 8-31 7-3 3 16-2 20-4 29-8 3 1-13 4-24 7-37 7-24 3-46 3h-68l-32-3-36-6-27-6-26-9v-3l-1-3-13-7-18-13-8-7-3-12-3-4v-2l-4-2-3-11-9-25z" fill="#C5E0F0"/>
<path transform="translate(302,1186)" d="m0 0h10l5 2 10 2h11l1-1h8v2h2l4 4 8 2 1 3 3 1 1 7h3l1-8 3-2 11-1 15 1 8-1 7 1h12l7 2 9 6 2 4-4 1-1 12-4 10-6 7-8 4-6-1-3-5-2-6-2 1-4 10-5 4-2-1 3-1v-9l-3-1v-4h-2l-2-6v9l-1 2 4 1 1 4-3 2h-17l-2-1v-3h-2v-8l1-3v-13l-4-4h-3l-3 16-5 6-6 1-3-6v-8l4-5 2-1-13 1-3 8-3 11-5-1-3-7 3-16-1-9-6-3h-6l-5 3-3 8 1 10 1 3 5 2 2 2v3l-3 1h-11l-8-2-4-5-2-8v-10l7-17z" fill="#0A72D1"/>
<path transform="translate(488,974)" d="m0 0h2v2l7-1-18 21-15 23-8 18-9 27-4 17-1 8v29l1 24-4 5h-11l-1 3-7-1-6-1-2 4 11 2 17 1 2-4 9 1 25 4-2 2-5 2v2l-21-1-11-1h-16l-5-3h-7l-6-1-7-1v-1l9-1 1-1v-13l-3-4 1-2 3 2-3-5v-2h-2l-5-6-3-3 1-5-3-1-3-4h-6l-6-2v-2l-5-1-9-3-2-5 4-2-4-4 6 2 12 7 10 7 10 9 10 13 7 6h3l3-4v-49l-3-26-3-10 1-3 5 14 1 3h2l1 9 1-4-1-15-3-8-5-4-1-6h2l1-4 6 13 4 14 1 4v16h3l2-11 3-8 2-10 8-22 5-13 12-18 12-14v3l-1 2h-2v3l7-6 5-5z" fill="#4F99DD"/>
<path transform="translate(981,936)" d="m0 0h25l15 3 10 5 7 8 1 2v6l-5 12-8 10-10 6-15 4-23 3h-19l-2-2 1-11 5-24 3-10 5-8 5-3z" fill="#0D74D1"/>
<path transform="translate(549,1190)" d="m0 0 8 1 5 5 5 8 1 6h2l2 5v11l-5 7-11 1h-9l-1-3h-2v2l-12 6-8 1v2l-7 3h-9l-1-3-4 1-10 5-4 1h-8l-3-3-4-7-1-5v-16l3-17 6-3h7l4 7 1 4v18h2l1-12 2-7h3v11l-1 11 2 6 3-7 3-20 3-9 3-2h10l5 3 5 14 3 3 4 2 4 6v2l7 2-5-13-1-8v-18z" fill="#4B96DB"/>
<path transform="translate(1704,962)" d="m0 0 3 1 1 5v102l-3 1h-31l-21-1 1-5 17-34 13-29 17-35z" fill="#0E74D1"/>
<path transform="translate(608,1015)" d="m0 0 2 4 1 8 1 1v9l-1 8 2 19 1 7h-3v13h-1l-2-12-5-4-13 3-36 15-21 6-16 6-17 8-14 8-8 9-6 8-13 11h-2l-1-3 5-7h2l-1-5 7-14 11-12 14-9 12-6 30-11 38-12 11-6 9-7 9-8 3-11z" fill="#1477D2"/>
<path transform="translate(1575,909)" d="m0 0v3l-11 20-4 12 10 1 15 4 2 3-5 12-17 28-12 23-13 23-12 23-10 19-13 24-8 16-14 27-14 26-1-4v-5h-3l1-6 6-10 4-8 4-5 2 1 2-13 3-8h2l1-4 5-7 3-2h3l2-5 13-26 3-12 2-1 2-7 2-2 2-6 3-3 6-11 5-5 3-7 2-3 1-7 4-8h2l2-8h2l1-10-3-2v-14l-6-10 1-8 3-5 5-1 1-2 1-9 1-5 1-6 4-8 5-1z" fill="#0F74D1"/>
<path transform="translate(383,1197)" d="m0 0 16 1 8-1 7 1h12l7 2 9 6 2 4-4 1-1 12-4 10-6 7-8 4-6-1-3-5-2-6-2 1-4 10-5 4-2-1 3-1v-9l-3-1v-4h-2l-2-7v-4h-2l-3-9-7-4-5-2v-2h-6v-3l3-2z" fill="#0A72D1"/>
<path transform="translate(197,939)" d="m0 0h1v9l-1 1v13l1 10v9l-1 14v11l-1 3v38 2l1 9v16l2 15 1 9 2 8 10 37 3 10 3 11 3 7 6 15 2 6 2 11h-2l3 11-3-3-8-14-8-19-11-35-6-25-6-33-3-32v-32l2-31 3-25z" fill="#1679D3"/>
<path transform="translate(319,1197)" d="m0 0 9 1 4 3 1 9-3 16 3 7 4 1 4-18 4-2 12-1-6 7v8l2 5 6-1 4-5 3-16 4-1 5 5v13l-2 11h2v3h19l2-1-1-4-3-1v-16l2 4 1 7h2l1 4 2 1 1 4-1 5-4 3h-18l-4 1-14-1-3-1-2-2-20-4-4-1h-7l-1-2h-10l-13-4-5-5 1-4 4 3 9 1h11l-2-4-5-3-2-3-1-10 3-8z" fill="#0C73D1"/>
<path transform="translate(260,1038)" d="m0 0 3 4 6 9 6 5 17 8 45 15 15 6 9 4 5 6-5 1 3 5 8 2 12 5h5l4 5 2 1v7l3 1 4 4v2h2l4 7-1 2-15-13-11-9-21-12-21-10-41-14-16-7-19-5h-6v-6l5-8-2-9z" fill="#1377D2"/>
<path transform="translate(1470,1108)" d="m0 0h7l1 10-2 3-2 9-2 2-5 10h-2l-2 5h-2l-2 8h-2l-3 11-1 2h-2l1 4-3 2-3 12h-2l-1 6-5 9-3 3-7 14-2 7-5 5-9 10-14 3h-27v-1l24-4 10-4 5-5 8-13 12-23 17-34 7-12 11-23 4-11-13 4-6 3-3-1h2l1-3 9-3 7-3z" fill="#1176D2"/>
<path transform="translate(354,952)" d="m0 0 5 1 5 5 3 1 2-2 7 8 9 10 8 8 11 15 9 16 6 11 1 8-2-1 2 6 5 5 2 6 1 18-2 2-1-1v-9h-2l-3-5-3-12h-2l-11-22-10-15-10-13-9-11-3-3v-2l-4-2-8-6-14-7v-1l10-1v-2l-3-1z" fill="#1377D2"/>
<path transform="translate(527,1078)" d="m0 0 3 1-6 2v4l3 1v5l3 2-20 8-24 13-8 9-6 8-13 11h-2l-1-3 5-7h2l-1-5 7-14 11-12 14-9 12-6z" fill="#4E98DC"/>
<path transform="translate(516,899)" d="m0 0h1l1 7 1 22-1 14 6 4 3 10h18l1 2h-14l-12 3-13 7-9 7-6 2-2-1v-2l-5 4h-2l-1 3-7 6-1-2 1-2h2l2-6 10-11 10-13 11-18 4-11 1-5z" fill="#1176D2"/>
<path transform="translate(338,1199)" d="m0 0h12l12 2 2 1-1 6-1 2 3 1 1 5-2 11-5 6-6 1-3-6v-8l4-5 2-1-13 1-3 8-3 11-5-1-3-7 3-16 5-10z" fill="#F5F9FB"/>
<path transform="translate(515,1200)" d="m0 0h9l5 3 4 10-1 5h-3l-1 5 11-3 4 4v6l-6 2h-2v2l-13 4h-7l3-5 5-5v-7l-3-3-3-1v6l-5 11-2 3-4-1 1-13 3-17 3-5z" fill="#C6E0F0"/>
<path transform="translate(1320,1121)" d="m0 0 10 2 11 4 9 2 4 2 12 1 1 1h14l9-2 16-1 16-5 13-3h7l-4 3-14 6-17 5-22 4h-26l-20-4-12-4-7-4 1-2z" fill="#1477D2"/>
<path transform="translate(484,1202)" d="m0 0 5 1 3 4 1 3 1 24 1 6-6 4-8 1-5-3-2-3-1-5v-16l2-11 4-4z" fill="#F9FBFC"/>
<path transform="translate(300,1190)" d="m0 0h7l11 3v4l-5 6-2 6 1 10 1 3 5 2 2 2v3l-3 1h-11l-8-2-4-5-2-8v-10l6-14z" fill="#F9FBFC"/>
<path transform="translate(1548,888)" d="m0 0h1l2 8-7 14-9 16-8 14-10 17-5 12-4 9h-2l-1 3h-4l-1-2-1 2-4-1 5-5 6-13 5-10 9-16 13-24 6-9z" fill="#1276D2"/>
<path transform="translate(543,1187)" d="m0 0h9l5 2-1 2h-9l2 26 5 12-1 2-7-3-5-8-5-3-2-2-5-14-4-2h-10l-3 2-1 5h-1l-1-5-3-2 1-6 8-1 16 2 4-4z" fill="#0462B0"/>
<path transform="translate(549,1190)" d="m0 0 8 1 5 5 5 8 2 6v14l-4 5-5 2-5-2-5-6-2-6-1-8v-18z" fill="#F7FAFB"/>
<path transform="translate(422,1207)" d="m0 0 11 1 5 4v12l-3 9-6 7-8 4-6-1-3-5 1-14h2l1 3 4-13z" fill="#C5E0F0"/>
<path transform="translate(370,1205)" d="m0 0 5 1 5 4 8 3 3 4 2 8v9l-1 2 4 1 1 4-3 2h-17l-2-1-1-8 1-5v-15l-4-4z" fill="#C6E0F0"/>
<path transform="translate(396,788)" d="m0 0h52l20 1 29 3 29 5 16 4 29 8 35 12v1h-6v-2l-12-2v-2l-7-1-6-1v-2l-7-1-5-1v-2h-9l-24-4-5-2-15-3-3-2-20-4-21-1-22-2h-38l-30 3-34 5-15 3h-6v-1l26-5 32-5z" fill="#C5E0F0"/>
<path transform="translate(670,921)" d="m0 0 2 4 6 22 7 36 2 11 3 25v48l-3 16-3 20-8 40-3 6-4 13-6 16-4 8-1-2 12-36 6-19 7-34 4-33 1-12v-24l-4-34-7-36-7-30z" fill="#C5E0F0"/>
<path transform="translate(1124,1126)" d="m0 0h1l-1 11h-2l2 8-5 12-3 6-1 3h-2l-2 4-5 7h-2l-2 4-5 6-4 3h-2l-1 3h-4l-1 3h-2l-1-1-10 6-2-1 12-9 10-9 9-11 10-15 8-16z" fill="#1276D2"/>
<path transform="translate(482,1198)" d="m0 0h7l4 7 1 4v18h2l1-12 2-7h3v11l-1 11 2 6 2-6h1l1 11h17l-3 2-4 2h-9l-1-3-4 1-10 5-4 1h-8l-3-3v-2h7l8-3 1-5-1-2-1-24-3-6-5-1-8 2-1 2 1-6z" fill="#0C73D1"/>
<path transform="translate(822,950)" d="m0 0 19 1 3 1v8l-8 26-2-4-3-4-8-18z" fill="#1075D1"/>
<path transform="translate(414,794)" d="m0 0h25l21 1 22 3 24 4 27 7-4 1-27-6-32-5-30-2h-23l-26 2-27 4-25 5-38 9-16 5-3-1 5-3 11-3 20-5 14-3 21-5 31-5z" fill="#C5E0F0"/>
<path transform="translate(319,1197)" d="m0 0 9 1 4 3 1 9-3 11h-5l-9-3-6-4 1-9 3-5z" fill="#0563AF"/>
<path transform="translate(1124,1043)" d="m0 0 10 2 3 4-1 11-2 15-5 3-4-3-4-13-2-8 1-4h2l1-6z" fill="#0462AF"/>
<path transform="translate(338,1199)" d="m0 0h12l12 2 2 1-1 6-1 2 3 1 1 5-2 11-5 6-6 1-3-6v-8l4-5 2-1h-7l4-3 7-2 2-5h-10l-9-1-7 1-1 3-1-2z" fill="#F3F7FA"/>
<path transform="translate(461,1127)" d="m0 0 2 3v2h-2l-4 8v2l6-5 2 1-12 12 10 2 8 2v1h-9l-14-3h-6l-2 3h-19l-9-3 1-4 3-1 7 2h4l1-2 11-1 3-4 1-7 2 4v8l6-3 9-14z" fill="#C5E0F0"/>
<path transform="translate(1290,1006)" d="m0 0 1 3-1 4 1 4-3 10-2 10-3 13v11l1 8-3 1-1 4-2 2-2-11v-12l3-19 5-16z" fill="#1578D3"/>
<path transform="translate(1466,1174)" d="m0 0 2 1-14 26-8 13-1-4-4-1v2l-4 1 1-5 5-10 7-10 5-8h2l1-2h3l1-2z" fill="#0E74D1"/>
<path transform="translate(638,1220)" d="m0 0v3l-10 10-7 4-13 6-21 6-53 11-30 4-29 2-38 1h-22l-12-1v-1l68-1 40-3 27-4 57-13 12-4 17-7 10-9z" fill="#4996DC"/>
<path transform="translate(352,1213)" d="m0 0h5l-6 7v8l2 5 4 2-5 1v3l-3 1h-7l-9-3-4-5-1-3 2-3 3 7 4 1 4-18 4-2z" fill="#4F99DD"/>
<path transform="translate(417,796)" d="m0 0h23l30 2 32 5 10 2v1h-7l-23-4-24-3h-48l-31 3-32 6-28 6-31 8-3-1 16-5 51-12 30-5 18-2z" fill="#4F99DD"/>
<path transform="translate(423,1210)" d="m0 0 4 1 2 3v13l6-5h2v7l-3 5-9 7h-3v-2l-3-1 1-19z" fill="#FBFCFC"/>
<path transform="translate(668,918)" d="m0 0 2 3 8 35 7 36 4 34v24l-4 39h-1v-21l1-12h2l-1-31-2-23-5-27-5-26-6-27z" fill="#4F99DD"/>
<path transform="translate(678,906)" d="m0 0 2 2 10 43 5 28 3 20 2 22v29l-2 29-2 12h-1l1-15 1-11v-48l-6-45-7-38-6-24z" fill="#4F99DD"/>
<path transform="translate(611,1087)" d="m0 0h1l3 18-1 9-5 10-6 5-5 5-3 2h-3v-3l-4 2-1-2 9-7 8-8 4-9 2-9z" fill="#1477D2"/>
<path transform="translate(673,894)" d="m0 0 2 3 6 21 5 21 7 39 5 39v48l-2 19h-1v-11l1-17v-29l-6-52-7-39-8-32-2-6z" fill="#C5E0F0"/>
<path transform="translate(337,1195)" d="m0 0h7l18 4 3 2 1 7h3v-5h7l1 2 8 3 5 5-1 2-2-2-8-3-5-4-4-1 3 6 3 3v15l-2 10h-1v-8l1-3v-13l-4-4h-3l-2 2-3-3 2-8-11-1-3-1h-12l-4 7h-1l1-10z" fill="#4F99DD"/>
<path transform="translate(367,1210)" d="m0 0 4 1 4 4v13l-13 8-4-1 3-5 3-7 2-12z" fill="#0664B2"/>
<path transform="translate(421,1204)" d="m0 0h7l7 3 4 4v12h-1l-1-11-4-3-11-1-4 17-3 3v-4h-2v7l-2 4-1-17 4-8z" fill="#519ADD"/>
<path transform="translate(482,1198)" d="m0 0h7l4 7 1 4 1 18 2 5 2 1 2 4v4l-10 4-10 1 4-2 8-3 1-5-1-2-1-24-3-6-5-1-8 2-1 2 1-6z" fill="#4F99DD"/>
<path transform="translate(1575,909)" d="m0 0v3l-11 20-4 12h-1l1-14 1-5 1-6 4-8 5-1z" fill="#1578D3"/>
<path transform="translate(352,1213)" d="m0 0h5l-6 7-1 9-1 2-9-3v-9l3-5z" fill="#0C73D1"/>
<path transform="translate(419,1220)" d="m0 0h1v18l2 1v2l7-4 4-3-2 4-7 5-7 1-4-3-1-3 1-14h2l1 3z" fill="#C8E1F0"/>
<path transform="translate(409,1220)" d="m0 0 2 4v8l-3 1-4 10-5 4-2-1 3-1v-9l-3-1v-4h-2l-1-5 6 5h2l2-4z" fill="#0D74D1"/>
<path transform="translate(404,1215)" d="m0 0h6l-3 10-5 6-3 1-5-6-1-6 2-1h5z" fill="#0260AD"/>
<path transform="translate(511,1136)" d="m0 0h15l12 2 2 1v2l-7 1-6-1h-11l-10-1h-8l1-3z" fill="#116CB9"/>
<path transform="translate(338,1199)" d="m0 0h12l12 2 2 1-1 6-1 2 3 1v2h-5l-4 2-4-1-3-1 11-4 2-5h-10l-9-1-7 1-1 3-1-2z" fill="#C5E0F0"/>
<path transform="translate(514,1192)" d="m0 0 15 2 2 2-2 4-4-1h-10l-3 2-1 5h-1l-1-5-3-2 1-6z" fill="#0B72D0"/>
<path transform="translate(421,1070)" d="m0 0h1l1 11v49l-4 5-5-1-8-8 1-2 6 5 3 1 3-6 2-16z" fill="#C5E0F0"/>
<path transform="translate(566,1204)" d="m0 0 2 2 1 4v14l-4 5-5 2-5-2-1-2 8-1 1-5h-2v-3h-2l1-4h6z" fill="#C5E0F0"/>
<path transform="translate(410,798)" d="m0 0h48l24 3v1h-13l-19-1-3-1h-31l-15 1h-14v-1z" fill="#0A72D1"/>
<path transform="translate(543,1187)" d="m0 0h9l5 2-1 2h-9v12h-1v-5l-6-2-1-1h-8l4-5z" fill="#0C73D1"/>
<path transform="translate(392,1220)" d="m0 0 2 4 1 7h2l1 4 2 1 1 4-1 5-2 1h-12l-10-2-1-2h19l2-1-1-4-3-1z" fill="#4F99DD"/>
<path transform="translate(687,1026)" d="m0 0h2v24l-4 39h-1v-21l1-12h2z" fill="#4090DA"/>
<path transform="translate(1465,1113)" d="m0 0h4l-2 9-3 4 1-7-13 2-15 6-7 3-3-1 20-9 14-6z" fill="#C5E0F0"/>
<path transform="translate(544,1231)" d="m0 0h2l1 2h9l6-1-1 3-3 2-17 2-15 3-2-2 13-4 5-3h2z" fill="#0971D0"/>
<path transform="translate(515,1198)" d="m0 0h10l5 3 5 14 3 3 4 2 2 5-5-4-11 2 1-5h3l-1-9-4-7-3-1h-9l-4 2 2-4z" fill="#4F99DD"/>
<path transform="translate(435,1231)" d="m0 0 1 3-1 4 2 3-1 5h-19l-2-1v-2l9-1 8-6z" fill="#1B7BD3"/>
<path transform="translate(309,1210)" d="m0 0 2 4 2 8 5 2 2 2v3l-3 1h-11l-8-2-3-3 1-2 3 3 16 1v-3l-7-1-1-5 1-1z" fill="#C5E0F0"/>
<path transform="translate(442,1039)" d="m0 0 1 3-2 6-2 9-5 17h-3l-1-7 1-9h1l1 5 2-2 4-14z" fill="#C5E0F0"/>
<path transform="translate(638,1220)" d="m0 0v3l-10 10-7 4-13 6-9 3-4-1 7-3 22-9 10-9z" fill="#4F99DD"/>
<path transform="translate(1586,884)" d="m0 0h5l-6 11-8 14-1-4 1-1 1-7 6-8z" fill="#187AD3"/>
<path transform="translate(1471,1109)" d="m0 0h2l-1 5-4 8-1-3 2-6-13 4-6 3-3-1h2l1-3 9-3z" fill="#4593DB"/>
<path transform="translate(315,1222)" d="m0 0 7 1 3 4-1 4-7 1-14-1-3-2h20l-2-4z" fill="#4F99DD"/>
<path transform="translate(300,1190)" d="m0 0h7l11 3v4l-4 3-2-4-10-3h-4v-2z" fill="#C5E0F0"/>
<path transform="translate(482,1198)" d="m0 0h7l4 7v2h-2l-4-4-8 1-3 1-1 2 1-6z" fill="#0F74D1"/>
<path transform="translate(1433,835)" d="m0 0h17l9 2-3 2-3 1h-7l-13-4z" fill="#227FD5"/>
<path transform="translate(301,1188)" d="m0 0h9l10 3 2 3-5 6-2-1 3-3v-2l-11-3h-9z" fill="#4F99DD"/>
<path transform="translate(368,1139)" d="m0 0 6 1 9 7 2 4-4-1v-2l-5-1-8-5z" fill="#126CB7"/>
<path transform="translate(379,801)" d="m0 0h8l-4 2h-5v2l-19 2h-8l4-2 15-2z" fill="#0A72D1"/>
<path transform="translate(419,1027)" d="m0 0 3 4 5 12-1 3-4-6-4-3-1-6h2z" fill="#4D98DC"/>
<path transform="translate(569,1210)" d="m0 0 2 4 1 1v11l-5 7-3-2 4-5z" fill="#2480D5"/>
<path transform="translate(679,906)" d="m0 0 2 1 4 10 1 3 1 18h-1l-7-30z" fill="#0A72D1"/>
<path transform="translate(484,1202)" d="m0 0 5 1 3 4-1 3-2-3-6 1-7-1v-2l3-2z" fill="#C5E0F0"/>
<path transform="translate(492,1210)" d="m0 0h1l1 24 1 6-6 4-4-1 7-3z" fill="#C5E0F0"/>
<path transform="translate(519,1206)" d="m0 0h3l2 6-1 5-4-1-1-2v-6z" fill="#FDFDFD"/>
<path transform="translate(352,1213)" d="m0 0h5l-6 7-1 7h-1v-11l-8 2 2-4z" fill="#4A96DC"/>
<path transform="translate(490,1138)" d="m0 0h8v1l-8 2v3l-6 4-3 1 2-4 4-6z" fill="#4F99DD"/>
<path transform="translate(322,1204)" d="m0 0 4 1-1 4-4 2v2h-3l-1-3z" fill="#0A72D1"/>
<path transform="translate(333,1139)" d="m0 0h14l-5 5-8-1z" fill="#0260AD"/>
<path transform="translate(343,1216)" d="m0 0 4 1-1 5-3 1v2h-2v-7z" fill="#0260AE"/>
<path transform="translate(243,841)" d="m0 0 2 1-12 12-2-1 9-10z" fill="#217BC9"/>
<path transform="translate(482,1200)" d="m0 0 7 1v3l-5-1-8 2-1 2 1-4z" fill="#4F99DD"/>
<path transform="translate(545,1189)" d="m0 0h7l-3 2h-2v12h-1z" fill="#4F99DD"/>
</svg>
