<?xml version="1.0" encoding="UTF-8"?>
<svg version="1.1" viewBox="0 0 1024 1024" width="1024" height="1024" xmlns="http://www.w3.org/2000/svg">
<path transform="translate(0)" d="m0 0h1024v1024h-1024z" fill="#FBFBFB"/>
<path transform="translate(627,230)" d="m0 0h29l29 3 27 6 36 12 25 12 20 12 14 10 12 9v2l4 2 12 11 11 11 7 8 13 16 11 17 9 16 9 19 8 21 6 21 4 20 3 24h-3l-8-10-11-12-9-11-10-11-9-11-9-20-9-18-10 3-19 6-22 6-20 4 5 23 2 13v6l-9 11-12 14-9 11-12 14-10 12-9 11-2 1-60-1v21l-1 1-15 3-10 5-7 8-4 10-1 8h-1v-56h-92l2 21 4 30 4 21 41-3 38-1 1 2-1 34-8 1-45 2-17 1 7 20 12 26 12 20 10 13 11 13 10 7 12 6 1 38-3-1-7-8-16-16-10-6-11-3h-15l-11 3-11 7-6 8-2 4-9-3-16-8-16-9-20-14-3-2v-2l-6-3v-2l-4-2-10-9-13-13-9-11-10-13-12-18-10-18-9-19-9-24-8-32-2-11-2-22v-41l3-26 6-28 9-27 12-27 10-18 8-12 12-16 13-15 17-17 11-9 10-8 15-10 17-10 25-12 18-7 22-6 25-5 14-2z" fill="#0060C6"/>
<path transform="translate(93,86)" d="m0 0h514l11 4 10 9 5 8 3 11v84l-29 2-21 3-24 5-29 9-24 10-23 12-19 12-11 8-10 8-14 12-6 6h-332l-11-4-8-6-6-9-3-9v-147l4-11 7-9 10-6z" fill="#FE9A00"/>
<path transform="translate(94,548)" d="m0 0h244l2 8 6 28 6 20 10 26 8 16 11 21 13 19 13 17 11 12 7 8 16 15 13 10 1 2h-359l-8-2-9-5-7-7-5-10-1-4v-146l4-11 6-8 9-6z" fill="#FE9A00"/>
<path transform="translate(94,318)" d="m0 0h305l-2 4-12 17-9 15-11 21-8 20-10 30-6 26-3 20-1 11-1 28-1 9h-241l-11-4-8-6-6-9-3-9v-146l5-12 3-4h2v-2l9-6z" fill="#FE9A00"/>
<path transform="translate(830,436)" d="m0 0h10l10 6 11 14 13 15 11 13 6 7v2h2l3 4v2h2l9 11 10 11 9 11 7 7 9 11 11 12 4 8 1 3v9l-3 7-5 5-5 3h-11l-8-4-11-12-9-11-13-15-12-14-9-11-13-15-3-4-1 272-4 7-5 4-5 2h-9l-7-4-5-6-2-5-1-271-7 7-7 8-9 10-1 2h-2l-2 4-9 11-11 12-9 11-9 10-7 8-5 3h-14l-6-4-5-8v-12l6-10 8-10h2l2-5h2l2-4 11-13 8-10 11-13 14-17 1-2h2l2-4 9-11 24-28 5-5 4-3z" fill="#F00128"/>
<path transform="translate(664,574)" d="m0 0h7l8 4 5 6 1 3 1 40v215l11-13 8-10 11-13 14-17 11-13 9-11 9-6 3-1h9l9 5 4 6 1 3v10l-4 8-9 11-11 13-9 11-12 14-11 13-12 14-9 11-12 14-11 14-8 8-4 2h-12l-6-3-9-9-5-6v-2h-2l-7-9-13-15-24-28-9-11-11-13-10-13-10-11-4-6-1-3v-11l4-7 8-5h11l8 4 9 10 9 11 13 15 9 10 9 11 9 9 7 8 1 1v-183l1-68 3-8 4-5 5-3z" fill="#F00028"/>
<path transform="translate(431,391)" d="m0 0 8 1 36 9 29 5-1 10-4 25-2 18-2 27h-92v-8l3-18 6-24 9-24z" fill="#FBFBFB"/>
<path transform="translate(402,523)" d="m0 0h93l4 46 4 26 1 6-37 7-36 9h-3l-10-23-6-18-7-28-3-24z" fill="#FBFBFB"/>
<path transform="translate(539,411)" d="m0 0 39 2 44 2v71h-92v-18l2-21z" fill="#FBFBFB"/>
<path transform="translate(734,411)" d="m0 0h6l6 26 3 18 1 11v20h-91v-70l62-4z" fill="#FBFBFB"/>
<path transform="translate(621,275)" d="m0 0h2l-1 103h-59l-14-1 6-17 7-16 13-22 10-14 9-11 13-13z" fill="#FBFBFB"/>
<path transform="translate(658,275)" d="m0 0 9 5 13 11 7 8 8 9 13 19 10 17 10 23 3 9-32 2h-41z" fill="#FBFBFB"/>
<path transform="translate(511,635)" d="m0 0 2 1 10 30 9 21 8 16 7 13 9 13-2 1-20-8-19-10-13-9-9-7-13-11-20-20-12-15v-2l26-7 23-4z" fill="#FBFBFB"/>
<path transform="translate(562,280)" d="m0 0v3l-8 10-11 17-10 18-11 24-8 21-25-4-21-5-16-4 2-4 11-12 20-20 17-13 15-10 10-6 24-11z" fill="#FBFBFB"/>
<path transform="translate(716,280)" d="m0 0 10 3 14 6 19 10 11 7 13 9 10 8 10 9 7 6 7 8 9 10v2l-36 10-14 3-10 1-9-24-12-25-12-20-14-19z" fill="#FBFBFB"/>
<path transform="translate(772,596)" d="m0 0h2l-4 23-6 23-9 25-9 20-11 20-11 16-9 12h-2l-3-31 1-21 10-19 9-21 5-15 2-7 15-6 10-7 8-8z" fill="#0060C6"/>
<path transform="translate(241,165)" d="m0 0h12l8 4 5 6 3 8v8l-3 8-2 3h-2v2l-9 5h-11l-8-4-6-7-2-5v-13l4-8 8-6z" fill="#242325"/>
<path transform="translate(241,396)" d="m0 0h13l9 6 4 5 2 6v9l-3 8-4 5-10 5h-9l-9-4-6-7-2-5v-13l5-8 6-5z" fill="#242325"/>
<path transform="translate(244,626)" d="m0 0 11 1 8 5 5 8 1 3v10l-5 10-9 6-3 1h-10l-8-4-6-7-2-4v-14l5-8 5-4z" fill="#242325"/>
<path transform="translate(150,396)" d="m0 0h10l10 5 5 7 2 6v8l-3 9-8 7-5 2h-11l-6-3-5-5-3-5-2-7 1-10 5-8 5-4z" fill="#242325"/>
<path transform="translate(156,165)" d="m0 0 9 2 8 7 3 5 1 4v8l-3 9-9 8-7 2-9-1-8-5-4-5-3-8 1-11 5-8 6-5z" fill="#242325"/>
<path transform="translate(148,627)" d="m0 0h14l8 5 5 6 2 7v8l-3 8-8 7-4 2h-13l-8-5-4-5-3-9 1-11 4-7 6-5z" fill="#242325"/>
</svg>
