<?xml version="1.0" encoding="UTF-8" standalone="no"?>
<!DOCTYPE svg PUBLIC "-//W3C//DTD SVG 1.1//EN" "http://www.w3.org/Graphics/SVG/1.1/DTD/svg11.dtd">
<svg xmlns="http://www.w3.org/2000/svg" version="1.1" viewBox="0 0 1024 1024" width="1024.0pt" height="1024.0pt">
<path d="M 0.00 0.00 L 1024.00 0.00 L 1024.00 1024.00 L 0.00 1024.00 L 0.00 0.00 Z" fill="#ffffff" />
<path d="M 225.00 160.61 C 416.00 160.60 607.00 160.64 798.00 160.59 C 823.07 159.58 848.89 174.94 858.73 198.27 C 862.03 206.30 864.45 215.26 864.02 224.00 C 863.98 342.00 864.05 460.03 864.00 578.03 C 863.97 584.02 860.52 589.41 855.44 592.45 C 847.89 596.90 837.85 595.76 832.02 589.02 C 827.26 583.94 826.79 577.63 826.98 571.00 C 827.02 455.53 826.98 340.04 827.00 224.57 C 780.78 270.82 734.26 316.78 687.99 362.99 C 634.10 416.53 579.99 470.54 526.22 524.23 C 520.90 529.22 512.99 531.21 506.00 528.94 C 499.20 527.26 495.50 521.92 490.66 517.34 C 433.33 460.01 376.17 402.49 318.81 345.19 C 278.43 304.18 237.40 263.77 197.01 222.77 C 197.02 352.52 197.00 482.26 197.02 612.00 C 197.18 622.05 201.01 632.60 208.62 639.39 C 214.36 644.63 222.17 648.05 230.00 647.99 C 319.33 647.98 408.67 648.00 498.00 647.98 C 503.07 648.07 507.47 647.28 512.15 649.79 C 520.12 653.49 524.24 663.47 520.80 671.63 C 517.83 679.30 510.16 684.10 502.00 683.97 C 407.73 684.05 313.29 683.97 219.00 684.01 C 209.14 683.50 199.21 679.29 191.01 673.93 C 175.59 663.63 164.41 647.27 161.43 628.87 C 160.97 624.92 160.38 620.97 160.06 617.01 C 160.08 487.01 160.08 357.00 160.07 227.00 C 160.08 208.70 167.82 190.64 181.13 178.07 C 192.75 166.96 208.87 160.31 225.00 160.61 Z" fill="#134ea4" />
<path d="M 223.57 197.15 C 225.38 197.08 227.19 197.04 229.00 197.04 C 340.67 197.04 452.33 197.04 564.00 197.04 C 643.56 197.09 723.16 196.94 802.71 197.11 C 798.52 201.45 794.20 205.66 789.93 209.93 C 775.69 223.68 761.79 237.79 747.74 251.74 C 706.39 293.05 665.01 334.34 623.67 375.67 C 603.96 395.64 583.75 415.08 563.78 434.78 C 546.41 452.27 528.79 469.52 511.45 487.04 C 507.18 482.48 502.66 478.17 498.28 473.72 C 408.27 383.47 318.37 292.91 228.35 202.66 C 226.56 200.95 224.77 199.36 223.57 197.15 Z" fill="#ffffff" />
<path d="M 701.98 479.11 C 707.25 480.38 712.29 483.36 714.71 488.42 C 716.72 491.87 715.87 495.17 716.02 499.00 C 716.00 572.00 716.03 645.00 716.01 718.00 C 716.01 720.89 716.74 723.54 717.25 726.35 C 732.43 707.20 747.98 688.32 763.23 669.21 C 772.05 658.35 780.76 647.42 789.65 636.61 C 793.30 632.37 798.55 630.38 804.04 630.07 C 808.44 630.31 812.49 632.38 815.74 635.26 C 822.43 641.54 823.00 653.29 817.37 660.41 C 782.78 704.17 748.09 747.74 713.36 791.38 C 710.92 794.26 708.01 797.20 704.34 798.39 C 696.16 801.38 687.12 797.65 681.96 791.00 C 648.45 748.48 615.03 705.88 581.82 663.13 C 579.48 659.98 577.05 657.07 576.66 653.01 C 575.50 646.78 576.77 640.02 582.25 636.21 C 589.90 630.58 601.40 632.24 607.39 639.54 C 612.58 646.34 618.10 652.87 623.39 659.60 C 642.63 683.18 661.64 706.93 680.98 730.42 C 680.19 716.61 681.18 702.78 679.98 689.01 C 680.00 626.00 679.98 563.00 679.99 500.00 C 680.03 496.99 679.80 493.93 680.13 490.94 C 681.26 486.50 684.60 482.69 688.61 480.58 C 692.59 478.40 697.56 478.86 701.98 479.11 Z" fill="#134ea4" />
</svg>