<?xml version="1.0" encoding="UTF-8" standalone="no"?>
<!DOCTYPE svg PUBLIC "-//W3C//DTD SVG 1.1//EN" "http://www.w3.org/Graphics/SVG/1.1/DTD/svg11.dtd">
<svg xmlns="http://www.w3.org/2000/svg" version="1.1" viewBox="0 0 1024 1024" width="1024.0pt" height="1024.0pt">
<path d="M 0.00 0.00 L 1024.00 0.00 L 1024.00 1024.00 L 0.00 1024.00 L 0.00 0.00 Z" fill="#ffffff" />
<path d="M 790.00 201.93 C 795.65 201.82 801.41 203.35 805.05 207.93 C 808.74 212.50 808.64 219.78 807.51 225.22 C 803.10 240.39 797.19 255.18 792.23 270.20 C 786.19 286.90 780.31 303.66 774.46 320.44 C 747.88 395.52 721.44 470.96 694.90 545.90 C 679.66 588.79 664.77 631.71 649.59 674.60 C 647.42 680.63 645.60 686.97 642.63 692.66 C 637.82 701.79 624.40 703.70 616.65 697.30 C 599.53 682.79 582.73 667.90 565.68 653.32 C 561.36 649.59 556.95 646.01 552.94 641.92 C 523.80 665.13 494.26 687.93 465.08 711.12 C 460.80 714.36 456.56 718.21 451.03 718.98 C 444.46 720.14 437.04 716.99 434.27 710.69 C 432.58 707.46 433.18 704.43 432.88 700.94 C 429.91 670.53 428.33 639.58 425.47 608.77 C 424.73 604.35 425.29 599.93 424.48 595.53 C 423.66 591.36 424.30 587.18 423.52 583.01 C 422.47 573.36 422.00 563.75 421.07 554.09 C 421.09 549.26 420.75 544.93 419.87 540.19 C 418.33 538.99 416.76 537.85 415.08 536.86 C 397.12 526.05 378.78 515.87 360.64 505.36 C 312.97 477.99 264.31 451.44 216.43 424.55 C 211.65 421.96 207.84 418.16 206.29 412.85 C 205.47 408.49 205.67 404.08 208.39 400.39 C 211.05 396.16 215.22 394.13 219.90 392.83 C 236.93 387.96 253.52 381.82 270.36 376.39 C 334.29 355.08 398.12 333.37 462.05 312.05 C 516.88 293.54 571.73 275.04 626.57 256.54 C 665.55 243.15 704.68 229.97 743.72 216.67 C 753.42 213.31 763.46 210.55 773.05 207.04 C 778.50 205.04 784.06 201.66 790.00 201.93 Z" fill="#1554b8" />
<path d="M 717.32 261.09 C 713.99 264.56 710.02 267.28 706.58 270.66 C 677.28 296.33 648.56 321.83 619.35 347.36 C 583.37 379.56 547.24 410.94 511.00 443.00 C 485.52 465.31 460.18 487.62 434.60 509.86 C 428.37 505.88 421.91 502.25 415.59 498.42 C 375.81 475.44 335.68 453.10 295.86 430.16 C 286.13 424.49 276.16 419.19 266.55 413.32 C 270.41 411.72 274.41 410.63 278.36 409.30 C 334.42 390.45 390.54 371.48 446.57 352.54 C 480.74 340.97 515.06 329.88 549.15 318.06 C 596.94 302.00 644.74 285.75 692.43 269.42 C 700.75 266.73 709.13 264.16 717.32 261.09 Z" fill="#ffffff" />
<path d="M 756.19 271.60 C 735.38 331.04 714.45 390.26 693.69 449.68 C 680.98 485.88 668.39 522.18 655.19 558.21 C 643.90 590.97 632.29 623.64 620.65 656.28 C 582.38 624.12 544.26 591.23 506.03 558.96 C 501.20 555.27 494.90 553.65 489.09 555.94 C 485.11 557.33 482.60 561.23 480.94 564.89 C 474.63 580.95 468.32 596.99 462.02 613.05 C 461.22 615.18 460.35 617.27 459.22 619.24 C 458.92 614.89 459.09 610.56 458.44 606.22 C 457.73 601.73 458.19 597.22 457.37 592.74 C 456.46 583.15 456.17 573.54 455.11 563.98 C 455.27 557.90 453.96 552.03 453.97 545.96 C 453.91 542.83 452.58 540.25 454.36 537.38 C 457.62 533.18 462.49 529.99 466.30 526.29 C 511.12 486.89 556.18 447.34 600.94 407.91 C 648.21 366.65 694.79 325.26 741.90 283.89 C 746.78 279.93 751.18 275.39 756.19 271.60 Z" fill="#ffffff" />
<path d="M 503.59 600.08 C 510.83 606.79 518.56 612.98 525.92 619.55 C 526.31 620.85 524.81 621.29 524.07 622.13 C 508.93 634.25 493.68 646.34 478.65 658.58 C 480.96 654.43 482.92 650.13 484.77 645.75 C 490.79 631.41 496.85 617.08 502.65 602.65 C 502.97 601.80 503.28 600.94 503.59 600.08 Z" fill="#ffffff" />
<path d="M 355.44 689.42 C 364.37 688.10 373.35 693.25 376.14 701.94 C 378.96 710.28 374.83 720.03 367.03 724.02 C 359.86 727.98 350.40 725.93 344.83 720.16 C 339.37 714.33 338.36 705.29 342.31 698.36 C 344.80 693.12 349.91 690.35 355.44 689.42 Z" fill="#1554b8" />
<path d="M 281.45 722.51 C 284.88 721.58 288.71 721.57 292.11 722.68 C 299.49 725.07 304.96 732.18 305.08 739.99 C 305.43 749.54 297.64 758.50 288.02 759.06 C 281.74 759.61 275.23 756.57 271.53 751.49 C 266.73 745.56 266.65 736.17 270.85 729.91 C 273.24 726.27 277.28 723.65 281.45 722.51 Z" fill="#1554b8" />
<path d="M 203.38 742.39 C 210.42 740.78 217.72 743.06 222.28 748.72 C 228.33 755.83 227.64 767.47 220.85 773.87 C 214.33 780.78 202.49 780.88 195.69 774.34 C 190.01 769.40 188.00 761.46 190.37 754.34 C 192.14 748.21 197.35 743.98 203.38 742.39 Z" fill="#1554b8" />
</svg>