<?xml version="1.0" encoding="UTF-8" standalone="no"?>
<!DOCTYPE svg PUBLIC "-//W3C//DTD SVG 1.1//EN" "http://www.w3.org/Graphics/SVG/1.1/DTD/svg11.dtd">
<svg xmlns="http://www.w3.org/2000/svg" version="1.1" viewBox="0 0 1024 1024" width="1024.0pt" height="1024.0pt">
<path d="M 0.00 0.00 L 1024.00 0.00 L 1024.00 1024.00 L 0.00 1024.00 L 0.00 0.00 Z" fill="#ffffff" />
<path d="M 516.00 90.97 C 534.64 91.71 553.07 95.31 570.24 102.73 C 591.85 111.72 610.84 126.28 626.11 143.93 C 646.01 167.30 658.93 197.28 660.96 228.00 C 661.11 233.93 660.95 239.88 661.00 245.82 C 708.33 245.69 755.68 245.55 803.01 245.88 C 808.96 245.53 813.56 249.82 816.34 254.64 C 818.54 258.61 817.86 262.65 818.16 267.02 C 821.83 315.00 825.17 359.98 828.51 408.01 C 829.71 423.30 830.57 438.71 831.95 453.99 C 832.24 465.01 833.75 475.99 834.10 487.01 C 840.97 582.68 847.86 678.34 854.44 774.02 C 855.37 780.95 854.96 787.90 855.05 795.00 C 854.29 821.35 839.51 846.38 817.06 860.10 C 804.30 867.94 789.00 872.36 774.00 871.87 C 601.00 871.87 428.00 871.89 255.00 871.85 C 240.05 872.02 225.20 869.01 211.84 862.20 C 200.85 856.72 191.64 848.55 184.15 838.89 C 174.29 825.96 168.74 810.22 167.98 794.00 C 167.95 790.00 167.96 786.00 167.98 782.00 C 171.16 741.11 173.94 701.91 177.00 660.99 C 182.85 584.25 188.67 506.82 193.94 430.00 C 197.85 373.74 201.94 317.40 206.40 261.17 C 207.35 253.92 211.90 246.23 219.97 245.98 C 267.55 246.15 315.11 245.74 362.69 245.68 C 361.97 230.83 363.64 216.08 367.69 201.78 C 373.80 178.72 385.49 157.22 401.72 139.72 C 430.52 108.54 473.42 89.56 516.00 90.97 Z" fill="#14479e" />
<path d="M 518.00 127.09 C 526.46 127.84 534.81 128.61 543.00 131.04 C 568.02 137.63 590.65 153.30 605.51 174.50 C 616.09 189.57 623.48 207.55 624.93 226.00 C 625.03 232.67 625.05 239.32 625.57 245.98 C 550.02 246.02 474.45 245.99 398.89 246.00 C 399.10 239.97 398.90 234.00 399.55 228.00 C 400.54 213.37 405.06 198.89 411.96 185.98 C 420.44 170.37 433.35 156.98 448.00 147.02 C 468.68 133.44 493.27 126.49 518.00 127.09 Z" fill="#ffffff" />
<path d="M 240.78 282.12 C 281.17 282.16 321.60 282.23 361.99 282.18 C 362.17 298.12 362.13 314.07 362.35 330.01 C 363.19 337.69 362.92 345.31 362.99 353.02 C 363.14 360.28 367.71 367.12 374.76 369.32 C 385.79 372.83 397.59 363.21 398.01 352.03 C 398.00 328.85 398.00 305.67 398.00 282.49 C 473.67 282.70 549.33 282.64 625.00 282.69 C 624.99 303.12 625.01 323.56 624.99 344.00 C 625.03 348.49 624.51 352.53 626.13 356.83 C 627.63 361.54 630.85 365.56 635.38 367.64 C 643.37 371.19 653.84 369.41 658.41 361.41 C 662.26 354.89 660.36 349.02 660.38 342.00 C 660.28 322.05 660.51 302.10 660.29 282.15 C 701.50 282.12 742.72 282.12 783.93 282.14 C 783.93 295.16 785.70 308.17 786.33 321.18 C 788.98 358.01 791.89 395.41 794.46 432.00 C 797.03 467.75 799.94 504.13 802.48 540.00 C 803.51 554.26 804.32 568.59 805.60 582.83 C 808.75 624.89 811.63 665.95 814.88 707.97 C 815.44 718.49 816.74 728.99 817.14 739.53 C 818.30 750.66 818.66 761.88 819.81 773.01 C 820.15 779.40 821.13 785.59 820.39 792.01 C 819.59 803.37 815.53 814.28 807.59 822.59 C 802.07 827.94 795.42 832.00 788.00 834.12 C 779.53 836.87 770.81 836.19 762.00 836.25 C 596.33 836.26 430.67 836.25 265.00 836.26 C 255.13 836.14 245.45 836.94 235.98 834.06 C 225.34 831.08 216.20 823.91 210.56 814.43 C 205.54 806.16 203.22 796.62 203.18 787.00 C 206.88 741.86 210.14 696.13 213.52 650.98 C 216.78 611.93 219.45 571.50 222.48 532.85 C 225.09 498.32 227.39 464.54 230.00 430.01 C 231.29 409.69 233.20 389.21 234.35 368.83 C 235.62 354.24 236.28 339.58 237.61 324.98 C 238.74 310.71 239.45 296.37 240.78 282.12 Z" fill="#ffffff" />
<path d="M 301.00 443.58 C 441.33 443.60 581.67 443.58 722.00 443.59 C 727.08 443.68 732.68 443.15 737.63 444.39 C 743.05 445.87 746.86 450.62 748.06 455.97 C 749.15 462.03 747.96 468.75 748.06 475.00 C 748.07 520.33 748.02 565.67 748.07 611.00 C 748.10 615.99 748.01 621.00 748.26 625.99 C 749.04 635.95 748.67 646.01 748.85 656.00 C 749.13 681.66 749.04 707.39 749.53 733.03 C 750.42 742.30 749.84 751.67 750.03 761.00 C 750.14 766.68 748.52 772.34 744.25 776.27 C 739.82 779.93 734.57 780.63 729.00 780.57 C 583.99 780.55 438.98 780.57 293.97 780.56 C 289.16 780.49 284.59 779.38 281.08 775.91 C 277.09 772.35 276.16 767.11 275.97 762.01 C 276.02 665.01 275.98 568.00 276.00 471.00 C 276.09 465.43 275.45 460.43 276.95 455.00 C 277.86 451.29 279.73 447.95 283.22 446.14 C 288.89 442.79 294.73 443.62 301.00 443.58 Z" fill="#14479e" />
<path d="M 494.15 478.25 C 493.87 516.81 494.09 555.41 493.98 593.98 C 432.67 593.97 371.36 594.02 310.05 593.96 C 310.19 555.48 310.31 517.00 310.08 478.52 C 346.05 478.50 382.03 478.52 418.00 478.53 C 443.38 478.45 468.77 478.69 494.15 478.25 Z" fill="#ffffff" />
<path d="M 529.53 478.51 C 590.89 478.51 652.25 478.63 713.60 478.39 C 712.96 502.59 713.40 526.77 713.32 550.98 C 713.20 558.01 714.08 564.97 713.83 572.00 C 714.10 602.68 713.99 633.33 713.99 664.00 C 715.08 681.29 713.97 698.69 714.90 716.00 C 715.08 725.88 714.92 735.76 715.01 745.64 C 660.01 745.65 605.00 745.63 550.00 745.62 C 543.26 745.84 536.54 746.08 529.80 746.00 C 529.90 687.34 529.84 628.66 529.93 570.00 C 529.42 539.50 529.89 509.01 529.53 478.51 Z" fill="#ffffff" />
<path d="M 310.23 628.24 C 371.30 628.03 433.33 628.33 494.40 628.09 C 494.47 667.06 494.41 706.03 494.54 745.00 C 463.03 744.95 431.51 745.79 400.00 745.63 C 370.01 745.71 340.04 745.40 310.06 746.03 C 310.17 710.36 310.06 674.68 310.10 639.00 C 310.14 635.42 309.94 631.81 310.23 628.24 Z" fill="#ffffff" />
</svg>