<?xml version="1.0" encoding="UTF-8" standalone="no"?>
<!DOCTYPE svg PUBLIC "-//W3C//DTD SVG 1.1//EN" "http://www.w3.org/Graphics/SVG/1.1/DTD/svg11.dtd">
<svg xmlns="http://www.w3.org/2000/svg" version="1.1" viewBox="0 0 1024 1024" width="1024.0pt" height="1024.0pt">
<path d="M 0.00 0.00 L 1024.00 0.00 L 1024.00 1024.00 L 0.00 1024.00 L 0.00 0.00 Z" fill="#ffffff" />
<path d="M 578.30 273.66 C 603.67 282.44 626.26 296.90 646.05 314.91 C 652.10 319.96 656.99 325.94 662.25 331.76 C 681.06 353.94 695.64 380.08 703.90 408.01 C 707.69 420.64 710.01 433.42 711.67 446.49 C 712.74 453.05 711.91 459.58 712.43 466.13 C 714.05 468.14 718.39 467.53 720.77 468.20 C 754.69 474.73 783.52 499.21 797.59 530.48 C 804.17 545.34 807.74 561.73 807.36 578.00 C 808.58 608.16 794.94 637.70 773.18 658.22 C 753.45 675.83 728.56 687.94 702.00 690.02 C 667.03 690.05 631.97 689.97 597.00 690.07 C 593.12 690.22 589.50 688.81 586.34 686.65 C 581.53 683.23 579.11 676.68 579.17 670.93 C 580.03 664.44 583.82 658.52 590.06 656.07 C 593.99 654.41 597.79 655.07 602.00 654.98 C 634.33 655.01 666.67 654.99 699.00 654.99 C 704.14 655.13 708.84 653.79 713.78 652.60 C 734.02 647.30 752.45 634.23 762.97 615.99 C 773.58 598.18 775.98 576.43 770.55 556.52 C 765.68 537.52 752.95 520.94 736.35 510.65 C 727.65 505.10 717.44 501.39 707.61 498.40 C 703.14 496.99 698.59 496.51 693.97 495.91 C 686.04 494.58 679.95 487.39 678.15 479.82 C 677.58 471.60 678.50 463.22 677.52 454.99 C 675.67 437.56 671.75 420.12 665.18 403.85 C 655.76 379.92 641.14 358.19 622.64 340.34 C 604.63 323.64 582.69 310.74 559.06 303.88 C 547.02 300.02 534.59 297.99 522.01 297.08 C 515.68 296.94 509.33 297.00 503.00 297.03 C 462.55 299.26 423.54 317.31 395.38 346.37 C 384.61 357.94 375.23 370.75 367.66 384.64 C 361.54 396.13 356.69 408.42 352.84 420.85 C 351.41 425.46 348.57 429.96 344.17 432.22 C 338.98 434.91 332.40 434.87 326.90 433.16 C 311.65 428.68 295.05 427.91 279.54 431.58 C 248.92 438.90 221.98 460.84 207.88 488.90 C 200.08 503.47 196.07 519.56 195.13 536.00 C 193.63 562.79 202.05 590.30 218.57 611.48 C 229.73 625.77 244.49 637.48 261.05 644.90 C 273.35 650.67 286.51 653.57 299.98 654.86 C 307.31 655.19 314.68 654.86 322.02 654.99 C 331.64 655.42 339.82 664.23 338.40 674.01 C 338.00 682.21 330.58 690.65 322.00 690.11 C 303.77 689.86 286.73 690.04 268.98 685.04 C 232.53 675.07 200.47 650.18 181.40 617.59 C 169.18 597.45 162.46 574.46 160.98 551.00 C 160.89 540.96 160.53 531.06 162.50 521.15 C 163.82 508.92 167.52 497.35 171.84 485.89 C 178.91 468.00 189.57 451.71 202.69 437.69 C 223.64 415.85 250.97 400.58 281.01 395.90 C 295.39 393.77 310.40 394.00 324.63 397.05 C 332.77 374.04 344.92 352.32 360.54 333.54 C 366.93 325.43 374.70 318.27 382.17 311.18 C 396.62 298.54 412.97 287.34 430.56 279.56 C 450.20 270.64 471.49 264.69 493.01 262.89 C 521.68 259.89 551.20 263.91 578.30 273.66 Z" fill="#1d5cb3" />
<path d="M 603.26 471.63 C 611.84 473.05 617.40 480.20 619.64 488.17 C 620.79 492.17 618.36 496.92 616.22 500.21 C 610.59 507.88 602.84 514.40 596.59 521.56 C 591.15 527.82 584.91 533.25 579.49 539.53 C 571.69 548.38 562.84 556.20 555.14 565.13 C 548.99 571.68 542.51 577.84 536.69 584.69 C 526.17 595.19 516.27 606.26 505.83 616.84 C 494.91 628.22 483.99 639.70 473.29 651.29 C 465.31 659.02 458.26 667.57 450.32 675.33 C 447.02 678.57 443.36 683.39 438.79 684.69 C 434.00 685.61 428.56 685.88 424.75 682.27 C 419.90 677.79 415.36 672.93 411.07 667.91 C 407.37 663.93 403.54 660.12 400.08 655.92 C 386.83 642.18 373.99 628.00 360.85 614.11 C 354.83 607.08 348.13 600.89 342.38 593.63 C 339.49 589.70 337.00 584.11 338.22 579.18 C 339.33 575.49 341.74 572.13 344.31 569.32 C 347.63 565.91 352.10 563.26 357.03 563.89 C 360.83 564.37 364.26 567.50 366.86 570.12 C 370.48 573.91 374.23 577.46 377.57 581.50 C 382.01 586.74 387.20 591.13 391.57 596.43 C 395.15 600.85 399.45 604.52 403.15 608.84 C 408.21 614.77 413.92 620.08 419.07 625.94 C 424.08 631.72 429.63 636.98 434.72 642.70 C 439.20 636.87 444.43 631.78 449.27 626.28 C 453.27 621.95 457.60 617.99 461.39 613.45 C 465.35 608.72 470.03 604.74 473.97 599.98 C 478.30 594.66 483.59 590.26 488.02 584.99 C 492.69 579.38 498.12 574.49 502.90 568.95 C 506.72 564.45 511.11 560.49 514.92 555.97 C 519.20 550.90 524.23 546.62 528.56 541.58 C 534.07 535.12 540.33 529.32 545.96 522.93 C 551.41 516.74 557.47 511.15 562.89 504.92 C 566.75 500.44 571.13 496.47 574.97 491.98 C 578.59 487.63 582.80 483.83 586.48 479.52 C 590.74 474.72 596.58 470.90 603.26 471.63 Z" fill="#18c2cc" />
</svg>