<?xml version="1.0" encoding="UTF-8"?>
<svg version="1.1" viewBox="0 0 1024 1024" width="1024" height="1024" xmlns="http://www.w3.org/2000/svg">
<path transform="translate(0)" d="m0 0h1024v1024h-1024z" fill="#FDFDFD"/>
<path transform="translate(498,272)" d="m0 0h241l1 128 5 17 6 10 8 9 11 7 15 5 6 1 130 1 1 2v354l-3 10-7 11-11 8-12 5h-363v-4h-17l-21-3-26-6-26-10-25-13-15-10-10-8-13-11-16-16-6-7v-2h-246l-10-4-6-4-6-7-3-7-1-6-1-140 4-13 6-8 8-6 7-3 5-1h198l3-12 6-18h-214l-10-5-5-5-4-5-3-9-1-137 2-15 5-10 9-8 11-4h320l1 79 15-7 10-4h3l-1-48 1-32 2-11 5-10 9-9 10-5 11-3z" fill="#0057D9"/>
<path transform="translate(498,272)" d="m0 0h241l1 128 5 17 6 10 8 9 11 7 15 5 6 1 130 1 1 2v354l-3 10-7 11-11 8-12 5h-363l1-4h11l23-2 26-5 21-6 24-10 19-10 12-8 16-12 14-12 7-7 7-8 12-15 10-15 11-20 10-24 7-25 3-16 2-19v-29l-3-25-4-20-6-19-6-15-13-25-10-15-9-11-4-5v-2h-2l-7-8-10-10-11-9-13-10-15-9-18-10-26-10-18-5-20-4-17-2h-39l-21 3-20 4-12 4h-3v-46l-2-1 1-32 2-11 5-10 9-9 10-5 11-3z" fill="#5B726E"/>
<path transform="translate(103,92)" d="m0 0h192l328 1 10 5 7 8 4 10 1 60v73l-1 1h-161l-16 4-16 8-8 7-8 14-4 9h-327l-8-3-6-4-7-8-4-11-1-147 3-10 6-8 8-6z" fill="#AB17F4"/>
<path transform="translate(105,323)" d="m0 0h320v80l-24 14-11 8-14 11-18 18-7 8-14 19-12 21-7 15-2 4h-215l-10-5-5-5-4-5-3-9-1-137 2-15 5-10 9-8z" fill="#AB17F4"/>
<path transform="translate(108,551)" d="m0 0 198 1-2 13-3 22v40l3 23 6 24 7 19 8 18 8 14 8 12 9 12v1h-245l-10-4-6-4-6-7-3-7-1-6-1-140 4-13 6-8 8-6 7-3z" fill="#AB17F4"/>
<path transform="translate(454,344)" d="m0 0h1v46l19-6 27-5 10-1h39l23 3 26 6 25 9 16 8 18 10 15 11 10 8 13 12 9 9v2h2l7 9 10 13 9 15 12 23 7 18 6 22 4 26 1 11v29l-3 25-5 22-7 21-11 24-12 20-13 17-18 20-12 11-16 12-15 10-23 12-26 10-24 6-25 4-25 1-29-2-29-6-16-5-20-8-23-12-15-10-10-8-13-11-16-16-9-11-13-18-9-16-8-16-8-21-6-23-3-17-1-10v-41l4-27 4-16 5-16 7-17 11-21 8-12 12-16 15-16 11-11 10-8 10-7 11-7 18-10 15-7 10-4h3zm64 61-25 3-18 4-20 7-25 12-16 10-13 10-12 10-7 8-8 8-12 16-11 18-7 14-6 15-6 22-3 20-1 12v28l3 24 7 26 8 20 8 16 9 14 10 13 9 10 15 15 17 13 18 11 23 11 24 8 26 5 11 1h26l21-2 27-6 17-6 25-12 15-9 14-11 14-12 2-4 3-1v-2h2l9-11 10-13 10-17 8-16 7-20 5-19 3-19 1-15v-19l-3-24-6-25-9-24-10-19-8-12-10-13-12-13-8-8-14-11-14-10-18-10-16-7-24-8-20-4-17-2z" fill="#232423"/>
<path transform="translate(519,430)" d="m0 0h24l19 2 25 6 20 8 21 11 12 9 9 7v2l-11 3-7 4-5 6-4 10-1 13 3 13 8 16 11 18 7 14 4 14v22l-3 14-12 36-7 20-12 34h-2l-10-32-12-34-7-20-15-45-13-38-4-11v-5l2-2 18-1 3-1 1-8-2-4-2-1-98-1-5 2-2 3v7l4 3 15 1 6 4 11 29 16 43-1 7-13 38-12 36-11 32-2-1-17-48-21-61-12-34-12-36-1-5 3-4 15-1 3-2 1-7-2-4-2-1h-58l2-5 13-16 17-17 16-12 15-9 19-9 18-6 18-4z" fill="#232423"/>
<path transform="translate(767,270)" d="m0 0 7 6 145 145v1h-132l-10-5-7-8-3-7z" fill="#30413A"/>
<path transform="translate(532,624)" d="m0 0 2 3 18 49 15 39 16 43 4 12v6l-8 3-30 5h-35l-30-5-3-2 2-9 24-72 14-41 10-30z" fill="#232423"/>
<path transform="translate(366,537)" d="m0 0 2 4 21 57 22 58 18 47 15 39 10 20 4 7-6-2-16-9-14-10-11-10-8-7-10-11-8-10-11-18-8-16-6-16-6-26-2-14v-22l2-20 4-20 7-20z" fill="#232423"/>
<path transform="translate(691,527)" d="m0 0 2 1 10 25 4 16 2 15 2 27-2 18-3 19-6 20-8 18-8 15-8 11-8 10-7 8-8 7-7 7-18 13-5 3-2-1 18-50 20-56 9-25 17-48 6-19 1-8v-10z" fill="#232423"/>
<path transform="translate(166,168)" d="m0 0h11l10 5 7 9 2 6v8l-3 10-7 8-8 4-9 1-11-4-7-6-4-8-1-9 2-9 6-9 8-5z" fill="#232423"/>
<path transform="translate(258,168)" d="m0 0h11l10 5 6 7 3 9v9l-3 8-7 8-9 4-7 1-8-2-8-5-6-9-2-11 3-11 5-7 9-5z" fill="#232423"/>
<path transform="translate(264,397)" d="m0 0 9 2 6 4 6 7 3 7v10l-3 9-5 6-9 5-3 1h-10l-10-5-7-8-2-5-1-9 3-10 4-6 9-6z" fill="#232423"/>
<path transform="translate(165,398)" d="m0 0h13l9 5 6 7 3 9v7l-4 11-4 5-8 5-4 1h-10l-10-5-7-8-3-10 1-10 4-8 7-6z" fill="#232423"/>
<path transform="translate(257,627)" d="m0 0h13l7 3 6 5 4 8 1 3v11l-5 10-7 6-10 3-9-1-7-3-4-3v-2h-2l-4-9-1-4v-7l4-10 5-5 6-4z" fill="#232423"/>
<path transform="translate(165,627)" d="m0 0h13l10 5 6 8 2 6v10l-3 8-6 7-8 4-9 1-9-2-8-6-5-10-1-9 3-9 3-5 7-6z" fill="#232423"/>
</svg>
