<?xml version="1.0" encoding="UTF-8"?>
<svg version="1.1" viewBox="0 0 2048 1565" width="904" height="691" xmlns="http://www.w3.org/2000/svg">
<path transform="translate(0)" d="m0 0h2048v1565h-2048z" fill="#FEBF37"/>
<path transform="translate(0)" d="m0 0h2048v1565h-2048zm658 48-20 4-21 7-33 15-9 4-7 4-10 4-13 6-33 15-5 3-10 4-63 29-22 10-9 4-32 15-16 8-10 4-10 5-26 12-32 15-32 15-12 6-10 4-9 4-18 10v2l-5 2-3 2v2l-4 2-10 10v2l-3 1-3 4v3h-2l-9 16-16 33-13 28-8 16-10 21-7 15-13 26-13 28-13 26-13 28-17 35-6 16-1 5v23l5 16 9 15 12 12 9 5 10 5 12 3h113v453l1 189 2 15 4 15 8 16 10 14 9 9 11 8 15 8 11 3 7 2 19 1h885l22-3 19-5 10-4 16-8 9-6v-2l5-2 16-13 8-6 3-3 10-8 16-13 11-9 10-8 22-18 10-9v-2h2l4-7 2-7v-11l15-13 8-7h2l23 93 17 69 14 54 6 20 7 16 4 6h2l2 4 8 7 11 5 14 2 14-3 10-5v-2l4-1 11-10 4-6 5-5 14-18 12-16 16-21 7-9 12-16 5-5 3 5 5 5 2 3h2l2 5 4 4 4 5 6 7 4 4 2 4 4 4 5 6 5 7 5 5 2 3h2l1 4 5 5 4 5 2 3h2l2 4 4 5 2 3h2l2 5 5 5 1 2h2l2 5 4 4 7 8 10 11 4 6 12 12 13 8 13 4h14l13-4 7-4v-2h3v-2l5-2 3-2v-2l5-2 7-6 7-5 3-3 11-9 5-4v-2l5-2 8-7v-2l5-2 12-11 11-9 8-7 7-8 8-7 5-7v-3h2l6-15 2-10v-8l-4-16-5-10-10-13-9-10-9-11-12-14-11-13-8-10-22-26-12-14-4-6-5-5-6-8-5-5-10-12 19-10 11-6 10-4 20-10 11-6 10-4 26-13v-2l4-1 8-7 8-9 5-10 2-7v-18l-4-12-5-8-4-5-6-5-12-7-16-8-22-10-19-9-23-11-12-5-16-8-16-7-16-8-14-6-9-5-7-3-8-4-7-3-13-6-34-16-21-9-9-5-7-3-12-5-9-5-7-3-11-5-27-13-5-1-1-47 9-3v-2h3l5-6v-2h2l3-10 1-11 1-327 28-22 17-14 17-13 13-11 10-8 14-11 9-7v-2l5-2 14-12 5-5v-2l3-1 1-4h2l7-15 2-10v-15l-4-15-7-13-10-13-16-21-12-16-14-18-10-13-26-34-10-13-14-18-13-17-14-18-9-12-12-15-2-4h-2l-2-4-6-9-5-5-11-14-10-11-14-11-9-6-12-6-17-6-16-4-26-3z" fill="#FDFDFD"/>
<path transform="translate(658,48)" d="m0 0h779l26 3 23 6 12 5 13 7 11 8 13 11 12 14 8 11 3 3 7 9v2h2l6 9 9 11 16 21 14 18 13 17 14 18 15 20 28 36 12 16 14 18 12 16 12 17 5 11 3 12v15l-3 13-6 12h-2l-2 5h-2l-2 4-7 7-13 10h-2l-1 3-14 11-10 8-11 9-10 8-14 11-16 13-14 11-16 13-2 1-1 327-2 16-2 5h-2l-2 4-3 4h-3v2l-7 3h-9l-9-3-8-7-3-7-1-6v-296l-23 11-19 5-6 1h-17l-17-4-12-5-11-6-13-10-10-10-11-14-12-15-13-17-10-12-10-13-14-18-12-15-13-17-12-15-12-16-14-18-9-12-13-17-8-11-1 688-4 11-7 7-7 3h-14l-8-4-7-7-3-7-1-7v-83l1-562-13 21-17 28-9 15-17 28-60 100-15 24-10 13-12 14-8 8-10 8-15 9-18 8-14 4-12 2h-722l1 150 1 346 1 136 2 16 3 10 6 9v2h2v2l16 8 11 2h899l5-3 3-3 1-3 1-184 2-9 6-8 8-5 3-1h12l9 4 5 4 5 9 1 4 1 23v134l-1 4 14-11 13-11 11-9 13-11 11-9 14-12 11-8 4-2h12l10 4 8 8 2 4 1 11-3 10-3 4h-2l-2 4-11 10-20 16-22 18-16 13-8 6-8 7-14 11-8 6h-2v2l-18 11-12 5-15 5-14 3-17 2h-885l-19-1-12-3-12-5-12-7-11-9-7-7-12-18-6-14-4-17-1-10-1-189v-453h-113l-14-4-14-7-10-9-7-8-8-14-4-14v-23l4-14 12-26 8-16 19-40 19-39 11-23 9-20 8-16 8-17 8-16 28-58 5-8h2l1-4 3-4h2l2-4 10-10h2v-2l6-4h2v-2l9-5 11-6 7-3 12-5 12-6 32-15 15-7 11-5 23-11 13-6 10-5 7-3 13-6 34-16 7-3 30-14 61-28 7-3 32-15 11-5 7-3 9-4 8-4 7-3 33-15 21-7z" fill="#1F2F67"/>
<path transform="translate(274,296)" d="m0 0h910l-1 4-15 26-10 17-14 23-15 25-13 21-10 17-17 28-15 25-17 28-12 20-14 23-14 19-11 12-13 10-12 7-11 4-15 2h-856l-11-2-6-4-3-5-1-9 5-14 16-33 11-23 24-50 18-37 11-23 12-25 16-33 13-28 7-13 9-8 7-3z" fill="#FEBF37"/>
<path transform="translate(1368,844)" d="m0 0h12l11 3 21 9 35 16 36 16 41 19 33 15 28 13 17 8 14 7 10 4 18 9 10 4 10 5 48 22 16 8 10 4 5 3 10 4 10 5 20 9 8 4 26 12 8 4 24 11 15 7 10 5 26 12 19 10 5 3 7 8 4 5 5 12 1 4v18l-4 12-8 11-9 9-3 2h-3v2l-28 14-14 6-19 10-12 6-10 4-19 10-5 3 12 14 9 11 7 8 9 11 9 10 9 11 11 13 9 11 22 26 9 11 9 10 9 13 4 8 4 16v8l-4 16-4 9h-2l-1 4-4 6-8 7-9 10-8 7-13 11-11 9h-2l-2 4-9 7h-2l-2 4-11 9-5 3-5 5-6 4-5 5-4 1-1 3-5 3h-2v2h-3v2l-12 6-8 2h-14l-13-4-14-9-9-10-5-5-7-8-8-10-3-3-6-7v-2h-2l-4-6-4-4v-2l-3-1-2-4-5-5v-2l-3-1-2-4-5-5-4-5v-2l-3-1-4-6-5-5-4-6-8-8-1-3-5-5-5-6-6-8-4-4v-2h-2l-5-7-6-6-11 14-7 9-12 16-10 13-12 16-10 13-6 8-5 5-6 7-7 6h-3v2l-13 6-14 2-14-3-11-6-7-7v-2h-2l-8-14-7-21-11-42-41-164-26-110-20-83-16-68-13-52-3-17v-21l4-15 7-13 5-6 10-8 12-5z" fill="#4282F2"/>
<path transform="translate(1249,334)" d="m0 0 5 5 12 16 13 17 10 13 14 18 9 12 14 18 11 14 12 15 10 13 11 14 8 10 11 14 14 18 8 10 11 12 11 9 14 8 12 5 17 4h17l19-4 17-7 10-5h2l1 296 2 9 4 6 7 5 14 3 1 46-9-3-34-16-33-15-29-13-37-17-34-15-9-3-5-1h-12l-13 4-9 6-3 3h-2l-2 4-6 9-5 12-2 9v21l5 25 15 61 40 168 12 50 1 8-11 9-14 12h-2l-4-6-7-6-8-3h-12l-10 6-14 12-13 11-11 9-14 12-11 9-16 13h-2v-138l-1-23-4-10-4-5-8-4-1-3-6-1-1-5v-22l1-45 1-1 7-1 9-5 5-8 1-6-1-3z" fill="#FEA837"/>
<path transform="translate(1462,99)" d="m0 0 5 1-3 3-14 8-24 15-52 32-44 27-24 15-20 12-22 13-21 12-15 9-891 1 1-3 26-12 34-16 28-13 76-35 33-15 28-13 33-15 36-17 16-6 10-2z" fill="#FEBF37"/>
<path transform="translate(1368,844)" d="m0 0h12l11 3 21 9 35 16 36 16 41 19 33 15 28 13 17 8 14 7 10 4 18 9 10 4 10 5 48 22 16 8 10 4 5 3 10 4 10 5 20 9 8 4 26 12 8 4 24 11 15 7 10 5 26 12 19 10 5 3 7 8 4 5 5 12 1 4v18l-4 12-8 11-9 9-3 2h-3v2l-28 14-14 6-19 10-12 6-10 4-19 10-5 3 12 14 9 11 7 8 9 11 9 10 9 11 11 13 9 11 22 26 9 11 9 10 9 13 4 8 4 16v8l-4 16-4 9h-2l-1 4-4 6-8 7-9 10-8 7-13 11-11 9h-2l-2 4-9 7h-2l-2 4-11 9-5 3-5 5-6 4-5 5-4 1-1 3-5 3h-2v2h-3v2l-12 6-8 2h-14l-13-4-14-9-9-10-5-5-7-8-8-10-3-3-6-7v-2h-2l-4-6-4-4v-2l-3-1-2-4-5-5v-2l-3-1-2-4-5-5-4-5v-2l-3-1-4-6-5-5-4-6-8-8-1-3-5-5-5-6-6-8-4-4v-2h-2l-5-7-6-6-11 14-7 9-12 16-10 13-12 16-10 13-6 8-5 5-6 7-7 6h-3v2l-13 6-14 2-14-3-11-6-7-7v-2h-2l-8-14-7-21-11-42-41-164-26-110-20-83-16-68-13-52-3-17v-21l4-15 7-13 5-6 10-8 12-5zm14 56-6 5-1 2v13l16 66 17 71 21 87 36 148 23 93 10 39 4 12 3 5 6 2 7-6 26-36 12-17 14-20 16-23 10-14 4-5 8-5 3-1h10l7 4 8 8 9 11 12 14 9 11 11 13 8 10 14 17 11 13 8 10 11 13 24 28 10 11 7 8 8 8 6 3 7-2 18-14 16-13 22-18 15-13 10-9 16-14 3-7-3-7-12-14-13-15-24-28-9-11-9-10-9-11-13-15-9-11-9-10-9-11-9-10-9-11-7-8-4-9v-7l4-10 7-6 23-12 36-18 23-11 33-17 8-6 2-4-1-7-5-5-34-16-28-13-36-17-33-15-27-13-69-32-32-15-33-15-34-16-67-31-33-15-54-25-3-1z" fill="#1F2F67"/>
<path transform="translate(1507,134)" d="m0 0 3 1 13 17 10 13 14 18 13 17 9 12 14 18 14 19 13 17 9 12 16 21 11 15 13 17 21 28 5 10v8l-3 6-5 5-14 12-11 9-17 14-14 12-22 18-13 11-28 22-13 10-20 15-17 11-12 6-8 2-10-1-11-4-9-7-10-11-11-14-9-11-13-16-9-11-11-14-13-16-10-13-22-28-10-13-11-14-20-26-18-24-13-18-5-9 10-7 20-12 22-14 26-16 22-14 21-13 22-14 26-16 19-12 28-17 13-8z" fill="#FEA837"/>
<path transform="translate(1198,383)" d="m0 0h1v553h-1l-1-397-2 28-5 4-14 10-16 12-36 26-17 12-19 14-20 14-11 8-14 10-15 10-30 16-20 8-20 6-16 3-9 1h-681l-3-12h2l-2-2v-10h1l-1-16 3-13 1-7 2-2 10-1h703l8-2 12-2 10-3 8-3 12-6 12-7 11-9 9-9 9-11 10-13 14-22 22-36 6-11 2-4h2l2-6 3-6h2l2-5 7-12 8-13 21-35 17-28 8-14 5-8h2l2-6 2 4v19l1 53z" fill="#FEA837"/>
<path transform="translate(875,935)" d="m0 0h11l10 4 12 8 13 10 12 9 21 16 19 14 18 14 12 9 21 16 40 30 7 8 4 11v7l-3 10-7 9-14 12-14 11-17 14-16 13-14 11-16 13-10 8-32 26-14 11-16 13-12 7-7 2-12-1-10-5-7-7-4-9-1-6v-19l3-157 2-86 2-10 5-8 8-6z" fill="#203067"/>
<path transform="translate(902,1007)" d="m0 0 4 1 30 23 26 20 18 14 28 21 2 1-1 4-14 12-14 11-13 11-10 8-16 13-14 11-13 11-14 11-3 1 1-59 2-81z" fill="#FEA837"/>
<path transform="translate(1731,748)" d="m0 0h13l9 5 7 8 3 8v135l-3 9-8 9-8 4h-13l-10-5-6-7-3-7v-140l5-10 7-6z" fill="#1F2E66"/>
<path transform="translate(1903,835)" d="m0 0h8l10 4 8 7 5 10v12l-4 10-4 5-5 4-7 8-6 5-2 3h-2l-2 4-16 15-15 15-7 8-8 7-3 3-6 3h-14l-10-5-5-5-4-9v-15l6-12 6-5 7-8 15-15 7-8 32-32 5-4h2v-2z" fill="#1F3068"/>
<path transform="translate(1933,993)" d="m0 0h68l10 2 9 7 5 6 3 10-1 9-3 7h-2l-2 4-7 6-4 2h-85l-6-3-8-7-4-7-1-3v-13l5-10 9-7 5-2z" fill="#1F3068"/>
<path transform="translate(1507,134)" d="m0 0 3 1 3 4-1 2-1-1h-8l-6 3-1 2-5 3-9 6-13 8-6 4-10 6-4 1v2l-14 8-12 8-6 2v2l-7 4-22 14-13 8-12 8-6 3h-2v2l-11 6-14 9-13 8-18 11-12 7-6 5-1 4 8 11 12 16 10 14 7 8 6 8 14 18 9 11 5 7v2h2l9 12 7 9 9 11 9 12 5 6v2h2l10 13 8 10v2h2v2h2l6 9 6 7 9 11 10 12 4 6 9 11 11 8 9 4 4 1 21-9 14-9 11-8 21-16 14-11 11-9h2v-2l8-6 13-11 17-14 4-3h2v-2l14-11 8-7 11-9 14-12 8-7 3-5v-6l-5-10-5-9v-2h-2l-4-7 1-2 6 7 11 15 3 7v8l-3 6-5 5-14 12-11 9-17 14-14 12-22 18-13 11-28 22-13 10-20 15-17 11-12 6-8 2-10-1-11-4-9-7-10-11-11-14-9-11-13-16-9-11-11-14-13-16-10-13-22-28-10-13-11-14-20-26-18-24-13-18-5-9 10-7 20-12 22-14 26-16 22-14 21-13 22-14 26-16 19-12 28-17 13-8z" fill="#FEBD37"/>
<path transform="translate(1199,373)" d="m0 0h1l-1 10-1 86h-1l-1-7-1-52v-20l-1-1-2 4h-2l-2 5-10 17-12 20-7 11-5 9-6 9-5 9-3 5-6 9-5 9-7 12h-2l-2 6-3 6h-2l-1 4-9 16-6 10-12 19-7 12-7 10-8 11-8 10-12 13-8 7-13 9-6 3h-3l-1 2-9 4-7 3-12 3-14 2-2 1h-704l-9 1-1 1-3 17-2 7h-1l-1-8v-21l722-1 20-4 20-8 16-9 9-7 12-11 9-10 12-16 12-19 10-17 39-65 17-28 12-20 34-56 7-11z" fill="#FEB637"/>
<path transform="translate(257,1381)" d="m0 0 17 4 10 1h907l-1 2-11 2h-885l-19-1-12-3-6-2z" fill="#0F1C5E"/>
<path transform="translate(1372,841)" d="m0 0h12l9 4 13 5 11 4 21 9 25 11 16 8 15 7 12 5 16 8 20 8 15 8 9 4 2 1 2-3v8l-9-3-34-16-33-15-29-13-37-17-34-15-9-3-5-1h-12l-13 4-9 6-3 3h-2l-2 4-6 9-5 12-2 9v21l5 25 15 61 40 168 12 50 1 8-5 3-5-24-3-12-4-18-4-16-5-21-4-15-6-25-6-26-3-11-8-36-4-15-4-16-3-15-4-15-6-27-2-15v-32l5-16 4-9 6-9 9-7 10-5z" fill="#FEBC37"/>
<path transform="translate(1419,552)" d="m0 0 4 2 13 10 17 9 17 5 6 1h17l19-4 17-7 10-5h2l1 296 2 9 4 6 2 4-4-2-5-8-2-7-1-9-1-54v-35l-1-45v-146h-8l-14 6-12 3-2 1-17 1-13-1-6-2-7-1-5-2v-2l-9-3-9-6-6-3-5-4-4-5z" fill="#FEBA37"/>
<path transform="translate(1199,373)" d="m0 0h1l-1 10-1 86h-1l-1-7-1-52v-20l-1-1-2 4h-2l-2 5-10 17-12 20-7 11-5 9-6 9-5 9-3 5-6 9-5 9-7 12h-2l-2 6-3 6h-2l-1 4-9 16-6 10-12 19-7 12-7 10-8 11-8 10-12 13-8 7-13 9-6 3h-3l-1 2-9 4-7 3-12 3-13 2-2-3 20-4 20-8 16-9 9-7 12-11 9-10 12-16 12-19 10-17 39-65 17-28 12-20 34-56 7-11z" fill="#FEBC37"/>
<path transform="translate(1382,898)" d="m0 0h7l13 5 8 4 61 28 61 28 21 10 33 15 34 16 28 13 30 14 24 11 20 9 16 8 28 13 24 11 28 13 16 8 27 12 1 2-6-1-30-14-36-17-56-26-34-16-67-31-32-15-33-15-36-17-74-34-41-19-24-11-3-1h-11z" fill="#0E1A5C"/>
<path transform="translate(903,1007)" d="m0 0 4 2 16 12 39 30 18 14 28 21 2 1-1 4-14 12-14 11-13 11-10 8-16 13-14 11-13 11-14 11-3 1 1-11 2-1 1 2 5-2 11-9 12-10h2v-2l8-6 16-13 5-4h2v-2l10-8 9-7 11-9 8-7 1-3v-4l-6-2-9-8-13-10v-2l-5-2-10-8-14-11-13-10-5-3v-2l-4-2-11-8h-7l-2 1z" fill="#FEBD37"/>
<path transform="translate(1251,515)" d="m0 0h1l1 51v211l-1 87-1 14h-1v-362z" fill="#FEC037"/>
<path transform="translate(1509,69)" d="m0 0 5 2 13 10 11 10 11 14 6 8 3 3 7 9v2h2l6 9 9 11 16 21 14 18 13 17 14 18 15 20 28 36 12 16 14 18 12 16 12 17 4 8v5l-3-4-6-11-10-13-14-19v-2h-2l-8-11-13-17v-2h-2l-5-7v-2h-2l-8-11-11-14-10-13-12-16-8-10-3-4v-2h-2l-5-7v-2h-2l-8-11-9-12-14-18-8-11-14-18-6-8v-2h-2l-10-13-7-7v-2l-4-2-10-9-9-6z" fill="#102169"/>
<path transform="translate(1876,1140)" d="m0 0 2 1-8 6-33 17-78 39-8 6-4 5-2 4v10l4 8 7 7 8 10 7 7 7 9 8 9 8 10 9 10 9 11 9 10 8 10 26 30 9 11 9 10 9 11 8 10 2 3v6l-2-3-4-7-11-13-13-15-24-28-9-11-9-10-9-11-13-15-9-11-9-10-9-11-9-10-9-11-7-8-4-9v-7l4-10 8-7 23-12 36-18 23-11 33-17z" fill="#0D195C"/>
<path transform="translate(1806,1232)" d="m0 0 3 1 9 11 7 8 6 8 4 4 9 11 9 10 9 11 11 13 9 11 22 26 9 11 9 10 9 13 4 8 2 6v9h-1l-2-10-6-11-6-9-13-15-9-11-9-10-8-10-9-11-12-14-9-11-10-12-7-8-8-10-13-16-9-11z" fill="#102068"/>
<path transform="translate(1338,1228)" d="m0 0h12v1l-9 2-10 6-14 12-13 11-11 9-14 12-11 9-16 13h-2l1-15 3 3v2l6-3 13-11 11-9 15-13 13-11 10-8 11-8z" fill="#FEBD37"/>
<path transform="translate(1327,433)" d="m0 0 3 1 5 8 5 5 3 5v2l4 2 5 8 3 2v2h2l3 6 2 1v2h2l5 8 2 1v2h2l4 7 12 14v2h2l3 6 4 3 3 6 5 5 4 6 8 7 5 6 5 4v2l5 2 4 4 5 3 13 7-4 1-15-8-13-10-10-10-11-14-12-15-13-17-10-12-10-13-14-18-16-20z" fill="#0E1A5C"/>
<path transform="translate(1876,1140)" d="m0 0 2 1-8 6-33 17-78 39-8 6-4 5-2 4v10l4 8 7 7 4 5-1 3-11-12-5-9-1-3v-7l4-10 8-7 23-12 36-18 23-11 33-17z" fill="#0F1B5D"/>
<path transform="translate(1746,750)" d="m0 0 6 2 8 9 3 8v135l-2 1-1-137-7-11-7-6z" fill="#244AA4"/>
<path transform="translate(903,1007)" d="m0 0 4 2 16 12 39 30 18 14 12 9 10 8v2l-6-2-9-8-13-10v-2l-5-2-10-8-14-11-13-10-5-3v-2l-4-2-11-8h-7l-2 1z" fill="#FEB737"/>
<path transform="translate(1611,1315)" d="m0 0h10l7 4 9 9 9 11 12 14 5 6v2h-2l-8-10-11-13-7-8-4-5-8-6-3-1h-8l-11 6-8 9-7 11-8 11-8 12-12 16v-3l11-16 16-23 10-14 5-6 8-5z" fill="#0D195C"/>
<path transform="translate(910,1010)" d="m0 0 5 2 3 2v2h3v2l4 1 9 7 5 4 6 4 4 4 5 3v2l4 2 12 9 5 4v2l5 2 4 3v2l-5-2-18-14-39-30-12-9z" fill="#0F1C5E"/>
<path transform="translate(1580,229)" d="m0 0 3 1 14 19 13 17 24 32-1 2-7-5-4-6-2-2-2-5-6-7-5-7-3-6-4-3-2-5-5-4-3-6-8-11z" fill="#FEBB37"/>
<path transform="translate(1576,220)" d="m0 0 5 3 3 6 4 4 2 6 4 2 3 5v2l5 2 2 7 4 2 3 6 4 3 4 7 1 3h2l4 7 3 2v2h2l3 6 2 1 2 6-3-1-14-19-10-13-27-36-8-11z" fill="#0E1A5C"/>
<path transform="translate(204,1327)" d="m0 0h3l6 14 7 10 9 11 2 1v2l4 2 10 7 11 6 1 3-6-2-12-7-11-9-7-7-12-18-5-11z" fill="#122570"/>
<path transform="translate(1039,541)" d="m0 0v3l-9 13-4 7-5 5-8 11h-2l-2 4-5 5-13 9-4 1 1-3 13-9 9-8 9-11 13-18 4-7z" fill="#0D1A5D"/>
<path transform="translate(1268,356)" d="m0 0 3 1 4 7 3 2 2 5 7 8 2 4 5 4 3 6 4 4 10 14 6 7v2l-4-2-15-20-11-14-10-13-9-12z" fill="#0F1B5D"/>
<path transform="translate(1185,297)" d="m0 0 1 3-16 28-6 9-1 3h-2l-2 5-2 3h-2l2-5 15-26 10-17z" fill="#0E1A5C"/>
<path transform="translate(381,221)" d="m0 0h2v3l-29 14-9 4h-5l3-4 19-8 5-1v-2z" fill="#0F1D63"/>
<path transform="translate(1879,854)" d="m0 0v3l-49 49h-2v2l-2-1 7-8 15-15 5-6 5-3z" fill="#102169"/>
<path transform="translate(1654,406)" d="m0 0 2 1-8 8-6 4-5 6-8 5-5 5-5 4-8 7-6 4v-3l14-12 11-9 13-11z" fill="#0F1B5D"/>
<path transform="translate(1281,214)" d="m0 0h2l-1 3-9 5-14 8-15 9-15 8-2-1 9-6 18-10z" fill="#0D1A5C"/>
<path transform="translate(1564,480)" d="m0 0 2 1-7 7-4 3h-2v2l-11 8-7 6-10 7-2-1 5-5 18-14 13-10z" fill="#0D195C"/>
<path transform="translate(1357,847)" d="m0 0 4 1-5 1v2l-9 6-7 7-9 16-2 4-1-4 8-16 5-6 10-8z" fill="#0D195C"/>
<path transform="translate(33,616)" d="m0 0 3 2 4 7 7 9 10 9 15 8v2l-6-2-10-5-10-9-7-8-6-11z" fill="#102067"/>
<path transform="translate(875,935)" d="m0 0h11l10 4 2 1-1 2-9-4h-14l-10 7-6 9-2 4v-7l5-8 8-6z" fill="#0E1B5E"/>
<path transform="translate(1907,1087)" d="m0 0 5 1 12 7 7 8 4 5 4 9v11h-1l-2-11-6-10-8-9v-2l-5-2-10-6z" fill="#0F1E64"/>
<path transform="translate(1019,635)" d="m0 0h2l-1 3-15 8-13 5h-6l3-3h4v-2l16-6z" fill="#101F63"/>
<path transform="translate(1842,1454)" d="m0 0h2v2l-14 11-14 12-12 9-9 6 1-3 13-10 16-13 11-9z" fill="#101C5D"/>
<path transform="translate(1551,191)" d="m0 0 4 2 10 14 11 14 3 4-1 2-7-6-2-5-5-4-2-5-4-2-4-9-3-3z" fill="#FEB937"/>
<path transform="translate(1592,1331)" d="m0 0 2 1-8 12-8 11-8 12-12 16v-3l11-16 16-23z" fill="#101D5E"/>
<path transform="translate(1760,1250)" d="m0 0 7 6 14 16 9 11-1 3-9-10-9-11-9-10z" fill="#0C185B"/>
<path transform="translate(1343,176)" d="m0 0h2l-1 3-14 8-14 9-10 6-5 2v-2l23-14z" fill="#0F1C5D"/>
<path transform="translate(1883,1418)" d="m0 0h2l-2 4-10 9-8 7-14 12-5 4-2-1 12-11 11-9z" fill="#101D5E"/>
<path transform="translate(1576,220)" d="m0 0 5 3 3 6 4 4 2 6 4 2 3 5v2l5 2v4l-3-1-15-20-8-11z" fill="#0E1A5C"/>
<path transform="translate(1580,229)" d="m0 0 3 1 14 19 11 15-2 1-5-5-3-6-5-4-3-6-8-11z" fill="#FEB837"/>
<path transform="translate(1249,1025)" d="m0 0h1l-1 7-5 8-6 4-4 2h-5l2-3 8-4 6-7 3-6z" fill="#FEBC37"/>
<path transform="translate(1891,841)" d="m0 0 2 1-12 12-8 7-17 17-2-1 33-33z" fill="#1F3D8F"/>
<path transform="translate(1467,1477)" d="m0 0 3 1 3 5v2h2v2l4 2 8 5 11 4v1h-8l-11-6-7-7v-2h-2l-3-5z" fill="#12236B"/>
<path transform="translate(1237,1122)" d="m0 0 5 1 5 5 3 6v4l2 1v10h-1v-7h-2l-4-10-4-5-4-3z" fill="#FEBB37"/>
<path transform="translate(1912,837)" d="m0 0 7 1 6 4 6 7 2 4v7l-2-1-3-8-6-7v-2l-6-2z" fill="#0F1E65"/>
<path transform="translate(1056,510)" d="m0 0h2l-2 6-10 16-1 3h-2l-1 4-2 1 1-5z" fill="#101D5D"/>
<path transform="translate(1382,898)" d="m0 0h7l13 5 16 8-1 2-24-11-3-1h-11z" fill="#101D5D"/>
<path transform="translate(2012,997)" d="m0 0 5 2 8 9 2 5v9l-2-1-4-13-1-3h-2v-2l-4-2v-2h-2z" fill="#0E1C63"/>
<path transform="translate(1254,1361)" d="m0 0 2 1-4 4-15 9-9 2 3-3 17-9z" fill="#11236B"/>
<path transform="translate(1866,1198)" d="m0 0m-2 1 3 1-4 3-22 11h-2l1-3z" fill="#182F7A"/>
<path transform="translate(1529,568)" d="m0 0 2 1-3 3-14 6-12 2-3-2 19-5z" fill="#FEB837"/>
<path transform="translate(1634,1327)" d="m0 0 3 1 9 11 12 14 5 6v2h-2l-8-10-11-13-7-8z" fill="#111E5E"/>
<path transform="translate(1797,1546)" d="m0 0m-25 1 7 1h9l9-1 2 2-8 2h-14l-5-2z" fill="#1B3688"/>
<path transform="translate(1693,1398)" d="m0 0 3 1 9 11 14 17-1 2-10-11-9-11-4-5v-2h-2z" fill="#101D5E"/>
<path transform="translate(381,221)" d="m0 0h2v3l-17 8-4-1 2-2h3v-2z" fill="#0E1B60"/>
<path transform="translate(1712,902)" d="m0 0 1 2h2l4 10 4 5 5 3v2l-5-2-6-5-5-10z" fill="#152A76"/>
<path transform="translate(852,1230)" d="m0 0 4 5 8 8 7 4v1l-7-1-10-9-2-4z" fill="#0D1A5C"/>
<path transform="translate(1249,334)" d="m0 0 5 5 7 9-1 2-5-5-4 2-2-7z" fill="#FEBB37"/>
<path transform="translate(1930,872)" d="m0 0 1 4-5 7-5 4-5 5 1-5 11-12z" fill="#132670"/>
<path transform="translate(1715,1496)" d="m0 0h2l9 12 5 4 5 7-1 2-7-7-7-9-3-3-3-4z" fill="#0C195D"/>
<path transform="translate(1932,1157)" d="m0 0 1 3-11 12-5 4-5 1 5-5 6-5h2l2-4z" fill="#101F64"/>
<path transform="translate(1213,1123)" d="m0 0 4 1-8 6-7 10h-1v-5l6-8z" fill="#0D195C"/>
<path transform="translate(1746,750)" d="m0 0 6 2 8 9 2 4v3l-3-1-5-9-8-7z" fill="#0B185D"/>
<path transform="translate(1185,297)" d="m0 0 1 3-8 14-4 2 2-6 7-11z" fill="#0C195E"/>
<path transform="translate(1829,1216)" d="m0 0m-2 1 3 1-4 3-16 8h-2l1-3z" fill="#182F7B"/>
<path transform="translate(1300,399)" d="m0 0 3 1 9 12 5 6v2l-4-2-13-17z" fill="#101C5D"/>
<path transform="translate(1761,1070)" d="m0 0 21 9 3 3-6-1-17-8z" fill="#0D195C"/>
<path transform="translate(1753,1204)" d="m0 0v3l-6 7-2 4-1 10-2-1v-7l4-10z" fill="#101C5D"/>
<path transform="translate(903,1007)" d="m0 0 4 2 5 4v2l-7 1-2 1z" fill="#FEBC37"/>
<path transform="translate(1753,1537)" d="m0 0 11 7 7 2 1 3-6-1-12-7z" fill="#14266F"/>
<path transform="translate(1363,1233)" d="m0 0 6 2v2h2l3 4v2l2 1-4 2-4-6-5-5z" fill="#FEBC37"/>
<path transform="translate(1615,1315)" d="m0 0 9 1 10 9 1 2-4-2-8-6-9-2z" fill="#0B165A"/>
<path transform="translate(1202,1029)" d="m0 0 6 5v2l4 2 5 4h-5l-10-9z" fill="#0B175B"/>
<path transform="translate(1097,442)" d="m0 0h2l-2 6-6 9-1 3h-2l-2 4 1-5z" fill="#121F5E"/>
<path transform="translate(1813,1538)" d="m0 0 2 1-1 2h-3v2l-10 5-4-1 8-5z" fill="#11226B"/>
<path transform="translate(1503,950)" d="m0 0 18 8 3 2-1 2-22-10z" fill="#0F1B5D"/>
<path transform="translate(1313,418)" d="m0 0 5 5 12 15-1 2-7-6-2-5-7-9z" fill="#FEB837"/>
<path transform="translate(1840,1107)" d="m0 0 21 9 1 2-6-1-16-8z" fill="#0D195C"/>
<path transform="translate(1564,480)" d="m0 0 2 1-7 7-4 3h-2v2l-5 2-1-2 12-9z" fill="#101E60"/>
<path transform="translate(199,1290)" d="m0 0h2l1 22-1-3h-2z" fill="#102068"/>
<path transform="translate(1593,992)" d="m0 0 6 2 14 7-4 1-16-8z" fill="#0C185B"/>
<path transform="translate(1175,315)" d="m0 0 1 3-7 11-3 1 2-6 5-8z" fill="#0D195B"/>
<path transform="translate(1329,873)" d="m0 0h2l-3 10-2 9-2-3 2-10z" fill="#FEB837"/>
<path transform="translate(1336,867)" d="m0 0 1 3-6 10-2 4-1-4 5-11z" fill="#0C185B"/>
<path transform="translate(1143,368)" d="m0 0v3l-1 3h-2l-1 4-1 3h-2l-1 4-2 1 1-5 7-12z" fill="#0E1B5D"/>
<path transform="translate(1382,152)" d="m0 0 3 1-17 11-4 1v-2z" fill="#0E1B5D"/>
<path transform="translate(1039,541)" d="m0 0v3l-10 14-3 2 2-4 8-13z" fill="#111E5E"/>
<path transform="translate(1289,384)" d="m0 0 4 2 4 7 4 4v2l-4-2-8-11z" fill="#0E1A5C"/>
<path transform="translate(1626,286)" d="m0 0 3 1v2h2l3 6 2 1 2 6-3-1-9-12z" fill="#0E1A5C"/>
<path transform="translate(1586,867)" d="m0 0 1 2-6 8h-3v2l-7 1 3-3 7-4z" fill="#0E1E66"/>
<path transform="translate(1438,563)" d="m0 0 4 2 13 7-4 1-13-7z" fill="#0E1B5C"/>
<path transform="translate(1519,514)" d="m0 0 2 1-5 5-10 5h-2v-2l14-8z" fill="#0E1A5C"/>
<path transform="translate(1670,1370)" d="m0 0 3 1 11 14 2 4-6-5-8-10z" fill="#101D5E"/>
<path transform="translate(204,1327)" d="m0 0h3l5 12-1 3-3-4-4-9z" fill="#182E7B"/>
<path transform="translate(1281,214)" d="m0 0h2l-1 3-9 5-3 2-4-1z" fill="#0E1B5D"/>
<path transform="translate(1485,942)" d="m0 0 6 2 12 6-4 1-14-7z" fill="#0C185B"/>
<path transform="translate(1155,349)" d="m0 0v3l-9 14-1-3 7-12z" fill="#0D1A5C"/>
<path transform="translate(1293,1268)" d="m0 0 2 1-9 9-6 3 2-4z" fill="#0F1C5D"/>
<path transform="translate(1337,1232)" d="m0 0 3 1-9 6-8 6 2-4 10-8z" fill="#111F62"/>
<path transform="translate(1643,1015)" d="m0 0 14 6v3l-16-7z" fill="#0F1C5D"/>
<path transform="translate(1356,471)" d="m0 0 3 1 3 3v2h2l3 6-1 2-10-12z" fill="#0F1B5D"/>
<path transform="translate(1254,1361)" d="m0 0 2 1-4 4-8 5h-2l1-3z" fill="#162A73"/>
<path transform="translate(1320,1245)" d="m0 0h2l-2 4-3 1-2 4-5 2 2-4z" fill="#0F1B5D"/>
<path transform="translate(2016,1038)" d="m0 0 1 3-8 5-4-1 3-3 7-3z" fill="#162C77"/>
<path transform="translate(1413,133)" d="m0 0h2v2l-13 8h-2v-2z" fill="#0E1A5C"/>
<path transform="translate(1701,1480)" d="m0 0 4 2 8 10-1 3v-2h-2l-4-6-4-4z" fill="#102065"/>
<path transform="translate(1858,1441)" d="m0 0 2 1-10 9-4 3-2-1 12-11z" fill="#0E1B5C"/>
<path transform="translate(1654,406)" d="m0 0 2 1-8 8-6 4-2-1z" fill="#111E5E"/>
<path transform="translate(1429,123)" d="m0 0h2l-2 4-9 5h-2v-2z" fill="#0E1A5C"/>
<path transform="translate(1444,114)" d="m0 0h2l-1 3-10 6-2-1 4-4z" fill="#0C185B"/>
<path transform="translate(200,1309)" d="m0 0 1 3h2l1 5v9l-2-4-2-8z" fill="#1C347F"/>
<path transform="translate(1279,372)" d="m0 0 4 2 6 9-1 2-9-11z" fill="#111E5E"/>
<path transform="translate(1720,1051)" d="m0 0 6 2 7 4-1 2-12-6z" fill="#0C185B"/>
<path transform="translate(1403,904)" d="m0 0 14 6v3l-14-7z" fill="#0F1B5D"/>
<path transform="translate(1388,844)" d="m0 0 5 1 5 3v2l-9-3-4-2z" fill="#FEB837"/>
<path transform="translate(1327,186)" d="m0 0 3 1-12 8h-2l1-3z" fill="#0E1A5C"/>
<path transform="translate(1929,1435)" d="m0 0 1 2-4 7-3 3-1-3z" fill="#12246B"/>
<path transform="translate(1806,1091)" d="m0 0 13 6 2 2-6-1-9-5z" fill="#0D1A5C"/>
<path transform="translate(1613 1e3)" d="m0 0 12 5v3l-14-6z" fill="#0F1C5D"/>
<path transform="translate(1132,387)" d="m0 0v3l-6 10h-2l1-4 4-7z" fill="#0F1C5D"/>
<path transform="translate(1752,1468)" d="m0 0 4 2 8 9-1 2-11-11z" fill="#101D5E"/>
<path transform="translate(1634,1327)" d="m0 0 3 1 9 11 1 2-4-2-9-10z" fill="#0F1C5D"/>
<path transform="translate(1902,1180)" d="m0 0m-1 1 3 2-10 5h-2l1-3z" fill="#19317C"/>
<path transform="translate(1934,1112)" d="m0 0h3l2 5v11h-1l-2-11z" fill="#12246B"/>
<path transform="translate(1733,397)" d="m0 0 1 4-3 6h-2l-2 5-1-4 6-8z" fill="#152971"/>
<path transform="translate(646,50)" d="m0 0 4 1-1 2-9 1-2-2z" fill="#162C76"/>
<path transform="translate(1466,101)" d="m0 0 2 1-5 4-6 3h-2v-2z" fill="#0E1A5C"/>
<path transform="translate(1307,1256)" d="m0 0 2 1-10 10-2-1 4-5z" fill="#0F1B5D"/>
<path transform="translate(1857,948)" d="m0 0 2 1-4 5-4 2h-5l2-2 7-4z" fill="#11236C"/>
<path transform="translate(1114,416)" d="m0 0v3l-6 10-1-3 5-9z" fill="#101D5D"/>
<path transform="translate(1309,410)" d="m0 0 7 6 1 4-4-2-4-5z" fill="#0F1D62"/>
<path transform="translate(1616,274)" d="m0 0 4 2v2h2l4 7-1 2-9-11z" fill="#121F5E"/>
<path transform="translate(1296,205)" d="m0 0h2l-1 3-9 5h-3l3-3z" fill="#0D195C"/>
<path transform="translate(1359,166)" d="m0 0h2v2l-9 6-4 1v-2z" fill="#0F1B5D"/>
</svg>
