<?xml version="1.0" encoding="UTF-8"?>
<svg version="1.1" viewBox="0 0 1024 1024" width="1024" height="1024" xmlns="http://www.w3.org/2000/svg">
<path transform="translate(0)" d="m0 0h1024v1024h-1024z" fill="#FCFCFC"/>
<path transform="translate(106,90)" d="m0 0h520l9 3 8 6 6 8 3 8v82h-38l-31 4-26 6-27 9-20 9-21 11-17 11-14 10-11 9-10 9-5 4h-326l-10-3-9-7-6-9-2-6v-138l3-9 7-9 10-6z" fill="#2A8CD4"/>
<path transform="translate(741,529)" d="m0 0h31l17 3 17 5 19 9 18 12 15 13 10 11 12 18 8 16 6 16 4 18 1 7v33l-4 21-6 18-8 16-7 11-4 7 69 69 4 8v12l-4 8-8 6-4 1h-9l-8-4-71-71-11 7-16 8-16 6-17 4-6 1h-36l-21-4-22-8-18-10-12-9-14-12-10-11-12-18-8-16-6-18-3-14-2-20 1-21 4-20 5-15 9-19 8-12 9-11 9-10 11-9 12-9 16-9 14-6 21-6z" fill="#F69E0B"/>
<path transform="translate(108,520)" d="m0 0h256l7 25 8 22 10 22 10 17 11 16 13 16 12 13 14 13 16 12 21 13 27 13 14 5 5 1v1h-426l-10-3-8-6-6-8-3-8v-138l4-10 7-8 7-5z" fill="#2A8CD4"/>
<path transform="translate(106,306)" d="m0 0h303l-7 11-12 22-8 17-10 28-7 28-4 26-1 10v46h-255l-10-4-8-6-7-11-1-4v-138l4-9 6-8 10-6z" fill="#2A8CD4"/>
<path transform="translate(744,571)" d="m0 0h24l16 3 16 6 11 6 13 10 9 9 8 11 8 14 5 13 4 20v20l-3 17-6 16-9 16-9 11-10 10-13 9-16 8-13 4-11 2h-28l-15-3-16-6-15-9-11-9-7-7-10-14-8-16-5-15-2-13v-19l3-17 5-14 8-15 10-13 11-11 13-9 16-8 16-5z" fill="#FDFDFD"/>
<path transform="translate(742,374)" d="m0 0h19l9 4 6 4 10 10 9-10 10-6 6-2h17l11 4 8 6 7 9 4 11 1 6v84h-34l-1-78-4-8-5-3-4-1h-8l-7 3-4 5-2 9v73h-35v-72l-2-10-2-4-5-3-4-1h-7l-8 3-4 7-1 80h-35v-116h30l2 13 2 1 2-5 8-8 7-4z" fill="#1E4041"/>
<path transform="translate(600,374)" d="m0 0h18l14 3 14 7 10 9 8 14 4 15v27l-4 16-6 11-7 8-10 7-13 5-12 2h-12l-15-3-12-5-10-8-8-11-5-12-2-10v-25l3-14 4-9 6-9 7-7 12-7z" fill="#1E4041"/>
<path transform="translate(475,374)" d="m0 0h19l14 3 12 6 9 8 6 10 3 7 1 11h-35l-3-9-4-5-9-3-11 1-7 4-6 12-1 5v23l3 10 4 6 5 4 5 2h11l6-3 4-4 3-10h36l-2 12-7 14-9 9-16 8-15 3h-13l-15-3-14-7-6-5-8-11-5-12-2-10v-26l3-14 4-10 8-11 7-6 12-6z" fill="#1E4041"/>
<path transform="translate(606,401)" d="m0 0h7l9 3 6 5 4 8 2 8v22l-3 10-6 8-7 4-10 1-9-2-8-7-4-9-1-4v-25l4-11 7-8z" fill="#FCFCFB"/>
<path transform="translate(251,593)" d="m0 0h9l10 4 7 8 3 8v9l-4 9-4 5-10 5h-13l-8-4-7-8-3-10 1-9 4-8 7-6z" fill="#212424"/>
<path transform="translate(251,162)" d="m0 0h9l10 4 7 8 3 8v8l-3 9-8 8-8 3h-11l-9-4-7-8-3-10 1-9 4-8 7-6z" fill="#212424"/>
<path transform="translate(254,377)" d="m0 0 9 1 8 4 6 7 3 8v9l-4 10-8 7-5 2h-14l-8-4-7-8-3-10 1-9 6-10 10-6z" fill="#212424"/>
<path transform="translate(161,593)" d="m0 0h8l8 3 8 7 4 8v12l-3 8-9 8-5 2h-13l-10-5-6-8-2-5v-11l4-9 8-7z" fill="#212424"/>
<path transform="translate(163,377)" d="m0 0 9 1 8 4 7 8 2 5v13l-4 8-8 7-5 2h-14l-8-4-6-7-3-7v-11l4-9 8-7z" fill="#212424"/>
<path transform="translate(161,162)" d="m0 0h8l10 4 5 5 4 6 1 3v12l-4 9-7 6-7 3h-11l-8-3-5-4-5-8-1-4v-10l3-8 7-7z" fill="#212424"/>
<path transform="translate(394,463)" d="m0 0h12l7 3 4 5 1 4v9l-4 8-7 4-11 1-9-3-4-5-1-2v-15l4-6z" fill="#1E3F40"/>
</svg>
