<?xml version="1.0" encoding="UTF-8"?>
<svg version="1.1" viewBox="0 0 1024 1024" width="1024" height="1024" xmlns="http://www.w3.org/2000/svg">
<path transform="translate(0)" d="m0 0h1024v1024h-1024z" fill="#FEFEFE"/>
<path transform="translate(610,259)" d="m0 0h27l24 4 24 8 21 11 17 12 15 14 11 14 7 10 11 21 6 16 5 21 2 18v72h8l12 3 12 6 10 9 7 9 5 10 4 15v63l-4 5h-2l-2 4-13 15-11 13-24 28-2 3h-2l-2 4-12 14-2 3h-2l-2 4-11 13-8 10h-2l-2 4-12 14-13 15-11 13-36 42-7-6-20-20-7-8-25-25-8-6-12-6-7-2h-21l-14 4-11 7-3 1v2l-8 7-6 8-4 8-3 10-1 7v10l2 10-5-1-19-9-15-10-14-12-10-10-9-11-10-15-10-21-5-17-2-11v-152l3-12 4-9 6-9 5-5 9-8 11-5 6-2 12-1v-82l4-22 7-21 8-17 10-15 9-11 9-10 11-9 12-9 14-8 19-8 21-6 12-2z" fill="#005BCA"/>
<path transform="translate(108,87)" d="m0 0h514l12 3 8 5 8 9 4 9 1 5v105l-52 1-24 4-19 5-20 8-19 10-15 10-16 13-14 14-1 2h-375l-12-5-7-7-6-12-1-9v-141l4-11 6-8 8-6 8-3z" fill="#00A69D"/>
<path transform="translate(103,321)" d="m0 0h350l-2 6-8 17-6 18-4 18-3 24-1 51-16 10-12 11-9 11-8 15-6 20-1 1h-276l-11-4-8-7-5-7-3-12v-141l4-13 7-9 8-6z" fill="#00A69D"/>
<path transform="translate(103,555)" d="m0 0h271l1 113 3 24 6 23 10 23 10 16 1 3h-301l-10-3-9-6-7-9-3-8-1-6v-142l4-12 9-10 10-5z" fill="#00A69D"/>
<path transform="translate(918,565)" d="m0 0h13l9 3 9 8 3 5 1 4v18l-4 8-9 10-9 11-12 14-9 11-10 11-9 11-9 10-8 10-24 28-13 15-24 28-9 11-10 11-8 10-13 15-9 11-9 10-9 11-9 10-9 11-9 10-9 11-11 13-12 13-6 4-9 2h-8l-10-3-8-6-6-6v-2h-2l-7-8-9-9-7-8-15-15-7-8-17-17-7-8-16-16-7-8-5-6-3-7v-19l5-9 6-5 8-4h16l7 3 8 7 16 16 7 8 11 11 7 8 17 17 7 8 13 13 5-5 10-11 9-11 9-10 9-11 9-10 9-11 9-10 9-11 12-14 13-15 24-28 11-13 12-14 11-13 12-14 13-15 9-11 8-9 9-11 12-13 9-11 4-5 8-6z" fill="#00AE22"/>
<path transform="translate(616,317)" d="m0 0h9l13 1 15 4 12 5 13 8 13 11 10 12 8 13 7 16 4 16 1 8v69h-196l-1-65 3-21 5-15 10-19 9-11 10-10 13-9 17-8 17-4z" fill="#FEFEFE"/>
<path transform="translate(619,559)" d="m0 0h11l9 2 12 6 10 9 7 11 4 13v15l-4 12-6 10-11 11-5 3-1 46-4 9-7 6-6 2h-8l-8-3-5-5-3-4-2-9-1-42-10-8-7-7-7-14-2-6v-16l4-13 7-11 10-9 13-6z" fill="#FEFEFE"/>
<path transform="translate(170,631)" d="m0 0h10l9 3 7 6 4 7 1 4v13l-5 10-7 6-8 3h-11l-9-4-7-6-3-5-2-7 1-12 4-8 8-7z" fill="#272727"/>
<path transform="translate(257,399)" d="m0 0h12l9 4 7 7 4 11v8l-4 10-5 6-10 5-9 1-10-3-8-6-5-8-1-4v-11l4-10 8-7z" fill="#272727"/>
<path transform="translate(167,165)" d="m0 0h15l10 5 7 9 2 7v10l-4 9-5 6-10 5h-14l-10-5-5-6-3-6-1-4v-9l4-10 5-6z" fill="#272727"/>
<path transform="translate(258,631)" d="m0 0h8l9 3 6 4 5 7 2 6v12l-5 10-5 5-7 4-3 1h-11l-8-3-7-6-5-10v-14l5-10 7-6z" fill="#272727"/>
<path transform="translate(255,165)" d="m0 0h13l10 5 7 8 2 5 1 11-3 9-6 8-10 5h-14l-10-5-6-7-3-8v-11l4-10 8-7z" fill="#272727"/>
<path transform="translate(169,399)" d="m0 0h13l10 5 7 8 2 7v12l-5 10-8 7-9 3-11-1-9-5-6-7-3-9v-11l5-10 7-6z" fill="#272727"/>
</svg>
