<?xml version="1.0" encoding="UTF-8"?>
<svg version="1.1" viewBox="0 0 1024 1024" width="1024" height="1024" xmlns="http://www.w3.org/2000/svg">
<path transform="translate(0)" d="m0 0h1024v1024h-1024z" fill="#FDFDFD"/>
<path transform="translate(114,108)" d="m0 0h519l10 4 5 4 6 10 1 2v121l-20-6-21-4-15-2h-49l-23 3-25 6-25 9-17 8-20 12-16 12-6 5h-304l-11-4-7-7-4-9v-144l5-10 8-7z" fill="#365B54"/>
<path transform="translate(732,517)" d="m0 0h72l2 2 5 30v6l9 2 22 8 8-1 23-11h5l7 8 11 12 7 8 13 14 5 6-1 5-13 18-6 9 1 7 5 19v4l10 3 25 10 3 2-2 16-4 27-4 24-5 2-17 1h-18l-2 5-12 19-2 3 1 8 9 25-1 4-10 8-44 29-3 1-6-4-7-7-8-7-10-9-25 2h-16l-24-2-15 14-12 11-5 2-16-10-10-7-18-12-11-8-2-4 7-20 4-12-13-22-4-6-36-2-3-2-4-27-4-30-1-13 10-4 24-8h2l1-7 5-20-1-5-13-19-5-8 3-5 13-14 7-8 16-17 7-7 5 1 24 12 7-1 25-10h2l2-13 5-24z" fill="#1D67C0"/>
<path transform="translate(560,271)" d="m0 0h16l23 2 22 4 17 5 21 9 15 8 14 9 14 11 16 15 8 10 9 12 11 18 8 17 6 18 5 21 2 14v33l-2 17-1 3h-25l3-22v-19l-2-19-5-22-8-21-6-11-1 39-3 17-5 19-11 31-14 37-5 13-3 1-14-4-1-2 9-28 7-25 3-11 1-7v-21l-4-16-5-11-15-28-4-11-1-5v-15l3-7 7-8 8-3 8-1v-2h-2v-2l-5-2-10-7-18-10-20-8-23-6-22-3h-25l-26 4-20 6-17 7-10 5-16 10-14 11-10 10-9 11-2 3h55l3 3 1 4-2 5-5 3-19 2 12 36 17 53 12 36 14 44 4 12v3h3l1-5 23-71 10-31v-7l-15-42-9-25-1-1-17-3-4-4v-6l3-4 8-1 33 2h26l29-1 5 4v6l-3 4-11 2-9 1 10 32 12 36 16 50 12 38-1 4-8 8-7 8-14 15-4 5-3-1-10-24-26-69-19 51-14 38-17 46-1 7 19 5 17 2h31l21-3 5 5-3 12-7 3-24 6-11 3h-13l-21-2-24-6-25-10-20-11-13-9-10-8-12-11-9-9-10-13-12-18-7-12-8-19-6-20-3-13-3-24v-16l2-26 6-27 7-18 9-19 7-11 9-13 9-11 17-17 13-10 19-12 19-9 20-7 20-5 15-2z" fill="#365B54"/>
<path transform="translate(112,531)" d="m0 0h238l7 19 7 16 12 21 7 10 10 13 9 10 8 8v2l4 2 12 11 19 14 19 11 20 9 16 6 19 5 23 4 25 2 3 15 2 5h-460l-8-3-7-6-4-7-1-4v-143l3-7 4-6 10-6z" fill="#365B54"/>
<path transform="translate(113,320)" d="m0 0h277l-4 6-10 14-12 21-10 23-8 26-4 22-2 19v19l3 33h-233l-8-4-7-8-3-7v-143l4-10 9-8z" fill="#365B54"/>
<path transform="translate(765,625)" d="m0 0 13 1 14 4 10 5 10 8 9 10 7 14 3 11v20l-4 15-7 12-10 11-10 7-11 5-12 3h-18l-15-4-11-6-10-8-8-10-8-16-2-10v-19l5-16 9-14 7-7 10-7 11-5z" fill="#FDFDFD"/>
<path transform="translate(411,400)" d="m0 0 3 3 11 30 8 23 10 27 16 43 19 48 14 37-1 4-19-12-10-8-8-6v-2h-2l-7-8-10-11-11-16-9-16-9-23-5-21-2-16v-29l4-22 5-18z" fill="#FDFDFD"/>
<path transform="translate(268,598)" d="m0 0h8l10 4 7 7 4 11-1 10-4 8-8 7-8 3h-8l-9-3-7-6-4-7-1-4v-10l3-8 7-8 6-3z" fill="#282829"/>
<path transform="translate(179,598)" d="m0 0h8l9 3 7 6 4 7 1 4v11l-5 10-7 6-7 3h-10l-10-4-7-7-3-7v-13l4-9 8-7z" fill="#282829"/>
<path transform="translate(272,387)" d="m0 0 9 2 9 6 5 8 1 3v14l-4 8-8 7-5 2-7 1-10-2-6-4-6-7-3-8v-10l4-9 7-7 7-3z" fill="#282829"/>
<path transform="translate(182,387)" d="m0 0 11 2 6 4 7 8 2 6v11l-5 10-8 7-5 2h-13l-10-5-6-8-2-6v-12l5-10 7-6 5-2z" fill="#282829"/>
<path transform="translate(265,177)" d="m0 0h13l10 5 6 8 2 4 1 8-2 9-5 8-7 5-6 2h-10l-10-4-7-8-3-7v-11l5-10 5-5z" fill="#282829"/>
<path transform="translate(177,177)" d="m0 0h13l8 4 8 9 2 7v10l-5 10-8 7-6 2h-11l-9-4-5-4-5-10v-13l5-10 6-5z" fill="#282829"/>
</svg>
