<?xml version="1.0" encoding="UTF-8"?>
<svg version="1.1" viewBox="0 0 1024 1024" width="1024" height="1024" xmlns="http://www.w3.org/2000/svg">
<path transform="translate(103,123)" d="m0 0h492l10 3 10 9 4 8 1 4v85l-15 2-27 4-28 7-24 8-20 9-18 10-16 11-10 8h-360l-9-3-8-6-5-8-2-8v-119l3-9 6-8 8-5z" fill="#248C9C"/>
<path transform="translate(618,262)" d="m0 0h40l26 3 23 5 20 6 21 9 16 8 14 8 14 10 9 7 14 12 14 14 9 11 10 13 11 18 11 21 9 23 6 20 4 21 2 17h-2l-7-8-18-18-8-10-18-36-7-12v-2l-64 13h-5l4 13 6 31 1 11-12 11-7 7-8 7-12 14-11 14-4 5h-63v22l-8 8h-2v2l-8 7-10 10-4 2v-51h-86l4 35 5 24 3 13 44-4 13-1h15v31l-45 4-15 1 12 25 12 21 12 17 11 14 12 14 1 1v19l-19-9-19-7-9-2h-9l-10 5-5 8-2 5-10-3-16-7-17-9-18-12-14-11-13-12-15-15-9-11-11-15-12-20-8-16-8-20-6-21-4-22-2-21v-31l2-20 5-28 7-24 10-24 9-17 11-17 11-14 12-13 16-16 14-11 21-14 18-10 23-10 22-7 21-5 20-3zm4 36-7 7-11 14-10 13-10 15-9 15-13 25v2l47 3h15v-94zm78 3 6 7 12 15 10 15 10 17 11 23 3 7 14-2 43-9-2-4-9-10-9-9-22-18-19-12-16-8-16-7-12-4zm-125 1-20 7-18 8-17 10-14 10-14 12-17 17-6 8 39 7 21 3 4-8 11-23 9-16 14-21 8-10v-2l3-1zm81 0v90h15l46-3 2-2-10-20-11-18-13-18-8-9-7-8-11-11zm-210 101-8 16-7 17-7 25-3 20-1 14h85l3-33 5-27 5-19-7-2-53-10zm104 16-5 18-5 27-2 19v12h86v-72l-64-4zm177-1-71 5v72h89l-2-19-5-28-7-27-1-3zm-307 110 1 17 5 24 6 20 9 20 5 8 12-1 59-9 1-2-5-18-4-21-4-38zm103 109-56 9 3 5 12 13 15 14 18 13 19 11 19 9 20 7 3-1-10-13-10-15-10-17-13-27-4-8z" fill="#016CC1"/>
<path transform="translate(100,312)" d="m0 0h338l-6 7-13 13-9 11-10 13-11 18-9 17-8 20-7 22-5 25-3 19h-257l-9-4-7-6-5-9-1-4v-119l3-8 4-6 7-6z" fill="#248C9C"/>
<path transform="translate(103,495)" d="m0 0h253l1 45 3 24 6 26 8 23 10 21 9 14 11 15v2h-301l-9-3-8-6-6-9-2-7v-121l4-11 7-8 8-4z" fill="#248C9C"/>
<path transform="translate(667,574)" d="m0 0h8l8 4 4 5 2 4 1 239 13-14 7-8 18-20 7-8 12-14 7-6 9-2 9 3 6 7 2 6-1 8-6 8-13 14-7 8-9 10-12 14-12 13-7 8-11 12-18 20-5 4-5 2-10-1-6-4-12-13-9-11-14-15-7-8-9-10-7-8-12-13-9-10-11-12-5-8-1-7 2-7 5-6 6-3h10l7 4 12 13 7 8 12 13 9 10 7 8 11 12 5 5-1-2v-237l3-8 6-5z" fill="#E90E3C"/>
<path transform="translate(817,466)" d="m0 0h11l6 4 8 8 7 8 22 24 7 8 27 30 12 14 8 9 3 8-1 8-4 6-5 4-3 1h-10l-9-6-7-8-18-20-11-12-7-8-11-12-1-2-1 242-4 8-6 5-3 1h-9l-6-3-5-6-2-5v-241h-2l-2 4-9 10-9 11-13 14-7 8-9 10-7 8-6 3h-9l-6-3-6-7-1-3v-9l3-7 13-14 9-11 8-8 9-11 7-7 9-11 12-13 7-8 9-10 7-8z" fill="#E90E3C"/>
<path transform="translate(752,623)" d="m0 0h32l-2 6-9 16-13 19-13 17-9 11-14 15-6 5v-44l12-14 9-12 10-15z" fill="#026BBF"/>
<path transform="translate(235,558)" d="m0 0 10 1 8 4 6 8 2 5v12l-5 10-8 6-6 2h-10l-10-5-5-6-3-9v-7l3-9 7-8 6-3z" fill="#1A2023"/>
<path transform="translate(155,558)" d="m0 0 10 1 7 4 5 5 4 8v12l-5 10-8 6-6 2h-9l-8-3-6-5-4-7-1-4v-9l4-10 8-7z" fill="#1A2023"/>
<path transform="translate(152,372)" d="m0 0h11l10 5 5 6 3 7v11l-5 10-8 6-8 2-10-1-8-4-6-8-2-7v-8l3-8 6-7z" fill="#1A2023"/>
<path transform="translate(234,186)" d="m0 0h8l10 4 7 8 2 6v11l-5 10-8 6-6 2h-10l-10-5-5-6-3-9 1-11 5-8 6-5z" fill="#1A2023"/>
<path transform="translate(154,186)" d="m0 0h8l9 4 5 4 5 10v11l-5 10-8 6-6 2h-9l-10-4-6-7-3-8v-8l3-8 7-8z" fill="#1A2023"/>
<path transform="translate(232,372)" d="m0 0h11l10 5 5 6 3 7v11l-4 8-9 8-7 2h-7l-9-3-6-5-4-8-1-4v-7l3-9 4-5 8-5z" fill="#1A2023"/>
</svg>
