<?xml version="1.0" encoding="UTF-8"?>
<svg
  xmlns="http://www.w3.org/2000/svg"
  viewBox="0 0 64 64"
  width="64"
  height="64"
>
  <!-- Cloud background in brand orange -->
  <path
    fill="#F67A3C"
    d="M48 36H20
       a12 12 0 1 1 0-24
       c3 0 6 1.3 8 3.6
       A10 10 0 0 1 48 22
       h.5
       C55 22 60 27 60 33
       s-5 11-11.5 11
       H48z"
  />

  <!-- White “C” cut-out -->
  <path
    fill="#FFFFFF"
    d="M30 32
       c0 4 2 6 6 6
       s6-2 6-6
       -2-6-6-6
       a4 4 0 0 0-4 4
       h4
       c0-1 1-2 2-2
       s2 1 2 2
       -1 2-2 2
       h-6
       v2z"
  />
</svg>
