<?xml version="1.0" encoding="UTF-8"?>
<svg version="1.1" viewBox="0 0 1025 927" width="1025" height="927" xmlns="http://www.w3.org/2000/svg">
<path transform="translate(218,438)" d="m0 0h6l3 3-1 7-7 10 3 30 8 1 125 36 31 9 2 3-7 3-33 6v2l20 20 36-5h3l-15-60v-6l2-1 26 1 38 1 7 1 1 1-1 8-16 50-1 2 10-2h7l175 30 7 2-2 4-38 28-6 4h-2l13 28 8 16 9 19v4l-22 5-9 2h-5v73l-2 4-11 4-42 11-64 16-58 15h-9l-39-14-41-15-45-16-19-7-4-4-1-3v-55l-13 3-74 15h-11l-36-12-59-20-6-3-3-4-1-3v-105l-10-3-32-11-1-3 15-7 29-12-6-7-29-29-2-3v-5l11-2 64-8 92-11 5-5 10-13 10-14z" fill="#1DBE8F"/>
<path transform="translate(218,438)" d="m0 0h6l3 3-1 7-7 10 3 30 8 1 125 36 31 9 2 3-7 3-33 6v2l17 17 2 4-1 1-73 10-61 8h-7l7 8 11 12 7 8 5 6 2 1-1 3-14 4-37 9-15 4h-4v2l17 4 44 11 10 2 1 1v46l-13 3-74 15h-11l-36-12-59-20-6-3-3-4-1-3v-105l-10-3-32-11-1-3 15-7 29-12-6-7-29-29-2-3v-5l11-2 64-8 92-11 5-5 10-13 10-14z" fill="#F55A1D"/>
<path transform="translate(845,444)" d="m0 0h10l14 7 14 8 19 7 21 5 16 3 6 4 4 6v98l9 2 10 5 5 6 3 10-1 17-4 20-6 17-10 18-10 13-9 9-15 11-10 4h-10l-10-5-10-8v-2l-3-1-5-5-10 6-9 3-9-1-13-5-17-8-19-12-11-9-15-15-7-10-8-15-3-14-2-15v-112l4-8 6-4 15-3 16-3 20-7 17-8 14-8z" fill="#FD8D28"/>
<path transform="translate(285,831)" d="m0 0h456l9 2 10 6 5 5 4 5 4 9 2 15-3 13-6 10-8 7-9 4-4 1h-463l-10-3-8-6-7-7-5-11-1-4v-12l3-11 7-10 9-8 10-4z" fill="#1976AC"/>
<path transform="translate(846,185)" d="m0 0h124l12 3 8 6 6 8 3 9v87l9 3 5 5 3 7v23l-4 18-5 13-7 13-9 11-12 12-10 6-6 2h-8l-10-3-14-10-9-9-10-14-3-5v-2h-66l-10-4-8-7-4-6-3-10v-129l3-10 7-9 7-5z" fill="#1A89C8"/>
<path transform="translate(409,659)" d="m0 0 4 1 8 20 18 37 3 7v3l19-3 24-5 35-6 53-10 17-3 5-1-2 1v73l-2 4-11 4-42 11-64 16-58 15h-9l-39-14-41-15-45-16-19-7-4-4-1-3v-101l7 1 52 13 7 2h7l43-11z" fill="#0DA77C"/>
<path transform="translate(906,10)" d="m0 0 3 1-1 6-12 20-17 28-9 15-34 56-15 25-14 23-7 10-5 1-11-7-21-16-7-5-4 1-7 7-8 7-7 7-8 7-8 6-6-1-4-16-8-48-1-4-16-8-40-19-23-11-2-4 8-4 50-14 79-22 123-33z" fill="#FD8D28"/>
<path transform="translate(311,26)" d="m0 0h19l15 4 11 6 10 9 8 11 5 13 2 12 12 1 13 5 10 9 6 9 3 7 1 5v10l-2 10-6 11-9 9-12 6-4 1-130 1-16-1-11-4-9-6-7-7-5-10-2-8v-13l3-10 6-9 7-7 9-5 9-3h15v-7l3-12 8-15 8-8 10-7 11-5z" fill="#BAF2FD"/>
<path transform="translate(218,438)" d="m0 0h6l3 3-1 7-7 10 3 30 8 1 125 36 31 9 2 3-7 3-33 6-14 1-34 5-93 13-30 3-10 2h-7l-19-6-73-18-12-3-35-35-2-3v-5l11-2 64-8 92-11 5-5 10-13 10-14z" fill="#E33B0D"/>
<path transform="translate(394,496)" d="m0 0 26 1 38 1 7 1 1 1-1 8-16 50-1 2 3-1h13l1 12v77l-5 2-44 8h-9l-44-10-57-12-45-10-3-2-1-2h-3l-7-8-13-14-7-8-2-4 84-11 57-8 3-1 35-5h3l-15-60v-6z" fill="#099771"/>
<path transform="translate(287,842)" d="m0 0h313l10 3 9 8 4 9 1 10-3 11-9 10-7 3-5 1h-312l-9-2-8-6-5-6-3-9v-8l3-10 7-8 9-5z" fill="#FD8E29"/>
<path transform="translate(905,564)" d="m0 0 7 1 24 11 15 6 14 5 7 6 3 7 1 5-1 17-4 20-6 17-10 18-10 13-9 9-15 11-10 4h-10l-10-5-10-8v-2l-3-1-11-14-7-10-8-14-6-17-3-15-1-10v-20l3-5 5-4 10-4 18-6 19-10z" fill="#0E5787"/>
<path transform="translate(838,502)" d="m0 0h25l12 4 15 8 10 9 8 9 8 16 4 15 1 6-5-1-6-3-7 1-13 8-17 8-21 7-6 4-3 5v20l2 16 2 9-1 4-19-5-14-7-11-9-9-10-8-16-3-9-2-13 1-18 4-15 8-15 11-12 8-6 13-6z" fill="#FDC943"/>
<path transform="translate(953,281)" d="m0 0h9l9 4 23 11 14 5 5 5 3 7v23l-4 18-5 13-7 13-9 11-12 12-10 6-6 2h-8l-10-3-14-10-9-9-10-14-6-12-4-15-1-7v-25l2-9 4-5 16-7 23-11z" fill="#FDC944"/>
<path transform="translate(57,543)" d="m0 0 8 1 64 16 22 6 9 3h7l10-2 37-4 86-12 34-5 10-1 8 7 13 13 2 4-1 1-73 10-61 8h-7l7 8 11 12 3 5-3 2-27 4h-11l-7-7-8-10-12-13-11-14-3-3-9 3-14 8-17 10-8 6-10-2-13-5-1-1-11-2-15-5-10-3v104h-1v-105l-10-3-32-11-1-3 15-7 29-12z" fill="#F65C1E"/>
<path transform="translate(458,558)" d="m0 0h7l175 30 7 2-2 4-38 28-8 5-48 8-25 4-35 6-25 4-2-1v-89h-6z" fill="#0DA77C"/>
<path transform="translate(218,438)" d="m0 0h6l3 3-1 7-7 10 3 29 4 32-17 3-22 4-29 4-93 12-9 1-35-35-2-3v-5l11-2 64-8 92-11 5-5 10-13 10-14z" fill="#F55B1D"/>
<path transform="translate(903,218)" d="m0 0 14 1 13 4 13 8 11 11 8 15 3 11v13l-3 1h-9l-9 4-21 10-16 7-3 4-2 9-1 25-9-1-13-5-10-7-7-6-9-13-5-12-1-5v-24l4-13 8-14 10-10 10-6 12-5z" fill="#79DBD6"/>
<path transform="translate(731,303)" d="m0 0 4 2-2 10-10 31 1 8 7 21v5l-1 1-13-1-10-2-6 20-2 2-9-2-82-34-22-9-3-2v-3l13-5 112-35z" fill="#FD8D28"/>
<path transform="translate(576,841)" d="m0 0h26l8 2 6-1 127 1 8 4 8 9 3 9v9l-4 11-5 6-7 4-4 1h-132l-9 2 1-2 10-4 8-9 3-11-1-10-4-9-8-7-10-3-24-1z" fill="#0E5787"/>
<path transform="translate(897,17)" d="m0 0 2 1-13 11-15 12-13 10-16 13-19 14-12 10-10 8-11 9-14 10-16 12-13 11-11 8v4l15 12 5 2-5 5-17 16-15 14-5 3-6-1-4-16-8-48-1-4-6-3 1-2 4 2 6-1 14-8 20-12 27-16 14-8 20-12 19-11 14-7 18-10 24-12 16-9 4-1v-2z" fill="#FA751F"/>
<path transform="translate(257,621)" d="m0 0 2 1v2l15 4 56 12 69 15 12 3-2 2-63 16-15 4h-7l-42-11-30-7-25-6-35-9-6-2v-2l19-5 49-12 2-1z" fill="#1EBF90"/>
<path transform="translate(394,496)" d="m0 0 26 1 38 1 7 1 1 1-1 8-17 53-21 63h-4l-19-73-12-48v-6z" fill="#FD8D28"/>
<path transform="translate(367,328)" d="m0 0h6l1 3-14 19-11 14-10 13-13 16-8 9-4-1-17-12-8 6-11 9-5-1v-26l-5-4-23-14-3-2 1-4 22-5 61-12z" fill="#FD8C28"/>
<path transform="translate(57,543)" d="m0 0 8 1 64 16 22 6 9 3 8 1v1l-9 2-18 10-17 10-8 6-10-2-13-5-1-1-11-2-15-5-10-3v104h-1v-105l-10-3-32-11-1-3 15-7 29-12z" fill="#FB7720"/>
<path transform="translate(214,266)" d="m0 0h13l8 3 9 8 4 8 1 3 11 3 8 7 3 7v10l-4 7-7 4-20 1h-47l-10-2-5-6-2-7 1-8 4-6 8-7 4-2 3-10 6-7z" fill="#BAF2FD"/>
<path transform="translate(221,487)" d="m0 0 27 7 65 19 63 18 10 3 2 3-7 3-33 6h-4v-2l-16 1-80-19-19-4-11-2v-1l7-1z" fill="#EB4814"/>
<path transform="translate(451,559)" d="m0 0h13l1 12v77l-5 2-44 8h-9l-10-3v-2h4l-4-7 1-5 7-7h3l1-3 7-3 10-4 12-37 9-26z" fill="#068A67"/>
<path transform="translate(403,352)" d="m0 0 4 2 9 57 1 7v8l-5 1-16-5-5 15h-4l-11-15-2-3-23-5-3-3 7-9 9-9 7-8 4-5h2l2-4z" fill="#FD8C28"/>
<path transform="translate(509,151)" d="m0 0h14l8 4 7 8 3 8v4l9 1 6 4 4 4 1 3v7l-5 4h-79l-5-4-1-7 4-7 10-5h6v-7l5-9 8-6z" fill="#BAF2FD"/>
<path transform="translate(162,571)" d="m0 0 4 2 12 14 7 8 9 10 8 10 3 3h11l27-4 4-1 10 10-1 3-14 4-37 9-15 4h-5l-1 2v-3l10-4-8-16-6-9-12-23-3-6v-2h-2v48l-4-3-2-1 1-8v-2l-7-2-1-3v-6h-2v-3l-3 2-3-1-3-4-1 2v-2l-7 1-2 1-5 2-7-2-7-1-13-5 3-1 13 4 4-1 14-9 19-11z" fill="#EB4713"/>
<path transform="translate(421,205)" d="m0 0h8l-2 5-12 16-13 19-10 13-2 3-4-1-13-10-4 2-5 5-4 1-2-18-11-10-8-7-2-4 41-7z" fill="#4DC9D6"/>
<path transform="translate(218,438)" d="m0 0h6l3 3-1 7-7 10 3 29 4 32-17 3-11 1-1-7-3-9-14-2-11-3 2-5 8-9 1-2h2l2-4 7-8 10-13 10-14z" fill="#FB771F"/>
<path transform="translate(224,520)" d="m0 0 19 4 39 9 46 11h16l-1 2-31 4-33 5-50 7h-10v-1h6z" fill="#D73007"/>
<path transform="translate(429,498)" d="m0 0h29l7 1 1 1-1 8-17 53-9 26-4 4h-3v5l-5 2-1 2 1-56 1-9z" fill="#FD8D28"/>
<path transform="translate(939,606)" d="m0 0 7 1 4 5v7l-4 7-7 7-7 8-9 9-7 8-10 10-4 2h-6l-9-7-9-10-9-12-1-2v-7l5-5 5-1 7 3 13 12h4l34-34z" fill="#FDC943"/>
<path transform="translate(357,330)" d="m0 0 7 1v2l-25 12-21 9-16 8-23 11-8 2-24-15-5-3 1-4 22-5 61-12z" fill="#FD8D28"/>
<path transform="translate(985,317)" d="m0 0h7l5 6v8l-7 9-13 14-7 8-9 10-8 7-6-1-10-10-9-11-6-7v-9l5-4h6l7 6 5 6 2 1h7l8-7 9-11 11-12z" fill="#0E5787"/>
<path transform="translate(727,326)" d="m0 0h1l-1 8-4 12 1 8 7 21v5l-1 1-13-1-11-2 2-12 2-4-23-1-51-4-28-3-16-2 3-2 23-2 43-2h60l3-10z" fill="#FA741F"/>
<path transform="translate(163,198)" d="m0 0 2 1 6 14 9 10 10 5 3 2-13 7-7 6-4 6-5 12-2-3-7-13-3-3v-2l-4-2-9-5-5-3 2-2 10-5 9-8 7-14z" fill="#BAF2FD"/>
<path transform="translate(358,335)" d="m0 0 2 1-10 8-17 11-26 16-14 8-1 3 4 2 3 5-4 1-13 11-4 3-5-1v-26l-1-3 11-4 21-10 16-8 30-13z" fill="#FA741F"/>
<path transform="translate(415,206)" d="m0 0h4l1 3-39 19-20 10-3 2-11-10-8-7-2-4 41-7z" fill="#4EC9D6"/>
<path transform="translate(831,561)" d="m0 0h38l1 4v18l-12 3h-27l-1-1v-23z" fill="#FD8B27"/>
<path transform="translate(481,63)" d="m0 0 2 2 4 10 5 7 7 5 7 3v2l-9 4-7 5-5 8-3 8h-2l-5-12-7-7-12-6v-2l11-6 7-7 5-10z" fill="#BAF2FD"/>
<path transform="translate(846,512)" d="m0 0 8 1 6 9 5 12 3 14-4 1h-32l1-10 7-20z" fill="#FE8E29"/>
<path transform="translate(731,149)" d="m0 0 5 1 15 12 5 2-5 5-17 16-15 14-3-1h2v-2l-3-1 2-11 4-14 8-17z" fill="#F65C1E"/>
<path transform="translate(215,463)" d="m0 0 3 1 2 4 3 29 2 12v8l-1-2-6-2-12-6-5-3-1-5 10-26 4-9z" fill="#FD8E29"/>
<path transform="translate(206,457)" d="m0 0 1 4-7 22-4 23h-10l-15-3-2-1 2-5 8-9 1-2h2l2-4 7-8 10-13 1-2z" fill="#FD8D28"/>
<path transform="translate(892,269)" d="m0 0h30v21h-30l-1-3v-12z" fill="#1984C3"/>
<path transform="translate(794,561)" d="m0 0h24l1 25h-25l-1-5v-17z" fill="#FE8E29"/>
<path transform="translate(421,498)" d="m0 0h8v37l-1 9-1 44-2 17h-1l-1-5-1-17-1-35z" fill="#F55C1D"/>
<path transform="translate(541,385)" d="m0 0 2 1 4 9 1 3 4 2 7 4 3 3-9 5-5 5-5 10-3-3-4-8-7-6-7-3 12-9 5-7z" fill="#88E0DD"/>
<path transform="translate(904,229)" d="m0 0 6 1 7 14 3 10v4h-27l1-9 5-13 4-6z" fill="#1985C4"/>
<path transform="translate(129,299)" d="m0 0 2 3 4 8 7 6 6 3v2l-8 4-5 5-5 9-2-1-5-10-6-5-6-3 3-3 8-6 4-6z" fill="#B7F1FB"/>
<path transform="translate(871,518)" d="m0 0 7 2 9 7 8 7 7 11 1 4h-23l-4-16-5-13z" fill="#FD8C28"/>
<path transform="translate(400,364)" d="m0 0 1 2-3 11-3 16-5 24-2 2h-4v2l-4 4h-2l-5-8h3l1-6 12-25 7-16z" fill="#FA761F"/>
<path transform="translate(655,265)" d="m0 0h7l2 2v7l-4 3-26 8-7-1-3-4 1-4 4-3z" fill="#FA731F"/>
<path transform="translate(256,394)" d="m0 0h5l3 3-1 6-18 18-5 6-4 1-5-3v-7l23-23z" fill="#FA751F"/>
<path transform="translate(859,269)" d="m0 0h22l-1 21h-21l-1-3v-15z" fill="#1985C3"/>
<path transform="translate(709,253)" d="m0 0h11l2 3v6l-5 3-25 4h-6l-4-4 1-6 3-2z" fill="#FA741F"/>
<path transform="translate(618,196)" d="m0 0 6 1 1 1v6l-4 5-16 12-6 5-7-1-1-2v-6l14-12z" fill="#FA741F"/>
<path transform="translate(601,283)" d="m0 0h5l3 3-1 6-5 4-22 11h-6l-3-4 1-5 5-4 16-8z" fill="#F9731F"/>
<path transform="translate(798,598)" d="m0 0h22l4 19 2 7-1 4-10-6-9-9-7-11z" fill="#FD8D28"/>
<path transform="translate(505,315)" d="m0 0 6 1 1 1v8l-11 17-7 9-5-1-3-4 1-5 10-16z" fill="#FA761F"/>
<path transform="translate(574,232)" d="m0 0 5 1 2 2v6l-21 21-6 1-3-3v-7l13-13h2v-2h2v-2z" fill="#FB7820"/>
<path transform="translate(825,519)" d="m0 0 2 1-4 13-3 15-4 1h-19l2-6 6-8 5-5 8-7z" fill="#FD8C28"/>
<path transform="translate(793,388)" d="m0 0 7 1 17 13 7 8-1 4-3 3-6-1-8-7-13-10-3-5 2-5z" fill="#FA7820"/>
<path transform="translate(664,169)" d="m0 0 4 2 1 7-8 6-18 10h-6l-3-5 2-5 24-14z" fill="#F9741F"/>
<path transform="translate(537,272)" d="m0 0 5 1 3 5-3 5-12 14-7 8h-5l-3-4 1-5 7-9 11-12z" fill="#FA751F"/>
<path transform="translate(388,450)" d="m0 0h5l3 4 3 18v11l-2 2h-6l-3-3-3-13-1-16z" fill="#FD8B28"/>
<path transform="translate(416,210)" d="m0 0 2 1-11 7-23 14-15 9-4 1 4 2 3 3-2 4-7 7h-3l-1-19 8-5 40-20z" fill="#1B8AC9"/>
<path transform="translate(549,312)" d="m0 0h5l2 3-1 6-11 9-11 8h-5l-3-4 1-5 10-9z" fill="#FA7620"/>
<path transform="translate(477,369)" d="m0 0h6l3 4-3 9-8 17-3 3-6-1-2-3 1-7 8-16z" fill="#FD8827"/>
<path transform="translate(746,363)" d="m0 0 6 1 21 10 3 3v5l-3 3-7-1-19-9-5-4 1-6z" fill="#FA751F"/>
<path transform="translate(761,247)" d="m0 0h8l3 3v5l-4 3-20 3h-6l-4-4 2-6 4-2z" fill="#FA741F"/>
<path transform="translate(933,269)" d="m0 0h20v13l-9 4-8 4h-3z" fill="#1A86C4"/>
<path transform="translate(422,583)" d="m0 0h1l1 17 2-4 1 2 4-3 1-4 6-2-5 17-6 18h-4l-7-27 1-3 2 3v3h3z" fill="#FB761F"/>
<path transform="translate(863,302)" d="m0 0h19l4 17 1 7-11-6-9-9-4-7z" fill="#1884C2"/>
<path transform="translate(886,234)" d="m0 0 2 1-5 17-2 6h-18l2-5 8-10 8-6z" fill="#1987C7"/>
<path transform="translate(924,233)" d="m0 0 8 4 10 9 6 8 1 4h-17l-7-21z" fill="#1988C7"/>
<path transform="translate(509,346)" d="m0 0 6 1 1 6-11 13-4 3-5-2-1-2v-6l12-12z" fill="#FB7A21"/>
<path transform="translate(881,561)" d="m0 0h23l1 4-15 9-7 3-1-1z" fill="#FD8A27"/>
<path transform="translate(832,598)" d="m0 0h9l1 1 1 27-2 2-5-10-4-16z" fill="#FD8C28"/>
<path transform="translate(255,396)" d="m0 0h6l1 5-6 7-4 1v2h-5l-4 4-3-1 1-4z" fill="#FE8E29"/>
<path transform="translate(346,255)" d="m0 0h3l-2 4-8 6-3 3h-2l-2 4-8 11-6 12-3 10h-2l1-8 5-12 8-13 7-8z" fill="#5ACED7"/>
<path transform="translate(846,512)" d="m0 0 8 1 6 9 5 12 3 14-4 1h-32l1-8h1v5l32 1-6-20-6-11-1-1h-7l-5 8-6 17-1-4 6-17z" fill="#FB7B21"/>
<path transform="translate(893,302)" d="m0 0h14l-4 8-2 17-2-2-4-10-2-9z" fill="#1A84C0"/>
<path transform="translate(470,382)" d="m0 0 4 2-2 3h-2v2l7 1 1 3-5 8-5 1-4-4 1-7z" fill="#FA7820"/>
<path transform="translate(794,561)" d="m0 0h24l1 25h-25l-1-5v-17zm1 1-1 14 1 8h22v-22z" fill="#FB771F"/>
<path transform="translate(208,508)" d="m0 0 5 1 11 6 2 4-17 2z" fill="#F65C1E"/>
<path transform="translate(423,558)" d="m0 0 2 4 2 2v24l-2 17h-1l-1-5-1-17v-11z" fill="#F7641E"/>
<path transform="translate(723,363)" d="m0 0h4l4 13h-2l-1 4-8-2 2-2-2-1v-8z" fill="#FD8D28"/>
<path transform="translate(871,518)" d="m0 0 7 2 1 2-4-1 3 10 3 13v3l19-1-5-8 1-2 6 9 1 4h-23l-4-16-5-13z" fill="#FC8023"/>
<path transform="translate(798,598)" d="m0 0h22l4 19 2 7-1 4-8-5h3l4 2-4-14-2-11-17 1 5 8-1 2-6-9z" fill="#FB781F"/>
<path transform="translate(825,519)" d="m0 0 2 1-4 13-3 15-4 1h-19l2-6 2-1-1 5 18-1 5-23-9 6-4 2 4-5z" fill="#FB7920"/>
<path transform="translate(881,237)" d="m0 0 2 1-10 9-7 8 15 1 1-10 2-3-1 9-2 6h-18l2-5 8-10z" fill="#177DB8"/>
<path transform="translate(426,544)" d="m0 0h1v20l-1 22h-1l-1-26-1 12h-1v-26h1l1 5z" fill="#EF4E17"/>
<path transform="translate(770,176)" d="m0 0 5 2 10 8 9 6 5 1 2-4 6-9 1 2-7 11-2 2-6-1-13-9-10-8z" fill="#FB7E22"/>
<path transform="translate(833,541)" d="m0 0h1v5l32 1-1-4h2l1 5-4 1h-32z" fill="#FB7D22"/>
<path transform="translate(333,538)" d="m0 0 9 3 2 3-16 1 2-5z" fill="#E43C0E"/>
<path transform="translate(929,245)" d="m0 0 2 3 2 7h13l-5-7 1-2 6 8 1 4h-17l-3-9z" fill="#187DB8"/>
<path transform="translate(871,518)" d="m0 0 7 2 1 2-4-1 3 10 3 13v3h-2l-4-17-4-10z" fill="#FB7B21"/>
<path transform="translate(245,613)" d="m0 0 4 2 1 3-2 2h-6l-1-3-3-1 5-2z" fill="#E53E0F"/>
<path transform="translate(122,314)" d="m0 0 1 2v3 2l2 2v2l-6-1-4-4 5-5z" fill="#7BDCD7"/>
<path transform="translate(832,598)" d="m0 0h9l-1 2h-6l4 17 2 5-1 3-4-10-3-13z" fill="#FB7920"/>
<path transform="translate(421,498)" d="m0 0h8v20h-1l-1-19-3 1-1 9-2 2z" fill="#EB4713"/>
<path transform="translate(397,474)" d="m0 0h2v9l-2 2h-6l-3-3v-3h4v4h3z" fill="#F66A1D"/>
<path transform="translate(820,603)" d="m0 0h1l5 21-1 4-8-5h3l4 2-4-14-1-6z" fill="#FB7B21"/>
<path transform="translate(138,593)" d="m0 0h6l2 2 4 2v1h-13v-4z" fill="#F65B1E"/>
<path transform="translate(498,358)" d="m0 0 5 1 2 2-5 5-5-1v-6z" fill="#FD8C28"/>
<path transform="translate(358,335)" d="m0 0 2 1-10 8-3 2-3-1h2l-1-3z" fill="#F5601C"/>
<path transform="translate(869,311)" d="m0 0 7 6 8 5-1-8 2 2 2 6-1 4-11-7-6-6z" fill="#1676B0"/>
<path transform="translate(799,400)" d="m0 0 5 1 2-1v2h4v5h-4l-7-6z" fill="#FE8E29"/>
<path transform="translate(392,451)" d="m0 0 3 1 2 7 2 15h-2l-1-2-2-16z" fill="#FB7F23"/>
<path transform="translate(881,237)" d="m0 0 2 1-10 9-8 9v-3l8-10z" fill="#177AB4"/>
<path transform="translate(256,394)" d="m0 0h5l3 3-1 6-2-2v-5l-7 2-3 3-2-1z" fill="#FB7D22"/>
<path transform="translate(250,621)" d="m0 0 5 1 2 1-1 3-8 2z" fill="#E53D0E"/>
<path transform="translate(443,574)" d="m0 0h2l-2 7 1 6-4 2-1-4z" fill="#0D9A77"/>
<path transform="translate(602,349)" d="m0 0 5 1-4 2h-11l3-2z" fill="#FB761F"/>
<path transform="translate(821,533)" d="m0 0h1l-1 10-2 6h-3v-2l2-1z" fill="#FB7C21"/>
<path transform="translate(924,233)" d="m0 0 8 4 1 2-5-2 1 7-3-4z" fill="#1779B3"/>
<path transform="translate(617,89)" d="m0 0 3 1-3 3 8 4-1 2-9-5v-4z" fill="#FB7E22"/>
</svg>
