<?xml version="1.0" encoding="UTF-8"?>
<svg version="1.1" viewBox="0 0 1024 1536" width="1024" height="1536" xmlns="http://www.w3.org/2000/svg">
<path transform="translate(294,595)" d="m0 0h9l5 2 16 3 16 6 11 6 9 8 6 9 2 6v11l-4 8-3 4-3 22-5 26-5 16-5 11 1 7-2 4-4 2h-9l-9-5-10-2-3 11-4 11 12 7 11 11 10 17 5 16 5 32 4 31 3 7 4 3 66 1 6 3 5-2 14-7 10-3h14l12 5 6 5 6 9 6 12 4 6 26 1-1-4v-8l3-6 4-2h19l-1-13-1-26v-14h-124l-8-4-5-6-2-11 10-62 9-58 6-36 5-8 7-5 4-1h274l8 4 5 6 2 7-1 14-14 86-9 54-3 10-7 7-8 3h-94l7 49v4h23l4 2 2 3 1 9-1 6h187l6 3 4 7v8l-4 6-4 3-18 1v310l-2 8-6 7-4 2h-209l-6-4-4-5-1-3-1-301v-15h-279l1 17 1 3 41 7 73 13 20 5 10 4 10 9 5 10 1 3v23l-5 23-4 12 2 10 21 71 15 51 1 5-5 1 7 20 5 6 15 7 20 9 9 6 2 6-2 5-4 2-81 1-4-2-2-5v-18l3-9-1-6-3-6v-2l-12 5-4-1-9-24-9-25-7 29-1 2h-7l-5 17-1 11 12 5 17 8 10 7 2 3-1 7-3 3-5 1h-26l-19-2-16-5-15-6-4-4v-7l7-19 4-10 4-15-8-2 1-9 23-102 2-12-15-4-1 5-7 8-9 4-10 1h-42l12 48 13 50 16 61 2 8v8l-3 3h-6l-3-3-12-44-14-51-10-38-11-41-5-1-76-1-2 10-17 62-27 99-3 7-2 1h-6l-3-3 1-10 14-55 12-45 16-61 1-4-31-1-12-3-13-7-12-12-8-13-5-12-5-19-4-26-11-93-5-41v-14l3-8 5-6 6-3 4-1h49l10 4 5 6 3 9 2 9 4-28 3-14-15-5-9-5-11-9-8-11-5-11-1-6v-13l3-11 6-11 11-12 14-9 21-10 14-7 10-9 8-10 6-15 5-16 8-16 7-9 11-11 13-8 12-5 15-4zm185 108-3 5 4 4h184l3-3-1-6zm1 30-7 1-2 3 1 5 1 1h155l3-3v-5l-4-2zm-11 33-3 2v6l1 1h191l3-3-1-5-3-1zm-6 31-2 3 1 5 1 1h118l2-3v-5l-1-1z" fill="#033A7D"/>
<path transform="translate(294,595)" d="m0 0h9l5 2 16 3 16 6 11 6 9 8 6 9 2 6v11l-4 8-3 4-3 22-5 26-5 16-5 11 1 7-2 4-4 2h-9l-9-5-10-2-3 11-4 11 12 7 11 11 10 17 5 16 5 32 4 31 3 7 4 3 66 1 6 3 5-2 14-7 10-3h14l12 5 6 5 6 9 3 9-11-3h-11l-10 3-11 7-4 4h-18l1 8-7 2-58 11-22 4h-11l-11-4-10-9-7-10-1-2-2 20v23l1 3 41 7 73 13 20 5 10 4 10 9 5 10 1 3v23l-5 23-4 12 2 10 21 71 15 51 1 5-5 1 7 20 5 6 15 7 20 9 9 6 2 6-2 5-4 2-81 1-4-2-2-5v-18l3-9-1-6-3-6v-2l-12 5-4-1-9-24-9-25-7 29-1 2h-7l-5 17-1 11 12 5 17 8 10 7 2 3-1 7-3 3-5 1h-26l-19-2-16-5-15-6-4-4v-7l7-19 4-10 4-15-8-2 1-9 23-102 2-12-15-4-1 5-7 8-9 4-10 1h-42l12 48 13 50 16 61 2 8v8l-3 3h-6l-3-3-12-44-14-51-10-38-11-41-5-1-76-1-2 10-17 62-27 99-3 7-2 1h-6l-3-3 1-10 14-55 12-45 16-61 1-4-31-1-12-3-13-7-12-12-8-13-5-12-5-19-4-26-11-93-5-41v-14l3-8 5-6 6-3 4-1h49l10 4 5 6 3 9 2 9 4-28 3-14-15-5-9-5-11-9-8-11-5-11-1-6v-13l3-11 6-11 11-12 14-9 21-10 14-7 10-9 8-10 6-15 5-16 8-16 7-9 11-11 13-8 12-5 15-4z" fill="#FDA700"/>
<path transform="translate(304,958)" d="m0 0 2 1 1 3 41 7 73 13 20 5 10 4 10 9 5 10 1 3v23l-5 23-4 12 2 10 21 71 15 51 1 5-5 1 7 20 5 6 15 7 20 9 9 6 2 6-2 5-4 2-81 1-4-2-2-5v-18l3-9-1-6-3-6v-2l-12 5-4-1-9-24-9-25-7 29-1 2h-7l-5 17-1 11 12 5 17 8 10 7 2 3-1 7-3 3-5 1h-26l-19-2-16-5-15-6-4-4v-7l7-19 4-10 4-15-8-2 1-9 23-102 2-12-13-3-1-1v-12l-3-9-7-8-9-4-4-1-145-1-10-5-4-5-4-10-7-28v-5l21 3h24l18-2 21-5 19-7 15-8 6-6z" fill="#043A7D"/>
<path transform="translate(460,666)" d="m0 0h266l5 4v9l-22 135-3 9-3 3-3 1h-262l-5-3-2-3v-8l19-118 4-23 4-5zm19 37-3 5 4 4h184l3-3-1-6zm1 30-7 1-2 3 1 5 1 1h155l3-3v-5l-4-2zm-11 33-3 2v6l1 1h191l3-3-1-5-3-1zm-6 31-2 3 1 5 1 1h118l2-3v-5l-1-1z" fill="#A6D9FA"/>
<path transform="translate(101,833)" d="m0 0h49l10 4 5 6 3 9 2 13h2l3 21 6 25 8 22 6 13 8 15 14 18 5 6 6 1-3 2h-41l-4-1 1 8 6 24 5 12 5 4 7 3 145 1 11 4 8 7 4 8 1 4v7l-3 10-7 8-9 4-10 1h-42l12 48 13 50 16 61 2 8v8l-3 3h-6l-3-3-12-44-14-51-10-38-11-41-5-1-76-1-2 10-17 62-27 99-3 7-2 1h-6l-3-3 1-10 14-55 12-45 16-61 1-4-31-1-12-3-13-7-12-12-8-13-5-12-5-19-4-26-11-93-5-41v-14l3-8 5-6 6-3z" fill="#FDA700"/>
<path transform="translate(763,411)" d="m0 0h24l18 4 14 6 14 9 10 9 8 8 9 14 5 10 5 16 2 17v10l-2 17-5 17-9 17-11 13-7 7-14 10-17 8-15 4-7 1h-22l-15-3-17-6-6-1-23 9h-8l-3-4 1-9 5-20-2-5-7-10-5-11-5-17-1-7v-27l3-15 5-15 6-11 8-11 13-13 15-10 17-7 12-3z" fill="#043A7D"/>
<path transform="translate(294,595)" d="m0 0h9l5 2 16 3 16 6 11 6 9 8 6 9 2 6v11l-4 8-3 4-3 22-5 26-5 16-5 11 1 7-2 4-4 2h-9l-9-5-10-2-6-4-7-7-3-4-9 21-8 14-12 16-9 10-9 9-14 10-14 8-16 5-6 1h-22l-13-4-9-5-11-9-8-11-5-11-1-6v-13l3-11 6-11 11-12 14-9 21-10 14-7 10-9 8-10 6-15 5-16 8-16 7-9 11-11 13-8 12-5 15-4z" fill="#043A7D"/>
<path transform="translate(446)" d="m0 0h9v162h14l1 1v13l17 3 16 6 16 10 13 12 10 14 8 17 4 14 2 12v14h-72l-3 9-6 9-8 6-11 4h-12l-10-4-10-9-6-12v-3h-72v-19l4-18 7-16 9-14 11-12 10-8 12-7 17-6 13-2 1-13 1-1h15z" fill="#053B7D"/>
<path transform="translate(457,651)" d="m0 0h274l8 4 5 6 2 7-1 14-14 86-9 54-3 10-7 7-8 3h-94l7 49v4h19v1h-78l-2 1-9 1v3 3l-2 4v3l6 1 1 1 39 1v1h-56l1-9 1-5 5-3 2-1h-6v-2h19l-1-13-1-26v-14h-124l-8-4-5-6-2-11 10-62 9-58 6-36 5-8 7-5zm3 15-5 4-3 12-20 125-1 6v8l4 5 3 1h262l5-3 3-5 15-90 8-50v-9l-5-4z" fill="#043979"/>
<path transform="translate(558,895)" d="m0 0h82l4 2 2 3 1 9-1 6h187l6 3 4 7v8l-4 6-4 3h-19l-1 1h-229l-1 14h-1v-15h-279l1-17 1-10 3 3 7 10 9 8 11 4h11l37-7 49-9v-8l18-1 8-7 12-6 5-1h11l12 4 6 9 26 1-1-4v-8l3-6 4-1 6 1-1 2-5 2-1 7-1 6h16l-8-3 1-4v-3l2-5-2-2 11-1z" fill="#043A7C"/>
<path transform="translate(844,651)" d="m0 0h24l2 1 1 3 1 14 12 5 3 2 5-1 11-9 6 1 15 15-1 6-9 10 2 5 4 12v3h18l2 2v25l-2 2h-18l-2 10-4 8 1 5 7 7 2 5-7 8-10 10-5-1-10-9-6 2-9 4-6 1v15l-2 3h-25l-2-5v-13l-9-2-9-5-4 2-10 8-5-1-14-14-1-6 8-8 2-5-5-10-2-9h-18l-1-1v-25l2-3 17-1 5-14 1-6-9-10 1-6 12-12 4-3 5 1 10 9 5-1 14-5 1-16zm9 52-10 3-8 6-6 9-2 5v13l3 9 9 10 8 4 4 1h12l10-4 7-6 5-8 2-9v-7l-4-11-8-9-10-5-5-1z" fill="#043A7C"/>
<path transform="translate(101,833)" d="m0 0h44v1l-9 1h-11l-3 1-2 7-1 17 3 41 8 74 5 42 4 25 5 15 6 11 8 8 10 6 10 5v2h10v1l-8 1h-22l-12-3-13-7-12-12-8-13-5-12-5-19-4-26-11-93-5-41v-14l3-8 5-6 6-3z" fill="#F59101"/>
<path transform="translate(387,1079)" d="m0 0h2l6 20 12 35 9 24 6 17 3 5-1 2-2-4-7 29-1 2h-7l-5 17-1 11 12 5 17 8 10 7 2 3-1 7-3 3-5 1h-26l-19-2-16-5-15-6-4-4v-7l7-19 4-10 4-15-8-2 1-9 23-102z" fill="#01295A"/>
<path transform="translate(306,597)" d="m0 0 18 3 16 6 11 6 9 8 6 9 2 6v11l-4 8-3 4-3 22-5 26-5 16-6 13-3-2h-10l-9 1-11-8-8-9-1-4 6-12 4-17-2 4h-2l-3-11-4-7-11-7-1-4v-21l2-12 6-16 7-10z" fill="#043A7D"/>
<path transform="translate(832,940)" d="m0 0m-16 1h16v1l-15 1v310l-2 8-5 6v-3l4-6 1-285h-229v5h-1l-1-14 1-22h230z" fill="#002959"/>
<path transform="translate(304,958)" d="m0 0 2 1 1 3 41 7 73 13 20 5 10 4 10 9 5 10 1 3v23l-5 23-4 12-3-1-5-16-8-17-9-12-10-9-14-8-20-9-19-6-35-9-36-8-5-3v-2l-2-1 8-6 3-3z" fill="#01295A"/>
<path transform="translate(294,595)" d="m0 0h9l3 1-2 4-5 5-6 12-4 13-1 8v21l1 4 10 6 4 5 3 9v5h2l3-9 1 3-3 9-3 13-5 9 2 5 7 8 10 7 9-1h10l5 6-2 6-4 2h-9l-9-5-10-2-6-4-7-7-2-5-2-1 1-4-9 3-10-1-9-5-8-9-3-9v-15l4-10 9-7 5-2v-16l2-18 4-15 6-11 3-5z" fill="#002859"/>
<path transform="translate(432,841)" d="m0 0h272v1h-94l7 49v4h19v1h-78l-2 1-9 1v3 3l-2 4v3l6 1 1 1 39 1v1h-56l1-9 1-5 5-3 2-1h-6v-2h19l-1-13-1-26v-14h-123z" fill="#00295A"/>
<path transform="translate(368,1202)" d="m0 0 10 1 29 5-5 18-1 11 12 5 17 8 10 7 2 3-1 7-3 3-5 1h-26l-19-2-16-5-15-6-4-4v-7l7-19 4-10z" fill="#FDA802"/>
<path transform="translate(821,462)" d="m0 0h6l6 5 1 2v7l-4 6-75 75-6 1-5-3-35-35-2-3v-9l4-5 8-1 6 4 19 19 5 6 4-2 52-52 11-12z" fill="#FDA701"/>
<path transform="translate(489,1210)" d="m0 0h3l8 21 6 5 22 10 16 8 5 5 1 4-2 5-4 2-81 1-4-2-2-5v-18l3-9-1-6-3-6 1-3 27-10z" fill="#FDA700"/>
<path transform="translate(359,658)" d="m0 0h1v10l-5 29-5 20-5 11-3 7-3-2h-10l-9 1-11-8-8-9-1-4 6-12 4-17 4-8 8-3 17-4 16-8z" fill="#F5B569"/>
<path transform="translate(190,1091)" d="m0 0 15 1-4 16-19 70-23 84-3 7-2 1h-6l-3-3 1-10 14-55 12-45 16-61z" fill="#063B7B"/>
<path transform="translate(287,1092)" d="m0 0h14l3 9 10 39 13 50 16 61 2 8v8l-3 3h-6l-3-3-12-44-14-51-10-38-10-37z" fill="#073C7B"/>
<path transform="translate(171,865)" d="m0 0h1l3 21 6 25 8 22 6 13 8 15 14 18 5 6 6 1-3 2h-30l-13-2-4-1-4-19-4-28-2-25v-36l1-9z" fill="#F59101"/>
<path transform="translate(458,877)" d="m0 0h14l12 5 6 5 6 9 3 9-11-3h-11l-10 3-11 7-4 4h-18l-2-18-2-5 1-4 10-6 13-5z" fill="#F5B568"/>
<path transform="translate(418,278)" d="m0 0h66l-3 9-6 9-8 6-11 4h-12l-10-4-10-9-6-12z" fill="#A5D9FA"/>
<path transform="translate(368,1202)" d="m0 0 10 1 29 5-5 18-2 10-1 1-9-1-16-6-10-4-1-4 5-19z" fill="#F5B569"/>
<path transform="translate(749,1071)" d="m0 0h20l6 5 2 5v13l-3 7-4 3-5 1h-11l-7-2-3-3-1-2v-19l3-6z" fill="#002859"/>
<path transform="translate(749,1130)" d="m0 0h21l5 4 2 5v14l-3 7-4 3h-19l-6-4-2-4v-18l4-6z" fill="#002859"/>
<path transform="translate(750,1012)" d="m0 0h19l5 3 3 6v15l-3 6-4 3h-21l-5-5-1-3v-17l3-5z" fill="#002859"/>
<path transform="translate(690,1071)" d="m0 0h20l5 4 2 5v15l-3 7-7 3h-14l-6-3-3-4v-20l3-5z" fill="#002859"/>
<path transform="translate(637,1070)" d="m0 0 14 1 6 5 1 2v19l-3 5-3 2-17 1-7-3-3-5v-19l4-6z" fill="#002859"/>
<path transform="translate(632,1130)" d="m0 0h19l6 5 1 3v18l-6 7-5 1h-11l-7-3-3-3-1-3v-17l4-6z" fill="#002859"/>
<path transform="translate(691,1130)" d="m0 0h19l5 5 2 6v13l-3 6-4 3-8 1h-8l-7-3-3-5v-19l5-6z" fill="#002859"/>
<path transform="translate(632,1012)" d="m0 0h19l5 4 2 4v18l-5 6-2 1h-20l-5-4-1-3v-18l3-5z" fill="#002859"/>
<path transform="translate(692,1012)" d="m0 0h18l5 4 2 4v17l-3 5-4 3h-19l-6-4-1-2v-20l5-6z" fill="#002859"/>
<path transform="translate(287,848)" d="m0 0h1l3 17 7 25 7 19 3 4-2 23-1 22-1 2h-3l-4-13v-3l-6-23-3-20-1-12z" fill="#F59101"/>
<path transform="translate(489,1210)" d="m0 0h3l8 21 4 4-1 3-5 2-8 1-29-5-5-11 1-3 27-10z" fill="#F5B569"/>
<path transform="translate(477,901)" d="m0 0h11l12 4 6 9 26 1v1h-78l-6 2h-12l-1 2-1-4 18-1 8-7 12-6z" fill="#002859"/>
<path transform="translate(294,723)" d="m0 0 4 5 8 8 4 2-2 9-5 13-4 1-9-4-7-4 4-1 1-8h-2l1-5 6-15z" fill="#F4B56A"/>
<path transform="translate(307,915)" d="m0 0 3 3 7 10 9 8 11 4h18l-1 2h-49l1-17z" fill="#033675"/>
<path transform="translate(536,896)" d="m0 0 8 1-1 2-5 2-1 7-1 6-4 2-1-5v-8l3-6z" fill="#073C7C"/>
<path transform="translate(305,915)" d="m0 0h2v10l-2 33-3 1z" fill="#F7A810"/>
<path transform="translate(272,602)" d="m0 0 2 1-15 8-5 2 4-4zm-20 11h2l-2 4-14 14-1-2 7-8z" fill="#053167"/>
<path transform="translate(806,667)" d="m0 0 1 2-2-1zm-3 2h2l-2 4-10 10-2-2z" fill="#114179"/>
<path transform="translate(456,162)" d="m0 0h13l1 1v13h-1l-1-11-13-1z" fill="#042C5D"/>
<path transform="translate(378,198)" d="m0 0 3 1-9 9-3 1 2-4zm-10 11m-1 1m-1 1 1 2-2-1z" fill="#14447B"/>
<path transform="translate(304,942)" d="m0 0h1v16l-3 1 1-16z" fill="#FBA90A"/>
<path transform="translate(285,743)" d="m0 0 3 1v9l-3-2v-2h-2z" fill="#FAA708"/>
<path transform="translate(532,900)" d="m0 0h2v13 3h-2l-1-5v-8z" fill="#0C386D"/>
</svg>
