<?xml version="1.0" encoding="UTF-8"?>
<svg version="1.1" viewBox="0 0 1024 1536" width="1024" height="1536" xmlns="http://www.w3.org/2000/svg">
<path transform="translate(595,470)" d="m0 0 10 3 27 11 30 12 3 4v22l-2 9 25 3 27 6 20 6 16 6 20 9 19 10 19 12 12 9 10 8 20 18 11 11 7 8 12 14 14 19 10 16 12 21 10 21 9 24 8 29 3 16 2 20v34l-3 24-6 25-7 19-8 16-6 11-11 16-9 11-9 9-2 4-9 70-6 44-3 5-1 1h-140l-34-3h-8l-3 3-3 1h-14l-28-9-5-1h-20l-15 3-18 7-17 4-10 1h-26l-14-3-4-2-99-1-7-3-8-6-5-6-3-11v-2l-12-1-3-1 7 8 7 6 4 5 5 5v1h-10l-13-5-16-8-9-6-4-4v-2l-38-4-39-6-22-5-7-2 4 17 7 27v5h-7l-3-9-10-34 1-5 13-12 11-9 12-11 8-7 15-14 4-2 12 19 15 22 10 13 9 11 5-5 16-7h3l-12-36-16-43-11-27-8-17-7-9-9-5-8-2-32-3-38-2h-18l-17 10-18 7-15 3h-19l-9-2 4 18 6 8 7 6 9 4 10 2 24 1 26-2 43-6 3 1-10 13-13 18-21 31-9 15-2 4 4 1 8 8 5 4-1 7-6 9-1 8 6 13-1 4-6 1-7-3-6-7-5-14-1-3v-8l4-8 5-8-19-5-21-8-16-8-12-7-4 10-9 34-10 37-3 6h-5l-1-6 20-81 1-8-18-18-10-13-9-14-8-16-6-18-4-18-2-15v-37l3-19 6-21 6-14 10-17 10-13 7-7 11-8 2 1-6 9-4 8-3 12v15l3 10 6 8 5 4 6 3v-27l3-11 4-7 7-7 11-4 14 1 7-11 4-11 2-7v-8l-2-6 1-9 5-5 7 1 4 6v2l24-7h7l-2 8 26-3 25-5 26-9 19-9 16-10 13-10 13-12 10-11 13-17 14-19 10-13 11-14 8-8 4-5 8-7 11-10 17-12 21-11 17-6 23-6v-39l13-6 36-14zm-383 290-6 4-6 2-12-1-5-1-2 4-1 6v13l7 9 9 12 4 7 5-2 6-7 5-10 2-10v-11l-3-12-1-3zm130 120-1 8h58l-1-5-1-3zm-2 192m301 16-97 2-3 1 1 8 8 5 7 2h9l16-4 15-6 12-3 18-1 13 2 25 8 5 1h10l3-3-10-1-1-3v-8zm-119 17 2 2 7 1h17l2-2-6-1z" fill="#DFF2FC"/>
<path transform="translate(382,907)" d="m0 0h62l78 39 2 3 4 32 4 37 8 67 3 14 7 4 7 2h9l16-4 15-6 12-3 18-1 13 2 25 8 5 1h10l1-1-8-1-2-4 1-9h2l2-18 15-111 2-9 6-5 42-19 36-16 3-1h114l2 2v8l-8 62-1 12-8 64-6 44-3 5-1 1h-140l-34-3h-8l-3 3-3 1h-14l-28-9-5-1h-20l-15 3-18 7-17 4-10 1h-26l-14-3-4-2-99-1-7-3-8-6-5-6-3-11v-2l-4-1h4l-1-3-5-134zm140 198 2 2 7 1h17l2-2-6-1z" fill="#2976AD"/>
<path transform="translate(359,271)" d="m0 0h19l17 4 14 7 12 9 9 10 7 11 6 18v7l8-3h15l10 3 11 8 5 7 1 3 5-15 9-14 7-7 11-7 11-4 16-2 15 2 12 5 11 7 9 10 7 12 3 11 1 8 9-3h16l9 3 9 7 6 9 3 10v16l-4 13-7 11-10 8-10 4-7 2h-212l-11-4-9-8-4-8-124-1-14-3-12-6-10-9-7-11-4-13v-18l4-13 7-11 8-8 11-6 12-4h15l13 4 8 5 4-10 7-14 11-12 8-7 10-6 18-6z" fill="#FBFDFD"/>
<path transform="translate(481,638)" d="m0 0h295l1 1v149h-297v-149z" fill="#FCFDFD"/>
<path transform="translate(118,765)" d="m0 0 2 1-6 9-4 8-3 12v15l3 10 6 8 5 4 6 3v-27l3-11 4-7 7-7 11-4 12 1 10 3 2 1v2l4 2 5 5 8 9 7 11v2l3 1 3 10 3 16v25l21 1h25l3 7 1 9-2 4-36 6-16 2v17l-11 7-14 7-15 5-11 2h-19l-9-2 4 18 6 8 7 6 9 4 10 2 24 1 26-2 43-6 3 1-10 13-13 18-21 31-9 15-2 4 4 1 8 8 5 4-1 7-6 9-1 8 6 13-1 4-6 1-7-3-6-7-5-14-1-3v-8l4-8 5-8-19-5-21-8-16-8-12-7-4 10-9 34-10 37-3 6h-5l-1-6 20-81 1-8-18-18-10-13-9-14-8-16-6-18-4-18-2-15v-37l3-19 6-21 6-14 10-17 10-13 7-7z" fill="#F7892D"/>
<path transform="translate(780,908)" d="m0 0h114l2 2v8l-8 62-1 12-8 64-6 44-3 5-1 1h-103l4-53 3-45 5-70 2-26 1-2-2-1z" fill="#2976AD"/>
<path transform="translate(210,446)" d="m0 0h22l17 4 16 8 12 9 9 10 8 13 5 12 3 11 1 9v12l-3 18-5 13-7 12-11 12-8 7-16 9-13 4-14 2h-10l-16-3-16-6-11-7-12-11-7-8-8-14-5-16-1-7v-22l4-17 8-16 10-13 11-10 10-6 13-6z" fill="#FAFCFD"/>
<path transform="translate(469,624)" d="m0 0h329l3 4v173l-3 3h-137v51h34v13h-140v-13l43-1v-49l-129-1-3-2-1-4v-167l2-5zm12 14-1 1v149h297v-149l-1-1z" fill="#4C99CC"/>
<path transform="translate(790,302)" d="m0 0h24l15 4 12 5 12 8 12 11 9 13 6 13 3 11 1 6v17l-3 16-7 16-9 13-11 11-15 10-15 6-11 2h-24l-15-4-12-5-11-8-10-9-8-11-6-12-4-14-1-6v-23l4-17 8-16 7-9 6-7 12-9 16-8z" fill="#F8882B"/>
<path transform="translate(777,909)" d="m0 0 4 1-5 67-2 31-5 72-2 23-1 3h-37l-34-3h-8l-3 3-3 1h-14l-28-9-5-1h-20l-15 3-18 7-17 4-10 1h-26l-14-3-10-6-6-8-2-6-1-7-6-4v-7l3-3h6l2 3v14l4 10 4 5 11 5 12 2h17l1-4 8 2h9l16-4 15-6 12-3 18-1 13 2 25 8 5 1h10l1-1-8-1-2-4 1-9h2l2-18 15-111 2-9 6-5 42-19z" fill="#4D9ACD"/>
<path transform="translate(240,890)" d="m0 0h5l1 15 106 1 30 1 5 143 1 27h-12l-3-1 7 8 7 6 4 5 5 5v1h-10l-13-5-16-8-9-6-4-4v-2l-38-4-39-6-22-5-7-2 4 17 7 27v5h-7l-3-9-10-34 1-5 13-12 11-9 12-11 8-7 15-14 4-2 12 19 15 22 10 13 9 11 5-5 16-7h3l-12-36-16-43-11-27-8-17-7-9-9-5-8-2-32-3-55-3v-17l16-3z" fill="#DFF2FC"/>
<path transform="translate(152,779)" d="m0 0 12 1 10 3 2 1v2l4 2 5 5 8 9 7 11v2l3 1 3 10 3 16v25l21 1h25l3 7 1 9-2 4-36 6-16 2v17l-11 7-14 7-15 5-11 2h-19l-9-2 1-40v-84l3-11 4-7 7-7z" fill="#4E9BCE"/>
<path transform="translate(790,302)" d="m0 0h24l15 4 12 5 12 8 12 11 9 13 6 13 3 11 1 6v17l-3 16-7 16-9 13-11 11-15 10-15 6-11 2h-24l-15-4-12-5-11-8-10-9-8-11-6-12-4-14-1-6v-23l4-17 8-16 7-9 6-7 12-9 16-8zm4 22-15 4-11 6-9 8-7 10-5 10-3 13v16l4 16 6 11 9 10 14 9 12 4 5 1h18l16-5 11-7 7-6 8-11 4-8 3-10 1-16-3-14-4-10-7-10-9-9-10-6-9-4-9-2z" fill="#F7882C"/>
<path transform="translate(382,907)" d="m0 0h55l-2 2v197h-24l-7-3-8-6-5-6-3-11v-2l-4-1h4l-1-3-5-134z" fill="#4D9ACD"/>
<path transform="translate(594,488)" d="m0 0 6 1 49 18v25l-4 20-7 16-8 12-11 12-10 8-11 6-5-1-11-6-10-8-9-9-9-14-6-14-4-18-1-10v-19l24-9z" fill="#F7882B"/>
<path transform="translate(118,765)" d="m0 0 2 1-6 9-4 8-3 12v15l3 10 6 8 5 4 7 4v56l-2-3-3-18-5-12-6-8-3-2h-6l-2 5 5 12 2 9 1 9v30l-2 30 2 13 6 12 4 5 8 5 5 2-1 8-7 26-20-20-10-13-9-14-8-16-6-18-4-18-2-15v-37l3-19 6-21 6-14 10-17 10-13 7-7z" fill="#DDF1FB"/>
<path transform="translate(595,470)" d="m0 0 10 3 27 11 30 12 3 4v22l-3 25-5 18-8 15-10 14-10 10-14 10-13 7 194 1 5 2 2 5v171l-1 2-2-1v-173l-2-3h-329l-2 1 1-3 2-1h121l-21-12-15-14-10-12-8-14-5-15-4-22v-36l13-6 36-14zm-1 18-38 14-13 5v19l3 21 5 15 7 13 8 10 9 9 14 9 6 3 5-1 12-7 13-12 8-10 8-14 5-14 3-16v-25l-44-16-7-3z" fill="#FBFCFC"/>
<path transform="translate(498,882)" d="m0 0h7l6 2 3-2h7l7 2 8-2 9 2 2-1h11l3 2 4-2h10l5 1 8-2 5 2h3l5-2 8 1 4 1 5-2 8 1 3 2 6-3 8 1 5 1 4-2h7l5 2 3-2h8l5 2 3-2h8l6 2 6-2 7 1 4 2 4-2h9l5 1 2-1h9l7 4 7 1 2 2v17l-1 1h-64l-229-1v-18l7-2 5-2 2-2h12l4 1z" fill="#2976AD"/>
<path transform="translate(852,821)" d="m0 0h15l13 4 11 7 8 9 5 12 1 5v19l-4 11-8 11-4 2v2l4 3 3 1 2 7-2 4-1-8-1-1-114-1 1-2 41-1v-1l8-1-8-7-6-8-4-10-1-9v-12l3-10 6-9 4-5 9-6 9-4z" fill="#FCFDFD"/>
<path transform="translate(456,355)" d="m0 0h10l15 2 2 1v2h-2v2l-5 1-1 3 7 2 5 6 1 6-5 5-3 4 8 4 1 7-1 2v5l-2 2 1 6 3 4-2 5-4 5-1 4 3 4-1 2h-71l-1 1h211v1h-212l-11-4-9-8-4-8-124-1v-1h125l-1-3v-13l3-6 6-5 5-2h14l4 1 2-13 3-5h2l2-4 8-7 14-6z" fill="#DCF1FC"/>
<path transform="translate(213,485)" d="m0 0h14l12 5 6 5 6 9 2 8h10l8 4 7 8 2 7v9l-3 8-4 6-10 6h-79l-10-5-6-7-3-9v-9l4-10 8-7 5-2 6-1 3-9 7-9 8-5z" fill="#4D9ACD"/>
<path transform="translate(866,717)" d="m0 0h8l12 3 14 7 9 10 5 12 1 6v11l-3 11-6 10-7 7-12 7-10 3h-15l-10-3-11-6-8-7-7-14-1-4v-16l3-13 7-10 8-7 9-4z" fill="#FBFDFD"/>
<path transform="translate(292 1e3)" d="m0 0 4 5 15 23 12 17 11 14 5 6 5-5 16-7h4l5 14 2 4h2l7 8 7 6 4 5 5 5v1h-10l-13-5-16-8-9-6-4-4v-2l-38-4-39-6-22-5-7-2 4 17 7 27v5h-7l-3-9-10-34 1-5 13-12 11-9 12-11 8-7 15-14z" fill="#DDF1FB"/>
<path transform="translate(142,984)" d="m0 0 20 2h19l23-1 8 25 3 9v6l-6 9-6 11 4 1 8 8 5 4-1 7-6 9-1 8 6 13-1 4-6 1-7-3-6-7-5-14-1-3v-8l4-8 5-8-19-5-21-8-16-8-13-8 2-10 7-25z" fill="#DEF1FB"/>
<path transform="translate(360,780)" d="m0 0h49l-1 9-16 80-2 4h-48l1-10 16-81z" fill="#E0F3FC"/>
<path transform="translate(280,887)" d="m0 0h61l97 1 1 3v16h-87l-107-1v-17l8-1z" fill="#F7882C"/>
<path transform="translate(794,324)" d="m0 0h17l12 3 13 7 10 9 6 7 6 12 3 10 1 7-1 16-4 13-7 11-7 8-10 7-10 5-11 3h-18l-12-3-12-6-10-8-8-10-5-11-3-13v-16l3-13 6-12 9-11 11-8 12-5zm1 9-13 4-10 6-10 10-7 14-2 10v13l3 12 5 10 9 10 10 6 10 4 6 1h14l13-4 12-7 9-10 6-12 2-7v-19l-4-12-6-10-10-10-14-7-9-2z" fill="#FBFAF9"/>
<path transform="translate(659,808)" d="m0 0h1l1 47 11 1h22v11h-138v-11h44v-25h1v9l12-1h10l2-4 3-1h-4v-2l-7-1-3-1-6 1-1-2 51-10v8z" fill="#4E9BCE"/>
<path transform="translate(856,835)" d="m0 0 10 1 8 3 10 9 4 8 1 4v12l-4 11-8 9-10 5-4 1h-9l-9-3-9-6-6-9-2-6v-14l4-10 7-8 8-5z" fill="#F7882B"/>
<path transform="translate(469,624)" d="m0 0h329l3 4v173l-3 3h-135l-1-2 129-1v-176l-321 1-2 2v173l130 1v1h-131l-2-5v-167l2-5z" fill="#2C79B0"/>
<path transform="translate(358,774)" d="m0 0h58l1 1v7l-14 73-5 27-1-2h-55l-1 7h-60l-1-1v-6l4-2h52l5-26 15-75zm2 6-3 11-15 77v5h48l3-9 16-80v-4z" fill="#4693C6"/>
<path transform="translate(865,735)" d="m0 0h10l6 4 4 8v3l9 1 5 5 2 5v7l-5 8-5 3h-42l-6-4-3-4-1-3v-9l4-6 7-3h5v-6l6-7z" fill="#4B98CB"/>
<path transform="translate(599,804)" d="m0 0h62v52h-1l-1-26-2-3v-7l-35 7-8 2 4 1 6 2v2h4l-1 2-3 1-1 2-10 1h-12l-1 16-3 1h-40l-1 10h138v-11l-4 1h-18l-9-1v-1h32v13h-140v-13l43-1v-49z" fill="#2A77AD"/>
<path transform="translate(183,723)" d="m0 0 7 1 4 6v2l24-7h7l-1 8 2 6v8l-9 10-1 5 1 6-2-2-1-6-8 5-6 2-12-1-5-1-2 9v15l-5-3v-2l-10-3 8-14 5-16v-8l-2-6 1-9z" fill="#E9C0A7"/>
<path transform="translate(726,1054)" d="m0 0 7 1 3 4v7l-3 4-7 1-5-3-6-3-4-1h-10l-5 3-2 4-3 24-3 7-4 4-3 1h-14l-28-9-5-1h-20l-15 3-18 7-17 4-10 1h-26l-14-3-10-6-6-8-2-6-1-7-6-4v-7l3-3h6l2 3v14l4 10 4 5 11 5 12 2h17l1-4 8 2h9l16-4 15-6 12-3 18-1 13 2 25 8 5 1h10l5-5 2-12 2-15 3-6 5-4 2-1h14l8 2 1-5z" fill="#EAF4FA"/>
<path transform="translate(286,861)" d="m0 0h13l6 3 9 7 6 7v1h-36l-4 1 1 7-1 1h-23l1-7-2-13 21-4z" fill="#E9C0A6"/>
<path transform="translate(360,1058)" d="m0 0h4l5 14 2 4h2l7 8 7 6 4 5 5 5v1h-10l-13-5-16-8-9-6-6-7-2-3 1-5 14-7z" fill="#E9C0A7"/>
<path transform="translate(204,1045)" d="m0 0 4 2 7 7 5 4-1 7-6 9-1 8 6 13-1 4-6 1-7-3-6-7-5-14-1-3v-8l4-8 7-11z" fill="#EAC1A7"/>
<path transform="translate(623,517)" d="m0 0h5l3 4-1 5-14 15-12 13-9 10-5 5-4-1-18-18-3-4 1-6 6-1 15 15 4-1 9-11 8-8 9-11z" fill="#2976AD"/>
<path transform="translate(255,963)" d="m0 0 3 1-10 13-13 18-12 18-3-4-6-22 1-5 21-7-1-7-1-2z" fill="#DCEFF9"/>
<path transform="translate(135,825)" d="m0 0 2 3 4 15 5 12 10 19 11 12 16 8 19 2-4 3-10 2h-14l-11-4-10-9-4-5-6-12-5-19-3-22z" fill="#2976AD"/>
<path transform="translate(800,351)" d="m0 0 7 1 1 3 1 27 22 13 1 1v7l-5 3-11-6-17-11-2-2v-33z" fill="#FBF9F7"/>
<path transform="translate(414,774)" d="m0 0 3 1v7l-14 73-5 27-1-2-53-1v-1h51v-7l18-93 1-2h-54v-1z" fill="#2B78AF"/>
<path transform="translate(682,754)" d="m0 0h64l1 5-2 2h-62l-2-2z" fill="#ADD6EE"/>
<path transform="translate(684,661)" d="m0 0h60l3 3-2 4h-61l-2-4z" fill="#B1D8EF"/>
<path transform="translate(233,1057)" d="m0 0h3l4 11 9 35v5h-7l-3-9-10-34 1-5z" fill="#F78B32"/>
<path transform="translate(787,982)" d="m0 0h98v4h-99z" fill="#4F9CCF"/>
<path transform="translate(779,1048)" d="m0 0h97l2 4h-99z" fill="#4F9CCF"/>
<path transform="translate(542,684)" d="m0 0h52l1 5-2 2h-50l-1-1z" fill="#B1D8EF"/>
<path transform="translate(622,661)" d="m0 0h50l1 5-1 2h-51l-1-5z" fill="#B1D8EF"/>
<path transform="translate(622,706)" d="m0 0h51l1 5-2 2h-49l-2-2z" fill="#B1D8EF"/>
<path transform="translate(446,982)" d="m0 0 18 2 18 3 12 5 6 5 6 10 3 18 2 16v8h-1l-1-5v8h-1l-5-38-4-11-5-6-8-4-6-2-34-5z" fill="#A8D2EC"/>
<path transform="translate(562,706)" d="m0 0h50l1 4-2 3h-49l-1-1v-5z" fill="#A9D3EC"/>
<path transform="translate(604,731)" d="m0 0h49l1 1v5l-1 1h-49l-1-1v-5z" fill="#B1D8EF"/>
<path transform="translate(603,684)" d="m0 0h47l1 1v5l-1 1h-47l-1-1v-5z" fill="#B1D8EF"/>
<path transform="translate(550,731)" d="m0 0h44l2 2-1 4-1 1h-44l-2-5z" fill="#B1D8EF"/>
<path transform="translate(507,1027)" d="m0 0h1l2 16v6h2l3 12 6 15 6 10 8 9 13 7 1 4h-5v-1l-6-2-9-7-7-8-8-15-4-11-2-10z" fill="#559FD1"/>
<path transform="translate(492,1068)" d="m0 0h6l2 3v14l4 10 4 5 11 5 12 2-4 4-10-1-10-5-5-5-4-5-2-6-1-7-6-4v-7z" fill="#F0F8FC"/>
<path transform="translate(871,857)" d="m0 0 5 1-1 6-11 12-6 6h-5l-10-9-1-5 5-1 7 6 4-2z" fill="#2976AD"/>
<path transform="translate(758,995)" d="m0 0 2 1-1 4-21 7-41 13h-4l1-5 20-6z" fill="#E3F2FA"/>
<path transform="translate(513,706)" d="m0 0h39l1 5-1 2h-39l-1-5z" fill="#B1D8EF"/>
<path transform="translate(661,684)" d="m0 0h39l1 1v5l-1 1h-38l-2-2z" fill="#B1D8EF"/>
<path transform="translate(726,1054)" d="m0 0 7 1 3 4v7l-3 4-7 1-5-3-6-3-14-2 2-2h8v-1h7l3 1 1-5z" fill="#F7FBFD"/>
<path transform="translate(635,754)" d="m0 0h38l1 5-2 2h-36l-2-2z" fill="#B1D8EF"/>
<path transform="translate(394,1007)" d="m0 0h33v8l-32 1-1-1z" fill="#DFF3FD"/>
<path transform="translate(710,684)" d="m0 0h36l2 2-1 4-1 1h-36l-1-1v-5z" fill="#B1D8EF"/>
<path transform="translate(394,945)" d="m0 0h33v8h-33z" fill="#E9F6FD"/>
<path transform="translate(709,731)" d="m0 0h36l2 2-1 4-1 1h-35l-2-2z" fill="#B1D8EF"/>
<path transform="translate(445,1044)" d="m0 0h47l16 1v4h-22l-41-1z" fill="#64A8D5"/>
<path transform="translate(530,754)" d="m0 0h36l1 5-2 2h-34l-2-5z" fill="#B1D8EF"/>
<path transform="translate(396,1071)" d="m0 0h31v8h-31z" fill="#E4F5FD"/>
<path transform="translate(666,731)" d="m0 0h33l1 1v5l-1 1h-34l-1-5z" fill="#B1D8EF"/>
<path transform="translate(716,706)" d="m0 0h30l1 1v6h-31l-1-1v-5z" fill="#B1D8EF"/>
<path transform="translate(758,945)" d="m0 0h4v4l-34 12-9 3h-3l1-5z" fill="#E1F0F9"/>
<path transform="translate(797,939)" d="m0 0h6l5 5-1 8-3 3-6 1-5-3-1-8 3-5z" fill="#F8FBFD"/>
<path transform="translate(451,943)" d="m0 0h8l4 5-1 7-4 4h-6l-5-5v-6z" fill="#F9FCFD"/>
<path transform="translate(402,838)" d="m0 0 3 1-1 11-6 32-1-2-53-1v-1h51v-7l6-31z" fill="#2B78AE"/>
<path transform="translate(798,1010)" d="m0 0 6 1 4 5-1 7-3 3-4 1-7-3-1-2v-7l3-4z" fill="#F8FBFD"/>
<path transform="translate(452,1006)" d="m0 0h6l4 4 1 6-4 5-5 1-5-2-2-2v-7z" fill="#F8FBFD"/>
<path transform="translate(173,810)" d="m0 0 3 4 11 24 9 14 8 10 1 3 2-1 1-19h1v22l-9-1-5-6-10-19-12-28z" fill="#2976AD"/>
<path transform="translate(796,1070)" d="m0 0h6l4 3 1 6-3 5-1 1h-8l-4-5 1-7z" fill="#F9FCFD"/>
<path transform="translate(514,731)" d="m0 0h25l2 6-1 1h-26l-2-2 1-4z" fill="#B1D8EF"/>
<path transform="translate(530,661)" d="m0 0h25l1 5-2 2h-24l-1-1v-5z" fill="#B1D8EF"/>
<path transform="translate(452,1070)" d="m0 0 7 1 3 4v6l-3 4h-8l-4-4 1-7z" fill="#FAFCFD"/>
<path transform="translate(603,754)" d="m0 0h23l1 5-2 2h-22l-1-6z" fill="#B1D8EF"/>
<path transform="translate(683,706)" d="m0 0h22l2 2-1 4-1 1h-23v-6z" fill="#AED6EE"/>
<path transform="translate(592,661)" d="m0 0h20l2 5-2 2h-21l-1-4z" fill="#B1D8EF"/>
<path transform="translate(562,661)" d="m0 0h19l2 2-1 5h-20l-1-1v-5z" fill="#B1D8EF"/>
<path transform="translate(674,1075)" d="m0 0h1v8l-1 4-2 1-72 2 1-2 32-1 2-1 38-1z" fill="#D4E9F6"/>
<path transform="translate(514,684)" d="m0 0h19l1 5-2 2h-18l-1-1v-5z" fill="#B1D8EF"/>
<path transform="translate(575,754)" d="m0 0h19l1 1v5l-1 1h-17l-3-3z" fill="#B1D8EF"/>
<path transform="translate(492,1068)" d="m0 0h6l2 3-1 13-3 1-2-4-5-3v-7z" fill="#F8FBFD"/>
<path transform="translate(500,880)" d="m0 0 11 2 5-2 8 1 5 1 2-1h9l6 1-1 3-11-2-8 2-5-2h-7l-5 2-4-2h-7l-5 2-2-1h-12l-3 3-4-1 8-5h10l4 1z" fill="#F5FAFC"/>
<path transform="translate(360,780)" d="m0 0h49l-1 9-3 11h-1l1-10 2-8h-47z" fill="#F9FCFD"/>
<path transform="translate(699,1059)" d="m0 0h14l-1 3h-11v2l-5 3-2 4-2 12h-1l-1-6h-1v-7l3-6 5-4z" fill="#EAF5FB"/>
<path transform="translate(505,661)" d="m0 0h15l2 2-1 4-1 1h-15l-2-2 1-4z" fill="#B1D8EF"/>
<path transform="translate(394,1007)" d="m0 0h33v8l-32 1-1-1zm2 2v5h29v-5z" fill="#E7F3FA"/>
<path transform="translate(446,982)" d="m0 0 18 2 16 3-1 3-13-1-20-3z" fill="#AFD7EE"/>
<path transform="translate(505,754)" d="m0 0h15l1 1v5l-1 1h-15l-1-1v-5z" fill="#B0D7EE"/>
<path transform="translate(275,882)" d="m0 0h5l1 5-1 1h-23l3-4 3-1z" fill="#D6EAF5"/>
<path transform="translate(941,774)" d="m0 0 2 3 4 20 2 20v30h-1v-29h-2l-1-20-1-10h-2l-1-4z" fill="#90C2E2"/>
<path transform="translate(648,823)" d="m0 0 6 2v3h-2l-1 2-2-2-3 6h-6v-6-4z" fill="#2976AD"/>
<path transform="translate(480,987)" d="m0 0 10 3 9 6 2 6 1 4-4-4-4-5-8-4-9-4z" fill="#A5D1EB"/>
<path transform="translate(118,765)" d="m0 0 2 1-6 9-4 8-2 6h-1v-7l4-8-8 6-4 2 6-7 11-9z" fill="#D2E8F5"/>
<path transform="translate(306,1069)" d="m0 0 33 3 3 1 1 3-37-4z" fill="#DEEEF8"/>
<path transform="translate(330,700)" d="m0 0 2 1-2 3-4 1-1 2h-4l-1 3-8 4h-5v2l-9 3-6 1 2-2 17-7 18-10z" fill="#C6E1F1"/>
<path transform="translate(396,1071)" d="m0 0h31v5h-2v-3h-27v5l-2 1z" fill="#DBEDF7"/>
<path transform="translate(690,1074)" d="m0 0h1l1 16-1 5-5 1 2-21z" fill="#E3F2FA"/>
<path transform="translate(758,995)" d="m0 0 2 1-1 4-10 3-10 1v-3z" fill="#E3F1F9"/>
<path transform="translate(758,945)" d="m0 0h4v4l-5 2-6-1-17 6-2-1 5-3z" fill="#E8F4FA"/>
<path transform="translate(220,911)" d="m0 0 23 1v2h10v1h-12l-36-2v-1z" fill="#C2DFF1"/>
<path transform="translate(590,881)" d="m0 0 5 2 4-2h9l5 1 2-1h10l6 1-2 4-6-3-9 1-4 1-4-2-8 1-4 2-4-3z" fill="#F4F9FC"/>
<path transform="translate(637,880)" d="m0 0 11 2 9-2 6 2 6-2h4v2l-8 2h-4l-2-1h-7l-4 2-5-1-8-2z" fill="#F8FBFD"/>
<path transform="translate(705,1012)" d="m0 0 4 1-2 1 1 2-11 4h-4l1-5z" fill="#E6F3FA"/>
<path transform="translate(549,881)" d="m0 0h7l7 1 3-1h8l7 1-1 3-5-1h-10l-5 2-2-2-10-1z" fill="#ECF6FB"/>
<path transform="translate(209,837)" d="m0 0h1l1 10v18h5l1 2h-8z" fill="#FBFDFD"/>
<path transform="translate(496,1045)" d="m0 0h12v4h-22v-1l9-1z" fill="#4F9CCF"/>
<path transform="translate(751,949)" d="m0 0 4 1-1 2-18 6v-2l-2-1z" fill="#D1E9F6"/>
<path transform="translate(289,1007)" d="m0 0 2 1-10 10-8 7-4 4-5 4-2-1 15-14z" fill="#B1D6ED"/>
<path transform="translate(736,547)" d="m0 0 10 3 14 6v1l-9-1-11-5v-2l-4-1z" fill="#C3DFF1"/>
<path transform="translate(515,1105)" d="m0 0 16 2-4 4-10-1z" fill="#ECF6FB"/>
<path transform="translate(348,1012)" d="m0 0 3 1 2 6v5h2l1 8h2l-2 4-8-22z" fill="#C3DFF0"/>
<path transform="translate(941,774)" d="m0 0 2 3 4 20v7h-1l-2-11v-5h-2l-1-4z" fill="#A9D0E9"/>
<path transform="translate(272,914)" d="m0 0 11 1v2h5v1l-16-1-12-1v-1z" fill="#B6D8ED"/>
<path transform="translate(126,873)" d="m0 0 2 1v18l-2-3-1-14z" fill="#E0EEF5"/>
<path transform="translate(714,1009)" d="m0 0 2 1v4l-8 2-4-2 4-2 3-2z" fill="#D7ECF7"/>
<path transform="translate(700,881)" d="m0 0h9l7 1 1 2-4 2-6-3-8 1-4 1v-3z" fill="#F4FAFC"/>
<path transform="translate(402,838)" d="m0 0 3 1-1 11h-3-1l1-10z" fill="#2976AD"/>
<path transform="translate(657,819)" d="m0 0 1 2-1 7-3 1-3-7 2-2z" fill="#4592C6"/>
<path transform="translate(929,736)" d="m0 0 2 2 5 14-1 3-1-5h-2l-4-12z" fill="#BADAEE"/>
<path transform="translate(499,999)" d="m0 0 4 2 3 6-1 5-3-2-2-8z" fill="#93C6E5"/>
<path transform="translate(395,1011)" d="m0 0 1 3h27v1l-28 1-1-4z" fill="#FAFCFD"/>
<path transform="translate(765,559)" d="m0 0 6 2 10 5v1l-7-1-8-4z" fill="#CAE4F3"/>
<path transform="translate(749,998)" d="m0 0 2 1v4l-12 1v-3z" fill="#D3E9F6"/>
<path transform="translate(258,1062)" d="m0 0 10 1 5 1v2l-11-1-4-1z" fill="#DBEDF7"/>
<path transform="translate(904,963)" d="m0 0 1 3-9 10-2-2z" fill="#D3E8F4"/>
<path transform="translate(945,869)" d="m0 0h1l-1 11-2 8-1-4 1-11z" fill="#B6D8ED"/>
<path transform="translate(921,718)" d="m0 0 2 1 6 14-1 3v-2h-2l-1-7h-2z" fill="#B3D6EC"/>
<path transform="translate(437,583)" d="m0 0h2l-2 4-7 6h-2l2-4z" fill="#D9ECF7"/>
<path transform="translate(549,1103)" d="m0 0 11 3v1l-12 1v-3z" fill="#ADD6ED"/>
<path transform="translate(113,768)" d="m0 0 2 1-7 7-7 6-2-1 8-8z" fill="#B2D5EB"/>
<path transform="translate(306,1069)" d="m0 0 10 1v2h6v1l-16-1z" fill="#BEDDEF"/>
<path transform="translate(549,881)" d="m0 0h7l8 1-1 3-3 1-2-2-10-1z" fill="#E8F3FA"/>
<path transform="translate(859,627)" d="m0 0 12 12-1 2-9-8z" fill="#B5D7ED"/>
<path transform="translate(306,713)" d="m0 0 3 1h-2v2l-9 3-6 1 2-2z" fill="#AAD1EA"/>
<path transform="translate(905,690)" d="m0 0 3 1 5 9-1 2-3-3-4-7z" fill="#C5E0F1"/>
<path transform="translate(511,1049)" d="m0 0 2 3v7l-3 1-1-7z" fill="#89BFE1"/>
<path transform="translate(508,541)" d="m0 0h6l-1 2-10 3-4-1 6-1v-2z" fill="#E4F1F8"/>
<path transform="translate(652,820)" d="m0 0m-5 1h5v3h-12l2-2z" fill="#4F9CCF"/>
<path transform="translate(414,774)" d="m0 0 3 1v7l-3 1-1-8z" fill="#317EB4"/>
</svg>
