<?xml version="1.0" encoding="UTF-8"?>
<svg version="1.1" viewBox="0 0 1024 1024" width="1024" height="1024" xmlns="http://www.w3.org/2000/svg">
<path transform="translate(173,98)" d="m0 0h125l8 4 5 6 1 3 1 409 66 1 1-5 6-7 5-2h545l6 4 3 5v7l-9 31-18 58-22 73-21 69-7 22-3 5h-452v45l-3 9-6 9-7 6-9 4-5 1h-132l-10-3-9-6-6-7-4-8-1-4v-277l4-11 6-8 8-6 11-4h12l-1-241-4-11-8-10-9-6-8-3-72-1-1-1v-137l5-8 6-4zm352 470-8 4-4 6-16 50-15 49-14 46v9l4 4 2 1h101l7-4 4-6 9-28 19-62 16-52 1-3v-9l-4-4-2-1z" fill="#2ED6F4"/>
<path transform="translate(376,174)" d="m0 0h575l7 3 4 6v257l-3 5-6 4h-578l-6-3-4-4-1-3v-255l4-6 4-3z" fill="#2C54CB"/>
<path transform="translate(173,98)" d="m0 0h125l8 4 5 6 1 3 1 409 65 1 11 2 10 5 6 5 6 10 2 7v276l-3 9-6 9-7 6-9 4-5 1h-132l-10-3-9-6-6-7-4-8-1-4v-277l4-11 6-8 8-6 11-4h12l-1-241-4-11-8-10-9-6-8-3-72-1-1-1v-137l5-8 6-4z" fill="#2ED7F4"/>
<path transform="translate(40,303)" d="m0 0h162l7 3 6 5 3 5 1 4v334l-3 9-5 6-8 3h-164l-10-5-5-8-1-3v-337l4-8 8-6z" fill="#2C54CB"/>
<path transform="translate(253,536)" d="m0 0h128l9 4 6 7 2 4 1 6v263l-3 9-6 7-6 3h-133l-8-4-6-8-2-8v-264l3-8 6-7 5-3z" fill="#FCF0EE"/>
<path transform="translate(53,319)" d="m0 0h138l7 3 5 6 1 2v76l-4 7-8 4h-142l-6-3-5-6-1-6v-69l3-8 5-4z" fill="#2ED6F4"/>
<path transform="translate(51,555)" d="m0 0h131l9 3 4 5 2 7v71l-2 8-6 6-3 1h-137l-6-4-4-6-1-6v-70l2-8 7-6z" fill="#FDA644"/>
<path transform="translate(250,521)" d="m0 0h128l11 2 10 5 6 5 6 10 2 7v276l-3 9-6 9-7 6-9 4-5 1h-132l-10-3-9-6-6-7-4-8-1-4v-277l4-11 6-8 8-6zm3 15-7 3-7 6-3 6-1 4v264l3 10 5 6 8 4h133l8-5 4-5 3-9v-263l-2-8-4-6-6-5-6-2z" fill="#2C54CB"/>
<path transform="translate(575,244)" d="m0 0 16 1 19 4 15 5 19 10 11 8 12 11 7 8 9 13 8 15 7 20 4 18v9l-5 5h-35l-5-5-4-20-6-15-9-14-7-7-3 1-12 16-16 21-1 2-1 12-5 10-8 7-5 2h-12l-10-5-6-7-3-9 1-9 5-10 6-5 7-3h18l10-10 8-7 11-11 4-3-8-5-12-5-16-3-8-1z" fill="#FDA644"/>
<path transform="translate(260,585)" d="m0 0h113l5 5v66l-5 5h-112l-5-4-1-2v-64z" fill="#6998F9"/>
<path transform="translate(573,244)" d="m0 0 2 1v43l-21 3-16 6-13 8-11 10-10 14-6 15-2 8-2 14-5 5h-34l-5-4-1-8 3-20 5-16 8-17 10-14 9-10 10-10 13-9 17-9 18-6 16-3z" fill="#2ED6F4"/>
<path transform="translate(262,773)" d="m0 0h109l5 3 2 3v40l-5 5h-112l-5-4-1-2v-39l5-5z" fill="#2ED6F4"/>
<path transform="translate(48,434)" d="m0 0h52l6 4 3 4 1 4v42l-4 8-5 3h-53l-5-3-4-5-1-5v-37l2-8 4-5z" fill="#FDA644"/>
<path transform="translate(143,434)" d="m0 0h52l6 4 3 4v49l-6 7-3 1h-52l-5-3-4-5v-48l4-6z" fill="#FDA644"/>
<path transform="translate(674,600)" d="m0 0h58l5 3 1 1-1 8-10 34-3 8-6 5-3 1h-60l-4-3v-9l13-42 6-5z" fill="#FDA644"/>
<path transform="translate(649,678)" d="m0 0h60l4 3v8l-12 40-4 6-2 2-4 1h-58l-5-2-1-2v-8l12-40 5-6z" fill="#B4FAFE"/>
<path transform="translate(750,678)" d="m0 0h60l4 3v10l-12 39-6 7-4 1h-57l-6-3-1-2 1-10 11-36 4-6z" fill="#B4FAFE"/>
<path transform="translate(776,600)" d="m0 0h58l4 3v9l-12 40-4 5-6 3h-60l-4-3v-8l12-38 3-7 5-3z" fill="#FDA644"/>
<path transform="translate(856,289)" d="m0 0h49l5 4 1 2v47l-5 5h-49l-5-4-1-2v-47z" fill="#4DA1FD"/>
<path transform="translate(857,365)" d="m0 0h48l5 4 1 2v46l-5 6h-49l-5-5-1-2v-45l4-5z" fill="#4DA1FD"/>
<path transform="translate(778,289)" d="m0 0h49l5 5 1 4v41l-3 6-3 2h-48l-5-5-1-2v-46z" fill="#4DA0FD"/>
<path transform="translate(779,365)" d="m0 0h47l4 2 3 7v42l-4 6-2 1h-47l-5-4-2-4v-44l4-5z" fill="#4DA0FD"/>
<path transform="translate(632,289)" d="m0 0 5 2 2 2-1 6-6 8h-2l-2 4-12 16-16 21-1 2-1 12-5 10-8 7-5 2h-12l-10-5-6-7-3-9 1-9 5-10 6-5 7-3h18l10-10 8-7 25-25z" fill="#F77C97"/>
<path transform="translate(329,676)" d="m0 0h44l5 5v42l-4 5-4 1h-37l-5-2-4-5v-40z" fill="#2ED7F4"/>
<path transform="translate(262,675)" d="m0 0h39l5 3 2 2v43l-5 5-3 1h-36l-7-3-2-3v-42l4-5z" fill="#FDA644"/>
<path transform="translate(46,523)" d="m0 0h107l2 3-1 5-3 2h-104l-4-4 1-4z" fill="#FDA644"/>
<path transform="translate(258,746)" d="m0 0h70l3 4v5l-3 3h-70l-3-4 1-6z" fill="#5F8EF2"/>
<path transform="translate(295,550)" d="m0 0h44l4 5-1 6-3 2h-44l-3-3v-7z" fill="#2C54CB"/>
</svg>
